<?xml version='1.0' encoding='utf-8'?>
<svg xmlns="http://www.w3.org/2000/svg" version="1.1" viewBox="357.8 421.5 12.2 3.8"><g id="voronoi-map-only"><polygon id="cell-0" points="363.3,422.5 363.867211,422.861949 363.684378,422.776205" stroke="#ff0000" stroke-width="2" fill="none" /><polygon id="cell-1" points="363.3,422.5 364.98235,423.072319 365.152843,423.17891" stroke="#ff0000" stroke-width="2" fill="none" /><polygon id="cell-2" points="361.589159,423.807795 361.456333,423.624067 361.73617,423.327866 361.749122,423.636277" stroke="#ff0000" stroke-width="2" fill="none" /><polygon id="cell-3" points="363.450395,423.162242 363.3,422.5 363.653488,423.443502" stroke="#ff0000" stroke-width="2" fill="none" /><polygon id="cell-4" points="363.3,422.5 364.284365,422.627208 364.374274,422.852927" stroke="#ff0000" stroke-width="2" fill="none" /><polygon id="cell-5" points="366.154258,422.686998 365.950225,422.79647 366.171103,422.5" stroke="#ff0000" stroke-width="2" fill="none" /><polygon id="cell-6" points="361.005445,423.700165 361.128251,423.889132 360.897968,423.92977" stroke="#ff0000" stroke-width="2" fill="none" /><polygon id="cell-7" points="360.571191,423.638025 360.897968,423.92977 360.689228,423.966607" stroke="#ff0000" stroke-width="2" fill="none" /><polygon id="cell-8" points="362.248497,423.677197 361.850307,423.761711 362.087599,423.53573" stroke="#ff0000" stroke-width="2" fill="none" /><polygon id="cell-9" points="360.335315,424.009692 360.571191,423.638025 360.689228,423.966607" stroke="#ff0000" stroke-width="2" fill="none" /><polygon id="cell-10" points="362.330943,423.400253 362.352153,423.196787 362.565576,423.392355" stroke="#ff0000" stroke-width="2" fill="none" /><polygon id="cell-11" points="364.291727,422.561513 364.502496,422.608792 363.3,422.5" stroke="#ff0000" stroke-width="2" fill="none" /><polygon id="cell-12" points="363.548642,422.542243 363.714921,422.762392 363.3,422.5" stroke="#ff0000" stroke-width="2" fill="none" /><polygon id="cell-13" points="365.578287,422.95366 365.762341,422.708538 365.796519,422.898107" stroke="#ff0000" stroke-width="2" fill="none" /><polygon id="cell-14" points="364.68407,423.000555 364.925577,423.13643 364.698562,423.259077" stroke="#ff0000" stroke-width="2" fill="none" /><polygon id="cell-15" points="363.424329,422.764526 363.3,422.5 363.684378,422.776205" stroke="#ff0000" stroke-width="2" fill="none" /><polygon id="cell-16" points="365.997449,422.5 365.950225,422.79647 365.762341,422.708538" stroke="#ff0000" stroke-width="2" fill="none" /><polygon id="cell-17" points="362.285364,423.423359 362.565576,423.392355 362.576005,423.579611" stroke="#ff0000" stroke-width="2" fill="none" /><polygon id="cell-18" points="360.335315,424.009692 359.99537,423.821852 360.509856,423.616058" stroke="#ff0000" stroke-width="2" fill="none" /><polygon id="cell-19" points="366.843227,422.849451 369,422.5 366.54889,422.932549" stroke="#ff0000" stroke-width="2" fill="none" /><polygon id="cell-20" points="363.3,422.5 363.271207,422.764236 362.913081,422.654768" stroke="#ff0000" stroke-width="2" fill="none" /><polygon id="cell-21" points="361.770549,423.270936 361.97056,423.296619 358.8,424.3" stroke="#ff0000" stroke-width="2" fill="none" /><polygon id="cell-22" points="361.73617,423.327866 361.431279,423.247488 361.727739,423.128904" stroke="#ff0000" stroke-width="2" fill="none" /><polygon id="cell-23" points="363.06632,423.271281 363.00842,422.981062 363.309436,423.041132" stroke="#ff0000" stroke-width="2" fill="none" /><polygon id="cell-24" points="363.58901,422.956471 363.697431,423.13308 363.377171,423.093767" stroke="#ff0000" stroke-width="2" fill="none" /><polygon id="cell-25" points="364.797017,422.840714 364.562275,422.822643 363.3,422.5" stroke="#ff0000" stroke-width="2" fill="none" /><polygon id="cell-26" points="359.545755,424.168396 359.885601,423.86576 359.908161,424.104442" stroke="#ff0000" stroke-width="2" fill="none" /><polygon id="cell-27" points="366.476575,422.676096 366.391634,422.5 366.660744,422.5" stroke="#ff0000" stroke-width="2" fill="none" /><polygon id="cell-28" points="361.098521,423.535972 361.456333,423.624067 361.589159,423.807795 361.35054,423.849905" stroke="#ff0000" stroke-width="2" fill="none" /><polygon id="cell-29" points="362.517607,423.045344 362.362681,422.874928 362.646637,422.775927" stroke="#ff0000" stroke-width="2" fill="none" /><polygon id="cell-30" points="364.203449,422.931378 364.165512,423.213205 363.99358,423.089475" stroke="#ff0000" stroke-width="2" fill="none" /><polygon id="cell-31" points="361.005445,423.700165 361.35054,423.849905 361.128251,423.889132" stroke="#ff0000" stroke-width="2" fill="none" /><polygon id="cell-32" points="367.806162,422.5 367.699722,422.729461 367.492412,422.5" stroke="#ff0000" stroke-width="2" fill="none" /><polygon id="cell-33" points="366.616282,422.751378 366.54889,422.932549 366.3208,422.9728 366.397687,422.692299" stroke="#ff0000" stroke-width="2" fill="none" /><polygon id="cell-34" points="363.309436,423.041132 363.135897,423.534842 363.06632,423.271281" stroke="#ff0000" stroke-width="2" fill="none" /><polygon id="cell-35" points="363.816945,422.698524 364.134128,422.61179 358.8,424.3" stroke="#ff0000" stroke-width="2" fill="none" /><polygon id="cell-36" points="365.391649,422.854616 365.25559,422.986698 365.212082,422.75813" stroke="#ff0000" stroke-width="2" fill="none" /><polygon id="cell-37" points="363.3,422.5 362.557194,423.067275 362.341726,423.182727" stroke="#ff0000" stroke-width="2" fill="none" /><polygon id="cell-38" points="363.3,422.5 364.34946,422.5 364.502496,422.608792" stroke="#ff0000" stroke-width="2" fill="none" /><polygon id="cell-39" points="363.3,422.5 362.515606,423.29259 362.622927,423.069026" stroke="#ff0000" stroke-width="2" fill="none" /><polygon id="cell-40" points="360.571191,423.638025 361.098521,423.535972 360.895731,423.750011" stroke="#ff0000" stroke-width="2" fill="none" /><polygon id="cell-41" points="365.223865,422.720619 365.15272,422.5 365.396184,422.5" stroke="#ff0000" stroke-width="2" fill="none" /><polygon id="cell-42" points="362.630259,423.387864 362.969468,423.564212 362.576005,423.579611" stroke="#ff0000" stroke-width="2" fill="none" /><polygon id="cell-43" points="365.578287,422.95366 365.461192,422.798093 365.63748,422.714564" stroke="#ff0000" stroke-width="2" fill="none" /><polygon id="cell-44" points="364.22072,423.334407 363.785803,423.420152 363.790222,423.166806 363.99358,423.089475" stroke="#ff0000" stroke-width="2" fill="none" /><polygon id="cell-45" points="363.261967,422.740853 363.3,422.5 363.548642,422.542243" stroke="#ff0000" stroke-width="2" fill="none" /><polygon id="cell-46" points="365.557057,422.604919 365.836785,422.5 365.762341,422.708538" stroke="#ff0000" stroke-width="2" fill="none" /><polygon id="cell-47" points="360.335315,424.009692 359.908161,424.104442 359.99537,423.821852" stroke="#ff0000" stroke-width="2" fill="none" /><polygon id="cell-48" points="366.589097,422.658301 366.864706,422.620236 366.843227,422.849451" stroke="#ff0000" stroke-width="2" fill="none" /><polygon id="cell-49" points="363.261967,422.740853 362.913081,422.654768 363.236238,422.525505" stroke="#ff0000" stroke-width="2" fill="none" /><polygon id="cell-50" points="363.3,422.5 364.319573,422.5 364.134128,422.61179" stroke="#ff0000" stroke-width="2" fill="none" /><polygon id="cell-51" points="365.978503,422.818057 366.148311,423.003239 365.885634,423.049594" stroke="#ff0000" stroke-width="2" fill="none" /><polygon id="cell-52" points="366.148311,423.003239 365.973695,422.808734 366.154258,422.686998 366.315715,422.792675" stroke="#ff0000" stroke-width="2" fill="none" /><polygon id="cell-53" points="365.242378,422.710839 365.541545,422.5 365.430674,422.660129" stroke="#ff0000" stroke-width="2" fill="none" /><polygon id="cell-54" points="366.397687,422.692299 366.154258,422.686998 369,422.5" stroke="#ff0000" stroke-width="2" fill="none" /><polygon id="cell-55" points="367.847551,422.703373 367.806162,422.5 369,422.5" stroke="#ff0000" stroke-width="2" fill="none" /><polygon id="cell-56" points="362.189218,423.038896 362.362681,422.874928 362.517607,423.045344 362.341726,423.182727" stroke="#ff0000" stroke-width="2" fill="none" /><polygon id="cell-57" points="361.375379,423.537287 361.26175,423.3153 361.452529,423.308886" stroke="#ff0000" stroke-width="2" fill="none" /><polygon id="cell-58" points="362.971688,423.56382 362.784185,423.280112 363.06632,423.271281" stroke="#ff0000" stroke-width="2" fill="none" /><polygon id="cell-59" points="364.285776,423.043653 363.3,422.5 364.485059,423.117124" stroke="#ff0000" stroke-width="2" fill="none" /><polygon id="cell-60" points="367.241778,422.65193 367.492412,422.5 367.699722,422.729461" stroke="#ff0000" stroke-width="2" fill="none" /><polygon id="cell-61" points="363.317692,422.801246 363.58901,422.956471 363.309436,423.041132" stroke="#ff0000" stroke-width="2" fill="none" /><polygon id="cell-62" points="361.098521,423.535972 361.26175,423.3153 361.37506,423.539701" stroke="#ff0000" stroke-width="2" fill="none" /><polygon id="cell-63" points="363.714921,422.762392 363.424329,422.764526 363.548642,422.542243" stroke="#ff0000" stroke-width="2" fill="none" /><polygon id="cell-64" points="364.758668,422.750513 364.945293,422.5 365.01041,422.808139" stroke="#ff0000" stroke-width="2" fill="none" /><polygon id="cell-65" points="365.223865,422.720619 365.01041,422.808139 364.945293,422.5 365.15272,422.5" stroke="#ff0000" stroke-width="2" fill="none" /><polygon id="cell-66" points="362.946243,423.198801 363.00842,422.981062 363.3,422.5" stroke="#ff0000" stroke-width="2" fill="none" /><polygon id="cell-67" points="363.476542,423.306955 363.653488,423.443502 363.330021,423.500585" stroke="#ff0000" stroke-width="2" fill="none" /><polygon id="cell-68" points="361.97056,423.296619 361.749122,423.636277 361.770549,423.270936" stroke="#ff0000" stroke-width="2" fill="none" /><polygon id="cell-69" points="366.861705,422.877346 366.864706,422.620236 367.246165,422.8095" stroke="#ff0000" stroke-width="2" fill="none" /><polygon id="cell-70" points="365.163824,422.803914 365.25559,422.986698 365.096136,423.093475" stroke="#ff0000" stroke-width="2" fill="none" /><polygon id="cell-71" points="362.285364,423.423359 358.8,424.3 362.084726,423.456358" stroke="#ff0000" stroke-width="2" fill="none" /></g></svg>