<?xml version="1.0" encoding="UTF-8"?><svg id="A-FIN" xmlns="http://www.w3.org/2000/svg" viewBox="0 0 2955.71 2161.71"><defs><style>.cls-1{fill:none;stroke:red;stroke-linecap:round;stroke-linejoin:round;stroke-width:.71px;}</style></defs><g id="LWPOLYLINE"><polygon class="cls-1" points="1478.35 235.35 1478.35 379.35 986.35 379.35 1478.35 235.35"/></g><g id="LWPOLYLINE-2"><line class="cls-1" x1="1478.35" y1="235.35" x2="1255.35" y2="379.35"/></g><g id="LWPOLYLINE-3"><polygon class="cls-1" points="1478.35 379.35 1223.35 379.35 1265.35 428.35 1478.35 428.35 1478.35 379.35"/></g><g id="LWPOLYLINE-4"><polyline class="cls-1" points="1478.35 548.35 1223.35 548.35 1265.35 507.35 1478.35 507.35"/></g><g id="LWPOLYLINE-5"><line class="cls-1" x1="1265.35" y1="507.35" x2="1438.35" y2="428.35"/></g><g id="LWPOLYLINE-6"><line class="cls-1" x1="1265.35" y1="428.35" x2="1265.35" y2="507.35"/></g><g id="LWPOLYLINE-7"><polygon class="cls-1" points="1223.35 379.35 1177.35 476.35 1223.35 548.35 1223.35 379.35"/></g><g id="LWPOLYLINE-8"><line class="cls-1" x1="1177.35" y1="476.35" x2="1127.35" y2="450.35"/></g><g id="LWPOLYLINE-9"><line class="cls-1" x1="1131.35" y1="379.35" x2="1131.35" y2="1207.35"/></g><g id="LWPOLYLINE-10"><polyline class="cls-1" points="986.35 379.35 1078.35 516.35 1131.35 510.35"/></g><g id="LWPOLYLINE-11"><line class="cls-1" x1="986.35" y1="379.35" x2="1131.35" y2="467.35"/></g><g id="LWPOLYLINE-12"><polyline class="cls-1" points="1223.35 548.35 1073.35 548.35 1090.35 586.35 1478.35 586.35"/></g><g id="LWPOLYLINE-13"><line class="cls-1" x1="1733.35" y1="659.35" x2="1131.35" y2="659.35"/></g><g id="LWPOLYLINE-14"><line class="cls-1" x1="1131.35" y1="659.35" x2="1073.35" y2="548.35"/></g><g id="LWPOLYLINE-15"><line class="cls-1" x1="898.35" y1="1207.35" x2="2061.35" y2="1207.35"/></g><g id="LWPOLYLINE-16"><line class="cls-1" x1="1020.35" y1="1207.35" x2="1020.35" y2="2062.35"/></g><g id="LWPOLYLINE-17"><line class="cls-1" x1="1075.35" y1="1207.35" x2="1075.35" y2="2062.35"/></g><g id="LWPOLYLINE-18"><line class="cls-1" x1="1162.35" y1="1207.35" x2="1162.35" y2="2062.35"/></g><g id="LWPOLYLINE-19"><line class="cls-1" x1="1202.35" y1="1207.35" x2="1202.35" y2="2062.35"/></g><g id="LWPOLYLINE-20"><line class="cls-1" x1="1223.35" y1="548.35" x2="1223.35" y2="1068.35"/></g><g id="LWPOLYLINE-21"><line class="cls-1" x1="1131.35" y1="1068.35" x2="1823.35" y2="1068.35"/></g><g id="LWPOLYLINE-22"><line class="cls-1" x1="1131.35" y1="1068.35" x2="898.35" y2="1207.35"/></g><g id="LWPOLYLINE-23"><line class="cls-1" x1="1131.35" y1="1068.35" x2="1020.35" y2="1207.35"/></g><g id="LWPOLYLINE-24"><line class="cls-1" x1="898.35" y1="1207.35" x2="1020.35" y2="1319.35"/></g><g id="LWPOLYLINE-25"><line class="cls-1" x1="1020.35" y1="1319.35" x2="729.35" y2="1448.35"/></g><g id="LWPOLYLINE-26"><line class="cls-1" x1="1020.35" y1="1448.35" x2="541.35" y2="1448.35"/></g><g id="LWPOLYLINE-27"><line class="cls-1" x1="281.35" y1="1613.35" x2="1020.35" y2="1613.35"/></g><g id="LWPOLYLINE-28"><polyline class="cls-1" points="2416.35 1448.35 2675.35 1596.35 2675.35 2062.35 281.35 2062.35 281.35 1596.35 541.35 1448.35"/></g><g id="LWPOLYLINE-29"><line class="cls-1" x1="429.35" y1="1511.35" x2="429.35" y2="2062.35"/></g><g id="LWPOLYLINE-30"><polyline class="cls-1" points="1690.35 2062.35 1690.35 1676.35 1679.35 1600.35 1639.35 1527.35 1598.35 1485.35 1551.35 1458.35 1511.35 1448.35 1475.35 1445.35 1438.35 1448.35 1399.35 1458.35 1352.35 1485.35 1310.35 1527.35 1271.35 1600.35 1260.35 1676.35 1260.35 2062.35"/></g><g id="LWPOLYLINE-31"><line class="cls-1" x1="1399.35" y1="1458.35" x2="1415.35" y2="1536.35"/></g><g id="LWPOLYLINE-32"><line class="cls-1" x1="1438.35" y1="1448.35" x2="1445.35" y2="1528.35"/></g><g id="LWPOLYLINE-33"><line class="cls-1" x1="1352.35" y1="1485.35" x2="1378.35" y2="1556.35"/></g><g id="LWPOLYLINE-34"><line class="cls-1" x1="1310.35" y1="1527.35" x2="1345.35" y2="1589.35"/></g><g id="LWPOLYLINE-35"><line class="cls-1" x1="1271.35" y1="1600.35" x2="1318.35" y2="1629.35"/></g><g id="LWPOLYLINE-36"><line class="cls-1" x1="1260.35" y1="1676.35" x2="1303.35" y2="1679.35"/></g><g id="LWPOLYLINE-37"><rect class="cls-1" x="1434.35" y="1287.35" width="81" height="100"/></g><g id="LWPOLYLINE-38"><polyline class="cls-1" points="1202.35 1207.35 1240.35 1257.35 1231.35 1526.35 1271.35 1600.35"/></g><g id="LWPOLYLINE-39"><polyline class="cls-1" points="1310.35 1527.35 1235.35 1408.35 1202.35 1412.35"/></g><g id="LWPOLYLINE-40"><polyline class="cls-1" points="1202.35 2062.35 1260.35 1998.35 1202.35 1956.35 1260.35 1898.35"/></g><g id="LWPOLYLINE-41"><line class="cls-1" x1="1202.35" y1="1956.35" x2="964.35" y2="1956.35"/></g><g id="LWPOLYLINE-42"><polyline class="cls-1" points="429.35 1511.35 491.35 1536.35 1020.35 1536.35"/></g><g id="LWPOLYLINE-43"><polyline class="cls-1" points="491.35 1536.35 429.35 1613.35 503.35 1709.35 307.35 1737.35 429.35 1613.35"/></g><g id="LWPOLYLINE-44"><line class="cls-1" x1="281.35" y1="1613.35" x2="429.35" y2="1719.35"/></g><g id="LWPOLYLINE-45"><line class="cls-1" x1="307.35" y1="1737.35" x2="281.35" y2="1737.35"/></g><g id="LWPOLYLINE-46"><polyline class="cls-1" points="307.35 1737.35 356.35 1757.35 387.35 1791.35 395.35 1823.35 395.35 2062.35"/></g><g id="LWPOLYLINE-47"><polyline class="cls-1" points="698.35 2062.35 698.35 1823.35 684.35 1783.35 659.35 1752.35 630.35 1736.35 593.35 1730.35 559.35 1739.35 529.35 1752.35 504.35 1783.35 490.35 1823.35 490.35 2062.35"/></g><g id="LWPOLYLINE-48"><polyline class="cls-1" points="965.35 2062.35 965.35 1823.35 950.35 1783.35 926.35 1752.35 896.35 1736.35 860.35 1730.35 825.35 1739.35 796.35 1752.35 771.35 1783.35 761.35 1823.35 761.35 2062.35"/></g><g id="LWPOLYLINE-49"><polyline class="cls-1" points="2197.35 2062.35 2197.35 1823.35 2182.35 1783.35 2158.35 1752.35 2128.35 1736.35 2099.35 1732.35 2057.35 1739.35 2028.35 1752.35 2003.35 1783.35 1994.35 1823.35 1994.35 2062.35"/></g><g id="LWPOLYLINE-50"><polyline class="cls-1" points="2459.35 2062.35 2459.35 1823.35 2445.35 1783.35 2420.35 1752.35 2390.35 1736.35 2354.35 1730.35 2319.35 1739.35 2290.35 1752.35 2265.35 1783.35 2256.35 1823.35 2256.35 2062.35"/></g><g id="LWPOLYLINE-51"><line class="cls-1" x1="761.35" y1="1823.35" x2="965.35" y2="1823.35"/></g><g id="LWPOLYLINE-52"><line class="cls-1" x1="863.35" y1="1823.35" x2="863.35" y2="2062.35"/></g><g id="LWPOLYLINE-53"><line class="cls-1" x1="863.35" y1="1823.35" x2="796.35" y2="1752.35"/></g><g id="LWPOLYLINE-54"><line class="cls-1" x1="863.35" y1="1823.35" x2="926.35" y2="1752.35"/></g><g id="LWPOLYLINE-55"><polyline class="cls-1" points="863.35 1823.35 761.35 1997.35 965.35 1997.35"/></g><g id="LWPOLYLINE-56"><line class="cls-1" x1="863.35" y1="1823.35" x2="965.35" y2="1997.35"/></g><g id="LWPOLYLINE-57"><line class="cls-1" x1="965.35" y1="1823.35" x2="863.35" y2="1997.35"/></g><g id="LWPOLYLINE-58"><line class="cls-1" x1="761.35" y1="1823.35" x2="863.35" y2="1997.35"/></g><g id="LWPOLYLINE-59"><polyline class="cls-1" points="761.35 1997.35 863.35 2062.35 965.35 1997.35"/></g><g id="LWPOLYLINE-60"><line class="cls-1" x1="490.35" y1="1823.35" x2="698.35" y2="1823.35"/></g><g id="LWPOLYLINE-61"><line class="cls-1" x1="597.35" y1="1823.35" x2="597.35" y2="2062.35"/></g><g id="LWPOLYLINE-62"><line class="cls-1" x1="597.35" y1="1823.35" x2="529.35" y2="1752.35"/></g><g id="LWPOLYLINE-63"><line class="cls-1" x1="597.35" y1="1823.35" x2="659.35" y2="1752.35"/></g><g id="LWPOLYLINE-64"><polyline class="cls-1" points="597.35 1823.35 490.35 1997.35 698.35 1997.35"/></g><g id="LWPOLYLINE-65"><line class="cls-1" x1="597.35" y1="1823.35" x2="698.35" y2="1997.35"/></g><g id="LWPOLYLINE-66"><line class="cls-1" x1="698.35" y1="1823.35" x2="597.35" y2="1997.35"/></g><g id="LWPOLYLINE-67"><line class="cls-1" x1="490.35" y1="1823.35" x2="597.35" y2="1997.35"/></g><g id="LWPOLYLINE-68"><polyline class="cls-1" points="490.35 1997.35 597.35 2062.35 698.35 1997.35"/></g><g id="LWPOLYLINE-69"><line class="cls-1" x1="1994.35" y1="1823.35" x2="2197.35" y2="1823.35"/></g><g id="LWPOLYLINE-70"><line class="cls-1" x1="2095.35" y1="1823.35" x2="2095.35" y2="2062.35"/></g><g id="LWPOLYLINE-71"><line class="cls-1" x1="2095.35" y1="1823.35" x2="2028.35" y2="1752.35"/></g><g id="LWPOLYLINE-72"><line class="cls-1" x1="2095.35" y1="1823.35" x2="2158.35" y2="1752.35"/></g><g id="LWPOLYLINE-73"><polyline class="cls-1" points="2095.35 1823.35 1994.35 1997.35 2197.35 1997.35"/></g><g id="LWPOLYLINE-74"><line class="cls-1" x1="2095.35" y1="1823.35" x2="2197.35" y2="1997.35"/></g><g id="LWPOLYLINE-75"><line class="cls-1" x1="2197.35" y1="1823.35" x2="2095.35" y2="1997.35"/></g><g id="LWPOLYLINE-76"><line class="cls-1" x1="1994.35" y1="1823.35" x2="2095.35" y2="1997.35"/></g><g id="LWPOLYLINE-77"><polyline class="cls-1" points="1994.35 1997.35 2095.35 2062.35 2197.35 1997.35"/></g><g id="LWPOLYLINE-78"><line class="cls-1" x1="2256.35" y1="1823.35" x2="2688.35" y2="1823.35"/></g><g id="LWPOLYLINE-79"><line class="cls-1" x1="2357.35" y1="1823.35" x2="2357.35" y2="2062.35"/></g><g id="LWPOLYLINE-80"><line class="cls-1" x1="2357.35" y1="1823.35" x2="2290.35" y2="1752.35"/></g><g id="LWPOLYLINE-81"><line class="cls-1" x1="2357.35" y1="1823.35" x2="2420.35" y2="1752.35"/></g><g id="LWPOLYLINE-82"><polyline class="cls-1" points="2357.35 1823.35 2256.35 1997.35 2459.35 1997.35"/></g><g id="LWPOLYLINE-83"><line class="cls-1" x1="2357.35" y1="1823.35" x2="2459.35" y2="1997.35"/></g><g id="LWPOLYLINE-84"><line class="cls-1" x1="2459.35" y1="1823.35" x2="2357.35" y2="1997.35"/></g><g id="LWPOLYLINE-85"><line class="cls-1" x1="2256.35" y1="1823.35" x2="2357.35" y2="1997.35"/></g><g id="LWPOLYLINE-86"><polyline class="cls-1" points="2256.35 1997.35 2357.35 2062.35 2459.35 1997.35"/></g><g id="LWPOLYLINE-87"><polyline class="cls-1" points="281.35 1823.35 395.35 1997.35 281.35 1997.35"/></g><g id="LWPOLYLINE-88"><polyline class="cls-1" points="395.35 1997.35 331.35 2062.35 281.35 1997.35 395.35 1879.35"/></g><g id="LWPOLYLINE-89"><polyline class="cls-1" points="2675.35 1730.35 2632.35 1739.35 2602.35 1752.35 2576.35 1782.35 2559.35 1823.35 2559.35 2062.35"/></g><g id="LWPOLYLINE-90"><line class="cls-1" x1="2675.35" y1="1823.35" x2="2602.35" y2="1752.35"/></g><g id="LWPOLYLINE-91"><polyline class="cls-1" points="2675.35 1823.35 2559.35 1997.35 2675.35 1997.35"/></g><g id="LWPOLYLINE-92"><line class="cls-1" x1="2559.35" y1="1823.35" x2="2675.35" y2="1997.35"/></g><g id="LWPOLYLINE-93"><line class="cls-1" x1="2559.35" y1="1997.35" x2="2675.35" y2="2062.35"/></g><g id="LWPOLYLINE-94"><line class="cls-1" x1="1240.35" y1="1257.35" x2="1757.35" y2="1257.35"/></g><g id="LWPOLYLINE-95"><polyline class="cls-1" points="1075.35 1299.35 1020.35 1359.35 875.35 1451.35"/></g><g id="LWPOLYLINE-96"><line class="cls-1" x1="1826.35" y1="1068.35" x2="2059.35" y2="1207.35"/></g><g id="LWPOLYLINE-97"><line class="cls-1" x1="1826.35" y1="1068.35" x2="1937.35" y2="1207.35"/></g><g id="LWPOLYLINE-98"><line class="cls-1" x1="2059.35" y1="1207.35" x2="1937.35" y2="1319.35"/></g><g id="LWPOLYLINE-99"><line class="cls-1" x1="1937.35" y1="1319.35" x2="2228.35" y2="1448.35"/></g><g id="LWPOLYLINE-100"><line class="cls-1" x1="1937.35" y1="1448.35" x2="2416.35" y2="1448.35"/></g><g id="LWPOLYLINE-101"><line class="cls-1" x1="2675.35" y1="1613.35" x2="1937.35" y2="1613.35"/></g><g id="LWPOLYLINE-102"><polyline class="cls-1" points="2522.35 1509.35 2466.35 1536.35 1937.35 1536.35"/></g><g id="LWPOLYLINE-103"><polyline class="cls-1" points="2466.35 1536.35 2522.35 1613.35 2454.35 1709.35 2650.35 1737.35 2522.35 1613.35"/></g><g id="LWPOLYLINE-104"><line class="cls-1" x1="1937.35" y1="1359.78" x2="2082.35" y2="1451.35"/></g><g id="LWPOLYLINE-105"><line class="cls-1" x1="2522.35" y1="1509.35" x2="2522.35" y2="2062.35"/></g><g id="LWPOLYLINE-106"><polyline class="cls-1" points="1303.35 2062.35 1303.35 1679.35 1318.35 1629.35 1345.35 1589.35 1378.35 1556.35 1415.35 1536.35 1445.35 1528.35 1475.35 1525.35 1504.35 1528.35 1534.35 1536.35 1571.35 1556.35 1604.35 1589.35 1631.35 1629.35 1647.35 1679.35 1647.35 2062.35"/></g><g id="LWPOLYLINE-107"><line class="cls-1" x1="1475.35" y1="1445.35" x2="1475.35" y2="1525.35"/></g><g id="LWPOLYLINE-108"><line class="cls-1" x1="1551.35" y1="1458.35" x2="1534.35" y2="1536.35"/></g><g id="LWPOLYLINE-109"><line class="cls-1" x1="1511.35" y1="1448.35" x2="1504.35" y2="1528.35"/></g><g id="LWPOLYLINE-110"><line class="cls-1" x1="1598.35" y1="1485.35" x2="1571.35" y2="1556.35"/></g><g id="LWPOLYLINE-111"><line class="cls-1" x1="1639.35" y1="1527.35" x2="1604.35" y2="1589.35"/></g><g id="LWPOLYLINE-112"><line class="cls-1" x1="1679.35" y1="1600.35" x2="1631.35" y2="1629.35"/></g><g id="LWPOLYLINE-113"><line class="cls-1" x1="1690.35" y1="1676.35" x2="1647.35" y2="1679.35"/></g><g id="LWPOLYLINE-114"><polyline class="cls-1" points="1346.35 1207.35 1352.35 1257.35 1352.35 1485.35"/></g><g id="LWPOLYLINE-115"><polyline class="cls-1" points="1240.35 1257.35 1352.35 1400.35 1235.35 1408.35"/></g><g id="LWPOLYLINE-116"><polyline class="cls-1" points="1352.35 1257.35 1282.35 1311.35 1235.35 1408.35"/></g><g id="LWPOLYLINE-117"><polyline class="cls-1" points="1352.35 1257.35 1434.35 1287.35 1352.35 1400.35"/></g><g id="LWPOLYLINE-118"><line class="cls-1" x1="1434.35" y1="1287.35" x2="1515.35" y2="1387.35"/></g><g id="LWPOLYLINE-119"><line class="cls-1" x1="1515.35" y1="1287.35" x2="1434.35" y2="1387.35"/></g><g id="LWPOLYLINE-120"><polyline class="cls-1" points="1352.35 1400.35 1399.35 1458.35 1434.35 1387.35"/></g><g id="LWPOLYLINE-121"><polyline class="cls-1" points="1434.35 1387.35 1475.35 1445.35 1515.35 1387.35"/></g><g id="LWPOLYLINE-122"><polyline class="cls-1" points="1452.35 1308.35 1600.35 1257.35 1600.35 1394.35 1664.35 1517.35 1639.35 1527.35"/></g><g id="LWPOLYLINE-123"><polygon class="cls-1" points="1733.35 379.35 1779.35 476.35 1733.35 548.35 1733.35 379.35"/></g><g id="LWPOLYLINE-124"><line class="cls-1" x1="1826.35" y1="379.35" x2="1826.35" y2="1207.35"/></g><g id="LWPOLYLINE-125"><line class="cls-1" x1="1937.35" y1="1207.35" x2="1937.35" y2="2062.35"/></g><g id="LWPOLYLINE-126"><line class="cls-1" x1="1881.35" y1="1207.35" x2="1881.35" y2="2062.35"/></g><g id="LWPOLYLINE-127"><line class="cls-1" x1="1795.35" y1="1207.35" x2="1795.35" y2="2062.35"/></g><g id="LWPOLYLINE-128"><line class="cls-1" x1="1754.35" y1="1207.35" x2="1754.35" y2="2062.35"/></g><g id="LWPOLYLINE-129"><line class="cls-1" x1="1733.35" y1="548.35" x2="1733.35" y2="1068.35"/></g><g id="LWPOLYLINE-130"><polygon class="cls-1" points="1478.35 235.35 1478.35 379.35 1970.35 379.35 1478.35 235.35"/></g><g id="LWPOLYLINE-131"><line class="cls-1" x1="1478.35" y1="235.35" x2="1702.35" y2="379.35"/></g><g id="LWPOLYLINE-132"><polygon class="cls-1" points="1478.35 379.35 1733.35 379.35 1692.35 428.35 1478.35 428.35 1478.35 379.35"/></g><g id="LWPOLYLINE-133"><polyline class="cls-1" points="1478.35 548.35 1733.35 548.35 1692.35 507.35 1478.35 507.35"/></g><g id="LWPOLYLINE-134"><line class="cls-1" x1="1692.35" y1="507.35" x2="1518.35" y2="428.35"/></g><g id="LWPOLYLINE-135"><line class="cls-1" x1="1692.35" y1="428.35" x2="1692.35" y2="507.35"/></g><g id="LWPOLYLINE-136"><line class="cls-1" x1="1779.35" y1="476.35" x2="1826.35" y2="379.35"/></g><g id="LWPOLYLINE-137"><line class="cls-1" x1="1779.35" y1="476.35" x2="1826.35" y2="548.35"/></g><g id="LWPOLYLINE-138"><polyline class="cls-1" points="1970.35 379.35 1878.35 516.35 1826.35 510.35"/></g><g id="LWPOLYLINE-139"><line class="cls-1" x1="1970.35" y1="379.35" x2="1826.35" y2="467.35"/></g><g id="LWPOLYLINE-140"><polyline class="cls-1" points="1733.35 548.35 1883.35 548.35 1866.35 586.35 1478.35 586.35"/></g><g id="LWPOLYLINE-141"><line class="cls-1" x1="1826.35" y1="658.35" x2="1883.35" y2="548.35"/></g><g id="LWPOLYLINE-142"><polygon class="cls-1" points="1479.35 673.35 1435.35 680.35 1396.35 700.35 1364.35 732.35 1344.35 771.35 1337.35 815.35 1344.35 860.35 1364.35 899.35 1396.35 931.35 1435.35 951.35 1479.35 958.35 1524.35 951.35 1563.35 931.35 1595.35 899.35 1615.35 860.35 1622.35 815.35 1615.35 771.35 1595.35 732.35 1563.35 700.35 1524.35 680.35 1479.35 673.35"/></g><g id="LWPOLYLINE-143"><polygon class="cls-1" points="1479.35 706.35 1446.35 711.35 1415.35 727.35 1391.35 751.35 1375.35 782.35 1370.35 815.35 1375.35 849.35 1391.35 880.35 1415.35 904.35 1446.35 920.35 1479.35 925.35 1513.35 920.35 1544.35 904.35 1568.35 880.35 1584.35 849.35 1589.35 815.35 1584.35 782.35 1568.35 751.35 1544.35 727.35 1513.35 711.35 1479.35 706.35"/></g><g id="LWPOLYLINE-144"><polygon class="cls-1" points="1479.35 735.35 1455.35 739.35 1432.35 750.35 1414.35 768.35 1403.35 791.35 1399.35 815.35 1403.35 840.35 1414.35 863.35 1432.35 881.35 1455.35 892.35 1479.35 896.35 1504.35 892.35 1527.35 881.35 1545.35 863.35 1556.35 840.35 1560.35 815.35 1556.35 791.35 1545.35 768.35 1527.35 750.35 1504.35 739.35 1479.35 735.35"/></g><g id="LWPOLYLINE-145"><line class="cls-1" x1="1337.35" y1="815.35" x2="1399.35" y2="815.35"/></g><g id="LWPOLYLINE-146"><line class="cls-1" x1="1396.35" y1="700.35" x2="1432.35" y2="750.35"/></g><g id="LWPOLYLINE-147"><line class="cls-1" x1="1364.35" y1="732.35" x2="1414.35" y2="768.35"/></g><g id="LWPOLYLINE-148"><line class="cls-1" x1="1344.35" y1="771.35" x2="1403.35" y2="791.35"/></g><g id="LWPOLYLINE-149"><line class="cls-1" x1="1435.35" y1="680.35" x2="1455.35" y2="739.35"/></g><g id="LWPOLYLINE-150"><line class="cls-1" x1="1479.35" y1="507.35" x2="1479.35" y2="958.35"/></g><g id="LWPOLYLINE-151"><polyline class="cls-1" points="1423.35 759.35 1479.35 806.35 1545.35 768.35"/></g><g id="LWPOLYLINE-152"><polyline class="cls-1" points="1411.35 773.35 1478.35 831.35 1554.35 784.35"/></g><g id="LWPOLYLINE-153"><line class="cls-1" x1="1423.35" y1="872.35" x2="1469.35" y2="821.35"/></g><g id="LWPOLYLINE-154"><line class="cls-1" x1="1534.35" y1="873.35" x2="1490.35" y2="824.35"/></g><g id="LWPOLYLINE-155"><line class="cls-1" x1="1563.35" y1="700.35" x2="1527.35" y2="750.35"/></g><g id="LWPOLYLINE-156"><line class="cls-1" x1="1595.35" y1="732.35" x2="1545.35" y2="768.35"/></g><g id="LWPOLYLINE-157"><line class="cls-1" x1="1615.35" y1="771.35" x2="1556.35" y2="791.35"/></g><g id="LWPOLYLINE-158"><line class="cls-1" x1="1524.35" y1="680.35" x2="1504.35" y2="739.35"/></g><g id="LWPOLYLINE-159"><line class="cls-1" x1="1396.35" y1="931.35" x2="1432.35" y2="881.35"/></g><g id="LWPOLYLINE-160"><line class="cls-1" x1="1364.35" y1="899.35" x2="1414.35" y2="863.35"/></g><g id="LWPOLYLINE-161"><line class="cls-1" x1="1344.35" y1="860.35" x2="1403.35" y2="840.35"/></g><g id="LWPOLYLINE-162"><line class="cls-1" x1="1435.35" y1="951.35" x2="1455.35" y2="892.35"/></g><g id="LWPOLYLINE-163"><line class="cls-1" x1="1563.35" y1="931.35" x2="1527.35" y2="881.35"/></g><g id="LWPOLYLINE-164"><line class="cls-1" x1="1595.35" y1="899.35" x2="1545.35" y2="863.35"/></g><g id="LWPOLYLINE-165"><line class="cls-1" x1="1615.35" y1="860.35" x2="1556.35" y2="840.35"/></g><g id="LWPOLYLINE-166"><line class="cls-1" x1="1524.35" y1="951.35" x2="1504.35" y2="892.35"/></g><g id="LWPOLYLINE-167"><line class="cls-1" x1="1622.35" y1="815.35" x2="1560.35" y2="815.35"/></g><g id="LWPOLYLINE-168"><rect class="cls-1" x="1187.35" y="1121.35" width="147" height="48"/></g><g id="LWPOLYLINE-169"><rect class="cls-1" x="1360.35" y="1121.35" width="136" height="48"/></g><g id="LWPOLYLINE-170"><rect class="cls-1" x="1523.35" y="1121.35" width="239" height="48"/></g><g id="LWPOLYLINE-171"><line class="cls-1" x1="1131.35" y1="1068.35" x2="1187.35" y2="1121.35"/></g><g id="LWPOLYLINE-172"><line class="cls-1" x1="1187.35" y1="1169.35" x2="1131.35" y2="1207.35"/></g><g id="LWPOLYLINE-173"><polyline class="cls-1" points="1334.35 1169.35 1346.35 1207.35 1360.35 1169.35"/></g><g id="LWPOLYLINE-174"><polyline class="cls-1" points="1334.35 1121.35 1348.35 1068.35 1360.35 1121.35"/></g><g id="LWPOLYLINE-175"><polyline class="cls-1" points="1497.35 1169.35 1508.35 1207.35 1523.35 1169.35"/></g><g id="LWPOLYLINE-176"><polyline class="cls-1" points="1497.35 1121.35 1511.35 1068.35 1523.35 1121.35"/></g><g id="LWPOLYLINE-177"><line class="cls-1" x1="1762.35" y1="1121.35" x2="1826.35" y2="1068.35"/></g><g id="LWPOLYLINE-178"><line class="cls-1" x1="1762.35" y1="1169.35" x2="1826.35" y2="1207.35"/></g><g id="LWPOLYLINE-179"><polyline class="cls-1" points="1223.35 586.35 1269.35 659.35 1307.35 765.35 1337.35 815.35"/></g><g id="LWPOLYLINE-180"><polyline class="cls-1" points="1269.35 659.35 1223.35 723.35 1131.35 659.35"/></g><g id="LWPOLYLINE-181"><polyline class="cls-1" points="1269.35 659.35 1329.35 586.35 1371.35 659.35 1396.35 700.35"/></g><g id="LWPOLYLINE-182"><line class="cls-1" x1="1371.35" y1="659.35" x2="1307.35" y2="765.35"/></g><g id="LWPOLYLINE-183"><polyline class="cls-1" points="1344.35 771.35 1307.35 765.35 1223.35 723.35"/></g><g id="LWPOLYLINE-184"><polyline class="cls-1" points="1223.35 723.35 1263.35 819.35 1324.35 912.35 1344.35 860.35"/></g><g id="LWPOLYLINE-185"><polyline class="cls-1" points="1307.35 765.35 1263.35 819.35 1223.35 861.35"/></g><g id="LWPOLYLINE-186"><polyline class="cls-1" points="1396.35 931.35 1324.35 912.35 1223.35 861.35 1131.35 793.35 1223.35 723.35"/></g><g id="LWPOLYLINE-187"><line class="cls-1" x1="1324.35" y1="912.35" x2="1286.35" y2="1014.35"/></g><g id="LWPOLYLINE-188"><line class="cls-1" x1="1396.35" y1="931.35" x2="1316.35" y2="1068.35"/></g><g id="LWPOLYLINE-189"><polyline class="cls-1" points="1348.35 1068.35 1347.35 1014.35 1223.35 1014.35"/></g><g id="LWPOLYLINE-190"><polyline class="cls-1" points="1285.35 1014.35 1223.35 861.35 1131.35 997.35"/></g><g id="LWPOLYLINE-191"><line class="cls-1" x1="1223.35" y1="1014.35" x2="1131.35" y2="997.35"/></g><g id="LWPOLYLINE-192"><line class="cls-1" x1="1131.35" y1="1068.35" x2="1223.35" y2="1014.35"/></g><g id="LWPOLYLINE-193"><polyline class="cls-1" points="1316.35 1068.35 1348.35 1041.35 1479.35 958.35 1585.35 1023.35 1733.35 1014.35 1826.35 1068.35"/></g><g id="LWPOLYLINE-194"><polyline class="cls-1" points="1733.35 1014.35 1826.35 998.35 1733.35 877.35 1826.35 793.35 1733.35 718.35 1826.35 658.35"/></g><g id="LWPOLYLINE-195"><polyline class="cls-1" points="1733.35 718.35 1773.35 645.35 1733.35 586.35"/></g><g id="LWPOLYLINE-196"><polyline class="cls-1" points="1826.35 586.35 1773.35 645.35 1826.35 658.35"/></g><g id="LWPOLYLINE-197"><line class="cls-1" x1="1371.35" y1="659.35" x2="1478.35" y2="586.35"/></g><g id="LWPOLYLINE-198"><polyline class="cls-1" points="1329.35 586.35 1478.35 659.35 1621.35 586.35"/></g><g id="LWPOLYLINE-199"><polyline class="cls-1" points="1479.35 958.35 1511.35 1068.35 1585.35 1023.35 1635.35 919.35 1733.35 1014.35"/></g><g id="LWPOLYLINE-200"><polyline class="cls-1" points="1733.35 877.35 1635.35 919.35 1524.35 951.35"/></g><g id="LWPOLYLINE-201"><polyline class="cls-1" points="1614.35 787.35 1633.35 777.35 1693.35 817.35 1733.35 877.35"/></g><g id="LWPOLYLINE-202"><polyline class="cls-1" points="1733.35 718.35 1693.35 817.35 1635.35 919.35 1633.35 777.35 1733.35 718.35 1686.35 659.35 1633.35 777.35 1595.35 732.35"/></g><g id="LWPOLYLINE-203"><polyline class="cls-1" points="1633.35 777.35 1602.35 659.35 1621.35 586.35 1686.35 659.35 1733.35 586.35"/></g><g id="LWPOLYLINE-204"><line class="cls-1" x1="1223.35" y1="586.35" x2="1131.35" y2="659.35"/></g><g id="LWPOLYLINE-205"><polyline class="cls-1" points="1515.35 1387.35 1600.35 1394.35 1551.35 1458.35 1515.35 1387.35"/></g><g id="LWPOLYLINE-206"><polyline class="cls-1" points="1600.35 1394.35 1754.35 1413.35 1664.35 1517.35 1754.35 1580.35 1679.35 1600.35"/></g><g id="LWPOLYLINE-207"><polyline class="cls-1" points="1690.35 1676.35 1754.35 1727.35 1690.35 1794.35 1754.35 1897.35 1690.35 1938.35 1754.35 1960.35 1690.35 1995.35 1754.35 2062.35"/></g><g id="LWPOLYLINE-208"><polyline class="cls-1" points="1754.35 1960.35 1795.35 1960.35 1754.35 2062.35"/></g><g id="LWPOLYLINE-209"><polyline class="cls-1" points="1881.35 2062.35 1795.35 1960.35 1883.35 1885.35 1795.35 1804.35 1882.35 1729.35 1794.35 1694.35 1881.35 1554.35 1795.35 1580.35 1754.35 1580.35"/></g><g id="LWPOLYLINE-210"><line class="cls-1" x1="1600.35" y1="1257.35" x2="1754.35" y2="1413.35"/></g><g id="LWPOLYLINE-211"><line class="cls-1" x1="1600.35" y1="1394.35" x2="1754.35" y2="1257.35"/></g><g id="LWPOLYLINE-212"><polyline class="cls-1" points="1795.35 1207.35 1881.35 1300.35 1795.35 1394.35 1754.35 1413.35"/></g><g id="LWPOLYLINE-213"><line class="cls-1" x1="1795.35" y1="1394.35" x2="1881.35" y2="1440.35"/></g><g id="LWPOLYLINE-214"><line class="cls-1" x1="1795.35" y1="1394.35" x2="1881.35" y2="1554.35"/></g><g id="LWPOLYLINE-215"><polyline class="cls-1" points="1937.35 1448.35 1881.35 1554.35 1937.35 1613.35 1882.35 1729.35 1937.35 1794.35 1883.35 1885.35 1937.35 1960.35"/></g><g id="LWPOLYLINE-216"><line class="cls-1" x1="1795.35" y1="1960.35" x2="1937.35" y2="1960.35"/></g><g id="LWPOLYLINE-217"><line class="cls-1" x1="1937.35" y1="1960.35" x2="1881.35" y2="2062.35"/></g><g id="LWPOLYLINE-218"><line class="cls-1" x1="1881.35" y1="1440.35" x2="1937.35" y2="1448.35"/></g><g id="LWPOLYLINE-219"><line class="cls-1" x1="1881.35" y1="1300.35" x2="1937.35" y2="1319.35"/></g><g id="LWPOLYLINE-220"><line class="cls-1" x1="1937.35" y1="1960.35" x2="1994.35" y2="1997.35"/></g><g id="LWPOLYLINE-221"><line class="cls-1" x1="1937.35" y1="1960.35" x2="1994.35" y2="2062.35"/></g><g id="LWPOLYLINE-222"><line class="cls-1" x1="1937.35" y1="1794.35" x2="1994.35" y2="1823.35"/></g><g id="LWPOLYLINE-223"><polyline class="cls-1" points="1937.35 1794.35 2018.35 1762.35 1937.35 1614.35"/></g><g id="LWPOLYLINE-224"><line class="cls-1" x1="1937.35" y1="1794.35" x2="1977.35" y2="1688.35"/></g><g id="LWPOLYLINE-225"><line class="cls-1" x1="1977.35" y1="1688.35" x2="2228.35" y2="1448.35"/></g><g id="LWPOLYLINE-226"><line class="cls-1" x1="1977.35" y1="1448.35" x2="1977.35" y2="1688.35"/></g><g id="LWPOLYLINE-227"><polyline class="cls-1" points="1937.35 1448.35 1977.35 1536.35 2256.35 1823.35"/></g><g id="LWPOLYLINE-228"><line class="cls-1" x1="2077.35" y1="1448.35" x2="1937.35" y2="1571.35"/></g><g id="LWPOLYLINE-229"><polyline class="cls-1" points="2077.35 1448.35 2136.35 1536.35 2231.35 1613.35 2330.35 1681.35 2454.35 1709.35"/></g><g id="LWPOLYLINE-230"><polyline class="cls-1" points="2197.35 1823.35 2330.35 1681.35 2409.35 1613.35 2466.35 1536.35 2416.35 1448.35 2099.35 1732.35"/></g><g id="LWPOLYLINE-231"><line class="cls-1" x1="2228.35" y1="1448.35" x2="2318.35" y2="1536.35"/></g><g id="LWPOLYLINE-232"><polyline class="cls-1" points="2318.35 1536.35 2409.35 1613.35 2454.35 1709.35 2522.35 1823.35"/></g><g id="LWPOLYLINE-233"><line class="cls-1" x1="2675.35" y1="1613.35" x2="2522.35" y2="1718.35"/></g><g id="LWPOLYLINE-234"><line class="cls-1" x1="2602.35" y1="1752.35" x2="2522.35" y2="1823.35"/></g><g id="LWPOLYLINE-235"><polyline class="cls-1" points="2559.35 1997.35 2522.35 1972.35 2459.35 1997.35 2522.35 2062.35 2559.35 1997.35"/></g><g id="LWPOLYLINE-236"><polyline class="cls-1" points="2256.35 1823.35 2197.35 1888.35 2256.35 1963.35 2197.35 1997.35 2256.35 2062.35"/></g><g id="LWPOLYLINE-237"><polyline class="cls-1" points="2390.35 1736.35 2454.35 1709.35 2459.35 1823.35"/></g><g id="LWPOLYLINE-238"><polyline class="cls-1" points="1600.35 1257.35 1600.35 1207.35 1499.35 1257.35 1434.35 1287.35"/></g><g id="LWPOLYLINE-239"><polyline class="cls-1" points="491.35 1536.35 541.35 1448.35 630.35 1536.35 729.35 1448.35 820.35 1536.35 879.35 1448.35 984.35 1536.35 1020.35 1448.35"/></g><g id="LWPOLYLINE-240"><polyline class="cls-1" points="1020.35 1613.35 984.35 1536.35 900.35 1613.35 820.35 1536.35 727.35 1613.35 630.35 1536.35 552.35 1613.35 491.35 1536.35"/></g><g id="LWPOLYLINE-241"><polyline class="cls-1" points="503.35 1709.35 552.35 1613.35 624.35 1678.35 727.35 1613.35 805.35 1696.35 900.35 1613.35 956.35 1698.35 1020.35 1613.35"/></g><g id="LWPOLYLINE-242"><polyline class="cls-1" points="698.35 2062.35 761.35 1997.35 698.35 1952.35 761.35 1879.35 698.35 1823.35 761.35 1823.35 723.35 1772.35 698.35 1823.35"/></g><g id="LWPOLYLINE-243"><polyline class="cls-1" points="503.35 1709.35 624.35 1678.35 723.35 1772.35 804.35 1695.35 896.35 1736.35 956.35 1698.35 1020.35 1787.35 965.35 1823.35 1020.35 1912.35 965.35 1956.35"/></g><g id="LWPOLYLINE-244"><line class="cls-1" x1="1020.35" y1="1956.35" x2="965.35" y2="2062.35"/></g><g id="LWPOLYLINE-245"><line class="cls-1" x1="1075.35" y1="1956.35" x2="1020.35" y2="2062.35"/></g><g id="LWPOLYLINE-246"><line class="cls-1" x1="1075.35" y1="1956.35" x2="1162.35" y2="2062.35"/></g><g id="LWPOLYLINE-247"><line class="cls-1" x1="1162.35" y1="1956.35" x2="1202.35" y2="2062.35"/></g><g id="LWPOLYLINE-248"><polyline class="cls-1" points="1162.35 1956.35 1075.35 1877.35 1162.35 1800.35 1075.35 1710.35 1162.35 1634.35 1075.35 1557.35 1162.35 1394.35 1075.35 1299.35 1162.35 1207.35"/></g><g id="LWPOLYLINE-249"><polyline class="cls-1" points="1020.35 1448.35 1075.35 1442.35 1162.35 1394.35"/></g><g id="LWPOLYLINE-250"><polyline class="cls-1" points="1075.35 1557.35 1020.35 1613.35 1075.35 1710.35 1020.35 1787.35 1075.35 1877.35 1019.35 1911.35 1075.35 1956.35"/></g><g id="LWPOLYLINE-251"><polyline class="cls-1" points="1373.35 2075.35 1373.35 1879.35 1376.35 1858.35 1383.35 1835.35 1393.35 1816.35 1406.35 1799.35 1424.35 1783.35 1445.35 1773.35 1472.35 1768.35 1500.35 1768.35 1520.35 1776.35 1540.35 1791.35 1554.35 1806.35 1565.35 1824.35 1576.35 1855.35 1581.35 1894.35 1579.35 2062.35"/></g><g id="LWPOLYLINE-252"><polyline class="cls-1" points="1475.35 1908.35 1374.35 2016.35 1475.35 2062.35 1580.35 2016.35 1475.35 1908.35 1565.35 1824.35"/></g><g id="LWPOLYLINE-253"><line class="cls-1" x1="1475.35" y1="1908.35" x2="1383.35" y2="1835.35"/></g><g id="LWPOLYLINE-254"><polyline class="cls-1" points="1303.35 2062.35 1374.35 2016.35 1303.35 1918.35 1373.35 1879.35"/></g><g id="LWPOLYLINE-255"><polyline class="cls-1" points="1383.35 1835.35 1303.35 1793.35 1475.35 1679.35 1475.35 2062.35"/></g><g id="LWPOLYLINE-256"><polyline class="cls-1" points="1475.35 1679.35 1647.35 1789.35 1581.35 1894.35 1647.35 1919.35 1580.35 2016.35 1647.35 2062.35"/></g><g id="LWPOLYLINE-257"><line class="cls-1" x1="1647.35" y1="1919.35" x2="1690.35" y2="1938.35"/></g><g id="LWPOLYLINE-258"><line class="cls-1" x1="1647.35" y1="1789.35" x2="1690.35" y2="1794.35"/></g><g id="LWPOLYLINE-259"><line class="cls-1" x1="1647.35" y1="1679.35" x2="1303.35" y2="1679.35"/></g><g id="LWPOLYLINE-260"><line class="cls-1" x1="1475.35" y1="1679.35" x2="1604.35" y2="1589.35"/></g><g id="LWPOLYLINE-261"><line class="cls-1" x1="1475.35" y1="1679.35" x2="1571.35" y2="1556.35"/></g><g id="LWPOLYLINE-262"><line class="cls-1" x1="1475.35" y1="1679.35" x2="1345.35" y2="1589.35"/></g><g id="LWPOLYLINE-263"><line class="cls-1" x1="1415.35" y1="1536.35" x2="1475.35" y2="1679.35"/></g><g id="LWPOLYLINE-264"><line class="cls-1" x1="1202.35" y1="1715.35" x2="1260.35" y2="1775.35"/></g><g id="LWPOLYLINE-265"><polyline class="cls-1" points="1231.35 1526.35 1202.35 1612.35 1162.35 1634.35"/></g><g id="LWPOLYLINE-266"><line class="cls-1" x1="1162.35" y1="1800.35" x2="1202.35" y2="1715.35"/></g><g id="LWPOLYLINE-267"><line class="cls-1" x1="1162.35" y1="1394.35" x2="1202.35" y2="1412.35"/></g><g id="LWPOLYLINE-268"><rect class="cls-1" x=".35" y=".35" width="2955" height="2161"/></g><g id="LWPOLYLINE-269"><polyline class="cls-1" points="281.35 1823.35 429.35 1823.35 503.35 1709.35"/></g></svg>