<svg xmlns="http://www.w3.org/2000/svg" width="737" height="539" viewBox="0 0 737 539"><rect x="0" y="0" width="100%" height="100%" fill="none" stroke="#ffffff" stroke-width="1"/><g id="bboxes"><rect x="4.990" y="4.541" width="112.000" height="63.000" fill="none" stroke="#00ff7f" stroke-width="1"/><text x="6.990" y="16.541" fill="#00ff7f" font-size="10">0</text><rect x="120.463" y="5.102" width="83.000" height="64.000" fill="none" stroke="#00ff7f" stroke-width="1"/><text x="122.463" y="17.102" fill="#00ff7f" font-size="10">1</text><rect x="204.897" y="4.923" width="89.000" height="59.000" fill="none" stroke="#00ff7f" stroke-width="1"/><text x="206.897" y="16.923" fill="#00ff7f" font-size="10">2</text><rect x="295.465" y="5.090" width="78.000" height="67.000" fill="none" stroke="#00ff7f" stroke-width="1"/><text x="297.465" y="17.090" fill="#00ff7f" font-size="10">3</text><rect x="565.184" y="4.942" width="66.000" height="69.000" fill="none" stroke="#00ff7f" stroke-width="1"/><text x="567.184" y="16.942" fill="#00ff7f" font-size="10">4</text><rect x="374.788" y="4.575" width="95.000" height="69.000" fill="none" stroke="#00ff7f" stroke-width="1"/><text x="376.788" y="16.575" fill="#00ff7f" font-size="10">5</text><rect x="200.300" y="64.508" width="73.000" height="63.000" fill="none" stroke="#00ff7f" stroke-width="1"/><text x="202.300" y="76.508" fill="#00ff7f" font-size="10">6</text><rect x="630.459" y="5.200" width="87.000" height="71.000" fill="none" stroke="#00ff7f" stroke-width="1"/><text x="632.459" y="17.200" fill="#00ff7f" font-size="10">7</text><rect x="470.258" y="5.295" width="95.000" height="64.000" fill="none" stroke="#00ff7f" stroke-width="1"/><text x="472.258" y="17.295" fill="#00ff7f" font-size="10">8</text><rect x="444.864" y="65.359" width="64.000" height="76.000" fill="none" stroke="#00ff7f" stroke-width="1"/><text x="446.864" y="77.359" fill="#00ff7f" font-size="10">9</text><rect x="364.741" y="59.606" width="76.000" height="91.000" fill="none" stroke="#00ff7f" stroke-width="1"/><text x="366.741" y="71.606" fill="#00ff7f" font-size="10">10</text><rect x="119.584" y="64.852" width="52.000" height="71.000" fill="none" stroke="#00ff7f" stroke-width="1"/><text x="121.584" y="76.852" fill="#00ff7f" font-size="10">11</text><rect x="520.462" y="59.808" width="73.000" height="67.000" fill="none" stroke="#00ff7f" stroke-width="1"/><text x="522.462" y="71.808" fill="#00ff7f" font-size="10">12</text><rect x="5.201" y="70.465" width="62.000" height="60.000" fill="none" stroke="#00ff7f" stroke-width="1"/><text x="7.201" y="82.465" fill="#00ff7f" font-size="10">13</text><rect x="270.192" y="75.300" width="52.000" height="65.000" fill="none" stroke="#00ff7f" stroke-width="1"/><text x="272.192" y="87.300" fill="#00ff7f" font-size="10">14</text><rect x="4.500" y="124.889" width="59.000" height="45.000" fill="none" stroke="#00ff7f" stroke-width="1"/><text x="6.500" y="136.889" fill="#00ff7f" font-size="10">15</text><rect x="155.257" y="124.670" width="60.000" height="60.000" fill="none" stroke="#00ff7f" stroke-width="1"/><text x="157.257" y="136.670" fill="#00ff7f" font-size="10">16</text><rect x="649.669" y="79.793" width="67.000" height="61.000" fill="none" stroke="#00ff7f" stroke-width="1"/><text x="651.669" y="91.793" fill="#00ff7f" font-size="10">17</text><rect x="589.862" y="74.795" width="56.000" height="67.000" fill="none" stroke="#00ff7f" stroke-width="1"/><text x="591.862" y="86.795" fill="#00ff7f" font-size="10">18</text><rect x="209.743" y="130.294" width="77.000" height="43.000" fill="none" stroke="#00ff7f" stroke-width="1"/><text x="211.743" y="142.294" fill="#00ff7f" font-size="10">19</text><rect x="564.948" y="124.606" width="40.000" height="69.000" fill="none" stroke="#00ff7f" stroke-width="1"/><text x="566.948" y="136.606" fill="#00ff7f" font-size="10">20</text><rect x="325.343" y="74.685" width="53.000" height="87.000" fill="none" stroke="#00ff7f" stroke-width="1"/><text x="327.343" y="86.685" fill="#00ff7f" font-size="10">21</text><rect x="510.260" y="129.724" width="50.000" height="58.000" fill="none" stroke="#00ff7f" stroke-width="1"/><text x="512.260" y="141.724" fill="#00ff7f" font-size="10">22</text><rect x="64.600" y="135.311" width="62.000" height="56.000" fill="none" stroke="#00ff7f" stroke-width="1"/><text x="66.600" y="147.311" fill="#00ff7f" font-size="10">23</text><rect x="605.404" y="145.071" width="70.000" height="53.000" fill="none" stroke="#00ff7f" stroke-width="1"/><text x="607.404" y="157.071" fill="#00ff7f" font-size="10">24</text><rect x="664.554" y="145.446" width="64.000" height="51.000" fill="none" stroke="#00ff7f" stroke-width="1"/><text x="666.554" y="157.446" fill="#00ff7f" font-size="10">25</text><rect x="474.699" y="144.785" width="37.000" height="81.000" fill="none" stroke="#00ff7f" stroke-width="1"/><text x="476.699" y="156.785" fill="#00ff7f" font-size="10">26</text><rect x="5.198" y="170.446" width="43.000" height="69.000" fill="none" stroke="#00ff7f" stroke-width="1"/><text x="7.198" y="182.446" fill="#00ff7f" font-size="10">27</text><rect x="429.772" y="135.427" width="45.000" height="85.000" fill="none" stroke="#00ff7f" stroke-width="1"/><text x="431.772" y="147.427" fill="#00ff7f" font-size="10">28</text><rect x="69.895" y="69.623" width="48.000" height="65.000" fill="none" stroke="#00ff7f" stroke-width="1"/><text x="71.895" y="81.623" fill="#00ff7f" font-size="10">29</text><rect x="580.059" y="190.312" width="60.000" height="47.000" fill="none" stroke="#00ff7f" stroke-width="1"/><text x="582.059" y="202.312" fill="#00ff7f" font-size="10">30</text><rect x="515.251" y="190.348" width="59.000" height="46.000" fill="none" stroke="#00ff7f" stroke-width="1"/><text x="517.251" y="202.348" fill="#00ff7f" font-size="10">31</text><rect x="214.575" y="169.698" width="54.000" height="53.000" fill="none" stroke="#00ff7f" stroke-width="1"/><text x="216.575" y="181.698" fill="#00ff7f" font-size="10">32</text><rect x="424.925" y="220.353" width="55.000" height="46.000" fill="none" stroke="#00ff7f" stroke-width="1"/><text x="426.925" y="232.353" fill="#00ff7f" font-size="10">33</text><rect x="340.384" y="190.267" width="55.000" height="62.000" fill="none" stroke="#00ff7f" stroke-width="1"/><text x="342.384" y="202.267" fill="#00ff7f" font-size="10">34</text><rect x="674.856" y="180.267" width="40.000" height="65.000" fill="none" stroke="#00ff7f" stroke-width="1"/><text x="676.856" y="192.267" fill="#00ff7f" font-size="10">35</text><rect x="170.499" y="184.600" width="39.000" height="71.000" fill="none" stroke="#00ff7f" stroke-width="1"/><text x="172.499" y="196.600" fill="#00ff7f" font-size="10">36</text><rect x="50.476" y="195.022" width="52.000" height="50.000" fill="none" stroke="#00ff7f" stroke-width="1"/><text x="52.476" y="207.022" fill="#00ff7f" font-size="10">37</text><rect x="5.118" y="239.776" width="52.000" height="43.000" fill="none" stroke="#00ff7f" stroke-width="1"/><text x="7.118" y="251.776" fill="#00ff7f" font-size="10">38</text><rect x="540.376" y="239.736" width="56.000" height="52.000" fill="none" stroke="#00ff7f" stroke-width="1"/><text x="542.376" y="251.736" fill="#00ff7f" font-size="10">39</text><rect x="380.006" y="155.106" width="49.000" height="70.000" fill="none" stroke="#00ff7f" stroke-width="1"/><text x="382.006" y="167.106" fill="#00ff7f" font-size="10">40</text><rect x="60.266" y="245.000" width="56.000" height="44.000" fill="none" stroke="#00ff7f" stroke-width="1"/><text x="62.266" y="257.000" fill="#00ff7f" font-size="10">41</text><rect x="494.603" y="225.462" width="44.000" height="62.000" fill="none" stroke="#00ff7f" stroke-width="1"/><text x="496.603" y="237.462" fill="#00ff7f" font-size="10">42</text><rect x="210.275" y="224.846" width="41.000" height="67.000" fill="none" stroke="#00ff7f" stroke-width="1"/><text x="212.275" y="236.846" fill="#00ff7f" font-size="10">43</text><rect x="125.093" y="160.354" width="44.000" height="92.000" fill="none" stroke="#00ff7f" stroke-width="1"/><text x="127.093" y="172.354" fill="#00ff7f" font-size="10">44</text><rect x="679.790" y="240.037" width="51.000" height="60.000" fill="none" stroke="#00ff7f" stroke-width="1"/><text x="681.790" y="252.037" fill="#00ff7f" font-size="10">45</text><rect x="389.741" y="249.767" width="39.000" height="51.000" fill="none" stroke="#00ff7f" stroke-width="1"/><text x="391.741" y="261.767" fill="#00ff7f" font-size="10">46</text><rect x="270.483" y="189.959" width="38.000" height="92.000" fill="none" stroke="#00ff7f" stroke-width="1"/><text x="272.483" y="201.959" fill="#00ff7f" font-size="10">47</text><rect x="430.217" y="269.600" width="57.000" height="38.000" fill="none" stroke="#00ff7f" stroke-width="1"/><text x="432.217" y="281.600" fill="#00ff7f" font-size="10">48</text><rect x="254.945" y="274.966" width="49.000" height="46.000" fill="none" stroke="#00ff7f" stroke-width="1"/><text x="256.945" y="286.966" fill="#00ff7f" font-size="10">49</text><rect x="625.249" y="199.699" width="49.000" height="82.000" fill="none" stroke="#00ff7f" stroke-width="1"/><text x="627.249" y="211.699" fill="#00ff7f" font-size="10">50</text><rect x="120.234" y="255.266" width="69.000" height="43.000" fill="none" stroke="#00ff7f" stroke-width="1"/><text x="122.234" y="267.266" fill="#00ff7f" font-size="10">51</text><rect x="519.706" y="280.359" width="41.000" height="53.000" fill="none" stroke="#00ff7f" stroke-width="1"/><text x="521.706" y="292.359" fill="#00ff7f" font-size="10">52</text><rect x="189.779" y="280.112" width="61.000" height="38.000" fill="none" stroke="#00ff7f" stroke-width="1"/><text x="191.779" y="292.112" fill="#00ff7f" font-size="10">53</text><rect x="599.567" y="275.003" width="64.000" height="39.000" fill="none" stroke="#00ff7f" stroke-width="1"/><text x="601.567" y="287.003" fill="#00ff7f" font-size="10">54</text><rect x="310.003" y="245.436" width="55.000" height="49.000" fill="none" stroke="#00ff7f" stroke-width="1"/><text x="312.003" y="257.436" fill="#00ff7f" font-size="10">55</text><rect x="59.846" y="290.038" width="46.000" height="38.000" fill="none" stroke="#00ff7f" stroke-width="1"/><text x="61.846" y="302.038" fill="#00ff7f" font-size="10">56</text><rect x="4.974" y="285.368" width="51.000" height="38.000" fill="none" stroke="#00ff7f" stroke-width="1"/><text x="6.974" y="297.368" fill="#00ff7f" font-size="10">57</text><rect x="405.424" y="304.941" width="54.000" height="44.000" fill="none" stroke="#00ff7f" stroke-width="1"/><text x="407.424" y="316.941" fill="#00ff7f" font-size="10">58</text><rect x="304.740" y="294.812" width="55.000" height="38.000" fill="none" stroke="#00ff7f" stroke-width="1"/><text x="306.740" y="306.812" fill="#00ff7f" font-size="10">59</text><rect x="155.196" y="300.350" width="33.000" height="55.000" fill="none" stroke="#00ff7f" stroke-width="1"/><text x="157.196" y="312.350" fill="#00ff7f" font-size="10">60</text><rect x="664.899" y="299.855" width="50.000" height="41.000" fill="none" stroke="#00ff7f" stroke-width="1"/><text x="666.899" y="311.855" fill="#00ff7f" font-size="10">61</text><rect x="109.983" y="279.882" width="41.000" height="63.000" fill="none" stroke="#00ff7f" stroke-width="1"/><text x="111.983" y="291.882" fill="#00ff7f" font-size="10">62</text><rect x="600.228" y="315.406" width="43.000" height="45.000" fill="none" stroke="#00ff7f" stroke-width="1"/><text x="602.228" y="327.406" fill="#00ff7f" font-size="10">63</text><rect x="359.582" y="294.932" width="44.000" height="57.000" fill="none" stroke="#00ff7f" stroke-width="1"/><text x="361.582" y="306.932" fill="#00ff7f" font-size="10">64</text><rect x="189.749" y="320.086" width="48.000" height="46.000" fill="none" stroke="#00ff7f" stroke-width="1"/><text x="191.749" y="332.086" fill="#00ff7f" font-size="10">65</text><rect x="459.987" y="310.411" width="46.000" height="43.000" fill="none" stroke="#00ff7f" stroke-width="1"/><text x="461.987" y="322.411" fill="#00ff7f" font-size="10">66</text><rect x="239.807" y="325.115" width="52.000" height="35.000" fill="none" stroke="#00ff7f" stroke-width="1"/><text x="241.807" y="337.115" fill="#00ff7f" font-size="10">67</text><rect x="565.093" y="294.902" width="33.000" height="74.000" fill="none" stroke="#00ff7f" stroke-width="1"/><text x="567.093" y="306.902" fill="#00ff7f" font-size="10">68</text><rect x="645.132" y="340.484" width="48.000" height="45.000" fill="none" stroke="#00ff7f" stroke-width="1"/><text x="647.132" y="352.484" fill="#00ff7f" font-size="10">69</text><rect x="49.589" y="329.744" width="43.000" height="35.000" fill="none" stroke="#00ff7f" stroke-width="1"/><text x="51.589" y="341.744" fill="#00ff7f" font-size="10">70</text><rect x="390.393" y="349.902" width="41.000" height="44.000" fill="none" stroke="#00ff7f" stroke-width="1"/><text x="392.393" y="361.902" fill="#00ff7f" font-size="10">71</text><rect x="494.654" y="334.870" width="53.000" height="33.000" fill="none" stroke="#00ff7f" stroke-width="1"/><text x="496.654" y="346.870" fill="#00ff7f" font-size="10">72</text><rect x="694.621" y="344.803" width="36.000" height="56.000" fill="none" stroke="#00ff7f" stroke-width="1"/><text x="696.621" y="356.803" fill="#00ff7f" font-size="10">73</text><rect x="305.400" y="209.600" width="35.000" height="35.000" fill="none" stroke="#00ff7f" stroke-width="1"/><text x="307.400" y="221.600" fill="#00ff7f" font-size="10">74</text><rect x="155.026" y="354.575" width="39.000" height="55.000" fill="none" stroke="#00ff7f" stroke-width="1"/><text x="157.026" y="366.575" fill="#00ff7f" font-size="10">75</text><rect x="434.785" y="350.325" width="29.000" height="61.000" fill="none" stroke="#00ff7f" stroke-width="1"/><text x="436.785" y="362.325" fill="#00ff7f" font-size="10">76</text><rect x="289.770" y="144.529" width="57.000" height="63.000" fill="none" stroke="#00ff7f" stroke-width="1"/><text x="291.770" y="156.529" fill="#00ff7f" font-size="10">77</text><rect x="105.369" y="340.115" width="49.000" height="42.000" fill="none" stroke="#00ff7f" stroke-width="1"/><text x="107.369" y="352.115" fill="#00ff7f" font-size="10">78</text><rect x="465.059" y="354.525" width="35.000" height="49.000" fill="none" stroke="#00ff7f" stroke-width="1"/><text x="467.059" y="366.525" fill="#00ff7f" font-size="10">79</text><rect x="225.150" y="360.184" width="59.000" height="36.000" fill="none" stroke="#00ff7f" stroke-width="1"/><text x="227.150" y="372.184" fill="#00ff7f" font-size="10">80</text><rect x="4.738" y="365.110" width="42.000" height="38.000" fill="none" stroke="#00ff7f" stroke-width="1"/><text x="6.738" y="377.110" fill="#00ff7f" font-size="10">81</text><rect x="359.586" y="355.274" width="25.000" height="65.000" fill="none" stroke="#00ff7f" stroke-width="1"/><text x="361.586" y="367.274" fill="#00ff7f" font-size="10">82</text><rect x="590.060" y="360.126" width="33.000" height="59.000" fill="none" stroke="#00ff7f" stroke-width="1"/><text x="592.060" y="372.126" fill="#00ff7f" font-size="10">83</text><rect x="314.818" y="364.823" width="36.000" height="44.000" fill="none" stroke="#00ff7f" stroke-width="1"/><text x="316.818" y="376.823" fill="#00ff7f" font-size="10">84</text><rect x="50.201" y="365.274" width="27.000" height="57.000" fill="none" stroke="#00ff7f" stroke-width="1"/><text x="52.201" y="377.274" fill="#00ff7f" font-size="10">85</text><rect x="79.910" y="364.832" width="22.000" height="58.000" fill="none" stroke="#00ff7f" stroke-width="1"/><text x="81.910" y="376.832" fill="#00ff7f" font-size="10">86</text><rect x="194.783" y="374.900" width="44.000" height="36.000" fill="none" stroke="#00ff7f" stroke-width="1"/><text x="196.783" y="386.900" fill="#00ff7f" font-size="10">87</text><rect x="550.383" y="360.317" width="33.000" height="52.000" fill="none" stroke="#00ff7f" stroke-width="1"/><text x="552.383" y="372.317" fill="#00ff7f" font-size="10">88</text><rect x="625.368" y="379.667" width="46.000" height="39.000" fill="none" stroke="#00ff7f" stroke-width="1"/><text x="627.368" y="391.667" fill="#00ff7f" font-size="10">89</text><rect x="4.853" y="325.143" width="41.000" height="38.000" fill="none" stroke="#00ff7f" stroke-width="1"/><text x="6.853" y="337.143" fill="#00ff7f" font-size="10">90</text><rect x="240.003" y="400.259" width="43.000" height="33.000" fill="none" stroke="#00ff7f" stroke-width="1"/><text x="242.003" y="412.259" fill="#00ff7f" font-size="10">91</text><rect x="295.249" y="335.289" width="63.000" height="46.000" fill="none" stroke="#00ff7f" stroke-width="1"/><text x="297.249" y="347.289" fill="#00ff7f" font-size="10">92</text><rect x="499.514" y="370.453" width="46.000" height="53.000" fill="none" stroke="#00ff7f" stroke-width="1"/><text x="501.514" y="382.453" fill="#00ff7f" font-size="10">93</text><rect x="4.997" y="405.058" width="40.000" height="31.000" fill="none" stroke="#00ff7f" stroke-width="1"/><text x="6.997" y="417.058" fill="#00ff7f" font-size="10">94</text><rect x="284.500" y="385.005" width="31.000" height="52.000" fill="none" stroke="#00ff7f" stroke-width="1"/><text x="286.500" y="397.005" fill="#00ff7f" font-size="10">95</text><rect x="105.496" y="384.761" width="47.000" height="32.000" fill="none" stroke="#00ff7f" stroke-width="1"/><text x="107.496" y="396.761" fill="#00ff7f" font-size="10">96</text><rect x="155.103" y="404.930" width="33.000" height="42.000" fill="none" stroke="#00ff7f" stroke-width="1"/><text x="157.103" y="416.930" fill="#00ff7f" font-size="10">97</text><rect x="695.267" y="405.281" width="39.000" height="41.000" fill="none" stroke="#00ff7f" stroke-width="1"/><text x="697.267" y="417.281" fill="#00ff7f" font-size="10">98</text><rect x="575.480" y="410.189" width="34.000" height="39.000" fill="none" stroke="#00ff7f" stroke-width="1"/><text x="577.480" y="422.189" fill="#00ff7f" font-size="10">99</text><rect x="415.480" y="389.952" width="26.000" height="60.000" fill="none" stroke="#00ff7f" stroke-width="1"/><text x="417.480" y="401.952" fill="#00ff7f" font-size="10">100</text><rect x="95.147" y="420.172" width="40.000" height="35.000" fill="none" stroke="#00ff7f" stroke-width="1"/><text x="97.147" y="432.172" fill="#00ff7f" font-size="10">101</text><rect x="380.088" y="404.965" width="32.000" height="44.000" fill="none" stroke="#00ff7f" stroke-width="1"/><text x="382.088" y="416.965" fill="#00ff7f" font-size="10">102</text><rect x="190.439" y="415.177" width="43.000" height="26.000" fill="none" stroke="#00ff7f" stroke-width="1"/><text x="192.439" y="427.177" fill="#00ff7f" font-size="10">103</text><rect x="464.568" y="405.457" width="36.000" height="41.000" fill="none" stroke="#00ff7f" stroke-width="1"/><text x="466.568" y="417.457" fill="#00ff7f" font-size="10">104</text><rect x="174.962" y="70.234" width="22.000" height="39.000" fill="none" stroke="#00ff7f" stroke-width="1"/><text x="176.962" y="82.234" fill="#00ff7f" font-size="10">105</text><rect x="609.912" y="419.826" width="39.000" height="37.000" fill="none" stroke="#00ff7f" stroke-width="1"/><text x="611.912" y="431.826" fill="#00ff7f" font-size="10">106</text><rect x="319.590" y="409.729" width="38.000" height="38.000" fill="none" stroke="#00ff7f" stroke-width="1"/><text x="321.590" y="421.729" fill="#00ff7f" font-size="10">107</text><rect x="45.119" y="424.938" width="45.000" height="34.000" fill="none" stroke="#00ff7f" stroke-width="1"/><text x="47.119" y="436.938" fill="#00ff7f" font-size="10">108</text><rect x="5.440" y="440.142" width="36.000" height="33.000" fill="none" stroke="#00ff7f" stroke-width="1"/><text x="7.440" y="452.142" fill="#00ff7f" font-size="10">109</text><rect x="234.737" y="434.601" width="38.000" height="31.000" fill="none" stroke="#00ff7f" stroke-width="1"/><text x="236.737" y="446.601" fill="#00ff7f" font-size="10">110</text><rect x="180.162" y="445.100" width="35.000" height="28.000" fill="none" stroke="#00ff7f" stroke-width="1"/><text x="182.162" y="457.100" fill="#00ff7f" font-size="10">111</text><rect x="445.354" y="445.335" width="35.000" height="31.000" fill="none" stroke="#00ff7f" stroke-width="1"/><text x="447.354" y="457.335" fill="#00ff7f" font-size="10">112</text><rect x="505.052" y="424.614" width="28.000" height="36.000" fill="none" stroke="#00ff7f" stroke-width="1"/><text x="507.052" y="436.614" fill="#00ff7f" font-size="10">113</text><rect x="355.165" y="434.980" width="32.000" height="37.000" fill="none" stroke="#00ff7f" stroke-width="1"/><text x="357.165" y="446.980" fill="#00ff7f" font-size="10">114</text><rect x="275.094" y="439.707" width="41.000" height="32.000" fill="none" stroke="#00ff7f" stroke-width="1"/><text x="277.094" y="451.707" fill="#00ff7f" font-size="10">115</text><rect x="675.267" y="379.800" width="18.000" height="82.000" fill="none" stroke="#00ff7f" stroke-width="1"/><text x="677.267" y="391.800" fill="#00ff7f" font-size="10">116</text><rect x="649.798" y="420.369" width="25.000" height="49.000" fill="none" stroke="#00ff7f" stroke-width="1"/><text x="651.798" y="432.369" fill="#00ff7f" font-size="10">117</text><rect x="535.500" y="404.677" width="17.000" height="68.000" fill="none" stroke="#00ff7f" stroke-width="1"/><text x="537.500" y="416.677" fill="#00ff7f" font-size="10">118</text><rect x="135.430" y="445.430" width="34.000" height="36.000" fill="none" stroke="#00ff7f" stroke-width="1"/><text x="137.430" y="457.430" fill="#00ff7f" font-size="10">119</text><rect x="734.267" y="0" width="2.733" height="539.000" fill="none" stroke="#ff5252" stroke-width="1" stroke-dasharray="6,4"/><text x="740.267" y="16" fill="#ff5252" font-size="12">right_gap</text><rect x="0" y="481.430" width="734.267" height="57.570" fill="none" stroke="#ff5252" stroke-width="1" stroke-dasharray="6,4"/><text x="6" y="497.430" fill="#ff5252" font-size="12">bottom_gap</text><text x="6" y="14" fill="#ffffff" font-size="12">visible=120</text><path d="M 717.459 6.000 L 717.459 8.000 L 717.459 10.000 L 717.459 12.000 L 717.459 14.000 L 717.459 16.000 L 717.459 18.000 L 717.459 20.000 L 717.459 22.000 L 717.459 24.000 L 717.459 26.000 L 717.459 28.000 L 717.459 30.000 L 717.459 32.000 L 717.459 34.000 L 717.459 36.000 L 717.459 38.000 L 717.459 40.000 L 717.459 42.000 L 717.459 44.000 L 717.459 46.000 L 717.459 48.000 L 717.459 50.000 L 717.459 52.000 L 717.459 54.000 L 717.459 56.000 L 717.459 58.000 L 717.459 60.000 L 717.459 62.000 L 717.459 64.000 L 717.459 66.000 L 717.459 68.000 L 717.459 70.000 L 717.459 72.000 L 717.459 74.000 L 717.459 76.000 L 645.862 78.000 L 716.669 80.000 L 716.669 82.000 L 716.669 84.000 L 716.669 86.000 L 716.669 88.000 L 716.669 90.000 L 716.669 92.000 L 716.669 94.000 L 716.669 96.000 L 716.669 98.000 L 716.669 100.000 L 716.669 102.000 L 716.669 104.000 L 716.669 106.000 L 716.669 108.000 L 716.669 110.000 L 716.669 112.000 L 716.669 114.000 L 716.669 116.000 L 716.669 118.000 L 716.669 120.000 L 716.669 122.000 L 716.669 124.000 L 716.669 126.000 L 716.669 128.000 L 716.669 130.000 L 716.669 132.000 L 716.669 134.000 L 716.669 136.000 L 716.669 138.000 L 716.669 140.000 L 604.948 142.000 L 604.948 144.000 L 728.554 146.000 L 728.554 148.000 L 728.554 150.000 L 728.554 152.000 L 728.554 154.000 L 728.554 156.000 L 728.554 158.000 L 728.554 160.000 L 728.554 162.000 L 728.554 164.000 L 728.554 166.000 L 728.554 168.000 L 728.554 170.000 L 728.554 172.000 L 728.554 174.000 L 728.554 176.000 L 728.554 178.000 L 728.554 180.000 L 728.554 182.000 L 728.554 184.000 L 728.554 186.000 L 728.554 188.000 L 728.554 190.000 L 728.554 192.000 L 728.554 194.000 L 728.554 196.000 L 714.856 198.000 L 714.856 200.000 L 714.856 202.000 L 714.856 204.000 L 714.856 206.000 L 714.856 208.000 L 714.856 210.000 L 714.856 212.000 L 714.856 214.000 L 714.856 216.000 L 714.856 218.000 L 714.856 220.000 L 714.856 222.000 L 714.856 224.000 L 714.856 226.000 L 714.856 228.000 L 714.856 230.000 L 714.856 232.000 L 714.856 234.000 L 714.856 236.000 L 714.856 238.000 L 714.856 240.000 L 730.790 242.000 L 730.790 244.000 L 730.790 246.000 L 730.790 248.000 L 730.790 250.000 L 730.790 252.000 L 730.790 254.000 L 730.790 256.000 L 730.790 258.000 L 730.790 260.000 L 730.790 262.000 L 730.790 264.000 L 730.790 266.000 L 730.790 268.000 L 730.790 270.000 L 730.790 272.000 L 730.790 274.000 L 730.790 276.000 L 730.790 278.000 L 730.790 280.000 L 730.790 282.000 L 730.790 284.000 L 730.790 286.000 L 730.790 288.000 L 730.790 290.000 L 730.790 292.000 L 730.790 294.000 L 730.790 296.000 L 730.790 298.000 L 730.790 300.000 L 714.899 302.000 L 714.899 304.000 L 714.899 306.000 L 714.899 308.000 L 714.899 310.000 L 714.899 312.000 L 714.899 314.000 L 714.899 316.000 L 714.899 318.000 L 714.899 320.000 L 714.899 322.000 L 714.899 324.000 L 714.899 326.000 L 714.899 328.000 L 714.899 330.000 L 714.899 332.000 L 714.899 334.000 L 714.899 336.000 L 714.899 338.000 L 714.899 340.000 L 693.132 342.000 L 693.132 344.000 L 730.621 346.000 L 730.621 348.000 L 730.621 350.000 L 730.621 352.000 L 730.621 354.000 L 730.621 356.000 L 730.621 358.000 L 730.621 360.000 L 730.621 362.000 L 730.621 364.000 L 730.621 366.000 L 730.621 368.000 L 730.621 370.000 L 730.621 372.000 L 730.621 374.000 L 730.621 376.000 L 730.621 378.000 L 730.621 380.000 L 730.621 382.000 L 730.621 384.000 L 730.621 386.000 L 730.621 388.000 L 730.621 390.000 L 730.621 392.000 L 730.621 394.000 L 730.621 396.000 L 730.621 398.000 L 730.621 400.000 L 693.267 402.000 L 693.267 404.000 L 734.267 406.000 L 734.267 408.000 L 734.267 410.000 L 734.267 412.000 L 734.267 414.000 L 734.267 416.000 L 734.267 418.000 L 734.267 420.000 L 734.267 422.000 L 734.267 424.000 L 734.267 426.000 L 734.267 428.000 L 734.267 430.000 L 734.267 432.000 L 734.267 434.000 L 734.267 436.000 L 734.267 438.000 L 734.267 440.000 L 734.267 442.000 L 734.267 444.000 L 734.267 446.000 L 693.267 448.000 L 693.267 450.000 L 693.267 452.000 L 693.267 454.000 L 693.267 456.000 L 693.267 458.000 L 693.267 460.000 L 674.798 462.000 L 674.798 464.000 L 674.798 466.000 L 674.798 468.000 L 552.500 470.000 L 552.500 472.000 L 480.354 474.000 L 480.354 476.000 L 169.430 478.000 L 169.430 480.000" fill="none" stroke="#ff9800" stroke-width="1" stroke-dasharray="6,4"/><text x="721.459" y="16.000" fill="#ff9800" font-size="12">base_right_edge</text><path d="M 0.000 0.000 L 2.000 0.000 L 4.000 0.000 L 6.000 473.142 L 8.000 473.142 L 10.000 473.142 L 12.000 473.142 L 14.000 473.142 L 16.000 473.142 L 18.000 473.142 L 20.000 473.142 L 22.000 473.142 L 24.000 473.142 L 26.000 473.142 L 28.000 473.142 L 30.000 473.142 L 32.000 473.142 L 34.000 473.142 L 36.000 473.142 L 38.000 473.142 L 40.000 473.142 L 42.000 436.058 L 44.000 436.058 L 46.000 458.938 L 48.000 458.938 L 50.000 458.938 L 52.000 458.938 L 54.000 458.938 L 56.000 458.938 L 58.000 458.938 L 60.000 458.938 L 62.000 458.938 L 64.000 458.938 L 66.000 458.938 L 68.000 458.938 L 70.000 458.938 L 72.000 458.938 L 74.000 458.938 L 76.000 458.938 L 78.000 458.938 L 80.000 458.938 L 82.000 458.938 L 84.000 458.938 L 86.000 458.938 L 88.000 458.938 L 90.000 458.938 L 92.000 422.832 L 94.000 422.832 L 96.000 455.172 L 98.000 455.172 L 100.000 455.172 L 102.000 455.172 L 104.000 455.172 L 106.000 455.172 L 108.000 455.172 L 110.000 455.172 L 112.000 455.172 L 114.000 455.172 L 116.000 455.172 L 118.000 455.172 L 120.000 455.172 L 122.000 455.172 L 124.000 455.172 L 126.000 455.172 L 128.000 455.172 L 130.000 455.172 L 132.000 455.172 L 134.000 455.172 L 136.000 481.430 L 138.000 481.430 L 140.000 481.430 L 142.000 481.430 L 144.000 481.430 L 146.000 481.430 L 148.000 481.430 L 150.000 481.430 L 152.000 481.430 L 154.000 481.430 L 156.000 481.430 L 158.000 481.430 L 160.000 481.430 L 162.000 481.430 L 164.000 481.430 L 166.000 481.430 L 168.000 481.430 L 170.000 446.930 L 172.000 446.930 L 174.000 446.930 L 176.000 446.930 L 178.000 446.930 L 180.000 446.930 L 182.000 473.100 L 184.000 473.100 L 186.000 473.100 L 188.000 473.100 L 190.000 473.100 L 192.000 473.100 L 194.000 473.100 L 196.000 473.100 L 198.000 473.100 L 200.000 473.100 L 202.000 473.100 L 204.000 473.100 L 206.000 473.100 L 208.000 473.100 L 210.000 473.100 L 212.000 473.100 L 214.000 473.100 L 216.000 441.177 L 218.000 441.177 L 220.000 441.177 L 222.000 441.177 L 224.000 441.177 L 226.000 441.177 L 228.000 441.177 L 230.000 441.177 L 232.000 441.177 L 234.000 410.900 L 236.000 465.601 L 238.000 465.601 L 240.000 465.601 L 242.000 465.601 L 244.000 465.601 L 246.000 465.601 L 248.000 465.601 L 250.000 465.601 L 252.000 465.601 L 254.000 465.601 L 256.000 465.601 L 258.000 465.601 L 260.000 465.601 L 262.000 465.601 L 264.000 465.601 L 266.000 465.601 L 268.000 465.601 L 270.000 465.601 L 272.000 465.601 L 274.000 433.259 L 276.000 471.707 L 278.000 471.707 L 280.000 471.707 L 282.000 471.707 L 284.000 471.707 L 286.000 471.707 L 288.000 471.707 L 290.000 471.707 L 292.000 471.707 L 294.000 471.707 L 296.000 471.707 L 298.000 471.707 L 300.000 471.707 L 302.000 471.707 L 304.000 471.707 L 306.000 471.707 L 308.000 471.707 L 310.000 471.707 L 312.000 471.707 L 314.000 471.707 L 316.000 471.707 L 318.000 408.823 L 320.000 447.729 L 322.000 447.729 L 324.000 447.729 L 326.000 447.729 L 328.000 447.729 L 330.000 447.729 L 332.000 447.729 L 334.000 447.729 L 336.000 447.729 L 338.000 447.729 L 340.000 447.729 L 342.000 447.729 L 344.000 447.729 L 346.000 447.729 L 348.000 447.729 L 350.000 447.729 L 352.000 447.729 L 354.000 447.729 L 356.000 471.980 L 358.000 471.980 L 360.000 471.980 L 362.000 471.980 L 364.000 471.980 L 366.000 471.980 L 368.000 471.980 L 370.000 471.980 L 372.000 471.980 L 374.000 471.980 L 376.000 471.980 L 378.000 471.980 L 380.000 471.980 L 382.000 471.980 L 384.000 471.980 L 386.000 471.980 L 388.000 448.965 L 390.000 448.965 L 392.000 448.965 L 394.000 448.965 L 396.000 448.965 L 398.000 448.965 L 400.000 448.965 L 402.000 448.965 L 404.000 448.965 L 406.000 448.965 L 408.000 448.965 L 410.000 448.965 L 412.000 448.965 L 414.000 393.902 L 416.000 449.952 L 418.000 449.952 L 420.000 449.952 L 422.000 449.952 L 424.000 449.952 L 426.000 449.952 L 428.000 449.952 L 430.000 449.952 L 432.000 449.952 L 434.000 449.952 L 436.000 449.952 L 438.000 449.952 L 440.000 449.952 L 442.000 411.325 L 444.000 411.325 L 446.000 476.335 L 448.000 476.335 L 450.000 476.335 L 452.000 476.335 L 454.000 476.335 L 456.000 476.335 L 458.000 476.335 L 460.000 476.335 L 462.000 476.335 L 464.000 476.335 L 466.000 476.335 L 468.000 476.335 L 470.000 476.335 L 472.000 476.335 L 474.000 476.335 L 476.000 476.335 L 478.000 476.335 L 480.000 476.335 L 482.000 446.457 L 484.000 446.457 L 486.000 446.457 L 488.000 446.457 L 490.000 446.457 L 492.000 446.457 L 494.000 446.457 L 496.000 446.457 L 498.000 446.457 L 500.000 446.457 L 502.000 423.453 L 504.000 423.453 L 506.000 460.614 L 508.000 460.614 L 510.000 460.614 L 512.000 460.614 L 514.000 460.614 L 516.000 460.614 L 518.000 460.614 L 520.000 460.614 L 522.000 460.614 L 524.000 460.614 L 526.000 460.614 L 528.000 460.614 L 530.000 460.614 L 532.000 460.614 L 534.000 423.453 L 536.000 472.677 L 538.000 472.677 L 540.000 472.677 L 542.000 472.677 L 544.000 472.677 L 546.000 472.677 L 548.000 472.677 L 550.000 472.677 L 552.000 472.677 L 554.000 412.317 L 556.000 412.317 L 558.000 412.317 L 560.000 412.317 L 562.000 412.317 L 564.000 412.317 L 566.000 412.317 L 568.000 412.317 L 570.000 412.317 L 572.000 412.317 L 574.000 412.317 L 576.000 449.189 L 578.000 449.189 L 580.000 449.189 L 582.000 449.189 L 584.000 449.189 L 586.000 449.189 L 588.000 449.189 L 590.000 449.189 L 592.000 449.189 L 594.000 449.189 L 596.000 449.189 L 598.000 449.189 L 600.000 449.189 L 602.000 449.189 L 604.000 449.189 L 606.000 449.189 L 608.000 449.189 L 610.000 456.826 L 612.000 456.826 L 614.000 456.826 L 616.000 456.826 L 618.000 456.826 L 620.000 456.826 L 622.000 456.826 L 624.000 456.826 L 626.000 456.826 L 628.000 456.826 L 630.000 456.826 L 632.000 456.826 L 634.000 456.826 L 636.000 456.826 L 638.000 456.826 L 640.000 456.826 L 642.000 456.826 L 644.000 456.826 L 646.000 456.826 L 648.000 456.826 L 650.000 469.369 L 652.000 469.369 L 654.000 469.369 L 656.000 469.369 L 658.000 469.369 L 660.000 469.369 L 662.000 469.369 L 664.000 469.369 L 666.000 469.369 L 668.000 469.369 L 670.000 469.369 L 672.000 469.369 L 674.000 469.369 L 676.000 461.800 L 678.000 461.800 L 680.000 461.800 L 682.000 461.800 L 684.000 461.800 L 686.000 461.800 L 688.000 461.800 L 690.000 461.800 L 692.000 461.800 L 694.000 340.855 L 696.000 446.281 L 698.000 446.281 L 700.000 446.281 L 702.000 446.281 L 704.000 446.281 L 706.000 446.281 L 708.000 446.281 L 710.000 446.281 L 712.000 446.281 L 714.000 446.281 L 716.000 446.281 L 718.000 446.281 L 720.000 446.281 L 722.000 446.281 L 724.000 446.281 L 726.000 446.281 L 728.000 446.281 L 730.000 446.281 L 732.000 446.281 L 734.000 446.281 L 736.000 446.281" fill="none" stroke="#ff9800" stroke-width="1" stroke-dasharray="6,4"/><text x="4.000" y="14.000" fill="#ff9800" font-size="12">base_bottom_edge</text></g></svg>