<svg xmlns="http://www.w3.org/2000/svg" width="737" height="539" viewBox="0 0 737 539"><rect x="0" y="0" width="100%" height="100%" fill="none" stroke="#ffffff" stroke-width="1"/><g id="bboxes"><rect x="55.900" y="-10.000" width="110.000" height="46.000" fill="none" stroke="#00ff7f" stroke-width="1"/><text x="57.900" y="2.000" fill="#00ff7f" font-size="10">0</text><rect x="108.700" y="40.200" width="102.000" height="48.000" fill="none" stroke="#00ff7f" stroke-width="1"/><text x="110.700" y="52.200" fill="#00ff7f" font-size="10">1</text><rect x="215.953" y="-17.191" width="74.000" height="58.000" fill="none" stroke="#00ff7f" stroke-width="1"/><text x="217.953" y="-5.191" fill="#00ff7f" font-size="10">2</text><rect x="400.500" y="-15.100" width="78.000" height="56.000" fill="none" stroke="#00ff7f" stroke-width="1"/><text x="402.500" y="-3.100" fill="#00ff7f" font-size="10">3</text><rect x="417.247" y="32.357" width="85.000" height="73.000" fill="none" stroke="#00ff7f" stroke-width="1"/><text x="419.247" y="44.357" fill="#00ff7f" font-size="10">4</text><rect x="545.000" y="-16.300" width="71.000" height="72.000" fill="none" stroke="#00ff7f" stroke-width="1"/><text x="547.000" y="-4.300" fill="#00ff7f" font-size="10">5</text><rect x="650.300" y="-16.600" width="78.000" height="61.000" fill="none" stroke="#00ff7f" stroke-width="1"/><text x="652.300" y="-4.600" fill="#00ff7f" font-size="10">6</text><rect x="27.059" y="64.393" width="77.000" height="54.000" fill="none" stroke="#00ff7f" stroke-width="1"/><text x="29.059" y="76.393" fill="#00ff7f" font-size="10">7</text><rect x="180.845" y="76.343" width="72.000" height="62.000" fill="none" stroke="#00ff7f" stroke-width="1"/><text x="182.845" y="88.343" fill="#00ff7f" font-size="10">8</text><rect x="250.505" y="100.541" width="72.000" height="64.000" fill="none" stroke="#00ff7f" stroke-width="1"/><text x="252.505" y="112.541" fill="#00ff7f" font-size="10">9</text><rect x="297.800" y="9.100" width="63.000" height="61.000" fill="none" stroke="#00ff7f" stroke-width="1"/><text x="299.800" y="21.100" fill="#00ff7f" font-size="10">10</text><rect x="379.692" y="79.887" width="43.000" height="100.000" fill="none" stroke="#00ff7f" stroke-width="1"/><text x="381.692" y="91.887" fill="#00ff7f" font-size="10">11</text><rect x="511.900" y="40.300" width="47.000" height="66.000" fill="none" stroke="#00ff7f" stroke-width="1"/><text x="513.900" y="52.300" fill="#00ff7f" font-size="10">12</text><rect x="389.825" y="166.024" width="75.000" height="60.000" fill="none" stroke="#00ff7f" stroke-width="1"/><text x="391.825" y="178.024" fill="#00ff7f" font-size="10">13</text><rect x="56.618" y="128.937" width="64.000" height="44.000" fill="none" stroke="#00ff7f" stroke-width="1"/><text x="58.618" y="140.937" fill="#00ff7f" font-size="10">14</text><rect x="576.409" y="138.875" width="47.000" height="67.000" fill="none" stroke="#00ff7f" stroke-width="1"/><text x="578.409" y="150.875" fill="#00ff7f" font-size="10">15</text><rect x="90.000" y="152.000" width="110.000" height="70.000" fill="none" stroke="#00ff7f" stroke-width="1"/><text x="92.000" y="164.000" fill="#00ff7f" font-size="10">16</text><rect x="725.400" y="26.900" width="41.000" height="78.000" fill="none" stroke="#00ff7f" stroke-width="1"/><text x="727.400" y="38.900" fill="#00ff7f" font-size="10">17</text><rect x="624.020" y="102.625" width="50.000" height="58.000" fill="none" stroke="#00ff7f" stroke-width="1"/><text x="626.020" y="114.625" fill="#00ff7f" font-size="10">18</text><rect x="208.553" y="150.428" width="60.000" height="45.000" fill="none" stroke="#00ff7f" stroke-width="1"/><text x="210.553" y="162.428" fill="#00ff7f" font-size="10">19</text><rect x="684.300" y="105.900" width="59.000" height="50.000" fill="none" stroke="#00ff7f" stroke-width="1"/><text x="686.300" y="117.900" fill="#00ff7f" font-size="10">20</text><rect x="474.000" y="98.100" width="52.000" height="59.000" fill="none" stroke="#00ff7f" stroke-width="1"/><text x="476.000" y="110.100" fill="#00ff7f" font-size="10">21</text><rect x="268.300" y="175.900" width="41.000" height="60.000" fill="none" stroke="#00ff7f" stroke-width="1"/><text x="270.300" y="187.900" fill="#00ff7f" font-size="10">22</text><rect x="364.600" y="233.000" width="69.000" height="43.000" fill="none" stroke="#00ff7f" stroke-width="1"/><text x="366.600" y="245.000" fill="#00ff7f" font-size="10">23</text><rect x="24.800" y="183.700" width="49.000" height="51.000" fill="none" stroke="#00ff7f" stroke-width="1"/><text x="26.800" y="195.700" fill="#00ff7f" font-size="10">24</text><rect x="146.000" y="215.900" width="52.000" height="46.000" fill="none" stroke="#00ff7f" stroke-width="1"/><text x="148.000" y="227.900" fill="#00ff7f" font-size="10">25</text><rect x="754.075" y="108.242" width="27.000" height="95.000" fill="none" stroke="#00ff7f" stroke-width="1"/><text x="756.075" y="120.242" fill="#00ff7f" font-size="10">26</text><rect x="665.200" y="53.800" width="60.000" height="53.000" fill="none" stroke="#00ff7f" stroke-width="1"/><text x="667.200" y="65.800" fill="#00ff7f" font-size="10">27</text><rect x="249.000" y="232.700" width="62.000" height="47.000" fill="none" stroke="#00ff7f" stroke-width="1"/><text x="251.000" y="244.700" fill="#00ff7f" font-size="10">28</text><rect x="324.436" y="268.385" width="35.000" height="61.000" fill="none" stroke="#00ff7f" stroke-width="1"/><text x="326.436" y="280.385" fill="#00ff7f" font-size="10">29</text><rect x="512.200" y="155.400" width="55.000" height="43.000" fill="none" stroke="#00ff7f" stroke-width="1"/><text x="514.200" y="167.400" fill="#00ff7f" font-size="10">30</text><rect x="208.349" y="205.113" width="24.000" height="67.000" fill="none" stroke="#00ff7f" stroke-width="1"/><text x="210.349" y="217.113" fill="#00ff7f" font-size="10">31</text><rect x="629.205" y="201.629" width="66.000" height="44.000" fill="none" stroke="#00ff7f" stroke-width="1"/><text x="631.205" y="213.629" fill="#00ff7f" font-size="10">32</text><rect x="666.300" y="244.800" width="47.000" height="53.000" fill="none" stroke="#00ff7f" stroke-width="1"/><text x="668.300" y="256.800" fill="#00ff7f" font-size="10">33</text><rect x="428.207" y="262.544" width="56.000" height="52.000" fill="none" stroke="#00ff7f" stroke-width="1"/><text x="430.207" y="274.544" fill="#00ff7f" font-size="10">34</text><rect x="598.627" y="2.745" width="43.000" height="110.000" fill="none" stroke="#00ff7f" stroke-width="1"/><text x="600.627" y="14.745" fill="#00ff7f" font-size="10">35</text><rect x="320.967" y="204.453" width="38.000" height="48.000" fill="none" stroke="#00ff7f" stroke-width="1"/><text x="322.967" y="216.453" fill="#00ff7f" font-size="10">36</text><rect x="359.093" y="286.270" width="50.000" height="46.000" fill="none" stroke="#00ff7f" stroke-width="1"/><text x="361.093" y="298.270" fill="#00ff7f" font-size="10">37</text><rect x="61.000" y="229.000" width="53.000" height="38.000" fill="none" stroke="#00ff7f" stroke-width="1"/><text x="63.000" y="241.000" fill="#00ff7f" font-size="10">38</text><rect x="553.779" y="108.906" width="39.000" height="36.000" fill="none" stroke="#00ff7f" stroke-width="1"/><text x="555.779" y="120.906" fill="#00ff7f" font-size="10">39</text><rect x="154.902" y="269.847" width="52.000" height="44.000" fill="none" stroke="#00ff7f" stroke-width="1"/><text x="156.902" y="281.847" fill="#00ff7f" font-size="10">40</text><rect x="213.800" y="284.520" width="51.000" height="39.000" fill="none" stroke="#00ff7f" stroke-width="1"/><text x="215.800" y="296.520" fill="#00ff7f" font-size="10">41</text><rect x="574.000" y="207.000" width="52.000" height="56.000" fill="none" stroke="#00ff7f" stroke-width="1"/><text x="576.000" y="219.000" fill="#00ff7f" font-size="10">42</text><rect x="442.100" y="324.400" width="36.000" height="37.000" fill="none" stroke="#00ff7f" stroke-width="1"/><text x="444.100" y="336.400" fill="#00ff7f" font-size="10">43</text><rect x="478.800" y="273.200" width="52.000" height="37.000" fill="none" stroke="#00ff7f" stroke-width="1"/><text x="480.800" y="285.200" fill="#00ff7f" font-size="10">44</text><rect x="688.591" y="302.774" width="33.000" height="61.000" fill="none" stroke="#00ff7f" stroke-width="1"/><text x="690.591" y="314.774" fill="#00ff7f" font-size="10">45</text><rect x="713.974" y="165.534" width="38.000" height="64.000" fill="none" stroke="#00ff7f" stroke-width="1"/><text x="715.974" y="177.534" fill="#00ff7f" font-size="10">46</text><rect x="334.771" y="339.333" width="32.000" height="48.000" fill="none" stroke="#00ff7f" stroke-width="1"/><text x="336.771" y="351.333" fill="#00ff7f" font-size="10">47</text><rect x="271.243" y="288.855" width="45.000" height="31.000" fill="none" stroke="#00ff7f" stroke-width="1"/><text x="273.243" y="300.855" fill="#00ff7f" font-size="10">48</text><rect x="191.900" y="314.500" width="63.000" height="46.000" fill="none" stroke="#00ff7f" stroke-width="1"/><text x="193.900" y="326.500" fill="#00ff7f" font-size="10">49</text><rect x="139.300" y="104.900" width="32.000" height="52.000" fill="none" stroke="#00ff7f" stroke-width="1"/><text x="141.300" y="116.900" fill="#00ff7f" font-size="10">50</text><rect x="405.800" y="288.300" width="33.000" height="51.000" fill="none" stroke="#00ff7f" stroke-width="1"/><text x="407.800" y="300.300" fill="#00ff7f" font-size="10">51</text><rect x="55.009" y="270.322" width="57.000" height="44.000" fill="none" stroke="#00ff7f" stroke-width="1"/><text x="57.009" y="282.322" fill="#00ff7f" font-size="10">52</text><rect x="489.800" y="320.700" width="33.000" height="46.000" fill="none" stroke="#00ff7f" stroke-width="1"/><text x="491.800" y="332.700" fill="#00ff7f" font-size="10">53</text><rect x="240.600" y="348.500" width="45.000" height="40.000" fill="none" stroke="#00ff7f" stroke-width="1"/><text x="242.600" y="360.500" fill="#00ff7f" font-size="10">54</text><rect x="15.400" y="309.200" width="38.000" height="41.000" fill="none" stroke="#00ff7f" stroke-width="1"/><text x="17.400" y="321.200" fill="#00ff7f" font-size="10">55</text><rect x="551.683" y="213.385" width="25.000" height="75.000" fill="none" stroke="#00ff7f" stroke-width="1"/><text x="553.683" y="225.385" fill="#00ff7f" font-size="10">56</text><rect x="411.800" y="365.100" width="39.000" height="36.000" fill="none" stroke="#00ff7f" stroke-width="1"/><text x="413.800" y="377.100" fill="#00ff7f" font-size="10">57</text><rect x="516.984" y="368.028" width="54.000" height="36.000" fill="none" stroke="#00ff7f" stroke-width="1"/><text x="518.984" y="380.028" fill="#00ff7f" font-size="10">58</text><rect x="274.200" y="374.000" width="61.000" height="34.000" fill="none" stroke="#00ff7f" stroke-width="1"/><text x="276.200" y="386.000" fill="#00ff7f" font-size="10">59</text><rect x="617.400" y="245.000" width="41.000" height="52.000" fill="none" stroke="#00ff7f" stroke-width="1"/><text x="619.400" y="257.000" fill="#00ff7f" font-size="10">60</text><rect x="332.457" y="395.849" width="38.000" height="36.000" fill="none" stroke="#00ff7f" stroke-width="1"/><text x="334.457" y="407.849" fill="#00ff7f" font-size="10">61</text><rect x="455.800" y="371.000" width="63.000" height="43.000" fill="none" stroke="#00ff7f" stroke-width="1"/><text x="457.800" y="383.000" fill="#00ff7f" font-size="10">62</text><rect x="742.466" y="-37.920" width="15.000" height="59.000" fill="none" stroke="#00ff7f" stroke-width="1"/><text x="744.466" y="-25.920" fill="#00ff7f" font-size="10">63</text><rect x="722.128" y="283.065" width="59.000" height="31.000" fill="none" stroke="#00ff7f" stroke-width="1"/><text x="724.128" y="295.065" fill="#00ff7f" font-size="10">64</text><rect x="111.000" y="255.400" width="56.000" height="20.000" fill="none" stroke="#00ff7f" stroke-width="1"/><text x="113.000" y="267.400" fill="#00ff7f" font-size="10">65</text><rect x="8.900" y="391.400" width="53.000" height="20.000" fill="none" stroke="#00ff7f" stroke-width="1"/><text x="10.900" y="403.400" fill="#00ff7f" font-size="10">66</text><rect x="626.534" y="305.474" width="52.000" height="43.000" fill="none" stroke="#00ff7f" stroke-width="1"/><text x="628.534" y="317.474" fill="#00ff7f" font-size="10">67</text><rect x="77.295" y="333.755" width="46.000" height="25.000" fill="none" stroke="#00ff7f" stroke-width="1"/><text x="79.295" y="345.755" fill="#00ff7f" font-size="10">68</text><rect x="113.900" y="356.800" width="37.000" height="39.000" fill="none" stroke="#00ff7f" stroke-width="1"/><text x="115.900" y="368.800" fill="#00ff7f" font-size="10">69</text><rect x="295.794" y="417.143" width="18.000" height="60.000" fill="none" stroke="#00ff7f" stroke-width="1"/><text x="297.794" y="429.143" fill="#00ff7f" font-size="10">70</text><rect x="566.163" y="393.415" width="37.000" height="34.000" fill="none" stroke="#00ff7f" stroke-width="1"/><text x="568.163" y="405.415" fill="#00ff7f" font-size="10">71</text><rect x="410.384" y="406.513" width="21.000" height="45.000" fill="none" stroke="#00ff7f" stroke-width="1"/><text x="412.384" y="418.513" fill="#00ff7f" font-size="10">72</text><rect x="440.665" y="429.213" width="17.000" height="46.000" fill="none" stroke="#00ff7f" stroke-width="1"/><text x="442.665" y="441.213" fill="#00ff7f" font-size="10">73</text><rect x="335.700" y="429.700" width="65.000" height="29.000" fill="none" stroke="#00ff7f" stroke-width="1"/><text x="337.700" y="441.700" fill="#00ff7f" font-size="10">74</text><rect x="137.900" y="300.000" width="43.000" height="43.000" fill="none" stroke="#00ff7f" stroke-width="1"/><text x="139.900" y="312.000" fill="#00ff7f" font-size="10">75</text><rect x="160.500" y="361.800" width="36.000" height="31.000" fill="none" stroke="#00ff7f" stroke-width="1"/><text x="162.500" y="373.800" fill="#00ff7f" font-size="10">76</text><rect x="258.319" y="419.918" width="27.000" height="34.000" fill="none" stroke="#00ff7f" stroke-width="1"/><text x="260.319" y="431.918" fill="#00ff7f" font-size="10">77</text><rect x="330.056" y="468.235" width="47.000" height="34.000" fill="none" stroke="#00ff7f" stroke-width="1"/><text x="332.056" y="480.235" fill="#00ff7f" font-size="10">78</text><rect x="615.606" y="355.591" width="32.000" height="24.000" fill="none" stroke="#00ff7f" stroke-width="1"/><text x="617.606" y="367.591" fill="#00ff7f" font-size="10">79</text><rect x="598.064" y="275.799" width="25.000" height="65.000" fill="none" stroke="#00ff7f" stroke-width="1"/><text x="600.064" y="287.799" fill="#00ff7f" font-size="10">80</text><rect x="54.294" y="336.577" width="26.000" height="49.000" fill="none" stroke="#00ff7f" stroke-width="1"/><text x="56.294" y="348.577" fill="#00ff7f" font-size="10">81</text><rect x="432.000" y="391.100" width="35.000" height="31.000" fill="none" stroke="#00ff7f" stroke-width="1"/><text x="434.000" y="403.100" fill="#00ff7f" font-size="10">82</text><rect x="549.100" y="290.600" width="41.000" height="26.000" fill="none" stroke="#00ff7f" stroke-width="1"/><text x="551.100" y="302.600" fill="#00ff7f" font-size="10">83</text><rect x="580.424" y="352.638" width="24.000" height="32.000" fill="none" stroke="#00ff7f" stroke-width="1"/><text x="582.424" y="364.638" fill="#00ff7f" font-size="10">84</text><rect x="790.180" y="385.986" width="18.000" height="57.000" fill="none" stroke="#00ff7f" stroke-width="1"/><text x="792.180" y="397.986" fill="#00ff7f" font-size="10">85</text><rect x="577.900" y="446.600" width="40.000" height="21.000" fill="none" stroke="#00ff7f" stroke-width="1"/><text x="579.900" y="458.600" fill="#00ff7f" font-size="10">86</text><rect x="52.600" y="411.300" width="46.000" height="29.000" fill="none" stroke="#00ff7f" stroke-width="1"/><text x="54.600" y="423.300" fill="#00ff7f" font-size="10">87</text><rect x="377.500" y="51.000" width="40.000" height="17.000" fill="none" stroke="#00ff7f" stroke-width="1"/><text x="379.500" y="63.000" fill="#00ff7f" font-size="10">88</text><rect x="294.700" y="496.700" width="65.000" height="29.000" fill="none" stroke="#00ff7f" stroke-width="1"/><text x="296.700" y="508.700" fill="#00ff7f" font-size="10">89</text><rect x="706.900" y="361.900" width="35.000" height="28.000" fill="none" stroke="#00ff7f" stroke-width="1"/><text x="708.900" y="373.900" fill="#00ff7f" font-size="10">90</text><rect x="98.900" y="156.500" width="54.000" height="16.000" fill="none" stroke="#00ff7f" stroke-width="1"/><text x="100.900" y="168.500" fill="#00ff7f" font-size="10">91</text><rect x="604.867" y="398.767" width="39.000" height="23.000" fill="none" stroke="#00ff7f" stroke-width="1"/><text x="606.867" y="410.767" fill="#00ff7f" font-size="10">92</text><rect x="434.153" y="112.664" width="15.000" height="33.000" fill="none" stroke="#00ff7f" stroke-width="1"/><text x="436.153" y="124.664" fill="#00ff7f" font-size="10">93</text><rect x="120.033" y="282.433" width="20.000" height="42.000" fill="none" stroke="#00ff7f" stroke-width="1"/><text x="122.033" y="294.433" fill="#00ff7f" font-size="10">94</text><rect x="209.300" y="363.400" width="32.000" height="36.000" fill="none" stroke="#00ff7f" stroke-width="1"/><text x="211.300" y="375.400" fill="#00ff7f" font-size="10">95</text><rect x="111.900" y="412.200" width="28.000" height="27.000" fill="none" stroke="#00ff7f" stroke-width="1"/><text x="113.900" y="424.200" fill="#00ff7f" font-size="10">96</text><rect x="382.133" y="492.500" width="35.000" height="24.000" fill="none" stroke="#00ff7f" stroke-width="1"/><text x="384.133" y="504.500" fill="#00ff7f" font-size="10">97</text><rect x="479.333" y="422.267" width="20.000" height="41.000" fill="none" stroke="#00ff7f" stroke-width="1"/><text x="481.333" y="434.267" fill="#00ff7f" font-size="10">98</text><rect x="117.800" y="448.367" width="42.000" height="19.000" fill="none" stroke="#00ff7f" stroke-width="1"/><text x="119.800" y="460.367" fill="#00ff7f" font-size="10">99</text><rect x="175.833" y="390.187" width="28.000" height="36.000" fill="none" stroke="#00ff7f" stroke-width="1"/><text x="177.833" y="402.187" fill="#00ff7f" font-size="10">100</text><rect x="507.967" y="417.500" width="39.000" height="19.000" fill="none" stroke="#00ff7f" stroke-width="1"/><text x="509.967" y="429.500" fill="#00ff7f" font-size="10">101</text><rect x="493.700" y="403.400" width="37.000" height="20.000" fill="none" stroke="#00ff7f" stroke-width="1"/><text x="495.700" y="415.400" fill="#00ff7f" font-size="10">102</text><rect x="458.800" y="138.900" width="10.000" height="46.000" fill="none" stroke="#00ff7f" stroke-width="1"/><text x="460.800" y="150.900" fill="#00ff7f" font-size="10">103</text><rect x="738.300" y="454.200" width="15.000" height="41.000" fill="none" stroke="#00ff7f" stroke-width="1"/><text x="740.300" y="466.200" fill="#00ff7f" font-size="10">104</text><rect x="536.231" y="348.425" width="36.000" height="23.000" fill="none" stroke="#00ff7f" stroke-width="1"/><text x="538.231" y="360.425" fill="#00ff7f" font-size="10">105</text><rect x="650.900" y="384.900" width="40.000" height="18.000" fill="none" stroke="#00ff7f" stroke-width="1"/><text x="652.900" y="396.900" fill="#00ff7f" font-size="10">106</text><rect x="688.133" y="358.300" width="18.000" height="39.000" fill="none" stroke="#00ff7f" stroke-width="1"/><text x="690.133" y="370.300" fill="#00ff7f" font-size="10">107</text><rect x="62.700" y="462.400" width="34.000" height="20.000" fill="none" stroke="#00ff7f" stroke-width="1"/><text x="64.700" y="474.400" fill="#00ff7f" font-size="10">108</text><rect x="99.500" y="476.200" width="28.000" height="23.000" fill="none" stroke="#00ff7f" stroke-width="1"/><text x="101.500" y="488.200" fill="#00ff7f" font-size="10">109</text><rect x="396.500" y="456.100" width="19.000" height="36.000" fill="none" stroke="#00ff7f" stroke-width="1"/><text x="398.500" y="468.100" fill="#00ff7f" font-size="10">110</text><rect x="440.600" y="517.500" width="34.000" height="24.000" fill="none" stroke="#00ff7f" stroke-width="1"/><text x="442.600" y="529.500" fill="#00ff7f" font-size="10">111</text><rect x="463.900" y="542.100" width="19.000" height="35.000" fill="none" stroke="#00ff7f" stroke-width="1"/><text x="465.900" y="554.100" fill="#00ff7f" font-size="10">112</text><rect x="410.900" y="430.900" width="21.000" height="30.000" fill="none" stroke="#00ff7f" stroke-width="1"/><text x="412.900" y="442.900" fill="#00ff7f" font-size="10">113</text><rect x="32.500" y="443.600" width="25.000" height="25.000" fill="none" stroke="#00ff7f" stroke-width="1"/><text x="34.500" y="455.600" fill="#00ff7f" font-size="10">114</text><rect x="739.774" y="324.240" width="16.000" height="30.000" fill="none" stroke="#00ff7f" stroke-width="1"/><text x="741.774" y="336.240" fill="#00ff7f" font-size="10">115</text><rect x="165.567" y="496.967" width="25.000" height="39.000" fill="none" stroke="#00ff7f" stroke-width="1"/><text x="167.567" y="508.967" fill="#00ff7f" font-size="10">116</text><rect x="-71.300" y="-8.800" width="21.000" height="16.000" fill="none" stroke="#00ff7f" stroke-width="1"/><text x="-69.300" y="3.200" fill="#00ff7f" font-size="10">117</text><rect x="139.900" y="397.700" width="27.000" height="21.000" fill="none" stroke="#00ff7f" stroke-width="1"/><text x="141.900" y="409.700" fill="#00ff7f" font-size="10">118</text><rect x="360.600" y="535.600" width="27.000" height="22.000" fill="none" stroke="#00ff7f" stroke-width="1"/><text x="362.600" y="547.600" fill="#00ff7f" font-size="10">119</text><text x="6" y="14" fill="#ffffff" font-size="12">visible=113</text><path d="M 757.466 0.000 L 757.466 2.000 L 757.466 4.000 L 757.466 6.000 L 757.466 8.000 L 757.466 10.000 L 757.466 12.000 L 757.466 14.000 L 757.466 16.000 L 757.466 18.000 L 757.466 20.000 L 728.300 22.000 L 728.300 24.000 L 728.300 26.000 L 766.400 28.000 L 766.400 30.000 L 766.400 32.000 L 766.400 34.000 L 766.400 36.000 L 766.400 38.000 L 766.400 40.000 L 766.400 42.000 L 766.400 44.000 L 766.400 46.000 L 766.400 48.000 L 766.400 50.000 L 766.400 52.000 L 766.400 54.000 L 766.400 56.000 L 766.400 58.000 L 766.400 60.000 L 766.400 62.000 L 766.400 64.000 L 766.400 66.000 L 766.400 68.000 L 766.400 70.000 L 766.400 72.000 L 766.400 74.000 L 766.400 76.000 L 766.400 78.000 L 766.400 80.000 L 766.400 82.000 L 766.400 84.000 L 766.400 86.000 L 766.400 88.000 L 766.400 90.000 L 766.400 92.000 L 766.400 94.000 L 766.400 96.000 L 766.400 98.000 L 766.400 100.000 L 766.400 102.000 L 766.400 104.000 L 743.300 106.000 L 743.300 108.000 L 781.075 110.000 L 781.075 112.000 L 781.075 114.000 L 781.075 116.000 L 781.075 118.000 L 781.075 120.000 L 781.075 122.000 L 781.075 124.000 L 781.075 126.000 L 781.075 128.000 L 781.075 130.000 L 781.075 132.000 L 781.075 134.000 L 781.075 136.000 L 781.075 138.000 L 781.075 140.000 L 781.075 142.000 L 781.075 144.000 L 781.075 146.000 L 781.075 148.000 L 781.075 150.000 L 781.075 152.000 L 781.075 154.000 L 781.075 156.000 L 781.075 158.000 L 781.075 160.000 L 781.075 162.000 L 781.075 164.000 L 781.075 166.000 L 781.075 168.000 L 781.075 170.000 L 781.075 172.000 L 781.075 174.000 L 781.075 176.000 L 781.075 178.000 L 781.075 180.000 L 781.075 182.000 L 781.075 184.000 L 781.075 186.000 L 781.075 188.000 L 781.075 190.000 L 781.075 192.000 L 781.075 194.000 L 781.075 196.000 L 781.075 198.000 L 781.075 200.000 L 781.075 202.000 L 751.974 204.000 L 751.974 206.000 L 751.974 208.000 L 751.974 210.000 L 751.974 212.000 L 751.974 214.000 L 751.974 216.000 L 751.974 218.000 L 751.974 220.000 L 751.974 222.000 L 751.974 224.000 L 751.974 226.000 L 751.974 228.000 L 695.205 230.000 L 695.205 232.000 L 695.205 234.000 L 695.205 236.000 L 695.205 238.000 L 695.205 240.000 L 695.205 242.000 L 695.205 244.000 L 713.300 246.000 L 713.300 248.000 L 713.300 250.000 L 713.300 252.000 L 713.300 254.000 L 713.300 256.000 L 713.300 258.000 L 713.300 260.000 L 713.300 262.000 L 713.300 264.000 L 713.300 266.000 L 713.300 268.000 L 713.300 270.000 L 713.300 272.000 L 713.300 274.000 L 713.300 276.000 L 713.300 278.000 L 713.300 280.000 L 713.300 282.000 L 781.128 284.000 L 781.128 286.000 L 781.128 288.000 L 781.128 290.000 L 781.128 292.000 L 781.128 294.000 L 781.128 296.000 L 781.128 298.000 L 781.128 300.000 L 781.128 302.000 L 781.128 304.000 L 781.128 306.000 L 781.128 308.000 L 781.128 310.000 L 781.128 312.000 L 781.128 314.000 L 721.591 316.000 L 721.591 318.000 L 721.591 320.000 L 721.591 322.000 L 721.591 324.000 L 755.774 326.000 L 755.774 328.000 L 755.774 330.000 L 755.774 332.000 L 755.774 334.000 L 755.774 336.000 L 755.774 338.000 L 755.774 340.000 L 755.774 342.000 L 755.774 344.000 L 755.774 346.000 L 755.774 348.000 L 755.774 350.000 L 755.774 352.000 L 755.774 354.000 L 721.591 356.000 L 721.591 358.000 L 721.591 360.000 L 741.900 362.000 L 741.900 364.000 L 741.900 366.000 L 741.900 368.000 L 741.900 370.000 L 741.900 372.000 L 741.900 374.000 L 741.900 376.000 L 741.900 378.000 L 741.900 380.000 L 741.900 382.000 L 741.900 384.000 L 808.180 386.000 L 808.180 388.000 L 808.180 390.000 L 808.180 392.000 L 808.180 394.000 L 808.180 396.000 L 808.180 398.000 L 808.180 400.000 L 808.180 402.000 L 808.180 404.000 L 808.180 406.000 L 808.180 408.000 L 808.180 410.000 L 808.180 412.000 L 808.180 414.000 L 808.180 416.000 L 808.180 418.000 L 808.180 420.000 L 808.180 422.000 L 808.180 424.000 L 808.180 426.000 L 808.180 428.000 L 808.180 430.000 L 808.180 432.000 L 808.180 434.000 L 808.180 436.000 L 808.180 438.000 L 808.180 440.000 L 808.180 442.000 L 499.333 444.000 L 499.333 446.000 L 617.900 448.000 L 617.900 450.000 L 617.900 452.000 L 617.900 454.000 L 753.300 456.000 L 753.300 458.000 L 753.300 460.000 L 753.300 462.000 L 753.300 464.000 L 753.300 466.000 L 753.300 468.000 L 753.300 470.000 L 753.300 472.000 L 753.300 474.000 L 753.300 476.000 L 753.300 478.000 L 753.300 480.000 L 753.300 482.000 L 753.300 484.000 L 753.300 486.000 L 753.300 488.000 L 753.300 490.000 L 753.300 492.000 L 753.300 494.000 L 417.133 496.000 L 417.133 498.000 L 417.133 500.000 L 417.133 502.000 L 417.133 504.000 L 417.133 506.000 L 417.133 508.000 L 417.133 510.000 L 417.133 512.000 L 417.133 514.000 L 417.133 516.000 L 474.600 518.000 L 474.600 520.000 L 474.600 522.000 L 474.600 524.000 L 474.600 526.000 L 474.600 528.000 L 474.600 530.000 L 474.600 532.000 L 474.600 534.000 L 474.600 536.000 L 474.600 538.000" fill="none" stroke="#ff9800" stroke-width="1" stroke-dasharray="6,4"/><text x="761.466" y="16.000" fill="#ff9800" font-size="12">base_right_edge</text><path d="M 0.000 0.000 L 2.000 0.000 L 4.000 0.000 L 6.000 0.000 L 8.000 0.000 L 10.000 411.400 L 12.000 411.400 L 14.000 411.400 L 16.000 411.400 L 18.000 411.400 L 20.000 411.400 L 22.000 411.400 L 24.000 411.400 L 26.000 411.400 L 28.000 411.400 L 30.000 411.400 L 32.000 411.400 L 34.000 468.600 L 36.000 468.600 L 38.000 468.600 L 40.000 468.600 L 42.000 468.600 L 44.000 468.600 L 46.000 468.600 L 48.000 468.600 L 50.000 468.600 L 52.000 468.600 L 54.000 468.600 L 56.000 468.600 L 58.000 440.300 L 60.000 440.300 L 62.000 440.300 L 64.000 482.400 L 66.000 482.400 L 68.000 482.400 L 70.000 482.400 L 72.000 482.400 L 74.000 482.400 L 76.000 482.400 L 78.000 482.400 L 80.000 482.400 L 82.000 482.400 L 84.000 482.400 L 86.000 482.400 L 88.000 482.400 L 90.000 482.400 L 92.000 482.400 L 94.000 482.400 L 96.000 482.400 L 98.000 440.300 L 100.000 499.200 L 102.000 499.200 L 104.000 499.200 L 106.000 499.200 L 108.000 499.200 L 110.000 499.200 L 112.000 499.200 L 114.000 499.200 L 116.000 499.200 L 118.000 499.200 L 120.000 499.200 L 122.000 499.200 L 124.000 499.200 L 126.000 499.200 L 128.000 467.367 L 130.000 467.367 L 132.000 467.367 L 134.000 467.367 L 136.000 467.367 L 138.000 467.367 L 140.000 467.367 L 142.000 467.367 L 144.000 467.367 L 146.000 467.367 L 148.000 467.367 L 150.000 467.367 L 152.000 467.367 L 154.000 467.367 L 156.000 467.367 L 158.000 467.367 L 160.000 418.700 L 162.000 418.700 L 164.000 418.700 L 166.000 535.967 L 168.000 535.967 L 170.000 535.967 L 172.000 535.967 L 174.000 535.967 L 176.000 535.967 L 178.000 535.967 L 180.000 535.967 L 182.000 535.967 L 184.000 535.967 L 186.000 535.967 L 188.000 535.967 L 190.000 535.967 L 192.000 426.187 L 194.000 426.187 L 196.000 426.187 L 198.000 426.187 L 200.000 426.187 L 202.000 426.187 L 204.000 360.500 L 206.000 360.500 L 208.000 360.500 L 210.000 399.400 L 212.000 399.400 L 214.000 399.400 L 216.000 399.400 L 218.000 399.400 L 220.000 399.400 L 222.000 399.400 L 224.000 399.400 L 226.000 399.400 L 228.000 399.400 L 230.000 399.400 L 232.000 399.400 L 234.000 399.400 L 236.000 399.400 L 238.000 399.400 L 240.000 399.400 L 242.000 388.500 L 244.000 388.500 L 246.000 388.500 L 248.000 388.500 L 250.000 388.500 L 252.000 388.500 L 254.000 388.500 L 256.000 388.500 L 258.000 388.500 L 260.000 453.918 L 262.000 453.918 L 264.000 453.918 L 266.000 453.918 L 268.000 453.918 L 270.000 453.918 L 272.000 453.918 L 274.000 453.918 L 276.000 453.918 L 278.000 453.918 L 280.000 453.918 L 282.000 453.918 L 284.000 453.918 L 286.000 408.000 L 288.000 408.000 L 290.000 408.000 L 292.000 408.000 L 294.000 408.000 L 296.000 525.700 L 298.000 525.700 L 300.000 525.700 L 302.000 525.700 L 304.000 525.700 L 306.000 525.700 L 308.000 525.700 L 310.000 525.700 L 312.000 525.700 L 314.000 525.700 L 316.000 525.700 L 318.000 525.700 L 320.000 525.700 L 322.000 525.700 L 324.000 525.700 L 326.000 525.700 L 328.000 525.700 L 330.000 525.700 L 332.000 525.700 L 334.000 525.700 L 336.000 525.700 L 338.000 525.700 L 340.000 525.700 L 342.000 525.700 L 344.000 525.700 L 346.000 525.700 L 348.000 525.700 L 350.000 525.700 L 352.000 525.700 L 354.000 525.700 L 356.000 525.700 L 358.000 525.700 L 360.000 502.235 L 362.000 557.600 L 364.000 557.600 L 366.000 557.600 L 368.000 557.600 L 370.000 557.600 L 372.000 557.600 L 374.000 557.600 L 376.000 557.600 L 378.000 557.600 L 380.000 557.600 L 382.000 557.600 L 384.000 557.600 L 386.000 557.600 L 388.000 516.500 L 390.000 516.500 L 392.000 516.500 L 394.000 516.500 L 396.000 516.500 L 398.000 516.500 L 400.000 516.500 L 402.000 516.500 L 404.000 516.500 L 406.000 516.500 L 408.000 516.500 L 410.000 516.500 L 412.000 516.500 L 414.000 516.500 L 416.000 516.500 L 418.000 460.900 L 420.000 460.900 L 422.000 460.900 L 424.000 460.900 L 426.000 460.900 L 428.000 460.900 L 430.000 460.900 L 432.000 422.100 L 434.000 422.100 L 436.000 422.100 L 438.000 422.100 L 440.000 422.100 L 442.000 541.500 L 444.000 541.500 L 446.000 541.500 L 448.000 541.500 L 450.000 541.500 L 452.000 541.500 L 454.000 541.500 L 456.000 541.500 L 458.000 541.500 L 460.000 541.500 L 462.000 541.500 L 464.000 577.100 L 466.000 577.100 L 468.000 577.100 L 470.000 577.100 L 472.000 577.100 L 474.000 577.100 L 476.000 577.100 L 478.000 577.100 L 480.000 577.100 L 482.000 577.100 L 484.000 463.267 L 486.000 463.267 L 488.000 463.267 L 490.000 463.267 L 492.000 463.267 L 494.000 463.267 L 496.000 463.267 L 498.000 463.267 L 500.000 423.400 L 502.000 423.400 L 504.000 423.400 L 506.000 423.400 L 508.000 436.500 L 510.000 436.500 L 512.000 436.500 L 514.000 436.500 L 516.000 436.500 L 518.000 436.500 L 520.000 436.500 L 522.000 436.500 L 524.000 436.500 L 526.000 436.500 L 528.000 436.500 L 530.000 436.500 L 532.000 436.500 L 534.000 436.500 L 536.000 436.500 L 538.000 436.500 L 540.000 436.500 L 542.000 436.500 L 544.000 436.500 L 546.000 436.500 L 548.000 404.028 L 550.000 404.028 L 552.000 404.028 L 554.000 404.028 L 556.000 404.028 L 558.000 404.028 L 560.000 404.028 L 562.000 404.028 L 564.000 404.028 L 566.000 404.028 L 568.000 427.415 L 570.000 427.415 L 572.000 427.415 L 574.000 427.415 L 576.000 427.415 L 578.000 467.600 L 580.000 467.600 L 582.000 467.600 L 584.000 467.600 L 586.000 467.600 L 588.000 467.600 L 590.000 467.600 L 592.000 467.600 L 594.000 467.600 L 596.000 467.600 L 598.000 467.600 L 600.000 467.600 L 602.000 467.600 L 604.000 467.600 L 606.000 467.600 L 608.000 467.600 L 610.000 467.600 L 612.000 467.600 L 614.000 467.600 L 616.000 467.600 L 618.000 421.767 L 620.000 421.767 L 622.000 421.767 L 624.000 421.767 L 626.000 421.767 L 628.000 421.767 L 630.000 421.767 L 632.000 421.767 L 634.000 421.767 L 636.000 421.767 L 638.000 421.767 L 640.000 421.767 L 642.000 421.767 L 644.000 379.591 L 646.000 379.591 L 648.000 348.474 L 650.000 348.474 L 652.000 402.900 L 654.000 402.900 L 656.000 402.900 L 658.000 402.900 L 660.000 402.900 L 662.000 402.900 L 664.000 402.900 L 666.000 402.900 L 668.000 402.900 L 670.000 402.900 L 672.000 402.900 L 674.000 402.900 L 676.000 402.900 L 678.000 402.900 L 680.000 402.900 L 682.000 402.900 L 684.000 402.900 L 686.000 402.900 L 688.000 402.900 L 690.000 402.900 L 692.000 397.300 L 694.000 397.300 L 696.000 397.300 L 698.000 397.300 L 700.000 397.300 L 702.000 397.300 L 704.000 397.300 L 706.000 397.300 L 708.000 389.900 L 710.000 389.900 L 712.000 389.900 L 714.000 389.900 L 716.000 389.900 L 718.000 389.900 L 720.000 389.900 L 722.000 389.900 L 724.000 389.900 L 726.000 389.900 L 728.000 389.900 L 730.000 389.900 L 732.000 389.900 L 734.000 389.900 L 736.000 389.900" fill="none" stroke="#ff9800" stroke-width="1" stroke-dasharray="6,4"/><text x="4.000" y="14.000" fill="#ff9800" font-size="12">base_bottom_edge</text></g></svg>