<svg xmlns="http://www.w3.org/2000/svg" width="737" height="539" viewBox="0 0 737 539"><rect x="0" y="0" width="100%" height="100%" fill="none" stroke="#ffffff" stroke-width="1"/><g id="bboxes"><rect x="605.404" y="145.071" width="70.000" height="53.000" fill="none" stroke="#00ff7f" stroke-width="1"/><rect x="580.059" y="190.312" width="60.000" height="47.000" fill="none" stroke="#00ff7f" stroke-width="1"/><rect x="515.251" y="190.348" width="59.000" height="46.000" fill="none" stroke="#00ff7f" stroke-width="1"/><rect x="674.856" y="180.267" width="40.000" height="65.000" fill="none" stroke="#00ff7f" stroke-width="1"/><rect x="540.376" y="239.736" width="56.000" height="52.000" fill="none" stroke="#00ff7f" stroke-width="1"/><rect x="389.741" y="249.767" width="39.000" height="51.000" fill="none" stroke="#00ff7f" stroke-width="1"/><rect x="254.945" y="274.966" width="49.000" height="46.000" fill="none" stroke="#00ff7f" stroke-width="1"/><rect x="519.706" y="280.359" width="41.000" height="53.000" fill="none" stroke="#00ff7f" stroke-width="1"/><rect x="189.779" y="280.112" width="61.000" height="38.000" fill="none" stroke="#00ff7f" stroke-width="1"/><rect x="599.567" y="275.003" width="64.000" height="39.000" fill="none" stroke="#00ff7f" stroke-width="1"/><rect x="405.424" y="304.941" width="54.000" height="44.000" fill="none" stroke="#00ff7f" stroke-width="1"/><rect x="359.582" y="294.932" width="44.000" height="57.000" fill="none" stroke="#00ff7f" stroke-width="1"/><rect x="459.987" y="310.411" width="46.000" height="43.000" fill="none" stroke="#00ff7f" stroke-width="1"/><rect x="565.093" y="294.902" width="33.000" height="74.000" fill="none" stroke="#00ff7f" stroke-width="1"/><rect x="645.132" y="340.484" width="48.000" height="45.000" fill="none" stroke="#00ff7f" stroke-width="1"/><rect x="494.654" y="334.870" width="53.000" height="33.000" fill="none" stroke="#00ff7f" stroke-width="1"/><rect x="694.621" y="344.803" width="36.000" height="56.000" fill="none" stroke="#00ff7f" stroke-width="1"/><rect x="359.586" y="355.274" width="25.000" height="65.000" fill="none" stroke="#00ff7f" stroke-width="1"/><rect x="590.060" y="360.126" width="33.000" height="59.000" fill="none" stroke="#00ff7f" stroke-width="1"/><rect x="314.818" y="364.823" width="36.000" height="44.000" fill="none" stroke="#00ff7f" stroke-width="1"/><rect x="550.383" y="360.317" width="33.000" height="52.000" fill="none" stroke="#00ff7f" stroke-width="1"/><rect x="625.368" y="379.667" width="46.000" height="39.000" fill="none" stroke="#00ff7f" stroke-width="1"/><rect x="499.514" y="370.453" width="46.000" height="53.000" fill="none" stroke="#00ff7f" stroke-width="1"/><rect x="284.500" y="385.005" width="31.000" height="52.000" fill="none" stroke="#00ff7f" stroke-width="1"/><rect x="695.267" y="405.281" width="39.000" height="41.000" fill="none" stroke="#00ff7f" stroke-width="1"/><rect x="575.480" y="410.189" width="34.000" height="39.000" fill="none" stroke="#00ff7f" stroke-width="1"/><rect x="415.480" y="389.952" width="26.000" height="60.000" fill="none" stroke="#00ff7f" stroke-width="1"/><rect x="380.088" y="404.965" width="32.000" height="44.000" fill="none" stroke="#00ff7f" stroke-width="1"/><rect x="190.439" y="415.177" width="43.000" height="26.000" fill="none" stroke="#00ff7f" stroke-width="1"/><rect x="464.568" y="405.457" width="36.000" height="41.000" fill="none" stroke="#00ff7f" stroke-width="1"/><rect x="609.912" y="419.826" width="39.000" height="37.000" fill="none" stroke="#00ff7f" stroke-width="1"/><rect x="445.354" y="445.335" width="35.000" height="31.000" fill="none" stroke="#00ff7f" stroke-width="1"/><rect x="505.052" y="424.614" width="28.000" height="36.000" fill="none" stroke="#00ff7f" stroke-width="1"/><rect x="355.165" y="434.980" width="32.000" height="37.000" fill="none" stroke="#00ff7f" stroke-width="1"/><rect x="675.267" y="379.800" width="18.000" height="82.000" fill="none" stroke="#00ff7f" stroke-width="1"/><rect x="649.798" y="420.369" width="25.000" height="49.000" fill="none" stroke="#00ff7f" stroke-width="1"/><rect x="535.500" y="404.677" width="17.000" height="68.000" fill="none" stroke="#00ff7f" stroke-width="1"/></g><g id="polys"><path d="M 605.404 159.256 L 607.519 162.269 L 617.854 159.660 L 630.337 192.135 L 673.188 197.923 L 674.968 194.890 L 650.100 161.733 L 630.539 145.071 L 612.822 148.273 Z" fill="none" stroke="#ff3b30" stroke-width="1"/><text x="607.404" y="171.256" fill="#ff3b30" font-size="10">18</text><path d="M 639.756 223.553 L 640.017 220.198 L 586.189 190.312 L 580.059 236.472 L 604.516 236.472 Z" fill="none" stroke="#ff3b30" stroke-width="1"/><text x="641.756" y="235.553" fill="#ff3b30" font-size="10">93</text><path d="M 521.630 199.712 L 527.417 211.421 L 515.251 225.165 L 545.867 232.658 L 574.081 235.956 L 558.546 195.540 L 555.862 196.218 L 555.966 192.896 L 556.075 192.734 L 553.378 190.348 Z" fill="none" stroke="#ff3b30" stroke-width="1"/><text x="523.630" y="211.712" fill="#ff3b30" font-size="10">86</text><path d="M 714.399 219.032 L 678.333 180.267 L 674.856 181.745 L 677.420 229.095 L 679.555 232.647 L 714.399 244.953 Z" fill="none" stroke="#ff3b30" stroke-width="1"/><text x="716.399" y="231.032" fill="#ff3b30" font-size="10">107</text><path d="M 556.899 254.299 L 540.376 267.193 L 577.128 291.655 L 595.564 264.121 L 571.179 239.736 Z" fill="none" stroke="#ff3b30" stroke-width="1"/><text x="558.899" y="266.299" fill="#ff3b30" font-size="10">55</text><path d="M 424.355 262.163 L 408.489 249.767 L 393.016 280.800 L 389.741 300.196 L 428.103 299.587 L 427.085 289.142 Z" fill="none" stroke="#ff3b30" stroke-width="1"/><text x="426.355" y="274.163" fill="#ff3b30" font-size="10">2</text><path d="M 296.922 297.427 L 288.189 291.643 L 257.651 274.966 L 254.945 277.020 L 263.613 314.505 L 283.612 320.315 L 285.336 320.315 L 303.407 320.315 Z" fill="none" stroke="#ff3b30" stroke-width="1"/><text x="298.922" y="309.427" fill="#ff3b30" font-size="10">99</text><path d="M 548.676 333.132 L 560.588 305.922 L 535.026 280.359 L 528.559 303.182 L 519.706 329.746 Z" fill="none" stroke="#ff3b30" stroke-width="1"/><text x="550.676" y="345.132" fill="#ff3b30" font-size="10">39</text><path d="M 192.322 280.112 L 189.779 281.752 L 191.834 317.881 L 249.683 314.853 L 250.609 310.607 Z" fill="none" stroke="#ff3b30" stroke-width="1"/><text x="194.322" y="292.112" fill="#ff3b30" font-size="10">111</text><path d="M 662.656 309.938 L 662.928 306.468 L 602.788 275.003 L 599.567 307.992 L 651.877 313.578 Z" fill="none" stroke="#ff3b30" stroke-width="1"/><text x="664.656" y="321.938" fill="#ff3b30" font-size="10">98</text><path d="M 405.424 322.098 L 434.416 348.776 L 458.619 321.504 L 445.420 304.941 Z" fill="none" stroke="#ff3b30" stroke-width="1"/><text x="407.424" y="334.098" fill="#ff3b30" font-size="10">94</text><path d="M 381.126 319.494 L 378.444 295.661 L 374.323 294.932 L 359.582 324.529 L 374.359 351.080 L 393.325 344.798 L 402.647 325.385 Z" fill="none" stroke="#ff3b30" stroke-width="1"/><text x="383.126" y="331.494" fill="#ff3b30" font-size="10">108</text><path d="M 505.281 319.317 L 504.534 316.111 L 478.714 310.411 L 459.987 310.411 L 459.987 351.762 L 462.947 353.185 Z" fill="none" stroke="#ff3b30" stroke-width="1"/><text x="507.281" y="331.317" fill="#ff3b30" font-size="10">115</text><path d="M 565.093 337.656 L 572.852 336.900 L 573.343 367.827 L 577.674 368.881 L 597.864 331.320 L 587.286 320.052 L 582.559 313.934 L 575.618 294.902 L 571.100 295.375 Z" fill="none" stroke="#ff3b30" stroke-width="1"/><text x="567.093" y="349.656" fill="#ff3b30" font-size="10">67</text><path d="M 693.073 365.591 L 655.352 340.484 L 645.132 357.472 L 652.047 369.738 L 653.807 385.223 Z" fill="none" stroke="#ff3b30" stroke-width="1"/><text x="695.073" y="377.591" fill="#ff3b30" font-size="10">11</text><path d="M 503.191 366.760 L 545.709 367.220 L 547.128 364.111 L 531.126 346.052 L 517.411 337.909 L 496.486 334.870 L 494.654 337.611 L 500.493 347.425 L 503.191 354.170 Z" fill="none" stroke="#ff3b30" stroke-width="1"/><text x="505.191" y="378.760" fill="#ff3b30" font-size="10">68</text><path d="M 700.066 362.684 L 700.066 363.554 L 694.621 382.297 L 705.428 400.403 L 730.221 363.152 L 702.816 344.803 L 700.066 346.271 Z" fill="none" stroke="#ff3b30" stroke-width="1"/><text x="702.066" y="374.684" fill="#ff3b30" font-size="10">46</text><path d="M 359.586 376.331 L 362.445 418.663 L 366.930 419.463 L 376.118 398.927 L 384.260 377.632 L 380.742 356.171 L 377.521 355.274 Z" fill="none" stroke="#ff3b30" stroke-width="1"/><text x="361.586" y="388.331" fill="#ff3b30" font-size="10">12</text><path d="M 603.064 360.126 L 598.787 360.396 L 590.060 401.084 L 619.948 418.993 L 622.880 416.602 Z" fill="none" stroke="#ff3b30" stroke-width="1"/><text x="605.064" y="372.126" fill="#ff3b30" font-size="10">33</text><path d="M 335.240 376.448 L 324.696 368.565 L 317.356 364.823 L 314.818 366.537 L 317.691 398.946 L 345.026 408.058 L 347.319 405.624 L 342.286 393.061 L 349.367 391.565 L 350.131 388.342 Z" fill="none" stroke="#ff3b30" stroke-width="1"/><text x="337.240" y="388.448" fill="#ff3b30" font-size="10">6</text><path d="M 553.122 412.284 L 583.024 402.001 L 554.448 360.317 L 550.383 361.698 Z" fill="none" stroke="#ff3b30" stroke-width="1"/><text x="555.122" y="424.284" fill="#ff3b30" font-size="10">13</text><path d="M 669.430 417.699 L 671.171 413.938 L 645.840 391.459 L 628.211 379.667 L 625.368 381.376 L 628.454 411.878 Z" fill="none" stroke="#ff3b30" stroke-width="1"/><text x="671.430" y="429.699" fill="#ff3b30" font-size="10">19</text><path d="M 544.767 373.714 L 540.880 370.453 L 499.514 403.546 L 501.170 421.506 L 503.979 422.736 L 528.078 404.274 Z" fill="none" stroke="#ff3b30" stroke-width="1"/><text x="546.767" y="385.714" fill="#ff3b30" font-size="10">17</text><path d="M 288.380 385.005 L 284.500 386.219 L 284.500 407.340 L 293.358 436.906 L 307.172 429.864 L 314.508 422.670 Z" fill="none" stroke="#ff3b30" stroke-width="1"/><text x="290.380" y="397.005" fill="#ff3b30" font-size="10">41</text><path d="M 733.501 417.955 L 697.617 405.281 L 695.267 407.791 L 711.609 445.885 L 714.692 446.167 L 723.680 432.665 Z" fill="none" stroke="#ff3b30" stroke-width="1"/><text x="735.501" y="429.955" fill="#ff3b30" font-size="10">37</text><path d="M 578.289 410.189 L 575.480 411.666 L 575.679 435.005 L 592.113 448.611 L 608.820 431.573 Z" fill="none" stroke="#ff3b30" stroke-width="1"/><text x="580.289" y="422.189" fill="#ff3b30" font-size="10">27</text><path d="M 418.518 448.982 L 440.781 447.756 L 420.498 389.952 L 415.480 390.943 Z" fill="none" stroke="#ff3b30" stroke-width="1"/><text x="420.518" y="460.982" fill="#ff3b30" font-size="10">90</text><path d="M 405.225 405.795 L 401.716 404.965 L 380.088 435.846 L 408.811 448.420 L 411.244 446.561 Z" fill="none" stroke="#ff3b30" stroke-width="1"/><text x="407.225" y="417.795" fill="#ff3b30" font-size="10">56</text><path d="M 211.681 415.177 L 190.439 415.177 L 190.439 425.311 L 205.208 431.196 L 233.095 440.491 L 229.454 418.062 Z" fill="none" stroke="#ff3b30" stroke-width="1"/><text x="213.681" y="427.177" fill="#ff3b30" font-size="10">103</text><path d="M 464.568 437.227 L 497.882 446.324 L 500.068 443.060 L 471.046 405.457 L 467.573 406.455 Z" fill="none" stroke="#ff3b30" stroke-width="1"/><text x="466.568" y="449.227" fill="#ff3b30" font-size="10">47</text><path d="M 610.055 437.418 L 609.912 440.459 L 635.449 456.404 L 647.931 422.228 L 645.240 419.826 Z" fill="none" stroke="#ff3b30" stroke-width="1"/><text x="612.055" y="449.418" fill="#ff3b30" font-size="10">96</text><path d="M 451.692 472.196 L 464.662 475.470 L 479.699 468.024 L 457.010 445.335 L 445.354 453.056 Z" fill="none" stroke="#ff3b30" stroke-width="1"/><text x="453.692" y="484.196" fill="#ff3b30" font-size="10">71</text><path d="M 529.111 442.442 L 508.273 424.614 L 505.052 426.350 L 507.965 449.429 L 507.965 456.936 L 532.614 460.517 Z" fill="none" stroke="#ff3b30" stroke-width="1"/><text x="531.111" y="454.442" fill="#ff3b30" font-size="10">20</text><path d="M 360.720 434.980 L 357.560 436.166 L 355.165 471.400 L 386.399 460.659 Z" fill="none" stroke="#ff3b30" stroke-width="1"/><text x="362.720" y="446.980" fill="#ff3b30" font-size="10">21</text><path d="M 681.200 416.100 L 681.200 423.800 L 681.200 431.127 L 678.600 441.427 L 678.600 449.001 L 675.267 458.743 L 679.292 461.016 L 686.910 453.544 L 689.680 442.245 L 692.300 395.684 L 692.300 379.800 L 681.200 379.800 L 681.200 395.586 L 681.200 408.400 Z" fill="none" stroke="#ff3b30" stroke-width="1"/><text x="683.200" y="428.100" fill="#ff3b30" font-size="10">61</text><path d="M 671.945 468.627 L 674.763 466.348 L 660.297 420.369 L 655.657 420.696 L 649.798 456.077 Z" fill="none" stroke="#ff3b30" stroke-width="1"/><text x="673.945" y="480.627" fill="#ff3b30" font-size="10">52</text><path d="M 535.500 436.100 L 535.500 444.379 L 546.488 471.795 L 551.884 470.550 L 549.168 433.055 L 540.666 404.677 L 535.500 405.434 Z" fill="none" stroke="#ff3b30" stroke-width="1"/><text x="537.500" y="448.100" fill="#ff3b30" font-size="10">97</text></g></svg>