<svg xmlns="http://www.w3.org/2000/svg" width="737" height="539" viewBox="0 0 737 539"><rect x="0" y="0" width="100%" height="100%" fill="none" stroke="#ffffff" stroke-width="1"/><g id="bboxes"><rect x="379.692" y="79.887" width="43.000" height="100.000" fill="none" stroke="#00ff7f" stroke-width="1"/><rect x="754.075" y="108.242" width="27.000" height="95.000" fill="none" stroke="#00ff7f" stroke-width="1"/><rect x="332.457" y="395.849" width="38.000" height="36.000" fill="none" stroke="#00ff7f" stroke-width="1"/><rect x="455.800" y="371.000" width="63.000" height="43.000" fill="none" stroke="#00ff7f" stroke-width="1"/><rect x="722.128" y="283.065" width="59.000" height="31.000" fill="none" stroke="#00ff7f" stroke-width="1"/><rect x="626.534" y="305.474" width="52.000" height="43.000" fill="none" stroke="#00ff7f" stroke-width="1"/><rect x="566.163" y="393.415" width="37.000" height="34.000" fill="none" stroke="#00ff7f" stroke-width="1"/><rect x="410.384" y="406.513" width="21.000" height="45.000" fill="none" stroke="#00ff7f" stroke-width="1"/><rect x="440.665" y="429.213" width="17.000" height="46.000" fill="none" stroke="#00ff7f" stroke-width="1"/><rect x="335.700" y="429.700" width="65.000" height="29.000" fill="none" stroke="#00ff7f" stroke-width="1"/><rect x="330.056" y="468.235" width="47.000" height="34.000" fill="none" stroke="#00ff7f" stroke-width="1"/><rect x="598.064" y="275.799" width="25.000" height="65.000" fill="none" stroke="#00ff7f" stroke-width="1"/><rect x="432.000" y="391.100" width="35.000" height="31.000" fill="none" stroke="#00ff7f" stroke-width="1"/><rect x="790.180" y="385.986" width="18.000" height="57.000" fill="none" stroke="#00ff7f" stroke-width="1"/><rect x="577.900" y="446.600" width="40.000" height="21.000" fill="none" stroke="#00ff7f" stroke-width="1"/><rect x="706.900" y="361.900" width="35.000" height="28.000" fill="none" stroke="#00ff7f" stroke-width="1"/><rect x="382.133" y="492.500" width="35.000" height="24.000" fill="none" stroke="#00ff7f" stroke-width="1"/><rect x="479.333" y="422.267" width="20.000" height="41.000" fill="none" stroke="#00ff7f" stroke-width="1"/><rect x="493.700" y="403.400" width="37.000" height="20.000" fill="none" stroke="#00ff7f" stroke-width="1"/><rect x="738.300" y="454.200" width="15.000" height="41.000" fill="none" stroke="#00ff7f" stroke-width="1"/><rect x="536.231" y="348.425" width="36.000" height="23.000" fill="none" stroke="#00ff7f" stroke-width="1"/><rect x="650.900" y="384.900" width="40.000" height="18.000" fill="none" stroke="#00ff7f" stroke-width="1"/><rect x="440.600" y="517.500" width="34.000" height="24.000" fill="none" stroke="#00ff7f" stroke-width="1"/><rect x="463.900" y="542.100" width="19.000" height="35.000" fill="none" stroke="#00ff7f" stroke-width="1"/><rect x="410.900" y="430.900" width="21.000" height="30.000" fill="none" stroke="#00ff7f" stroke-width="1"/><rect x="739.774" y="324.240" width="16.000" height="30.000" fill="none" stroke="#00ff7f" stroke-width="1"/><rect x="360.600" y="535.600" width="27.000" height="22.000" fill="none" stroke="#00ff7f" stroke-width="1"/></g><g id="polys"><path d="M 379.692 120.787 L 379.692 129.687 L 379.692 138.587 L 390.592 179.187 L 422.592 129.687 L 390.592 79.887 Z" fill="none" stroke="#ff3b30" stroke-width="1"/><text x="381.692" y="132.787" fill="#ff3b30" font-size="10">102</text><path d="M 780.775 155.742 L 780.775 146.842 L 763.275 108.242 L 754.075 155.542 L 763.275 203.042 L 780.775 164.642 Z" fill="none" stroke="#ff3b30" stroke-width="1"/><text x="782.775" y="167.742" fill="#ff3b30" font-size="10">45</text><path d="M 370.357 431.049 L 370.257 414.049 L 351.157 395.849 L 343.857 403.949 L 342.357 413.249 L 339.557 419.749 L 332.457 424.949 L 353.857 431.049 Z" fill="none" stroke="#ff3b30" stroke-width="1"/><text x="372.357" y="443.049" fill="#ff3b30" font-size="10">75</text><path d="M 474.800 401.900 L 483.900 413.100 L 518.100 401.900 L 479.000 401.900 L 479.700 371.200 L 468.000 371.000 L 455.800 401.900 L 467.900 401.900 Z" fill="none" stroke="#ff3b30" stroke-width="1"/><text x="476.800" y="413.900" fill="#ff3b30" font-size="10">85</text><path d="M 722.128 313.965 L 780.228 313.765 L 780.928 283.065 L 743.228 307.765 Z" fill="none" stroke="#ff3b30" stroke-width="1"/><text x="724.128" y="325.965" fill="#ff3b30" font-size="10">108</text><path d="M 677.934 341.374 L 650.534 338.274 L 660.534 336.674 L 658.134 329.774 L 650.534 330.874 L 656.034 323.674 L 650.534 308.774 L 647.634 305.474 L 633.634 312.074 L 634.534 314.274 L 636.434 317.874 L 640.134 321.274 L 636.434 326.274 L 640.734 336.674 L 626.534 341.374 L 636.534 348.174 L 650.534 341.474 Z" fill="none" stroke="#ff3b30" stroke-width="1"/><text x="679.934" y="353.374" fill="#ff3b30" font-size="10">91</text><path d="M 583.663 393.415 L 579.863 393.415 L 566.163 413.315 L 579.863 427.315 L 603.063 427.315 Z" fill="none" stroke="#ff3b30" stroke-width="1"/><text x="585.663" y="405.415" fill="#ff3b30" font-size="10">7</text><path d="M 430.584 423.313 L 429.884 415.413 L 427.684 406.513 L 410.384 410.313 L 412.084 417.013 L 412.784 423.313 L 412.084 430.013 L 410.384 436.713 L 421.684 450.713 L 427.684 440.313 L 429.884 431.613 Z" fill="none" stroke="#ff3b30" stroke-width="1"/><text x="432.584" y="435.313" fill="#ff3b30" font-size="10">68</text><path d="M 456.865 443.713 L 440.665 429.213 L 440.665 447.813 L 440.765 475.213 L 456.865 475.213 Z" fill="none" stroke="#ff3b30" stroke-width="1"/><text x="458.865" y="455.713" fill="#ff3b30" font-size="10">46</text><path d="M 369.000 458.500 L 400.300 438.700 L 400.300 429.700 L 335.700 458.400 Z" fill="none" stroke="#ff3b30" stroke-width="1"/><text x="371.000" y="470.500" fill="#ff3b30" font-size="10">95</text><path d="M 330.056 502.135 L 356.056 502.135 L 376.556 502.135 L 357.956 490.135 L 356.256 497.335 L 353.456 468.235 L 343.756 482.235 Z" fill="none" stroke="#ff3b30" stroke-width="1"/><text x="332.056" y="514.135" fill="#ff3b30" font-size="10">4</text><path d="M 606.464 309.099 L 622.564 309.099 L 615.864 295.099 L 606.464 275.799 L 598.064 309.099 L 606.464 340.599 Z" fill="none" stroke="#ff3b30" stroke-width="1"/><text x="608.464" y="321.099" fill="#ff3b30" font-size="10">30</text><path d="M 432.000 407.100 L 448.100 421.400 L 466.500 397.000 L 448.100 391.100 Z" fill="none" stroke="#ff3b30" stroke-width="1"/><text x="434.000" y="419.100" fill="#ff3b30" font-size="10">12</text><path d="M 798.580 385.986 L 790.180 410.886 L 798.580 442.386 L 807.780 395.086 Z" fill="none" stroke="#ff3b30" stroke-width="1"/><text x="800.580" y="397.986" fill="#ff3b30" font-size="10">65</text><path d="M 583.200 450.900 L 577.900 457.800 L 597.200 466.800 L 617.300 458.000 L 612.100 450.900 L 605.600 448.100 L 596.300 446.600 L 589.900 447.400 Z" fill="none" stroke="#ff3b30" stroke-width="1"/><text x="585.200" y="462.900" fill="#ff3b30" font-size="10">69</text><path d="M 706.900 373.100 L 725.000 389.100 L 741.100 373.100 L 741.100 361.900 Z" fill="none" stroke="#ff3b30" stroke-width="1"/><text x="708.900" y="385.100" fill="#ff3b30" font-size="10">87</text><path d="M 416.333 515.700 L 392.433 492.500 L 382.133 515.700 Z" fill="none" stroke="#ff3b30" stroke-width="1"/><text x="418.333" y="527.700" fill="#ff3b30" font-size="10">117</text><path d="M 498.833 442.267 L 479.333 422.267 L 479.333 462.667 Z" fill="none" stroke="#ff3b30" stroke-width="1"/><text x="500.833" y="454.267" fill="#ff3b30" font-size="10">37</text><path d="M 517.000 403.400 L 493.700 422.900 L 530.100 422.900 Z" fill="none" stroke="#ff3b30" stroke-width="1"/><text x="519.000" y="415.400" fill="#ff3b30" font-size="10">56</text><path d="M 744.400 470.600 L 738.300 492.000 L 753.300 494.300 L 753.300 454.200 Z" fill="none" stroke="#ff3b30" stroke-width="1"/><text x="746.400" y="482.600" fill="#ff3b30" font-size="10">47</text><path d="M 558.531 370.525 L 571.531 348.425 L 536.231 348.425 L 549.531 357.325 Z" fill="none" stroke="#ff3b30" stroke-width="1"/><text x="560.531" y="382.525" fill="#ff3b30" font-size="10">24</text><path d="M 672.100 384.900 L 650.900 402.100 L 690.400 402.200 Z" fill="none" stroke="#ff3b30" stroke-width="1"/><text x="674.100" y="396.900" fill="#ff3b30" font-size="10">96</text><path d="M 445.400 520.300 L 452.600 522.000 L 440.600 540.600 L 462.500 531.600 L 474.500 517.500 Z" fill="none" stroke="#ff3b30" stroke-width="1"/><text x="447.400" y="532.300" fill="#ff3b30" font-size="10">51</text><path d="M 463.900 542.100 L 464.000 576.600 L 482.000 558.100 Z" fill="none" stroke="#ff3b30" stroke-width="1"/><text x="465.900" y="554.100" fill="#ff3b30" font-size="10">71</text><path d="M 410.900 430.900 L 410.900 460.900 L 431.500 444.300 Z" fill="none" stroke="#ff3b30" stroke-width="1"/><text x="412.900" y="442.900" fill="#ff3b30" font-size="10">20</text><path d="M 755.674 353.340 L 755.674 332.740 L 755.674 324.240 L 739.774 332.740 L 742.574 344.540 Z" fill="none" stroke="#ff3b30" stroke-width="1"/><text x="757.674" y="365.340" fill="#ff3b30" font-size="10">79</text><path d="M 360.600 535.600 L 379.000 556.900 L 386.800 536.100 Z" fill="none" stroke="#ff3b30" stroke-width="1"/><text x="362.600" y="547.600" fill="#ff3b30" font-size="10">28</text></g></svg>