<svg xmlns="http://www.w3.org/2000/svg" width="737" height="539" viewBox="0 0 737 539"><path d="M 144.0 354.0 L 146.0 336.0 L 146.0 344.0 Z" fill="#ff2d55" stroke="none"/><path d="M 141.0 369.0 L 144.0 354.0 L 144.0 362.0 Z" fill="#ff2d55" stroke="none"/><path d="M 621.0 280.0 L 617.0 278.0 L 611.0 274.0 Z" fill="#ff2d55" stroke="none"/><path d="M 585.0 200.0 L 582.0 200.0 L 577.0 195.0 Z" fill="#ff2d55" stroke="none"/><path d="M 600.0 197.0 L 595.0 195.0 L 590.0 192.0 Z" fill="#ff2d55" stroke="none"/><path d="M 538.0 236.0 L 549.0 238.0 L 562.0 246.0 Z" fill="#ff2d55" stroke="none"/><path d="M 265.0 226.0 L 267.0 226.0 L 285.0 231.0 Z" fill="#ff2d55" stroke="none"/><path d="M 480.0 177.0 L 460.0 141.0 L 462.0 123.0 Z" fill="#ff2d55" stroke="none"/><path d="M 485.0 395.0 L 459.0 362.0 L 480.0 387.0 Z" fill="#ff2d55" stroke="none"/><path d="M 580.0 179.0 L 598.0 192.0 L 600.0 197.0 Z" fill="#ff2d55" stroke="none"/><path d="M 600.0 197.0 L 598.0 192.0 L 600.0 195.0 Z" fill="#ff2d55" stroke="none"/></svg>