<?xml version="1.0" encoding="UTF-8"?>
<svg id="Layer_1" xmlns="http://www.w3.org/2000/svg" version="1.1" viewBox="0 0 788.4 580.3">
  <!-- Generator: Adobe Illustrator 30.0.0, SVG Export Plug-In . SVG Version: 2.1.1 Build 123)  -->
  <defs>
    <style>
      .st0 {
        font-size: 2.1px;
      }

      .st0, .st1 {
        font-family: DejaVuSans, 'DejaVu Sans';
      }

      .st0, .st1, .st2 {
        isolation: isolate;
      }

      .st1 {
        font-size: 2px;
      }

      .st3 {
        fill: none;
        stroke: #231f20;
        stroke-miterlimit: 10;
      }
    </style>
  </defs>
  <g id="Layer_2">
    <path class="st3" d="M339.8,118.3v-.8c-2.1-1.3-3.5-3.6-5-5.5-1.3-1.7-3.2-3.1-4.5-5h8.1c3.3-2.7,7.1-4.5,10.8-6.8,4.1-2.6,8.3-5.9,12.3-8.7,5.9-4,12-7.2,17.8-11.3,3.6-2.5,7.2-4.9,11-7.3,1.6-1,2.9-2.9,5.2-3.1,1.3,1.3,2.9,1.9,4.5,2.9,3.2,2.1,6.3,4.4,9.7,6.6,7.1,4.5,13.6,9.9,21,14.2,1.4.8,2.6,2.3,3.9,3.1,3.9,2.5,7.7,4.8,11.5,7.3,1.3.9,2.8,2.6,4.2,3.1h9.7v.3c-1.8,1.3-3.1,3.5-4.5,5.2-.6.8-1.8,1.1-2.4,1.8v.8l-2.9,3.1h-110.7.3Z"/>
    <path class="st3" d="M400.9,71c38.5,11.3,77,22.6,115.5,33.8v.5h-65.3c-2.2-2.7-8.7-5.8-11.8-7.9-8.3-5.6-16.5-11.9-24.9-17.3-3.1-2-5.9-4.1-8.9-6-1.5-.9-3.8-1.5-4.5-3.1h-.1Z"/>
    <path class="st3" d="M388.3,71.3q.5,0,.8.3c-2.5,1.4-4.7,3.5-7.1,5-10,6.4-19.6,12.8-29.7,19.2-2.3,1.5-4.6,3.5-6.8,5-1.3.8-2.7,1.2-3.9,2.1-1,.7-2.3,2.2-3.4,2.6h-64.6v-.5c3.7-.7,7.7-2.2,11-3.4l3.1-.5c5.9-1.9,12.6-3.7,18.4-5.8,5.1-1.9,9.8-2.2,15-3.9,10.4-3.4,21.6-6.3,32-9.7,8.9-2.9,18.1-5,26.8-7.9,2.7-.9,6.4-.8,8.4-2.4h0Z"/>
    <path class="st3" d="M303.3,107v32.8c-4.8,0-8.5,1.2-13.1,1.3-.8-2.7-3.1-4.6-4.5-6.8-3.6-5.8-6.8-11.7-10.8-17.3-2.1-3-5.3-6.4-6.6-10h35Z"/>
    <path class="st3" d="M304.9,107h23.4c.6,1.6,2.3,2.1,3.1,3.4,1.5,2.3,3.3,4.1,5,6.3.6.7,2,1.5,2.4,2.4v20.5c-3.2,2.2-5.5,5.8-8.7,8.1l-2.1,2.4h-23.1v-43h0Z"/>
    <path class="st3" d="M485.7,107v43h-23.1c-1.6-2.4-4.3-4.3-6.3-6.3l-1.8-2.4c-.8-.6-2.5-1.8-2.9-2.6v-19.4h.3c1-2.8,6.1-6.3,7.9-8.7v-.8l2.6-2.9h23.4-.1Z"/>
    <path class="st3" d="M487.2,107h34.4v.3c-2.4,2.4-3.7,6-5.5,8.9-3.4,5.3-7.2,10.7-10.5,16-1.5,2.4-3.9,8.7-7.3,8.7-1.6-1-8.6-1.3-11-1.3v-32.5h-.1Z"/>
    <path class="st3" d="M340.3,119.8h109.7v18.6h-109.7v-18.6Z"/>
    <path class="st3" d="M340.3,140h110.5c2.3,3.9,6.9,6.2,9.4,10h-129.9v-.3h.3c1.4-2,3.8-3.5,5.5-5.2l1.6-2.1c1-.8,1.9-1.3,2.6-2.4Z"/>
    <path class="st3" d="M394.9,151.6v8.7h-101.3c-.8-3.1-3-5.5-3.9-8.7h105.2Z"/>
    <path class="st3" d="M396.4,151.6h104.2v.5c-1.3,1.4-3.2,7.5-4.5,8.1h-99.7v-8.7h0Z"/>
    <path class="st3" d="M294.6,162.1h100v.3h-.5c-3.1,2.9-8.6,4.8-12.3,7.1-4.7,2.9-9.6,5.5-14.4,8.4-.7.4-1.7,1.6-2.4,1.8h-61.7c-.4-1.5-1.5-2.7-2.1-3.9-1.4-2.8-2.4-5.2-3.7-8.1-.8-1.8-2.3-3.4-2.9-5.5h0Z"/>
    <path class="st3" d="M397.8,162.1h34.6c1.2,1.8,3,3.4,4.7,4.7.8.6.9,1.6,1.6,2.4.3.3,1,.5,1.3.8,1.6,1.6,3,3.4,4.5,5.2,1.2,1.6,3.1,2.1,3.9,4.2-1.5,1.8-1.9,4.5-2.9,6.8-2.4,5.6-5.5,11.5-7.9,17.1-.9,2.2-1.2,4.6-2.6,6.3-.7.7-1.7,1.1-2.6,1.6v-.5c-1.7-2.4-2.3-7.8-3.4-10.8l-.3-1.6c-.8-1.1-3.1-2.2-4.2-3.1-2.6-2.3-5-4.7-7.9-6.8-1.7-1.3-3.2-4-5.2-4.7l-12.9-1.6c-1.4-.3-7.8-2-9.4-1.6s-3.6,1.9-5,2.6c-4.6,2.3-9.2,3.9-13.6,6-.7-2.8-3.2-5.9-4.7-8.4,2-.6,3.6-2.1,5.2-3.1,5.2-3.2,10.6-6,15.7-9.2,3-1.9,8.8-3.9,11-6.3h0Z"/>
    <path class="st3" d="M462.3,162.1v31.8c-4.1,1.9-8.1,4.7-11.8,7.1-1.7,1.1-3.6,1.5-5.2,2.6-2.2,1.5-4.8,3.7-7.6,4.5v-.3c1.7-1.9,2.8-6.6,3.9-9.2,2.2-5.2,4.5-10.4,6.8-15.7.6-1.4,1.6-2.5,1.8-4.5-3.1-2-6.2-6-8.4-8.9-2-2.7-5.2-4.5-7.1-7.3h27.6Z"/>
    <path class="st3" d="M463.9,162.1h31.2v.5c-1.7,1.2-2.3,3.7-3.4,5.5-2,3.1-5.4,6.6-6.6,10.2v36.7c-5.3,3.4-9.6,8.5-14.7,12.3-2.6,1.9-4.4,4.8-7.3,6.6v-7.1c.7-1.1.3-4.2.3-5.8l.3-12.9c0-14.9.3-30.8.3-46.2v.2Z"/>
    <path class="st3" d="M303.5,181.2h22.8c0,5.9-.9,13.5.3,18.9.5,2.4-.2,5.6.3,7.6.5,2.5-.2,5.7.3,7.9v4.5c0,3.5-.1,8,.5,11.3h-.5c-1.4-1.9-3.9-3.1-5.8-4.5-4.2-3-7.9-6.9-12.1-10-.8-.6-5.5-3.8-5.8-4.2v-31.5h0Z"/>
    <path class="st3" d="M328,181.2h36.2c1,2.2,3.1,6.5,4.7,8.1-.7,2-2.6,3.8-3.7,5.5-2.2,3.5-4.1,6.9-6.3,10.5-.6,1-2,2.2-2.4,3.4v22.8c.5,1.5,2.1,2.9,2.9,4.2.9,1.4,1.3,3.1,2.4,4.5,1.8,2.3,3.9,4.9,5.2,7.6h-.5c-3-2-8.9-2-12.6-3.4-1.7-.7-3.5-2.1-5.2-2.9-4.8-2.1-9.1-3.9-13.9-6-1.8-.8-3.3-2.3-5.5-2.6,0-17.1-1.3-33.8-1.3-51.7h0Z"/>
    <path class="st3" d="M394.6,182.8v15.5c-5-.2-7.3,2.1-11,3.7-1.1.5-2.9.5-3.7,1.3-.5.6-1.8,3.6-2.4,4.5-2.5,4-3.9,3.8-3.9,10.8v8.7c.3.8,1.4,1.4,1.8,2.1,1.2,1.8,2.3,3.6,3.4,5.2.4.6.3,1.5.8,2.1.9,1,2.6,1.2,3.9,1.8,3.4,1.7,5.8,3.7,11,3.7v15.2h-.3v.3l-5.2.5c-4.4-1.3-8.9-4.5-13.1-6.3-1.9-.8-4.8-1.3-6.3-2.6-.6-.5-.6-1.4-1-2.1-1.4-2.2-2.7-4.5-4.2-6.8-1.6-2.4-5.8-7.1-6.6-9.7,0-7.2.2-14.3.3-21.5.4-.8,1.6-1.8,2.1-2.6,2-3,3.9-6,5.8-8.9,1.1-1.6,2.3-5.2,3.7-6.3,1.9-1.6,5-2.1,7.3-3.1,3.9-1.7,7.9-4.5,12.1-5.8l5.5.5v-.2Z"/>
    <path class="st3" d="M396.2,257.1v-15.5c9.1,0,9.3-2.9,14.2-6.6,1.1-.8,3.1-1.7,3.7-2.9l1-4.7c.7-2.1,2.9-5.5,2.1-8.4-.3-1.2-1.2-3-1.6-4.2-.6-1.7-.9-6-1.8-7.1-1-1.2-2.7-2-3.9-2.9-1.4-1.1-3.8-4.3-5.2-5l-8.4-1.3v-15.5h.3c2.7,1.7,11,.8,14.4,2.1,1.4.5,2.5,2.5,3.7,3.4,3.1,2.3,5.9,4.9,8.7,7.6,1.2,1.2,3.4,1.9,4.2,3.4l1.3,5.5c1,3.1,1.9,6.4,2.9,9.7.5,1.7,2.2,3.9,1.6,6.3-.8,3.1-2.2,6.6-3.1,9.7-.9,2.9-1.5,5.5-2.4,8.1l-.3,1.8c-.6,1.1-2.4,1.8-3.4,2.6-2,1.8-3.8,3.6-6,5.2-2.4,1.8-5.1,6.5-8.9,6.6-1.3.8-10.6,1.8-12.9,1.8l-.2.3Z"/>
    <path class="st3" d="M461.5,235.6c-2.6.3-4.7,2.2-6.8,3.1-4.4,1.9-8.5,4-12.6,5.8-7,3.1-15.7,4.9-23.9,6.8v-.5c3.2-2,5.5-5.1,8.4-7.3.6-.4,1.7-.8,2.1-1.3l.3-1.8c.7-2,1.1-4,1.8-6.3,1.1-3.4,2-7,3.1-10.8.3-1,1.4-2.2,1-3.7-.5-2.1-1.6-4.5-2.1-6.8,3.4-1.6,6.6-3.9,9.7-5.8,4-2.4,8.1-4.1,12.1-6.6,2.3-1.4,4.8-3.6,7.6-4.5v8.1c-.8,1.3-.2,7.6-.3,9.7,0,7.1-.5,14.4-.5,21.8h0Z"/>
    <path class="st3" d="M394.6,199.9v40.4h-.5c-2.1,1.4-8.1-2.5-10-3.4l-2.9-1c-1.2-1.1-1.7-3.3-2.6-4.7s-2.9-3.2-3.4-4.7v-12.3c.7-2,3.5-4.9,4.7-6.8.5-.8.8-2.4,1.6-2.9.9-.5,1.7-.4,2.6-.8,2.3-1,5.2-3.1,7.6-3.9l2.9.3v-.2Z"/>
    <path class="st3" d="M396.2,200.4c2.3,0,6.5.2,8.1,1.3,1.7,1.2,3,3.5,4.7,4.7,1,.8,2.8,1.5,3.4,2.6.9,1.6.7,3.5,1.3,5.2.5,1.5,1.5,3.7,1.8,5.2.3,1.6-.9,3.6-1.3,4.7-.7,2.3-.7,5-1.8,7.1-.6,1.1-4.3,3.6-5.5,4.5-1.4,1-2,2.9-4.2,3.1-1.3.9-4.7,1-6.6,1v-39.6.2Z"/>
    <path class="st3" d="M327.2,285.7h-23.6v-70.8h.3c2.1,2.6,7.3,5.7,10.2,7.9,4.6,3.4,8.7,7.8,13.4,11,1.6,1.1,3.6,1.5,5.5,2.4,1.4.6,2.8,1.8,4.2,2.4,3.9,1.7,7.6,3.6,11.3,5.2,1.6.7,4,.8,4.5,2.6-1.2,1.5-1.3,3.8-2.1,5.8-1.6,3.9-3.5,8.4-5,12.3-.5,1.3-1.8,6.9-2.6,7.3h-15.7c-1,3.1-.3,10.1-.3,13.9h0Z"/>
    <path class="st3" d="M484.9,217.2c.6,1,.3,3.7.3,5.2v62.2h-.3c-1.5-1.4-3.5-1.8-5.2-2.9-3.6-2.2-7.5-4.4-11-6.6-1-.6-5.1-2.1-5.5-2.9v-36.2c1.6-.8,2.6-2.4,3.9-3.4,4-3,7.3-6.6,11-9.7,2.2-1.8,5.2-3.4,6.8-5.8h0Z"/>
    <path class="st3" d="M461.5,237.4v48.3h-55.6v-.3h.3c1.3-1.6,3.9-2,5.8-3.1,2.4-1.5,5.1-3.1,7.6-4.5,1.5-.8,3.8-1.3,4.7-2.6,1.5-2.1,1.9-4.7,3.1-7.1,2.3-4.5,5.3-9.5,7.3-14.2.8-1.8,1.2-4,2.4-5.5,1-1.3,4-1.6,5.5-2.4,4-2,8.3-3.8,12.6-5.8,2-.9,3.8-2.5,6.3-2.9h0Z"/>
    <path class="st3" d="M329.3,285.7v-12.3h15.2v-.3h.3c.1-2.6,1.6-4.6,2.4-6.6,2-4.9,3.6-10,5.5-14.7.8-2,.5-5.3,3.1-5.5,2.5,1.8,8.3,2,11.5,3.1,1.8.6,3.5,2.1,5.2,2.9,3.6,1.6,7.1,3,10.5,4.7,1.4.7,6.4,2.1,7.1,3.1-3.5,1.1-6.8,4.6-9.7,6.6-5.8,3.9-11.5,7.2-17.3,11-2.8,1.9-5.7,3.8-8.7,5.8-.8.5-1.7,1.8-2.6,2.1-2.1.7-12.1-.1-13.6-.5-.8-.2-.7.4-1,.5h-7.9Z"/>
    <path class="st3" d="M434.2,248.9q.5,0,.8.3c-1.7,1.9-2.4,5-3.4,7.3-1.7,3.8-4.4,7.8-6,11.5-.8,1.7-1.5,5-2.6,6.3-1,1.2-6.7,3.2-8.4,4.2-2.9,1.7-6.2,3.2-9.2,5-1,.6-2.3,1.7-3.4,2.1h-47v-.5c3.7-1.8,6.9-4.6,10.2-6.8,6.6-4.5,13.2-8.6,19.9-12.9,2-1.2,4-2.6,6-3.9.9-.6,1.8-1.9,2.9-2.4h1.8c3.5-1,8-1.2,11.8-2.1l3.7-.3c1.3-.6,2.2-2.5,3.4-3.1l2.4-.3c1.8-.6,4.2-1.3,6-1.8,3.2-1,8.6-.9,11-2.6h.1Z"/>
    <path class="st3" d="M485.1,322.1h-80.3v-.3c.9-1.1,1-2.5,1.6-3.9,4-9.7.7-21.7-1.3-30.7h57.7c1.1-3.2.3-8.8.3-12.6h.5c1.2,1.1,2.8,1.5,4.2,2.4,3.9,2.4,8.1,4.9,12.1,7.3,1,.6,4.8,2,5.2,2.9v34.9h0Z"/>
    <path class="st3" d="M303.5,287.2h56.7v.5c-1.1,1.5-1,3.9-1.6,5.8-1.6,5.3-2.1,8.8-2.1,16.3v5c.7,2.4,2,4.8,2.6,7.3h-54.8c-.3-11.6-.5-23.3-.8-34.9h0Z"/>
    <path class="st3" d="M362.3,287.2h40.7v.3h.3c.4,4.4,2.2,8.8,3.1,12.9v13.4c-.5,1.5-1.7,3.3-2.4,4.7-.2.6-1,3.5-1.3,3.7h-41.5v-.3h-.3c-.4-3-2.2-5.5-2.9-8.1v-7.1c0-7.2,2-14.1,4.2-19.4h0Z"/>
    <path class="st3" d="M302.8,322.1h-55.4v-.5h.3c2.2-2,5.3-3.1,7.9-4.7,4.9-3.1,9.9-6,15-9.2,3.6-2.3,7.5-5,11-7.3,2.9-1.9,6-3.1,8.9-5,3.7-2.4,7.5-5.3,11.5-7.3v4.7c1,1.7.3,6.6.3,8.9.2,6.8.3,13.6.5,20.5h0Z"/>
    <path class="st3" d="M486.7,322.1v-34.1h.5c1.1,1.3,2.9,1.7,4.5,2.6,3.6,2.2,7.3,4.3,11,6.6,9.8,6.1,20,11.7,29.9,17.8,3.3,2,6.9,5.3,10.8,6.6v.5h-56.7Z"/>
    <path class="st3" d="M311.2,323.7v47.5c-5.4,3.1-10.8,6.4-16,9.7-.8.5-5,2.9-5.2,2.6-.5-.4-.2-.3-1-.5-.3,1.1-.5,1.1-1.8,1-2.3,1.5-8.2.9-11,1.8v-31.2c1.1-1.4.1-3.3-.3-4.7-2.9-.3-6.2-5.2-8.4-6.8-6-4.5-11-10.1-16.8-14.7-1.9-1.5-4.3-2.8-5.8-4.7h66.4-.1Z"/>
    <path class="st3" d="M312.7,323.7h47v.5c1.1,1.7.7,4.4,1.3,6.6,2.7,10.3,1.3,28.4,1.3,41.7-8.7.8-17.5,1.6-26.2,2.4-1.8.4-11.2,1.7-13.1,1-1.6-.5-3.4-2-5-2.6-.9-.4-4.9-1.6-5.2-2.1v-47.5h0Z"/>
    <path class="st3" d="M361.3,323.7h65.6v.5c-1.7,2.5-1.5,8.6-2.6,11.8-2.2.1-3.4,1-5,1.6-2.4.9-4.5,1.1-6.8,2.1-2.2.9-5,2.3-7.3,2.9h-21.8c-3-.8-6.3-2.3-9.2-3.4-1.9-.7-9.4-2.4-10.2-3.7-.5-.8-.2-2.1-.5-3.1-.7-2.6-1.1-6.1-2.1-8.7h-.1Z"/>
    <path class="st3" d="M428.2,323.7h48.5v47.8c-1.6.5-4.6,2-6.3,2.9-.9.5-2.1,1.9-3.1,2.1s-2.4-.4-2.9-.5c-2.9-.6-5.9-.1-8.9-.8-3.1-.3-6.3-.5-9.4-.8-5.8-1.3-13.9-2-20.2-2.1v-35.4c.9-4.2,2.2-8.5,2.4-13.1h-.1Z"/>
    <path class="st3" d="M478.3,323.7h35.4v61.9h-.5c-1.4-.9-10.9-2.5-13.1-2.6,0-.8.2-.7,0-1-1.4-1.5-4.3-2-6.3-2.9-3.2-1.5-6.8-3.7-10-5.2-1.1-.6-5-1.6-5.5-2.4v-47.8h0Z"/>
    <path class="st3" d="M515.3,323.7h29.4v.3c-2.6,1.7-4.4,4.7-6.8,6.6-4.9,3.7-10,8.7-14.4,13.1-1.1,1.1-6.5,6.8-7.3,6.6-1.4-.7-.8-4.6-.8-6.6v-19.9h-.1Z"/>
    <path class="st3" d="M363.9,337.9c6.2,2.1,12.4,4.2,18.6,6.3v26.8c1.5.8,2,2.8,2.9,4.2,2.2,3.3,5,6.6,6.8,10.2h-1.6c-1.1.7-3.4-.1-5,.3-2.9.7-5.8,1.2-8.4,2.1-.7.3-2.2.4-2.4.3-1.3-.9-1.9-2.4-2.9-3.7-1-1.3-2.5-2.4-3.4-3.7-1.5-2.1-2.9-4.3-4.7-6,.7-1.5,0-7.1,0-10.2v-26.5h.1Z"/>
    <path class="st3" d="M424.3,337.9v21.3c0,4.8.2,10.5-.5,14.4.7.4.7.2,1.3.5-2.2,3.6-5.4,6.6-7.9,10-1.1,1.4-1.8,3.9-3.9,4.2-2.8-2-13.4-2.8-18.4-2.9l-9.7-14.4h20.5c.7-2.2.3-6,.3-8.7v-18.1c6.4-1.3,11.9-5.3,18.4-6.3h0Z"/>
    <path class="st3" d="M384.1,344.4h20.2v24.9h-20.2v-24.9Z"/>
    <path class="st3" d="M274.4,384.3c-16.7,0-34,.7-50.1,1-4.6,0-9.3.2-13.9.3-1.6,0-4.4.4-5.5-.3h.5c1.8-1.5,4.6-2.2,6.8-3.1,4.9-2.2,9.8-4.8,15-7.1,15.8-7,31.2-15.7,47.2-22.6v31.8h0Z"/>
    <path class="st3" d="M515.3,384.9v-30.7c.6-.4,1.2-.9,1.6-1.6,9.3,4,18.4,9.3,27.6,13.4,5.7,2.5,11.2,4.7,16.8,7.6,5.4,2.8,10.8,5.4,16.5,7.9,2.2.9,4,2.5,6.6,3.1v.3h-69.1Z"/>
    <path class="st3" d="M467.8,419v-41.2c2.5-1.1,7.6-3.2,9.4-5,2.2.5,4.4,2.1,6.3,3.1,3.1,1.7,6.4,2.9,9.4,4.5.8.4,5.2,1.9,5.5,2.4v31.8h-.5c-2,1.4-5.3,1.1-7.9,1.8-3.8,1.1-8.1,2.2-12.1,3.1l-10.2-.5h.1Z"/>
    <path class="st3" d="M312.7,373c3.5.5,6.7,3.3,9.7,4.5,2.1.8,6.5-.5,8.7-.5,4.1,7.3,8.4,14.6,12.9,21.8,1.6,2.5,5.2,6.9,5.8,10-1.2,1.4-1.7,3.3-2.6,5-1.1,2.1-2.5,4.3-3.7,6.3-.9,1.4-1.1,4-2.6,4.7-.4-1.7-1.8-3.3-2.6-4.7-1.8-3-3.4-6.2-5-9.2-.9-1.6-1.3-4.5-3.4-4.7v.3h-.3c-2.5,7.6-5.1,15.2-7.6,22.8-3,.9-6.3,3.1-8.9,4.7v-.5c-.6-.9-.3-3.3-.3-4.7v-55.8Z"/>
    <path class="st3" d="M310.6,373.3h.5v60.4c-4.4,2.9-7.5,7.9-11.5,11-2.5,1.9-4.2,4.5-6.6,6.3-1.6,1.2-3.6,2.6-4.7,4.2-3.1,4.4-6.2,8.8-9.2,13.1-1,1.4-1.5,3.6-3.1,4.2v-84.2h.3v-.3c3.4,0,7-1.1,10-1.8,1.4-.4,2.8,0,3.7-.3,1.4-.4,2.8-1.9,3.9-2.6,2.1-1.4,4.5-2.7,6.6-3.9,2.8-1.8,8.3-3.6,10.2-6h0Z"/>
    <path class="st3" d="M426.9,373.8c3.8,0,8.1.5,11.5,1.3,4.8,1.1,9.9.6,14.4,1.6,3.4.8,11.1-.2,13.4,1.3.7,1.2.3,4.4.3,6v73.2h-.3v.3c-3.7-2.4-6.9-5.5-10.5-8.1-1.9-1.4-3-3.8-6-3.9-1.4.9-7,.4-8.9.8-.3-4.8-5.9-12.5-8.1-16-1.1-1.8-1.9-4.1-3.4-5.5,1.9-4.2,4.5-8.2,6.8-12.1.8-1.4,1.1-3.6,2.6-4.2,1.6-1.2,6.1-1.2,6.6-3.4-3.6-2.4-4.8-7.8-7.1-11.5-2.8-4.5-5.7-9.4-8.4-13.9l-.5-1.8c-.8-1.3-1.9-2.3-2.4-3.9v-.2Z"/>
    <path class="st3" d="M393.6,387.2c-.5,18.8-1,37.6-1.6,56.4q-.3.2-.5.5h-.3v-.3c-2.3-1.2-4.2-3-6.3-4.5-4.3-3-8.6-6-12.9-8.9-2.6-1.8-5.1-3.6-7.6-5.2-1-.6-2.4-1-3.1-1.8l-.8-2.1c-1.4-2.2-2.5-4.7-3.9-7.1-3.6-5.9-6.8-11.8-10.5-17.6-2.7-4.2-5.3-8.6-8.1-12.9-1.4-2.1-3.7-4.5-4.5-7.1h3.1c1.9-1.2,5.4-.2,7.9-.8,5.3-1.2,11.8-1.6,17.3-1.8.9,3.4,7.5,9.4,9.7,12.3,1.2,1.5,1.5,3.6,4.2,3.7,2.9-2,12.7-2.8,17.8-2.9h0Z"/>
    <path class="st3" d="M393.5,443.5v-6.3c.6-1,.3-3.5.3-5,0-3.4.2-6.8.3-10.2,0-11.6.9-23.6,1-34.9h0c7.8,0,13.3,2.3,19.7,3.2,2.2-3.8,5.6-7,8.1-10.5.9-1.3,1.7-3.3,3.1-3.9.6,2.3,2.5,4.4,3.7,6.3,1,1.6,1.3,3.3,2.4,5,2.1,3.3,4.4,7,6.3,10.5.6,1.1,3.9,6.9,3.7,7.1-1.2,1-3.8,1.7-5.5,2.1-1.9,4-4.3,7.8-6.6,11.5-1,1.6-1.3,3.9-2.6,5.2-1.7,1.8-4.5,2.8-6.6,4.2-4.6,3.2-9.2,6.4-13.9,9.7-2.6,1.8-8.9,7.5-11.8,8.1l-1.6-2.1Z"/>
    <path class="st3" d="M513.7,387.7v39.9h-.5c-.6-1.5-2.4-2.4-3.4-3.4l-7.9-7.9c-.4-.4-1.6-.9-1.8-1.3v-30.2h.5c1.5,1,10.8,2.7,13.1,2.9Z"/>
    <path class="st3" d="M272.1,385.9h1.8v.3c-1.4,1.5-1.7,3.8-2.6,5.8-1.5,3.4-3.7,7.1-5.2,10.5-.4.9-1.5,4.9-2.1,5.2h-23.4c-1,.6-3.7.3-5.2.3h-13.4c-15.6.2-31.1.3-46.7.5v-.5c3.2-1.9,5.7-4.9,8.7-7.1,3.6-2.7,6.9-5.2,10.5-7.9,2.4-1.8,4.3-5.4,8.1-5.5,2.1-1.3,8.6.4,11.5-.3,3.4-.7,8.1.5,11.8-.3,3.4-.7,8.1.5,11.8-.3,2.4-.5,6-.3,8.9-.3l9.4-.3h11.3c1.4,0,3.8.3,4.7-.3v.2Z"/>
    <path class="st3" d="M515.3,386.4h71.4v.3c-1.5,1.4-2.3,3.2-3.7,4.7-3.1,3.5-6.3,7.1-9.4,10.5l-.3,1c-.9,1.2-2.5,2.2-3.4,3.4-.4.5-.8,1.8-1.3,2.1h-42.5c-1.3,2-3.6,3.6-5.2,5.2s-3.4,4.1-5.5,5.5v-32.8h0Z"/>
    <path class="st3" d="M589,386.4h50.4v.3c-2,1.3-3.3,3.4-5,5-3.5,3.5-7.6,7.3-11.5,10.2-3.3,2.5-5.8,6.4-9.2,8.9-4.7,3.6-8.7,7.8-13.1,11.5-2.5,2.1-5.8,3.9-7.6,6.6-2.1-1.1-3.6-3.1-5.2-4.7-1.8-1.8-4-3.2-6-4.7-1.9-1.4-3.4-3.6-5.2-5-1.5-1.1-5.9-3.9-6.3-5.8,2.6-1.8,4.6-5.3,6.6-7.9,3.8-5,8.9-9.1,12.3-14.4h-.2Z"/>
    <path class="st3" d="M149.5,387.5h48.3v.5c-2.9,1.7-5.1,4.3-7.6,6.3-3.4,2.7-6.8,5-10.2,7.6-2.2,1.6-5.4,5.7-7.9,6.6l-14.7.3c-7.1,0-14.2.2-21.3.3-2.5-.8-5.5-2.8-7.9-3.9-1.8-.9-4.6-1.2-5.8-2.6,2.3-.6,4.2-2.3,6-3.4,4.1-2.5,8.4-4.4,12.3-6.8,2.7-1.7,6.4-2.5,8.7-4.7v-.2Z"/>
    <path class="st3" d="M640.7,387.5q.5,0,.8.3c.9,1,1.1,2.4,1.8,3.7,2.3,4,4.9,8.2,7.1,12.3.5.8,2.5,5.1,2.4,5.2-1.4,3.2-4.4,5.6-6.3,8.4-2.7,3.9-5.3,7.9-8.4,11.5-.6.8-1.9,1.2-2.6,1.8-2.4,2.2-4.7,4.6-7.1,6.8-2.7,2.5-7.7,5.5-9.7,8.4h-.3v-.3c-6.5-3.7-12.9-8.3-18.9-12.6-1.4-1-5-2.3-5.2-3.4,2.5-2.7,5.6-4.6,8.4-7.1,4.1-3.6,7.9-7.4,12.3-10.8.3-.2.3-.8.5-1,2.1-2,4.5-4,6.8-5.8,2.5-1.9,4.3-4.9,6.8-6.8,3-2.3,5.3-5.5,8.1-7.6,1.3-1,2.5-1.8,3.4-3.1h.1Z"/>
    <path class="st3" d="M707.4,429.2c-22.3-.3-44.6-.5-66.9-.8v-.3c1.6-1.3,2.5-3.3,3.7-5,1.8-2.5,3.8-4.6,5.5-7.3,1.4-2.3,4.8-4.1,5.2-7.3-2.2-2.2-3.4-6.5-5-9.4-1.8-3.4-4.9-6.9-6-10.8h.3c3,2.8,7.4,4.1,11,6.3,7.5,4.6,15.5,9.1,22.8,13.9,5,3.3,10.4,5.6,15.2,8.9,1.1.7,2.3.9,3.4,1.6,2.4,1.5,5,3.3,7.3,4.7,1.5.9,3.5.8,3.7,3.1-.3.5-.3,1.5-.3,2.4h0Z"/>
    <path class="st3" d="M274.4,428.4c-24.8-.2-49.7-.3-74.5-.5v-.3h.3c1.3-1.4,2.8-2.3,4.5-3.4.9-.7,1.7-1.9,2.6-2.6,3.1-2.3,6-4.6,9.2-6.8,1.6-1.1,4.4-4.6,6-5.2h18.6c1.3-.8,5-.3,6.8-.3,5.5,0,12.3.7,17.3-.3.8-3.6,3.2-7,4.7-10,1.6-3.1,2.3-7.7,4.5-10.2v39.6h0Z"/>
    <path class="st3" d="M82.1,428.7v-3.4c3.2-.8,8.2-4.6,11-6.3,5.4-3.3,11-6,16.3-9.2,1-.6,2.2-.7,3.1-1.3,1.7-1.1,5.8-4.2,7.6-4.7,1.3-.4,7.5,3.1,8.7,3.7,2.3,1,4.5,1.9,6.8,2.9,1,.7,1.9,2.6,2.6,3.7l2.1,1.8c.5.6.6,1.2,1,1.8,2.8,3.7,6.8,7,9.2,11h-68.5,0Z"/>
    <path class="st3" d="M216.4,409.5h3.4v.3c-6.4,4.1-11.9,9.6-18.1,14.2-1.4,1-2.9,3.2-4.5,3.9h-5.5c-1.4.9-8.9.3-11.3.3-9,.2-18,.3-27,.5-.7-1.1-1.8-1.7-2.6-2.6-.6-.8-.9-1.9-1.6-2.6-3.8-4-8.2-8.2-11.3-12.9h5.5c1.1-.7,3.6.1,4.7,0,3.3-.4,7.6-.3,11.3-.3,13.5-.2,26.9-.3,40.4-.5h11.8c1.4,0,3.8.3,4.7-.3h.1Z"/>
    <path class="st3" d="M337,469.4c-3-3-7.5-7.6-10.9-10.2-1.3-1-1.5-2.8-3.4-3.1-1.9,4.5-4,8.6-6,13.1-.9,2.2-2.5,4.1-3.1,6.6h-.5v-38.6c.6-.3.6-.5.8-1.3,1.8-.2,9.1-3.9,10-5,1.2-1.7,1.3-4.2,2.1-6.3,1.7-4.7,5-14.7,5-14.7h-.4c0-.1,3.7,7.3,5.8,10.7,1.1,1.8,3.4,4.5,3.9,6.6.4,1.4-.7,4.5-1,5.8l-2.1,13.9-.2,22.5Z"/>
    <path class="st3" d="M341.2,471.8"/>
    <path class="st3" d="M350.4,448.7h35.1v.5h-.3c-2.1,2.1-4.9,3.3-7.3,5-6.4,4.4-21.4,14.5-27.7,19l.3-24.5Z"/>
    <path class="st3" d="M526.9,410h30.2c2.4,0,10.1-.6,11.5.3,2.2.8,3.7,3.4,5.5,4.7,4.3,3.2,8.1,7,12.1,10.5,1.5,1.4,4.5,2.7,5.2,4.7-4.7,3-8,8-12.3,11.3-2.3,1.8-7.3,5.6-8.9,7.9h-.3v-.3c-1.8-1.2-2.9-2.8-4.5-4.2-4.5-4-9.1-7.9-13.9-11.5-1.2-.9-3.8-4.7-5.2-4.2-1.9.8-3.1,3.5-4.5,5-3.9,4.3-7.7,8.7-11.5,13.1-.7.8-1.7,1.4-2.4,2.4h-.3v-.3c-1.4-1.2-2.3-2.9-3.4-4.5-1.6-2.2-3.7-4.3-5.5-6.3-1.3-1.4-2-3.2-3.4-4.5v-12.6c2.3-1.5,3.5-4.1,5.5-5.8,2-1.7,4.5-3.5,6-5.8h.1Z"/>
    <path class="st3" d="M339.2,446c.4-4.2,1.4-9.1,2.4-13.1l.8-6.3c1.2-3.3,3.7-7,5.5-10,1.1-1.8,1.5-5.1,3.4-6,.7,2.2,2.5,4.2,3.7,6,1.5,2.5,2.5,5.3,4.2,7.6,1.2,1.6,3.6,2.5,5.2,3.7,3.7,2.6,7.3,5.3,11,7.9,4.6,3.3,9,7.6,14.2,10.2v.3h-.3c-1.6,1.4-10.3.3-13.1.3-12.5,0-25.2-.5-37-.5h0Z"/>
    <path class="st3" d="M467.8,420.5c3.5.2,7,.3,10.5.5,4.9-1.2,10.3-2.2,15.5-3.7,1.7-.5,3.4-1.2,5.5-1.3.8,1.3,2.1,1.9,3.1,2.9,2.9,2.7,5.6,5.6,8.4,8.4s2.3,1.7,2.9,2.9c-2.3,1.9-3.1,6-4.7,8.7-3.5,5.8-6.9,12.1-10,18.4-4.7-1.6-9.4-3.1-14.2-4.7-2.5-1-4.9-2.5-8.1-2.6-1.3,1.4-7.2,6.1-8.9,6.6v-36.1Z"/>
    <path class="st3" d="M438.4,447.8c4.3,0,8.2-.2,12.1-.5,1,1.4,2.6,2.1,3.9,3.1,2.1,1.5,3.9,3.7,6,5.2,1.7,1.2,3.5,2.2,5,3.7h-.3c-2.7,4.2-7,7.6-10,11.5-.9,1.2-3.2,5-4.5,5.5h-10c-1.7-2.3-8.3-5.5-11-7.3-7.4-4.9-14.7-10.3-22-15.2-2.8-1.8-8.7-4.7-10.5-7.1,2.3-.7,4.2-2.9,6-4.2,5-3.4,9.8-6.8,14.7-10.2,2.6-1.8,7.8-4.1,9.4-6.6h.3c.7,2,2.6,3.4,3.7,5,2.3,3.4,4.1,7.1,5.8,11,.3.8,1.5,2.3,1.6,3.1,0,.5-.3,2-.3,2.9h0Z"/>
    <path class="st3" d="M192.6,429.5h2.6v.5c-2.4.7-4.4,2.9-6.3,4.2-4.1,2.8-8.3,5.4-12.3,8.1-.9.6-5.4,3.3-5.5,3.1-1.6-1-2.3-2.6-3.7-3.7-1.7-1.3-3.6-2.6-5-4.2-.5-.5-.8-1.4-1.3-1.8-1.7-1.4-5-3.3-5.8-5.5h9.2c1.3-.8,4.8-.3,6.6-.3,5,0,10-.2,15-.3,1.8,0,5.3.5,6.6-.3v.2Z"/>
    <path class="st3" d="M199.1,429.5c14.1,0,28.2.2,42.2.3v.5c-2.3,1.4-3.7,3.7-5.8,5.2-4.4,3.3-8.3,7.2-12.3,11-1.6,1.6-5.3,3-5.5,5.8,5,2.3,10.1,5.6,15.5,7.1v.5c-11.9.1-18.8,5.2-23.4,12.6-1.3,2.2-2.3,5.1-3.1,7.6-.4,1.1-.2,2.1-.8,2.9v-.3c-3.1-3-4.7-8-7.6-11.3-.3-.3-.7,0-1-.3-2-1.3-3.5-3.7-5.5-5.2-2.3-2.4-4.5-4.7-6.8-7.1-2.8-2.1-4.7-5.1-7.3-7.1-1.6-1.2-4.2-2.9-5-5,2.2-.7,4.2-2.7,6-3.9,4.2-2.8,8.4-5.5,12.6-8.1,2.5-1.6,6.3-2.8,7.9-5.2h0Z"/>
    <path class="st3" d="M274.4,430v45.4c-4.3,1.4-8.7,6.9-13.1,8.4v-.5c-1.1-1.6-1.3-5-2.1-6.8-2.1-5.1-5.8-9.8-10.2-12.6-1.7-1.1-4.1-2-6-2.6l-3.1-.5c-.6-.3-1.4-1.3-2.1-1.6-3.7-1.6-7.3-3.3-10.8-5-2-1-5.2-1.5-6.6-3.1,1.6-1.1,2.7-2.8,4.2-3.9,4.3-3.3,8-7.2,12.3-10.5,2.2-1.6,4.9-5.9,7.3-6.8h19.7c1.3.8,8.3.3,10.5.3v-.2Z"/>
    <path class="st3" d="M669.1,430.3c0,8.8-.2,17.7-.3,26.5h-18.6c-5.9-1.6-12.2-4.2-17.8-6.3-2.3-.9-10.9-2.6-11.8-4.2,2.7-1.6,4.6-4.4,7.1-6.3,4-3,8.1-6.4,11.5-10,9.7,0,19.9.3,29.9.3h0Z"/>
    <path class="st3" d="M82.3,430.3h36.7v54.3h-7.6c-.5-15.1-13.7-23.3-29.1-23.9v-30.4Z"/>
    <path class="st3" d="M120.7,430.3h32c1.6,2.4,6.5,6.6,8.9,8.4,2.8,2.1,4.7,5.4,7.6,7.3v.3h-.3c-2.1,1.4-5.3,1.3-7.9,2.1-7,2.3-14.6,4.3-22,6-4.2,7.4-9.3,14.3-13.9,21.5-1.3,2-3.4,3.9-4.2,6.3h-.3v-52h0Z"/>
    <path class="st3" d="M707.1,430.8c.4,9.8.5,20,.5,30.2l-8.9.8c-1.2.3-3.1,1.7-4.7,1.3-2.8-.6-6.5-1.8-9.2-2.6-3.3-1.1-6.3-1.1-9.7-2.1-1.6-.4-3.1-1.1-5-1.3.2-8.7.5-17.7.5-26.8h.5c1.3.8,8,.3,10.2.3l25.7.3h.1Z"/>
    <path class="st3" d="M546.3,431c2.7.9,4.2,3.9,6.3,5.5,4.5,3.3,8.2,7.2,12.6,10.5,1.3,1,2.3,2.5,3.7,3.4v.3h-.3c-1.6,2.4-4.5,4.6-6.8,6.3l-2.9,3.1h-2.4c-1.9-1.2-9,1-10.5,1.6-9.5,3.6-14.6,11.2-16.8,22h-.3v-.3c-4.5-3.1-9.1-6.1-13.6-9.2v-5.8c1-1.7.3-6.6.3-8.9l.3-22h.3c2.2,3.7,5.7,6.5,8.1,10,1,1.5,2,3.9,4.2,4.2,1.4-2.2,3.6-3.9,5.2-5.8,3-3.4,5.9-6.9,8.7-10.5,1.2-1.6,3-2.6,3.9-4.5h0Z"/>
    <path class="st3" d="M592.7,431c1.9.5,3.2,2.2,4.7,3.1,4.4,2.8,8.6,5.7,12.9,8.4,1.6,1,6.3,3.2,7.1,4.7-1.3.8-1.8,2.1-2.9,3.1-2.6,2.6-5.4,4.9-7.6,7.9-1.5,2-4.4,3.6-6,5.5-4.4,5.3-9.1,9.8-13.1,15.5-.9,1.3-2.2,2.1-2.9,3.7h-.5c-1-8.6-6.8-15.9-12.9-19.7-2.8-1.8-6.8-2.4-10.5-3.1v-.3h.3c4.6-4.9,10.4-10.1,15.7-14.2,3.3-2.5,6.2-6.7,9.4-9.2,2.2-1.7,4.4-3.5,6.3-5.5h0Z"/>
    <path class="st3" d="M513.5,433.4c.8,1.3.3,4.8.3,6.6v77.1h-.3c-2.4-3.8-5.7-6.7-8.1-10.5-1.1-1.7-4.4-3.9-5.2-5.8v-42.5c2.3-2.6,3.1-6.5,5-9.4,3.1-4.9,5.8-10.2,8.4-15.5h0Z"/>
    <path class="st3" d="M311.2,519.5c-11.3,0-23.5.3-35.2.3v-43.8c.4-1.2,1.9-2.2,2.6-3.1.5-.7.5-1.6,1-2.4,1.5-2.2,3.6-4.5,5.2-6.6,2.2-2.7,3.4-5.9,5.5-8.7,1-1.3,4.3-3.9,5.8-5l2.6-2.9c1.9-1.9,3.9-3.6,6-5.2,2.3-1.8,3.7-4.5,6.3-6v83.4h.2Z"/>
    <path class="st3" d="M392,469.6c-12.9,0-21.6,10.4-24.1,21v8.7c-6.3,1.5-11.8,6.4-18.1,8.1v-12.6c.6-1,.3-3.7.3-5.2v-13.4c2.9-1.4,5.3-4,7.9-5.8,7.7-5.2,15.1-10.5,22.8-15.7,3.7-2.6,7.1-6,11.3-8.1v23.1h0Z"/>
    <path class="st3" d="M393.6,469.4v-22.8h.3c2.7,3.2,7.6,4.9,11,7.3,7.5,5.3,15.2,10.6,22.8,15.7,2.1,1.4,10.7,6.1,11.5,7.9-2,1.6-3.2,4.4-4.7,6.6-2.5,3.4-5.8,6.7-8.1,10.2-1,1.5-2.9,5.3-4.5,6v-10c-1.6-2.2-1.9-6-3.4-8.4-4.8-7.7-12.4-12.6-24.9-12.6h0Z"/>
    <path class="st3" d="M668.8,458.3c-.2,8.7-.3,17.5-.5,26.2h-14.7c0-3.1-1.4-5.6-2.4-7.9-4.3-10.2-10.8-15.8-24.7-16.5-1.8-.1-4.1-.5-6.3,0-2,.4-4.2.8-6,1.6-8.2,3.4-13.8,11.2-15.7,20.7-.2-.3,0,0-.3-.5-2-2.2-2.4-5.8-4.5-7.9,2.9-4.3,8.2-7.5,11.3-11.5,2.1-2.8,5.1-4.7,7.1-7.3,2-2.7,4.5-5.2,7.1-7.3,2.5,1.8,9.2,3,12.6,4.2,5.7,2.1,12,4.7,17.8,6.3h19.2Z"/>
    <path class="st3" d="M135.4,547.8h-14.7v-62.5c6.6-9.7,13.1-19.4,19.7-29.1,10.1-2.6,20.3-5.2,30.4-7.9.7,1.1,2,1.7,2.9,2.6,2.5,2.5,4.7,5.2,7.6,7.3l4.2,4.5,6.6,6c1.2,1.2,2.2,2.7,3.7,3.7-1.5,3.4-4.2,6.4-5.2,10h-.5c-.6-9-9.4-18-16.3-21-1.5-.6-3.4-.4-5-.8-11.1-2.7-22.4,1.6-27,7.9-3.4,4.6-5.2,10-7.1,16.3-.2.7.3,5.7.5,6.6v11.5c0,15,.2,29.9.3,44.9h0Z"/>
    <path class="st3" d="M467.8,519.5v-60.9c3.9-1.3,6-6.3,10.2-7.1,1.5,1.1,3.6,1.1,5.5,1.8,3.4,1.3,7.4,2.8,10.8,4.2,1.3.6,2.9.5,3.9,1.3.9,1.5.3,9.2.3,11.5v30.2c-5.8,3.8-10.6,9.9-16.3,14.2-1.6,1.2-3.2,3.9-5,4.7h-9.4Z"/>
    <path class="st3" d="M678.3,547.8h-8.4c0-29.8.2-59.8.3-89.2h.5c7.1,1.8,14.2,3.7,21.3,5.5-.3.2,0,0-.5.3-1.1,1.1-2.7,1.5-3.9,2.4-3.2,2.3-6.1,6.7-7.6,10.5-2.4,6-1.6,15.7-1.6,23.9v46.7h0Z"/>
    <path class="st3" d="M312.7,519.5v-38.8l.8-.3c.9-1.4,1.1-2.9,1.8-4.5,1.2-2.6,3-5.5,4.2-8.1,1.2-2.8,2.2-6.8,4.2-8.9v.3c3.2,2.1,5.1,5.9,8.1,8.1,1,.8,4.5,3.5,5,4.5v32c-1.7,1.1-3,3.1-4.2,4.7-1.9,2.5-4.8,4.8-7.1,7.1-1,1-1.9,3.1-3.1,3.7h-5.2c-.8.5-3.2.3-4.5.3h0Z"/>
    <path class="st3" d="M466.5,518.9c-2.4-.3-5-1.6-7.1-2.4-2.9-1-5.8-1-8.4-2.4-1.4-.7-3-1.9-4.5-2.6-.9-.5-5.1-2-5.5-2.6v-31c2.1,0,9,.5,10.2-.3,1.6-.6,2.2-2.2,3.1-3.4,2.3-3.1,5.4-5.8,7.9-8.7,1.4-1.5,2.3-4.1,4.2-5v58.3h0Z"/>
    <path class="st3" d="M136.7,484.6c.6-9.9,7.4-17.8,15-21,2.5-1.1,7-2.5,10.2-1.8h4.7l6,1.3c7.5,3.1,11.9,8.7,15,16.3.7,1.7.7,3.6,1.3,5.2h-52.2Z"/>
    <path class="st3" d="M259.7,484.6h-52.2c.8-12.5,12.1-24,26-22.8,4.2.3,7.6.2,10.8,1.6,8,3.3,14.3,11.2,15.5,21.3h-.1Z"/>
    <path class="st3" d="M530.8,484.6c1.3-11.9,11.7-24.7,25.7-22.8,3.7.5,6.6,0,9.7,1,9.1,3.1,15.4,11.9,16.8,21.8h-52.2Z"/>
    <path class="st3" d="M652,484.6h-52.2c.8-12.5,12.1-24,26-22.8,4.2.3,7.6.2,10.8,1.6,8,3.4,14.3,11.3,15.5,21.3h0Z"/>
    <path class="st3" d="M82.1,462.5c15.7.2,26.3,7.8,27.8,22h-27.8s0-22,0-22Z"/>
    <path class="st3" d="M707.6,462.5v22h-27.8v-.3c.3-.5,0-1.1.3-1.8.6-2.1,1.3-5,2.4-6.8,4.9-8.1,12.5-12.8,25.2-13.1h-.1Z"/>
    <path class="st3" d="M420.6,548.1h-51.4v-56.7c2.1-8.2,6.7-14.6,13.9-17.8,3.6-1.6,9.6-3.4,14.2-2.6,11.2,2,15.2,5,20.2,13.1.4.7,1.3,1.6,1.6,2.4,2.1,5.4,1.6,13.9,1.6,21.5v40.1h-.1Z"/>
    <path class="st3" d="M348.2,448.4l.2,45.9c-.5.9-.3,3.1-.3,4.5v10.5c0,12.9-.2,25.7-.3,38.6h0c0,0-24.1,0-24.1,0v-27.8c1.2-.8,1.8-1.8,2.6-2.9,2.5-3.4,6-6,8.7-9.4.9-1.2,2.8-2,3.4-3.4l.6-55.8h9.1Z"/>
    <path class="st3" d="M206.2,547.8h-15.7v-62.2c.5-1.5,1.9-3,2.6-4.2l1.8-4.2c.7-1.3,1.7-2.6,2.4-3.9.3.2,0,0,.3.3,2.1,2.1,3.2,5.1,5,7.6.9,1.3,2.9,2.8,3.4,4.5,0,20.7.2,41.5.3,62.2h-.1Z"/>
    <path class="st3" d="M598.5,547.8h-13.9v-61.9c.5-1.5,2.2-2.5,3.1-3.7.5-.6.4-1.1.8-1.8,1.1-1.8,2.9-3,3.9-5h.3v.3c1.9,2,3,5.5,4.2,8.1.2.5,1.1,1.4,1.3,1.8v17.6c0,14.9.2,29.7.3,44.6h0Z"/>
    <path class="st3" d="M529.5,547.8h-13.6c-.2-23.8-.3-47.6-.5-71.4h.5c1.6,1.9,7.1,5.3,9.4,6.8,1.7,1.2,3.6,1.3,3.7,4.2.6.9.3,3.3.3,4.7v12.1l.3,43.6h-.1Z"/>
    <path class="st3" d="M274.4,547.8h-12.9v-62.2c4.6-2.1,8.5-5.8,12.9-8.4v70.6Z"/>
    <path class="st3" d="M439.5,547.8h-17.6v-44.3c.7-1.8,2.8-3.4,3.9-5,2.2-3.1,4.3-5.9,6.3-9.2,2-3.3,5.2-5.9,7.1-9.4h.3v68h0Z"/>
    <path class="st3" d="M82.1,486.1h27.8v61.7h-27.8v-61.7h0Z"/>
    <path class="st3" d="M111.5,486.1h7.6v61.7h-7.6v-61.7h0Z"/>
    <path class="st3" d="M136.4,486.1h52.5v61.7h-52c-.2-20.6-.3-41.1-.5-61.7h0Z"/>
    <path class="st3" d="M207.5,486.1h52.5v61.7h-52.2c0-20.6-.2-41.1-.3-61.7h0Z"/>
    <path class="st3" d="M530.5,486.1h52.7v61.7h-52.2c0-11.4-.2-22.7-.3-34.1,0-9.1.3-18.9-.3-27.6h0Z"/>
    <path class="st3" d="M599.5,486.1h52.7v61.7h-52.2c-.2-20.6-.3-41.1-.5-61.7h0Z"/>
    <path class="st3" d="M653.9,486.1h14.4c-.2,20.6-.3,41.1-.5,61.7h-13.9v-61.7h0Z"/>
    <path class="st3" d="M679.8,486.1h27.8v61.7h-27.8v-61.7h0Z"/>
    <path class="st3" d="M367.8,547.8h-18.4c0-12.9.2-25.7.3-38.6,6.5-1.6,11.7-6.3,18.1-8.1v46.7Z"/>
    <path class="st3" d="M514.3,547.8h-46.4v-27h10.2c2.2-2.9,6-5.4,8.9-7.6,2.3-1.7,4-4.3,6.3-6,1.9-1.4,4.5-3,5.8-5h.3c.5,1.3,1.6,1.6,2.4,2.6,2.8,3.8,5.6,7.3,8.4,11,.6.9,3.3,3.1,3.7,3.9v5c.8,1.3.3,5,.3,6.8l.3,16.3h-.2Z"/>
    <path class="st3" d="M466.5,547.8h-25.5v-37h.3c3.8,2.9,10.7,5.4,15.7,7.1,2.6.8,7.3,1.4,9.2,2.9.9,1.4.3,5.6.3,7.6v19.4Z"/>
    <path class="st3" d="M322.2,520.8v27h-46.2v-26.5c15.6,0,30.9-.5,46.2-.5Z"/>
  </g>
  <g id="Layer_3">
    <g class="st2">
      <text class="st1" transform="translate(374.2 92.5) scale(1 -1)"><tspan x="0" y="0">0</tspan></text>
    </g>
    <g class="st2">
      <text class="st1" transform="translate(413.2 92.5) scale(1 -1)"><tspan x="0" y="0">1</tspan></text>
    </g>
    <g class="st2">
      <text class="st1" transform="translate(362.9 111.3) scale(1 -1)"><tspan x="0" y="0">2</tspan></text>
    </g>
    <g class="st2">
      <text class="st1" transform="translate(331.2 92.5) scale(1 -1)"><tspan x="0" y="0">3</tspan></text>
    </g>
    <g class="st2">
      <text class="st1" transform="translate(312.6 115.3) scale(1 -1)"><tspan x="0" y="0">4</tspan></text>
    </g>
    <g class="st2">
      <text class="st1" transform="translate(290.1 112.7) scale(1 -1)"><tspan x="0" y="0">5</tspan></text>
    </g>
    <g class="st2">
      <text class="st1" transform="translate(331.7 127.6) scale(1 -1)"><tspan x="0" y="0">6</tspan></text>
    </g>
    <g class="st2">
      <text class="st1" transform="translate(353 124.8) scale(1 -1)"><tspan x="0" y="0">7</tspan></text>
    </g>
    <g class="st2">
      <text class="st1" transform="translate(393.8 130.6) scale(1 -1)"><tspan x="0" y="0">8</tspan></text>
    </g>
    <g class="st2">
      <text class="st1" transform="translate(424.5 111.3) scale(1 -1)"><tspan x="0" y="0">9</tspan></text>
    </g>
    <g class="st2">
      <text class="st1" transform="translate(322.2 128.3) scale(1 -1)"><tspan x="0" y="0">10</tspan></text>
    </g>
    <g class="st2">
      <text class="st1" transform="translate(311 139.7) scale(1 -1)"><tspan x="0" y="0">11</tspan></text>
    </g>
    <g class="st2">
      <text class="st1" transform="translate(463.9 128.3) scale(1 -1)"><tspan x="0" y="0">12</tspan></text>
    </g>
    <g class="st2">
      <text class="st1" transform="translate(472 113.5) scale(1 -1)"><tspan x="0" y="0">13</tspan></text>
    </g>
    <g class="st2">
      <text class="st1" transform="translate(472 143) scale(1 -1)"><tspan x="0" y="0">14</tspan></text>
    </g>
    <g class="st2">
      <text class="st1" transform="translate(455.1 127.6) scale(1 -1)"><tspan x="0" y="0">15</tspan></text>
    </g>
    <g class="st2">
      <text class="st1" transform="translate(455.6 92.5) scale(1 -1)"><tspan x="0" y="0">16</tspan></text>
    </g>
    <g class="st2">
      <text class="st1" transform="translate(496.8 112.7) scale(1 -1)"><tspan x="0" y="0">17</tspan></text>
    </g>
    <g class="st2">
      <text class="st1" transform="translate(433.9 124.8) scale(1 -1)"><tspan x="0" y="0">18</tspan></text>
    </g>
    <g class="st2">
      <text class="st1" transform="translate(378.2 181.9) scale(1 -1)"><tspan x="0" y="0">19</tspan></text>
    </g>
    <g class="st2">
      <text class="st1" transform="translate(388.2 187) scale(1 -1)"><tspan x="0" y="0">20</tspan></text>
    </g>
    <g class="st2">
      <text class="st1" transform="translate(378.6 190.2) scale(1 -1)"><tspan x="0" y="0">21</tspan></text>
    </g>
    <g class="st2">
      <text class="st1" transform="translate(360.5 194.5) scale(1 -1)"><tspan x="0" y="0">22</tspan></text>
    </g>
    <g class="st2">
      <text class="st1" transform="translate(370.2 196.2) scale(1 -1)"><tspan x="0" y="0">23</tspan></text>
    </g>
    <g class="st2">
      <text class="st1" transform="translate(364.2 204.5) scale(1 -1)"><tspan x="0" y="0">24</tspan></text>
    </g>
    <g class="st2">
      <text class="st1" transform="translate(354.1 211.1) scale(1 -1)"><tspan x="0" y="0">25</tspan></text>
    </g>
    <g class="st2">
      <text class="st1" transform="translate(361 214.2) scale(1 -1)"><tspan x="0" y="0">26</tspan></text>
    </g>
    <g class="st2">
      <text class="st1" transform="translate(348.8 224.5) scale(1 -1)"><tspan x="0" y="0">27</tspan></text>
    </g>
    <g class="st2">
      <text class="st1" transform="translate(361 224.5) scale(1 -1)"><tspan x="0" y="0">28</tspan></text>
    </g>
    <g class="st2">
      <text class="st1" transform="translate(360.1 242) scale(1 -1)"><tspan x="0" y="0">29</tspan></text>
    </g>
    <g class="st2">
      <text class="st1" transform="translate(364.2 234.3) scale(1 -1)"><tspan x="0" y="0">30</tspan></text>
    </g>
    <g class="st2">
      <text class="st1" transform="translate(370.2 242.6) scale(1 -1)"><tspan x="0" y="0">31</tspan></text>
    </g>
    <g class="st2">
      <text class="st1" transform="translate(372.8 262.7) scale(1 -1)"><tspan x="0" y="0">32</tspan></text>
    </g>
    <g class="st2">
      <text class="st1" transform="translate(378.6 248.7) scale(1 -1)"><tspan x="0" y="0">33</tspan></text>
    </g>
    <g class="st2">
      <text class="st1" transform="translate(388.2 251.8) scale(1 -1)"><tspan x="0" y="0">34</tspan></text>
    </g>
    <g class="st2">
      <text class="st1" transform="translate(416.5 259.3) scale(1 -1)"><tspan x="0" y="0">35</tspan></text>
    </g>
    <g class="st2">
      <text class="st1" transform="translate(398.5 251.8) scale(1 -1)"><tspan x="0" y="0">36</tspan></text>
    </g>
    <g class="st2">
      <text class="st1" transform="translate(435.6 238.7) scale(1 -1)"><tspan x="0" y="0">37</tspan></text>
    </g>
    <g class="st2">
      <text class="st1" transform="translate(408.3 248.7) scale(1 -1)"><tspan x="0" y="0">38</tspan></text>
    </g>
    <g class="st2">
      <text class="st1" transform="translate(416.6 242.6) scale(1 -1)"><tspan x="0" y="0">39</tspan></text>
    </g>
    <g class="st2">
      <text class="st1" transform="translate(422.7 234.3) scale(1 -1)"><tspan x="0" y="0">40</tspan></text>
    </g>
    <g class="st2">
      <text class="st1" transform="translate(425.9 224.5) scale(1 -1)"><tspan x="0" y="0">41</tspan></text>
    </g>
    <g class="st2">
      <text class="st1" transform="translate(425.9 214.2) scale(1 -1)"><tspan x="0" y="0">42</tspan></text>
    </g>
    <g class="st2">
      <text class="st1" transform="translate(432.4 200.8) scale(1 -1)"><tspan x="0" y="0">43</tspan></text>
    </g>
    <g class="st2">
      <text class="st1" transform="translate(422.7 204.5) scale(1 -1)"><tspan x="0" y="0">44</tspan></text>
    </g>
    <g class="st2">
      <text class="st1" transform="translate(417.4 187) scale(1 -1)"><tspan x="0" y="0">45</tspan></text>
    </g>
    <g class="st2">
      <text class="st1" transform="translate(416.6 196.2) scale(1 -1)"><tspan x="0" y="0">46</tspan></text>
    </g>
    <g class="st2">
      <text class="st1" transform="translate(408.3 190.2) scale(1 -1)"><tspan x="0" y="0">47</tspan></text>
    </g>
    <g class="st2">
      <text class="st1" transform="translate(398.5 187) scale(1 -1)"><tspan x="0" y="0">48</tspan></text>
    </g>
    <g class="st2">
      <text class="st1" transform="translate(389.5 194.9) scale(1 -1)"><tspan x="0" y="0">49</tspan></text>
    </g>
    <g class="st2">
      <text class="st1" transform="translate(382.3 197.3) scale(1 -1)"><tspan x="0" y="0">50</tspan></text>
    </g>
    <g class="st2">
      <text class="st1" transform="translate(375.9 201.9) scale(1 -1)"><tspan x="0" y="0">51</tspan></text>
    </g>
    <g class="st2">
      <text class="st1" transform="translate(371.3 208.2) scale(1 -1)"><tspan x="0" y="0">52</tspan></text>
    </g>
    <g class="st2">
      <text class="st1" transform="translate(368.9 215.5) scale(1 -1)"><tspan x="0" y="0">53</tspan></text>
    </g>
    <g class="st2">
      <text class="st1" transform="translate(369 223.2) scale(1 -1)"><tspan x="0" y="0">54</tspan></text>
    </g>
    <g class="st2">
      <text class="st1" transform="translate(371.3 230.6) scale(1 -1)"><tspan x="0" y="0">55</tspan></text>
    </g>
    <g class="st2">
      <text class="st1" transform="translate(375.9 237) scale(1 -1)"><tspan x="0" y="0">56</tspan></text>
    </g>
    <g class="st2">
      <text class="st1" transform="translate(382.3 241.5) scale(1 -1)"><tspan x="0" y="0">57</tspan></text>
    </g>
    <g class="st2">
      <text class="st1" transform="translate(389.5 243.9) scale(1 -1)"><tspan x="0" y="0">58</tspan></text>
    </g>
    <g class="st2">
      <text class="st1" transform="translate(397.2 243.9) scale(1 -1)"><tspan x="0" y="0">59</tspan></text>
    </g>
    <g class="st2">
      <text class="st1" transform="translate(404.6 241.5) scale(1 -1)"><tspan x="0" y="0">60</tspan></text>
    </g>
    <g class="st2">
      <text class="st1" transform="translate(411 237) scale(1 -1)"><tspan x="0" y="0">61</tspan></text>
    </g>
    <g class="st2">
      <text class="st1" transform="translate(415.5 230.6) scale(1 -1)"><tspan x="0" y="0">62</tspan></text>
    </g>
    <g class="st2">
      <text class="st1" transform="translate(417.9 223.2) scale(1 -1)"><tspan x="0" y="0">63</tspan></text>
    </g>
    <g class="st2">
      <text class="st1" transform="translate(417.9 215.5) scale(1 -1)"><tspan x="0" y="0">64</tspan></text>
    </g>
    <g class="st2">
      <text class="st1" transform="translate(415.5 208.2) scale(1 -1)"><tspan x="0" y="0">65</tspan></text>
    </g>
    <g class="st2">
      <text class="st1" transform="translate(411 201.9) scale(1 -1)"><tspan x="0" y="0">66</tspan></text>
    </g>
    <g class="st2">
      <text class="st1" transform="translate(404.6 197.3) scale(1 -1)"><tspan x="0" y="0">67</tspan></text>
    </g>
    <g class="st2">
      <text class="st1" transform="translate(397.2 194.9) scale(1 -1)"><tspan x="0" y="0">68</tspan></text>
    </g>
    <g class="st2">
      <text class="st1" transform="translate(386.9 209.1) scale(1 -1)"><tspan x="0" y="0">69</tspan></text>
    </g>
    <g class="st2">
      <text class="st1" transform="translate(383 225.7) scale(1 -1)"><tspan x="0" y="0">70</tspan></text>
    </g>
    <g class="st2">
      <text class="st1" transform="translate(403.6 226.7) scale(1 -1)"><tspan x="0" y="0">71</tspan></text>
    </g>
    <g class="st2">
      <text class="st1" transform="translate(402.3 214.8) scale(1 -1)"><tspan x="0" y="0">72</tspan></text>
    </g>
    <g class="st2">
      <text class="st1" transform="translate(399.6 206.6) scale(1 -1)"><tspan x="0" y="0">73</tspan></text>
    </g>
    <g class="st2">
      <text class="st1" transform="translate(362.5 144.1) scale(1 -1)"><tspan x="0" y="0">74</tspan></text>
    </g>
    <g class="st2">
      <text class="st1" transform="translate(359.8 154.3) scale(1 -1)"><tspan x="0" y="0">75</tspan></text>
    </g>
    <g class="st2">
      <text class="st1" transform="translate(286.9 126.5) scale(1 -1)"><tspan x="0" y="0">76</tspan></text>
    </g>
    <g class="st2">
      <text class="st1" transform="translate(314.2 154.3) scale(1 -1)"><tspan x="0" y="0">77</tspan></text>
    </g>
    <g class="st2">
      <text class="st1" transform="translate(295.8 153.9) scale(1 -1)"><tspan x="0" y="0">78</tspan></text>
    </g>
    <g class="st2">
      <text class="st1" transform="translate(298.8 165.6) scale(1 -1)"><tspan x="0" y="0">80</tspan></text>
    </g>
    <g class="st2">
      <text class="st1" transform="translate(310.2 165.6) scale(1 -1)"><tspan x="0" y="0">81</tspan></text>
    </g>
    <g class="st2">
      <text class="st1" transform="translate(339.5 165.6) scale(1 -1)"><tspan x="0" y="0">82</tspan></text>
    </g>
    <g class="st2">
      <text class="st1" transform="translate(374.6 163) scale(1 -1)"><tspan x="0" y="0">83</tspan></text>
    </g>
    <g class="st2">
      <text class="st1" transform="translate(674.4 413.7) scale(1 -1)"><tspan x="0" y="0">84</tspan></text>
    </g>
    <g class="st2">
      <text class="st1" transform="translate(698.5 445.7) scale(1 -1)"><tspan x="0" y="0">85</tspan></text>
    </g>
    <g class="st2">
      <text class="st1" transform="translate(700.2 468.8) scale(1 -1)"><tspan x="0" y="0">86</tspan></text>
    </g>
    <g class="st2">
      <text class="st1" transform="translate(701.7 506.2) scale(1 -1)"><tspan x="0" y="0">87</tspan></text>
    </g>
    <g class="st2">
      <text class="st1" transform="translate(696.6 534.7) scale(1 -1)"><tspan x="0" y="0">88</tspan></text>
    </g>
    <g class="st2">
      <text class="st1" transform="translate(686.5 540.3) scale(1 -1)"><tspan x="0" y="0">89</tspan></text>
    </g>
    <g class="st2">
      <text class="st1" transform="translate(673.1 540.3) scale(1 -1)"><tspan x="0" y="0">90</tspan></text>
    </g>
    <g class="st2">
      <text class="st1" transform="translate(655.6 540.3) scale(1 -1)"><tspan x="0" y="0">91</tspan></text>
    </g>
    <g class="st2">
      <text class="st1" transform="translate(641.2 540.3) scale(1 -1)"><tspan x="0" y="0">92</tspan></text>
    </g>
    <g class="st2">
      <text class="st1" transform="translate(605.7 540.3) scale(1 -1)"><tspan x="0" y="0">93</tspan></text>
    </g>
    <g class="st2">
      <text class="st1" transform="translate(586.6 540.3) scale(1 -1)"><tspan x="0" y="0">94</tspan></text>
    </g>
    <g class="st2">
      <text class="st1" transform="translate(572.6 540.3) scale(1 -1)"><tspan x="0" y="0">95</tspan></text>
    </g>
    <g class="st2">
      <text class="st1" transform="translate(537.1 540.3) scale(1 -1)"><tspan x="0" y="0">96</tspan></text>
    </g>
    <g class="st2">
      <text class="st1" transform="translate(518.3 537.1) scale(1 -1)"><tspan x="0" y="0">97</tspan></text>
    </g>
    <g class="st2">
      <text class="st1" transform="translate(508.5 537.1) scale(1 -1)"><tspan x="0" y="0">98</tspan></text>
    </g>
    <g class="st2">
      <text class="st1" transform="translate(483.6 537.1) scale(1 -1)"><tspan x="0" y="0">99</tspan></text>
    </g>
    <g class="st2">
      <text class="st1" transform="translate(471.9 537.1) scale(1 -1)"><tspan x="0" y="0">100</tspan></text>
    </g>
    <g class="st2">
      <text class="st1" transform="translate(453.5 540.2) scale(1 -1)"><tspan x="0" y="0">101</tspan></text>
    </g>
    <g class="st2">
      <text class="st1" transform="translate(442.2 528.5) scale(1 -1)"><tspan x="0" y="0">102</tspan></text>
    </g>
    <g class="st2">
      <text class="st1" transform="translate(424.9 542) scale(1 -1)"><tspan x="0" y="0">103</tspan></text>
    </g>
    <g class="st2">
      <text class="st1" transform="translate(409.9 542) scale(1 -1)"><tspan x="0" y="0">104</tspan></text>
    </g>
    <g class="st2">
      <text class="st1" transform="translate(373.8 542) scale(1 -1)"><tspan x="0" y="0">105</tspan></text>
    </g>
    <g class="st2">
      <text class="st1" transform="translate(358.8 542) scale(1 -1)"><tspan x="0" y="0">106</tspan></text>
    </g>
    <g class="st2">
      <text class="st1" transform="translate(340.9 495.6) scale(1 -1)"><tspan x="0" y="0">107</tspan></text>
    </g>
    <g class="st2">
      <text class="st1" transform="translate(330.2 540.4) scale(1 -1)"><tspan x="0" y="0">108</tspan></text>
    </g>
    <g class="st2">
      <text class="st1" transform="translate(313.1 536.7) scale(1 -1)"><tspan x="0" y="0">109</tspan></text>
    </g>
    <g class="st2">
      <text class="st1" transform="translate(294.4 536.7) scale(1 -1)"><tspan x="0" y="0">110</tspan></text>
    </g>
    <g class="st2">
      <text class="st1" transform="translate(282 536.7) scale(1 -1)"><tspan x="0" y="0">111</tspan></text>
    </g>
    <g class="st2">
      <text class="st1" transform="translate(267.6 536.7) scale(1 -1)"><tspan x="0" y="0">112</tspan></text>
    </g>
    <g class="st2">
      <text class="st1" transform="translate(249.1 540.3) scale(1 -1)"><tspan x="0" y="0">113</tspan></text>
    </g>
    <g class="st2">
      <text class="st1" transform="translate(213.5 540.3) scale(1 -1)"><tspan x="0" y="0">114</tspan></text>
    </g>
    <g class="st2">
      <text class="st1" transform="translate(199 540.3) scale(1 -1)"><tspan x="0" y="0">115</tspan></text>
    </g>
    <g class="st2">
      <text class="st1" transform="translate(179.2 540.3) scale(1 -1)"><tspan x="0" y="0">116</tspan></text>
    </g>
    <g class="st2">
      <text class="st1" transform="translate(142.9 540.3) scale(1 -1)"><tspan x="0" y="0">117</tspan></text>
    </g>
    <g class="st2">
      <text class="st1" transform="translate(126.2 497.3) scale(1 -1)"><tspan x="0" y="0">118</tspan></text>
    </g>
    <g class="st2">
      <text class="st1" transform="translate(113.1 514.7) scale(1 -1)"><tspan x="0" y="0">119</tspan></text>
    </g>
    <g class="st2">
      <text class="st1" transform="translate(103.1 540.3) scale(1 -1)"><tspan x="0" y="0">120</tspan></text>
    </g>
    <g class="st2">
      <text class="st1" transform="translate(83.2 540.3) scale(1 -1)"><tspan x="0" y="0">121</tspan></text>
    </g>
    <g class="st2">
      <text class="st1" transform="translate(84.7 507.7) scale(1 -1)"><tspan x="0" y="0">122</tspan></text>
    </g>
    <g class="st2">
      <text class="st1" transform="translate(91.2 473.8) scale(1 -1)"><tspan x="0" y="0">123</tspan></text>
    </g>
    <g class="st2">
      <text class="st1" transform="translate(86.7 446.1) scale(1 -1)"><tspan x="0" y="0">124</tspan></text>
    </g>
    <g class="st2">
      <text class="st1" transform="translate(102.8 419.3) scale(1 -1)"><tspan x="0" y="0">125</tspan></text>
    </g>
    <g class="st2">
      <text class="st1" transform="translate(123 412.8) scale(1 -1)"><tspan x="0" y="0">126</tspan></text>
    </g>
    <g class="st2">
      <text class="st1" transform="translate(132.8 398.3) scale(1 -1)"><tspan x="0" y="0">128</tspan></text>
    </g>
    <g class="st2">
      <text class="st1" transform="translate(453.5 520.4) scale(1 -1)"><tspan x="0" y="0">129</tspan></text>
    </g>
    <g class="st2">
      <text class="st1" transform="translate(453.5 497.4) scale(1 -1)"><tspan x="0" y="0">130</tspan></text>
    </g>
    <g class="st2">
      <text class="st1" transform="translate(442.4 493.1) scale(1 -1)"><tspan x="0" y="0">131</tspan></text>
    </g>
    <g class="st2">
      <text class="st1" transform="translate(453.5 459.6) scale(1 -1)"><tspan x="0" y="0">132</tspan></text>
    </g>
    <g class="st2">
      <text class="st1" transform="translate(442.4 460.2) scale(1 -1)"><tspan x="0" y="0">133</tspan></text>
    </g>
    <g class="st2">
      <text class="st1" transform="translate(456.6 436.7) scale(1 -1)"><tspan x="0" y="0">134</tspan></text>
    </g>
    <g class="st2">
      <text class="st1" transform="translate(440.9 436.6) scale(1 -1)"><tspan x="0" y="0">135</tspan></text>
    </g>
    <g class="st2">
      <text class="st1" transform="translate(447.8 414.8) scale(1 -1)"><tspan x="0" y="0">136</tspan></text>
    </g>
    <g class="st2">
      <text class="st1" transform="translate(434.8 420.8) scale(1 -1)"><tspan x="0" y="0">137</tspan></text>
    </g>
    <g class="st2">
      <text class="st1" transform="translate(426.6 389.2) scale(1 -1)"><tspan x="0" y="0">138</tspan></text>
    </g>
    <g class="st2">
      <text class="st1" transform="translate(425.3 408.7) scale(1 -1)"><tspan x="0" y="0">139</tspan></text>
    </g>
    <g class="st2">
      <text class="st1" transform="translate(414.9 400.7) scale(1 -1)"><tspan x="0" y="0">140</tspan></text>
    </g>
    <g class="st2">
      <text class="st1" transform="translate(401.8 380.2) scale(1 -1)"><tspan x="0" y="0">141</tspan></text>
    </g>
    <g class="st2">
      <text class="st1" transform="translate(404.8 396.3) scale(1 -1)"><tspan x="0" y="0">142</tspan></text>
    </g>
    <g class="st2">
      <text class="st1" transform="translate(395.9 394.8) scale(1 -1)"><tspan x="0" y="0">143</tspan></text>
    </g>
    <g class="st2">
      <text class="st1" transform="translate(381.4 380.1) scale(1 -1)"><tspan x="0" y="0">144</tspan></text>
    </g>
    <g class="st2">
      <text class="st1" transform="translate(387.2 394.9) scale(1 -1)"><tspan x="0" y="0">145</tspan></text>
    </g>
    <g class="st2">
      <text class="st1" transform="translate(378.3 396.3) scale(1 -1)"><tspan x="0" y="0">146</tspan></text>
    </g>
    <g class="st2">
      <text class="st1" transform="translate(363.5 385) scale(1 -1)"><tspan x="0" y="0">147</tspan></text>
    </g>
    <g class="st2">
      <text class="st1" transform="translate(368.2 400.6) scale(1 -1)"><tspan x="0" y="0">148</tspan></text>
    </g>
    <g class="st2">
      <text class="st1" transform="translate(347.5 385.7) scale(1 -1)"><tspan x="0" y="0">149</tspan></text>
    </g>
    <g class="st2">
      <text class="st1" transform="translate(357.7 408.7) scale(1 -1)"><tspan x="0" y="0">150</tspan></text>
    </g>
    <g class="st2">
      <text class="st1" transform="translate(336.1 401.8) scale(1 -1)"><tspan x="0" y="0">151</tspan></text>
    </g>
    <g class="st2">
      <text class="st1" transform="translate(348.3 420.8) scale(1 -1)"><tspan x="0" y="0">152</tspan></text>
    </g>
    <g class="st2">
      <text class="st1" transform="translate(328.7 438.3) scale(1 -1)"><tspan x="0" y="0">153</tspan></text>
    </g>
    <g class="st2">
      <text class="st1" transform="translate(342.3 436.6) scale(1 -1)"><tspan x="0" y="0">154</tspan></text>
    </g>
    <g class="st2">
      <text class="st1" transform="translate(326.8 486.8) scale(1 -1)"><tspan x="0" y="0">155</tspan></text>
    </g>
    <g class="st2">
      <text class="st1" transform="translate(330.2 516.8) scale(1 -1)"><tspan x="0" y="0">156</tspan></text>
    </g>
    <g class="st2">
      <text class="st1" transform="translate(324.5 351.1) scale(1 -1)"><tspan x="0" y="0">157</tspan></text>
    </g>
    <g class="st2">
      <text class="st1" transform="translate(341.7 328.3) scale(1 -1)"><tspan x="0" y="0">158</tspan></text>
    </g>
    <g class="st2">
      <text class="st1" transform="translate(333.3 353) scale(1 -1)"><tspan x="0" y="0">159</tspan></text>
    </g>
    <g class="st2">
      <text class="st1" transform="translate(323.8 396) scale(1 -1)"><tspan x="0" y="0">160</tspan></text>
    </g>
    <g class="st2">
      <text class="st1" transform="translate(325.1 531.2) scale(1 -1)"><tspan x="0" y="0">161</tspan></text>
    </g>
    <g class="st2">
      <text class="st1" transform="translate(151.2 414.9) scale(1 -1)"><tspan x="0" y="0">162</tspan></text>
    </g>
    <g class="st2">
      <text class="st1" transform="translate(150.3 400.5) scale(1 -1)"><tspan x="0" y="0">163</tspan></text>
    </g>
    <g class="st2">
      <text class="st1" transform="translate(195.3 414.9) scale(1 -1)"><tspan x="0" y="0">164</tspan></text>
    </g>
    <g class="st2">
      <text class="st1" transform="translate(195.4 400.5) scale(1 -1)"><tspan x="0" y="0">165</tspan></text>
    </g>
    <g class="st2">
      <text class="st1" transform="translate(241.3 414.9) scale(1 -1)"><tspan x="0" y="0">166</tspan></text>
    </g>
    <g class="st2">
      <text class="st1" transform="translate(239.5 400.5) scale(1 -1)"><tspan x="0" y="0">167</tspan></text>
    </g>
    <g class="st2">
      <text class="st1" transform="translate(269.2 414.9) scale(1 -1)"><tspan x="0" y="0">168</tspan></text>
    </g>
    <g class="st2">
      <text class="st1" transform="translate(269.2 400.5) scale(1 -1)"><tspan x="0" y="0">169</tspan></text>
    </g>
    <g class="st2">
      <text class="st1" transform="translate(133.7 421.7) scale(1 -1)"><tspan x="0" y="0">170</tspan></text>
    </g>
    <g class="st2">
      <text class="st1" transform="translate(124 446.1) scale(1 -1)"><tspan x="0" y="0">171</tspan></text>
    </g>
    <g class="st2">
      <text class="st1" transform="translate(134.8 436.8) scale(1 -1)"><tspan x="0" y="0">172</tspan></text>
    </g>
    <g class="st2">
      <text class="st1" transform="translate(124 464.4) scale(1 -1)"><tspan x="0" y="0">173</tspan></text>
    </g>
    <g class="st2">
      <text class="st1" transform="translate(101.6 454) scale(1 -1)"><tspan x="0" y="0">174</tspan></text>
    </g>
    <g class="st2">
      <text class="st1" transform="translate(108.2 467.9) scale(1 -1)"><tspan x="0" y="0">175</tspan></text>
    </g>
    <g class="st2">
      <text class="st1" transform="translate(112.2 443.1) scale(1 -1)"><tspan x="0" y="0">176</tspan></text>
    </g>
    <g class="st2">
      <text class="st1" transform="translate(99.3 433.8) scale(1 -1)"><tspan x="0" y="0">177</tspan></text>
    </g>
    <g class="st2">
      <text class="st1" transform="translate(96.5 493.4) scale(1 -1)"><tspan x="0" y="0">178</tspan></text>
    </g>
    <g class="st2">
      <text class="st1" transform="translate(104.6 512.6) scale(1 -1)"><tspan x="0" y="0">179</tspan></text>
    </g>
    <g class="st2">
      <text class="st1" transform="translate(193.5 530.7) scale(1 -1)"><tspan x="0" y="0">180</tspan></text>
    </g>
    <g class="st2">
      <text class="st1" transform="translate(183.6 506.2) scale(1 -1)"><tspan x="0" y="0">181</tspan></text>
    </g>
    <g class="st2">
      <text class="st1" transform="translate(193.5 499.6) scale(1 -1)"><tspan x="0" y="0">182</tspan></text>
    </g>
    <g class="st2">
      <text class="st1" transform="translate(176.4 477) scale(1 -1)"><tspan x="0" y="0">183</tspan></text>
    </g>
    <g class="st2">
      <text class="st1" transform="translate(161.1 468.7) scale(1 -1)"><tspan x="0" y="0">184</tspan></text>
    </g>
    <g class="st2">
      <text class="st1" transform="translate(145.7 477) scale(1 -1)"><tspan x="0" y="0">185</tspan></text>
    </g>
    <g class="st2">
      <text class="st1" transform="translate(138.2 506.2) scale(1 -1)"><tspan x="0" y="0">186</tspan></text>
    </g>
    <g class="st2">
      <text class="st1" transform="translate(262.8 527.5) scale(1 -1)"><tspan x="0" y="0">187</tspan></text>
    </g>
    <g class="st2">
      <text class="st1" transform="translate(253.6 506.2) scale(1 -1)"><tspan x="0" y="0">188</tspan></text>
    </g>
    <g class="st2">
      <text class="st1" transform="translate(262.8 502.8) scale(1 -1)"><tspan x="0" y="0">189</tspan></text>
    </g>
    <g class="st2">
      <text class="st1" transform="translate(257.4 466.5) scale(1 -1)"><tspan x="0" y="0">190</tspan></text>
    </g>
    <g class="st2">
      <text class="st1" transform="translate(246.2 477) scale(1 -1)"><tspan x="0" y="0">191</tspan></text>
    </g>
    <g class="st2">
      <text class="st1" transform="translate(231 468.7) scale(1 -1)"><tspan x="0" y="0">192</tspan></text>
    </g>
    <g class="st2">
      <text class="st1" transform="translate(211.4 463.6) scale(1 -1)"><tspan x="0" y="0">193</tspan></text>
    </g>
    <g class="st2">
      <text class="st1" transform="translate(215.8 476.9) scale(1 -1)"><tspan x="0" y="0">194</tspan></text>
    </g>
    <g class="st2">
      <text class="st1" transform="translate(199 488.3) scale(1 -1)"><tspan x="0" y="0">195</tspan></text>
    </g>
    <g class="st2">
      <text class="st1" transform="translate(209 506.2) scale(1 -1)"><tspan x="0" y="0">196</tspan></text>
    </g>
    <g class="st2">
      <text class="st1" transform="translate(199 514.8) scale(1 -1)"><tspan x="0" y="0">197</tspan></text>
    </g>
    <g class="st2">
      <text class="st1" transform="translate(586 516.5) scale(1 -1)"><tspan x="0" y="0">198</tspan></text>
    </g>
    <g class="st2">
      <text class="st1" transform="translate(576.4 506.2) scale(1 -1)"><tspan x="0" y="0">199</tspan></text>
    </g>
    <g class="st2">
      <text class="st1" transform="translate(586.8 486.4) scale(1 -1)"><tspan x="0" y="0">200</tspan></text>
    </g>
    <g class="st2">
      <text class="st1" transform="translate(578.2 462.4) scale(1 -1)"><tspan x="0" y="0">201</tspan></text>
    </g>
    <g class="st2">
      <text class="st1" transform="translate(569 477) scale(1 -1)"><tspan x="0" y="0">202</tspan></text>
    </g>
    <g class="st2">
      <text class="st1" transform="translate(553.8 468.8) scale(1 -1)"><tspan x="0" y="0">203</tspan></text>
    </g>
    <g class="st2">
      <text class="st1" transform="translate(540.3 452.5) scale(1 -1)"><tspan x="0" y="0">204</tspan></text>
    </g>
    <g class="st2">
      <text class="st1" transform="translate(538.7 476.9) scale(1 -1)"><tspan x="0" y="0">205</tspan></text>
    </g>
    <g class="st2">
      <text class="st1" transform="translate(520.2 501.9) scale(1 -1)"><tspan x="0" y="0">206</tspan></text>
    </g>
    <g class="st2">
      <text class="st1" transform="translate(532 506.2) scale(1 -1)"><tspan x="0" y="0">207</tspan></text>
    </g>
    <g class="st2">
      <text class="st1" transform="translate(522.6 531.4) scale(1 -1)"><tspan x="0" y="0">208</tspan></text>
    </g>
    <g class="st2">
      <text class="st1" transform="translate(657.5 504.6) scale(1 -1)"><tspan x="0" y="0">209</tspan></text>
    </g>
    <g class="st2">
      <text class="st1" transform="translate(645 506.2) scale(1 -1)"><tspan x="0" y="0">210</tspan></text>
    </g>
    <g class="st2">
      <text class="st1" transform="translate(646.9 462.6) scale(1 -1)"><tspan x="0" y="0">211</tspan></text>
    </g>
    <g class="st2">
      <text class="st1" transform="translate(637.7 477) scale(1 -1)"><tspan x="0" y="0">212</tspan></text>
    </g>
    <g class="st2">
      <text class="st1" transform="translate(622.5 468.7) scale(1 -1)"><tspan x="0" y="0">213</tspan></text>
    </g>
    <g class="st2">
      <text class="st1" transform="translate(618.2 454.6) scale(1 -1)"><tspan x="0" y="0">214</tspan></text>
    </g>
    <g class="st2">
      <text class="st1" transform="translate(607.3 476.9) scale(1 -1)"><tspan x="0" y="0">215</tspan></text>
    </g>
    <g class="st2">
      <text class="st1" transform="translate(591.1 501.3) scale(1 -1)"><tspan x="0" y="0">216</tspan></text>
    </g>
    <g class="st2">
      <text class="st1" transform="translate(600.7 506.2) scale(1 -1)"><tspan x="0" y="0">217</tspan></text>
    </g>
    <g class="st2">
      <text class="st1" transform="translate(591.1 531.7) scale(1 -1)"><tspan x="0" y="0">218</tspan></text>
    </g>
    <g class="st2">
      <text class="st1" transform="translate(217.9 491) scale(1 -1)"><tspan x="0" y="0">219</tspan></text>
    </g>
    <g class="st2">
      <text class="st1" transform="translate(226.8 506.2) scale(1 -1)"><tspan x="0" y="0">220</tspan></text>
    </g>
    <g class="st2">
      <text class="st1" transform="translate(217.9 521.4) scale(1 -1)"><tspan x="0" y="0">221</tspan></text>
    </g>
    <g class="st2">
      <text class="st1" transform="translate(222.4 534.7) scale(1 -1)"><tspan x="0" y="0">222</tspan></text>
    </g>
    <g class="st2">
      <text class="st1" transform="translate(240.2 534.7) scale(1 -1)"><tspan x="0" y="0">223</tspan></text>
    </g>
    <g class="st2">
      <text class="st1" transform="translate(244.7 521.4) scale(1 -1)"><tspan x="0" y="0">224</tspan></text>
    </g>
    <g class="st2">
      <text class="st1" transform="translate(147.5 491) scale(1 -1)"><tspan x="0" y="0">225</tspan></text>
    </g>
    <g class="st2">
      <text class="st1" transform="translate(156.9 506.2) scale(1 -1)"><tspan x="0" y="0">226</tspan></text>
    </g>
    <g class="st2">
      <text class="st1" transform="translate(147.5 521.4) scale(1 -1)"><tspan x="0" y="0">227</tspan></text>
    </g>
    <g class="st2">
      <text class="st1" transform="translate(152.2 534.7) scale(1 -1)"><tspan x="0" y="0">228</tspan></text>
    </g>
    <g class="st2">
      <text class="st1" transform="translate(170.4 534.7) scale(1 -1)"><tspan x="0" y="0">229</tspan></text>
    </g>
    <g class="st2">
      <text class="st1" transform="translate(174.8 521.4) scale(1 -1)"><tspan x="0" y="0">230</tspan></text>
    </g>
    <g class="st2">
      <text class="st1" transform="translate(540.8 491) scale(1 -1)"><tspan x="0" y="0">231</tspan></text>
    </g>
    <g class="st2">
      <text class="st1" transform="translate(549.7 506.2) scale(1 -1)"><tspan x="0" y="0">232</tspan></text>
    </g>
    <g class="st2">
      <text class="st1" transform="translate(540.8 521.4) scale(1 -1)"><tspan x="0" y="0">233</tspan></text>
    </g>
    <g class="st2">
      <text class="st1" transform="translate(545.3 534.7) scale(1 -1)"><tspan x="0" y="0">234</tspan></text>
    </g>
    <g class="st2">
      <text class="st1" transform="translate(563 534.7) scale(1 -1)"><tspan x="0" y="0">235</tspan></text>
    </g>
    <g class="st2">
      <text class="st1" transform="translate(567.5 521.4) scale(1 -1)"><tspan x="0" y="0">236</tspan></text>
    </g>
    <g class="st2">
      <text class="st1" transform="translate(609.5 491) scale(1 -1)"><tspan x="0" y="0">237</tspan></text>
    </g>
    <g class="st2">
      <text class="st1" transform="translate(618.3 506.2) scale(1 -1)"><tspan x="0" y="0">238</tspan></text>
    </g>
    <g class="st2">
      <text class="st1" transform="translate(609.5 521.4) scale(1 -1)"><tspan x="0" y="0">239</tspan></text>
    </g>
    <g class="st2">
      <text class="st1" transform="translate(613.9 534.7) scale(1 -1)"><tspan x="0" y="0">240</tspan></text>
    </g>
    <g class="st2">
      <text class="st1" transform="translate(631.7 534.7) scale(1 -1)"><tspan x="0" y="0">241</tspan></text>
    </g>
    <g class="st2">
      <text class="st1" transform="translate(636.1 521.4) scale(1 -1)"><tspan x="0" y="0">242</tspan></text>
    </g>
    <g class="st2">
      <text class="st1" transform="translate(94.7 522.9) scale(1 -1)"><tspan x="0" y="0">243</tspan></text>
    </g>
    <g class="st2">
      <text class="st1" transform="translate(93.1 534.7) scale(1 -1)"><tspan x="0" y="0">244</tspan></text>
    </g>
    <g class="st2">
      <text class="st1" transform="translate(682.6 453.8) scale(1 -1)"><tspan x="0" y="0">245</tspan></text>
    </g>
    <g class="st2">
      <text class="st1" transform="translate(675.4 466.3) scale(1 -1)"><tspan x="0" y="0">247</tspan></text>
    </g>
    <g class="st2">
      <text class="st1" transform="translate(673.2 478) scale(1 -1)"><tspan x="0" y="0">248</tspan></text>
    </g>
    <g class="st2">
      <text class="st1" transform="translate(689 477) scale(1 -1)"><tspan x="0" y="0">249</tspan></text>
    </g>
    <g class="st2">
      <text class="st1" transform="translate(672.1 504.6) scale(1 -1)"><tspan x="0" y="0">250</tspan></text>
    </g>
    <g class="st2">
      <text class="st1" transform="translate(680.8 506.2) scale(1 -1)"><tspan x="0" y="0">251</tspan></text>
    </g>
    <g class="st2">
      <text class="st1" transform="translate(690.9 491) scale(1 -1)"><tspan x="0" y="0">252</tspan></text>
    </g>
    <g class="st2">
      <text class="st1" transform="translate(690.9 521.4) scale(1 -1)"><tspan x="0" y="0">253</tspan></text>
    </g>
    <g class="st2">
      <text class="st1" transform="translate(279 338.3) scale(1 -1)"><tspan x="0" y="0">254</tspan></text>
    </g>
    <g class="st2">
      <text class="st1" transform="translate(280.2 368.8) scale(1 -1)"><tspan x="0" y="0">255</tspan></text>
    </g>
    <g class="st2">
      <text class="st1" transform="translate(240.4 372.1) scale(1 -1)"><tspan x="0" y="0">256</tspan></text>
    </g>
    <g class="st2">
      <text class="st1" transform="translate(260.2 377.4) scale(1 -1)"><tspan x="0" y="0">257</tspan></text>
    </g>
    <g class="st2">
      <text class="st1" transform="translate(256.9 392.8) scale(1 -1)"><tspan x="0" y="0">259</tspan></text>
    </g>
    <g class="st2">
      <text class="st1" transform="translate(661.1 412.6) scale(1 -1)"><tspan x="0" y="0">261</tspan></text>
    </g>
    <g class="st2">
      <text class="st1" transform="translate(634 400.5) scale(1 -1)"><tspan x="0" y="0">262</tspan></text>
    </g>
    <g class="st2">
      <text class="st1" transform="translate(633.4 414.9) scale(1 -1)"><tspan x="0" y="0">263</tspan></text>
    </g>
    <g class="st2">
      <text class="st1" transform="translate(612.9 421.7) scale(1 -1)"><tspan x="0" y="0">265</tspan></text>
    </g>
    <g class="st2">
      <text class="st1" transform="translate(588.7 400.5) scale(1 -1)"><tspan x="0" y="0">266</tspan></text>
    </g>
    <g class="st2">
      <text class="st1" transform="translate(589 414.9) scale(1 -1)"><tspan x="0" y="0">267</tspan></text>
    </g>
    <g class="st2">
      <text class="st1" transform="translate(567.7 392.8) scale(1 -1)"><tspan x="0" y="0">268</tspan></text>
    </g>
    <g class="st2">
      <text class="st1" transform="translate(545.8 400.5) scale(1 -1)"><tspan x="0" y="0">270</tspan></text>
    </g>
    <g class="st2">
      <text class="st1" transform="translate(543.7 415.1) scale(1 -1)"><tspan x="0" y="0">271</tspan></text>
    </g>
    <g class="st2">
      <text class="st1" transform="translate(516.2 400.5) scale(1 -1)"><tspan x="0" y="0">272</tspan></text>
    </g>
    <g class="st2">
      <text class="st1" transform="translate(516.2 411.3) scale(1 -1)"><tspan x="0" y="0">273</tspan></text>
    </g>
    <g class="st2">
      <text class="st1" transform="translate(651.2 421.7) scale(1 -1)"><tspan x="0" y="0">274</tspan></text>
    </g>
    <g class="st2">
      <text class="st1" transform="translate(650.2 436.8) scale(1 -1)"><tspan x="0" y="0">275</tspan></text>
    </g>
    <g class="st2">
      <text class="st1" transform="translate(660 446) scale(1 -1)"><tspan x="0" y="0">276</tspan></text>
    </g>
    <g class="st2">
      <text class="st1" transform="translate(660 464.4) scale(1 -1)"><tspan x="0" y="0">277</tspan></text>
    </g>
    <g class="st2">
      <text class="st1" transform="translate(684.9 433.8) scale(1 -1)"><tspan x="0" y="0">278</tspan></text>
    </g>
    <g class="st2">
      <text class="st1" transform="translate(673.4 442.9) scale(1 -1)"><tspan x="0" y="0">279</tspan></text>
    </g>
    <g class="st2">
      <text class="st1" transform="translate(352.8 529.4) scale(1 -1)"><tspan x="0" y="0">280</tspan></text>
    </g>
    <g class="st2">
      <text class="st1" transform="translate(354.8 491.7) scale(1 -1)"><tspan x="0" y="0">281</tspan></text>
    </g>
    <g class="st2">
      <text class="st1" transform="translate(361.6 455.7) scale(1 -1)"><tspan x="0" y="0">282</tspan></text>
    </g>
    <g class="st2">
      <text class="st1" transform="translate(364.6 437.6) scale(1 -1)"><tspan x="0" y="0">283</tspan></text>
    </g>
    <g class="st2">
      <text class="st1" transform="translate(374.7 424.9) scale(1 -1)"><tspan x="0" y="0">284</tspan></text>
    </g>
    <g class="st2">
      <text class="st1" transform="translate(395.1 420.3) scale(1 -1)"><tspan x="0" y="0">285</tspan></text>
    </g>
    <g class="st2">
      <text class="st1" transform="translate(411.3 427.1) scale(1 -1)"><tspan x="0" y="0">286</tspan></text>
    </g>
    <g class="st2">
      <text class="st1" transform="translate(418.5 437.6) scale(1 -1)"><tspan x="0" y="0">287</tspan></text>
    </g>
    <g class="st2">
      <text class="st1" transform="translate(421.7 455.3) scale(1 -1)"><tspan x="0" y="0">288</tspan></text>
    </g>
    <g class="st2">
      <text class="st1" transform="translate(431 495) scale(1 -1)"><tspan x="0" y="0">289</tspan></text>
    </g>
    <g class="st2">
      <text class="st1" transform="translate(430.9 529.5) scale(1 -1)"><tspan x="0" y="0">290</tspan></text>
    </g>
    <g class="st2">
      <text class="st1" transform="translate(385.4 328) scale(1 -1)"><tspan x="0" y="0">291</tspan></text>
    </g>
    <g class="st2">
      <text class="st1" transform="translate(353.3 352.3) scale(1 -1)"><tspan x="0" y="0">292</tspan></text>
    </g>
    <g class="st2">
      <text class="st1" transform="translate(366.5 350.2) scale(1 -1)"><tspan x="0" y="0">293</tspan></text>
    </g>
    <g class="st2">
      <text class="st1" transform="translate(343.5 339.8) scale(1 -1)"><tspan x="0" y="0">294</tspan></text>
    </g>
    <g class="st2">
      <text class="st1" transform="translate(343.1 365.5) scale(1 -1)"><tspan x="0" y="0">295</tspan></text>
    </g>
    <g class="st2">
      <text class="st1" transform="translate(379.4 337.7) scale(1 -1)"><tspan x="0" y="0">296</tspan></text>
    </g>
    <g class="st2">
      <text class="st1" transform="translate(372.5 367.5) scale(1 -1)"><tspan x="0" y="0">297</tspan></text>
    </g>
    <g class="st2">
      <text class="st1" transform="translate(391.5 374.3) scale(1 -1)"><tspan x="0" y="0">298</tspan></text>
    </g>
    <g class="st2">
      <text class="st1" transform="translate(413.8 354.4) scale(1 -1)"><tspan x="0" y="0">299</tspan></text>
    </g>
    <g class="st2">
      <text class="st1" transform="translate(401.6 338.9) scale(1 -1)"><tspan x="0" y="0">300</tspan></text>
    </g>
    <g class="st2">
      <text class="st1" transform="translate(430.6 353.4) scale(1 -1)"><tspan x="0" y="0">301</tspan></text>
    </g>
    <g class="st2">
      <text class="st1" transform="translate(443.4 383.4) scale(1 -1)"><tspan x="0" y="0">302</tspan></text>
    </g>
    <g class="st2">
      <text class="st1" transform="translate(426 154.3) scale(1 -1)"><tspan x="0" y="0">303</tspan></text>
    </g>
    <g class="st2">
      <text class="st1" transform="translate(423.4 144.1) scale(1 -1)"><tspan x="0" y="0">304</tspan></text>
    </g>
    <g class="st2">
      <text class="st1" transform="translate(498.7 126.5) scale(1 -1)"><tspan x="0" y="0">305</tspan></text>
    </g>
    <g class="st2">
      <text class="st1" transform="translate(471.4 154.3) scale(1 -1)"><tspan x="0" y="0">306</tspan></text>
    </g>
    <g class="st2">
      <text class="st1" transform="translate(489.9 153.9) scale(1 -1)"><tspan x="0" y="0">307</tspan></text>
    </g>
    <g class="st2">
      <text class="st1" transform="translate(486.8 165.5) scale(1 -1)"><tspan x="0" y="0">309</tspan></text>
    </g>
    <g class="st2">
      <text class="st1" transform="translate(470.9 164.4) scale(1 -1)"><tspan x="0" y="0">310</tspan></text>
    </g>
    <g class="st2">
      <text class="st1" transform="translate(445.3 165.6) scale(1 -1)"><tspan x="0" y="0">311</tspan></text>
    </g>
    <g class="st2">
      <text class="st1" transform="translate(405.1 165.6) scale(1 -1)"><tspan x="0" y="0">312</tspan></text>
    </g>
    <g class="st2">
      <text class="st1" transform="translate(387.2 169.3) scale(1 -1)"><tspan x="0" y="0">313</tspan></text>
    </g>
    <g class="st2">
      <text class="st1" transform="translate(332.4 317.4) scale(1 -1)"><tspan x="0" y="0">314</tspan></text>
    </g>
    <g class="st2">
      <text class="st1" transform="translate(360.7 304.9) scale(1 -1)"><tspan x="0" y="0">315</tspan></text>
    </g>
    <g class="st2">
      <text class="st1" transform="translate(379.2 317.2) scale(1 -1)"><tspan x="0" y="0">316</tspan></text>
    </g>
    <g class="st2">
      <text class="st1" transform="translate(332.5 292.1) scale(1 -1)"><tspan x="0" y="0">317</tspan></text>
    </g>
    <g class="st2">
      <text class="st1" transform="translate(379.6 292.3) scale(1 -1)"><tspan x="0" y="0">318</tspan></text>
    </g>
    <g class="st2">
      <text class="st1" transform="translate(400.7 304.6) scale(1 -1)"><tspan x="0" y="0">319</tspan></text>
    </g>
    <g class="st2">
      <text class="st1" transform="translate(438.9 317.3) scale(1 -1)"><tspan x="0" y="0">320</tspan></text>
    </g>
    <g class="st2">
      <text class="st1" transform="translate(443.2 290.5) scale(1 -1)"><tspan x="0" y="0">321</tspan></text>
    </g>
    <g class="st2">
      <text class="st1" transform="translate(329.6 172) scale(1 -1)"><tspan x="0" y="0">322</tspan></text>
    </g>
    <g class="st2">
      <text class="st1" transform="translate(337 193.3) scale(1 -1)"><tspan x="0" y="0">323</tspan></text>
    </g>
    <g class="st2">
      <text class="st1" transform="translate(349.9 187.7) scale(1 -1)"><tspan x="0" y="0">324</tspan></text>
    </g>
    <g class="st2">
      <text class="st1" transform="translate(329.6 184) scale(1 -1)"><tspan x="0" y="0">325</tspan></text>
    </g>
    <g class="st2">
      <text class="st1" transform="translate(317.6 184) scale(1 -1)"><tspan x="0" y="0">326</tspan></text>
    </g>
    <g class="st2">
      <text class="st1" transform="translate(309.5 195.7) scale(1 -1)"><tspan x="0" y="0">327</tspan></text>
    </g>
    <g class="st2">
      <text class="st1" transform="translate(351.8 172) scale(1 -1)"><tspan x="0" y="0">328</tspan></text>
    </g>
    <g class="st2">
      <text class="st1" transform="translate(364.6 169.4) scale(1 -1)"><tspan x="0" y="0">329</tspan></text>
    </g>
    <g class="st2">
      <text class="st1" transform="translate(336.4 207.3) scale(1 -1)"><tspan x="0" y="0">330</tspan></text>
    </g>
    <g class="st2">
      <text class="st1" transform="translate(329.1 215.6) scale(1 -1)"><tspan x="0" y="0">331</tspan></text>
    </g>
    <g class="st2">
      <text class="st1" transform="translate(337.9 232.1) scale(1 -1)"><tspan x="0" y="0">332</tspan></text>
    </g>
    <g class="st2">
      <text class="st1" transform="translate(355.8 258.7) scale(1 -1)"><tspan x="0" y="0">333</tspan></text>
    </g>
    <g class="st2">
      <text class="st1" transform="translate(339.9 249.2) scale(1 -1)"><tspan x="0" y="0">334</tspan></text>
    </g>
    <g class="st2">
      <text class="st1" transform="translate(317.6 213.4) scale(1 -1)"><tspan x="0" y="0">335</tspan></text>
    </g>
    <g class="st2">
      <text class="st1" transform="translate(309.5 237.3) scale(1 -1)"><tspan x="0" y="0">336</tspan></text>
    </g>
    <g class="st2">
      <text class="st1" transform="translate(381.7 275.6) scale(1 -1)"><tspan x="0" y="0">337</tspan></text>
    </g>
    <g class="st2">
      <text class="st0" transform="translate(366.1 281) scale(1 -1)"><tspan x="0" y="0">338</tspan></text>
    </g>
    <g class="st2">
      <text class="st1" transform="translate(352.6 276.7) scale(1 -1)"><tspan x="0" y="0">339</tspan></text>
    </g>
    <g class="st2">
      <text class="st1" transform="translate(339.9 278.1) scale(1 -1)"><tspan x="0" y="0">340</tspan></text>
    </g>
    <g class="st2">
      <text class="st1" transform="translate(331 258.1) scale(1 -1)"><tspan x="0" y="0">341</tspan></text>
    </g>
    <g class="st2">
      <text class="st1" transform="translate(317.6 256.6) scale(1 -1)"><tspan x="0" y="0">342</tspan></text>
    </g>
    <g class="st2">
      <text class="st1" transform="translate(404.8 272) scale(1 -1)"><tspan x="0" y="0">343</tspan></text>
    </g>
    <g class="st2">
      <text class="st1" transform="translate(435.6 279.5) scale(1 -1)"><tspan x="0" y="0">344</tspan></text>
    </g>
    <g class="st2">
      <text class="st1" transform="translate(437.8 263.9) scale(1 -1)"><tspan x="0" y="0">345</tspan></text>
    </g>
    <g class="st2">
      <text class="st1" transform="translate(475.5 274.7) scale(1 -1)"><tspan x="0" y="0">346</tspan></text>
    </g>
    <g class="st2">
      <text class="st1" transform="translate(467.4 258.1) scale(1 -1)"><tspan x="0" y="0">347</tspan></text>
    </g>
    <g class="st2">
      <text class="st1" transform="translate(475.5 238.8) scale(1 -1)"><tspan x="0" y="0">348</tspan></text>
    </g>
    <g class="st2">
      <text class="st1" transform="translate(467.4 214.3) scale(1 -1)"><tspan x="0" y="0">349</tspan></text>
    </g>
    <g class="st2">
      <text class="st1" transform="translate(475.5 195.2) scale(1 -1)"><tspan x="0" y="0">350</tspan></text>
    </g>
    <g class="st2">
      <text class="st1" transform="translate(470.9 182.2) scale(1 -1)"><tspan x="0" y="0">351</tspan></text>
    </g>
    <g class="st2">
      <text class="st1" transform="translate(465.9 175.9) scale(1 -1)"><tspan x="0" y="0">352</tspan></text>
    </g>
    <g class="st2">
      <text class="st1" transform="translate(479 170.7) scale(1 -1)"><tspan x="0" y="0">353</tspan></text>
    </g>
    <g class="st2">
      <text class="st1" transform="translate(377.6 175.8) scale(1 -1)"><tspan x="0" y="0">354</tspan></text>
    </g>
    <g class="st2">
      <text class="st1" transform="translate(415.7 172) scale(1 -1)"><tspan x="0" y="0">356</tspan></text>
    </g>
    <g class="st2">
      <text class="st1" transform="translate(450.7 251.2) scale(1 -1)"><tspan x="0" y="0">357</tspan></text>
    </g>
    <g class="st2">
      <text class="st1" transform="translate(447.2 234) scale(1 -1)"><tspan x="0" y="0">358</tspan></text>
    </g>
    <g class="st2">
      <text class="st1" transform="translate(438.5 225.2) scale(1 -1)"><tspan x="0" y="0">359</tspan></text>
    </g>
    <g class="st2">
      <text class="st1" transform="translate(447 207.7) scale(1 -1)"><tspan x="0" y="0">360</tspan></text>
    </g>
    <g class="st2">
      <text class="st1" transform="translate(455.8 216.4) scale(1 -1)"><tspan x="0" y="0">361</tspan></text>
    </g>
    <g class="st2">
      <text class="st1" transform="translate(446.4 193.9) scale(1 -1)"><tspan x="0" y="0">362</tspan></text>
    </g>
    <g class="st2">
      <text class="st1" transform="translate(455.1 183.6) scale(1 -1)"><tspan x="0" y="0">363</tspan></text>
    </g>
    <g class="st2">
      <text class="st1" transform="translate(434.9 188.7) scale(1 -1)"><tspan x="0" y="0">364</tspan></text>
    </g>
    <g class="st2">
      <text class="st1" transform="translate(433.9 172) scale(1 -1)"><tspan x="0" y="0">365</tspan></text>
    </g>
    <g class="st2">
      <text class="st1" transform="translate(455.1 172) scale(1 -1)"><tspan x="0" y="0">366</tspan></text>
    </g>
    <g class="st2">
      <text class="st1" transform="translate(412.7 376) scale(1 -1)"><tspan x="0" y="0">367</tspan></text>
    </g>
    <g class="st2">
      <text class="st1" transform="translate(444.1 367.1) scale(1 -1)"><tspan x="0" y="0">368</tspan></text>
    </g>
    <g class="st2">
      <text class="st1" transform="translate(456.8 399.7) scale(1 -1)"><tspan x="0" y="0">369</tspan></text>
    </g>
    <g class="st2">
      <text class="st1" transform="translate(459.1 479) scale(1 -1)"><tspan x="0" y="0">370</tspan></text>
    </g>
    <g class="st2">
      <text class="st1" transform="translate(459.1 511.9) scale(1 -1)"><tspan x="0" y="0">371</tspan></text>
    </g>
    <g class="st2">
      <text class="st1" transform="translate(459.1 531.3) scale(1 -1)"><tspan x="0" y="0">372</tspan></text>
    </g>
    <g class="st2">
      <text class="st1" transform="translate(470.9 527.7) scale(1 -1)"><tspan x="0" y="0">373</tspan></text>
    </g>
    <g class="st2">
      <text class="st1" transform="translate(470.1 469.5) scale(1 -1)"><tspan x="0" y="0">374</tspan></text>
    </g>
    <g class="st2">
      <text class="st1" transform="translate(490.5 528.2) scale(1 -1)"><tspan x="0" y="0">375</tspan></text>
    </g>
    <g class="st2">
      <text class="st1" transform="translate(490.5 512.9) scale(1 -1)"><tspan x="0" y="0">376</tspan></text>
    </g>
    <g class="st2">
      <text class="st1" transform="translate(483.2 499.1) scale(1 -1)"><tspan x="0" y="0">377</tspan></text>
    </g>
    <g class="st2">
      <text class="st1" transform="translate(502.9 512.5) scale(1 -1)"><tspan x="0" y="0">378</tspan></text>
    </g>
    <g class="st2">
      <text class="st1" transform="translate(502.9 478.3) scale(1 -1)"><tspan x="0" y="0">380</tspan></text>
    </g>
    <g class="st2">
      <text class="st1" transform="translate(490.5 478.9) scale(1 -1)"><tspan x="0" y="0">381</tspan></text>
    </g>
    <g class="st2">
      <text class="st1" transform="translate(483.1 462.3) scale(1 -1)"><tspan x="0" y="0">382</tspan></text>
    </g>
    <g class="st2">
      <text class="st1" transform="translate(502.9 433.5) scale(1 -1)"><tspan x="0" y="0">384</tspan></text>
    </g>
    <g class="st2">
      <text class="st1" transform="translate(490.4 440.4) scale(1 -1)"><tspan x="0" y="0">385</tspan></text>
    </g>
    <g class="st2">
      <text class="st1" transform="translate(483 427.2) scale(1 -1)"><tspan x="0" y="0">387</tspan></text>
    </g>
    <g class="st2">
      <text class="st1" transform="translate(483 401.2) scale(1 -1)"><tspan x="0" y="0">388</tspan></text>
    </g>
    <g class="st2">
      <text class="st1" transform="translate(470.2 396.6) scale(1 -1)"><tspan x="0" y="0">389</tspan></text>
    </g>
    <g class="st2">
      <text class="st1" transform="translate(483 346.4) scale(1 -1)"><tspan x="0" y="0">390</tspan></text>
    </g>
    <g class="st2">
      <text class="st1" transform="translate(490.5 330.1) scale(1 -1)"><tspan x="0" y="0">391</tspan></text>
    </g>
    <g class="st2">
      <text class="st1" transform="translate(490.5 366.8) scale(1 -1)"><tspan x="0" y="0">392</tspan></text>
    </g>
    <g class="st2">
      <text class="st1" transform="translate(470 347.8) scale(1 -1)"><tspan x="0" y="0">393</tspan></text>
    </g>
    <g class="st2">
      <text class="st1" transform="translate(502.9 393.7) scale(1 -1)"><tspan x="0" y="0">394</tspan></text>
    </g>
    <g class="st2">
      <text class="st1" transform="translate(507.8 408.8) scale(1 -1)"><tspan x="0" y="0">395</tspan></text>
    </g>
    <g class="st2">
      <text class="st1" transform="translate(507.9 454.3) scale(1 -1)"><tspan x="0" y="0">396</tspan></text>
    </g>
    <g class="st2">
      <text class="st1" transform="translate(508 498.2) scale(1 -1)"><tspan x="0" y="0">397</tspan></text>
    </g>
    <g class="st2">
      <text class="st1" transform="translate(523.3 463.7) scale(1 -1)"><tspan x="0" y="0">398</tspan></text>
    </g>
    <g class="st2">
      <text class="st1" transform="translate(530 434.9) scale(1 -1)"><tspan x="0" y="0">399</tspan></text>
    </g>
    <g class="st2">
      <text class="st1" transform="translate(519.7 434.9) scale(1 -1)"><tspan x="0" y="0">401</tspan></text>
    </g>
    <g class="st2">
      <text class="st1" transform="translate(519 453.1) scale(1 -1)"><tspan x="0" y="0">402</tspan></text>
    </g>
    <g class="st2">
      <text class="st1" transform="translate(519.7 392.8) scale(1 -1)"><tspan x="0" y="0">403</tspan></text>
    </g>
    <g class="st2">
      <text class="st1" transform="translate(529.7 421.7) scale(1 -1)"><tspan x="0" y="0">404</tspan></text>
    </g>
    <g class="st2">
      <text class="st1" transform="translate(565.8 435.9) scale(1 -1)"><tspan x="0" y="0">406</tspan></text>
    </g>
    <g class="st2">
      <text class="st1" transform="translate(589.8 450.8) scale(1 -1)"><tspan x="0" y="0">407</tspan></text>
    </g>
    <g class="st2">
      <text class="st1" transform="translate(566.1 421.7) scale(1 -1)"><tspan x="0" y="0">409</tspan></text>
    </g>
    <g class="st2">
      <text class="st1" transform="translate(613.9 434.3) scale(1 -1)"><tspan x="0" y="0">411</tspan></text>
    </g>
    <g class="st2">
      <text class="st1" transform="translate(633.4 442.7) scale(1 -1)"><tspan x="0" y="0">412</tspan></text>
    </g>
    <g class="st2">
      <text class="st1" transform="translate(613.2 392.8) scale(1 -1)"><tspan x="0" y="0">413</tspan></text>
    </g>
    <g class="st2">
      <text class="st1" transform="translate(654.5 473.5) scale(1 -1)"><tspan x="0" y="0">414</tspan></text>
    </g>
    <g class="st2">
      <text class="st1" transform="translate(672.5 532.5) scale(1 -1)"><tspan x="0" y="0">415</tspan></text>
    </g>
    <g class="st2">
      <text class="st1" transform="translate(660.5 532.5) scale(1 -1)"><tspan x="0" y="0">416</tspan></text>
    </g>
    <g class="st2">
      <text class="st1" transform="translate(444.5 328.6) scale(1 -1)"><tspan x="0" y="0">417</tspan></text>
    </g>
    <g class="st2">
      <text class="st1" transform="translate(415.5 330.8) scale(1 -1)"><tspan x="0" y="0">418</tspan></text>
    </g>
    <g class="st2">
      <text class="st1" transform="translate(171.1 392.8) scale(1 -1)"><tspan x="0" y="0">419</tspan></text>
    </g>
    <g class="st2">
      <text class="st1" transform="translate(217.2 392.8) scale(1 -1)"><tspan x="0" y="0">420</tspan></text>
    </g>
    <g class="st2">
      <text class="st1" transform="translate(258.7 421.7) scale(1 -1)"><tspan x="0" y="0">421</tspan></text>
    </g>
    <g class="st2">
      <text class="st1" transform="translate(218.9 421.7) scale(1 -1)"><tspan x="0" y="0">422</tspan></text>
    </g>
    <g class="st2">
      <text class="st1" transform="translate(171.9 421.7) scale(1 -1)"><tspan x="0" y="0">423</tspan></text>
    </g>
    <g class="st2">
      <text class="st1" transform="translate(151.8 442.5) scale(1 -1)"><tspan x="0" y="0">424</tspan></text>
    </g>
    <g class="st2">
      <text class="st1" transform="translate(171.3 434.1) scale(1 -1)"><tspan x="0" y="0">425</tspan></text>
    </g>
    <g class="st2">
      <text class="st1" transform="translate(193.2 448.6) scale(1 -1)"><tspan x="0" y="0">426</tspan></text>
    </g>
    <g class="st2">
      <text class="st1" transform="translate(217.6 435.6) scale(1 -1)"><tspan x="0" y="0">427</tspan></text>
    </g>
    <g class="st2">
      <text class="st1" transform="translate(237.4 446.4) scale(1 -1)"><tspan x="0" y="0">430</tspan></text>
    </g>
    <g class="st2">
      <text class="st1" transform="translate(256.3 435.8) scale(1 -1)"><tspan x="0" y="0">431</tspan></text>
    </g>
    <g class="st2">
      <text class="st1" transform="translate(266.8 451) scale(1 -1)"><tspan x="0" y="0">432</tspan></text>
    </g>
    <g class="st2">
      <text class="st1" transform="translate(195.7 479) scale(1 -1)"><tspan x="0" y="0">433</tspan></text>
    </g>
    <g class="st2">
      <text class="st1" transform="translate(267.6 488) scale(1 -1)"><tspan x="0" y="0">434</tspan></text>
    </g>
    <g class="st2">
      <text class="st1" transform="translate(267.6 514.4) scale(1 -1)"><tspan x="0" y="0">439</tspan></text>
    </g>
    <g class="st2">
      <text class="st1" transform="translate(302 497.7) scale(1 -1)"><tspan x="0" y="0">440</tspan></text>
    </g>
    <g class="st2">
      <text class="st1" transform="translate(294.4 511.3) scale(1 -1)"><tspan x="0" y="0">441</tspan></text>
    </g>
    <g class="st2">
      <text class="st1" transform="translate(294.4 476.2) scale(1 -1)"><tspan x="0" y="0">442</tspan></text>
    </g>
    <g class="st2">
      <text class="st1" transform="translate(302 455) scale(1 -1)"><tspan x="0" y="0">443</tspan></text>
    </g>
    <g class="st2">
      <text class="st1" transform="translate(294.4 433.8) scale(1 -1)"><tspan x="0" y="0">444</tspan></text>
    </g>
    <g class="st2">
      <text class="st1" transform="translate(302 406.2) scale(1 -1)"><tspan x="0" y="0">445</tspan></text>
    </g>
    <g class="st2">
      <text class="st1" transform="translate(294.4 389.4) scale(1 -1)"><tspan x="0" y="0">446</tspan></text>
    </g>
    <g class="st2">
      <text class="st1" transform="translate(302 346.4) scale(1 -1)"><tspan x="0" y="0">447</tspan></text>
    </g>
    <g class="st2">
      <text class="st1" transform="translate(294.4 366.9) scale(1 -1)"><tspan x="0" y="0">448</tspan></text>
    </g>
    <g class="st2">
      <text class="st1" transform="translate(294.4 330.1) scale(1 -1)"><tspan x="0" y="0">449</tspan></text>
    </g>
    <g class="st2">
      <text class="st1" transform="translate(279.2 402.9) scale(1 -1)"><tspan x="0" y="0">450</tspan></text>
    </g>
    <g class="st2">
      <text class="st1" transform="translate(282 432) scale(1 -1)"><tspan x="0" y="0">451</tspan></text>
    </g>
    <g class="st2">
      <text class="st1" transform="translate(277.2 452.1) scale(1 -1)"><tspan x="0" y="0">452</tspan></text>
    </g>
    <g class="st2">
      <text class="st1" transform="translate(282 475.1) scale(1 -1)"><tspan x="0" y="0">453</tspan></text>
    </g>
    <g class="st2">
      <text class="st1" transform="translate(277.2 492.6) scale(1 -1)"><tspan x="0" y="0">454</tspan></text>
    </g>
    <g class="st2">
      <text class="st1" transform="translate(281.9 507.4) scale(1 -1)"><tspan x="0" y="0">455</tspan></text>
    </g>
    <g class="st2">
      <text class="st1" transform="translate(277.2 514.4) scale(1 -1)"><tspan x="0" y="0">456</tspan></text>
    </g>
    <g class="st2">
      <text class="st1" transform="translate(374 508.5) scale(1 -1)"><tspan x="0" y="0">458</tspan></text>
    </g>
    <g class="st2">
      <text class="st1" transform="translate(358.8 513.3) scale(1 -1)"><tspan x="0" y="0">459</tspan></text>
    </g>
    <g class="st2">
      <text class="st1" transform="translate(382.8 485.2) scale(1 -1)"><tspan x="0" y="0">460</tspan></text>
    </g>
    <g class="st2">
      <text class="st1" transform="translate(373 467.6) scale(1 -1)"><tspan x="0" y="0">461</tspan></text>
    </g>
    <g class="st2">
      <text class="st1" transform="translate(400.2 484.3) scale(1 -1)"><tspan x="0" y="0">462</tspan></text>
    </g>
    <g class="st2">
      <text class="st1" transform="translate(413.1 471) scale(1 -1)"><tspan x="0" y="0">463</tspan></text>
    </g>
    <g class="st2">
      <text class="st1" transform="translate(409.7 507.4) scale(1 -1)"><tspan x="0" y="0">464</tspan></text>
    </g>
    <g class="st2">
      <text class="st1" transform="translate(425.1 514.9) scale(1 -1)"><tspan x="0" y="0">465</tspan></text>
    </g>
    <g class="st2">
      <text class="st1" transform="translate(400.8 528.5) scale(1 -1)"><tspan x="0" y="0">466</tspan></text>
    </g>
    <g class="st2">
      <text class="st1" transform="translate(382.8 528.5) scale(1 -1)"><tspan x="0" y="0">468</tspan></text>
    </g>
    <g class="st2">
      <text class="st1" transform="translate(314.7 402.2) scale(1 -1)"><tspan x="0" y="0">469</tspan></text>
    </g>
    <g class="st2">
      <text class="st1" transform="translate(314.4 449.2) scale(1 -1)"><tspan x="0" y="0">470</tspan></text>
    </g>
    <g class="st2">
      <text class="st1" transform="translate(391.5 347.4) scale(1 -1)"><tspan x="0" y="0">471</tspan></text>
    </g>
    <g class="st2">
      <text class="st1" transform="translate(398.6 356.1) scale(1 -1)"><tspan x="0" y="0">472</tspan></text>
    </g>
    <g class="st2">
      <text class="st1" transform="translate(391.5 364.8) scale(1 -1)"><tspan x="0" y="0">473</tspan></text>
    </g>
    <g class="st2">
      <text class="st1" transform="translate(386.5 355.9) scale(1 -1)"><tspan x="0" y="0">474</tspan></text>
    </g>
    <g class="st2">
      <text class="st1" transform="translate(335.4 305.8) scale(1 -1)"><tspan x="0" y="0">475</tspan></text>
    </g>
    <g class="st2">
      <text class="st1" transform="translate(307.7 304.6) scale(1 -1)"><tspan x="0" y="0">476</tspan></text>
    </g>
    <g class="st2">
      <text class="st1" transform="translate(379.3 305.8) scale(1 -1)"><tspan x="0" y="0">477</tspan></text>
    </g>
    <g class="st2">
      <text class="st1" transform="translate(435.5 305.8) scale(1 -1)"><tspan x="0" y="0">478</tspan></text>
    </g>
    <g class="st2">
      <text class="st1" transform="translate(476.5 304.6) scale(1 -1)"><tspan x="0" y="0">479</tspan></text>
    </g>
    <g class="st2">
      <text class="st1" transform="translate(309.5 274.6) scale(1 -1)"><tspan x="0" y="0">481</tspan></text>
    </g>
    <g class="st2">
      <text class="st1" transform="translate(291.8 309.9) scale(1 -1)"><tspan x="0" y="0">482</tspan></text>
    </g>
    <g class="st2">
      <text class="st1" transform="translate(317.6 172) scale(1 -1)"><tspan x="0" y="0">483</tspan></text>
    </g>
    <g class="st2">
      <text class="st1" transform="translate(261.7 331.8) scale(1 -1)"><tspan x="0" y="0">484</tspan></text>
    </g>
    <g class="st2">
      <text class="st1" transform="translate(271.4 309.9) scale(1 -1)"><tspan x="0" y="0">485</tspan></text>
    </g>
    <g class="st2">
      <text class="st1" transform="translate(314.9 347.7) scale(1 -1)"><tspan x="0" y="0">486</tspan></text>
    </g>
    <g class="st2">
      <text class="st1" transform="translate(493.3 309.9) scale(1 -1)"><tspan x="0" y="0">487</tspan></text>
    </g>
    <g class="st2">
      <text class="st1" transform="translate(505.6 335.5) scale(1 -1)"><tspan x="0" y="0">488</tspan></text>
    </g>
    <g class="st2">
      <text class="st1" transform="translate(523.4 331.8) scale(1 -1)"><tspan x="0" y="0">489</tspan></text>
    </g>
    <g class="st2">
      <text class="st1" transform="translate(513.7 309.9) scale(1 -1)"><tspan x="0" y="0">490</tspan></text>
    </g>
    <g class="st2">
      <text class="st1" transform="translate(277.2 527.5) scale(1 -1)"><tspan x="0" y="0">491</tspan></text>
    </g>
    <g class="st2">
      <text class="st1" transform="translate(315.2 491.8) scale(1 -1)"><tspan x="0" y="0">492</tspan></text>
    </g>
    <g class="st2">
      <text class="st1" transform="translate(302 527.5) scale(1 -1)"><tspan x="0" y="0">493</tspan></text>
    </g>
    <g class="st2">
      <text class="st1" transform="translate(316.6 527.5) scale(1 -1)"><tspan x="0" y="0">494</tspan></text>
    </g>
    <g class="st2">
      <text class="st1" transform="translate(317.6 280.8) scale(1 -1)"><tspan x="0" y="0">495</tspan></text>
    </g>
    <g class="st2">
      <text class="st1" transform="translate(244.7 491) scale(1 -1)"><tspan x="0" y="0">496</tspan></text>
    </g>
    <g class="st2">
      <text class="st1" transform="translate(235.7 506.2) scale(1 -1)"><tspan x="0" y="0">497</tspan></text>
    </g>
    <g class="st2">
      <text class="st1" transform="translate(174.8 491) scale(1 -1)"><tspan x="0" y="0">498</tspan></text>
    </g>
    <g class="st2">
      <text class="st1" transform="translate(166 506.2) scale(1 -1)"><tspan x="0" y="0">499</tspan></text>
    </g>
    <g class="st2">
      <text class="st1" transform="translate(567.5 491) scale(1 -1)"><tspan x="0" y="0">500</tspan></text>
    </g>
    <g class="st2">
      <text class="st1" transform="translate(558.6 506.2) scale(1 -1)"><tspan x="0" y="0">501</tspan></text>
    </g>
    <g class="st2">
      <text class="st1" transform="translate(636.1 491) scale(1 -1)"><tspan x="0" y="0">502</tspan></text>
    </g>
    <g class="st2">
      <text class="st1" transform="translate(627.2 506.2) scale(1 -1)"><tspan x="0" y="0">503</tspan></text>
    </g>
    <g class="st2">
      <text class="st1" transform="translate(444.1 341.5) scale(1 -1)"><tspan x="0" y="0">504</tspan></text>
    </g>
    <g class="st2">
      <text class="st1" transform="translate(544.6 372.1) scale(1 -1)"><tspan x="0" y="0">505</tspan></text>
    </g>
    <g class="st2">
      <text class="st1" transform="translate(524.9 377.4) scale(1 -1)"><tspan x="0" y="0">506</tspan></text>
    </g>
    <g class="st2">
      <text class="st1" transform="translate(531.9 392.8) scale(1 -1)"><tspan x="0" y="0">507</tspan></text>
    </g>
    <g class="st2">
      <text class="st1" transform="translate(518.5 420.4) scale(1 -1)"><tspan x="0" y="0">509</tspan></text>
    </g>
    <g class="st2">
      <text class="st1" transform="translate(479.5 128.3) scale(1 -1)"><tspan x="0" y="0">510</tspan></text>
    </g>
    <g class="st2">
      <text class="st1" transform="translate(505.3 366.4) scale(1 -1)"><tspan x="0" y="0">511</tspan></text>
    </g>
    <g class="st2">
      <text class="st1" transform="translate(490.5 389) scale(1 -1)"><tspan x="0" y="0">512</tspan></text>
    </g>
    <g class="st2">
      <text class="st1" transform="translate(502.9 528.2) scale(1 -1)"><tspan x="0" y="0">513</tspan></text>
    </g>
    <g class="st2">
      <text class="st1" transform="translate(457.5 355.1) scale(1 -1)"><tspan x="0" y="0">514</tspan></text>
    </g>
  </g>
</svg>