<svg xmlns="http://www.w3.org/2000/svg" width="737" height="539" viewBox="0 0 737 539"><path d="M 169.20000000000002 461.5 L 174.4 461.5 L 197.4 461.5 L 192.29999999999998 448.59999999999997 L 156.40000000000003 438.4 L 143.6 430.70000000000005 L 143.6 435.8 L 143.6 440.90000000000003 L 148.70000000000002 451.2 L 153.9 458.90000000000003 L 159.0 461.5 L 169.20000000000002 461.5 Z" fill="none" stroke="#000" stroke-width="1"/><path d="M 153.9 420.40000000000003 L 156.4 412.70000000000005 L 179.5 399.90000000000003 L 171.79999999999998 415.30000000000007 L 192.3 448.6 L 156.4 438.40000000000003 L 143.6 430.70000000000005 L 153.9 420.40000000000003 Z" fill="none" stroke="#000" stroke-width="1"/><path d="M 171.79999999999998 415.3 L 179.5 399.90000000000003 L 205.10000000000002 392.20000000000005 L 202.60000000000002 407.59999999999997 L 194.9 423.0 L 192.3 448.6 L 171.79999999999998 415.3 Z" fill="none" stroke="#000" stroke-width="1"/><path d="M 205.1 369.09999999999997 L 205.10000000000002 392.20000000000005 L 202.60000000000002 407.6 L 215.4 392.20000000000005 L 223.1 379.40000000000003 L 238.5 366.6 L 220.5 364.0 L 205.1 369.09999999999997 Z" fill="none" stroke="#000" stroke-width="1"/><path d="M 205.10000000000002 369.1 L 205.10000000000002 392.20000000000005 L 179.5 399.90000000000003 L 156.4 412.70000000000005 L 176.9 384.5 L 189.8 361.5 L 205.10000000000002 369.1 Z" fill="none" stroke="#000" stroke-width="1"/><path d="M 205.10000000000002 369.1 L 220.5 364.0 L 238.5 366.6 L 251.3 356.3 L 256.40000000000003 343.5 L 230.8 325.6 L 212.80000000000004 333.19999999999993 L 197.4 320.40000000000003 L 202.60000000000002 335.8 L 207.70000000000002 346.09999999999997 L 189.8 361.5 L 205.10000000000002 369.1 Z" fill="none" stroke="#000" stroke-width="1"/><path d="M 189.79999999999998 361.5 L 207.70000000000002 346.1 L 202.60000000000002 335.8 L 197.4 320.40000000000003 L 202.60000000000002 315.3 L 179.5 299.90000000000003 L 179.5 328.1 L 179.5 335.8 L 189.79999999999998 361.5 Z" fill="none" stroke="#000" stroke-width="1"/><path d="M 143.6 353.8 L 146.20000000000002 343.5 L 146.20000000000002 335.8 L 146.20000000000002 328.09999999999997 L 146.20000000000002 320.40000000000003 L 148.70000000000002 320.40000000000003 L 148.70000000000002 335.8 L 148.70000000000002 353.80000000000007 L 146.20000000000002 364.0 L 141.0 369.1 L 143.6 361.5 L 143.6 353.8 Z" fill="none" stroke="#000" stroke-width="1"/><path d="M 238.5 366.59999999999997 L 244.9 380.70000000000005 L 251.3 394.8 L 269.2 412.7 L 279.5 407.59999999999997 L 289.8 410.20000000000005 L 282.09999999999997 382.0 L 265.5 373.70000000000005 L 256.40000000000003 369.09999999999997 L 251.3 356.3 L 238.5 366.59999999999997 Z" fill="none" stroke="#000" stroke-width="1"/><path d="M 253.9 417.90000000000003 L 261.6 438.40000000000003 L 287.2 430.69999999999993 L 300.0 435.8 L 294.90000000000003 425.59999999999997 L 289.8 410.20000000000005 L 279.5 407.59999999999997 L 269.2 412.69999999999993 L 251.3 394.8 L 253.9 417.90000000000003 Z" fill="none" stroke="#000" stroke-width="1"/><path d="M 279.5 448.59999999999997 L 282.1 461.5 L 310.3 461.5 L 323.1 461.5 L 318.0 453.90000000000003 L 300.0 435.8 L 287.2 430.70000000000005 L 279.5 448.59999999999997 Z" fill="none" stroke="#000" stroke-width="1"/><path d="M 279.5 448.59999999999997 L 282.1 461.5 L 269.2 461.5 L 253.9 461.5 L 261.59999999999997 438.40000000000003 L 287.2 430.70000000000005 L 279.5 448.59999999999997 Z" fill="none" stroke="#000" stroke-width="1"/><path d="M 251.3 356.3 L 256.40000000000003 343.5 L 261.6 325.6 L 276.90000000000003 325.6 L 284.59999999999997 333.20000000000005 L 282.1 348.6 L 282.1 358.90000000000003 L 282.1 382.0 L 265.5 373.70000000000005 L 256.40000000000003 369.1 L 251.3 356.3 Z" fill="none" stroke="#000" stroke-width="1"/><path d="M 364.09999999999997 266.59999999999997 L 382.09999999999997 251.20000000000002 L 393.0 249.5 L 392.70000000000005 268.0 L 382.1 305.0 L 369.3 294.8 L 356.40000000000003 297.3 L 364.09999999999997 266.59999999999997 Z" fill="none" stroke="#000" stroke-width="1"/><path d="M 259.0 271.7 L 259.0 287.1 L 294.90000000000003 287.09999999999997 L 292.3 264.0 L 264.1 248.60000000000002 L 259.0 271.7 Z" fill="none" stroke="#000" stroke-width="1"/><path d="M 259.0 271.7 L 259.0 287.1 L 243.60000000000002 299.90000000000003 L 215.4 289.7 L 230.79999999999998 264.0 L 259.0 271.7 Z" fill="none" stroke="#000" stroke-width="1"/><path d="M 179.5 228.10000000000002 L 195.0 228.70000000000002 L 233.3 238.4 L 220.5 205.0 L 200.0 179.4 L 186.4 184.79999999999998 L 184.70000000000002 176.70000000000002 L 174.4 189.60000000000002 L 166.70000000000002 199.9 L 164.10000000000002 205.0 L 153.9 225.5 L 164.10000000000002 217.9 L 179.5 228.10000000000002 Z" fill="none" stroke="#000" stroke-width="1"/><path d="M 195.0 228.70000000000002 L 233.3 238.4 L 230.79999999999998 264.0 L 178.70000000000002 266.7 L 176.9 235.79999999999998 L 179.5 228.10000000000002 L 195.0 228.70000000000002 Z" fill="none" stroke="#000" stroke-width="1"/><path d="M 146.20000000000002 310.20000000000005 L 146.20000000000002 320.40000000000003 L 148.70000000000002 320.40000000000003 L 151.29999999999998 307.59999999999997 L 151.3 294.8 L 156.4 282.0 L 164.10000000000002 258.90000000000003 L 166.70000000000002 246.09999999999997 L 179.5 282.0 L 178.70000000000002 266.7 L 176.90000000000003 235.79999999999998 L 179.5 228.10000000000002 L 164.10000000000002 217.9 L 153.9 225.5 L 151.3 235.8 L 148.70000000000002 261.40000000000003 L 146.20000000000002 276.8 L 146.20000000000002 294.8 L 146.20000000000002 307.6 L 146.20000000000002 310.20000000000005 Z" fill="none" stroke="#000" stroke-width="1"/><path d="M 200.0 161.4 L 218.0 143.5 L 230.8 152.4 L 256.40000000000003 158.70000000000002 L 246.20000000000002 182.0 L 220.5 194.3 L 200.0 179.4 L 186.4 184.8 L 184.70000000000002 176.70000000000002 L 200.0 161.4 Z" fill="none" stroke="#000" stroke-width="1"/><path d="M 233.29999999999998 238.4 L 251.3 225.5 L 256.40000000000003 243.5 L 259.0 271.7 L 230.8 264.0 L 233.29999999999998 238.4 Z" fill="none" stroke="#000" stroke-width="1"/><path d="M 233.3 238.4 L 251.3 225.5 L 226.20000000000002 199.9 L 246.20000000000002 182.0 L 220.5 194.29999999999998 L 200.0 179.4 L 220.5 205.0 L 233.3 238.4 Z" fill="none" stroke="#000" stroke-width="1"/><path d="M 251.3 225.5 L 256.40000000000003 243.5 L 259.0 271.7 L 264.09999999999997 248.59999999999997 L 292.3 264.0 L 284.6 230.70000000000002 L 266.7 225.5 L 251.3 225.5 Z" fill="none" stroke="#000" stroke-width="1"/><path d="M 256.40000000000003 130.70000000000002 L 261.6 123.0 L 235.90000000000003 130.6 L 218.0 143.5 L 230.79999999999998 152.4 L 256.40000000000003 158.70000000000002 L 279.5 161.4 L 246.20000000000002 182.0 L 256.40000000000003 158.70000000000002 L 256.40000000000003 130.70000000000002 Z" fill="none" stroke="#000" stroke-width="1"/><path d="M 256.40000000000003 130.70000000000002 L 261.6 123.0 L 278.0 120.2 L 284.7 138.4 L 279.5 161.4 L 256.40000000000003 158.70000000000002 L 256.40000000000003 130.70000000000002 Z" fill="none" stroke="#000" stroke-width="1"/><path d="M 279.5 161.4 L 284.7 138.4 L 278.0 120.2 L 294.90000000000003 117.30000000000001 L 312.90000000000003 121.2 L 333.40000000000003 133.20000000000002 L 318.0 166.60000000000002 L 279.5 161.4 Z" fill="none" stroke="#000" stroke-width="1"/><path d="M 284.6 230.70000000000002 L 292.3 264.0 L 315.40000000000003 258.90000000000003 L 333.40000000000003 225.5 L 297.5 223.0 L 284.6 230.70000000000002 Z" fill="none" stroke="#000" stroke-width="1"/><path d="M 297.5 223.0 L 333.40000000000003 225.5 L 348.1 215.20000000000002 L 359.20000000000005 204.8 L 330.8 194.79999999999998 L 297.5 223.0 Z" fill="none" stroke="#000" stroke-width="1"/><path d="M 328.20000000000005 264.0 L 359.0 258.90000000000003 L 341.0 279.40000000000003 L 335.90000000000003 299.90000000000003 L 323.09999999999997 284.5 L 315.40000000000003 258.90000000000003 L 328.20000000000005 264.0 Z" fill="none" stroke="#000" stroke-width="1"/><path d="M 341.0 279.40000000000003 L 359.0 258.90000000000003 L 382.1 251.20000000000002 L 364.09999999999997 266.59999999999997 L 356.40000000000003 297.30000000000007 L 369.3 294.8 L 361.6 312.70000000000005 L 341.0 315.3 L 335.90000000000003 299.90000000000003 L 341.0 279.40000000000003 Z" fill="none" stroke="#000" stroke-width="1"/><path d="M 328.20000000000005 264.0 L 359.0 258.90000000000003 L 333.40000000000003 225.5 L 315.40000000000003 258.90000000000003 L 328.20000000000005 264.0 Z" fill="none" stroke="#000" stroke-width="1"/><path d="M 359.0 258.90000000000003 L 382.1 251.20000000000002 L 393.0 249.5 L 394.90000000000003 225.5 L 368.59999999999997 213.4 L 376.90000000000003 199.9 L 359.20000000000005 204.79999999999998 L 348.1 215.20000000000002 L 333.40000000000003 225.5 L 359.0 258.90000000000003 Z" fill="none" stroke="#000" stroke-width="1"/><path d="M 361.90000000000003 164.10000000000002 L 374.40000000000003 133.20000000000002 L 353.90000000000003 133.20000000000002 L 333.40000000000003 133.20000000000002 L 318.0 166.60000000000002 L 361.90000000000003 164.10000000000002 Z" fill="none" stroke="#000" stroke-width="1"/><path d="M 361.90000000000003 164.1 L 374.40000000000003 133.20000000000002 L 387.20000000000005 128.1 L 397.5 148.6 L 387.20000000000005 184.5 L 376.90000000000003 199.9 L 359.20000000000005 204.8 L 361.90000000000003 164.1 Z" fill="none" stroke="#000" stroke-width="1"/><path d="M 387.20000000000005 128.1 L 397.5 148.6 L 413.3 148.6 L 425.7 120.39999999999999 L 448.70000000000005 105.0 L 387.20000000000005 128.1 Z" fill="none" stroke="#000" stroke-width="1"/><path d="M 416.90000000000003 195.9 L 428.20000000000005 194.8 L 410.30000000000007 228.09999999999997 L 394.90000000000003 225.5 L 402.59999999999997 197.29999999999998 L 413.90000000000003 178.4 L 419.0 185.0 L 416.90000000000003 195.9 Z" fill="none" stroke="#000" stroke-width="1"/><path d="M 416.90000000000003 195.9 L 428.1999999999999 194.79999999999998 L 410.3 228.10000000000002 L 446.20000000000005 230.70000000000002 L 471.8 230.70000000000002 L 454.1 186.8 L 432.5 181.8 L 419.0 185.0 L 416.90000000000003 195.9 Z" fill="none" stroke="#000" stroke-width="1"/><path d="M 402.6 197.3 L 413.90000000000003 178.4 L 418.6 170.3 L 437.70000000000005 145.0 L 413.3 148.6 L 397.5 148.6 L 387.20000000000005 184.5 L 402.6 197.3 Z" fill="none" stroke="#000" stroke-width="1"/><path d="M 435.90000000000003 346.1 L 441.09999999999997 343.5 L 446.20000000000005 333.20000000000005 L 459.0 353.8 L 459.0 361.5 L 441.09999999999997 343.5 L 430.8 343.5 L 405.20000000000005 384.5 L 428.20000000000005 376.8 L 435.90000000000003 346.1 Z" fill="none" stroke="#000" stroke-width="1"/><path d="M 405.20000000000005 384.5 L 428.20000000000005 376.8 L 423.1 394.8 L 418.0 412.70000000000005 L 417.80000000000007 391.70000000000005 L 400.0 415.3 L 387.20000000000005 407.59999999999997 L 382.90000000000003 400.3 L 389.8 361.5 L 405.20000000000005 384.5 Z" fill="none" stroke="#000" stroke-width="1"/><path d="M 400.0 415.30000000000007 L 417.8 391.70000000000005 L 418.0 412.70000000000005 L 410.3 433.3 L 400.0 431.20000000000005 L 384.59999999999997 428.09999999999997 L 376.90000000000003 433.3 L 380.3 415.6 L 382.90000000000003 400.3 L 387.20000000000005 407.59999999999997 L 400.0 415.30000000000007 Z" fill="none" stroke="#000" stroke-width="1"/><path d="M 366.7 451.19999999999993 L 376.90000000000003 433.3 L 384.59999999999997 428.09999999999997 L 400.0 431.20000000000005 L 392.30000000000007 443.5 L 400.0 461.5 L 384.59999999999997 461.5 L 376.90000000000003 461.5 L 366.70000000000005 458.90000000000003 L 366.7 451.19999999999993 Z" fill="none" stroke="#000" stroke-width="1"/><path d="M 446.20000000000005 333.20000000000005 L 453.90000000000003 315.3 L 492.7 283.3 L 500.0 328.1 L 484.59999999999997 333.20000000000005 L 446.20000000000005 333.20000000000005 Z" fill="none" stroke="#000" stroke-width="1"/><path d="M 438.5 312.70000000000005 L 453.90000000000003 315.3 L 460.8 258.90000000000003 L 435.90000000000003 258.90000000000003 L 415.40000000000003 271.7 L 412.8 317.90000000000003 L 438.5 312.70000000000005 Z" fill="none" stroke="#000" stroke-width="1"/><path d="M 446.20000000000005 333.20000000000005 L 484.59999999999997 333.20000000000005 L 500.0 328.09999999999997 L 515.4 369.1 L 497.5 358.90000000000003 L 479.5 366.6 L 459.0 361.5 L 459.0 353.80000000000007 L 446.20000000000005 333.20000000000005 Z" fill="none" stroke="#000" stroke-width="1"/><path d="M 459.0 361.5 L 479.5 366.59999999999997 L 497.5 358.90000000000003 L 502.59999999999997 374.3 L 497.5 397.40000000000003 L 484.6 394.8 L 479.5 387.1 L 459.0 361.5 Z" fill="none" stroke="#000" stroke-width="1"/><path d="M 515.4 425.6 L 523.1 410.20000000000005 L 520.5 382.0 L 515.4 369.1 L 497.5 358.90000000000003 L 502.59999999999997 374.3 L 497.5 397.40000000000003 L 506.40000000000003 411.5 L 515.4 425.6 Z" fill="none" stroke="#000" stroke-width="1"/><path d="M 515.3999999999999 425.6000000000001 L 523.1 410.20000000000005 L 520.5 420.40000000000003 L 520.5 438.40000000000003 L 525.6999999999999 451.2 L 530.8000000000001 461.5 L 510.3 461.5 L 497.5 461.5 L 515.3999999999999 446.1 L 492.3 438.40000000000003 L 498.5 428.40000000000003 L 502.40000000000003 422.1 L 506.40000000000003 411.5 L 515.3999999999999 425.6000000000001 Z" fill="none" stroke="#000" stroke-width="1"/><path d="M 484.6 394.8 L 497.5 397.40000000000003 L 506.40000000000003 411.5 L 502.40000000000003 422.1 L 498.5 428.40000000000003 L 484.6 430.70000000000005 L 487.19999999999993 417.9 L 484.6 394.8 Z" fill="none" stroke="#000" stroke-width="1"/><path d="M 492.30000000000007 438.4 L 515.4 446.1 L 497.5 461.5 L 494.90000000000003 461.5 L 482.09999999999997 456.3 L 474.40000000000003 451.20000000000005 L 484.6 430.70000000000005 L 498.5 428.40000000000003 L 492.30000000000007 438.4 Z" fill="none" stroke="#000" stroke-width="1"/><path d="M 497.5 248.60000000000002 L 518.0 240.9 L 523.1 240.90000000000003 L 541.1 212.70000000000002 L 538.5 235.8 L 535.9 261.40000000000003 L 525.6999999999999 256.3 L 515.4 258.90000000000003 L 497.5 248.60000000000002 Z" fill="none" stroke="#000" stroke-width="1"/><path d="M 497.5 248.60000000000002 L 518.0 240.9 L 471.8 230.70000000000002 L 479.5 258.90000000000003 L 497.5 248.60000000000002 Z" fill="none" stroke="#000" stroke-width="1"/><path d="M 559.0 217.9 L 564.1 220.4 L 584.7 253.8 L 584.6999999999999 258.90000000000003 L 571.8000000000001 261.40000000000003 L 561.6 246.0 L 548.8000000000001 238.4 L 538.5 235.8 L 541.1 212.70000000000002 L 559.0 217.9 Z" fill="none" stroke="#000" stroke-width="1"/><path d="M 448.70000000000005 105.0 L 471.8 105.0 L 487.5 130.20000000000002 L 471.20000000000005 148.9 L 437.70000000000005 145.0 L 461.59999999999997 123.0 L 448.70000000000005 105.0 Z" fill="none" stroke="#000" stroke-width="1"/><path d="M 471.8 105.0 L 487.5 130.20000000000002 L 471.20000000000005 148.9 L 492.3 158.9 L 502.6 143.5 L 507.70000000000005 125.5 L 500.0 115.30000000000001 L 471.8 105.0 Z" fill="none" stroke="#000" stroke-width="1"/><path d="M 454.1 186.8 L 503.6 178.4 L 492.3 158.9 L 471.20000000000005 148.9 L 454.1 186.8 Z" fill="none" stroke="#000" stroke-width="1"/><path d="M 525.6999999999999 166.60000000000002 L 530.8000000000001 164.0 L 502.59999999999997 143.5 L 492.3 158.9 L 503.6 178.4 L 518.0 179.40000000000003 L 523.1 202.5 L 528.2 171.70000000000002 L 525.6999999999999 166.60000000000002 Z" fill="none" stroke="#000" stroke-width="1"/><path d="M 502.59999999999997 143.5 L 507.70000000000005 125.5 L 500.0 115.30000000000001 L 533.4 117.8 L 535.9 138.4 L 530.8000000000001 164.0 L 502.59999999999997 143.5 Z" fill="none" stroke="#000" stroke-width="1"/><path d="M 556.4 187.10000000000002 L 559.0 217.9 L 541.1 212.70000000000002 L 523.1 202.5 L 528.1999999999999 171.70000000000002 L 525.7 166.60000000000002 L 530.8000000000001 164.0 L 564.1 148.6 L 556.4 187.10000000000002 Z" fill="none" stroke="#000" stroke-width="1"/><path d="M 556.4 187.10000000000002 L 559.0 217.9 L 564.1 220.4 L 584.7 253.8 L 587.1999999999999 202.5 L 582.1 199.9 L 582.1 196.0 L 582.1 187.10000000000002 L 579.5 179.4 L 567.7 180.70000000000002 L 556.4 187.10000000000002 Z" fill="none" stroke="#000" stroke-width="1"/><path d="M 582.1 187.10000000000002 L 582.1 196.0 L 582.1 199.9 L 587.1999999999999 202.5 L 584.7 253.8 L 597.5 225.5 L 597.5 212.70000000000002 L 605.1999999999999 223.0 L 615.4000000000001 225.5 L 630.8000000000001 235.8 L 618.0 197.29999999999998 L 612.9 182.0 L 605.1999999999999 179.40000000000003 L 579.5 179.40000000000003 L 582.1 187.10000000000002 Z" fill="none" stroke="#000" stroke-width="1"/><path d="M 653.9000000000001 276.8 L 669.3000000000001 276.8 L 677.0 276.8 L 687.2 269.1 L 679.5 269.1 L 664.1 269.1 L 653.9 269.09999999999997 L 643.6 266.6 L 635.9000000000001 266.6 L 635.9000000000001 271.7 L 646.2 276.8 L 653.9000000000001 276.8 Z" fill="none" stroke="#000" stroke-width="1"/><path d="M 633.4000000000001 275.5 L 635.9000000000001 284.5 L 651.3000000000001 289.7 L 661.6 289.7 L 674.4000000000001 289.7 L 684.7 287.1 L 666.6999999999999 284.5 L 656.5 282.0 L 646.1999999999999 279.40000000000003 L 638.5 276.8 L 633.4000000000001 275.5 Z" fill="none" stroke="#000" stroke-width="1"/><path d="M 600.0 297.3 L 615.4000000000001 294.8 L 618.0 295.40000000000003 L 625.7 305.0 L 635.9000000000001 299.90000000000003 L 635.9000000000001 284.5 L 633.4000000000001 275.5 L 628.1999999999999 274.30000000000007 L 618.0 269.1 L 610.6999999999999 273.90000000000003 L 600.0 297.3 Z" fill="none" stroke="#000" stroke-width="1"/><path d="M 625.6999999999999 253.79999999999998 L 635.9000000000001 253.8 L 635.9000000000001 266.6 L 635.9000000000001 271.7 L 628.1999999999999 266.59999999999997 L 618.0 261.40000000000003 L 612.9 256.3 L 625.6999999999999 253.79999999999998 Z" fill="none" stroke="#000" stroke-width="1"/><path d="M 625.6999999999999 305.0 L 635.9000000000001 299.90000000000003 L 633.4000000000001 320.40000000000003 L 612.9 323.0 L 602.6 338.40000000000003 L 602.6999999999999 315.09999999999997 L 600.0 297.3 L 615.4000000000001 294.8 L 618.0 295.40000000000003 L 625.6999999999999 305.0 Z" fill="none" stroke="#000" stroke-width="1"/><path d="M 538.5 394.8 L 543.6 399.90000000000003 L 553.9 405.0 L 569.3000000000001 407.59999999999997 L 590.0 404.90000000000003 L 587.2 387.1 L 577.0 389.70000000000005 L 564.1 389.70000000000005 L 553.9 384.5 L 553.9 374.3 L 535.9 376.8 L 538.5 384.5 L 538.5 394.8 Z" fill="none" stroke="#000" stroke-width="1"/><path d="M 178.70000000000002 266.7 L 179.5 282.0 L 179.5 299.90000000000003 L 202.60000000000002 315.3 L 215.4 289.7 L 230.8 264.0 L 178.70000000000002 266.7 Z" fill="none" stroke="#000" stroke-width="1"/><path d="M 359.20000000000005 204.8 L 361.90000000000003 164.10000000000002 L 330.8 194.8 L 359.20000000000005 204.8 Z" fill="none" stroke="#000" stroke-width="1"/><path d="M 453.90000000000003 315.3 L 484.6 261.40000000000003 L 479.5 258.90000000000003 L 460.8 258.90000000000003 L 453.90000000000003 315.3 Z" fill="none" stroke="#000" stroke-width="1"/><path d="M 518.0 240.9 L 523.1 240.9 L 541.1 212.70000000000002 L 523.1000000000001 202.5 L 518.0 179.4 L 503.6 178.4 L 503.09999999999997 190.70000000000002 L 502.59999999999997 202.5 L 518.0 240.9 Z" fill="none" stroke="#000" stroke-width="1"/><path d="M 246.20000000000002 182.0 L 279.5 161.4 L 318.0 166.60000000000002 L 297.5 187.10000000000002 L 271.8 184.5 L 246.20000000000002 182.0 Z" fill="none" stroke="#000" stroke-width="1"/><path d="M 389.8 361.5 L 412.8 340.90000000000003 L 430.8 343.5 L 441.1 343.5 L 446.20000000000005 333.20000000000005 L 453.90000000000003 315.3 L 438.5 312.70000000000005 L 412.80000000000007 317.90000000000003 L 392.3 305.0 L 389.8 361.5 Z" fill="none" stroke="#000" stroke-width="1"/><path d="M 389.8 361.5 L 412.8 340.90000000000003 L 430.8 343.5 L 405.20000000000005 384.5 L 389.8 361.5 Z" fill="none" stroke="#000" stroke-width="1"/><path d="M 392.70000000000005 268.0 L 415.40000000000003 271.7 L 412.8 317.90000000000003 L 392.30000000000007 305.0 L 389.8 361.5 L 382.09999999999997 305.0 L 392.70000000000005 268.0 Z" fill="none" stroke="#000" stroke-width="1"/><path d="M 361.6 312.70000000000005 L 369.3 294.8 L 382.09999999999997 305.0 L 374.6 308.0 L 366.70000000000005 312.70000000000005 L 361.6 312.70000000000005 Z" fill="none" stroke="#000" stroke-width="1"/><path d="M 479.5 258.90000000000003 L 497.5 248.60000000000002 L 489.8 269.1 L 492.70000000000005 283.3 L 453.90000000000003 315.3 L 484.59999999999997 261.40000000000003 L 479.5 258.90000000000003 Z" fill="none" stroke="#000" stroke-width="1"/><path d="M 415.40000000000003 246.10000000000002 L 446.20000000000005 230.70000000000002 L 471.8 230.70000000000002 L 435.90000000000003 258.90000000000003 L 415.40000000000003 271.7 L 415.40000000000003 246.10000000000002 Z" fill="none" stroke="#000" stroke-width="1"/><path d="M 394.90000000000003 225.5 L 402.6 197.3 L 387.20000000000005 184.5 L 376.90000000000003 199.9 L 368.6 213.4 L 394.90000000000003 225.5 Z" fill="none" stroke="#000" stroke-width="1"/><path d="M 600.0 158.9 L 610.3000000000001 174.3 L 612.9 182.0 L 605.1999999999999 179.4 L 579.5 179.4 L 567.7 180.70000000000002 L 556.4 187.10000000000002 L 564.1 148.6 L 584.7 140.9 L 600.0 158.9 Z" fill="none" stroke="#000" stroke-width="1"/><path d="M 315.40000000000003 258.90000000000003 L 323.1 284.5 L 309.0 285.8 L 294.90000000000003 287.1 L 292.3 264.0 L 315.40000000000003 258.90000000000003 Z" fill="none" stroke="#000" stroke-width="1"/><path d="M 602.6 256.3 L 610.3000000000001 240.9 L 615.4000000000001 225.5 L 605.1999999999999 223.0 L 597.5 212.70000000000002 L 597.5 225.5 L 584.7 253.8 L 602.6 256.3 Z" fill="none" stroke="#000" stroke-width="1"/><path d="M 602.6 256.3 L 610.3000000000001 240.9 L 615.4000000000001 225.5 L 630.8000000000001 235.79999999999998 L 635.9000000000001 253.8 L 625.6999999999999 253.79999999999998 L 612.9 256.3 L 602.6 256.3 Z" fill="none" stroke="#000" stroke-width="1"/><path d="M 600.0 297.3 L 610.6999999999999 273.90000000000003 L 618.0 269.1 L 602.6 256.3 L 584.7 253.8 L 584.6999999999999 258.90000000000003 L 594.9 284.5 L 600.0 297.3 Z" fill="none" stroke="#000" stroke-width="1"/><path d="M 589.8000000000001 379.40000000000003 L 597.5 369.09999999999997 L 617.5 359.1 L 620.6 374.3 L 607.6999999999999 394.80000000000007 L 590.0 404.90000000000003 L 587.2 387.1 L 589.8000000000001 379.40000000000003 Z" fill="none" stroke="#000" stroke-width="1"/><path d="M 197.4 320.40000000000003 L 202.60000000000002 315.3 L 215.4 289.7 L 243.60000000000002 299.90000000000003 L 230.79999999999998 325.59999999999997 L 212.8 333.20000000000005 L 197.4 320.40000000000003 Z" fill="none" stroke="#000" stroke-width="1"/><path d="M 230.8 325.6 L 243.6 299.90000000000003 L 259.0 287.1 L 269.2 312.70000000000005 L 261.59999999999997 325.59999999999997 L 256.40000000000003 343.5 L 230.8 325.6 Z" fill="none" stroke="#000" stroke-width="1"/><path d="M 276.90000000000003 325.6 L 284.6 333.20000000000005 L 318.0 328.1 L 315.40000000000003 312.70000000000005 L 309.0 285.8 L 294.90000000000003 287.1 L 292.3 315.3 L 276.90000000000003 325.6 Z" fill="none" stroke="#000" stroke-width="1"/><path d="M 261.6 325.6 L 269.2 312.70000000000005 L 259.0 287.1 L 294.90000000000003 287.1 L 292.3 315.3 L 276.90000000000003 325.6 L 261.6 325.6 Z" fill="none" stroke="#000" stroke-width="1"/><path d="M 315.40000000000003 312.70000000000005 L 318.0 328.1 L 341.0 315.3 L 335.90000000000003 299.90000000000003 L 323.1 284.5 L 309.0 285.8 L 315.40000000000003 312.70000000000005 Z" fill="none" stroke="#000" stroke-width="1"/><path d="M 226.20000000000002 199.9 L 246.20000000000002 182.0 L 271.8 184.5 L 266.7 202.5 L 251.3 225.5 L 226.20000000000002 199.9 Z" fill="none" stroke="#000" stroke-width="1"/><path d="M 251.3 225.5 L 266.69999999999993 202.5 L 271.8 184.5 L 297.5 187.10000000000002 L 297.5 223.0 L 284.6 230.70000000000002 L 266.7 225.5 L 251.3 225.5 Z" fill="none" stroke="#000" stroke-width="1"/><path d="M 297.5 223.0 L 330.8 194.8 L 297.5 187.10000000000002 L 297.5 223.0 Z" fill="none" stroke="#000" stroke-width="1"/><path d="M 297.5 187.10000000000002 L 330.8 194.8 L 361.90000000000003 164.10000000000002 L 318.0 166.60000000000002 L 297.5 187.10000000000002 Z" fill="none" stroke="#000" stroke-width="1"/><path d="M 393.0 249.5 L 394.90000000000003 225.5 L 410.3 228.1 L 446.20000000000005 230.70000000000002 L 415.40000000000003 246.09999999999997 L 415.40000000000003 271.7 L 392.70000000000005 268.0 L 393.0 249.5 Z" fill="none" stroke="#000" stroke-width="1"/><path d="M 437.70000000000005 145.0 L 461.6 123.0 L 448.70000000000005 105.0 L 425.7 120.39999999999999 L 413.3 148.6 L 437.70000000000005 145.0 Z" fill="none" stroke="#000" stroke-width="1"/><path d="M 454.1 186.8 L 471.20000000000005 148.9 L 437.69999999999993 145.0 L 418.6 170.3 L 413.90000000000003 178.4 L 419.0 185.0 L 432.5 181.79999999999998 L 454.1 186.8 Z" fill="none" stroke="#000" stroke-width="1"/><path d="M 400.0 461.5 L 428.20000000000005 461.5 L 412.8 443.5 L 410.3 433.3 L 400.0 431.20000000000005 L 392.3 443.5 L 400.0 461.5 Z" fill="none" stroke="#000" stroke-width="1"/><path d="M 435.90000000000003 258.90000000000003 L 460.8 258.90000000000003 L 479.5 258.90000000000003 L 471.8 230.70000000000002 L 435.90000000000003 258.90000000000003 Z" fill="none" stroke="#000" stroke-width="1"/><path d="M 454.09999999999997 186.79999999999998 L 471.8 230.70000000000002 L 502.6 202.5 L 503.1 190.70000000000002 L 503.6 178.4 L 454.09999999999997 186.79999999999998 Z" fill="none" stroke="#000" stroke-width="1"/><path d="M 533.4 117.80000000000001 L 535.9 138.4 L 530.8000000000001 164.0 L 564.1 148.6 L 584.7 140.9 L 574.4 128.1 L 559.0 128.1 L 533.4 117.80000000000001 Z" fill="none" stroke="#000" stroke-width="1"/><path d="M 600.0 353.80000000000007 L 602.6 338.40000000000003 L 612.9 323.0 L 633.4000000000001 320.40000000000003 L 630.8000000000001 343.5 L 628.1999999999999 353.8 L 620.6 374.3 L 617.5 359.09999999999997 L 597.5 369.1 L 600.0 353.80000000000007 Z" fill="none" stroke="#000" stroke-width="1"/><path d="M 471.8 230.70000000000002 L 502.6 202.5 L 518.0 240.9 L 471.8 230.70000000000002 Z" fill="none" stroke="#000" stroke-width="1"/></svg>