<?xml version="1.0" encoding="UTF-8"?>
<svg id="Layer_1" xmlns="http://www.w3.org/2000/svg" version="1.1" xmlns:xlink="http://www.w3.org/1999/xlink" viewBox="0 0 737 538.6">
  <!-- Generator: Adobe Illustrator 30.0.0, SVG Export Plug-In . SVG Version: 2.1.1 Build 123)  -->
  <defs>
    <style>
      .st0 {
        fill: none;
        stroke: #231f20;
        stroke-miterlimit: 10;
      }

      .st1 {
        clip-path: url(#clippath);
      }
    </style>
    <clipPath id="clippath">
      <rect class="st0" y="0" width="737" height="538.6" />
    </clipPath>
  </defs>
  <image x="0" y="0" width="737" height="538.6" preserveAspectRatio="none" href="chobenthanh.png" xlink:href="chobenthanh.png" />
  <g class="st1">
    <g>
      <rect class="st0" x=".3" y="0" width="736.4" height="538.6" />
      <rect class="st0" x=".3" y="0" width="736.4" height="538.6" />
      <polygon class="st0" points="477.3 114 368.1 82 445 114 477.3 114" />
      <polygon class="st0" points="477.3 114 445 114 445 130.2 477.3 114" />
      <polygon class="st0" points="445 114 368.1 82 424.7 114 445 114" />
      <polygon class="st0" points="445 114 424.7 114 445 130.2 445 114" />
      <polygon class="st0" points="424.7 114 368.1 82 417.6 114 424.7 114" />
      <polygon class="st0" points="424.7 114 417.6 114 415.4 124.9 424.7 114" />
      <polygon class="st0" points="417.6 114 368.1 82 368.1 114 417.6 114" />
      <polygon class="st0" points="368.1 114 368.1 82 318.3 114 368.1 114" />
      <polygon class="st0" points="417.6 114 368.1 114 377 124.9 417.6 114" />
      <polygon class="st0" points="320.6 142.4 359.2 124.9 320.6 124.9 320.6 142.4" />
      <polygon class="st0" points="359.2 124.9 320.6 142.4 367.9 142.4 359.2 124.9" />
      <polygon class="st0" points="359.2 124.9 367.9 142.4 368.1 124.9 359.2 124.9" />
      <polygon class="st0" points="367.9 142.4 320.6 142.4 367.9 151.6 367.9 142.4" />
      <polygon class="st0" points="359.2 124.9 368.1 124.9 368.1 114 359.2 124.9" />
      <polygon class="st0" points="368.1 124.9 367.9 142.4 377 124.9 368.1 124.9" />
      <polygon class="st0" points="368.1 124.9 377 124.9 368.1 114 368.1 124.9" />
      <polygon class="st0" points="377 124.9 367.9 142.4 415.4 142.4 377 124.9" />
      <polygon class="st0" points="377 124.9 415.4 142.4 415.4 124.9 377 124.9" />
      <polygon class="st0" points="415.4 142.4 367.9 142.4 367.9 151.6 415.4 142.4" />
      <polygon class="st0" points="415.4 124.9 415.4 142.4 424.7 151.6 415.4 124.9" />
      <polygon class="st0" points="377 124.9 415.4 124.9 417.6 114 377 124.9" />
      <polygon class="st0" points="415.4 124.9 424.7 151.6 424.7 114 415.4 124.9" />
      <polygon class="st0" points="424.7 151.6 415.4 142.4 367.9 151.6 424.7 151.6" />
      <polygon class="st0" points="424.7 114 424.7 151.6 435 135.5 424.7 114" />
      <polygon class="st0" points="424.7 114 435 135.5 445 130.2 424.7 114" />
      <polygon class="st0" points="445 130.2 435 135.5 445 133.5 445 130.2" />
      <polygon class="st0" points="435 135.5 424.7 151.6 445 143.1 435 135.5" />
      <polygon class="st0" points="435 135.5 445 143.1 445 133.5 435 135.5" />
      <polygon class="st0" points="445 143.1 424.7 151.6 445 151.6 445 143.1" />
      <polygon class="st0" points="445 151.6 424.7 151.6 424.7 160 445 151.6" />
      <polygon class="st0" points="445 130.2 445 133.5 477.3 114 445 130.2" />
      <polygon class="st0" points="445 133.5 445 143.1 456.8 144.4 445 133.5" />
      <polygon class="st0" points="477.3 114 445 133.5 456.8 144.4 477.3 114" />
      <polygon class="st0" points="445 160 445 151.6 424.7 160 445 160" />
      <polygon class="st0" points="445 151.6 445 160 453.7 160 445 151.6" />
      <polygon class="st0" points="445 151.6 453.7 160 457.9 151.6 445 151.6" />
      <polygon class="st0" points="453.7 160 445 160 445 176.2 453.7 160" />
      <polygon class="st0" points="424.7 160 424.7 151.6 401.2 160 424.7 160" />
      <polygon class="st0" points="445 160 424.7 160 445 176.2 445 160" />
      <polygon class="st0" points="445 176.2 424.7 160 424.7 176.2 445 176.2" />
      <polygon class="st0" points="445 205.9 445 176.2 424.7 190.4 445 205.9" />
      <polygon class="st0" points="424.7 190.4 445 176.2 424.7 176.2 424.7 190.4" />
      <polygon class="st0" points="445 205.9 424.7 190.4 424.7 221 445 205.9" />
      <polygon class="st0" points="445 251.2 445 205.9 424.7 221 445 251.2" />
      <polygon class="st0" points="445 251.2 424.7 221 424.7 255 445 251.2" />
      <polygon class="st0" points="445 267 445 251.2 424.7 255 445 267" />
      <polygon class="st0" points="445 267 424.7 255 424.7 267 445 267" />
      <polygon class="st0" points="445 297.9 445 267 438.2 297.9 445 297.9" />
      <polygon class="st0" points="445 267 445 297.9 457.5 297.9 445 267" />
      <polygon class="st0" points="445 267 457.5 297.9 469.7 297.9 445 267" />
      <polygon class="st0" points="457.5 297.9 445 297.9 457.5 318.4 457.5 297.9" />
      <polygon class="st0" points="445 267 469.7 297.9 496.7 297.9 445 267" />
      <polygon class="st0" points="469.7 297.9 457.5 297.9 457.5 318.4 469.7 297.9" />
      <polygon class="st0" points="438.2 297.9 445 267 429.4 297.9 438.2 297.9" />
      <polygon class="st0" points="445 297.9 438.2 297.9 457.5 318.4 445 297.9" />
      <polygon class="st0" points="311.5 176.2 321.9 176.2 311.5 160 311.5 176.2" />
      <polygon class="st0" points="321.9 176.2 311.5 176.2 311.5 189.3 321.9 176.2" />
      <polygon class="st0" points="311.5 160 321.9 176.2 336.4 160 311.5 160" />
      <polygon class="st0" points="311.5 176.2 311.5 160 302.7 173.1 311.5 176.2" />
      <polygon class="st0" points="311.5 189.3 311.5 176.2 302.7 173.1 311.5 189.3" />
      <polygon class="st0" points="321.9 176.2 311.5 189.3 333.6 202.3 321.9 176.2" />
      <polygon class="st0" points="321.9 176.2 340.5 176.2 336.4 160 321.9 176.2" />
      <polygon class="st0" points="340.5 176.2 321.9 176.2 333.6 202.3 340.5 176.2" />
      <polygon class="st0" points="336.4 160 340.5 176.2 367.9 176.1 336.4 160" />
      <polygon class="st0" points="340.5 176.2 333.6 202.3 342.2 192.4 340.5 176.2" />
      <polygon class="st0" points="367.9 176.1 340.5 176.2 367.9 179.3 367.9 176.1" />
      <polygon class="st0" points="336.4 160 367.9 176.1 367.9 160 336.4 160" />
      <polygon class="st0" points="367.9 179.3 340.5 176.2 357.9 180.9 367.9 179.3" />
      <polygon class="st0" points="367.9 176.1 367.9 179.3 391.9 176.2 367.9 176.1" />
      <polygon class="st0" points="367.9 176.1 391.9 176.2 381.9 169.4 367.9 176.1" />
      <polygon class="st0" points="381.9 169.4 391.9 176.2 401.2 160 381.9 169.4" />
      <polygon class="st0" points="367.9 176.1 381.9 169.4 367.9 160 367.9 176.1" />
      <polygon class="st0" points="391.9 176.2 367.9 179.3 377.7 180.9 391.9 176.2" />
      <polygon class="st0" points="391.9 176.2 414.5 176.2 401.2 160 391.9 176.2" />
      <polygon class="st0" points="414.5 176.2 391.9 176.2 406.1 199.7 414.5 176.2" />
      <polygon class="st0" points="401.2 160 414.5 176.2 424.7 160 401.2 160" />
      <polygon class="st0" points="406.1 199.7 391.9 176.2 393.4 192.4 406.1 199.7" />
      <polygon class="st0" points="414.5 176.2 406.1 199.7 424.7 190.4 414.5 176.2" />
      <polygon class="st0" points="414.5 176.2 424.7 176.2 424.7 160 414.5 176.2" />
      <polygon class="st0" points="424.7 176.2 414.5 176.2 424.7 190.4 424.7 176.2" />
      <polygon class="st0" points="496.7 297.9 469.7 297.9 469.7 322.7 496.7 297.9" />
      <polygon class="st0" points="469.7 322.7 469.7 297.9 457.5 318.4 469.7 322.7" />
      <polygon class="st0" points="469.7 331.6 457.5 318.4 457.5 350.1 469.7 331.6" />
      <polygon class="st0" points="457.5 318.4 469.7 331.6 469.7 322.7 457.5 318.4" />
      <polygon class="st0" points="469.7 322.7 469.7 331.6 501 351.4 469.7 322.7" />
      <polygon class="st0" points="457.5 318.4 438.2 297.9 438.2 339.4 457.5 318.4" />
      <polygon class="st0" points="429.4 343.4 429.4 297.9 421 309.1 429.4 343.4" />
      <polygon class="st0" points="429.4 297.9 429.4 343.4 438.2 339.4 429.4 297.9" />
      <polygon class="st0" points="429.4 297.9 438.2 339.4 438.2 297.9 429.4 297.9" />
      <polygon class="st0" points="438.2 339.4 429.4 343.4 429.4 387.9 438.2 339.4" />
      <polygon class="st0" points="376.6 293 376.6 273 424.7 267 376.6 293" />
      <polygon class="st0" points="376.6 293 424.7 267 429.4 297.9 376.6 293" />
      <polygon class="st0" points="429.4 297.9 424.7 267 445 267 429.4 297.9" />
      <polygon class="st0" points="396.1 309.1 397.4 297.9 363.8 308.6 396.1 309.1" />
      <polygon class="st0" points="397.4 297.9 396.1 309.1 421 309.1 397.4 297.9" />
      <polygon class="st0" points="397.4 297.9 421 309.1 429.4 297.9 397.4 297.9" />
      <polygon class="st0" points="421 309.1 396.1 309.1 411.6 321 421 309.1" />
      <polygon class="st0" points="397.4 297.9 429.4 297.9 376.6 293 397.4 297.9" />
      <polygon class="st0" points="397.4 297.9 376.6 293 361.4 297.9 397.4 297.9" />
      <polygon class="st0" points="397.4 297.9 361.4 297.9 363.8 308.6 397.4 297.9" />
      <polygon class="st0" points="363.8 308.6 361.4 297.9 341.1 297.9 363.8 308.6" />
      <polygon class="st0" points="361.4 297.9 376.6 293 339.9 292.8 361.4 297.9" />
      <polygon class="st0" points="341.1 297.9 361.4 297.9 339.9 292.8 341.1 297.9" />
      <polygon class="st0" points="363.8 308.6 341.1 297.9 341.1 309.1 363.8 308.6" />
      <polygon class="st0" points="341.1 297.9 339.9 292.8 302 297.9 341.1 297.9" />
      <polygon class="st0" points="306.9 309.1 302 297.9 297.8 297.9 306.9 309.1" />
      <polygon class="st0" points="302 297.9 306.9 309.1 341.1 297.9 302 297.9" />
      <polygon class="st0" points="341.1 297.9 306.9 309.1 341.1 309.1 341.1 297.9" />
      <polygon class="st0" points="341.1 309.1 306.9 309.1 325 325.1 341.1 309.1" />
      <polygon class="st0" points="302 297.9 302.7 267.2 339.7 273.2 302 297.9" />
      <polygon class="st0" points="302 297.9 339.7 273.2 339.9 292.8 302 297.9" />
      <polygon class="st0" points="297.8 339.4 297.8 297.9 278.8 318.6 297.8 339.4" />
      <polygon class="st0" points="297.8 297.9 297.8 339.4 306.9 309.1 297.8 297.9" />
      <polygon class="st0" points="306.9 309.1 297.8 339.4 307 343.6 306.9 309.1" />
      <polygon class="st0" points="306.9 309.1 307 343.6 325 325.1 306.9 309.1" />
      <polygon class="st0" points="307 343.6 297.8 339.4 297.8 380.7 307 343.6" />
      <polygon class="st0" points="297.8 297.9 302 297.9 302.7 267.2 297.8 297.9" />
      <polygon class="st0" points="297.8 297.9 302.7 267.2 291 267 297.8 297.9" />
      <polygon class="st0" points="278.8 318.6 278.8 297.9 266.3 297.9 278.8 318.6" />
      <polygon class="st0" points="278.8 297.9 278.8 318.6 290.9 297.9 278.8 297.9" />
      <polygon class="st0" points="278.8 297.9 290.9 297.9 291 267 278.8 297.9" />
      <polygon class="st0" points="290.9 297.9 278.8 318.6 297.8 297.9 290.9 297.9" />
      <polygon class="st0" points="290.9 297.9 297.8 297.9 291 267 290.9 297.9" />
      <polygon class="st0" points="266.3 297.9 291 267 239.1 297.9 266.3 297.9" />
      <polygon class="st0" points="291 267 266.3 297.9 278.8 297.9 291 267" />
      <polygon class="st0" points="266.3 322.7 266.3 297.9 239.1 297.9 266.3 322.7" />
      <polygon class="st0" points="266.3 297.9 266.3 322.7 278.8 318.6 266.3 297.9" />
      <polygon class="st0" points="278.8 318.6 266.3 322.7 266.3 331.7 278.8 318.6" />
      <polygon class="st0" points="469.7 322.7 501 351.4 534.3 351.4 469.7 322.7" />
      <polygon class="st0" points="501 351.4 469.7 331.6 469.7 351.4 501 351.4" />
      <polygon class="st0" points="534.3 351.4 501 351.4 514.1 370.9 534.3 351.4" />
      <polygon class="st0" points="469.7 351.4 469.7 331.6 457.5 350.1 469.7 351.4" />
      <polygon class="st0" points="501 351.4 469.7 351.4 477.7 370.9 501 351.4" />
      <polygon class="st0" points="457.5 350.1 457.5 318.4 438.2 339.4 457.5 350.1" />
      <polygon class="st0" points="469.7 351.4 457.5 350.1 469.7 370.9 469.7 351.4" />
      <polygon class="st0" points="469.7 351.4 469.7 370.9 477.7 370.9 469.7 351.4" />
      <polygon class="st0" points="477.7 370.9 469.7 370.9 469.7 388.1 477.7 370.9" />
      <polygon class="st0" points="457.5 375.6 457.5 350.1 438.2 339.4 457.5 375.6" />
      <polygon class="st0" points="457.5 350.1 457.5 375.6 469.7 370.9 457.5 350.1" />
      <polygon class="st0" points="469.7 370.9 457.5 375.6 469.7 388.1 469.7 370.9" />
      <polygon class="st0" points="469.7 388.1 457.5 375.6 457.5 409.6 469.7 388.1" />
      <polygon class="st0" points="477.7 370.9 469.7 388.1 496.3 388.1 477.7 370.9" />
      <polygon class="st0" points="469.7 388.1 469.7 426.7 483.9 406.9 469.7 388.1" />
      <polygon class="st0" points="469.7 426.7 469.7 388.1 457.5 409.6 469.7 426.7" />
      <polygon class="st0" points="483.9 406.9 469.7 426.7 485.3 425.8 483.9 406.9" />
      <polygon class="st0" points="469.7 388.1 483.9 406.9 496.3 388.1 469.7 388.1" />
      <polygon class="st0" points="469.7 426.7 457.5 409.6 457.5 446.8 469.7 426.7" />
      <polygon class="st0" points="469.7 426.7 469.8 454.3 481.9 434.8 469.7 426.7" />
      <polygon class="st0" points="469.8 454.3 469.7 426.7 457.5 446.8 469.8 454.3" />
      <polygon class="st0" points="481.9 434.8 469.8 454.3 481.9 464.2 481.9 434.8" />
      <polygon class="st0" points="469.7 426.7 481.9 434.8 485.3 425.8 469.7 426.7" />
      <polygon class="st0" points="469.8 454.3 457.5 446.8 457.5 464.2 469.8 454.3" />
      <polygon class="st0" points="469.8 454.3 469.7 464.2 481.9 464.2 469.8 454.3" />
      <polygon class="st0" points="469.7 464.2 469.8 454.3 457.5 464.2 469.7 464.2" />
      <polygon class="st0" points="481.9 464.2 469.7 464.2 481.9 473.4 481.9 464.2" />
      <polygon class="st0" points="469.7 464.2 457.5 464.2 469.7 487.8 469.7 464.2" />
      <polygon class="st0" points="469.7 464.2 469.7 487.8 481.9 487.8 469.7 464.2" />
      <polygon class="st0" points="469.7 464.2 481.9 487.8 481.9 473.4 469.7 464.2" />
      <polygon class="st0" points="469.7 487.8 457.5 464.2 457.5 487.8 469.7 487.8" />
      <polygon class="st0" points="457.5 375.6 438.2 339.4 438.2 392.7 457.5 375.6" />
      <polygon class="st0" points="457.5 409.6 457.5 375.6 438.2 392.7 457.5 409.6" />
      <polygon class="st0" points="457.5 409.6 438.2 392.7 438.2 429.6 457.5 409.6" />
      <polygon class="st0" points="457.5 446.8 457.5 409.6 438.2 429.6 457.5 446.8" />
      <polygon class="st0" points="457.5 446.8 438.2 429.6 438.2 464.2 457.5 446.8" />
      <polygon class="st0" points="457.5 464.2 457.5 446.8 438.2 464.2 457.5 464.2" />
      <polygon class="st0" points="457.5 464.2 438.2 464.2 438.2 487.8 457.5 464.2" />
      <polygon class="st0" points="457.5 487.8 457.5 464.2 438.2 487.8 457.5 487.8" />
      <polygon class="st0" points="438.2 392.7 438.2 339.4 429.4 387.9 438.2 392.7" />
      <polygon class="st0" points="429.4 387.9 429.4 343.4 422.9 368.8 429.4 387.9" />
      <polygon class="st0" points="438.2 392.7 429.4 387.9 429.4 410.7 438.2 392.7" />
      <polygon class="st0" points="438.2 429.6 438.2 392.7 429.4 410.7 438.2 429.6" />
      <polygon class="st0" points="438.2 429.6 429.4 410.7 429.4 464.2 438.2 429.6" />
      <polygon class="st0" points="429.4 410.7 429.4 387.9 416.5 402.1 429.4 410.7" />
      <polygon class="st0" points="438.2 464.2 438.2 429.6 429.4 464.2 438.2 464.2" />
      <polygon class="st0" points="429.4 464.2 429.4 410.7 416.5 424.1 429.4 464.2" />
      <polygon class="st0" points="438.2 464.2 429.4 464.2 429.4 487.8 438.2 464.2" />
      <polygon class="st0" points="438.2 487.8 438.2 464.2 429.4 487.8 438.2 487.8" />
      <polygon class="st0" points="422.1 342.5 421 309.1 411.6 321 422.1 342.5" />
      <polygon class="st0" points="421 309.1 422.1 342.5 429.4 343.4 421 309.1" />
      <polygon class="st0" points="429.4 343.4 422.1 342.5 422.9 368.8 429.4 343.4" />
      <polygon class="st0" points="429.4 387.9 422.9 368.8 414.1 385.2 429.4 387.9" />
      <polygon class="st0" points="422.9 368.8 422.1 342.5 405.5 369 422.9 368.8" />
      <polygon class="st0" points="416.5 424.1 416.5 402.1 407 402.7 416.5 424.1" />
      <polygon class="st0" points="416.5 402.1 416.5 424.1 429.4 410.7 416.5 402.1" />
      <polygon class="st0" points="416.5 402.1 429.4 387.9 414.1 385.2 416.5 402.1" />
      <polygon class="st0" points="414.1 385.2 422.9 368.8 405.5 369 414.1 385.2" />
      <polygon class="st0" points="416.5 402.1 414.1 385.2 403.6 391.6 416.5 402.1" />
      <polygon class="st0" points="416.5 451.4 416.5 424.1 407 428.1 416.5 451.4" />
      <polygon class="st0" points="416.5 424.1 416.5 451.4 429.4 464.2 416.5 424.1" />
      <polygon class="st0" points="429.4 464.2 416.5 451.4 416.5 473.6 429.4 464.2" />
      <polygon class="st0" points="429.4 487.8 429.4 464.2 416.5 473.6 429.4 487.8" />
      <polygon class="st0" points="429.4 487.8 416.5 473.6 416.5 487.8 429.4 487.8" />
      <polygon class="st0" points="367.9 160 367.9 151.6 336.4 160 367.9 160" />
      <polygon class="st0" points="367.9 151.6 367.9 160 401.2 160 367.9 151.6" />
      <polygon class="st0" points="367.9 151.6 401.2 160 424.7 151.6 367.9 151.6" />
      <polygon class="st0" points="401.2 160 367.9 160 381.9 169.4 401.2 160" />
      <polygon class="st0" points="424.7 221 424.7 190.4 415.8 211.7 424.7 221" />
      <polygon class="st0" points="415.8 211.7 424.7 190.4 406.1 199.7 415.8 211.7" />
      <polygon class="st0" points="424.7 221 415.8 211.7 402.3 232.3 424.7 221" />
      <polygon class="st0" points="424.7 255 424.7 221 410.8 255 424.7 255" />
      <polygon class="st0" points="410.8 255 424.7 221 402.3 232.3 410.8 255" />
      <polygon class="st0" points="424.7 255 410.8 255 404 267 424.7 255" />
      <polygon class="st0" points="424.7 267 424.7 255 404 267 424.7 267" />
      <polygon class="st0" points="424.7 267 404 267 376.6 273 424.7 267" />
      <polygon class="st0" points="339.9 292.8 339.7 273.2 376.6 273 339.9 292.8" />
      <polygon class="st0" points="339.9 292.8 376.6 273 376.6 293 339.9 292.8" />
      <polygon class="st0" points="376.6 273 404 267 377.5 267.2 376.6 273" />
      <polygon class="st0" points="377.5 267.2 404 267 383.4 252.1 377.5 267.2" />
      <polygon class="st0" points="376.6 273 377.5 267.2 360.8 267 376.6 273" />
      <polygon class="st0" points="383.4 252.1 404 267 393.2 247.2 383.4 252.1" />
      <polygon class="st0" points="377.5 267.2 383.4 252.1 367.9 242.5 377.5 267.2" />
      <polygon class="st0" points="360.8 267 377.5 267.2 367.9 242.5 360.8 267" />
      <polygon class="st0" points="376.6 273 360.8 267 339.7 273.2 376.6 273" />
      <polygon class="st0" points="360.8 267 367.9 242.5 344.4 257 360.8 267" />
      <polygon class="st0" points="367.9 242.5 383.4 252.1 377.7 241 367.9 242.5" />
      <polygon class="st0" points="360.8 267 302.7 267.2 339.7 273.2 360.8 267" />
      <polygon class="st0" points="302.7 267.2 360.8 267 344.4 257 302.7 267.2" />
      <polygon class="st0" points="302.7 267.2 311.5 255 291 267 302.7 267.2" />
      <polygon class="st0" points="311.5 255 302.7 267.2 344.4 257 311.5 255" />
      <polygon class="st0" points="311.5 255 344.4 257 333.2 233.9 311.5 255" />
      <polygon class="st0" points="291 267 311.5 255 290.9 251.5 291 267" />
      <polygon class="st0" points="501 351.4 477.7 370.9 514.1 370.9 501 351.4" />
      <polygon class="st0" points="534.3 351.4 514.1 370.9 556.3 370.9 534.3 351.4" />
      <polygon class="st0" points="576 351.4 534.3 351.4 556.3 370.9 576 351.4" />
      <polygon class="st0" points="576 351.4 556.3 370.9 587 370.9 576 351.4" />
      <polygon class="st0" points="633.7 388.1 600.8 388.1 614.4 401.9 633.7 388.1" />
      <polygon class="st0" points="600.8 388.1 633.7 388.1 633.7 384.3 600.8 388.1" />
      <polygon class="st0" points="614.4 401.9 600.8 388.1 600.8 411.7 614.4 401.9" />
      <polygon class="st0" points="633.7 388.1 614.4 401.9 627.9 415.6 633.7 388.1" />
      <polygon class="st0" points="600.8 388.1 600.7 365.5 587 370.9 600.8 388.1" />
      <polygon class="st0" points="600.7 365.5 600.8 388.1 633.7 384.3 600.7 365.5" />
      <polygon class="st0" points="600.8 388.1 573.5 388.1 584.4 409.4 600.8 388.1" />
      <polygon class="st0" points="573.5 388.1 600.8 388.1 587 370.9 573.5 388.1" />
      <polygon class="st0" points="584.4 409.4 573.5 388.1 557.6 402.5 584.4 409.4" />
      <polygon class="st0" points="600.8 388.1 584.4 409.4 600.8 411.7 600.8 388.1" />
      <polygon class="st0" points="573.5 388.1 587 370.9 556.3 370.9 573.5 388.1" />
      <polygon class="st0" points="573.5 388.1 534.8 388.1 557.6 402.5 573.5 388.1" />
      <polygon class="st0" points="534.8 388.1 573.5 388.1 556.3 370.9 534.8 388.1" />
      <polygon class="st0" points="557.6 402.5 534.8 388.1 535.6 423.4 557.6 402.5" />
      <polygon class="st0" points="534.8 388.1 556.3 370.9 514.1 370.9 534.8 388.1" />
      <polygon class="st0" points="534.8 388.1 496.3 388.1 517.5 406.3 534.8 388.1" />
      <polygon class="st0" points="496.3 388.1 534.8 388.1 514.1 370.9 496.3 388.1" />
      <polygon class="st0" points="517.5 406.3 496.3 388.1 497.3 415.4 517.5 406.3" />
      <polygon class="st0" points="534.8 388.1 517.5 406.3 535.6 423.4 534.8 388.1" />
      <polygon class="st0" points="496.3 388.1 514.1 370.9 477.7 370.9 496.3 388.1" />
      <polygon class="st0" points="496.3 388.1 483.9 406.9 497.3 415.4 496.3 388.1" />
      <polygon class="st0" points="587 370.9 600.7 365.5 576 351.4 587 370.9" />
      <polygon class="st0" points="614.4 401.9 600.8 411.7 627.9 415.6 614.4 401.9" />
      <polygon class="st0" points="600.8 411.7 584.4 409.4 600.8 434.8 600.8 411.7" />
      <polygon class="st0" points="600.8 411.7 600.8 434.8 610.2 427.7 600.8 411.7" />
      <polygon class="st0" points="610.2 427.7 600.8 434.8 608.3 434.8 610.2 427.7" />
      <polygon class="st0" points="600.8 411.7 610.2 427.7 617 420 600.8 411.7" />
      <polygon class="st0" points="600.8 434.8 584.4 409.4 584.2 425.8 600.8 434.8" />
      <polygon class="st0" points="600.8 487.8 600.8 434.8 587.3 473.4 600.8 487.8" />
      <polygon class="st0" points="600.8 434.8 600.8 487.8 608.3 473.4 600.8 434.8" />
      <polygon class="st0" points="600.8 434.8 608.3 473.4 608.3 447.2 600.8 434.8" />
      <polygon class="st0" points="608.3 473.4 600.8 487.8 608.3 487.8 608.3 473.4" />
      <polygon class="st0" points="608.3 473.4 608.3 487.8 622.6 487.8 608.3 473.4" />
      <polygon class="st0" points="600.8 434.8 608.3 447.2 608.3 434.8 600.8 434.8" />
      <polygon class="st0" points="608.3 447.2 608.3 473.4 618.6 457.7 608.3 447.2" />
      <polygon class="st0" points="587.3 487.8 587.3 473.4 563.6 487.8 587.3 487.8" />
      <polygon class="st0" points="587.3 473.4 587.3 487.8 600.8 487.8 587.3 473.4" />
      <polygon class="st0" points="587.3 473.4 600.8 434.8 587.3 434.8 587.3 473.4" />
      <polygon class="st0" points="587.3 473.4 587.3 434.8 575.4 454 587.3 473.4" />
      <polygon class="st0" points="587.3 434.8 600.8 434.8 584.2 425.8 587.3 434.8" />
      <polygon class="st0" points="382.1 370.9 385.7 353.6 375.4 369.2 382.1 370.9" />
      <polygon class="st0" points="385.7 353.6 382.1 370.9 396.1 359.6 385.7 353.6" />
      <polygon class="st0" points="385.7 353.6 396.1 359.6 396.1 340.7 385.7 353.6" />
      <polygon class="st0" points="396.1 359.6 382.1 370.9 390.3 375.4 396.1 359.6" />
      <polygon class="st0" points="396.1 359.6 390.3 375.4 405.5 369 396.1 359.6" />
      <polygon class="st0" points="390.3 375.4 382.1 370.9 368.7 402.7 390.3 375.4" />
      <polygon class="st0" points="375.4 369.2 377 351.4 368.7 368.5 375.4 369.2" />
      <polygon class="st0" points="377 351.4 375.4 369.2 385.7 353.6 377 351.4" />
      <polygon class="st0" points="377 351.4 385.7 353.6 377.9 337.8 377 351.4" />
      <polygon class="st0" points="382.1 370.9 375.4 369.2 368.7 402.7 382.1 370.9" />
      <polygon class="st0" points="368.7 368.5 368.7 350.7 360.8 351.4 368.7 368.5" />
      <polygon class="st0" points="368.7 350.7 368.7 368.5 377 351.4 368.7 350.7" />
      <polygon class="st0" points="368.7 350.7 377 351.4 377.9 337.8 368.7 350.7" />
      <polygon class="st0" points="375.4 369.2 368.7 368.5 368.7 402.7 375.4 369.2" />
      <polygon class="st0" points="396.1 359.6 405.5 369 422.1 342.5 396.1 359.6" />
      <polygon class="st0" points="405.5 369 390.3 375.4 397.7 382.7 405.5 369" />
      <polygon class="st0" points="405.5 369 397.7 382.7 414.1 385.2 405.5 369" />
      <polygon class="st0" points="397.7 382.7 390.3 375.4 368.7 402.7 397.7 382.7" />
      <polygon class="st0" points="403.6 391.6 397.7 382.7 368.7 402.7 403.6 391.6" />
      <polygon class="st0" points="397.7 382.7 403.6 391.6 414.1 385.2 397.7 382.7" />
      <polygon class="st0" points="407 402.7 403.6 391.6 368.7 402.7 407 402.7" />
      <polygon class="st0" points="403.6 391.6 407 402.7 416.5 402.1 403.6 391.6" />
      <polygon class="st0" points="407 487.8 407 455.8 391.4 477.5 407 487.8" />
      <polygon class="st0" points="407 455.8 407 487.8 416.5 473.6 407 455.8" />
      <polygon class="st0" points="407 455.8 416.5 473.6 416.5 451.4 407 455.8" />
      <polygon class="st0" points="416.5 473.6 407 487.8 416.5 487.8 416.5 473.6" />
      <polygon class="st0" points="416.5 424.1 407 402.7 407 428.1 416.5 424.1" />
      <polygon class="st0" points="407 428.1 407 402.7 368.7 402.7 407 428.1" />
      <polygon class="st0" points="416.5 451.4 407 428.1 407 455.8 416.5 451.4" />
      <polygon class="st0" points="407 455.8 407 428.1 390.8 442.5 407 455.8" />
      <polygon class="st0" points="481.9 473.4 481.9 487.8 504.6 487.8 481.9 473.4" />
      <polygon class="st0" points="481.9 464.2 481.9 473.4 493.2 454 481.9 464.2" />
      <polygon class="st0" points="633.7 388.1 627.9 415.6 633.7 415.6 633.7 388.1" />
      <polygon class="st0" points="633.7 415.6 627.9 415.6 633.7 434.8 633.7 415.6" />
      <polygon class="st0" points="627.9 415.6 600.8 411.7 617 420 627.9 415.6" />
      <polygon class="st0" points="633.7 434.8 627.9 415.6 617 420 633.7 434.8" />
      <polygon class="st0" points="527.2 434.8 504.6 434.8 515.9 454 527.2 434.8" />
      <polygon class="st0" points="504.6 434.8 527.2 434.8 524.9 425.8 504.6 434.8" />
      <polygon class="st0" points="515.9 454 504.6 434.8 504.6 473.4 515.9 454" />
      <polygon class="st0" points="527.2 434.8 515.9 454 527.2 447.2 527.2 434.8" />
      <polygon class="st0" points="524.9 425.8 527.2 434.8 535.6 423.4 524.9 425.8" />
      <polygon class="st0" points="504.6 434.8 524.9 425.8 519.5 418.9 504.6 434.8" />
      <polygon class="st0" points="504.6 434.8 481.9 434.8 493.2 454 504.6 434.8" />
      <polygon class="st0" points="481.9 434.8 504.6 434.8 485.3 425.8 481.9 434.8" />
      <polygon class="st0" points="493.2 454 481.9 434.8 481.9 464.2 493.2 454" />
      <polygon class="st0" points="504.6 434.8 493.2 454 504.6 473.4 504.6 434.8" />
      <polygon class="st0" points="485.3 425.8 504.6 434.8 490.6 418.9 485.3 425.8" />
      <polygon class="st0" points="515.9 454 504.6 473.4 527.2 473.4 515.9 454" />
      <polygon class="st0" points="504.6 473.4 493.2 454 481.9 473.4 504.6 473.4" />
      <polygon class="st0" points="504.6 473.4 504.6 487.8 527.2 473.4 504.6 473.4" />
      <polygon class="st0" points="504.6 487.8 504.6 473.4 481.9 473.4 504.6 487.8" />
      <polygon class="st0" points="527.2 473.4 504.6 487.8 527.2 487.8 527.2 473.4" />
      <polygon class="st0" points="504.6 434.8 519.5 418.9 513 416.1 504.6 434.8" />
      <polygon class="st0" points="513 416.1 519.5 418.9 517.5 406.3 513 416.1" />
      <polygon class="st0" points="504.6 434.8 513 416.1 505.3 414.1 504.6 434.8" />
      <polygon class="st0" points="519.5 418.9 524.9 425.8 535.6 423.4 519.5 418.9" />
      <polygon class="st0" points="490.6 418.9 504.6 434.8 497.3 415.4 490.6 418.9" />
      <polygon class="st0" points="485.3 425.8 490.6 418.9 483.9 406.9 485.3 425.8" />
      <polygon class="st0" points="497.3 415.4 504.6 434.8 505.3 414.1 497.3 415.4" />
      <polygon class="st0" points="490.6 418.9 497.3 415.4 483.9 406.9 490.6 418.9" />
      <polygon class="st0" points="515.9 454 527.2 473.4 527.2 447.2 515.9 454" />
      <polygon class="st0" points="527.2 447.2 527.2 473.4 541.2 463.3 527.2 447.2" />
      <polygon class="st0" points="527.2 434.8 527.2 447.2 541.2 434.8 527.2 434.8" />
      <polygon class="st0" points="587.3 434.8 563.6 434.8 575.4 454 587.3 434.8" />
      <polygon class="st0" points="563.6 434.8 587.3 434.8 584.2 425.8 563.6 434.8" />
      <polygon class="st0" points="575.4 454 563.6 434.8 563.6 473.4 575.4 454" />
      <polygon class="st0" points="563.6 434.8 584.2 425.8 578.6 418.9 563.6 434.8" />
      <polygon class="st0" points="563.6 434.8 541.2 434.8 552.4 454 563.6 434.8" />
      <polygon class="st0" points="541.2 434.8 563.6 434.8 544.3 425.8 541.2 434.8" />
      <polygon class="st0" points="552.4 454 541.2 434.8 541.2 463.3 552.4 454" />
      <polygon class="st0" points="563.6 434.8 552.4 454 563.6 473.4 563.6 434.8" />
      <polygon class="st0" points="544.3 425.8 563.6 434.8 549.9 418.9 544.3 425.8" />
      <polygon class="st0" points="541.2 434.8 544.3 425.8 535.6 423.4 541.2 434.8" />
      <polygon class="st0" points="575.4 454 563.6 473.4 587.3 473.4 575.4 454" />
      <polygon class="st0" points="563.6 473.4 552.4 454 541.2 473.4 563.6 473.4" />
      <polygon class="st0" points="563.6 473.4 563.6 487.8 587.3 473.4 563.6 473.4" />
      <polygon class="st0" points="563.6 487.8 563.6 473.4 541.2 473.4 563.6 487.8" />
      <polygon class="st0" points="563.6 487.8 541.2 473.4 541.2 487.8 563.6 487.8" />
      <polygon class="st0" points="563.6 434.8 578.6 418.9 571.9 416.1 563.6 434.8" />
      <polygon class="st0" points="571.9 416.1 578.6 418.9 584.4 409.4 571.9 416.1" />
      <polygon class="st0" points="563.6 434.8 571.9 416.1 564.5 414.1 563.6 434.8" />
      <polygon class="st0" points="578.6 418.9 584.2 425.8 584.4 409.4 578.6 418.9" />
      <polygon class="st0" points="549.9 418.9 563.6 434.8 556.3 415.4 549.9 418.9" />
      <polygon class="st0" points="544.3 425.8 549.9 418.9 535.6 423.4 544.3 425.8" />
      <polygon class="st0" points="556.3 415.4 563.6 434.8 564.5 414.1 556.3 415.4" />
      <polygon class="st0" points="549.9 418.9 556.3 415.4 557.6 402.5 549.9 418.9" />
      <polygon class="st0" points="541.2 473.4 552.4 454 541.2 463.3 541.2 473.4" />
      <polygon class="st0" points="541.2 473.4 541.2 463.3 527.2 473.4 541.2 473.4" />
      <polygon class="st0" points="541.2 463.3 541.2 434.8 527.2 447.2 541.2 463.3" />
      <polygon class="st0" points="253.6 434.8 231.2 434.8 242.5 454 253.6 434.8" />
      <polygon class="st0" points="231.2 434.8 253.6 434.8 251.3 426 231.2 434.8" />
      <polygon class="st0" points="242.5 454 231.2 434.8 231.2 473.4 242.5 454" />
      <polygon class="st0" points="253.6 434.8 242.5 454 253.6 473.4 253.6 434.8" />
      <polygon class="st0" points="251.3 426 253.6 434.8 266.3 428.3 251.3 426" />
      <polygon class="st0" points="231.2 434.8 251.3 426 246.1 418.9 231.2 434.8" />
      <polygon class="st0" points="231.2 434.8 208.6 434.8 219.9 454 231.2 434.8" />
      <polygon class="st0" points="208.6 434.8 231.2 434.8 211.9 425.8 208.6 434.8" />
      <polygon class="st0" points="219.9 454 208.6 434.8 208.6 449.2 219.9 454" />
      <polygon class="st0" points="231.2 434.8 219.9 454 231.2 473.4 231.2 434.8" />
      <polygon class="st0" points="211.9 425.8 231.2 434.8 217.2 418.9 211.9 425.8" />
      <polygon class="st0" points="208.6 434.8 211.9 425.8 202.2 427.9 208.6 434.8" />
      <polygon class="st0" points="242.5 454 231.2 473.4 253.6 473.4 242.5 454" />
      <polygon class="st0" points="231.2 473.4 219.9 454 208.6 473.4 231.2 473.4" />
      <polygon class="st0" points="231.2 473.4 231.2 487.8 253.6 473.4 231.2 473.4" />
      <polygon class="st0" points="231.2 487.8 231.2 473.4 208.6 473.4 231.2 487.8" />
      <polygon class="st0" points="253.6 473.4 231.2 487.8 253.6 487.8 253.6 473.4" />
      <polygon class="st0" points="231.2 487.8 208.6 473.4 208.6 487.8 231.2 487.8" />
      <polygon class="st0" points="231.2 434.8 246.1 418.9 239.6 416.1 231.2 434.8" />
      <polygon class="st0" points="239.6 416.1 246.1 418.9 240.4 388.2 239.6 416.1" />
      <polygon class="st0" points="231.2 434.8 239.6 416.1 230.3 414.6 231.2 434.8" />
      <polygon class="st0" points="246.1 418.9 251.3 426 257.4 404.6 246.1 418.9" />
      <polygon class="st0" points="217.2 418.9 231.2 434.8 223.9 415.4 217.2 418.9" />
      <polygon class="st0" points="211.9 425.8 217.2 418.9 202.2 427.9 211.9 425.8" />
      <polygon class="st0" points="223.9 415.4 231.2 434.8 230.3 414.6 223.9 415.4" />
      <polygon class="st0" points="217.2 418.9 223.9 415.4 222.2 407.3 217.2 418.9" />
      <polygon class="st0" points="208.6 473.4 219.9 454 208.6 449.2 208.6 473.4" />
      <polygon class="st0" points="208.6 473.4 208.6 449.2 195.5 465.7 208.6 473.4" />
      <polygon class="st0" points="208.6 449.2 208.6 434.8 195.5 434.8 208.6 449.2" />
      <polygon class="st0" points="253.6 434.8 253.6 473.4 266.3 465.1 253.6 434.8" />
      <polygon class="st0" points="195.5 434.8 173.2 434.8 184.2 454 195.5 434.8" />
      <polygon class="st0" points="173.2 434.8 195.5 434.8 193.5 425.8 173.2 434.8" />
      <polygon class="st0" points="184.2 454 173.2 434.8 173.2 473.4 184.2 454" />
      <polygon class="st0" points="195.5 434.8 184.2 454 195.5 465.7 195.5 434.8" />
      <polygon class="st0" points="193.5 425.8 195.5 434.8 202.2 427.9 193.5 425.8" />
      <polygon class="st0" points="173.2 434.8 193.5 425.8 187.9 418.9 173.2 434.8" />
      <polygon class="st0" points="173.2 434.8 150.5 434.8 161.8 454 173.2 434.8" />
      <polygon class="st0" points="150.5 434.8 173.2 434.8 153.6 425.8 150.5 434.8" />
      <polygon class="st0" points="161.8 454 150.5 434.8 150.5 473.4 161.8 454" />
      <polygon class="st0" points="173.2 434.8 161.8 454 173.2 473.4 173.2 434.8" />
      <polygon class="st0" points="153.6 425.8 173.2 434.8 159.2 418.9 153.6 425.8" />
      <polygon class="st0" points="150.5 434.8 153.6 425.8 151.6 409.4 150.5 434.8" />
      <polygon class="st0" points="136.5 467.8 136.5 434.8 129 460.5 136.5 467.8" />
      <polygon class="st0" points="136.5 434.8 136.5 467.8 150.5 434.8 136.5 434.8" />
      <polygon class="st0" points="136.5 434.8 150.5 434.8 151.6 409.4 136.5 434.8" />
      <polygon class="st0" points="150.5 434.8 136.5 467.8 150.5 473.4 150.5 434.8" />
      <polygon class="st0" points="150.5 473.4 136.5 467.8 136.5 487.8 150.5 473.4" />
      <polygon class="st0" points="136.5 434.8 151.6 409.4 136.5 411.5 136.5 434.8" />
      <polygon class="st0" points="129 460.5 128.8 435.1 121 455.9 129 460.5" />
      <polygon class="st0" points="128.8 435.1 129 460.5 136.5 434.8 128.8 435.1" />
      <polygon class="st0" points="128.8 435.1 136.5 434.8 136.5 411.5 128.8 435.1" />
      <polygon class="st0" points="136.5 467.8 129 460.5 129.2 472.7 136.5 467.8" />
      <polygon class="st0" points="128.8 435.1 136.5 411.5 124.5 425.6 128.8 435.1" />
      <polygon class="st0" points="121 455.9 102.6 434.6 102.6 473.4 121 455.9" />
      <polygon class="st0" points="102.6 434.6 121 455.9 128.8 435.1 102.6 434.6" />
      <polygon class="st0" points="102.6 434.6 128.8 435.1 124.5 425.6 102.6 434.6" />
      <polygon class="st0" points="129 460.5 121 455.9 129.2 472.7 129 460.5" />
      <polygon class="st0" points="102.6 434.6 124.5 425.6 118.7 418.9 102.6 434.6" />
      <polygon class="st0" points="184.2 454 173.2 473.4 195.5 473.4 184.2 454" />
      <polygon class="st0" points="173.2 473.4 161.8 454 150.5 473.4 173.2 473.4" />
      <polygon class="st0" points="173.2 473.4 173.2 487.8 195.5 473.4 173.2 473.4" />
      <polygon class="st0" points="173.2 487.8 173.2 473.4 150.5 473.4 173.2 487.8" />
      <polygon class="st0" points="195.5 473.4 173.2 487.8 195.5 487.8 195.5 473.4" />
      <polygon class="st0" points="173.2 487.8 150.5 473.4 150.5 487.8 173.2 487.8" />
      <polygon class="st0" points="173.2 434.8 187.9 418.9 181.5 416.1 173.2 434.8" />
      <polygon class="st0" points="181.5 416.1 187.9 418.9 179.2 403.2 181.5 416.1" />
      <polygon class="st0" points="173.2 434.8 181.5 416.1 173.8 414.1 173.2 434.8" />
      <polygon class="st0" points="187.9 418.9 193.5 425.8 202.2 427.9 187.9 418.9" />
      <polygon class="st0" points="159.2 418.9 173.2 434.8 165.8 415.4 159.2 418.9" />
      <polygon class="st0" points="153.6 425.8 159.2 418.9 151.6 409.4 153.6 425.8" />
      <polygon class="st0" points="165.8 415.4 173.2 434.8 173.8 414.1 165.8 415.4" />
      <polygon class="st0" points="159.2 418.9 165.8 415.4 151.6 409.4 159.2 418.9" />
      <polygon class="st0" points="184.2 454 195.5 473.4 195.5 465.7 184.2 454" />
      <polygon class="st0" points="195.5 465.7 195.5 473.4 208.6 473.4 195.5 465.7" />
      <polygon class="st0" points="195.5 434.8 195.5 465.7 208.6 449.2 195.5 434.8" />
      <polygon class="st0" points="102.6 434.6 118.7 418.9 114.6 416 102.6 434.6" />
      <polygon class="st0" points="114.6 416 118.7 418.9 136.5 411.5 114.6 416" />
      <polygon class="st0" points="102.6 434.6 114.6 416 107.4 414.3 102.6 434.6" />
      <polygon class="st0" points="118.7 418.9 124.5 425.6 136.5 411.5 118.7 418.9" />
      <polygon class="st0" points="121 455.9 102.6 473.4 129.2 472.7 121 455.9" />
      <polygon class="st0" points="129.2 472.7 102.6 487.8 128.2 487.8 129.2 472.7" />
      <polygon class="st0" points="102.6 487.8 129.2 472.7 102.6 473.4 102.6 487.8" />
      <polygon class="st0" points="129.2 472.7 128.2 487.8 136.5 487.8 129.2 472.7" />
      <polygon class="st0" points="411.6 321 396.1 309.1 396.1 340.7 411.6 321" />
      <polygon class="st0" points="396.1 309.1 363.8 308.6 378 314.5 396.1 309.1" />
      <polygon class="st0" points="378 314.5 363.8 308.6 359.5 315 378 314.5" />
      <polygon class="st0" points="396.1 309.1 378 314.5 396.1 340.7 396.1 309.1" />
      <polygon class="st0" points="363.8 308.6 341.1 309.1 359.5 315 363.8 308.6" />
      <polygon class="st0" points="359.5 315 341.1 309.1 341.1 339.4 359.5 315" />
      <polygon class="st0" points="341.1 309.1 325 325.1 341.1 339.4 341.1 309.1" />
      <polygon class="st0" points="266.3 322.7 201.7 351.4 235 351.5 266.3 322.7" />
      <polygon class="st0" points="266.3 322.7 235 351.5 266.3 331.7 266.3 322.7" />
      <polygon class="st0" points="235 351.5 201.7 351.4 222.1 370.9 235 351.5" />
      <polygon class="st0" points="266.3 331.7 235 351.5 257.4 351.4 266.3 331.7" />
      <polygon class="st0" points="266.3 351.4 257.4 351.4 257.5 370.9 266.3 351.4" />
      <polygon class="st0" points="257.4 351.4 266.3 351.4 266.3 331.7 257.4 351.4" />
      <polygon class="st0" points="257.5 370.9 257.4 351.4 235 351.5 257.5 370.9" />
      <polygon class="st0" points="266.3 351.4 257.5 370.9 266.3 370.9 266.3 351.4" />
      <polygon class="st0" points="266.3 331.7 266.3 351.4 278.8 349.6 266.3 331.7" />
      <polygon class="st0" points="257.5 370.9 235 351.5 222.1 370.9 257.5 370.9" />
      <polygon class="st0" points="222.1 370.9 201.7 351.4 181.7 370.9 222.1 370.9" />
      <polygon class="st0" points="201.7 351.4 160 351.4 181.7 370.9 201.7 351.4" />
      <polygon class="st0" points="181.7 370.9 160 351.4 148.9 370.9 181.7 370.9" />
      <polygon class="st0" points="102.6 384.3 102.6 388.1 136.5 388.1 102.6 384.3" />
      <polygon class="st0" points="102.6 384.3 136.5 388.1 136.5 364.9 102.6 384.3" />
      <polygon class="st0" points="136.5 388.1 102.6 388.1 122.5 401.8 136.5 388.1" />
      <polygon class="st0" points="136.5 364.9 136.5 388.1 148.9 370.9 136.5 364.9" />
      <polygon class="st0" points="136.5 364.9 148.9 370.9 160 351.4 136.5 364.9" />
      <polygon class="st0" points="122.5 401.8 102.6 388.1 107.4 414.3 122.5 401.8" />
      <polygon class="st0" points="136.5 388.1 122.5 401.8 136.5 411.5 136.5 388.1" />
      <polygon class="st0" points="136.5 388.1 161.6 388.1 148.9 370.9 136.5 388.1" />
      <polygon class="st0" points="161.6 388.1 136.5 388.1 151.6 409.4 161.6 388.1" />
      <polygon class="st0" points="148.9 370.9 161.6 388.1 181.7 370.9 148.9 370.9" />
      <polygon class="st0" points="151.6 409.4 136.5 388.1 136.5 411.5 151.6 409.4" />
      <polygon class="st0" points="161.6 388.1 151.6 409.4 179.2 403.2 161.6 388.1" />
      <polygon class="st0" points="161.6 388.1 200.9 388.1 181.7 370.9 161.6 388.1" />
      <polygon class="st0" points="200.9 388.1 161.6 388.1 179.2 403.2 200.9 388.1" />
      <polygon class="st0" points="181.7 370.9 200.9 388.1 222.1 370.9 181.7 370.9" />
      <polygon class="st0" points="200.9 388.1 179.2 403.2 202.2 427.9 200.9 388.1" />
      <polygon class="st0" points="200.9 388.1 240.4 388.2 222.1 370.9 200.9 388.1" />
      <polygon class="st0" points="240.4 388.2 200.9 388.1 222.2 407.3 240.4 388.2" />
      <polygon class="st0" points="222.1 370.9 240.4 388.2 257.5 370.9 222.1 370.9" />
      <polygon class="st0" points="222.2 407.3 200.9 388.1 202.2 427.9 222.2 407.3" />
      <polygon class="st0" points="240.4 388.2 222.2 407.3 230.3 414.6 240.4 388.2" />
      <polygon class="st0" points="240.4 388.2 257.4 388.1 257.5 370.9 240.4 388.2" />
      <polygon class="st0" points="257.4 388.1 240.4 388.2 257.4 404.6 257.4 388.1" />
      <polygon class="st0" points="257.5 370.9 257.4 388.1 266.3 378.7 257.5 370.9" />
      <polygon class="st0" points="257.4 404.6 240.4 388.2 246.1 418.9 257.4 404.6" />
      <polygon class="st0" points="257.4 388.1 257.4 404.6 266.3 388.2 257.4 388.1" />
      <polygon class="st0" points="257.5 370.9 266.3 378.7 266.3 370.9 257.5 370.9" />
      <polygon class="st0" points="266.3 378.7 257.4 388.1 266.3 388.2 266.3 378.7" />
      <polygon class="st0" points="266.3 378.7 266.3 388.2 278.8 375 266.3 378.7" />
      <polygon class="st0" points="266.3 388.2 257.4 404.6 266.3 428.3 266.3 388.2" />
      <polygon class="st0" points="136.5 411.5 122.5 401.8 107.4 414.3 136.5 411.5" />
      <polygon class="st0" points="136.5 487.8 136.5 467.8 129.2 472.7 136.5 487.8" />
      <polygon class="st0" points="150.5 473.4 136.5 487.8 150.5 487.8 150.5 473.4" />
      <polygon class="st0" points="362.4 369.2 360.8 351.4 351.9 353.6 362.4 369.2" />
      <polygon class="st0" points="360.8 351.4 362.4 369.2 368.7 368.5 360.8 351.4" />
      <polygon class="st0" points="368.7 368.5 362.4 369.2 368.7 402.7 368.7 368.5" />
      <polygon class="st0" points="360.8 351.4 368.7 350.7 359.9 337.8 360.8 351.4" />
      <polygon class="st0" points="355.7 370.9 351.9 353.6 341.5 359.6 355.7 370.9" />
      <polygon class="st0" points="351.9 353.6 355.7 370.9 362.4 369.2 351.9 353.6" />
      <polygon class="st0" points="362.4 369.2 355.7 370.9 368.7 402.7 362.4 369.2" />
      <polygon class="st0" points="351.9 353.6 360.8 351.4 359.9 337.8 351.9 353.6" />
      <polygon class="st0" points="347.4 375.4 341.5 359.6 332.3 369 347.4 375.4" />
      <polygon class="st0" points="341.5 359.6 347.4 375.4 355.7 370.9 341.5 359.6" />
      <polygon class="st0" points="355.7 370.9 347.4 375.4 368.7 402.7 355.7 370.9" />
      <polygon class="st0" points="341.5 359.6 351.9 353.6 341.1 339.4 341.5 359.6" />
      <polygon class="st0" points="340.1 382.7 332.3 369 323.5 385.2 340.1 382.7" />
      <polygon class="st0" points="332.3 369 340.1 382.7 347.4 375.4 332.3 369" />
      <polygon class="st0" points="347.4 375.4 340.1 382.7 368.7 402.7 347.4 375.4" />
      <polygon class="st0" points="332.3 369 341.5 359.6 322.6 360.4 332.3 369" />
      <polygon class="st0" points="323.5 385.2 332.3 369 322.6 360.4 323.5 385.2" />
      <polygon class="st0" points="340.1 382.7 323.5 385.2 334.2 391.6 340.1 382.7" />
      <polygon class="st0" points="340.1 382.7 334.2 391.6 368.7 402.7 340.1 382.7" />
      <polygon class="st0" points="334.2 391.6 323.5 385.2 321.1 402.1 334.2 391.6" />
      <polygon class="st0" points="321.1 402.1 323.5 385.2 307 380.7 321.1 402.1" />
      <polygon class="st0" points="334.2 391.6 321.1 402.1 330.6 402.7 334.2 391.6" />
      <polygon class="st0" points="334.2 391.6 330.6 402.7 368.7 402.7 334.2 391.6" />
      <polygon class="st0" points="330.6 402.7 321.1 402.1 330.6 427.2 330.6 402.7" />
      <polygon class="st0" points="321.1 428.3 321.1 402.1 307 413.3 321.1 428.3" />
      <polygon class="st0" points="321.1 402.1 321.1 428.3 330.6 427.2 321.1 402.1" />
      <polygon class="st0" points="330.6 427.2 321.1 428.3 330.6 456 330.6 427.2" />
      <polygon class="st0" points="330.6 402.7 330.6 427.2 368.7 402.7 330.6 402.7" />
      <polygon class="st0" points="378 314.5 372.4 322.4 377.9 325.3 378 314.5" />
      <polygon class="st0" points="372.4 322.4 378 314.5 359.5 315 372.4 322.4" />
      <polygon class="st0" points="377.9 325.3 372.4 322.4 368.8 326.7 377.9 325.3" />
      <polygon class="st0" points="378 314.5 377.9 325.3 381.4 327.2 378 314.5" />
      <polygon class="st0" points="372.4 322.4 359.5 315 368.8 326.7 372.4 322.4" />
      <polygon class="st0" points="377.9 337.8 368.8 326.7 359.9 337.8 377.9 337.8" />
      <polygon class="st0" points="368.8 326.7 377.9 337.8 377.9 325.3 368.8 326.7" />
      <polygon class="st0" points="377.9 325.3 377.9 337.8 381.4 327.2 377.9 325.3" />
      <polygon class="st0" points="368.8 326.7 359.5 315 359.9 337.8 368.8 326.7" />
      <polygon class="st0" points="377.9 337.8 359.9 337.8 368.7 350.7 377.9 337.8" />
      <polygon class="st0" points="359.9 337.8 359.5 315 341.1 339.4 359.9 337.8" />
      <polygon class="st0" points="290.9 143.1 290.9 151.6 301.4 135.5 290.9 143.1" />
      <polygon class="st0" points="290.9 143.1 301.4 135.5 290.9 133.5 290.9 143.1" />
      <polygon class="st0" points="301.4 135.5 290.9 151.6 311.5 151.6 301.4 135.5" />
      <polygon class="st0" points="290.9 143.1 290.9 133.5 279.4 144.4 290.9 143.1" />
      <polygon class="st0" points="290.9 133.5 301.4 135.5 290.9 114 290.9 133.5" />
      <polygon class="st0" points="290.9 133.5 290.9 114 259 114 290.9 133.5" />
      <polygon class="st0" points="290.9 114 301.4 135.5 311.5 114 290.9 114" />
      <polygon class="st0" points="259 114 290.9 114 368.1 82 259 114" />
      <polygon class="st0" points="290.9 133.5 259 114 279.4 144.4 290.9 133.5" />
      <polygon class="st0" points="290.9 160 290.9 151.6 282.4 160 290.9 160" />
      <polygon class="st0" points="290.9 151.6 290.9 160 311.5 151.6 290.9 151.6" />
      <polygon class="st0" points="311.5 151.6 290.9 160 311.5 160 311.5 151.6" />
      <polygon class="st0" points="311.5 151.6 311.5 160 336.4 160 311.5 151.6" />
      <polygon class="st0" points="311.5 160 290.9 160 302.7 173.1 311.5 160" />
      <polygon class="st0" points="278.3 151.6 282.4 160 290.9 151.6 278.3 151.6" />
      <polygon class="st0" points="290.9 160 282.4 160 290.9 175.9 290.9 160" />
      <polygon class="st0" points="290.9 160 290.9 175.9 302.7 173.1 290.9 160" />
      <polygon class="st0" points="302.7 173.1 290.9 175.9 311.5 189.3 302.7 173.1" />
      <polygon class="st0" points="290.9 175.9 290.9 205.9 311.5 189.3 290.9 175.9" />
      <polygon class="st0" points="311.5 189.3 290.9 205.9 311.5 224.6 311.5 189.3" />
      <polygon class="st0" points="290.9 205.9 290.9 251.5 311.5 224.6 290.9 205.9" />
      <polygon class="st0" points="311.5 224.6 290.9 251.5 311.5 255 311.5 224.6" />
      <polygon class="st0" points="266.3 331.7 278.8 349.6 278.8 318.6 266.3 331.7" />
      <polygon class="st0" points="278.8 349.6 266.3 351.4 278.8 375 278.8 349.6" />
      <polygon class="st0" points="278.8 318.6 278.8 349.6 297.8 339.4 278.8 318.6" />
      <polygon class="st0" points="266.3 378.7 278.8 375 266.3 370.9 266.3 378.7" />
      <polygon class="st0" points="278.8 375 266.3 388.2 278.7 413.9 278.8 375" />
      <polygon class="st0" points="266.3 370.9 278.8 375 266.3 351.4 266.3 370.9" />
      <polygon class="st0" points="266.3 388.2 266.3 428.3 278.7 413.9 266.3 388.2" />
      <polygon class="st0" points="278.7 413.9 266.3 428.3 278.6 448.5 278.7 413.9" />
      <polygon class="st0" points="266.3 428.3 257.4 404.6 251.3 426 266.3 428.3" />
      <polygon class="st0" points="266.3 428.3 266.3 465.1 278.6 448.5 266.3 428.3" />
      <polygon class="st0" points="266.3 465.1 266.3 428.3 253.6 434.8 266.3 465.1" />
      <polygon class="st0" points="278.6 448.5 266.3 465.1 278.8 465.1 278.6 448.5" />
      <polygon class="st0" points="266.3 465.1 253.6 473.4 253.6 487.8 266.3 465.1" />
      <polygon class="st0" points="266.3 465.1 266.3 487.8 278.8 487.8 266.3 465.1" />
      <polygon class="st0" points="266.3 487.8 266.3 465.1 253.6 487.8 266.3 487.8" />
      <polygon class="st0" points="266.3 465.1 278.8 487.8 278.8 465.1 266.3 465.1" />
      <polygon class="st0" points="297.8 339.4 278.8 349.6 278.8 375 297.8 339.4" />
      <polygon class="st0" points="297.8 339.4 278.8 375 297.8 380.7 297.8 339.4" />
      <polygon class="st0" points="278.8 375 278.7 413.9 297.8 405.9 278.8 375" />
      <polygon class="st0" points="297.8 405.9 278.7 413.9 297.8 430.5 297.8 405.9" />
      <polygon class="st0" points="278.8 375 297.8 405.9 297.8 380.7 278.8 375" />
      <polygon class="st0" points="278.7 413.9 278.6 448.5 297.8 430.5 278.7 413.9" />
      <polygon class="st0" points="297.8 430.5 278.6 448.5 297.8 465.1 297.8 430.5" />
      <polygon class="st0" points="278.6 448.5 278.8 465.1 297.8 465.1 278.6 448.5" />
      <polygon class="st0" points="297.8 465.1 278.8 465.1 278.8 487.8 297.8 465.1" />
      <polygon class="st0" points="297.8 465.1 278.8 487.8 297.8 487.8 297.8 465.1" />
      <polygon class="st0" points="307 343.6 297.8 380.7 307 380.7 307 343.6" />
      <polygon class="st0" points="307 343.6 307 380.7 322.6 360.4 307 343.6" />
      <polygon class="st0" points="307 380.7 297.8 380.7 297.8 405.9 307 380.7" />
      <polygon class="st0" points="297.8 430.5 297.8 465.1 307 451.2 297.8 430.5" />
      <polygon class="st0" points="297.8 430.5 307 451.2 307 413.3 297.8 430.5" />
      <polygon class="st0" points="307 451.2 297.8 465.1 307 465.1 307 451.2" />
      <polygon class="st0" points="307 451.2 307 465.1 321.1 460.2 307 451.2" />
      <polygon class="st0" points="307 465.1 297.8 465.1 307 487.8 307 465.1" />
      <polygon class="st0" points="307 380.7 307 413.3 321.1 402.1 307 380.7" />
      <polygon class="st0" points="307 413.3 307 380.7 297.8 405.9 307 413.3" />
      <polygon class="st0" points="307 413.3 297.8 405.9 297.8 430.5 307 413.3" />
      <polygon class="st0" points="307 413.3 307 451.2 321.1 428.3 307 413.3" />
      <polygon class="st0" points="297.8 465.1 297.8 487.8 307 487.8 297.8 465.1" />
      <polygon class="st0" points="325 325.1 307 343.6 341.1 339.4 325 325.1" />
      <polygon class="st0" points="322.6 360.4 307 380.7 323.5 385.2 322.6 360.4" />
      <polygon class="st0" points="307 343.6 322.6 360.4 341.1 339.4 307 343.6" />
      <polygon class="st0" points="321.1 428.3 307 451.2 321.1 460.2 321.1 428.3" />
      <polygon class="st0" points="321.1 460.2 307 465.1 321.1 472.8 321.1 460.2" />
      <polygon class="st0" points="307 465.1 307 487.8 321.1 472.8 307 465.1" />
      <polygon class="st0" points="321.1 472.8 307 487.8 321.1 487.8 321.1 472.8" />
      <polygon class="st0" points="311.5 151.6 336.4 160 367.9 151.6 311.5 151.6" />
      <polygon class="st0" points="311.5 151.6 367.9 151.6 320.6 142.4 311.5 151.6" />
      <polygon class="st0" points="311.5 189.3 311.5 224.6 320.4 211.3 311.5 189.3" />
      <polygon class="st0" points="320.4 211.3 311.5 224.6 333.2 233.9 320.4 211.3" />
      <polygon class="st0" points="311.5 189.3 320.4 211.3 333.6 202.3 311.5 189.3" />
      <polygon class="st0" points="311.5 224.6 311.5 255 333.2 233.9 311.5 224.6" />
      <polygon class="st0" points="318.3 114 368.1 82 311.5 114 318.3 114" />
      <polygon class="st0" points="368.1 114 318.3 114 359.2 124.9 368.1 114" />
      <polygon class="st0" points="368.1 82 290.9 114 311.5 114 368.1 82" />
      <polygon class="st0" points="318.3 114 311.5 114 320.6 124.9 318.3 114" />
      <polygon class="st0" points="320.6 124.9 359.2 124.9 318.3 114 320.6 124.9" />
      <polygon class="st0" points="320.6 142.4 320.6 124.9 311.5 151.6 320.6 142.4" />
      <polygon class="st0" points="311.5 151.6 311.5 114 301.4 135.5 311.5 151.6" />
      <polygon class="st0" points="311.5 114 311.5 151.6 320.6 124.9 311.5 114" />
      <polygon class="st0" points="391 218.4 392.1 210.8 384.8 216.3 391 218.4" />
      <polygon class="st0" points="392.1 210.8 391 218.4 399.4 210.8 392.1 210.8" />
      <polygon class="st0" points="392.1 210.8 399.4 210.8 391 203.3 392.1 210.8" />
      <polygon class="st0" points="399.4 210.8 391 218.4 397.9 220.8 399.4 210.8" />
      <polygon class="st0" points="399.4 210.8 397.9 220.8 415.8 211.7 399.4 210.8" />
      <polygon class="st0" points="397.9 220.8 391 218.4 393.4 229.4 397.9 220.8" />
      <polygon class="st0" points="392.1 210.8 391 203.3 384.8 205.5 392.1 210.8" />
      <polygon class="st0" points="391 203.3 399.4 210.8 397.9 201 391 203.3" />
      <polygon class="st0" points="391 203.3 397.9 201 393.4 192.4 391 203.3" />
      <polygon class="st0" points="397.9 201 399.4 210.8 406.1 199.7 397.9 201" />
      <polygon class="st0" points="384.8 216.3 385.7 210.8 370.8 212.1 384.8 216.3" />
      <polygon class="st0" points="385.7 210.8 384.8 216.3 392.1 210.8 385.7 210.8" />
      <polygon class="st0" points="385.7 210.8 392.1 210.8 384.8 205.5 385.7 210.8" />
      <polygon class="st0" points="391 218.4 384.8 216.3 382.4 221.5 391 218.4" />
      <polygon class="st0" points="385.7 210.8 384.8 205.5 370.8 212.1 385.7 210.8" />
      <polygon class="st0" points="384.8 205.5 391 203.3 383.9 203.3 384.8 205.5" />
      <polygon class="st0" points="382 191.3 386.3 185.3 377.7 180.9 382 191.3" />
      <polygon class="st0" points="386.3 185.3 382 191.3 393.4 192.4 386.3 185.3" />
      <polygon class="st0" points="386.3 185.3 393.4 192.4 391.9 176.2 386.3 185.3" />
      <polygon class="st0" points="393.4 192.4 382 191.3 387.4 196.6 393.4 192.4" />
      <polygon class="st0" points="393.4 192.4 387.4 196.6 391 203.3 393.4 192.4" />
      <polygon class="st0" points="387.4 196.6 382 191.3 382 199.7 387.4 196.6" />
      <polygon class="st0" points="375.2 187.8 377.7 180.9 367.9 179.3 375.2 187.8" />
      <polygon class="st0" points="377.7 180.9 375.2 187.8 382 191.3 377.7 180.9" />
      <polygon class="st0" points="382 191.3 375.2 187.8 378.3 196.3 382 191.3" />
      <polygon class="st0" points="377.7 180.9 386.3 185.3 391.9 176.2 377.7 180.9" />
      <polygon class="st0" points="382 191.3 378.3 196.3 382 199.7 382 191.3" />
      <polygon class="st0" points="382 199.7 378.3 196.3 367.9 208.8 382 199.7" />
      <polygon class="st0" points="387.4 196.6 382 199.7 383.9 203.3 387.4 196.6" />
      <polygon class="st0" points="373.2 193.9 375.2 187.8 367.9 193.1 373.2 193.9" />
      <polygon class="st0" points="375.2 187.8 373.2 193.9 378.3 196.3 375.2 187.8" />
      <polygon class="st0" points="378.3 196.3 373.2 193.9 367.9 208.8 378.3 196.3" />
      <polygon class="st0" points="391 203.3 387.4 196.6 383.9 203.3 391 203.3" />
      <polygon class="st0" points="393.4 192.4 397.9 201 406.1 199.7 393.4 192.4" />
      <polygon class="st0" points="384.8 205.5 383.9 203.3 370.8 212.1 384.8 205.5" />
      <polygon class="st0" points="383.9 203.3 382 199.7 370.8 212.1 383.9 203.3" />
      <polygon class="st0" points="367.9 186.7 367.9 179.3 360.3 187.8 367.9 186.7" />
      <polygon class="st0" points="367.9 179.3 367.9 186.7 375.2 187.8 367.9 179.3" />
      <polygon class="st0" points="375.2 187.8 367.9 186.7 367.9 193.1 375.2 187.8" />
      <polygon class="st0" points="367.9 193.1 367.9 186.7 362.4 193.9 367.9 193.1" />
      <polygon class="st0" points="373.2 193.9 367.9 193.1 367.9 208.8 373.2 193.9" />
      <polygon class="st0" points="360.3 187.8 357.9 180.9 353.5 191.3 360.3 187.8" />
      <polygon class="st0" points="357.9 180.9 360.3 187.8 367.9 179.3 357.9 180.9" />
      <polygon class="st0" points="367.9 186.7 360.3 187.8 362.4 193.9 367.9 186.7" />
      <polygon class="st0" points="362.4 193.9 360.3 187.8 353.5 191.3 362.4 193.9" />
      <polygon class="st0" points="367.9 193.1 362.4 193.9 367.9 208.8 367.9 193.1" />
      <polygon class="st0" points="382 199.7 367.9 208.8 370.8 212.1 382 199.7" />
      <polygon class="st0" points="355.5 198.3 362.4 193.9 353.5 191.3 355.5 198.3" />
      <polygon class="st0" points="362.4 193.9 355.5 198.3 367.9 208.8 362.4 193.9" />
      <polygon class="st0" points="367.9 208.8 355.5 198.3 364.7 211.5 367.9 208.8" />
      <polygon class="st0" points="367.9 208.8 367.9 214.2 370.8 212.1 367.9 208.8" />
      <polygon class="st0" points="367.9 214.2 367.9 208.8 364.7 211.5 367.9 214.2" />
      <polygon class="st0" points="370.8 212.1 367.9 214.2 378.3 225.5 370.8 212.1" />
      <polygon class="st0" points="367.9 214.2 364.7 211.5 357.2 225.5 367.9 214.2" />
      <polygon class="st0" points="367.9 228.7 367.9 214.2 362.4 227.9 367.9 228.7" />
      <polygon class="st0" points="367.9 214.2 367.9 228.7 373.2 227.9 367.9 214.2" />
      <polygon class="st0" points="367.9 214.2 373.2 227.9 378.3 225.5 367.9 214.2" />
      <polygon class="st0" points="373.2 227.9 367.9 228.7 367.9 235.2 373.2 227.9" />
      <polygon class="st0" points="378.3 225.5 373.2 227.9 375.2 234.1 378.3 225.5" />
      <polygon class="st0" points="370.8 212.1 378.3 225.5 382.4 221.5 370.8 212.1" />
      <polygon class="st0" points="370.8 212.1 382.4 221.5 384.8 216.3 370.8 212.1" />
      <polygon class="st0" points="382.4 221.5 378.3 225.5 382 230.6 382.4 221.5" />
      <polygon class="st0" points="357.2 225.5 353.4 221.3 348.2 225.2 357.2 225.5" />
      <polygon class="st0" points="353.4 221.3 357.2 225.5 364.7 211.5 353.4 221.3" />
      <polygon class="st0" points="353.4 221.3 364.7 211.5 350.8 216.3 353.4 221.3" />
      <polygon class="st0" points="367.9 214.2 357.2 225.5 362.4 227.9 367.9 214.2" />
      <polygon class="st0" points="362.4 227.9 357.2 225.5 360.3 234.1 362.4 227.9" />
      <polygon class="st0" points="367.9 228.7 362.4 227.9 367.9 235.2 367.9 228.7" />
      <polygon class="st0" points="373.2 227.9 367.9 235.2 375.2 234.1 373.2 227.9" />
      <polygon class="st0" points="375.2 234.1 367.9 235.2 367.9 242.5 375.2 234.1" />
      <polygon class="st0" points="362.4 227.9 360.3 234.1 367.9 235.2 362.4 227.9" />
      <polygon class="st0" points="367.9 235.2 360.3 234.1 367.9 242.5 367.9 235.2" />
      <polygon class="st0" points="375.2 234.1 367.9 242.5 377.7 241 375.2 234.1" />
      <polygon class="st0" points="375.2 234.1 377.7 241 386.3 236.6 375.2 234.1" />
      <polygon class="st0" points="357.9 241 360.3 234.1 349.3 236.6 357.9 241" />
      <polygon class="st0" points="360.3 234.1 357.9 241 367.9 242.5 360.3 234.1" />
      <polygon class="st0" points="367.9 242.5 357.9 241 344.4 257 367.9 242.5" />
      <polygon class="st0" points="353.4 221.3 350.8 216.3 348.2 225.2 353.4 221.3" />
      <polygon class="st0" points="350.8 216.3 364.7 211.5 349.9 210.8 350.8 216.3" />
      <polygon class="st0" points="350.8 216.3 349.9 210.8 343.5 210.8 350.8 216.3" />
      <polygon class="st0" points="349.9 210.8 364.7 211.5 350.8 205.4 349.9 210.8" />
      <polygon class="st0" points="349.9 210.8 350.8 205.4 344.6 203.3 349.9 210.8" />
      <polygon class="st0" points="350.8 205.4 364.7 211.5 352.8 201.3 350.8 205.4" />
      <polygon class="st0" points="350.8 205.4 352.8 201.3 344.6 203.3 350.8 205.4" />
      <polygon class="st0" points="352.8 201.3 364.7 211.5 355.5 198.3 352.8 201.3" />
      <polygon class="st0" points="352.8 201.3 355.5 198.3 348.2 196.6 352.8 201.3" />
      <polygon class="st0" points="353.5 191.3 349.3 185.3 342.2 192.4 353.5 191.3" />
      <polygon class="st0" points="349.3 185.3 353.5 191.3 357.9 180.9 349.3 185.3" />
      <polygon class="st0" points="349.3 185.3 357.9 180.9 340.5 176.2 349.3 185.3" />
      <polygon class="st0" points="342.2 192.4 349.3 185.3 340.5 176.2 342.2 192.4" />
      <polygon class="st0" points="353.5 191.3 342.2 192.4 348.2 196.6 353.5 191.3" />
      <polygon class="st0" points="353.5 191.3 348.2 196.6 355.5 198.3 353.5 191.3" />
      <polygon class="st0" points="348.2 196.6 342.2 192.4 344.6 203.3 348.2 196.6" />
      <polygon class="st0" points="352.8 201.3 348.2 196.6 344.6 203.3 352.8 201.3" />
      <polygon class="st0" points="337.7 201 342.2 192.4 333.6 202.3 337.7 201" />
      <polygon class="st0" points="342.2 192.4 337.7 201 344.6 203.3 342.2 192.4" />
      <polygon class="st0" points="344.6 203.3 337.7 201 337.3 204.3 344.6 203.3" />
      <polygon class="st0" points="336.2 210.8 337.3 204.3 333.6 202.3 336.2 210.8" />
      <polygon class="st0" points="337.3 204.3 336.2 210.8 343.5 210.8 337.3 204.3" />
      <polygon class="st0" points="337.3 204.3 343.5 210.8 344.6 203.3 337.3 204.3" />
      <polygon class="st0" points="343.5 210.8 336.2 210.8 344.6 218.4 343.5 210.8" />
      <polygon class="st0" points="344.6 203.3 343.5 210.8 349.9 210.8 344.6 203.3" />
      <polygon class="st0" points="337.3 204.3 337.7 201 333.6 202.3 337.3 204.3" />
      <polygon class="st0" points="375.2 234.1 386.3 236.6 382 230.6 375.2 234.1" />
      <polygon class="st0" points="386.3 236.6 377.7 241 383.4 252.1 386.3 236.6" />
      <polygon class="st0" points="375.2 234.1 382 230.6 378.3 225.5 375.2 234.1" />
      <polygon class="st0" points="382 230.6 386.3 236.6 387.4 225.2 382 230.6" />
      <polygon class="st0" points="382 230.6 387.4 225.2 382.4 221.5 382 230.6" />
      <polygon class="st0" points="387.4 225.2 386.3 236.6 393.4 229.4 387.4 225.2" />
      <polygon class="st0" points="387.4 225.2 393.4 229.4 391 218.4 387.4 225.2" />
      <polygon class="st0" points="393.4 229.4 386.3 236.6 402.3 232.3 393.4 229.4" />
      <polygon class="st0" points="382.4 221.5 387.4 225.2 391 218.4 382.4 221.5" />
      <polygon class="st0" points="397.9 220.8 393.4 229.4 402.3 232.3 397.9 220.8" />
      <polygon class="st0" points="342.2 229.4 348.2 225.2 344.6 218.4 342.2 229.4" />
      <polygon class="st0" points="348.2 225.2 342.2 229.4 353.5 230.6 348.2 225.2" />
      <polygon class="st0" points="348.2 225.2 353.5 230.6 357.2 225.5 348.2 225.2" />
      <polygon class="st0" points="353.5 230.6 342.2 229.4 349.3 236.6 353.5 230.6" />
      <polygon class="st0" points="353.5 230.6 349.3 236.6 360.3 234.1 353.5 230.6" />
      <polygon class="st0" points="349.3 236.6 342.2 229.4 333.2 233.9 349.3 236.6" />
      <polygon class="st0" points="353.5 230.6 360.3 234.1 357.2 225.5 353.5 230.6" />
      <polygon class="st0" points="357.9 241 349.3 236.6 344.4 257 357.9 241" />
      <polygon class="st0" points="342.2 229.4 337.7 220.8 333.2 233.9 342.2 229.4" />
      <polygon class="st0" points="337.7 220.8 342.2 229.4 344.6 218.4 337.7 220.8" />
      <polygon class="st0" points="337.7 220.8 344.6 218.4 336.2 210.8 337.7 220.8" />
      <polygon class="st0" points="344.6 218.4 348.2 225.2 350.8 216.3 344.6 218.4" />
      <polygon class="st0" points="344.6 218.4 350.8 216.3 343.5 210.8 344.6 218.4" />
      <polygon class="st0" points="337.7 220.8 336.2 210.8 333.2 233.9 337.7 220.8" />
      <polygon class="st0" points="410.8 255 402.3 232.3 393.2 247.2 410.8 255" />
      <polygon class="st0" points="393.2 247.2 402.3 232.3 386.3 236.6 393.2 247.2" />
      <polygon class="st0" points="410.8 255 393.2 247.2 404 267 410.8 255" />
      <polygon class="st0" points="393.2 247.2 386.3 236.6 383.4 252.1 393.2 247.2" />
      <polygon class="st0" points="102.6 388.1 102.6 414.1 107.4 414.3 102.6 388.1" />
      <polygon class="st0" points="107.4 414.3 102.6 414.1 102.6 434.6 107.4 414.3" />
      <polygon class="st0" points="136.5 411.5 107.4 414.3 114.6 416 136.5 411.5" />
      <polygon class="st0" points="368.7 453.6 369 422.5 358.8 424.3 368.7 453.6" />
      <polygon class="st0" points="369 422.5 368.7 453.6 375.4 423.6 369 422.5" />
      <polygon class="st0" points="369 422.5 375.4 423.6 368.7 402.7 369 422.5" />
      <polygon class="st0" points="375.4 423.6 368.7 453.6 380.1 425.8 375.4 423.6" />
      <polygon class="st0" points="375.4 423.6 380.1 425.8 368.7 402.7 375.4 423.6" />
      <polygon class="st0" points="380.1 425.8 368.7 453.6 384.1 429.4 380.1 425.8" />
      <polygon class="st0" points="380.1 425.8 384.1 429.4 407 428.1 380.1 425.8" />
      <polygon class="st0" points="384.1 429.4 368.7 453.6 387 433.1 384.1 429.4" />
      <polygon class="st0" points="384.1 429.4 387 433.1 407 428.1 384.1 429.4" />
      <polygon class="st0" points="387 433.1 368.7 453.6 389.2 437.4 387 433.1" />
      <polygon class="st0" points="387 433.1 389.2 437.4 407 428.1 387 433.1" />
      <polygon class="st0" points="389.2 437.4 368.7 453.6 390.8 442.5 389.2 437.4" />
      <polygon class="st0" points="391.4 477.5 368.7 453.6 368.7 487.8 391.4 477.5" />
      <polygon class="st0" points="368.7 453.6 391.4 477.5 391.5 447.2 368.7 453.6" />
      <polygon class="st0" points="368.7 453.6 391.5 447.2 390.8 442.5 368.7 453.6" />
      <polygon class="st0" points="391.5 447.2 391.4 477.5 407 455.8 391.5 447.2" />
      <polygon class="st0" points="389.2 437.4 390.8 442.5 407 428.1 389.2 437.4" />
      <polygon class="st0" points="390.8 442.5 391.5 447.2 407 455.8 390.8 442.5" />
      <polygon class="st0" points="321.1 472.8 321.1 487.8 330.6 487.8 321.1 472.8" />
      <polygon class="st0" points="321.1 472.8 330.6 487.8 330.6 456 321.1 472.8" />
      <polygon class="st0" points="321.1 472.8 330.6 456 321.1 460.2 321.1 472.8" />
      <polygon class="st0" points="330.6 456 330.6 487.8 345.5 477.5 330.6 456" />
      <polygon class="st0" points="321.1 460.2 330.6 456 321.1 428.3 321.1 460.2" />
      <polygon class="st0" points="330.6 427.2 330.6 456 345.2 450.5 330.6 427.2" />
      <polygon class="st0" points="368.7 402.7 330.6 427.2 358.8 424.3 368.7 402.7" />
      <polygon class="st0" points="407 428.1 368.7 402.7 380.1 425.8 407 428.1" />
      <polygon class="st0" points="406.1 199.7 399.4 210.8 415.8 211.7 406.1 199.7" />
      <polygon class="st0" points="397.9 220.8 402.3 232.3 415.8 211.7 397.9 220.8" />
      <polygon class="st0" points="344.4 257 349.3 236.6 333.2 233.9 344.4 257" />
      <polygon class="st0" points="333.2 233.9 336.2 210.8 333.6 202.3 333.2 233.9" />
      <polygon class="st0" points="195.5 473.4 195.5 487.8 208.6 473.4 195.5 473.4" />
      <polygon class="st0" points="195.5 487.8 208.6 487.8 208.6 473.4 195.5 487.8" />
      <polygon class="st0" points="330.6 487.8 345.7 487.8 345.5 477.5 330.6 487.8" />
      <polygon class="st0" points="345.5 477.5 345.7 487.8 368.7 487.8 345.5 477.5" />
      <polygon class="st0" points="345.5 477.5 368.7 487.8 368.7 453.6 345.5 477.5" />
      <polygon class="st0" points="368.7 487.8 391.5 487.8 391.4 477.5 368.7 487.8" />
      <polygon class="st0" points="391.4 477.5 391.5 487.8 407 487.8 391.4 477.5" />
      <polygon class="st0" points="527.2 473.4 527.2 487.8 541.2 487.8 527.2 473.4" />
      <polygon class="st0" points="527.2 473.4 541.2 487.8 541.2 473.4 527.2 473.4" />
      <polygon class="st0" points="608.3 473.4 622.6 487.8 633.7 473.4 608.3 473.4" />
      <polygon class="st0" points="622.6 487.8 633.7 487.8 633.7 473.4 622.6 487.8" />
      <polygon class="st0" points="633.7 473.4 633.7 434.8 618.6 457.7 633.7 473.4" />
      <polygon class="st0" points="618.6 457.7 633.7 434.8 608.3 447.2 618.6 457.7" />
      <polygon class="st0" points="633.7 473.4 618.6 457.7 608.3 473.4 633.7 473.4" />
      <polygon class="st0" points="322.6 360.4 341.5 359.6 341.1 339.4 322.6 360.4" />
      <polygon class="st0" points="341.1 339.4 351.9 353.6 359.9 337.8 341.1 339.4" />
      <polygon class="st0" points="377.9 337.8 385.7 353.6 396.1 340.7 377.9 337.8" />
      <polygon class="st0" points="396.1 340.7 396.1 359.6 422.1 342.5 396.1 340.7" />
      <polygon class="st0" points="396.1 340.7 422.1 342.5 411.6 321 396.1 340.7" />
      <polygon class="st0" points="633.7 434.8 617 420 610.2 427.7 633.7 434.8" />
      <polygon class="st0" points="633.7 434.8 610.2 427.7 608.3 434.8 633.7 434.8" />
      <polygon class="st0" points="633.7 434.8 608.3 434.8 608.3 447.2 633.7 434.8" />
      <polygon class="st0" points="541.2 434.8 535.6 423.4 527.2 434.8 541.2 434.8" />
      <polygon class="st0" points="535.6 423.4 549.9 418.9 557.6 402.5 535.6 423.4" />
      <polygon class="st0" points="557.6 402.5 556.3 415.4 564.5 414.1 557.6 402.5" />
      <polygon class="st0" points="557.6 402.5 564.5 414.1 571.9 416.1 557.6 402.5" />
      <polygon class="st0" points="557.6 402.5 571.9 416.1 584.4 409.4 557.6 402.5" />
      <polygon class="st0" points="497.3 415.4 505.3 414.1 517.5 406.3 497.3 415.4" />
      <polygon class="st0" points="517.5 406.3 505.3 414.1 513 416.1 517.5 406.3" />
      <polygon class="st0" points="517.5 406.3 519.5 418.9 535.6 423.4 517.5 406.3" />
      <polygon class="st0" points="195.5 434.8 208.6 434.8 202.2 427.9 195.5 434.8" />
      <polygon class="st0" points="202.2 427.9 217.2 418.9 222.2 407.3 202.2 427.9" />
      <polygon class="st0" points="222.2 407.3 223.9 415.4 230.3 414.6 222.2 407.3" />
      <polygon class="st0" points="230.3 414.6 239.6 416.1 240.4 388.2 230.3 414.6" />
      <polygon class="st0" points="151.6 409.4 165.8 415.4 173.8 414.1 151.6 409.4" />
      <polygon class="st0" points="151.6 409.4 173.8 414.1 179.2 403.2 151.6 409.4" />
      <polygon class="st0" points="173.8 414.1 181.5 416.1 179.2 403.2 173.8 414.1" />
      <polygon class="st0" points="179.2 403.2 187.9 418.9 202.2 427.9 179.2 403.2" />
      <polygon class="st0" points="345.2 450.5 330.6 456 345.5 477.5 345.2 450.5" />
      <polygon class="st0" points="330.6 427.2 345.2 450.5 346.3 441.9 330.6 427.2" />
      <polygon class="st0" points="396.1 340.7 378 314.5 381.4 327.2 396.1 340.7" />
      <polygon class="st0" points="396.1 340.7 381.4 327.2 377.9 337.8 396.1 340.7" />
      <polygon class="st0" points="320.4 211.3 333.2 233.9 333.6 202.3 320.4 211.3" />
      <polygon class="st0" points="369 422.5 368.7 402.7 363.3 422.5 369 422.5" />
      <polygon class="st0" points="348.8 435 351.2 430.9 330.6 427.2 348.8 435" />
      <polygon class="st0" points="351.2 430.9 348.8 435 368.7 453.6 351.2 430.9" />
      <polygon class="st0" points="351.2 430.9 368.7 453.6 354.3 427.7 351.2 430.9" />
      <polygon class="st0" points="368.7 453.6 348.8 435 346.3 441.9 368.7 453.6" />
      <polygon class="st0" points="351.2 430.9 354.3 427.7 330.6 427.2 351.2 430.9" />
      <polygon class="st0" points="354.3 427.7 368.7 453.6 358.8 424.3 354.3 427.7" />
      <polygon class="st0" points="354.3 427.7 358.8 424.3 330.6 427.2 354.3 427.7" />
      <polygon class="st0" points="358.8 424.3 369 422.5 363.3 422.5 358.8 424.3" />
      <polygon class="st0" points="358.8 424.3 363.3 422.5 368.7 402.7 358.8 424.3" />
      <polygon class="st0" points="330.6 427.2 346.3 441.9 348.8 435 330.6 427.2" />
      <polygon class="st0" points="346.3 441.9 345.2 450.5 368.7 453.6 346.3 441.9" />
      <polygon class="st0" points="345.2 450.5 345.5 477.5 368.7 453.6 345.2 450.5" />
      <polyline class="st0" points="376.6 293 376.6 273 377.5 267.2 383.4 252.1 393.2 247.2 410.8 255 424.7 255 424.7 267 429.4 297.9 397.4 297.9 376.6 293" />
      <polyline class="st0" points="477.3 114 368.1 82 368.1 114 359.2 124.9 368.1 124.9 377 124.9 417.6 114 424.7 114 445 114 477.3 114" />
      <polyline class="st0" points="390.3 375.4 382.1 370.9 375.4 369.2 368.7 368.5 368.7 402.7 369 422.5 375.4 423.6 380.1 425.8 407 428.1 407 402.7 403.6 391.6 397.7 382.7 390.3 375.4" />
      <polyline class="st0" points="311.5 176.2 321.9 176.2 311.5 160 311.5 151.6 301.4 135.5 290.9 133.5 290.9 143.1 290.9 151.6 278.3 151.6 282.4 160 290.9 175.9 302.7 173.1 311.5 176.2" />
      <polyline class="st0" points="347.4 375.4 340.1 382.7 323.5 385.2 321.1 402.1 321.1 428.3 330.6 427.2 368.7 402.7 347.4 375.4" />
      <polyline class="st0" points="339.7 273.2 302 297.9 297.8 297.9 290.9 297.9 291 267 290.9 251.5 311.5 255 344.4 257 360.8 267 339.7 273.2" />
      <polyline class="st0" points="469.7 297.9 457.5 297.9 457.5 318.4 438.2 339.4 457.5 350.1 469.7 331.6 469.7 322.7 496.7 297.9 469.7 297.9" />
      <polyline class="st0" points="161.8 454 173.2 434.8 159.2 418.9 151.6 409.4 136.5 411.5 136.5 434.8 129 460.5 136.5 467.8 150.5 473.4 161.8 454" />
      <polyline class="st0" points="377.5 267.2 383.4 252.1 377.7 241 375.2 234.1 373.2 227.9 367.9 214.2 364.7 211.5 352.8 201.3 350.8 205.4 349.9 210.8 350.8 216.3 348.2 225.2 353.5 230.6 349.3 236.6 344.4 257 360.8 267 377.5 267.2" />
      <polyline class="st0" points="181.7 370.9 161.6 388.1 179.2 403.2 202.2 427.9 200.9 388.1 222.1 370.9 181.7 370.9" />
      <polyline class="st0" points="359.2 124.9 367.9 142.4 367.9 151.6 367.9 160 367.9 176.1 381.9 169.4 401.2 160 424.7 151.6 415.4 142.4 377 124.9 368.1 124.9 359.2 124.9" />
      <polyline class="st0" points="600.8 411.7 584.4 409.4 584.2 425.8 587.3 434.8 587.3 473.4 600.8 487.8 608.3 487.8 608.3 473.4 608.3 447.2 608.3 434.8 610.2 427.7 617 420 627.9 415.6 600.8 411.7" />
      <polyline class="st0" points="504.6 434.8 504.6 473.4 515.9 454 527.2 447.2 541.2 434.8 535.6 423.4 519.5 418.9 513 416.1 505.3 414.1 504.6 434.8" />
      <polyline class="st0" points="445 267 445 251.2 424.7 255 424.7 267 429.4 297.9 438.2 297.9 445 297.9 457.5 297.9 469.7 297.9 496.7 297.9 445 267" />
      <polyline class="st0" points="121 455.9 129 460.5 136.5 434.8 136.5 411.5 107.4 414.3 102.6 414.1 102.6 434.6 121 455.9" />
      <polyline class="st0" points="297.8 339.4 297.8 297.9 290.9 297.9 278.8 297.9 266.3 297.9 266.3 322.7 266.3 331.7 278.8 349.6 297.8 339.4" />
      <polyline class="st0" points="407 455.8 407 428.1 380.1 425.8 375.4 423.6 369 422.5 368.7 453.6 391.4 477.5 407 455.8" />
      <polyline class="st0" points="341.1 297.9 339.9 292.8 302 297.9 297.8 297.9 297.8 339.4 307 343.6 325 325.1 341.1 309.1 341.1 297.9" />
      <polyline class="st0" points="321.9 176.2 311.5 176.2 302.7 173.1 290.9 175.9 290.9 205.9 311.5 224.6 333.2 233.9 333.6 202.3 321.9 176.2" />
      <polyline class="st0" points="429.4 343.4 429.4 297.9 397.4 297.9 396.1 309.1 396.1 340.7 422.1 342.5 429.4 343.4" />
      <polyline class="st0" points="517.5 406.3 534.8 388.1 514.1 370.9 496.3 388.1 483.9 406.9 490.6 418.9 497.3 415.4 505.3 414.1 517.5 406.3" />
      <polyline class="st0" points="438.2 339.4 429.4 343.4 422.1 342.5 422.9 368.8 429.4 387.9 438.2 392.7 457.5 375.6 457.5 350.1 438.2 339.4" />
      <polyline class="st0" points="587.3 473.4 587.3 434.8 584.2 425.8 584.4 409.4 571.9 416.1 564.5 414.1 556.3 415.4 563.6 434.8 552.4 454 563.6 473.4 587.3 473.4" />
      <polyline class="st0" points="217.2 418.9 223.9 415.4 230.3 414.6 239.6 416.1 240.4 388.2 222.1 370.9 200.9 388.1 202.2 427.9 217.2 418.9" />
      <polyline class="st0" points="477.7 370.9 469.7 370.9 457.5 375.6 457.5 409.6 469.7 426.7 481.9 434.8 485.3 425.8 490.6 418.9 483.9 406.9 496.3 388.1 477.7 370.9" />
      <polyline class="st0" points="290.9 205.9 290.9 251.5 311.5 255 333.2 233.9 311.5 224.6 290.9 205.9" />
      <polyline class="st0" points="242.5 454 253.6 434.8 251.3 426 246.1 418.9 239.6 416.1 230.3 414.6 223.9 415.4 231.2 434.8 219.9 454 231.2 473.4 242.5 454" />
      <polyline class="st0" points="584.4 409.4 600.8 388.1 587 370.9 573.5 388.1 557.6 402.5 556.3 415.4 564.5 414.1 571.9 416.1 584.4 409.4" />
      <polyline class="st0" points="368.1 114 368.1 82 259 114 290.9 114 311.5 114 320.6 124.9 359.2 124.9 368.1 114" />
      <polyline class="st0" points="429.4 410.7 429.4 387.9 422.9 368.8 405.5 369 396.1 359.6 390.3 375.4 397.7 382.7 403.6 391.6 407 402.7 407 428.1 416.5 424.1 429.4 410.7" />
      <polyline class="st0" points="397.4 297.9 376.6 293 339.9 292.8 341.1 297.9 341.1 309.1 325 325.1 307 343.6 341.1 339.4 359.5 315 363.8 308.6 397.4 297.9" />
      <polyline class="st0" points="239.6 416.1 246.1 418.9 251.3 426 266.3 428.3 266.3 388.2 266.3 378.7 266.3 370.9 257.5 370.9 240.4 388.2 239.6 416.1" />
      <polyline class="st0" points="469.7 426.7 457.5 409.6 457.5 446.8 457.5 464.2 469.8 454.3 481.9 464.2 481.9 434.8 469.7 426.7" />
      <polyline class="st0" points="266.3 378.7 266.3 388.2 266.3 428.3 278.7 413.9 297.8 405.9 297.8 380.7 278.8 375 266.3 370.9 266.3 378.7" />
      <polyline class="st0" points="148.9 370.9 136.5 388.1 136.5 411.5 151.6 409.4 179.2 403.2 161.6 388.1 181.7 370.9 148.9 370.9" />
      <polyline class="st0" points="290.9 133.5 301.4 135.5 311.5 151.6 320.6 142.4 320.6 124.9 311.5 114 290.9 114 290.9 133.5" />
      <polyline class="st0" points="608.3 447.2 608.3 473.4 618.6 457.7 633.7 473.4 633.7 434.8 633.7 415.6 627.9 415.6 617 420 610.2 427.7 608.3 434.8 608.3 447.2" />
      <polyline class="st0" points="173.2 434.8 184.2 454 195.5 434.8 202.2 427.9 179.2 403.2 151.6 409.4 159.2 418.9 173.2 434.8" />
      <polyline class="st0" points="355.7 370.9 351.9 353.6 341.1 339.4 322.6 360.4 307 380.7 323.5 385.2 340.1 382.7 347.4 375.4 355.7 370.9" />
      <polyline class="st0" points="231.2 473.4 219.9 454 208.6 449.2 195.5 465.7 195.5 473.4 195.5 487.8 208.6 487.8 231.2 487.8 231.2 473.4" />
      <polyline class="st0" points="219.9 454 231.2 434.8 223.9 415.4 217.2 418.9 202.2 427.9 195.5 434.8 184.2 454 195.5 473.4 195.5 465.7 208.6 449.2 219.9 454" />
      <polyline class="st0" points="573.5 388.1 587 370.9 556.3 370.9 534.8 388.1 535.6 423.4 557.6 402.5 573.5 388.1" />
      <polyline class="st0" points="290.9 143.1 290.9 133.5 290.9 114 259 114 279.4 144.4 290.9 143.1" />
      <polyline class="st0" points="278.7 413.9 266.3 428.3 266.3 465.1 278.6 448.5 297.8 465.1 297.8 430.5 278.7 413.9" />
      <polyline class="st0" points="469.7 322.7 469.7 331.6 457.5 350.1 457.5 375.6 469.7 370.9 477.7 370.9 501 351.4 534.3 351.4 469.7 322.7" />
      <polyline class="st0" points="457.5 446.8 457.5 409.6 438.2 429.6 429.4 410.7 429.4 464.2 438.2 464.2 457.5 464.2 457.5 446.8" />
      <polyline class="st0" points="367.9 176.1 367.9 179.3 367.9 186.7 367.9 193.1 367.9 208.8 367.9 214.2 370.8 212.1 384.8 205.5 391 203.3 397.9 201 406.1 199.7 414.5 176.2 391.9 176.2 367.9 176.1" />
      <polyline class="st0" points="445 130.2 435 135.5 424.7 151.6 424.7 160 414.5 176.2 424.7 176.2 445 176.2 453.7 160 457.9 151.6 445 151.6 445 143.1 445 133.5 445 130.2" />
      <polyline class="st0" points="481.9 434.8 493.2 454 504.6 473.4 504.6 434.8 505.3 414.1 497.3 415.4 490.6 418.9 485.3 425.8 481.9 434.8" />
      <polyline class="st0" points="424.7 221 415.8 211.7 406.1 199.7 397.9 201 399.4 210.8 397.9 220.8 402.3 232.3 393.2 247.2 410.8 255 424.7 255 424.7 221" />
      <polyline class="st0" points="396.1 309.1 397.4 297.9 363.8 308.6 359.5 315 341.1 339.4 351.9 353.6 359.9 337.8 368.8 326.7 372.4 322.4 378 314.5 396.1 309.1" />
      <polyline class="st0" points="266.3 331.7 235 351.5 222.1 370.9 257.5 370.9 266.3 370.9 266.3 351.4 266.3 331.7" />
      <polyline class="st0" points="266.3 331.7 266.3 351.4 266.3 370.9 278.8 375 297.8 380.7 297.8 339.4 278.8 349.6 266.3 331.7" />
      <polyline class="st0" points="181.7 370.9 160 351.4 136.5 364.9 102.6 384.3 136.5 388.1 148.9 370.9 181.7 370.9" />
      <polyline class="st0" points="375.4 369.2 382.1 370.9 390.3 375.4 396.1 359.6 396.1 340.7 377.9 337.8 368.7 350.7 368.7 368.5 375.4 369.2" />
      <polyline class="st0" points="321.1 402.1 323.5 385.2 307 380.7 297.8 380.7 297.8 405.9 307 413.3 321.1 428.3 321.1 402.1" />
      <polyline class="st0" points="457.5 297.9 445 297.9 438.2 297.9 429.4 297.9 429.4 343.4 438.2 339.4 457.5 318.4 457.5 297.9" />
      <polyline class="st0" points="278.6 448.5 266.3 465.1 266.3 487.8 278.8 487.8 297.8 487.8 297.8 465.1 278.6 448.5" />
      <polyline class="st0" points="307 343.6 297.8 339.4 297.8 380.7 307 380.7 322.6 360.4 341.1 339.4 307 343.6" />
      <polyline class="st0" points="359.2 124.9 320.6 124.9 320.6 142.4 311.5 151.6 367.9 151.6 367.9 142.4 359.2 124.9" />
      <polyline class="st0" points="457.5 409.6 457.5 375.6 438.2 392.7 429.4 387.9 429.4 410.7 438.2 429.6 457.5 409.6" />
      <polyline class="st0" points="367.9 193.1 367.9 186.7 360.3 187.8 353.5 191.3 348.2 196.6 352.8 201.3 364.7 211.5 367.9 214.2 367.9 208.8 367.9 193.1" />
      <polyline class="st0" points="397.9 220.8 399.4 210.8 397.9 201 391 203.3 384.8 205.5 370.8 212.1 367.9 214.2 373.2 227.9 375.2 234.1 377.7 241 383.4 252.1 393.2 247.2 402.3 232.3 397.9 220.8" />
      <polyline class="st0" points="102.6 384.3 102.6 388.1 102.6 414.1 107.4 414.3 136.5 411.5 136.5 388.1 102.6 384.3" />
      <polyline class="st0" points="340.5 176.2 321.9 176.2 333.6 202.3 333.2 233.9 342.2 229.4 348.2 225.2 350.8 216.3 349.9 210.8 350.8 205.4 352.8 201.3 348.2 196.6 353.5 191.3 360.3 187.8 367.9 186.7 367.9 179.3 367.9 176.1 340.5 176.2" />
      <polyline class="st0" points="150.5 473.4 136.5 467.8 136.5 487.8 150.5 487.8 173.2 487.8 173.2 473.4 161.8 454 150.5 473.4" />
      <polyline class="st0" points="302 297.9 339.7 273.2 360.8 267 377.5 267.2 376.6 273 339.9 292.8 302 297.9" />
      <polyline class="st0" points="407 487.8 407 455.8 391.4 477.5 368.7 453.6 368.7 487.8 391.5 487.8 407 487.8" />
      <polyline class="st0" points="345.5 477.5 345.7 487.8 368.7 487.8 368.7 453.6 345.2 450.5 345.5 477.5" />
      <polyline class="st0" points="297.8 405.9 278.7 413.9 297.8 430.5 297.8 465.1 307 451.2 321.1 460.2 321.1 428.3 307 413.3 297.8 405.9" />
      <polyline class="st0" points="515.9 454 504.6 473.4 504.6 487.8 527.2 487.8 541.2 487.8 541.2 473.4 541.2 463.3 541.2 434.8 527.2 447.2 515.9 454" />
      <polyline class="st0" points="445 251.2 445 205.9 424.7 221 424.7 255 445 251.2" />
      <polyline class="st0" points="321.1 472.8 321.1 487.8 330.6 487.8 345.7 487.8 345.5 477.5 345.2 450.5 330.6 456 321.1 460.2 321.1 472.8" />
      <polyline class="st0" points="311.5 255 344.4 257 349.3 236.6 353.5 230.6 348.2 225.2 342.2 229.4 333.2 233.9 311.5 255" />
      <polyline class="st0" points="429.4 464.2 429.4 410.7 416.5 424.1 407 428.1 407 455.8 416.5 451.4 429.4 464.2" />
      <polyline class="st0" points="242.5 454 231.2 473.4 231.2 487.8 253.6 487.8 266.3 487.8 266.3 465.1 253.6 473.4 242.5 454" />
      <polyline class="st0" points="330.6 427.2 321.1 428.3 321.1 460.2 330.6 456 345.2 450.5 346.3 441.9 348.8 435 351.2 430.9 354.3 427.7 358.8 424.3 330.6 427.2" />
      <polyline class="st0" points="136.5 467.8 129 460.5 121 455.9 102.6 434.6 102.6 473.4 102.6 487.8 128.2 487.8 136.5 487.8 136.5 467.8" />
      <polyline class="st0" points="445 205.9 445 176.2 424.7 176.2 424.7 190.4 424.7 221 445 205.9" />
      <polyline class="st0" points="311.5 160 321.9 176.2 340.5 176.2 367.9 176.1 367.9 160 367.9 151.6 311.5 151.6 311.5 160" />
      <polyline class="st0" points="253.6 434.8 242.5 454 253.6 473.4 266.3 465.1 266.3 428.3 251.3 426 253.6 434.8" />
      <polyline class="st0" points="477.3 114 445 114 424.7 114 424.7 151.6 435 135.5 445 130.2 477.3 114" />
      <polyline class="st0" points="534.3 351.4 501 351.4 514.1 370.9 556.3 370.9 534.3 351.4" />
      <polyline class="st0" points="307 451.2 297.8 465.1 297.8 487.8 307 487.8 321.1 487.8 321.1 472.8 321.1 460.2 307 451.2" />
      <polyline class="st0" points="563.6 487.8 587.3 487.8 600.8 487.8 587.3 473.4 563.6 473.4 563.6 487.8" />
      <polyline class="st0" points="552.4 454 563.6 434.8 556.3 415.4 557.6 402.5 535.6 423.4 541.2 434.8 541.2 463.3 552.4 454" />
      <polyline class="st0" points="235 351.5 201.7 351.4 181.7 370.9 222.1 370.9 235 351.5" />
      <polyline class="st0" points="429.4 464.2 416.5 451.4 407 455.8 407 487.8 416.5 487.8 429.4 487.8 429.4 464.2" />
      <polyline class="st0" points="481.9 464.2 469.8 454.3 457.5 464.2 457.5 487.8 469.7 487.8 481.9 487.8 481.9 473.4 481.9 464.2" />
      <polyline class="st0" points="414.5 176.2 406.1 199.7 415.8 211.7 424.7 221 424.7 190.4 424.7 176.2 414.5 176.2" />
      <polyline class="st0" points="422.9 368.8 422.1 342.5 396.1 340.7 396.1 359.6 405.5 369 422.9 368.8" />
      <polyline class="st0" points="457.5 464.2 438.2 464.2 429.4 464.2 429.4 487.8 438.2 487.8 457.5 487.8 457.5 464.2" />
      <polyline class="st0" points="614.4 401.9 633.7 388.1 633.7 384.3 600.8 388.1 584.4 409.4 600.8 411.7 614.4 401.9" />
      <polyline class="st0" points="368.7 368.5 368.7 350.7 377.9 337.8 368.8 326.7 359.9 337.8 351.9 353.6 355.7 370.9 362.4 369.2 368.7 368.5" />
      <polyline class="st0" points="481.9 473.4 481.9 487.8 504.6 487.8 504.6 473.4 493.2 454 481.9 434.8 481.9 464.2 481.9 473.4" />
      <polyline class="st0" points="563.6 473.4 552.4 454 541.2 463.3 541.2 473.4 541.2 487.8 563.6 487.8 563.6 473.4" />
      <polyline class="st0" points="424.7 160 424.7 151.6 401.2 160 381.9 169.4 367.9 176.1 391.9 176.2 414.5 176.2 424.7 160" />
      <polyline class="st0" points="368.7 453.6 369 422.5 363.3 422.5 358.8 424.3 354.3 427.7 351.2 430.9 348.8 435 346.3 441.9 345.2 450.5 368.7 453.6" />
      <polyline class="st0" points="608.3 473.4 608.3 487.8 622.6 487.8 633.7 487.8 633.7 473.4 618.6 457.7 608.3 473.4" />
      <polyline class="st0" points="377 124.9 415.4 142.4 415.4 124.9 417.6 114 377 124.9" />
      <polyline class="st0" points="184.2 454 173.2 434.8 161.8 454 173.2 473.4 173.2 487.8 195.5 487.8 195.5 473.4 184.2 454" />
      <polyline class="st0" points="600.7 365.5 587 370.9 600.8 388.1 633.7 384.3 600.7 365.5" />
      <polyline class="st0" points="534.8 388.1 517.5 406.3 505.3 414.1 513 416.1 519.5 418.9 535.6 423.4 534.8 388.1" />
      <polyline class="st0" points="396.1 309.1 378 314.5 372.4 322.4 368.8 326.7 377.9 337.8 396.1 340.7 396.1 309.1" />
      <polyline class="st0" points="266.3 322.7 201.7 351.4 235 351.5 266.3 331.7 266.3 322.7" />
      <polyline class="st0" points="633.7 388.1 614.4 401.9 600.8 411.7 627.9 415.6 633.7 415.6 633.7 388.1" />
      <polyline class="st0" points="576 351.4 556.3 370.9 587 370.9 600.7 365.5 576 351.4" />
      <polyline class="st0" points="266.3 297.9 291 267 239.1 297.9 266.3 297.9" />
      <polyline class="st0" points="339.9 292.8 376.6 273 376.6 293 339.9 292.8" />
      <polyline class="st0" points="576 351.4 534.3 351.4 556.3 370.9 576 351.4" />
      <polyline class="st0" points="201.7 351.4 160 351.4 181.7 370.9 201.7 351.4" />
      <polyline class="st0" points="368.7 368.5 362.4 369.2 355.7 370.9 347.4 375.4 368.7 402.7 368.7 368.5" />
      <polyline class="st0" points="368.7 402.7 330.6 427.2 358.8 424.3 363.3 422.5 369 422.5 368.7 402.7" />
      <polyline class="st0" points="278.8 297.9 290.9 297.9 291 267 266.3 297.9 278.8 297.9" />
      <polyline class="st0" points="534.8 388.1 556.3 370.9 514.1 370.9 534.8 388.1" />
      <polyline class="st0" points="501 351.4 477.7 370.9 496.3 388.1 514.1 370.9 501 351.4" />
      <polyline class="st0" points="445 130.2 445 133.5 445 143.1 456.8 144.4 477.3 114 445 130.2" />
      <polyline class="st0" points="266.3 322.7 266.3 297.9 239.1 297.9 266.3 322.7" />
      <polyline class="st0" points="222.1 370.9 240.4 388.2 257.5 370.9 222.1 370.9" />
      <polyline class="st0" points="424.7 114 417.6 114 415.4 124.9 415.4 142.4 424.7 151.6 424.7 114" />
    </g>
  </g>
  <rect class="st0" y="0" width="737" height="538.6" />
</svg>