<?xml version='1.0' encoding='utf-8'?>
<svg xmlns="http://www.w3.org/2000/svg" version="1.1" viewBox="-14.428 -10.772 765.856 560.144"><g id="voronoi-map-only"><polygon id="cell-0" points="533.303338,232.945074 584.11077,206.543091 627.993427,225.646444 632.398711,244.044189 631.699897,245.671946 568.278914,268.145528" stroke="#ff0000" stroke-width="2" fill="none" /><polygon id="cell-1" points="181.7,370.9 123.651507,373.845429 112.731531,364.673346 139.372801,300.887229 141.871968,300.484153 188.456275,339.66446" stroke="#ff0000" stroke-width="2" fill="none" /><polygon id="cell-2" points="165.8,415.4 213.528191,412.163184 219.246502,434.634266 174.64967,500.617007 168.605729,504.045205 153.462009,463.165673" stroke="#ff0000" stroke-width="2" fill="none" /><polygon id="cell-3" points="708.863971,103.858115 736.7,98.483103 633.7,384.3" stroke="#ff0000" stroke-width="2" fill="none" /><polygon id="cell-4" points="290.9,151.6 290.9,205.9 199.294455,215.844395 279.4,144.4" stroke="#ff0000" stroke-width="2" fill="none" /><polygon id="cell-5" points="160,351.4 67.692336,302.728518 69.50645,300.780791 72.70704,236.543276" stroke="#ff0000" stroke-width="2" fill="none" /><polygon id="cell-6" points="67.40489,102.955108 103.801467,67.136676 259,114" stroke="#ff0000" stroke-width="2" fill="none" /><polygon id="cell-7" points="279.80287,57.223849 259,114 290.9,133.5 190.221269,89.357132 189.615742,66.415786" stroke="#ff0000" stroke-width="2" fill="none" /><polygon id="cell-8" points="25.673386,400.887106 25.369537,395.76998 122.5,401.8 102.6,473.4" stroke="#ff0000" stroke-width="2" fill="none" /><polygon id="cell-9" points="518.811263,144.755057 602.587343,125.139992 604.353007,205.042278 627.993427,225.646444" stroke="#ff0000" stroke-width="2" fill="none" /><polygon id="cell-10" points="633.7,434.8 642.289215,425.175604 684.029088,421.962981 719.406433,464.174348 637.488778,486.339543" stroke="#ff0000" stroke-width="2" fill="none" /><polygon id="cell-11" points="146.279102,55.485898 70.0645,0 159.189297,0 164.864855,43.618086" stroke="#ff0000" stroke-width="2" fill="none" /><polygon id="cell-12" points="50.469331,85.751945 259,114 278.3,151.6" stroke="#ff0000" stroke-width="2" fill="none" /><polygon id="cell-13" points="394.933596,522.658833 368.7,453.6 391.5,447.2 405.221958,442.555363 431.91711,459.911679 435.757761,512.091018" stroke="#ff0000" stroke-width="2" fill="none" /><polygon id="cell-14" points="600.7,365.5 587,370.9 632.398711,244.044189 662.577468,251.02034 679.779761,246.423126" stroke="#ff0000" stroke-width="2" fill="none" /><polygon id="cell-15" points="231.2,434.8 230.3,414.6 266.3,388.2 278.8,375 307,465.1 278.8,465.1" stroke="#ff0000" stroke-width="2" fill="none" /><polygon id="cell-16" points="195.5,465.7 278.8,465.1 233.553065,532.453421" stroke="#ff0000" stroke-width="2" fill="none" /><polygon id="cell-17" points="445,143.1 536.176537,110.860959 541.189052,108.263256 538.084321,171.62316 533.387599,173.791052 445,160 491.121979,160.04349" stroke="#ff0000" stroke-width="2" fill="none" /><polygon id="cell-18" points="638.84071,331.967939 625.233334,310.184037 631.699897,245.671946 632.398711,244.044189 662.577468,251.02034 696.050721,281.670774" stroke="#ff0000" stroke-width="2" fill="none" /><polygon id="cell-19" points="22.327566,267.31145 136.5,364.9 102.6,388.1 102.6,384.3 0.3,271.256866" stroke="#ff0000" stroke-width="2" fill="none" /><polygon id="cell-20" points="45.266824,175.339677 1.695715,153.603082 0.3,153.576342 0.3,0" stroke="#ff0000" stroke-width="2" fill="none" /><polygon id="cell-21" points="576,351.4 736.7,295.740234 736.7,328.662491 655.439912,350.672926" stroke="#ff0000" stroke-width="2" fill="none" /><polygon id="cell-22" points="367.9,142.4 355.970524,95.647182 411.201504,75.495165 413.260323,75.238314 428.421183,82.419815 445,114" stroke="#ff0000" stroke-width="2" fill="none" /><polygon id="cell-23" points="603.990823,389.123365 587,370.9 674.634837,350.497245 677.479949,352.5579 680.748283,370.106009 642.289215,425.175604 627.9,415.6" stroke="#ff0000" stroke-width="2" fill="none" /><polygon id="cell-24" points="415.4,124.9 368.1,114 458.668062,0 461.883423,6.215489 436.190537,78.203272 417.6,114" stroke="#ff0000" stroke-width="2" fill="none" /><polygon id="cell-25" points="489.939573,76.977502 477.3,114 456.8,144.4 435,135.5 424.7,114 417.6,114 436.190537,78.203272 480.030052,69.899544" stroke="#ff0000" stroke-width="2" fill="none" /><polygon id="cell-26" points="136.5,364.9 173.8,414.1 153.462009,463.165673 106.023921,441.524958" stroke="#ff0000" stroke-width="2" fill="none" /><polygon id="cell-27" points="425.212561,344.089869 477.7,370.9 407,428.1 396.94252,348.747284" stroke="#ff0000" stroke-width="2" fill="none" /><polygon id="cell-28" points="483.558744,261.629637 438.2,297.9 393.2,247.2 399.4,210.8" stroke="#ff0000" stroke-width="2" fill="none" /><polygon id="cell-29" points="102.6,434.6 0.3,447.90561 0.3,385.533204 25.369537,395.76998" stroke="#ff0000" stroke-width="2" fill="none" /><polygon id="cell-30" points="534.8,388.1 556.3,370.9 625.233334,310.184037 640.589007,334.766769 603.990823,389.123365" stroke="#ff0000" stroke-width="2" fill="none" /><polygon id="cell-31" points="27.55463,102.384695 102.6,384.3 0.3,97.035264" stroke="#ff0000" stroke-width="2" fill="none" /><polygon id="cell-32" points="87.074507,347.135105 69.50645,300.780791 115.725336,275.072212 139.372801,300.887229 115.751624,357.442458" stroke="#ff0000" stroke-width="2" fill="none" /><polygon id="cell-33" points="576,351.4 736.7,220.017939 736.7,256.024164" stroke="#ff0000" stroke-width="2" fill="none" /><polygon id="cell-34" points="633.7,384.3 736.7,413.855965 736.7,538.6 719.406433,464.174348 684.029088,421.962981" stroke="#ff0000" stroke-width="2" fill="none" /><polygon id="cell-35" points="496.7,297.9 469.7,297.9 493.639383,203.31452 513.028678,174.252278 533.387599,173.791052" stroke="#ff0000" stroke-width="2" fill="none" /><polygon id="cell-36" points="610.2,427.7 633.7,384.3 696.643271,387.191559 684.029088,421.962981" stroke="#ff0000" stroke-width="2" fill="none" /><polygon id="cell-37" points="311.5,255 302.44252,166.786294 311.5,151.6 339.234198,181.075061 355.207665,246.902218 291,267" stroke="#ff0000" stroke-width="2" fill="none" /><polygon id="cell-38" points="445,176.2 424.7,176.2 445,114 477.3,114 499.596618,140.340355 491.121979,160.04349" stroke="#ff0000" stroke-width="2" fill="none" /><polygon id="cell-39" points="266.3,487.8 231.861964,538.6 152.374731,538.6 173.2,473.4 174.64967,500.617007 214.365277,496.898581 230.71889,505.897393" stroke="#ff0000" stroke-width="2" fill="none" /><polygon id="cell-40" points="305.992562,71.24266 285.485799,0 368.995593,0 335.07413,76.279743" stroke="#ff0000" stroke-width="2" fill="none" /><polygon id="cell-41" points="76.337335,142.114591 76.875023,115.125523 66.77444,103.575544 259,114" stroke="#ff0000" stroke-width="2" fill="none" /><polygon id="cell-42" points="483.9,406.9 519.5,418.9 527.711253,421.452708 447.990416,464.923112 431.91711,459.911679 405.221958,442.555363 418.245942,427.342506" stroke="#ff0000" stroke-width="2" fill="none" /><polygon id="cell-43" points="527.2,447.2 504.6,487.8 477.1295,514.531513 457.5,446.8 519.5,418.9" stroke="#ff0000" stroke-width="2" fill="none" /><polygon id="cell-44" points="445,151.6 424.7,114 536.176537,110.860959 453.7,160" stroke="#ff0000" stroke-width="2" fill="none" /><polygon id="cell-45" points="469.7,297.9 533.387599,173.791052 538.084321,171.62316 589.144356,203.927398 533.303338,232.945074" stroke="#ff0000" stroke-width="2" fill="none" /><polygon id="cell-46" points="102.6,414.1 0.3,384.029067 46.513832,337.41091 66.071899,339.586185 80.886723,359.755337 72.032071,370.882972" stroke="#ff0000" stroke-width="2" fill="none" /><polygon id="cell-47" points="614.763879,63.204161 736.7,0 699.334236,48.221389 683.995025,99.748768" stroke="#ff0000" stroke-width="2" fill="none" /><polygon id="cell-48" points="527.2,447.2 587.3,487.8 497.303716,538.6 495.199436,523.043815" stroke="#ff0000" stroke-width="2" fill="none" /><polygon id="cell-49" points="348.2,196.6 317.794892,167.545432 354.365346,95.275888 377,124.9 370.556717,121.666262 386.454735,158.28458" stroke="#ff0000" stroke-width="2" fill="none" /><polygon id="cell-50" points="102.6,388.1 115.725336,275.072212 115.140515,248.694007 160,351.4" stroke="#ff0000" stroke-width="2" fill="none" /><polygon id="cell-51" points="306.9,309.1 266.3,322.7 211.879722,309.454356 202.639726,266.982662 207.342568,251.867461" stroke="#ff0000" stroke-width="2" fill="none" /><polygon id="cell-52" points="586.968332,76.494481 477.3,114 662.230281,0 662.233108,6.227774 614.763879,63.204161" stroke="#ff0000" stroke-width="2" fill="none" /><polygon id="cell-53" points="104.368208,388.1 118.7,418.9 102.6,434.6 63.795626,465.655232 72.032071,370.882972 80.886723,359.755337 136.5,388.1" stroke="#ff0000" stroke-width="2" fill="none" /><polygon id="cell-54" points="424.7,114 355.970524,95.647182 368.1,124.9 332.87715,78.503249 364.794363,25.730251" stroke="#ff0000" stroke-width="2" fill="none" /><polygon id="cell-55" points="457.9,151.6 445,133.5 489.939573,76.977502 541.269648,93.511641 547.677956,98.107393 541.189052,108.263256" stroke="#ff0000" stroke-width="2" fill="none" /><polygon id="cell-56" points="541.2,487.8 541.2,463.3 538.522024,453.06281 632.136998,492.37884 633.922485,538.6" stroke="#ff0000" stroke-width="2" fill="none" /><polygon id="cell-57" points="469.7,297.9 457.5,297.9 503.057595,242.475192 445,251.2 533.303338,232.945074 568.278914,268.145528" stroke="#ff0000" stroke-width="2" fill="none" /><polygon id="cell-58" points="445,176.2 424.7,190.4 386.454735,158.28458 359.2,124.9 438.249235,120.417049 441.044907,128.653412" stroke="#ff0000" stroke-width="2" fill="none" /><polygon id="cell-59" points="223.9,415.4 213.528191,412.163184 165.8,415.4 126.054186,380.615405 123.651507,373.845429 185.285587,351.491193" stroke="#ff0000" stroke-width="2" fill="none" /><polygon id="cell-60" points="465.129811,248.174922 422.396172,216.97567 445,176.2 493.639383,203.31452 503.057595,242.475192" stroke="#ff0000" stroke-width="2" fill="none" /><polygon id="cell-61" points="230.3,414.6 185.285587,351.491193 188.456275,339.66446 211.879722,309.454356 218.775593,313.495914 254.372482,378.930931" stroke="#ff0000" stroke-width="2" fill="none" /><polygon id="cell-62" points="165.705078,287.344871 133.544431,230.113066 290.9,205.9 209.592822,229.464 207.342568,251.867461 202.639726,266.982662" stroke="#ff0000" stroke-width="2" fill="none" /><polygon id="cell-63" points="474.230383,142.097267 456.8,144.4 475.280156,141.486399 586.968332,76.494481 578.999528,90.178622 600.315792,121.773146 686.252937,108.224204 601.975279,124.232802 602.587343,125.139992 584.892929,127.477606 457.9,151.6" stroke="#ff0000" stroke-width="2" fill="none" /><polygon id="cell-64" points="457.5,318.4 469.7,322.7 496.7,297.9 501,351.4 548.364283,332.263654 521.401643,395.164504 477.7,370.9" stroke="#ff0000" stroke-width="2" fill="none" /><polygon id="cell-65" points="41.011528,48.176798 60.015794,31.035183 62.201854,24.28359 290.9,114" stroke="#ff0000" stroke-width="2" fill="none" /><polygon id="cell-66" points="527.2,487.8 497.303716,538.6 391.176288,538.6 416.5,487.8 435.757761,512.091018 477.1295,514.531513" stroke="#ff0000" stroke-width="2" fill="none" /><polygon id="cell-67" points="121,455.9 129,460.5 150.5,487.8 128.2,487.8 79.797522,538.6 56.650009,482.440333" stroke="#ff0000" stroke-width="2" fill="none" /><polygon id="cell-68" points="391.5,447.2 360.8,351.4 396.1,340.7 418.245942,427.342506 416.5,451.4" stroke="#ff0000" stroke-width="2" fill="none" /><polygon id="cell-69" points="633.7,388.1 587,370.9 677.961083,252.014835" stroke="#ff0000" stroke-width="2" fill="none" /><polygon id="cell-70" points="393.4,229.4 449.65374,314.828475 422.1,342.5 426.58885,332.237092 376.6,273 364.759626,248.492458" stroke="#ff0000" stroke-width="2" fill="none" /><polygon id="cell-71" points="457.5,446.8 504.6,487.8 435.757761,512.091018 407,455.8" stroke="#ff0000" stroke-width="2" fill="none" /><polygon id="cell-72" points="150.5,487.8 211.9,425.8 253.6,487.8 214.365277,496.898581" stroke="#ff0000" stroke-width="2" fill="none" /><polygon id="cell-73" points="362.4,369.2 384.1,429.4 345.2,450.5 307,343.6 347.4,375.4" stroke="#ff0000" stroke-width="2" fill="none" /><polygon id="cell-74" points="56.650009,482.440333 102.6,487.8 0.3,538.6 0.3,469.077677" stroke="#ff0000" stroke-width="2" fill="none" /><polygon id="cell-75" points="383.4,252.1 421,309.1 396.94252,348.747284 370.25993,355.380112 353.689121,352.967668" stroke="#ff0000" stroke-width="2" fill="none" /><polygon id="cell-76" points="662.233108,6.227774 681.768381,28.339142 456.8,144.4" stroke="#ff0000" stroke-width="2" fill="none" /><polygon id="cell-77" points="710.364076,175.033956 690.192862,164.899841 736.7,0 736.7,129.293369" stroke="#ff0000" stroke-width="2" fill="none" /><polygon id="cell-78" points="63.879604,184.625152 75.627203,177.759375 98.167901,178.291224 133.544431,230.113066 115.140515,248.694007 72.70704,236.543276 58.110772,226.16224 57.625273,223.529125" stroke="#ff0000" stroke-width="2" fill="none" /><polygon id="cell-79" points="654.477063,324.218824 576,351.4 662.577468,251.02034 679.779761,246.423126" stroke="#ff0000" stroke-width="2" fill="none" /><polygon id="cell-80" points="368.1,82 368.995593,0 413.224789,0 415.4,124.9 411.201504,75.495165" stroke="#ff0000" stroke-width="2" fill="none" /><polygon id="cell-81" points="638.170322,486.698553 736.7,462.421732 736.7,538.6" stroke="#ff0000" stroke-width="2" fill="none" /><polygon id="cell-82" points="67.692336,302.728518 66.071899,339.586185 46.513832,337.41091 0.3,326.498796 0.3,271.256866 22.327566,267.31145" stroke="#ff0000" stroke-width="2" fill="none" /><polygon id="cell-83" points="291,267 302.7,267.2 306.9,309.1 290.302611,314.3033 207.342568,251.867461 209.592822,229.464" stroke="#ff0000" stroke-width="2" fill="none" /><polygon id="cell-84" points="363.339534,233.609753 342.2,192.4 367.9,160 427.930944,171.834273 399.4,210.8 382,230.6" stroke="#ff0000" stroke-width="2" fill="none" /><polygon id="cell-85" points="539.359992,89.071761 516.743333,36.488863 560.073319,0 586.968332,76.494481" stroke="#ff0000" stroke-width="2" fill="none" /><polygon id="cell-86" points="157.965218,149.130154 279.4,144.4 282.4,160 75.627203,177.759375" stroke="#ff0000" stroke-width="2" fill="none" /><polygon id="cell-87" points="633.7,384.3 736.7,328.662491 736.7,413.855965 696.643271,387.191559" stroke="#ff0000" stroke-width="2" fill="none" /><polygon id="cell-88" points="453.7,160 694.036524,66.01743 683.995025,99.748768" stroke="#ff0000" stroke-width="2" fill="none" /><polygon id="cell-89" points="368.1,82 436.190537,78.203272 480.030052,69.899544 445,130.2" stroke="#ff0000" stroke-width="2" fill="none" /><polygon id="cell-90" points="513.028678,174.252278 424.7,221 445,143.1 456.8,144.4" stroke="#ff0000" stroke-width="2" fill="none" /><polygon id="cell-91" points="311.5,151.6 311.5,160 290.9,133.5 290.9,143.1 288.167981,68.155347 332.87715,78.503249 354.365346,95.275888" stroke="#ff0000" stroke-width="2" fill="none" /><polygon id="cell-92" points="535.6,423.4 519.5,418.9 600.8,411.7 610.2,427.7 608.3,487.8 608.3,473.4 527.2,447.2" stroke="#ff0000" stroke-width="2" fill="none" /><polygon id="cell-93" points="631.699897,245.671946 576,351.4 534.668424,295.256056 568.278914,268.145528" stroke="#ff0000" stroke-width="2" fill="none" /><polygon id="cell-94" points="242.5,454 321.1,472.8 321.1,487.8 253.32931,508.666661 230.71889,505.897393 214.365277,496.898581" stroke="#ff0000" stroke-width="2" fill="none" /><polygon id="cell-95" points="202.639726,266.982662 239.1,297.9 188.456275,339.66446 141.871968,300.484153" stroke="#ff0000" stroke-width="2" fill="none" /><polygon id="cell-96" points="266.3,370.9 218.775593,313.495914 290.302611,314.3033 290.9,297.9 311.296779,355.158234 299.402272,374.901865" stroke="#ff0000" stroke-width="2" fill="none" /><polygon id="cell-97" points="133.257191,76.971782 279.4,144.4 76.875023,115.125523 118.574322,120.966029" stroke="#ff0000" stroke-width="2" fill="none" /><polygon id="cell-98" points="183.155854,156.067702 190.221269,89.357132 189.615742,66.415786 164.864855,43.618086 259,114" stroke="#ff0000" stroke-width="2" fill="none" /><polygon id="cell-99" points="321.1,487.8 298.923197,538.6 231.861964,538.6 195.5,487.8 253.32931,508.666661" stroke="#ff0000" stroke-width="2" fill="none" /><polygon id="cell-100" points="269.604305,138.353904 196.210779,173.701169 183.155854,156.067702 190.221269,89.357132" stroke="#ff0000" stroke-width="2" fill="none" /><polygon id="cell-101" points="424.7,114 486.161856,29.640369 480.030052,69.899544 489.939573,76.977502 457.9,151.6" stroke="#ff0000" stroke-width="2" fill="none" /><polygon id="cell-102" points="147.366136,227.113564 139.512096,149.848944 183.155854,156.067702 196.210779,173.701169 199.294455,215.844395" stroke="#ff0000" stroke-width="2" fill="none" /><polygon id="cell-103" points="107.4,414.3 0.3,384.029067 46.513832,337.41091" stroke="#ff0000" stroke-width="2" fill="none" /><polygon id="cell-104" points="0.3,447.90561 107.4,414.3 102.6,434.6 63.927943,466.413811 56.650009,482.440333 0.3,469.077677" stroke="#ff0000" stroke-width="2" fill="none" /><polygon id="cell-105" points="424.7,114 458.668062,0 540.023077,0 512.803756,27.329493 486.161856,29.640369" stroke="#ff0000" stroke-width="2" fill="none" /><polygon id="cell-106" points="540.264007,127.141146 602.587343,125.139992 604.353007,205.042278 538.750242,158.033354" stroke="#ff0000" stroke-width="2" fill="none" /><polygon id="cell-107" points="290.9,114 189.615742,66.415786 279.80287,57.223849 318.3,114" stroke="#ff0000" stroke-width="2" fill="none" /><polygon id="cell-108" points="357.9,241 360.8,267 341.5,359.6 332.3,369 306.9,309.1 316.873986,265.52547 344.4,257" stroke="#ff0000" stroke-width="2" fill="none" /><polygon id="cell-109" points="368.7,487.8 298.923197,538.6 307,487.8 297.8,465.1 319.151571,454.114542 372.41844,460.576487" stroke="#ff0000" stroke-width="2" fill="none" /></g></svg>