<?xml version='1.0' encoding='utf-8'?>
<svg xmlns="http://www.w3.org/2000/svg" version="1.1" viewBox="-14.428 -10.772 765.856 560.144"><g id="voronoi-map-only"><polygon id="cell-0" points="701.397297,131.73089 736.7,141.554451 736.7,175.811513 695.940629,165.38368" stroke="#ff0000" stroke-width="2" fill="none" /><polygon id="cell-1" points="222.319957,210.056792 226.217959,217.061594 226.455918,223.10114 190.41491,240.743217 138.381238,228.788889 163.234457,182.492447 164.777146,182.076893" stroke="#ff0000" stroke-width="2" fill="none" /><polygon id="cell-2" points="26.154808,61.348447 0.3,67.322821 0.3,0 18.358291,0 45.7765,37.975131" stroke="#ff0000" stroke-width="2" fill="none" /><polygon id="cell-3" points="222.401012,56.467704 233.693165,0 270.578096,0 280.907259,35.347181" stroke="#ff0000" stroke-width="2" fill="none" /><polygon id="cell-4" points="661.350094,242.653397 690.425634,285.377676 700.319567,309.692727 652.112522,328.309149 605.599253,267.060143 630.882976,248.720456" stroke="#ff0000" stroke-width="2" fill="none" /><polygon id="cell-5" points="574.058204,422.075431 506.35346,429.038158 539.315466,346.364524 577.38042,376.416861" stroke="#ff0000" stroke-width="2" fill="none" /><polygon id="cell-6" points="226.455918,223.10114 271.344311,248.329762 267.337982,274.950458 248.612452,297.429909 211.727787,299.308208 197.789851,287.475207 190.41491,240.743217" stroke="#ff0000" stroke-width="2" fill="none" /><polygon id="cell-7" points="46.664482,82.56618 91.411022,86.961656 77.05074,132.678847 39.1232,139.555402" stroke="#ff0000" stroke-width="2" fill="none" /><polygon id="cell-8" points="717.71694,316.010363 736.7,316.487936 736.7,478.739528 676.743618,430.855469 676.539322,429.801927" stroke="#ff0000" stroke-width="2" fill="none" /><polygon id="cell-9" points="370.786532,182.183289 354.939781,164.740933 363.502412,121.709797 432.391223,97.644751 433.249708,108.097616 426.586906,166.773825" stroke="#ff0000" stroke-width="2" fill="none" /><polygon id="cell-10" points="233.693165,0 222.401012,56.467704 217.770198,66.424014 155.404609,24.447193 155.619638,0" stroke="#ff0000" stroke-width="2" fill="none" /><polygon id="cell-11" points="348.318005,304.050747 372.292813,351.755447 369.599102,354.714095 343.08119,353.589692 303.172197,340.234753 296.674215,300.563944 339.076753,293.849057" stroke="#ff0000" stroke-width="2" fill="none" /><polygon id="cell-12" points="73.131585,453.591131 136.467239,463.704904 146.803514,476.014541 108.159216,520.947217 60.444253,484.498505" stroke="#ff0000" stroke-width="2" fill="none" /><polygon id="cell-13" points="442.498502,70.363999 429.335363,0 487.912307,0 464.301852,58.180995" stroke="#ff0000" stroke-width="2" fill="none" /><polygon id="cell-14" points="143.847305,36.951734 83.899299,38.063947 76.295495,29.989044 81.894414,0 155.619638,0 155.404609,24.447193" stroke="#ff0000" stroke-width="2" fill="none" /><polygon id="cell-15" points="621.664248,513.940545 575.486677,497.321285 590.646171,442.493897 608.826089,441.630456 641.250295,508.27415" stroke="#ff0000" stroke-width="2" fill="none" /><polygon id="cell-16" points="200.948025,165.250469 205.202971,166.99437 222.319957,210.056792 164.777146,182.076893" stroke="#ff0000" stroke-width="2" fill="none" /><polygon id="cell-17" points="217.770198,66.424014 222.401012,56.467704 280.907259,35.347181 288.323951,42.07392 255.814717,106.495111 220.09233,83.950481" stroke="#ff0000" stroke-width="2" fill="none" /><polygon id="cell-18" points="506.35346,429.038158 501.541994,430.551464 467.576197,403.165186 464.939109,390.256169 528.553628,339.395634 533.966098,339.862387 539.315466,346.364524" stroke="#ff0000" stroke-width="2" fill="none" /><polygon id="cell-19" points="634.379222,351.919324 614.105436,354.435364 571.11845,278.773294 573.069227,269.392952 605.599253,267.060143 652.112522,328.309149" stroke="#ff0000" stroke-width="2" fill="none" /><polygon id="cell-20" points="528.553628,339.395634 464.837551,390.142951 461.399993,285.906632" stroke="#ff0000" stroke-width="2" fill="none" /><polygon id="cell-21" points="454.336371,185.690949 454.02317,276.181697 446.681957,277.844721 362.142122,220.569587 370.786532,182.183289 426.586906,166.773825" stroke="#ff0000" stroke-width="2" fill="none" /><polygon id="cell-22" points="422.582703,298.478428 378.195205,349.642622 372.292813,351.755447 348.318005,304.050747 370.378888,274.213216" stroke="#ff0000" stroke-width="2" fill="none" /><polygon id="cell-23" points="255.814717,106.495111 288.323951,42.07392 320.817265,44.267301 311.882534,92.966088 285.13042,114.910082 257.004494,107.75114" stroke="#ff0000" stroke-width="2" fill="none" /><polygon id="cell-24" points="736.7,197.288374 677.912939,207.624246 673.898212,198.559523 695.940629,165.38368 736.7,175.811513" stroke="#ff0000" stroke-width="2" fill="none" /><polygon id="cell-25" points="426.586906,166.773825 433.249708,108.097616 502.710863,142.767083 515.626096,168.523005 513.503133,169.495556 454.336371,185.690949" stroke="#ff0000" stroke-width="2" fill="none" /><polygon id="cell-26" points="492.167578,262.579633 455.503012,276.765354 454.02317,276.181697 454.336371,185.690949 513.503133,169.495556" stroke="#ff0000" stroke-width="2" fill="none" /><polygon id="cell-27" points="59.323747,313.557484 86.181829,381.53969 52.649003,413.05839 0.3,396.232433 0.3,364.047908" stroke="#ff0000" stroke-width="2" fill="none" /><polygon id="cell-28" points="108.159216,520.947217 146.803514,476.014541 166.002879,488.924913 172.220834,497.393993 186.68871,538.6 107.91602,538.6" stroke="#ff0000" stroke-width="2" fill="none" /><polygon id="cell-29" points="320.022537,464.44676 287.270457,538.6 273.673415,538.6 243.625851,460.060622 245.25146,444.973422 277.439549,421.163064 306.298157,435.387646" stroke="#ff0000" stroke-width="2" fill="none" /><polygon id="cell-30" points="677.466809,210.023511 717.339004,240.198553 690.425634,285.377676 661.350094,242.653397" stroke="#ff0000" stroke-width="2" fill="none" /><polygon id="cell-31" points="242.24169,145.217609 251.807115,177.572465 226.217959,217.061594 222.319957,210.056792 205.202971,166.99437" stroke="#ff0000" stroke-width="2" fill="none" /><polygon id="cell-32" points="717.339004,240.198553 736.7,239.59774 736.7,316.487936 717.71694,316.010363 700.319567,309.692727 690.425634,285.377676" stroke="#ff0000" stroke-width="2" fill="none" /><polygon id="cell-33" points="155.404609,24.447193 217.770198,66.424014 220.09233,83.950481 176.708685,110.199209 158.155644,112.366928 135.856292,88.888785 143.847305,36.951734" stroke="#ff0000" stroke-width="2" fill="none" /><polygon id="cell-34" points="528.471655,71.436452 526.468317,70.67364 509.228042,0 555.334481,0 566.331277,45.814361" stroke="#ff0000" stroke-width="2" fill="none" /><polygon id="cell-35" points="677.912939,207.624246 677.466809,210.023511 661.350094,242.653397 630.882976,248.720456 613.156405,202.266262 613.335105,202.036671 657.673138,184.271716 673.898212,198.559523" stroke="#ff0000" stroke-width="2" fill="none" /><polygon id="cell-36" points="96.927522,377.238394 98.314926,377.00601 126.32018,389.183571 138.920702,457.095634 136.467239,463.704904 73.131585,453.591131 52.649003,413.05839 86.181829,381.53969" stroke="#ff0000" stroke-width="2" fill="none" /><polygon id="cell-37" points="158.155644,112.366928 145.292621,133.691938 104.285722,153.544922 77.05074,132.678847 91.411022,86.961656 92.59238,85.812066 135.856292,88.888785" stroke="#ff0000" stroke-width="2" fill="none" /><polygon id="cell-38" points="571.11845,278.773294 533.966098,339.862387 528.553628,339.395634 461.399993,285.906632 455.503012,276.765354 492.167578,262.579633 557.115612,251.499574 573.069227,269.392952" stroke="#ff0000" stroke-width="2" fill="none" /><polygon id="cell-39" points="280.907259,35.347181 270.578096,0 356.398413,0 335.12113,32.042697 320.817265,44.267301 288.323951,42.07392" stroke="#ff0000" stroke-width="2" fill="none" /><polygon id="cell-40" points="607.444031,147.502633 616.308213,145.280238 646.296972,158.071393 657.673138,184.271716 613.335105,202.036671" stroke="#ff0000" stroke-width="2" fill="none" /><polygon id="cell-41" points="198.756519,382.550724 192.234721,376.672429 198.87642,354.825829 255.360288,336.425476 268.978433,351.02993 263.425554,386.428728" stroke="#ff0000" stroke-width="2" fill="none" /><polygon id="cell-42" points="541.024953,170.184613 562.189673,145.288011 607.444031,147.502633 613.335105,202.036671 613.156405,202.266262 556.542227,206.703246" stroke="#ff0000" stroke-width="2" fill="none" /><polygon id="cell-43" points="467.576197,403.165186 401.132753,457.87633 366.787297,381.320495 369.599102,354.714095 372.292813,351.755447 378.195205,349.642622 464.939109,390.256169" stroke="#ff0000" stroke-width="2" fill="none" /><polygon id="cell-44" points="263.425554,386.428728 268.978433,351.02993 303.172197,340.234753 343.08119,353.589692 274.177302,404.88565" stroke="#ff0000" stroke-width="2" fill="none" /><polygon id="cell-45" points="176.708685,110.199209 200.948025,165.250469 164.777146,182.076893 163.234457,182.492447 145.292621,133.691938 158.155644,112.366928" stroke="#ff0000" stroke-width="2" fill="none" /><polygon id="cell-46" points="588.897618,89.751547 560.707835,112.536711 528.471655,71.436452 566.331277,45.814361 585.630557,48.17937" stroke="#ff0000" stroke-width="2" fill="none" /><polygon id="cell-47" points="646.296972,158.071393 616.308213,145.280238 635.117979,87.728613 677.468146,53.656983 687.084355,116.833763" stroke="#ff0000" stroke-width="2" fill="none" /><polygon id="cell-48" points="127.833203,232.001804 138.381238,228.788889 190.41491,240.743217 197.789851,287.475207 147.997022,307.188986 137.542109,306.476892 122.915216,289.814896" stroke="#ff0000" stroke-width="2" fill="none" /><polygon id="cell-49" points="495.58846,102.803151 432.897756,95.199536 431.41149,86.998875 442.498502,70.363999 464.301852,58.180995 526.559797,70.785359" stroke="#ff0000" stroke-width="2" fill="none" /><polygon id="cell-50" points="399.187351,468.09532 401.132753,457.87633 467.576197,403.165186 501.541994,430.551464 497.353772,469.950515 415.874408,508.952408" stroke="#ff0000" stroke-width="2" fill="none" /><polygon id="cell-51" points="172.220834,497.393993 166.002879,488.924913 210.806347,429.736538 245.25146,444.973422 243.625851,460.060622" stroke="#ff0000" stroke-width="2" fill="none" /><polygon id="cell-52" points="577.38042,376.416861 539.315466,346.364524 533.966098,339.862387 571.11845,278.773294 614.105436,354.435364" stroke="#ff0000" stroke-width="2" fill="none" /><polygon id="cell-53" points="137.542109,306.476892 147.997022,307.188986 196.808321,343.733167 198.87642,354.825829 192.234721,376.672429 180.500307,378.984216 134.929282,335.690141" stroke="#ff0000" stroke-width="2" fill="none" /><polygon id="cell-54" points="495.58846,102.803151 526.559797,70.785359 528.471655,71.436452 560.707835,112.536711 562.189673,145.288011 541.024953,170.184613 515.626096,168.523005 502.710863,142.767083" stroke="#ff0000" stroke-width="2" fill="none" /><polygon id="cell-55" points="320.022537,464.44676 399.187351,468.09532 415.874408,508.952408 413.210584,538.6 287.270457,538.6" stroke="#ff0000" stroke-width="2" fill="none" /><polygon id="cell-56" points="621.664248,513.940545 622.562641,538.6 542.498863,538.6 545.864064,523.32883 575.486677,497.321285" stroke="#ff0000" stroke-width="2" fill="none" /><polygon id="cell-57" points="271.344311,248.329762 288.507361,238.747729 328.891658,239.975369 339.076753,293.849057 296.674215,300.563944 267.337982,274.950458" stroke="#ff0000" stroke-width="2" fill="none" /><polygon id="cell-58" points="562.189673,145.288011 560.707835,112.536711 588.897618,89.751547 635.117979,87.728613 616.308213,145.280238 607.444031,147.502633" stroke="#ff0000" stroke-width="2" fill="none" /><polygon id="cell-59" points="585.630557,48.17937 675.946228,0 696.082349,0 677.468146,53.656983 635.117979,87.728613 588.897618,89.751547" stroke="#ff0000" stroke-width="2" fill="none" /><polygon id="cell-60" points="102.268917,217.173687 127.833203,232.001804 122.915216,289.814896 94.239763,301.137584 62.548888,304.374418 29.296085,262.860268 70.668996,219.882992" stroke="#ff0000" stroke-width="2" fill="none" /><polygon id="cell-61" points="397.081196,67.653196 363.639238,0 429.335363,0 442.498502,70.363999 431.41149,86.998875" stroke="#ff0000" stroke-width="2" fill="none" /><polygon id="cell-62" points="163.234457,182.492447 138.381238,228.788889 127.833203,232.001804 102.268917,217.173687 104.285722,153.544922 145.292621,133.691938" stroke="#ff0000" stroke-width="2" fill="none" /><polygon id="cell-63" points="267.337982,274.950458 296.674215,300.563944 303.172197,340.234753 268.978433,351.02993 255.360288,336.425476 248.612452,297.429909" stroke="#ff0000" stroke-width="2" fill="none" /><polygon id="cell-64" points="590.646171,442.493897 574.058204,422.075431 577.38042,376.416861 614.105436,354.435364 634.379222,351.919324 676.539322,429.801927 676.743618,430.855469 608.826089,441.630456" stroke="#ff0000" stroke-width="2" fill="none" /><polygon id="cell-65" points="198.87642,354.825829 196.808321,343.733167 211.727787,299.308208 248.612452,297.429909 255.360288,336.425476" stroke="#ff0000" stroke-width="2" fill="none" /><polygon id="cell-66" points="104.285722,153.544922 102.268917,217.173687 70.668996,219.882992 13.300244,153.98463 39.1232,139.555402 77.05074,132.678847" stroke="#ff0000" stroke-width="2" fill="none" /><polygon id="cell-67" points="673.898212,198.559523 657.673138,184.271716 646.296972,158.071393 687.084355,116.833763 701.397297,131.73089 695.940629,165.38368" stroke="#ff0000" stroke-width="2" fill="none" /><polygon id="cell-68" points="363.502412,121.709797 353.568735,96.186103 358.767788,88.555572 397.081196,67.653196 431.41149,86.998875 432.897756,95.199536 432.391223,97.644751" stroke="#ff0000" stroke-width="2" fill="none" /><polygon id="cell-69" points="464.837551,390.142951 378.195205,349.642622 422.582703,298.478428 446.681957,277.844721 454.02317,276.181697 455.503012,276.765354 461.399993,285.906632" stroke="#ff0000" stroke-width="2" fill="none" /><polygon id="cell-70" points="397.081196,67.653196 358.767788,88.555572 335.12113,32.042697 356.398413,0 363.639238,0" stroke="#ff0000" stroke-width="2" fill="none" /><polygon id="cell-71" points="736.7,239.59774 717.339004,240.198553 677.466809,210.023511 677.912939,207.624246 736.7,197.288374" stroke="#ff0000" stroke-width="2" fill="none" /><polygon id="cell-72" points="358.767788,88.555572 353.568735,96.186103 311.882534,92.966088 320.817265,44.267301 335.12113,32.042697" stroke="#ff0000" stroke-width="2" fill="none" /><polygon id="cell-73" points="176.708685,110.199209 220.09233,83.950481 255.814717,106.495111 257.004494,107.75114 242.24169,145.217609 205.202971,166.99437 200.948025,165.250469" stroke="#ff0000" stroke-width="2" fill="none" /><polygon id="cell-74" points="138.920702,457.095634 126.32018,389.183571 170.449943,386.313431 158.016356,430.920269" stroke="#ff0000" stroke-width="2" fill="none" /><polygon id="cell-75" points="135.856292,88.888785 92.59238,85.812066 83.899299,38.063947 143.847305,36.951734" stroke="#ff0000" stroke-width="2" fill="none" /><polygon id="cell-76" points="717.71694,316.010363 676.539322,429.801927 634.379222,351.919324 652.112522,328.309149 700.319567,309.692727" stroke="#ff0000" stroke-width="2" fill="none" /><polygon id="cell-77" points="136.467239,463.704904 138.920702,457.095634 158.016356,430.920269 210.59697,429.385409 210.806347,429.736538 166.002879,488.924913 146.803514,476.014541" stroke="#ff0000" stroke-width="2" fill="none" /><polygon id="cell-78" points="289.487438,182.317806 251.807115,177.572465 242.24169,145.217609 257.004494,107.75114 285.13042,114.910082 310.192384,152.524724" stroke="#ff0000" stroke-width="2" fill="none" /><polygon id="cell-79" points="566.331277,45.814361 555.334481,0 675.946228,0 585.630557,48.17937" stroke="#ff0000" stroke-width="2" fill="none" /><polygon id="cell-80" points="108.159216,520.947217 107.91602,538.6 21.329507,538.6 60.444253,484.498505" stroke="#ff0000" stroke-width="2" fill="none" /><polygon id="cell-81" points="126.32018,389.183571 98.314926,377.00601 134.929282,335.690141 180.500307,378.984216 170.449943,386.313431" stroke="#ff0000" stroke-width="2" fill="none" /><polygon id="cell-82" points="94.239763,301.137584 96.927522,377.238394 86.181829,381.53969 59.323747,313.557484 62.548888,304.374418" stroke="#ff0000" stroke-width="2" fill="none" /><polygon id="cell-83" points="545.864064,523.32883 497.353772,469.950515 501.541994,430.551464 506.35346,429.038158 574.058204,422.075431 590.646171,442.493897 575.486677,497.321285" stroke="#ff0000" stroke-width="2" fill="none" /><polygon id="cell-84" points="122.915216,289.814896 137.542109,306.476892 134.929282,335.690141 98.314926,377.00601 96.927522,377.238394 94.239763,301.137584" stroke="#ff0000" stroke-width="2" fill="none" /><polygon id="cell-85" points="413.210584,538.6 415.874408,508.952408 497.353772,469.950515 545.864064,523.32883 542.498863,538.6" stroke="#ff0000" stroke-width="2" fill="none" /><polygon id="cell-86" points="509.228042,0 526.468317,70.67364 464.301852,58.180995 487.912307,0" stroke="#ff0000" stroke-width="2" fill="none" /><polygon id="cell-87" points="432.391223,97.644751 432.897756,95.199536 495.58846,102.803151 502.710863,142.767083 433.249708,108.097616" stroke="#ff0000" stroke-width="2" fill="none" /><polygon id="cell-88" points="370.378888,274.213216 348.318005,304.050747 339.076753,293.849057 328.891658,239.975369 361.65602,220.996215" stroke="#ff0000" stroke-width="2" fill="none" /><polygon id="cell-89" points="226.217959,217.061594 251.807115,177.572465 289.487438,182.317806 288.507361,238.747729 271.344311,248.329762 226.455918,223.10114" stroke="#ff0000" stroke-width="2" fill="none" /><polygon id="cell-90" points="641.250295,508.27415 736.7,498.781298 736.7,538.6 622.562641,538.6 621.664248,513.940545" stroke="#ff0000" stroke-width="2" fill="none" /><polygon id="cell-91" points="556.542227,206.703246 557.115612,251.499574 492.167578,262.579633 513.503133,169.495556 515.626096,168.523005 541.024953,170.184613" stroke="#ff0000" stroke-width="2" fill="none" /><polygon id="cell-92" points="13.300244,153.98463 0.3,152.835989 0.3,67.322821 26.154808,61.348447 46.664482,82.56618 39.1232,139.555402" stroke="#ff0000" stroke-width="2" fill="none" /><polygon id="cell-93" points="366.787297,381.320495 306.298157,435.387646 277.439549,421.163064 274.177302,404.88565 343.08119,353.589692 369.599102,354.714095" stroke="#ff0000" stroke-width="2" fill="none" /><polygon id="cell-94" points="243.625851,460.060622 273.673415,538.6 186.68871,538.6 172.220834,497.393993" stroke="#ff0000" stroke-width="2" fill="none" /><polygon id="cell-95" points="677.468146,53.656983 696.082349,0 736.7,0 736.7,141.554451 701.397297,131.73089 687.084355,116.833763" stroke="#ff0000" stroke-width="2" fill="none" /><polygon id="cell-96" points="196.808321,343.733167 147.997022,307.188986 197.789851,287.475207 211.727787,299.308208" stroke="#ff0000" stroke-width="2" fill="none" /><polygon id="cell-97" points="366.787297,381.320495 401.132753,457.87633 399.187351,468.09532 320.022537,464.44676 306.298157,435.387646" stroke="#ff0000" stroke-width="2" fill="none" /><polygon id="cell-98" points="62.548888,304.374418 59.323747,313.557484 0.3,364.047908 0.3,264.276172 29.296085,262.860268" stroke="#ff0000" stroke-width="2" fill="none" /><polygon id="cell-99" points="446.681957,277.844721 422.582703,298.478428 370.378888,274.213216 361.65602,220.996215 362.142122,220.569587" stroke="#ff0000" stroke-width="2" fill="none" /><polygon id="cell-100" points="60.444253,484.498505 21.329507,538.6 0.3,538.6 0.3,396.232433 52.649003,413.05839 73.131585,453.591131" stroke="#ff0000" stroke-width="2" fill="none" /><polygon id="cell-101" points="210.806347,429.736538 210.59697,429.385409 198.756519,382.550724 263.425554,386.428728 274.177302,404.88565 277.439549,421.163064 245.25146,444.973422" stroke="#ff0000" stroke-width="2" fill="none" /><polygon id="cell-102" points="92.59238,85.812066 91.411022,86.961656 46.664482,82.56618 26.154808,61.348447 45.7765,37.975131 76.295495,29.989044 83.899299,38.063947" stroke="#ff0000" stroke-width="2" fill="none" /><polygon id="cell-103" points="45.7765,37.975131 18.358291,0 81.894414,0 76.295495,29.989044" stroke="#ff0000" stroke-width="2" fill="none" /><polygon id="cell-104" points="158.016356,430.920269 170.449943,386.313431 180.500307,378.984216 192.234721,376.672429 198.756519,382.550724 210.59697,429.385409" stroke="#ff0000" stroke-width="2" fill="none" /><polygon id="cell-105" points="676.743618,430.855469 736.7,478.739528 736.7,498.781298 641.250295,508.27415 608.826089,441.630456" stroke="#ff0000" stroke-width="2" fill="none" /><polygon id="cell-106" points="288.507361,238.747729 289.487438,182.317806 310.192384,152.524724 354.939781,164.740933 370.786532,182.183289 362.142122,220.569587 361.65602,220.996215 328.891658,239.975369" stroke="#ff0000" stroke-width="2" fill="none" /><polygon id="cell-107" points="311.882534,92.966088 353.568735,96.186103 363.502412,121.709797 354.939781,164.740933 310.192384,152.524724 285.13042,114.910082" stroke="#ff0000" stroke-width="2" fill="none" /><polygon id="cell-108" points="556.542227,206.703246 613.156405,202.266262 630.882976,248.720456 605.599253,267.060143 573.069227,269.392952 557.115612,251.499574" stroke="#ff0000" stroke-width="2" fill="none" /><polygon id="cell-109" points="0.3,152.835989 13.300244,153.98463 70.668996,219.882992 29.296085,262.860268 0.3,264.276172" stroke="#ff0000" stroke-width="2" fill="none" /></g></svg>