<?xml version='1.0' encoding='utf-8'?>
<svg xmlns="http://www.w3.org/2000/svg" version="1.1" viewBox="357.8 421.5 12.2 3.8"><g id="voronoi-map-only"><polygon id="cell-0" points="364.325609,422.709268 363.3,422.5 364.258319,422.5" stroke="#ff0000" stroke-width="2" fill="none" /><polygon id="cell-1" points="361.584543,423.186183 361.513937,423.375735 361.342047,423.283181" stroke="#ff0000" stroke-width="2" fill="none" /><polygon id="cell-2" points="362.182953,423.008351 362.541307,423.076449 362.542114,423.277615" stroke="#ff0000" stroke-width="2" fill="none" /><polygon id="cell-3" points="363.3,422.5 362.811442,423.356292 362.639611,423.501546" stroke="#ff0000" stroke-width="2" fill="none" /><polygon id="cell-4" points="363.701149,423.029246 364.066204,422.956151 363.97015,423.241139" stroke="#ff0000" stroke-width="2" fill="none" /><polygon id="cell-5" points="363.334375,423.375611 363.404529,423.168264 363.700523,423.208312" stroke="#ff0000" stroke-width="2" fill="none" /><polygon id="cell-6" points="363.700523,423.208312 363.648209,423.444434 363.336253,423.379198" stroke="#ff0000" stroke-width="2" fill="none" /><polygon id="cell-7" points="367.291228,422.5 367.447218,422.77402 367.241946,422.810245" stroke="#ff0000" stroke-width="2" fill="none" /><polygon id="cell-8" points="362.559678,423.056141 362.644751,422.829347 363.3,422.5" stroke="#ff0000" stroke-width="2" fill="none" /><polygon id="cell-9" points="363.369699,422.94559 363.3,422.5 363.597741,422.849607" stroke="#ff0000" stroke-width="2" fill="none" /><polygon id="cell-10" points="363.3,422.5 361.437246,423.759519 361.583674,423.607814" stroke="#ff0000" stroke-width="2" fill="none" /><polygon id="cell-11" points="367.9087,422.5 368.064813,422.665033 367.74178,422.722039" stroke="#ff0000" stroke-width="2" fill="none" /><polygon id="cell-12" points="363.696932,422.701927 363.94695,422.880586 363.701149,423.029246" stroke="#ff0000" stroke-width="2" fill="none" /><polygon id="cell-13" points="363.07741,423.017776 363.3,422.5 363.014267,423.226852" stroke="#ff0000" stroke-width="2" fill="none" /><polygon id="cell-14" points="364.945822,422.671243 364.636756,422.763776 364.730422,422.5" stroke="#ff0000" stroke-width="2" fill="none" /><polygon id="cell-15" points="360.177582,423.859834 360.337672,424.028646 360.038717,423.992248" stroke="#ff0000" stroke-width="2" fill="none" /><polygon id="cell-16" points="362.559168,423.257807 363.3,422.5 362.765897,423.107133" stroke="#ff0000" stroke-width="2" fill="none" /><polygon id="cell-17" points="363.102816,423.179606 363.334375,423.375611 363.051682,423.378172" stroke="#ff0000" stroke-width="2" fill="none" /><polygon id="cell-18" points="362.247218,423.359748 362.252109,423.161393 362.456482,423.432951" stroke="#ff0000" stroke-width="2" fill="none" /><polygon id="cell-19" points="362.24342,423.363851 362.227604,423.695129 362.099012,423.507894" stroke="#ff0000" stroke-width="2" fill="none" /><polygon id="cell-20" points="360.952902,423.861849 360.516695,423.970197 360.782481,423.720488" stroke="#ff0000" stroke-width="2" fill="none" /><polygon id="cell-21" points="360.516695,423.970197 360.337672,424.028646 363.3,422.5" stroke="#ff0000" stroke-width="2" fill="none" /><polygon id="cell-22" points="363.97015,423.241139 363.648209,423.444434 363.72551,423.111248" stroke="#ff0000" stroke-width="2" fill="none" /><polygon id="cell-23" points="364.559578,422.757008 364.498424,422.5 364.730422,422.5" stroke="#ff0000" stroke-width="2" fill="none" /><polygon id="cell-24" points="362.639611,423.501546 362.357642,423.672181 362.456482,423.432951" stroke="#ff0000" stroke-width="2" fill="none" /><polygon id="cell-25" points="365.256241,422.686474 365.364898,422.951541 365.045065,422.994509 365.098229,422.805359" stroke="#ff0000" stroke-width="2" fill="none" /><polygon id="cell-26" points="363.3,422.5 363.607499,422.767125 363.433864,422.865554" stroke="#ff0000" stroke-width="2" fill="none" /><polygon id="cell-27" points="366.170843,422.772559 365.872649,422.5 366.369478,422.5" stroke="#ff0000" stroke-width="2" fill="none" /><polygon id="cell-28" points="362.644751,422.829347 363.051427,422.693301 362.808569,422.940596" stroke="#ff0000" stroke-width="2" fill="none" /><polygon id="cell-29" points="363.3,422.5 363.014267,423.226852 362.913782,423.467153" stroke="#ff0000" stroke-width="2" fill="none" /><polygon id="cell-30" points="365.551826,422.835442 365.364898,422.951541 365.256241,422.686474 365.4049,422.513566" stroke="#ff0000" stroke-width="2" fill="none" /><polygon id="cell-31" points="368.309289,422.5 368.064813,422.665033 367.9087,422.5" stroke="#ff0000" stroke-width="2" fill="none" /><polygon id="cell-32" points="360.493561,423.928062 360.408708,423.683925 360.61315,423.756037" stroke="#ff0000" stroke-width="2" fill="none" /><polygon id="cell-33" points="366.565924,422.694865 366.397465,422.5 366.73448,422.542704" stroke="#ff0000" stroke-width="2" fill="none" /><polygon id="cell-34" points="364.973263,422.998649 364.628692,423.080863 364.680347,422.826761" stroke="#ff0000" stroke-width="2" fill="none" /><polygon id="cell-35" points="360.952902,423.861849 361.249652,423.554137 361.297171,423.741865" stroke="#ff0000" stroke-width="2" fill="none" /><polygon id="cell-36" points="364.229599,422.807436 363.992594,422.753987 363.3,422.5" stroke="#ff0000" stroke-width="2" fill="none" /><polygon id="cell-37" points="361.956378,423.742992 362.099012,423.507894 362.227604,423.695129" stroke="#ff0000" stroke-width="2" fill="none" /><polygon id="cell-38" points="364.741707,423.180819 364.533642,423.288181 364.559409,423.090524" stroke="#ff0000" stroke-width="2" fill="none" /><polygon id="cell-39" points="365.814828,422.931794 365.961217,422.617329 366.170843,422.772559 366.129734,423.006517" stroke="#ff0000" stroke-width="2" fill="none" /><polygon id="cell-40" points="362.456482,423.432951 362.309281,423.680715 362.247218,423.359748" stroke="#ff0000" stroke-width="2" fill="none" /><polygon id="cell-41" points="363.992594,422.753987 363.953022,422.5 364.15741,422.5" stroke="#ff0000" stroke-width="2" fill="none" /><polygon id="cell-42" points="364.680347,422.826761 364.945822,422.671243 365.087547,422.795959" stroke="#ff0000" stroke-width="2" fill="none" /><polygon id="cell-43" points="363.3,422.5 362.806525,423.312641 362.84389,423.090589" stroke="#ff0000" stroke-width="2" fill="none" /><polygon id="cell-44" points="360.038717,423.992248 359.895071,423.861972 360.177582,423.859834" stroke="#ff0000" stroke-width="2" fill="none" /><polygon id="cell-45" points="364.35327,423.092534 364.26402,423.335761 364.13645,423.108517" stroke="#ff0000" stroke-width="2" fill="none" /><polygon id="cell-46" points="362.541307,423.076449 362.186019,423.008293 362.619264,422.863089" stroke="#ff0000" stroke-width="2" fill="none" /><polygon id="cell-47" points="364.083633,422.733333 369,422.5 364.335748,422.740802" stroke="#ff0000" stroke-width="2" fill="none" /><polygon id="cell-48" points="361.342047,423.283181 361.520876,423.460925 361.139882,423.364047" stroke="#ff0000" stroke-width="2" fill="none" /><polygon id="cell-49" points="360.408708,423.683925 360.733593,423.526563 363.3,422.5" stroke="#ff0000" stroke-width="2" fill="none" /><polygon id="cell-50" points="361.831339,423.317929 361.792683,423.102927 362.058468,422.996613 362.032338,423.320861" stroke="#ff0000" stroke-width="2" fill="none" /><polygon id="cell-51" points="367.724253,422.5 367.74178,422.722039 367.447218,422.77402 367.291228,422.5" stroke="#ff0000" stroke-width="2" fill="none" /><polygon id="cell-52" points="364.13645,423.108517 364.26402,423.335761 363.97015,423.241139" stroke="#ff0000" stroke-width="2" fill="none" /><polygon id="cell-53" points="365.814531,422.891632 365.748224,422.5 365.961217,422.617329" stroke="#ff0000" stroke-width="2" fill="none" /><polygon id="cell-54" points="366.998453,422.749001 367.137347,422.5 367.241946,422.810245" stroke="#ff0000" stroke-width="2" fill="none" /><polygon id="cell-55" points="365.4049,422.513566 365.748224,422.5 365.814828,422.931794 365.551826,422.835442" stroke="#ff0000" stroke-width="2" fill="none" /><polygon id="cell-56" points="365.666726,422.899309 365.928397,423.042048 365.522401,423.113694" stroke="#ff0000" stroke-width="2" fill="none" /><polygon id="cell-57" points="362.032338,423.320861 362.129083,422.968367 362.252109,423.161393 363.3,422.5" stroke="#ff0000" stroke-width="2" fill="none" /><polygon id="cell-58" points="363.696932,422.701927 363.3,422.5 363.882921,422.745522" stroke="#ff0000" stroke-width="2" fill="none" /><polygon id="cell-59" points="366.170843,422.772559 366.584578,422.7327 366.59732,422.924002 366.129734,423.006517" stroke="#ff0000" stroke-width="2" fill="none" /><polygon id="cell-60" points="366.795559,422.53968 367.126096,422.5 366.922814,422.742347" stroke="#ff0000" stroke-width="2" fill="none" /><polygon id="cell-61" points="363.241046,422.767616 363.040202,422.612182 363.3,422.5" stroke="#ff0000" stroke-width="2" fill="none" /><polygon id="cell-62" points="365.407971,422.5 365.256241,422.686474 365.098229,422.805359 364.921918,422.5" stroke="#ff0000" stroke-width="2" fill="none" /><polygon id="cell-63" points="364.238441,423.028053 364.245969,422.779786 364.437901,422.790142" stroke="#ff0000" stroke-width="2" fill="none" /><polygon id="cell-64" points="361.139882,423.364047 360.952902,423.861849 360.782481,423.720488 360.733593,423.526563" stroke="#ff0000" stroke-width="2" fill="none" /><polygon id="cell-65" points="363.830674,422.5 363.612474,422.755958 363.537756,422.5" stroke="#ff0000" stroke-width="2" fill="none" /><polygon id="cell-66" points="363.3,422.5 363.229053,422.766023 363.067499,422.961799" stroke="#ff0000" stroke-width="2" fill="none" /><polygon id="cell-67" points="365.143417,423.119304 358.8,424.3 364.741707,423.180819" stroke="#ff0000" stroke-width="2" fill="none" /><polygon id="cell-68" points="364.559409,423.090524 364.533642,423.288181 364.310401,423.327576 364.35327,423.092534" stroke="#ff0000" stroke-width="2" fill="none" /><polygon id="cell-69" points="364.628692,423.080863 364.38708,423.062098 364.437901,422.790142 364.680347,422.826761" stroke="#ff0000" stroke-width="2" fill="none" /><polygon id="cell-70" points="363.051427,422.693301 363.056451,422.982683 362.808569,422.940596" stroke="#ff0000" stroke-width="2" fill="none" /><polygon id="cell-71" points="360.038717,423.992248 358.8,424.3 359.895071,423.861972" stroke="#ff0000" stroke-width="2" fill="none" /><polygon id="cell-72" points="366.611607,422.792433 366.922814,422.742347 369,422.5" stroke="#ff0000" stroke-width="2" fill="none" /></g></svg>