<svg xmlns="http://www.w3.org/2000/svg" width="260.0mm" height="190.0mm" viewBox="0 0 737 539"><rect x="0" y="0" width="737" height="539" fill="none" stroke="#ffffff" stroke-width="2"/><path d="M 256.4382563704253 119.08746174650292 L 254.65975162513175 114.20106011841614 L 246.79328832864135 92.58812984034029 L 236.41555625146404 101.79262205524958 L 239.1092146648393 139.01619260338543 L 236.25143931935642 153.67781325305276 L 241.04387168536456 151.93351052209186 L 245.83630405137268 150.18920779113097 L 253.77083531450663 141.87396794886837 L 259.2279637492646 134.35401121717405 L 259.9268618323471 128.67232647851915 L 256.4382563704253 119.08746174650292 Z" fill="none" stroke="#ffffff" stroke-width="1"/><path d="M 459.8008664932596 386.84231082981967 L 453.01028524359015 382.43458961680767 L 446.62515460895827 356.8088192522179 L 459.50750568652063 368.2322614092226 L 496.9786261265482 357.04945617221057 L 477.8345789792192 389.08623907594244 L 467.08406633948107 399.4571830051531 L 459.8008664932596 386.84231082981967 Z" fill="none" stroke="#ffffff" stroke-width="1"/><path d="M 313.2874755292337 93.17227713490456 L 316.7392910970807 76.30411276276345 L 339.4740856027913 62.240716345713 L 341.04508433164756 77.76302168332103 L 337.5932687638006 94.63118605546214 L 341.7076291700736 120.03181672572885 L 313.2874755292337 93.17227713490456 Z" fill="none" stroke="#ffffff" stroke-width="1"/><path d="M 112.17366830405979 433.9089201010191 L 129.86929494010815 419.06052631726016 L 143.27334838835682 411.0767082358847 L 123.24858256033684 411.1702685531345 L 108.4937490938276 413.49940774510605 L 88.78945103273193 409.93000472506156 L 98.36791245498031 425.39005248638813 L 112.17366830405979 433.9089201010191 Z" fill="none" stroke="#ffffff" stroke-width="1"/><path d="M 405.5638200783418 183.74147165569207 L 424.48623230141743 170.49185597598296 L 445.4772598130296 187.045609749878 L 469.2120216596378 198.62624358766033 L 434.3536170654918 198.0084821848355 L 408.11398401791655 200.6336788495816 L 405.5638200783418 183.74147165569207 Z" fill="none" stroke="#ffffff" stroke-width="1"/><path d="M 623.2648213971274 328.8031638587573 L 615.5681199206945 314.52273016847056 L 615.0029528805214 296.34470535231685 L 602.6367363503591 285.5277423437299 L 589.1455914057015 282.7279194775044 L 575.9629259750564 311.047300334855 L 586.5731320959537 327.45411373880603 L 576.6417747934684 344.84284980933074 L 590.9048436659883 337.0476675575965 L 600.1627578159126 330.2365717872649 L 618.4370995925387 345.1904486301127 L 623.2648213971274 328.8031638587573 Z" fill="none" stroke="#ffffff" stroke-width="1"/><path d="M 652.7227026397421 266.99595545149276 L 632.4204619247528 279.0536924676427 L 635.6544052351458 290.0828180297698 L 638.1012236147385 306.1518279500258 L 632.0946175929737 310.27137696652005 L 652.1694947514849 329.4486892670141 L 657.0663733616923 301.67711063206986 L 658.4034643297277 294.09409093387586 L 652.7227026397421 266.99595545149276 Z" fill="none" stroke="#ffffff" stroke-width="1"/><path d="M 696.8837298608707 282.6015209578989 L 692.5346534730695 292.29355555199066 L 691.1975625050343 299.87657525018466 L 689.8604715369988 307.4595949483787 L 688.5233805689635 315.0426146465727 L 686.061361186433 314.6084942024054 L 688.7355431225037 299.44245480601734 L 691.8612103205085 281.7159152517975 L 696.0944411152417 272.1049966152404 L 702.1010471370065 267.98544759874613 L 698.2208208289061 275.0185012597049 L 696.8837298608707 282.6015209578989 Z" fill="none" stroke="#ffffff" stroke-width="1"/><path d="M 462.4611517199525 106.89413361031575 L 476.95684073427674 112.33885582545213 L 491.452529748601 117.78357804058862 L 516.7669525150793 117.78357804058851 L 520.4439077772494 106.89413361031575 L 529.5655852545559 101.44941139517931 L 504.1804518099588 86.95372238085514 L 486.54469713358526 92.81198470235358 L 476.8861300561581 96.00468918004287 L 464.2289186729189 90.5599669649065 L 462.4611517199525 106.89413361031575 Z" fill="none" stroke="#ffffff" stroke-width="1"/><path d="M 494.87108412179094 277.72778283768406 L 488.98707767281155 256.6346923076462 L 462.8133941825059 262.0742044686128 L 450.50659633494456 255.87801800117472 L 454.69820071918633 266.4836982097236 L 458.43659524114037 282.26959084834954 L 468.4707957003414 285.757401213689 L 479.1760953786995 281.57451240372205 L 495.44789267935863 300.9664852947472 L 494.87108412179094 277.72778283768406 Z" fill="none" stroke="#ffffff" stroke-width="1"/><path d="M 187.5 368.40000000000003 L 184.89999999999998 355.5 L 156.7 355.5 L 143.89999999999998 355.5 L 148.95913473305922 363.1331551827515 L 167.0 381.2 L 179.8 386.3000000000001 L 187.5 368.40000000000003 Z" fill="none" stroke="#ffffff" stroke-width="1"/><path d="M 62.76774859783154 208.55590677841315 L 75.020283349755 203.75534512867796 L 77.26034484165842 216.45936514253543 L 79.91716195996247 231.52692376362222 L 55.83101189734515 227.95517696953436 L 43.80259885087753 204.0811894604572 L 62.76774859783154 208.55590677841315 Z" fill="none" stroke="#ffffff" stroke-width="1"/><path d="M 374.7719536610364 209.10638285477665 L 361.57616723744894 205.14138340167875 L 343.29107227931894 201.5212587667848 L 341.95758941527976 186.27947988598112 L 348.85756990161997 177.9463970657925 L 364.4168576091022 179.09468537270783 L 374.67766299944697 178.19698122240698 L 397.6897605253664 176.18368356493608 L 390.8414052296391 193.45907386953428 L 387.07875150859763 202.91019638733871 L 374.7719536610364 209.10638285477665 Z" fill="none" stroke="#ffffff" stroke-width="1"/><path d="M 247.23056618534065 325.97839006219834 L 227.69656564864363 312.5775384835739 L 223.25322379234638 302.4839616561142 L 241.18063765221325 297.99056476718755 L 279.6633751029955 298.6530738570583 L 273.1238154521593 313.6568786936041 L 278.87739569970444 325.47027423997673 L 247.23056618534065 325.97839006219834 Z" fill="none" stroke="#ffffff" stroke-width="1"/><path d="M 199.5847288695806 342.66604441489847 L 214.98472886958058 342.66604441489847 L 214.98472886958058 306.76604441489843 L 191.8847288695806 309.36604441489845 L 176.4847288695806 337.56604441489844 L 199.5847288695806 342.66604441489847 Z" fill="none" stroke="#ffffff" stroke-width="1"/><path d="M 33.46928103071727 469.67133348629466 L 47.94054739082026 464.40422327907936 L 65.23572314409523 474.4976318046138 L 65.29582645386279 504.4855691726982 L 35.87861589244966 498.80422049606494 L 33.46928103071727 469.67133348629466 Z" fill="none" stroke="#ffffff" stroke-width="1"/><path d="M 698.0850267431845 392.66478274623006 L 702.2219405774454 386.75665749976645 L 698.8862746407294 337.8935494042039 L 668.2163923642584 356.29893777683566 L 646.5651015293179 380.9328900618593 L 654.2681101130795 393.34140656483714 L 646.5397685958754 396.45307557113995 L 661.0555339583159 404.37275712676916 L 672.5361447823769 410.1672005949938 L 678.0101495846732 411.8420950467242 L 699.9699199336262 418.3273464852766 L 690.7141695985307 409.60203355482076 L 698.0850267431845 392.66478274623006 Z" fill="none" stroke="#ffffff" stroke-width="1"/><path d="M 456.7700941256144 313.5844847938795 L 505.7379857849702 314.5202125521456 L 505.47868605408087 340.2406861801634 L 453.77407056524663 347.50410571679345 L 449.32599988145193 316.8456902280749 L 451.2450068773334 308.9483861216246 L 456.7700941256144 313.5844847938795 Z" fill="none" stroke="#ffffff" stroke-width="1"/><path d="M 702.8 165.8 L 702.8 155.60000000000002 L 700.3 155.60000000000002 L 697.7 168.40000000000003 L 697.7 181.2 L 692.6 194.0 L 684.9 217.10000000000002 L 682.3 229.90000000000003 L 669.5 194.0 L 670.3409125414519 209.27057413400456 L 672.0999999999999 240.20000000000005 L 669.5 247.89999999999998 L 684.9 258.1 L 695.1 250.5 L 697.7 240.2 L 700.3 214.59999999999997 L 702.8 199.2 L 702.8 181.2 L 702.8 168.39999999999998 L 702.8 165.8 Z" fill="none" stroke="#ffffff" stroke-width="1"/><path d="M 633.8674670356294 248.91120196081468 L 610.8906065436996 238.1188953521978 L 614.9096999736612 223.0440035793128 L 612.0403608759398 196.83599253546873 L 637.4238044021731 198.45178792799692 L 657.7719413213096 218.39504051928904 L 650.7819342097757 242.75483938095263 L 660.5226330628759 253.63722923334223 L 653.4520380712543 258.04363741640714 L 633.8674670356294 248.91120196081468 Z" fill="none" stroke="#ffffff" stroke-width="1"/><path d="M 44.89583557063321 437.7613745563241 L 33.61372733470748 418.70556090922787 L 51.98972618837195 415.1937713184178 L 80.3090216057031 415.0614570488632 L 70.18053048491271 442.4830483158935 L 44.89583557063321 437.7613745563241 Z" fill="none" stroke="#ffffff" stroke-width="1"/><path d="M 572.958974641122 395.5929357941561 L 570.7872469323028 373.55447852603623 L 536.0664366548887 382.4918715202578 L 530.5651418676797 356.2212080853368 L 528.3672543342283 384.6280609625969 L 505.21347581784016 394.9315817401779 L 537.6337261547218 389.9780609625969 L 572.958974641122 395.5929357941561 Z" fill="none" stroke="#ffffff" stroke-width="1"/><path d="M 316.9350906280165 175.5538372735299 L 315.0382382856589 156.94169201320878 L 317.37461673803466 128.7186281163305 L 308.34082429356636 150.58208150481119 L 283.2434275946928 130.5191634982157 L 285.04396297657803 164.65035264155756 L 301.76905123162845 172.87965533745916 L 303.0465241954057 173.10490828809867 L 316.9350906280165 175.5538372735299 Z" fill="none" stroke="#ffffff" stroke-width="1"/><path d="M 225.13427122141755 48.32452759487762 L 216.64828099935548 44.540618247249526 L 228.57588193322815 68.53392431294793 L 244.40790048238392 83.91844863640975 L 250.98366233717832 69.7704865926386 L 252.7088883057594 43.46237862020358 L 225.13427122141755 48.32452759487762 Z" fill="none" stroke="#ffffff" stroke-width="1"/><path d="M 415.59999999999997 111.29999999999998 L 410.4 119.0 L 395.32550410303514 121.72383986378156 L 377.1285714285714 124.70710801393727 L 377.09999999999997 106.20000000000002 L 387.34242230527144 103.61137883556253 L 392.5 80.6 L 415.59999999999997 83.29999999999998 L 415.59999999999997 111.29999999999998 Z" fill="none" stroke="#ffffff" stroke-width="1"/><path d="M 531.5498759734533 499.5245704706011 L 508.5147976241938 504.5752465673642 L 501.84007539450823 496.3864580507985 L 485.07901409342685 504.2337943776971 L 483.43053875500215 482.46205642205047 L 483.21287207119605 462.59241573041345 L 519.991873389027 462.4341057086384 L 547.2348573889626 472.3497409772054 L 531.5498759734533 499.5245704706011 Z" fill="none" stroke="#ffffff" stroke-width="1"/><path d="M 400.6204322808106 458.29929197575643 L 434.75162142415246 456.4987565938712 L 433.7403747878963 432.86409179318775 L 403.9734630352933 409.33770310489257 L 395.27747407451994 444.25818099386356 L 400.6204322808106 458.29929197575643 Z" fill="none" stroke="#ffffff" stroke-width="1"/><path d="M 333.8392950812082 206.82233379808048 L 305.865677782111 184.18305962235544 L 287.8814962718553 184.17112180840954 L 274.6283672376291 184.16232444454164 L 290.38667650128525 210.82232611654024 L 333.8392950812082 206.82233379808048 Z" fill="none" stroke="#ffffff" stroke-width="1"/><path d="M 384.8 331.0 L 354.0 336.1 L 372.0 315.59999999999997 L 377.09999999999997 295.09999999999997 L 389.90000000000003 310.5 L 397.59999999999997 336.09999999999997 L 384.8 331.0 Z" fill="none" stroke="#ffffff" stroke-width="1"/><path d="M 243.62845154349617 207.42817920346238 L 248.966908811616 180.67465842588126 L 265.1220956390365 162.4562628167412 L 257.2336383709166 184.7930540350215 L 265.91524276177654 215.23003393120376 L 249.46172198419555 227.73169998104333 L 243.62845154349617 207.42817920346238 Z" fill="none" stroke="#ffffff" stroke-width="1"/><path d="M 239.5747693028626 287.43815260193423 L 263.6983517394233 267.6214230426336 L 224.82810140254173 251.49617455623337 L 225.93964413442188 289.42142304263365 L 239.5747693028626 287.43815260193423 Z" fill="none" stroke="#ffffff" stroke-width="1"/><path d="M 626.978929566324 186.83644919247274 L 633.9210745050079 163.497498409494 L 638.7970778540484 153.60567494948924 L 620.2106453520743 138.27143782837294 L 598.4147407707345 169.3992155113546 L 593.355338555197 152.85196583565104 L 588.9159771639572 138.33261785498803 L 584.9564296942988 157.41197800766406 L 584.9476323304309 170.66510704189034 L 584.935694516485 188.64928855214595 L 626.978929566324 186.83644919247274 Z" fill="none" stroke="#ffffff" stroke-width="1"/><path d="M 395.22086358586733 358.06774644022346 L 364.1968482255171 345.5437025825296 L 364.1968482255171 366.0437025825296 L 364.1968482255171 386.5437025825296 L 397.5968482255171 401.94370258252957 L 395.22086358586733 358.06774644022346 Z" fill="none" stroke="#ffffff" stroke-width="1"/><path d="M 603.1301480000932 87.23455471943032 L 607.1978393810048 54.02619597560886 L 618.2417128274819 45.78709048422235 L 633.496539262861 62.92273375859227 L 632.8391069712641 100.26530708692582 L 626.8758842550656 117.8064009763334 L 611.5787186117807 129.87689074609435 L 603.1301480000932 87.23455471943032 Z" fill="none" stroke="#ffffff" stroke-width="1"/><path d="M 379.24713991412415 283.91735222518776 L 402.0336461164897 281.2499311692691 L 407.43529953603655 266.38414759351843 L 385.17928225211085 245.1056312213227 L 378.57447918849823 218.2255907360314 L 379.24713991412415 283.91735222518776 Z" fill="none" stroke="#ffffff" stroke-width="1"/><path d="M 45.974642628332845 296.6247525208257 L 55.20995841291591 290.01980826723735 L 56.35810368517474 327.808454213259 L 41.72131246689429 333.2567881634195 L 34.2897080760344 304.9848717766984 L 34.62579513879854 282.9669916451725 L 42.342524698099226 286.1327593101498 L 45.974642628332845 296.6247525208257 Z" fill="none" stroke="#ffffff" stroke-width="1"/><path d="M 606.3068285535222 414.90531576896166 L 604.223729247059 403.7439070983057 L 638.9571004886973 418.6735059606507 L 638.4183155390949 382.68351136801334 L 636.1871285247548 357.18092709686454 L 581.7423583437944 354.1395923371735 L 590.8984284780515 400.5932945522307 L 595.2628540390385 413.7630245996768 L 606.3068285535222 414.90531576896166 Z" fill="none" stroke="#ffffff" stroke-width="1"/><path d="M 335.09511489839446 459.7832380658819 L 315.85902783563023 470.5011181974077 L 314.74229827632956 462.23535053243046 L 301.4509553252397 458.2566318245407 L 305.36005096091895 468.6976447191503 L 307.7686255960685 475.1487377312286 L 312.7283853390939 488.3235500617433 L 301.459892810387 496.6076688360092 L 315.16184445769505 504.50867523018405 L 342.03190611667475 478.5683632343227 L 335.09511489839446 459.7832380658819 Z" fill="none" stroke="#ffffff" stroke-width="1"/><path d="M 234.84514613727674 213.8183923527502 L 224.49005008534255 243.83008983481903 L 209.37525666587356 239.89778518146653 L 218.6060436363631 222.73699930478125 L 207.6501598013905 201.09979501692118 L 208.32125902054747 193.42909584161487 L 224.58434074693196 212.92068820244936 L 234.84514613727674 213.8183923527502 Z" fill="none" stroke="#ffffff" stroke-width="1"/><path d="M 423.59324005758884 233.43514294102187 L 415.7029822934634 226.81443056125056 L 421.3576611828672 228.1652105795112 L 446.98978301226003 209.59711077034495 L 469.5582697985829 218.4826835811192 L 466.5712391998246 246.00063496202836 L 435.7107922485455 246.99703546748896 L 423.59324005758884 233.43514294102187 Z" fill="none" stroke="#ffffff" stroke-width="1"/><path d="M 480.83229554588434 57.77128039394955 L 467.44182864610053 37.547893036590324 L 486.1455696375939 37.82626178413824 L 504.75852006992375 38.108732745558314 L 484.5529828935448 43.74809743825591 L 511.9286700301209 54.82246810149496 L 507.80392494500717 69.17922532528445 L 501.81172964111255 75.2049939639191 L 462.60181483581454 78.599376156159 L 480.83229554588434 57.77128039394955 Z" fill="none" stroke="#ffffff" stroke-width="1"/><path d="M 270.0 480.69999999999993 L 252.21763016276537 504.27662517745716 L 252.0 483.3 L 259.7 462.7 L 270.00590949506295 464.79056015723717 L 285.40000000000003 467.90000000000003 L 293.1000000000001 462.7 L 287.90000000000003 491.0 L 287.0695512846781 495.74759988526 L 282.8 488.40000000000003 L 270.0 480.69999999999993 Z" fill="none" stroke="#ffffff" stroke-width="1"/><path d="M 163.30000000000007 249.80000000000007 L 153.10000000000008 267.7 L 145.40000000000003 272.90000000000003 L 130.00590949506295 269.79056015723717 L 137.69999999999987 257.5 L 130.0 239.5 L 145.40000000000003 239.5 L 153.10000000000002 239.5 L 163.3 242.10000000000002 L 163.30000000000007 249.80000000000007 Z" fill="none" stroke="#ffffff" stroke-width="1"/><path d="M 602.5051259679972 233.42977896284845 L 591.813803889565 249.72074677373155 L 548.0302981958428 274.4738764580317 L 548.636863149839 229.1100265447298 L 564.6885082523283 226.76168894043832 L 602.5051259679972 233.42977896284845 Z" fill="none" stroke="#ffffff" stroke-width="1"/><path d="M 564.6772091302828 421.8844502248926 L 565.9251169070074 406.31644694313576 L 509.13836130967405 404.3582874172707 L 511.30853930409074 429.1635353997551 L 525.846524165992 448.4699332034659 L 572.0973241489746 447.03344410356266 L 564.6772091302828 421.8844502248926 Z" fill="none" stroke="#ffffff" stroke-width="1"/><path d="M 231.06066952758692 395.5023298905011 L 196.25845050537959 379.27378863965816 L 195.62941649076043 356.25088013077396 L 195.42836937934277 350.5299029363612 L 214.99607016140584 351.1584616875116 L 231.42002666077957 364.4443057670829 L 228.16586604537622 371.42287572726497 L 231.06066952758692 395.5023298905011 Z" fill="none" stroke="#ffffff" stroke-width="1"/><path d="M 368.6426275037926 168.7141050129415 L 348.6651304809248 161.8468193263467 L 330.06252669611644 167.94871513219516 L 326.3241321741625 152.1628224935692 L 333.41802279190125 129.59521925566293 L 346.04232946614087 133.30963455214635 L 350.45182320725183 141.42482801546583 L 368.6426275037926 168.7141050129415 Z" fill="none" stroke="#ffffff" stroke-width="1"/><path d="M 345.0322471061985 343.2657470175327 L 330.36194797474263 334.2528494039121 L 302.0426525574115 334.38516367346665 L 288.74724666401494 338.3414475522898 L 277.02597294829604 355.2843440721059 L 292.81186558692207 351.54594955015193 L 315.3794688248282 358.6398401678907 L 330.172905412678 350.98572863871533 L 345.0322471061985 343.2657470175327 Z" fill="none" stroke="#ffffff" stroke-width="1"/><path d="M 361.30726119617526 488.5886763710997 L 351.05005956191025 502.41762479945237 L 355.3817711319447 492.82407098066193 L 358.5074383299494 475.09753142644223 L 355.6091346884227 461.5890216640179 L 352.37519137802985 450.5598961018908 L 372.56375031478 454.11968374406285 L 385.1692895533363 456.3423804181995 L 364.8670488383472 468.4001174343495 L 386.2790169648936 479.9944100366495 L 378.4394665817151 488.767499115495 L 373.485632284658 494.32051305311904 L 367.70278899452296 504.06431451551094 L 361.30726119617526 488.5886763710997 Z" fill="none" stroke="#ffffff" stroke-width="1"/><path d="M 165.39999999999998 230.2 L 152.5 227.59999999999997 L 143.5856817224281 213.52995668002632 L 147.58867726151487 202.93000525698568 L 151.50298093356713 196.60112978048073 L 165.39999999999998 194.3 L 162.80000000000007 207.10000000000002 L 165.39999999999998 230.2 Z" fill="none" stroke="#ffffff" stroke-width="1"/><path d="M 100.1841213676712 220.30236160806163 L 89.29467693739849 198.52347274751605 L 112.84133275091051 200.29123970048232 L 114.6798103819956 202.1297173315674 L 120.05382191901333 214.85763939292525 L 121.89229955009836 223.9086061921131 L 100.18412136767131 231.1918060383345 L 88.73030047534962 222.99227409034933 L 100.1841213676712 220.30236160806163 Z" fill="none" stroke="#ffffff" stroke-width="1"/><path d="M 406.41823570808015 348.1510549193164 L 413.6968394946381 327.49767924079106 L 416.9750563040395 323.5908525808842 L 406.94277998244195 291.67544201158216 L 422.96715883330535 308.5155513474506 L 440.90664879196606 326.96262970753537 L 430.44338851325654 331.49806621794767 L 425.8143916855946 341.05957176725803 L 406.41823570808015 348.1510549193164 Z" fill="none" stroke="#ffffff" stroke-width="1"/><path d="M 86.55239300793124 306.0598580552714 L 64.71892275827656 304.3747536497692 L 102.27963624961461 333.14405676996336 L 107.21890127052018 304.3320165601265 L 86.55239300793124 306.0598580552714 Z" fill="none" stroke="#ffffff" stroke-width="1"/><path d="M 410.7010041585121 134.33316734061003 L 416.2147998426352 132.97006163900608 L 453.4644215344166 145.3145212796372 L 456.74263834381793 149.22134793954407 L 448.46763405179934 159.42841921229783 L 430.7764777964693 154.21330322183886 L 416.0644968372725 156.59351204335178 L 406.5029912879621 161.22250887101376 L 393.64631305631235 141.85563444978038 L 410.7010041585121 134.33316734061003 Z" fill="none" stroke="#ffffff" stroke-width="1"/><path d="M 349.8562471649673 69.76718021126803 L 357.7569124757902 48.0602806711135 L 384.54056793359575 49.61456517453169 L 415.4177576743269 47.231467670255896 L 387.8383679466314 71.56688981623725 L 371.1827741880148 63.801507982991836 L 349.8562471649673 69.76718021126803 Z" fill="none" stroke="#ffffff" stroke-width="1"/><path d="M 288.165954969797 321.2690333641872 L 314.7122257120423 325.151752730741 L 345.6796190567568 325.4688480377596 L 336.07544723232155 309.62555660047536 L 321.91726020053943 297.3962581752558 L 309.4187601573622 300.06412186568286 L 288.165954969797 321.2690333641872 Z" fill="none" stroke="#ffffff" stroke-width="1"/><path d="M 539.2248599949223 269.58600195768514 L 538.8153950772688 245.5057519912737 L 538.5382468488347 231.0742312684925 L 504.1170556256548 249.54452078374632 L 520.3561581265685 258.4631277357773 L 505.6453362607002 292.17406407409237 L 539.2248599949223 269.58600195768514 Z" fill="none" stroke="#ffffff" stroke-width="1"/><path d="M 143.49154299917012 474.67403281307554 L 137.80985826051528 475.37293089615804 L 157.29777722850167 504.28159766405304 L 155.10503401379015 465.27952237062357 L 158.2132669586049 441.8283200995082 L 142.8866141781662 469.02655008875325 L 143.49154299917012 474.67403281307554 Z" fill="none" stroke="#ffffff" stroke-width="1"/><path d="M 298.98706917893105 421.0404584777587 L 292.3376728492052 438.5274687553971 L 299.11938344848556 449.35975389508985 L 266.0643698890905 443.9582653420887 L 265.3692914444629 423.21876520452963 L 272.6810714190708 398.16067522139394 L 298.98706917893105 421.0404584777587 Z" fill="none" stroke="#ffffff" stroke-width="1"/><path d="M 444.2486334982558 472.1671716319152 L 474.7048252683377 466.8926685402488 L 471.08470063344373 485.1777634983788 L 462.4923180823656 503.99825664005635 L 431.36502709312686 501.6020605564164 L 426.50232348972804 504.5370415896587 L 423.46772298667645 499.68305356053474 L 405.22403840256663 467.8519685523936 L 444.2486334982558 472.1671716319152 Z" fill="none" stroke="#ffffff" stroke-width="1"/><path d="M 525.9952769879312 77.78767688731187 L 556.9046786203011 77.8819675489012 L 559.8396596535434 73.01926394550242 L 594.9079708704096 55.40865497258423 L 544.0210722151721 48.44707862440012 L 540.9864717121205 53.301066653524 L 537.1511221244673 52.96551704394554 L 528.2351795765461 52.185473146353985 L 520.3378754700959 54.10448014223559 L 520.6469567575894 66.00265346648737 L 525.9952769879312 77.78767688731187 Z" fill="none" stroke="#ffffff" stroke-width="1"/><path d="M 563.5830677927136 501.3958262996025 L 572.4990103406348 502.17587019719406 L 576.334359928288 502.51141980677255 L 579.3689604313396 497.65743177764864 L 630.255859086577 504.6190081258327 L 603.1791426377505 489.4012084704997 L 590.4278505021762 488.2856149633297 L 601.3597551116782 481.5126199383242 L 604.7392304329336 471.5693233746575 L 616.3422342615926 457.1256291743455 L 576.8731448778904 466.521425214135 L 561.1868717090736 470.26853531036375 L 557.925666274878 477.7126295545263 L 555.6857636862634 503.3148332954841 L 563.5830677927136 501.3958262996025 Z" fill="none" stroke="#ffffff" stroke-width="1"/><path d="M 84.55746484716838 483.79293832820895 L 84.55746484716838 468.39293832820897 L 84.55746484716838 460.6929383282089 L 76.85746484716833 450.4929383282089 L 76.85746484716833 458.1929383282089 L 76.85746484716833 473.5929383282089 L 76.85746484716833 483.79293832820906 L 74.35746484716833 494.0929383282089 L 74.35746484716833 501.79293832820895 L 79.45746484716824 501.79293832820895 L 84.55746484716838 491.4929383282089 L 84.55746484716838 483.79293832820895 Z" fill="none" stroke="#ffffff" stroke-width="1"/><path d="M 83.30476414753184 504.3028652107107 L 92.25746484716831 501.79293832820895 L 97.45746484716824 486.39293832820886 L 97.45746484716824 476.0929383282089 L 97.45746484716824 463.29293832820895 L 94.85746484716833 452.9929383282089 L 92.25746484716831 470.992938328209 L 89.75746484716831 481.1929383282089 L 87.15746484716828 491.492938328209 L 84.55746484716838 499.1929383282089 L 83.30476414753184 504.3028652107107 Z" fill="none" stroke="#ffffff" stroke-width="1"/><path d="M 85.75881480493808 274.24255610760633 L 78.14247304575804 260.6263401058175 L 77.81703624558281 257.97792720577877 L 84.20453030151998 247.4589006498009 L 75.92349247359004 239.61833864874552 L 61.452226113487086 244.88544885596082 L 53.89788488202407 250.30601260260136 L 54.50091648507839 255.6096874979342 L 53.10312031891351 266.9730569752439 L 60.125309609144324 272.1934739828278 L 85.75881480493808 274.24255610760633 Z" fill="none" stroke="#ffffff" stroke-width="1"/><path d="M 278.66920520737267 109.0869526208989 L 268.0635249988238 113.27855700514073 L 272.34070447038005 93.07445505112906 L 292.98930071240477 92.27104156241745 L 304.59230454106364 77.82734736210551 L 302.46153180925876 100.98227950059851 L 303.60030972917355 118.99755438482015 L 288.04102202169156 120.14584269173554 L 285.50320925230153 119.32152094173654 L 278.66920520737267 109.0869526208989 Z" fill="none" stroke="#ffffff" stroke-width="1"/><path d="M 365.9643491217764 277.4093294639941 L 369.0124787568236 270.87259436702504 L 370.2821036465773 259.4494576419693 L 367.4581942534053 244.0889389092195 L 357.896069489992 225.5906985010111 L 342.0723349617648 234.27985393532794 L 348.00414123773 242.97546629469753 L 352.4162010866311 255.09750110283568 L 351.0184049204662 266.4608705801455 L 341.4335401884499 269.9494760420673 L 349.9391343202767 286.0088928578995 L 356.2855151276816 280.9321369402485 L 365.9643491217764 277.4093294639941 Z" fill="none" stroke="#ffffff" stroke-width="1"/><path d="M 702.2781054522032 465.35303571706726 L 695.1059134518964 453.2396316305377 L 691.6137099319852 447.3047898130086 L 685.9509393805563 437.70120669855805 L 639.9800648818525 426.36724147834144 L 646.2604815213824 466.346752871376 L 638.495099688137 483.00234662999253 L 644.4607719164133 504.32887365304003 L 671.3408124017045 497.72407058942747 L 692.6193287739002 475.4680533055017 L 702.2781054522032 465.35303571706726 Z" fill="none" stroke="#ffffff" stroke-width="1"/><path d="M 471.128817803974 453.61736541018814 L 483.9330666636696 445.2538267199276 L 499.43492139141097 436.30382671992754 L 501.2217126096914 408.59863989250704 L 472.6514622728097 410.31351472406624 L 442.69460939554966 409.82672350578594 L 471.128817803974 453.61736541018814 Z" fill="none" stroke="#ffffff" stroke-width="1"/><path d="M 82.20504639973336 341.4392611388356 L 49.499985429773744 370.0771059275557 L 93.09449083000618 370.430639167484 L 82.20504639973336 341.4392611388356 Z" fill="none" stroke="#ffffff" stroke-width="1"/><path d="M 189.0627195856842 504.420888477939 L 188.6996994818664 442.3921192139577 L 183.0329699225657 442.7770557044966 L 166.83829487179673 452.1270557044966 L 189.0627195856842 504.420888477939 Z" fill="none" stroke="#ffffff" stroke-width="1"/><path d="M 527.4580513984426 158.83937809944098 L 529.6134045333201 154.21720838555402 L 511.66265365021934 125.98583323780662 L 494.81118551111297 137.98866713471105 L 471.72012249568866 132.84835500238796 L 464.744379540736 145.48499267777515 L 475.66425066480855 151.13952773279382 L 486.14751114542844 156.56797676896252 L 527.4580513984426 158.83937809944098 Z" fill="none" stroke="#ffffff" stroke-width="1"/><path d="M 115.57500427673327 346.9302075188621 L 141.28978157127045 347.2193142227501 L 167.12428657685285 347.53971087617515 L 146.9528794225866 323.5063105046752 L 123.70546139124866 322.8298824772984 L 115.57500427673327 346.9302075188621 Z" fill="none" stroke="#ffffff" stroke-width="1"/><path d="M 699.9369464852864 90.08466164191395 L 675.2290601285746 108.60169033940781 L 657.524160494067 104.44278075491144 L 647.1690644421328 134.4544782369802 L 673.2244780453784 131.5141683955179 L 692.5221602748144 146.15177272722843 L 702.6833461953504 147.04076130325456 L 699.9369464852864 90.08466164191395 Z" fill="none" stroke="#ffffff" stroke-width="1"/><path d="M 197.99715286331895 500.0050845144502 L 197.6991279164248 477.0074502637053 L 243.64873136752283 471.5454046133249 L 234.50449899583737 493.97402504197845 L 236.27571040804008 504.0190641227031 L 197.99715286331895 500.0050845144502 Z" fill="none" stroke="#ffffff" stroke-width="1"/><path d="M 324.52438779953656 442.9680375952131 L 307.5822888817265 431.0074655244826 L 329.4157591313812 429.32236111898044 L 341.06941053875954 420.66631069888075 L 386.4591744889656 442.33384698117584 L 324.63480413225074 437.2893222269745 L 324.52438779953656 442.9680375952131 Z" fill="none" stroke="#ffffff" stroke-width="1"/><path d="M 216.96804358402443 434.41798711523154 L 205.0558404658235 417.60878080229924 L 201.68563165481925 461.2757213016087 L 217.79812471006124 463.1618728185286 L 217.16909069544215 440.13896430964434 L 216.96804358402443 434.41798711523154 Z" fill="none" stroke="#ffffff" stroke-width="1"/><path d="M 311.0473829690913 275.3574552125385 L 313.110591750811 240.98387277597783 L 325.910591750811 218.81362243909618 L 332.38250813753217 264.0039344349576 L 333.2176333059729 288.15745521253854 L 311.0473829690913 275.3574552125385 Z" fill="none" stroke="#ffffff" stroke-width="1"/><path d="M 257.0250505604283 433.16139770449854 L 247.15766579635397 405.64477149564595 L 227.20094592901017 403.992702448553 L 227.59675699263965 422.51548122501924 L 226.80248265564796 437.67755640037734 L 225.89727287744665 454.9573022858383 L 257.0250505604283 433.16139770449854 Z" fill="none" stroke="#ffffff" stroke-width="1"/><path d="M 548.4359578219006 110.49646760763866 L 539.5173508698697 94.2573651067249 L 537.598343873988 86.36006100027458 L 545.0424381181506 89.62126643447007 L 570.6446418591084 91.86116902308484 L 582.5428151833602 91.55208773559139 L 594.3278386041848 86.20376750524943 L 583.3016433330935 123.8861641626246 L 562.1089333332465 129.76145503732926 L 548.4359578219006 110.49646760763866 Z" fill="none" stroke="#ffffff" stroke-width="1"/><path d="M 110.09761876752259 190.39526974015456 L 106.95999241760211 163.84710029500673 L 121.07152436604116 165.01528952119457 L 135.18305631448032 166.18347874738254 L 133.73228356820596 189.38402310389847 L 110.09761876752259 190.39526974015456 Z" fill="none" stroke="#ffffff" stroke-width="1"/><path d="M 59.24728256656812 194.78003677266656 L 46.10914210854327 195.00199466329371 L 35.27481428218982 182.73425890843248 L 43.18181696278208 181.08219698189782 L 51.77794464661315 177.82542114630922 L 56.80046418697543 178.71102685241055 L 77.53898916096091 179.72767915451755 L 79.88732676525245 195.77932425700692 L 59.24728256656812 194.78003677266656 Z" fill="none" stroke="#ffffff" stroke-width="1"/><path d="M 626.9832523934635 429.08461854053405 L 609.8784309297529 427.1160955676979 L 593.6628618386891 427.5907734089051 L 594.8022357486461 438.03068849923557 L 587.7569568581588 448.7891291555414 L 599.7850224042185 444.4112713209728 L 630.7561814070283 446.76016681091596 L 626.9832523934635 429.08461854053405 Z" fill="none" stroke="#ffffff" stroke-width="1"/><path d="M 135.67650013495722 400.2575197163162 L 118.46519959918942 399.7872709869407 L 102.35270654394742 401.67342250386065 L 105.17935551961807 383.363314487567 L 119.33754255140036 371.13401606234754 L 130.93828222546938 365.7245023120666 L 135.5604519393563 363.56914917718905 L 134.1924428408728 372.70307227224885 L 133.79034861803723 384.1450266610742 L 131.323532039028 390.92254950983875 L 135.67650013495722 400.2575197163162 Z" fill="none" stroke="#ffffff" stroke-width="1"/><path d="M 80.55565650266647 405.72472195815976 L 62.236376890805104 387.67813445028696 L 60.212687176365876 379.1652867422296 L 42.917511423091014 389.25869526776404 L 34.44611930559688 405.2241428215176 L 39.23855167160491 406.9684455524786 L 66.78328822564606 406.1392964895994 L 80.55565650266647 405.72472195815976 Z" fill="none" stroke="#ffffff" stroke-width="1"/><path d="M 106.46388459253728 483.3920097574566 L 106.86351803914658 470.5382051413769 L 117.5258618233197 450.90849563569907 L 128.7685277312479 461.54818009197055 L 129.95978330511616 485.7399330288235 L 121.23919134048708 504.22641416989404 L 108.7506278372889 491.1907792329946 L 106.46388459253728 483.3920097574566 Z" fill="none" stroke="#ffffff" stroke-width="1"/><path d="M 212.81046228774247 289.029298310462 L 205.79373272844188 287.07596621078295 L 177.22348239156022 288.79084104234215 L 171.95694151016153 259.268924655621 L 200.61379438742156 257.5040498240618 L 216.1955874561832 269.2925070921817 L 212.81046228774247 289.029298310462 Z" fill="none" stroke="#ffffff" stroke-width="1"/><path d="M 271.60385633818225 282.79449969080895 L 272.3433066855154 254.09287581368613 L 280.89093285559886 235.98381490881013 L 300.9542997839346 254.8745879871933 L 299.518136178911 269.7778572291953 L 302.37020257147907 288.198381578203 L 271.60385633818225 282.79449969080895 Z" fill="none" stroke="#ffffff" stroke-width="1"/><path d="M 355.0132034902559 376.6678640121089 L 348.74990994233053 367.84623412118077 L 314.9717252856214 367.06890452746757 L 314.8580435073824 382.68642918578956 L 316.48967714742014 410.28910607888633 L 330.60120909585925 411.4572953050742 L 338.0585878638984 384.13720193206393 L 355.0132034902559 376.6678640121089 Z" fill="none" stroke="#ffffff" stroke-width="1"/><path d="M 185.39999999999998 395.4 L 177.8 408.3 L 188.0 433.90000000000003 L 152.09999999999997 433.90000000000003 L 154.7 405.7 L 170.10000000000002 395.4 L 185.39999999999998 395.4 Z" fill="none" stroke="#ffffff" stroke-width="1"/><path d="M 118.27794868866596 268.69462629043016 L 119.75235483489325 253.14643904831195 L 94.22317705293244 259.55745158745407 L 95.16358547242783 275.7526864423285 L 103.54162275434913 293.94082794449247 L 117.49764166365827 296.33447290626225 L 118.27794868866596 268.69462629043016 Z" fill="none" stroke="#ffffff" stroke-width="1"/><path d="M 304.47527431679276 69.13772708511522 L 277.67592216760175 67.65222177367389 L 261.3682505208063 47.76772531401514 L 277.6759221676018 38.66084374502546 L 304.82882256516524 33.28683220800772 L 304.47527431679276 69.13772708511522 Z" fill="none" stroke="#ffffff" stroke-width="1"/><path d="M 477.8848869754217 220.43156295198133 L 491.22170324283843 196.17688645755726 L 494.72779650016787 177.8306945768914 L 520.5623015057503 178.15109123031647 L 523.6911926703913 213.91448089181014 L 511.51138028416466 222.70948914856137 L 493.2262853260346 219.08936451366736 L 491.9340414443451 219.20242120382596 L 477.8848869754217 220.43156295198133 Z" fill="none" stroke="#ffffff" stroke-width="1"/><path d="M 163.1004333777671 314.2261439150875 L 134.90043337776706 280.9261439150875 L 127.20043337776713 314.2261439150875 L 163.1004333777671 314.2261439150875 Z" fill="none" stroke="#ffffff" stroke-width="1"/><path d="M 424.1075476528467 124.09844899238186 L 453.0989256814952 105.99651539400622 L 453.45245892142344 62.40200999377382 L 424.1075476528467 95.1070709637334 L 424.1075476528467 124.09844899238186 Z" fill="none" stroke="#ffffff" stroke-width="1"/><path d="M 556.322004416274 217.8484785273293 L 532.2273134552819 218.04889991177362 L 533.4752212320063 202.4808966300167 L 532.9364362824041 166.49090203737927 L 550.9622315096448 195.83150030029105 L 576.4648157807935 193.600313285951 L 574.7573307582259 216.5364091808001 L 556.322004416274 217.8484785273293 Z" fill="none" stroke="#ffffff" stroke-width="1"/><path d="M 198.07419668798548 223.2401109298862 L 173.65228030126434 209.1401109298862 L 177.9890715195446 232.42856819800608 L 175.05413502900575 242.51202731660732 L 182.93403438221492 249.47546026844583 L 195.7425922971255 242.67856819800602 L 198.07419668798548 223.2401109298862 Z" fill="none" stroke="#ffffff" stroke-width="1"/><path d="M 434.8433921463387 401.5420633754895 L 434.8433921463387 376.64206337548944 L 434.8433921463387 357.9420633754895 L 406.6433921463387 365.64206337548944 L 434.8433921463387 401.5420633754895 Z" fill="none" stroke="#ffffff" stroke-width="1"/><path d="M 696.4471981992673 82.79796778683877 L 642.0024280183068 79.75663302714776 L 641.5929631006533 55.6763830607363 L 653.8771164276616 55.11341850293576 L 665.6701108364523 54.57296303109709 L 702.5817888048614 35.88478415897407 L 696.4471981992673 82.79796778683877 Z" fill="none" stroke="#ffffff" stroke-width="1"/><path d="M 514.0252061414993 301.73928701133417 L 518.3111011873303 322.043008435155 L 515.4616952414025 347.9900869943167 L 547.2927802495437 329.7464024102068 L 567.1432918110768 320.2802949342986 L 555.7668929135616 308.4267069490252 L 540.4254945629488 309.7689053873391 L 514.0252061414993 301.73928701133417 Z" fill="none" stroke="#ffffff" stroke-width="1"/><path d="M 239.92427100212444 373.2111020267649 L 239.77780025064487 357.60535533642843 L 247.2471381705999 340.65073971007104 L 266.9842118454161 334.5304519100672 L 268.4349845916905 357.7309962665832 L 267.6630606638281 368.326001384543 L 263.73830938310743 389.83428647156194 L 258.04551867407986 375.4401016738903 L 240.08627976465743 388.7245590600046 L 239.92427100212444 373.2111020267649 Z" fill="none" stroke="#ffffff" stroke-width="1"/><text x="657.0" y="417.0" fill="#ffffff" stroke="rgba(0,0,0,0.5)" stroke-width="1" font-size="12.0" text-anchor="middle" dominant-baseline="middle">32</text><text x="597.0" y="345.0" fill="#ffffff" stroke="rgba(0,0,0,0.5)" stroke-width="1" font-size="12.0" text-anchor="middle" dominant-baseline="middle">44</text><text x="711.0" y="369.0" fill="#ffffff" stroke="rgba(0,0,0,0.5)" stroke-width="1" font-size="12.0" text-anchor="middle" dominant-baseline="middle">11</text><text x="531.0" y="399.0" fill="#ffffff" stroke="rgba(0,0,0,0.5)" stroke-width="1" font-size="12.0" text-anchor="middle" dominant-baseline="middle">48</text><text x="501.0" y="447.0" fill="#ffffff" stroke="rgba(0,0,0,0.5)" stroke-width="1" font-size="12.0" text-anchor="middle" dominant-baseline="middle">19</text><text x="639.0" y="189.0" fill="#ffffff" stroke="rgba(0,0,0,0.5)" stroke-width="1" font-size="12.0" text-anchor="middle" dominant-baseline="middle">42</text><text x="597.0" y="75.0" fill="#ffffff" stroke="rgba(0,0,0,0.5)" stroke-width="1" font-size="12.0" text-anchor="middle" dominant-baseline="middle">81</text><text x="711.0" y="57.0" fill="#ffffff" stroke="rgba(0,0,0,0.5)" stroke-width="1" font-size="12.0" text-anchor="middle" dominant-baseline="middle">25</text><text x="597.0" y="267.0" fill="#ffffff" stroke="rgba(0,0,0,0.5)" stroke-width="1" font-size="12.0" text-anchor="middle" dominant-baseline="middle">99</text><text x="405.0" y="483.0" fill="#ffffff" stroke="rgba(0,0,0,0.5)" stroke-width="1" font-size="12.0" text-anchor="middle" dominant-baseline="middle">65</text><text x="597.0" y="507.0" fill="#ffffff" stroke="rgba(0,0,0,0.5)" stroke-width="1" font-size="12.0" text-anchor="middle" dominant-baseline="middle">35</text><text x="633.0" y="135.0" fill="#ffffff" stroke="rgba(0,0,0,0.5)" stroke-width="1" font-size="12.0" text-anchor="middle" dominant-baseline="middle">83</text><text x="711.0" y="117.0" fill="#ffffff" stroke="rgba(0,0,0,0.5)" stroke-width="1" font-size="12.0" text-anchor="middle" dominant-baseline="middle">91</text><text x="465.0" y="297.0" fill="#ffffff" stroke="rgba(0,0,0,0.5)" stroke-width="1" font-size="12.0" text-anchor="middle" dominant-baseline="middle">94</text><text x="483.0" y="399.0" fill="#ffffff" stroke="rgba(0,0,0,0.5)" stroke-width="1" font-size="12.0" text-anchor="middle" dominant-baseline="middle">93</text><text x="567.0" y="273.0" fill="#ffffff" stroke="rgba(0,0,0,0.5)" stroke-width="1" font-size="12.0" text-anchor="middle" dominant-baseline="middle">60</text><text x="711.0" y="225.0" fill="#ffffff" stroke="rgba(0,0,0,0.5)" stroke-width="1" font-size="12.0" text-anchor="middle" dominant-baseline="middle">69</text><text x="573.0" y="75.0" fill="#ffffff" stroke="rgba(0,0,0,0.5)" stroke-width="1" font-size="12.0" text-anchor="middle" dominant-baseline="middle">39</text><text x="507.0" y="165.0" fill="#ffffff" stroke="rgba(0,0,0,0.5)" stroke-width="1" font-size="12.0" text-anchor="middle" dominant-baseline="middle">4</text><text x="567.0" y="45.0" fill="#ffffff" stroke="rgba(0,0,0,0.5)" stroke-width="1" font-size="12.0" text-anchor="middle" dominant-baseline="middle">87</text><text x="513.0" y="75.0" fill="#ffffff" stroke="rgba(0,0,0,0.5)" stroke-width="1" font-size="12.0" text-anchor="middle" dominant-baseline="middle">51</text><text x="405.0" y="381.0" fill="#ffffff" stroke="rgba(0,0,0,0.5)" stroke-width="1" font-size="12.0" text-anchor="middle" dominant-baseline="middle">2</text><text x="411.0" y="405.0" fill="#ffffff" stroke="rgba(0,0,0,0.5)" stroke-width="1" font-size="12.0" text-anchor="middle" dominant-baseline="middle">86</text><text x="375.0" y="165.0" fill="#ffffff" stroke="rgba(0,0,0,0.5)" stroke-width="1" font-size="12.0" text-anchor="middle" dominant-baseline="middle">57</text><text x="435.0" y="207.0" fill="#ffffff" stroke="rgba(0,0,0,0.5)" stroke-width="1" font-size="12.0" text-anchor="middle" dominant-baseline="middle">13</text><text x="495.0" y="129.0" fill="#ffffff" stroke="rgba(0,0,0,0.5)" stroke-width="1" font-size="12.0" text-anchor="middle" dominant-baseline="middle">12</text><text x="525.0" y="351.0" fill="#ffffff" stroke="rgba(0,0,0,0.5)" stroke-width="1" font-size="12.0" text-anchor="middle" dominant-baseline="middle">28</text><text x="405.0" y="75.0" fill="#ffffff" stroke="rgba(0,0,0,0.5)" stroke-width="1" font-size="12.0" text-anchor="middle" dominant-baseline="middle">8</text><text x="225.0" y="321.0" fill="#ffffff" stroke="rgba(0,0,0,0.5)" stroke-width="1" font-size="12.0" text-anchor="middle" dominant-baseline="middle">23</text><text x="543.0" y="165.0" fill="#ffffff" stroke="rgba(0,0,0,0.5)" stroke-width="1" font-size="12.0" text-anchor="middle" dominant-baseline="middle">36</text><text x="663.0" y="279.0" fill="#ffffff" stroke="rgba(0,0,0,0.5)" stroke-width="1" font-size="12.0" text-anchor="middle" dominant-baseline="middle">74</text><text x="489.0" y="27.0" fill="#ffffff" stroke="rgba(0,0,0,0.5)" stroke-width="1" font-size="12.0" text-anchor="middle" dominant-baseline="middle">67</text><text x="237.0" y="345.0" fill="#ffffff" stroke="rgba(0,0,0,0.5)" stroke-width="1" font-size="12.0" text-anchor="middle" dominant-baseline="middle">55</text><text x="279.0" y="291.0" fill="#ffffff" stroke="rgba(0,0,0,0.5)" stroke-width="1" font-size="12.0" text-anchor="middle" dominant-baseline="middle">5</text><text x="279.0" y="387.0" fill="#ffffff" stroke="rgba(0,0,0,0.5)" stroke-width="1" font-size="12.0" text-anchor="middle" dominant-baseline="middle">73</text><text x="207.0" y="393.0" fill="#ffffff" stroke="rgba(0,0,0,0.5)" stroke-width="1" font-size="12.0" text-anchor="middle" dominant-baseline="middle">88</text><text x="165.0" y="267.0" fill="#ffffff" stroke="rgba(0,0,0,0.5)" stroke-width="1" font-size="12.0" text-anchor="middle" dominant-baseline="middle">96</text><text x="315.0" y="57.0" fill="#ffffff" stroke="rgba(0,0,0,0.5)" stroke-width="1" font-size="12.0" text-anchor="middle" dominant-baseline="middle">22</text><text x="225.0" y="465.0" fill="#ffffff" stroke="rgba(0,0,0,0.5)" stroke-width="1" font-size="12.0" text-anchor="middle" dominant-baseline="middle">31</text><text x="351.0" y="387.0" fill="#ffffff" stroke="rgba(0,0,0,0.5)" stroke-width="1" font-size="12.0" text-anchor="middle" dominant-baseline="middle">10</text><text x="507.0" y="267.0" fill="#ffffff" stroke="rgba(0,0,0,0.5)" stroke-width="1" font-size="12.0" text-anchor="middle" dominant-baseline="middle">6</text><text x="435.0" y="69.0" fill="#ffffff" stroke="rgba(0,0,0,0.5)" stroke-width="1" font-size="12.0" text-anchor="middle" dominant-baseline="middle">85</text><text x="435.0" y="129.0" fill="#ffffff" stroke="rgba(0,0,0,0.5)" stroke-width="1" font-size="12.0" text-anchor="middle" dominant-baseline="middle">37</text><text x="195.0" y="297.0" fill="#ffffff" stroke="rgba(0,0,0,0.5)" stroke-width="1" font-size="12.0" text-anchor="middle" dominant-baseline="middle">53</text><text x="477.0" y="249.0" fill="#ffffff" stroke="rgba(0,0,0,0.5)" stroke-width="1" font-size="12.0" text-anchor="middle" dominant-baseline="middle">70</text><text x="147.0" y="405.0" fill="#ffffff" stroke="rgba(0,0,0,0.5)" stroke-width="1" font-size="12.0" text-anchor="middle" dominant-baseline="middle">64</text><text x="345.0" y="333.0" fill="#ffffff" stroke="rgba(0,0,0,0.5)" stroke-width="1" font-size="12.0" text-anchor="middle" dominant-baseline="middle">45</text><text x="243.0" y="399.0" fill="#ffffff" stroke="rgba(0,0,0,0.5)" stroke-width="1" font-size="12.0" text-anchor="middle" dominant-baseline="middle">90</text><text x="357.0" y="219.0" fill="#ffffff" stroke="rgba(0,0,0,0.5)" stroke-width="1" font-size="12.0" text-anchor="middle" dominant-baseline="middle">61</text><text x="57.0" y="513.0" fill="#ffffff" stroke="rgba(0,0,0,0.5)" stroke-width="1" font-size="12.0" text-anchor="middle" dominant-baseline="middle">80</text><text x="351.0" y="477.0" fill="#ffffff" stroke="rgba(0,0,0,0.5)" stroke-width="1" font-size="12.0" text-anchor="middle" dominant-baseline="middle">14</text><text x="315.0" y="219.0" fill="#ffffff" stroke="rgba(0,0,0,0.5)" stroke-width="1" font-size="12.0" text-anchor="middle" dominant-baseline="middle">9</text><text x="297.0" y="297.0" fill="#ffffff" stroke="rgba(0,0,0,0.5)" stroke-width="1" font-size="12.0" text-anchor="middle" dominant-baseline="middle">38</text><text x="333.0" y="195.0" fill="#ffffff" stroke="rgba(0,0,0,0.5)" stroke-width="1" font-size="12.0" text-anchor="middle" dominant-baseline="middle">92</text><text x="303.0" y="135.0" fill="#ffffff" stroke="rgba(0,0,0,0.5)" stroke-width="1" font-size="12.0" text-anchor="middle" dominant-baseline="middle">79</text><text x="477.0" y="351.0" fill="#ffffff" stroke="rgba(0,0,0,0.5)" stroke-width="1" font-size="12.0" text-anchor="middle" dominant-baseline="middle">62</text><text x="417.0" y="165.0" fill="#ffffff" stroke="rgba(0,0,0,0.5)" stroke-width="1" font-size="12.0" text-anchor="middle" dominant-baseline="middle">56</text><text x="411.0" y="63.0" fill="#ffffff" stroke="rgba(0,0,0,0.5)" stroke-width="1" font-size="12.0" text-anchor="middle" dominant-baseline="middle">1</text><text x="345.0" y="99.0" fill="#ffffff" stroke="rgba(0,0,0,0.5)" stroke-width="1" font-size="12.0" text-anchor="middle" dominant-baseline="middle">75</text><text x="225.0" y="117.0" fill="#ffffff" stroke="rgba(0,0,0,0.5)" stroke-width="1" font-size="12.0" text-anchor="middle" dominant-baseline="middle">18</text><text x="393.0" y="477.0" fill="#ffffff" stroke="rgba(0,0,0,0.5)" stroke-width="1" font-size="12.0" text-anchor="middle" dominant-baseline="middle">63</text><text x="159.0" y="321.0" fill="#ffffff" stroke="rgba(0,0,0,0.5)" stroke-width="1" font-size="12.0" text-anchor="middle" dominant-baseline="middle">26</text><text x="87.0" y="429.0" fill="#ffffff" stroke="rgba(0,0,0,0.5)" stroke-width="1" font-size="12.0" text-anchor="middle" dominant-baseline="middle">66</text><text x="327.0" y="117.0" fill="#ffffff" stroke="rgba(0,0,0,0.5)" stroke-width="1" font-size="12.0" text-anchor="middle" dominant-baseline="middle">27</text><text x="273.0" y="495.0" fill="#ffffff" stroke="rgba(0,0,0,0.5)" stroke-width="1" font-size="12.0" text-anchor="middle" dominant-baseline="middle">89</text><text x="387.0" y="291.0" fill="#ffffff" stroke="rgba(0,0,0,0.5)" stroke-width="1" font-size="12.0" text-anchor="middle" dominant-baseline="middle">97</text><text x="105.0" y="459.0" fill="#ffffff" stroke="rgba(0,0,0,0.5)" stroke-width="1" font-size="12.0" text-anchor="middle" dominant-baseline="middle">95</text><text x="279.0" y="75.0" fill="#ffffff" stroke="rgba(0,0,0,0.5)" stroke-width="1" font-size="12.0" text-anchor="middle" dominant-baseline="middle">72</text><text x="237.0" y="249.0" fill="#ffffff" stroke="rgba(0,0,0,0.5)" stroke-width="1" font-size="12.0" text-anchor="middle" dominant-baseline="middle">59</text><text x="177.0" y="345.0" fill="#ffffff" stroke="rgba(0,0,0,0.5)" stroke-width="1" font-size="12.0" text-anchor="middle" dominant-baseline="middle">34</text><text x="237.0" y="39.0" fill="#ffffff" stroke="rgba(0,0,0,0.5)" stroke-width="1" font-size="12.0" text-anchor="middle" dominant-baseline="middle">24</text><text x="105.0" y="369.0" fill="#ffffff" stroke="rgba(0,0,0,0.5)" stroke-width="1" font-size="12.0" text-anchor="middle" dominant-baseline="middle">68</text><text x="105.0" y="249.0" fill="#ffffff" stroke="rgba(0,0,0,0.5)" stroke-width="1" font-size="12.0" text-anchor="middle" dominant-baseline="middle">54</text><text x="135.0" y="225.0" fill="#ffffff" stroke="rgba(0,0,0,0.5)" stroke-width="1" font-size="12.0" text-anchor="middle" dominant-baseline="middle">29</text><text x="27.0" y="315.0" fill="#ffffff" stroke="rgba(0,0,0,0.5)" stroke-width="1" font-size="12.0" text-anchor="middle" dominant-baseline="middle">76</text><text x="57.0" y="237.0" fill="#ffffff" stroke="rgba(0,0,0,0.5)" stroke-width="1" font-size="12.0" text-anchor="middle" dominant-baseline="middle">41</text><text x="555.0" y="369.0" fill="#ffffff" stroke="rgba(0,0,0,0.5)" stroke-width="1" font-size="12.0" text-anchor="middle" dominant-baseline="middle">30</text><text x="357.0" y="315.0" fill="#ffffff" stroke="rgba(0,0,0,0.5)" stroke-width="1" font-size="12.0" text-anchor="middle" dominant-baseline="middle">98</text><text x="273.0" y="201.0" fill="#ffffff" stroke="rgba(0,0,0,0.5)" stroke-width="1" font-size="12.0" text-anchor="middle" dominant-baseline="middle">3</text><text x="441.0" y="315.0" fill="#ffffff" stroke="rgba(0,0,0,0.5)" stroke-width="1" font-size="12.0" text-anchor="middle" dominant-baseline="middle">17</text><text x="351.0" y="417.0" fill="#ffffff" stroke="rgba(0,0,0,0.5)" stroke-width="1" font-size="12.0" text-anchor="middle" dominant-baseline="middle">15</text><text x="165.0" y="471.0" fill="#ffffff" stroke="rgba(0,0,0,0.5)" stroke-width="1" font-size="12.0" text-anchor="middle" dominant-baseline="middle">71</text><text x="99.0" y="189.0" fill="#ffffff" stroke="rgba(0,0,0,0.5)" stroke-width="1" font-size="12.0" text-anchor="middle" dominant-baseline="middle">49</text><text x="27.0" y="399.0" fill="#ffffff" stroke="rgba(0,0,0,0.5)" stroke-width="1" font-size="12.0" text-anchor="middle" dominant-baseline="middle">46</text><text x="87.0" y="513.0" fill="#ffffff" stroke="rgba(0,0,0,0.5)" stroke-width="1" font-size="12.0" text-anchor="middle" dominant-baseline="middle">84</text><text x="99.0" y="177.0" fill="#ffffff" stroke="rgba(0,0,0,0.5)" stroke-width="1" font-size="12.0" text-anchor="middle" dominant-baseline="middle">33</text><text x="615.0" y="417.0" fill="#ffffff" stroke="rgba(0,0,0,0.5)" stroke-width="1" font-size="12.0" text-anchor="middle" dominant-baseline="middle">52</text><text x="69.0" y="339.0" fill="#ffffff" stroke="rgba(0,0,0,0.5)" stroke-width="1" font-size="12.0" text-anchor="middle" dominant-baseline="middle">77</text><text x="39.0" y="213.0" fill="#ffffff" stroke="rgba(0,0,0,0.5)" stroke-width="1" font-size="12.0" text-anchor="middle" dominant-baseline="middle">20</text><text x="441.0" y="375.0" fill="#ffffff" stroke="rgba(0,0,0,0.5)" stroke-width="1" font-size="12.0" text-anchor="middle" dominant-baseline="middle">82</text><text x="177.0" y="195.0" fill="#ffffff" stroke="rgba(0,0,0,0.5)" stroke-width="1" font-size="12.0" text-anchor="middle" dominant-baseline="middle">40</text><text x="87.0" y="423.0" fill="#ffffff" stroke="rgba(0,0,0,0.5)" stroke-width="1" font-size="12.0" text-anchor="middle" dominant-baseline="middle">47</text><text x="57.0" y="165.0" fill="#ffffff" stroke="rgba(0,0,0,0.5)" stroke-width="1" font-size="12.0" text-anchor="middle" dominant-baseline="middle">50</text><text x="153.0" y="285.0" fill="#ffffff" stroke="rgba(0,0,0,0.5)" stroke-width="1" font-size="12.0" text-anchor="middle" dominant-baseline="middle">21</text><text x="231.0" y="207.0" fill="#ffffff" stroke="rgba(0,0,0,0.5)" stroke-width="1" font-size="12.0" text-anchor="middle" dominant-baseline="middle">43</text><text x="87.0" y="297.0" fill="#ffffff" stroke="rgba(0,0,0,0.5)" stroke-width="1" font-size="12.0" text-anchor="middle" dominant-baseline="middle">58</text><text x="135.0" y="219.0" fill="#ffffff" stroke="rgba(0,0,0,0.5)" stroke-width="1" font-size="12.0" text-anchor="middle" dominant-baseline="middle">7</text><text x="195.0" y="435.0" fill="#ffffff" stroke="rgba(0,0,0,0.5)" stroke-width="1" font-size="12.0" text-anchor="middle" dominant-baseline="middle">78</text><text x="165.0" y="477.0" fill="#ffffff" stroke="rgba(0,0,0,0.5)" stroke-width="1" font-size="12.0" text-anchor="middle" dominant-baseline="middle">16</text></svg>