<svg xmlns="http://www.w3.org/2000/svg" width="260.0mm" height="190.0mm" viewBox="0 0 737 539"><path d="M 169.2 461.5 L 174.4 461.5 L 197.4 461.5 L 192.29999999999998 448.59999999999997 L 156.40000000000003 438.4 L 143.6 430.7 L 143.6 435.8 L 143.6 440.9 L 148.70000000000002 451.2 L 153.9 458.8999999999999 L 159.0 461.5 L 169.2 461.5 Z" fill="none" stroke="#ffffff" stroke-width="1"/><path d="M 153.9 420.3999999999999 L 156.4 412.7 L 179.5 399.9 L 171.79999999999998 415.30000000000007 L 192.3 448.6 L 156.4 438.40000000000003 L 143.6 430.7 L 153.9 420.3999999999999 Z" fill="none" stroke="#ffffff" stroke-width="1"/><path d="M 171.79999999999998 415.3 L 179.5 399.9 L 205.09999999999994 392.1999999999999 L 202.6 407.59999999999997 L 194.9 423.0 L 192.3 448.6 L 171.79999999999998 415.3 Z" fill="none" stroke="#ffffff" stroke-width="1"/><path d="M 205.1 369.09999999999997 L 205.09999999999994 392.1999999999999 L 202.6 407.6 L 215.4 392.2 L 223.1 379.40000000000003 L 238.5 366.59999999999997 L 220.5 364.0 L 205.1 369.09999999999997 Z" fill="none" stroke="#ffffff" stroke-width="1"/><path d="M 205.1 369.09999999999997 L 205.09999999999994 392.1999999999999 L 179.5 399.90000000000003 L 156.4 412.7 L 176.9 384.5 L 189.79999999999998 361.5 L 205.1 369.09999999999997 Z" fill="none" stroke="#ffffff" stroke-width="1"/><path d="M 205.1 369.09999999999997 L 220.5 364.0 L 238.5 366.59999999999997 L 251.3 356.3 L 256.40000000000003 343.5 L 230.8 325.6 L 212.80000000000004 333.1999999999999 L 197.4 320.4 L 202.6 335.8 L 207.70000000000002 346.09999999999997 L 189.79999999999998 361.5 L 205.1 369.09999999999997 Z" fill="none" stroke="#ffffff" stroke-width="1"/><path d="M 189.79999999999998 361.5 L 207.7 346.1 L 202.6 335.8 L 197.4 320.40000000000003 L 202.6 315.3 L 179.5 299.90000000000003 L 179.5 328.1 L 179.5 335.8 L 189.79999999999998 361.5 Z" fill="none" stroke="#ffffff" stroke-width="1"/><path d="M 143.6 353.8 L 146.20000000000002 343.5 L 146.2 335.8 L 146.20000000000002 328.09999999999997 L 146.2 320.4 L 148.7 320.4 L 148.70000000000002 335.8 L 148.70000000000002 353.80000000000007 L 146.2 364.0 L 141.0 369.1 L 143.6 361.5 L 143.6 353.8 Z" fill="none" stroke="#ffffff" stroke-width="1"/><path d="M 238.5 366.59999999999997 L 244.9 380.7 L 251.3 394.8 L 269.2 412.6999999999999 L 279.5 407.59999999999997 L 289.8 410.2 L 282.09999999999997 382.0 L 265.4872212634927 373.67205529049505 L 256.40000000000003 369.09999999999997 L 251.3 356.3 L 238.5 366.59999999999997 Z" fill="none" stroke="#ffffff" stroke-width="1"/><path d="M 253.9 417.8999999999999 L 261.59999999999997 438.40000000000003 L 287.2 430.6999999999999 L 300.0 435.8 L 294.90000000000003 425.59999999999997 L 289.8 410.2 L 279.5 407.59999999999997 L 269.2 412.6999999999999 L 251.3 394.8 L 253.9 417.8999999999999 Z" fill="none" stroke="#ffffff" stroke-width="1"/><path d="M 279.5 448.59999999999997 L 282.1 461.5 L 310.3 461.5 L 323.1 461.5 L 318.0408652669408 453.8668448172485 L 300.0 435.8 L 287.2 430.6999999999999 L 279.5 448.59999999999997 Z" fill="none" stroke="#ffffff" stroke-width="1"/><path d="M 279.5 448.59999999999997 L 282.1 461.5 L 269.2 461.5 L 253.9 461.5 L 261.59999999999997 438.40000000000003 L 287.2 430.6999999999999 L 279.5 448.59999999999997 Z" fill="none" stroke="#ffffff" stroke-width="1"/><path d="M 251.3 356.3 L 256.40000000000003 343.5 L 261.6 325.6 L 276.9 325.6 L 284.59999999999997 333.2 L 282.1 348.6000000000001 L 282.1 358.8999999999999 L 282.1 382.0 L 265.4872212634927 373.67205529049505 L 256.40000000000003 369.09999999999997 L 251.3 356.3 Z" fill="none" stroke="#ffffff" stroke-width="1"/><path d="M 364.09999999999997 266.59999999999997 L 382.09999999999997 251.20000000000002 L 392.9996680335871 249.52047126212332 L 392.6999999999999 268.0 L 382.09999999999997 305.0 L 369.3 294.8 L 356.40000000000003 297.3 L 364.09999999999997 266.59999999999997 Z" fill="none" stroke="#ffffff" stroke-width="1"/><path d="M 259.0 271.7 L 259.0 287.09999999999997 L 294.90000000000003 287.09999999999997 L 292.3 264.0 L 264.1 248.6 L 259.0 271.7 Z" fill="none" stroke="#ffffff" stroke-width="1"/><path d="M 259.0 271.7 L 259.0 287.09999999999997 L 243.6 299.90000000000003 L 215.4 289.7 L 230.79999999999998 264.0 L 259.0 271.7 Z" fill="none" stroke="#ffffff" stroke-width="1"/><path d="M 179.5 228.1 L 184.6 233.2 L 233.29999999999998 238.40000000000006 L 220.5 205.0 L 200.0 179.4 L 186.44238334136455 184.8312662965159 L 184.71999999999997 176.68 L 174.4 189.6 L 166.7 199.9 L 164.1 205.0 L 153.9 225.5 L 164.1 217.9 L 179.5 228.1 Z" fill="none" stroke="#ffffff" stroke-width="1"/><path d="M 184.6 233.20000000000002 L 233.29999999999998 238.40000000000006 L 230.79999999999998 264.0 L 178.6590874585481 266.72942586599544 L 176.90000000000006 235.79999999999998 L 179.5 228.1 L 184.6 233.20000000000002 Z" fill="none" stroke="#ffffff" stroke-width="1"/><path d="M 146.20000000000002 310.2 L 146.2 320.4 L 148.7 320.4 L 151.29999999999998 307.59999999999997 L 151.3 294.8 L 156.4 282.0 L 164.1 258.9 L 166.70000000000002 246.09999999999997 L 179.5 282.0 L 178.6590874585481 266.72942586599544 L 176.90000000000006 235.79999999999998 L 179.5 228.1 L 164.1 217.9 L 153.9 225.5 L 151.3 235.8 L 148.70000000000002 261.40000000000003 L 146.2 276.8 L 146.20000000000002 294.8 L 146.2 307.6 L 146.20000000000002 310.2 Z" fill="none" stroke="#ffffff" stroke-width="1"/><path d="M 200.0 161.4 L 218.0 143.5 L 230.7911536471715 152.43262908316518 L 256.40000000000003 158.70000000000002 L 246.20000000000002 182.0 L 220.5 194.3 L 200.0 179.4 L 186.44238334136455 184.8312662965159 L 184.71999999999997 176.68 L 200.0 161.4 Z" fill="none" stroke="#ffffff" stroke-width="1"/><path d="M 233.29999999999998 238.40000000000006 L 251.29999999999998 225.5 L 256.4 243.5 L 259.0 271.7 L 230.79999999999998 264.0 L 233.29999999999998 238.40000000000006 Z" fill="none" stroke="#ffffff" stroke-width="1"/><path d="M 233.29999999999998 238.40000000000006 L 251.29999999999998 225.5 L 226.199585484692 199.89959275689043 L 246.20000000000002 182.0 L 220.5 194.29999999999998 L 200.0 179.4 L 220.5 205.0 L 233.29999999999998 238.40000000000006 Z" fill="none" stroke="#ffffff" stroke-width="1"/><path d="M 251.29999999999998 225.5 L 256.40000000000003 243.5 L 259.0 271.7 L 264.09999999999997 248.59999999999997 L 292.3 264.0 L 284.59999999999997 230.70000000000002 L 266.7 225.5 L 265.40281995661604 225.5 L 251.29999999999998 225.5 Z" fill="none" stroke="#ffffff" stroke-width="1"/><path d="M 256.40000000000003 130.70000000000002 L 261.6 123.0 L 235.90000000000003 130.58 L 218.0 143.5 L 230.7911536471715 152.4326290831652 L 256.40000000000003 158.70000000000002 L 256.40000000000003 130.70000000000002 Z" fill="none" stroke="#ffffff" stroke-width="1"/><path d="M 256.40000000000003 130.70000000000002 L 261.6 123.0 L 276.67449589696486 120.27616013621845 L 294.8714285714286 117.29289198606273 L 294.90000000000003 135.79999999999998 L 284.65757769472856 138.38862116443747 L 279.5 161.4 L 256.40000000000003 158.70000000000002 L 256.40000000000003 130.70000000000002 Z" fill="none" stroke="#ffffff" stroke-width="1"/><path d="M 279.5 161.4 L 284.65757769472856 138.38862116443747 L 294.90000000000003 135.79999999999998 L 294.8714285714286 117.29289198606273 L 315.3 125.0 L 333.4 133.2 L 318.0 166.6 L 297.5 187.1 L 279.5 161.4 Z" fill="none" stroke="#ffffff" stroke-width="1"/><path d="M 284.59999999999997 230.70000000000002 L 292.3 264.0 L 315.40000000000003 258.90000000000003 L 333.40000000000003 225.5 L 297.5 223.0 L 284.59999999999997 230.70000000000002 Z" fill="none" stroke="#ffffff" stroke-width="1"/><path d="M 297.5 223.0 L 333.40000000000003 225.5 L 348.1386262977711 215.19447614335533 L 359.0 207.6 L 330.8 194.79999999999998 L 297.5 223.0 Z" fill="none" stroke="#ffffff" stroke-width="1"/><path d="M 328.2 264.0 L 359.0 258.9 L 341.0 279.40000000000003 L 335.90000000000003 299.90000000000003 L 323.09999999999997 284.5 L 315.40000000000003 258.90000000000003 L 328.2 264.0 Z" fill="none" stroke="#ffffff" stroke-width="1"/><path d="M 341.0 279.40000000000003 L 359.0 258.9 L 382.09999999999997 251.20000000000002 L 364.09999999999997 266.59999999999997 L 356.40000000000003 297.3 L 335.90000000000003 299.90000000000003 L 341.0 279.40000000000003 Z" fill="none" stroke="#ffffff" stroke-width="1"/><path d="M 328.2 264.0 L 359.0 258.9 L 333.40000000000003 225.5 L 315.40000000000003 258.90000000000003 L 328.2 264.0 Z" fill="none" stroke="#ffffff" stroke-width="1"/><path d="M 359.0 258.90000000000003 L 382.09999999999997 251.20000000000002 L 392.9996680335871 249.52047126212332 L 394.90000000000003 225.5 L 356.90000000000003 225.5 L 367.5527595063584 211.86446783186116 L 376.90000000000003 199.9 L 359.0 207.6 L 348.1386262977711 215.19447614335533 L 333.40000000000003 225.5 L 359.0 258.90000000000003 Z" fill="none" stroke="#ffffff" stroke-width="1"/><path d="M 361.8759561423061 164.22401536035025 L 374.4 133.2 L 353.90000000000003 133.20000000000002 L 333.4 133.2 L 318.0 166.6 L 361.8759561423061 164.22401536035025 Z" fill="none" stroke="#ffffff" stroke-width="1"/><path d="M 361.87595614230617 164.22401536035025 L 374.40000000000003 133.20000000000002 L 387.2 128.1 L 397.5 148.6 L 387.2 184.5 L 376.90000000000003 199.9 L 359.0 207.6 L 361.87595614230617 164.22401536035025 Z" fill="none" stroke="#ffffff" stroke-width="1"/><path d="M 387.2 128.1 L 397.5 148.6 L 413.3167414050822 148.5914964291646 L 425.6999999999999 120.39999999999999 L 448.7 105.0 L 387.2 128.1 Z" fill="none" stroke="#ffffff" stroke-width="1"/><path d="M 416.8995097917853 195.902391621896 L 428.1999999999999 194.79999999999998 L 410.3000000000001 228.09999999999994 L 394.90000000000003 225.5 L 402.59999999999997 197.29999999999998 L 413.9 178.4 L 419.0 185.0 L 416.8995097917853 195.902391621896 Z" fill="none" stroke="#ffffff" stroke-width="1"/><path d="M 416.8995097917853 195.902391621896 L 428.1999999999999 194.79999999999998 L 410.3000000000001 228.09999999999994 L 446.2 230.7 L 471.80000000000007 230.70000000000002 L 479.5749359465736 176.72747839682876 L 432.5 181.8 L 419.0 185.0 L 416.8995097917853 195.902391621896 Z" fill="none" stroke="#ffffff" stroke-width="1"/><path d="M 402.59999999999997 197.29999999999998 L 413.90000000000003 178.40000000000003 L 419.0 185.0 L 432.5 181.8 L 423.89411742637407 174.71236540986683 L 418.58268409938455 170.32984229680554 L 407.6999999999999 161.40000000000003 L 413.3167414050822 148.5914964291646 L 397.5 148.6 L 387.2 184.5 L 402.59999999999997 197.29999999999998 Z" fill="none" stroke="#ffffff" stroke-width="1"/><path d="M 430.8000000000001 343.5 L 438.5 312.7 L 453.90000000000003 315.3 L 446.2 333.2 L 459.0 353.8000000000001 L 459.0 361.5 L 441.09999999999997 343.5 L 430.8000000000001 343.5 Z" fill="none" stroke="#ffffff" stroke-width="1"/><path d="M 430.80000000000007 343.5 L 441.1 343.5 L 435.8999999999999 346.1000000000001 L 428.2 376.8 L 405.2 384.5 L 389.8000000000001 361.5 L 412.8 340.9 L 430.80000000000007 343.5 Z" fill="none" stroke="#ffffff" stroke-width="1"/><path d="M 405.19999999999993 384.5 L 428.2 376.8 L 423.09023205424853 394.7943793384782 L 418.0 412.7 L 417.78236983723457 391.72337482254284 L 400.0 415.3000000000001 L 387.2 407.59999999999997 L 382.9304487153219 400.25240011474 L 389.8000000000001 361.5 L 405.19999999999993 384.5 Z" fill="none" stroke="#ffffff" stroke-width="1"/><path d="M 400.0 415.30000000000007 L 417.7823698372346 391.72337482254284 L 418.0 412.7 L 410.3 433.3 L 399.99409050493705 431.20943984276283 L 384.59999999999997 428.09999999999997 L 376.8999999999999 433.3 L 382.09999999999997 405.0 L 382.9304487153219 400.25240011474 L 387.2 407.59999999999997 L 400.0 415.30000000000007 Z" fill="none" stroke="#ffffff" stroke-width="1"/><path d="M 366.69999999999993 451.19999999999993 L 376.8999999999999 433.3 L 384.59999999999997 428.09999999999997 L 399.99409050493705 431.20943984276283 L 392.3000000000001 443.5 L 400.0 461.5 L 384.59999999999997 461.5 L 376.9 461.5 L 366.7 458.9 L 366.69999999999993 451.19999999999993 Z" fill="none" stroke="#ffffff" stroke-width="1"/><path d="M 446.2 333.2 L 453.90000000000003 315.3 L 492.71999999999997 283.32 L 500.0 328.1 L 484.59999999999997 333.2 L 446.2 333.2 Z" fill="none" stroke="#ffffff" stroke-width="1"/><path d="M 438.5 312.7 L 453.90000000000003 315.3 L 460.8 258.9 L 435.90000000000003 258.90000000000003 L 415.40000000000003 271.7 L 412.8 317.90000000000003 L 438.5 312.7 Z" fill="none" stroke="#ffffff" stroke-width="1"/><path d="M 446.2 333.2 L 484.59999999999997 333.2 L 494.9 353.8 L 497.5 358.90000000000003 L 479.5 366.6 L 459.0 361.5 L 459.0 353.8000000000001 L 446.2 333.2 Z" fill="none" stroke="#ffffff" stroke-width="1"/><path d="M 459.0 361.5 L 479.5 366.59999999999997 L 497.5 358.90000000000003 L 502.59999999999997 374.3000000000001 L 497.5 397.40000000000003 L 484.6 394.8 L 479.5 387.1 L 459.0 361.5 Z" fill="none" stroke="#ffffff" stroke-width="1"/><path d="M 515.3999999999997 425.6 L 523.1 410.2 L 520.5 382.0 L 515.4 369.1 L 497.5 358.90000000000003 L 502.59999999999997 374.3000000000001 L 497.5 397.40000000000003 L 506.4143182775719 411.4700433199737 L 515.3999999999997 425.6 Z" fill="none" stroke="#ffffff" stroke-width="1"/><path d="M 515.3999999999997 425.6000000000001 L 523.1 410.2 L 520.5 420.3999999999999 L 520.5 438.3999999999999 L 525.6999999999999 451.2 L 530.8 461.5 L 510.3 461.5 L 497.5 461.5 L 515.3999999999999 446.1 L 492.3000000000001 438.40000000000003 L 498.49701906643287 428.39887021951927 L 502.4113227384851 422.0699947430143 L 506.4143182775719 411.4700433199737 L 515.3999999999997 425.6000000000001 Z" fill="none" stroke="#ffffff" stroke-width="1"/><path d="M 484.6 394.8 L 497.5 397.40000000000003 L 506.4143182775719 411.4700433199737 L 502.4113227384851 422.0699947430143 L 498.49701906643287 428.39887021951927 L 484.6 430.7 L 487.19999999999993 417.9 L 484.6 394.8 Z" fill="none" stroke="#ffffff" stroke-width="1"/><path d="M 492.30000000000007 438.4 L 515.4 446.09999999999997 L 497.5 461.5 L 494.9 461.5 L 482.09999999999997 456.3 L 474.3999999999999 451.2 L 484.6 430.7 L 498.49701906643287 428.39887021951927 L 492.30000000000007 438.4 Z" fill="none" stroke="#ffffff" stroke-width="1"/><path d="M 497.5 248.6 L 518.0 240.90000000000006 L 523.1 240.90000000000003 L 541.1 212.70000000000002 L 538.5 235.8 L 535.9 261.4 L 525.6999999999999 256.3 L 515.4 258.9 L 497.5 248.6 Z" fill="none" stroke="#ffffff" stroke-width="1"/><path d="M 497.5 248.6 L 518.0 240.90000000000003 L 471.80000000000007 230.70000000000002 L 479.5 258.9 L 497.5 248.6 Z" fill="none" stroke="#ffffff" stroke-width="1"/><path d="M 559.0 217.90000000000006 L 564.1 220.4 L 584.7 253.8 L 584.6999999999999 258.90000000000003 L 571.8 261.4 L 561.6 246.0333333333333 L 548.8 238.4 L 538.5 235.8 L 541.1 212.70000000000002 L 559.0 217.90000000000006 Z" fill="none" stroke="#ffffff" stroke-width="1"/><path d="M 448.7 105.0 L 471.8 105.0 L 479.5 130.70000000000002 L 492.3 158.9 L 459.99947655821046 141.307055557365 L 461.59999999999997 123.0 L 448.7 105.0 Z" fill="none" stroke="#ffffff" stroke-width="1"/><path d="M 471.8 105.0 L 479.5 130.70000000000002 L 492.3 158.9 L 502.59999999999997 143.5 L 507.7 125.5 L 500.0 115.3 L 471.8 105.0 Z" fill="none" stroke="#ffffff" stroke-width="1"/><path d="M 479.5749359465736 176.72747839682876 L 503.5992405108638 178.41830368817955 L 518.0 179.40000000000006 L 502.59999999999997 143.5 L 492.30000000000007 158.9 L 459.99947655821046 141.307055557365 L 479.5749359465736 176.72747839682876 Z" fill="none" stroke="#ffffff" stroke-width="1"/><path d="M 525.6999999999999 166.6 L 530.8 164.0 L 502.59999999999997 143.5 L 518.0 179.40000000000006 L 523.1 202.5 L 528.2 171.7 L 525.6999999999999 166.6 Z" fill="none" stroke="#ffffff" stroke-width="1"/><path d="M 502.59999999999997 143.5 L 507.7 125.5 L 500.0 115.3 L 533.4 117.8 L 535.9 138.4 L 530.8 164.0 L 502.59999999999997 143.5 Z" fill="none" stroke="#ffffff" stroke-width="1"/><path d="M 556.4 187.09999999999994 L 559.0 217.90000000000006 L 541.1 212.70000000000002 L 523.1 202.5 L 528.1999999999999 171.70000000000002 L 525.7 166.6 L 530.8000000000001 164.0 L 564.1 148.6 L 556.4 187.09999999999994 Z" fill="none" stroke="#ffffff" stroke-width="1"/><path d="M 556.4 187.09999999999994 L 559.0 217.90000000000006 L 564.1 220.4 L 584.7 253.8 L 587.1999999999999 202.5 L 582.1 199.9 L 582.1 196.05 L 582.1 187.09999999999994 L 579.5 179.40000000000006 L 567.6740410265846 180.74489927329594 L 556.4 187.09999999999994 Z" fill="none" stroke="#ffffff" stroke-width="1"/><path d="M 582.1 187.09999999999994 L 582.1 196.04999999999998 L 582.1 199.9 L 587.1999999999999 202.5 L 584.7 253.8 L 597.5 225.5 L 597.5 212.69999999999996 L 605.1999999999999 223.0 L 615.4 225.5 L 630.8 235.8 L 618.0 197.29999999999998 L 612.9 182.0 L 605.1999999999999 179.40000000000003 L 579.5 179.40000000000006 L 582.1 187.09999999999994 Z" fill="none" stroke="#ffffff" stroke-width="1"/><path d="M 653.9 276.8 L 669.3 276.8 L 677.0 276.8 L 687.2 269.1 L 679.5 269.1 L 664.1 269.1 L 653.8999999999999 269.09999999999997 L 643.6 266.6 L 635.9 266.6 L 635.9 271.7 L 646.2 276.8 L 653.9 276.8 Z" fill="none" stroke="#ffffff" stroke-width="1"/><path d="M 633.3900731174982 275.5472993003636 L 635.9 284.5 L 651.3000000000001 289.7 L 661.6 289.7 L 674.4 289.7 L 684.7 287.1 L 666.6999999999999 284.5 L 656.5 282.0 L 646.1999999999999 279.40000000000003 L 638.5 276.8 L 633.3900731174982 275.5472993003636 Z" fill="none" stroke="#ffffff" stroke-width="1"/><path d="M 600.0 297.3 L 615.4 294.8 L 618.0 295.40000000000003 L 625.6999999999999 305.0 L 635.9 299.9 L 635.9 284.5 L 633.3900731174982 275.5472993003636 L 628.1999999999999 274.30000000000007 L 618.0 269.1 L 610.6926824730434 273.91321168463816 L 600.0 297.3 Z" fill="none" stroke="#ffffff" stroke-width="1"/><path d="M 625.6999999999999 305.0 L 635.9 299.9 L 633.4 320.4 L 612.9 323.0 L 602.6 338.4 L 602.7045791894606 315.1474702888922 L 600.0 297.3 L 615.4 294.8 L 618.0 295.40000000000003 L 625.6999999999999 305.0 Z" fill="none" stroke="#ffffff" stroke-width="1"/><path d="M 538.5 394.8 L 543.6 399.8999999999999 L 553.9 405.0 L 569.3000000000001 407.59999999999997 L 589.9530992911978 404.94131275647436 L 587.2 387.1 L 577.0 389.7 L 564.1 389.7 L 553.9 384.5 L 553.9 374.3 L 535.9 376.8 L 538.5 384.5 L 538.5 394.8 Z" fill="none" stroke="#ffffff" stroke-width="1"/><path d="M 407.6999999999999 161.4 L 418.58268409938455 170.32984229680554 L 423.89411742637407 174.71236540986683 L 432.5 181.8 L 479.5749359465736 176.72747839682876 L 459.99947655821046 141.307055557365 L 461.59999999999997 123.0 L 448.7 105.0 L 425.6999999999999 120.39999999999999 L 413.3167414050822 148.5914964291646 L 407.6999999999999 161.4 Z" fill="none" stroke="#ffffff" stroke-width="1"/><path d="M 178.6590874585481 266.72942586599544 L 179.5 282.0 L 179.5 299.9 L 202.6 315.3 L 215.4 289.7 L 230.79999999999998 264.0 L 178.6590874585481 266.72942586599544 Z" fill="none" stroke="#ffffff" stroke-width="1"/><path d="M 359.0 207.6 L 361.8759561423061 164.22401536035025 L 330.8 194.79999999999998 L 359.0 207.6 Z" fill="none" stroke="#ffffff" stroke-width="1"/><path d="M 453.90000000000003 315.3 L 484.6 261.4 L 479.5 258.9 L 460.8 258.9 L 453.90000000000003 315.3 Z" fill="none" stroke="#ffffff" stroke-width="1"/><path d="M 518.0 240.90000000000003 L 523.1 240.9 L 541.1 212.70000000000002 L 523.1000000000001 202.5 L 518.0 179.40000000000006 L 503.5992405108638 178.41830368817955 L 503.0894283113167 190.704777697267 L 502.59999999999997 202.5 L 518.0 240.90000000000003 Z" fill="none" stroke="#ffffff" stroke-width="1"/><path d="M 246.20000000000002 182.0 L 271.7917274939173 184.52919708029196 L 297.5 187.1 L 279.5 161.4 L 256.40000000000003 158.70000000000002 L 246.20000000000002 182.0 Z" fill="none" stroke="#ffffff" stroke-width="1"/><path d="M 389.8000000000001 361.5 L 412.8 340.9 L 430.8000000000001 343.5 L 438.5 312.7 L 412.80000000000007 317.90000000000003 L 392.3000000000001 305.0 L 382.09999999999997 305.0 L 389.8000000000001 361.5 Z" fill="none" stroke="#ffffff" stroke-width="1"/><path d="M 392.6999999999999 268.0 L 415.40000000000003 271.7 L 412.8 317.90000000000003 L 392.3000000000001 305.0 L 382.09999999999997 305.0 L 392.6999999999999 268.0 Z" fill="none" stroke="#ffffff" stroke-width="1"/><path d="M 479.5 258.9 L 497.5 248.6 L 489.8 269.1 L 492.71999999999997 283.32 L 453.90000000000003 315.3 L 484.59999999999997 261.40000000000003 L 479.5 258.9 Z" fill="none" stroke="#ffffff" stroke-width="1"/><path d="M 497.5 358.90000000000003 L 515.4 369.1 L 500.0 328.09999999999997 L 484.59999999999997 333.2 L 494.9 353.8 L 497.5 358.90000000000003 Z" fill="none" stroke="#ffffff" stroke-width="1"/><path d="M 415.40000000000003 246.1 L 446.2 230.7 L 471.80000000000007 230.70000000000002 L 435.90000000000003 258.90000000000003 L 415.40000000000003 271.7 L 415.40000000000003 246.1 Z" fill="none" stroke="#ffffff" stroke-width="1"/><path d="M 394.90000000000003 225.5 L 402.59999999999997 197.29999999999998 L 387.2 184.5 L 376.90000000000003 199.9 L 367.5527595063584 211.86446783186116 L 356.90000000000003 225.5 L 394.90000000000003 225.5 Z" fill="none" stroke="#ffffff" stroke-width="1"/><path d="M 600.0 158.9 L 610.3 174.3 L 612.9 182.0 L 605.1999999999999 179.4 L 579.5 179.40000000000006 L 567.6740410265846 180.74489927329594 L 556.4 187.09999999999994 L 564.1 148.6 L 584.7 140.9 L 600.0 158.9 Z" fill="none" stroke="#ffffff" stroke-width="1"/><path d="M 315.40000000000003 258.90000000000003 L 323.09999999999997 284.5 L 309.0 285.8 L 294.90000000000003 287.09999999999997 L 292.3 264.0 L 315.40000000000003 258.90000000000003 Z" fill="none" stroke="#ffffff" stroke-width="1"/><path d="M 356.40000000000003 297.3 L 369.30000000000007 294.8 L 382.09999999999997 305.0 L 374.6000000000001 308.0 L 366.7 312.7 L 361.59999999999997 312.7 L 341.0 315.3 L 335.90000000000003 299.90000000000003 L 356.40000000000003 297.3 Z" fill="none" stroke="#ffffff" stroke-width="1"/><path d="M 602.6 256.3 L 610.3 240.9 L 615.4 225.5 L 605.1999999999999 223.0 L 597.5 212.69999999999996 L 597.5 225.5 L 584.7 253.8 L 602.6 256.3 Z" fill="none" stroke="#ffffff" stroke-width="1"/><path d="M 602.6 256.3 L 610.3000000000001 240.9 L 615.4 225.5 L 630.8000000000001 235.79999999999998 L 635.9 253.80000000000004 L 635.9 266.6 L 635.9 271.7 L 628.1999999999999 266.59999999999997 L 618.0 261.4 L 612.9 256.3 L 602.6 256.3 Z" fill="none" stroke="#ffffff" stroke-width="1"/><path d="M 600.0 297.3 L 610.6926824730434 273.91321168463816 L 618.0 269.1 L 602.6 256.3 L 584.7 253.8 L 584.6999999999999 258.90000000000003 L 594.9 284.5 L 600.0 297.3 Z" fill="none" stroke="#ffffff" stroke-width="1"/><path d="M 589.8000000000001 379.40000000000003 L 597.5 369.09999999999997 L 617.4932195325904 359.1359524805006 L 620.6 374.3 L 607.6999999999999 394.80000000000007 L 589.9530992911978 404.94131275647436 L 587.2 387.1 L 589.8000000000001 379.40000000000003 Z" fill="none" stroke="#ffffff" stroke-width="1"/><path d="M 197.4 320.4 L 202.6 315.3 L 215.4 289.7 L 243.6 299.90000000000003 L 230.79999999999998 325.59999999999997 L 212.8 333.1999999999999 L 197.4 320.4 Z" fill="none" stroke="#ffffff" stroke-width="1"/><path d="M 230.8 325.6 L 243.6 299.90000000000003 L 259.0 287.09999999999997 L 269.2 312.7 L 261.59999999999997 325.59999999999997 L 256.40000000000003 343.5 L 230.8 325.6 Z" fill="none" stroke="#ffffff" stroke-width="1"/><path d="M 276.9 325.6 L 284.59999999999997 333.2 L 318.0 328.1 L 315.40000000000003 312.7 L 309.0 285.8 L 294.90000000000003 287.09999999999997 L 292.3 315.3 L 276.9 325.6 Z" fill="none" stroke="#ffffff" stroke-width="1"/><path d="M 261.6 325.6 L 269.2 312.7 L 259.0 287.09999999999997 L 294.90000000000003 287.09999999999997 L 292.3 315.3 L 276.9 325.6 L 261.6 325.6 Z" fill="none" stroke="#ffffff" stroke-width="1"/><path d="M 315.40000000000003 312.7 L 318.0 328.1 L 341.0 315.3 L 335.90000000000003 299.90000000000003 L 323.09999999999997 284.5 L 309.0 285.8 L 315.40000000000003 312.7 Z" fill="none" stroke="#ffffff" stroke-width="1"/><path d="M 226.199585484692 199.89959275689043 L 246.20000000000002 182.0 L 271.7917274939173 184.52919708029196 L 266.7 202.5 L 251.29999999999998 225.5 L 226.199585484692 199.89959275689043 Z" fill="none" stroke="#ffffff" stroke-width="1"/><path d="M 251.29999999999998 225.5 L 266.69999999999993 202.5 L 271.7917274939173 184.52919708029196 L 297.5 187.1 L 297.5 223.0 L 284.59999999999997 230.70000000000002 L 266.7 225.5 L 265.40281995661604 225.5 L 251.29999999999998 225.5 Z" fill="none" stroke="#ffffff" stroke-width="1"/><path d="M 297.5 223.0 L 330.8 194.79999999999998 L 297.5 187.1 L 297.5 223.0 Z" fill="none" stroke="#ffffff" stroke-width="1"/><path d="M 297.5 187.1 L 330.8 194.79999999999998 L 361.8759561423061 164.22401536035025 L 318.0 166.6 L 297.5 187.1 Z" fill="none" stroke="#ffffff" stroke-width="1"/><path d="M 392.9996680335871 249.52047126212332 L 394.90000000000003 225.5 L 410.3000000000001 228.09999999999994 L 446.2 230.7 L 415.40000000000003 246.09999999999997 L 415.40000000000003 271.7 L 392.6999999999999 268.0 L 392.9996680335871 249.52047126212332 Z" fill="none" stroke="#ffffff" stroke-width="1"/><path d="M 400.0 461.5 L 428.2 461.5 L 412.8 443.5 L 410.3 433.3 L 399.99409050493705 431.20943984276283 L 392.3000000000001 443.5 L 400.0 461.5 Z" fill="none" stroke="#ffffff" stroke-width="1"/><path d="M 435.90000000000003 258.90000000000003 L 460.8 258.9 L 479.5 258.9 L 471.80000000000007 230.70000000000002 L 435.90000000000003 258.90000000000003 Z" fill="none" stroke="#ffffff" stroke-width="1"/><path d="M 471.80000000000007 230.70000000000002 L 479.5749359465736 176.72747839682873 L 503.5992405108638 178.41830368817955 L 503.08942831131674 190.704777697267 L 502.59999999999997 202.5 L 518.0 240.90000000000003 L 471.80000000000007 230.70000000000002 Z" fill="none" stroke="#ffffff" stroke-width="1"/><path d="M 533.4 117.8 L 535.9 138.4 L 530.8 164.0 L 564.1 148.6 L 584.7 140.9 L 574.4 128.1 L 559.0 128.1 L 533.4 117.8 Z" fill="none" stroke="#ffffff" stroke-width="1"/><path d="M 600.034336057738 353.7940947112639 L 602.6 338.40000000000003 L 612.9 323.0 L 633.4 320.4 L 630.8000000000001 343.5 L 628.1999999999999 353.8 L 620.6 374.3 L 617.4932195325904 359.13595248050063 L 597.5 369.1 L 600.034336057738 353.7940947112639 Z" fill="none" stroke="#ffffff" stroke-width="1"/><text x="173.5" y="446.9333333333334" fill="#ffffff" font-size="9.600000000000001" text-anchor="middle" dominant-baseline="middle">18</text><text x="173.5" y="434.1" fill="#ffffff" font-size="9.600000000000001" text-anchor="middle" dominant-baseline="middle">62</text><text x="186.33333333333331" y="428.9666666666667" fill="#ffffff" font-size="9.600000000000001" text-anchor="middle" dominant-baseline="middle">75</text><text x="214.53333333333336" y="380.2333333333333" fill="#ffffff" font-size="9.600000000000001" text-anchor="middle" dominant-baseline="middle">47</text><text x="191.46666666666664" y="387.9333333333332" fill="#ffffff" font-size="9.600000000000001" text-anchor="middle" dominant-baseline="middle">56</text><text x="234.20000000000002" y="352.0333333333333" fill="#ffffff" font-size="9.600000000000001" text-anchor="middle" dominant-baseline="middle">99</text><text x="193.2" y="340.96666666666664" fill="#ffffff" font-size="9.600000000000001" text-anchor="middle" dominant-baseline="middle">74</text><text x="276.1" y="390.5333333333333" fill="#ffffff" font-size="9.600000000000001" text-anchor="middle" dominant-baseline="middle">51</text><text x="272.6666666666667" y="427.26666666666654" fill="#ffffff" font-size="9.600000000000001" text-anchor="middle" dominant-baseline="middle">70</text><text x="299.1802884223136" y="446.0889482724162" fill="#ffffff" font-size="9.600000000000001" text-anchor="middle" dominant-baseline="middle">34</text><text x="276.1" y="439.2333333333333" fill="#ffffff" font-size="9.600000000000001" text-anchor="middle" dominant-baseline="middle">20</text><text x="273.5333333333333" y="364.90000000000003" fill="#ffffff" font-size="9.600000000000001" text-anchor="middle" dominant-baseline="middle">57</text><text x="374.3666666666666" y="266.6" fill="#ffffff" font-size="9.600000000000001" text-anchor="middle" dominant-baseline="middle">23</text><text x="272.6666666666667" y="269.13333333333327" fill="#ffffff" font-size="9.600000000000001" text-anchor="middle" dominant-baseline="middle">53</text><text x="229.93333333333328" y="284.53333333333336" fill="#ffffff" font-size="9.600000000000001" text-anchor="middle" dominant-baseline="middle">80</text><text x="203.39999999999998" y="224.70000000000002" fill="#ffffff" font-size="9.600000000000001" text-anchor="middle" dominant-baseline="middle">11</text><text x="195.45302915284938" y="255.5098086219985" fill="#ffffff" font-size="9.600000000000001" text-anchor="middle" dominant-baseline="middle">94</text><text x="158.13333333333333" y="246.9" fill="#ffffff" font-size="9.600000000000001" text-anchor="middle" dominant-baseline="middle">69</text><text x="241.03333333333336" y="168.23333333333335" fill="#ffffff" font-size="9.600000000000001" text-anchor="middle" dominant-baseline="middle">42</text><text x="241.0333333333333" y="258.03333333333336" fill="#ffffff" font-size="9.600000000000001" text-anchor="middle" dominant-baseline="middle">66</text><text x="235.0333333333333" y="222.96666666666673" fill="#ffffff" font-size="9.600000000000001" text-anchor="middle" dominant-baseline="middle">30</text><text x="280.3333333333333" y="247.7666666666667" fill="#ffffff" font-size="9.600000000000001" text-anchor="middle" dominant-baseline="middle">79</text><text x="251.26666666666665" y="143.43333333333334" fill="#ffffff" font-size="9.600000000000001" text-anchor="middle" dominant-baseline="middle">24</text><text x="264.1" y="150.26666666666665" fill="#ffffff" font-size="9.600000000000001" text-anchor="middle" dominant-baseline="middle">8</text><text x="315.4333333333334" y="145.2" fill="#ffffff" font-size="9.600000000000001" text-anchor="middle" dominant-baseline="middle">19</text><text x="315.4333333333334" y="235.80000000000004" fill="#ffffff" font-size="9.600000000000001" text-anchor="middle" dominant-baseline="middle">86</text><text x="320.5666666666667" y="214.4333333333333" fill="#ffffff" font-size="9.600000000000001" text-anchor="middle" dominant-baseline="middle">92</text><text x="342.73333333333335" y="267.4333333333333" fill="#ffffff" font-size="9.600000000000001" text-anchor="middle" dominant-baseline="middle">98</text><text x="353.8333333333333" y="281.1" fill="#ffffff" font-size="9.600000000000001" text-anchor="middle" dominant-baseline="middle">3</text><text x="340.20000000000005" y="249.46666666666667" fill="#ffffff" font-size="9.600000000000001" text-anchor="middle" dominant-baseline="middle">59</text><text x="370.2666666666667" y="236.63333333333333" fill="#ffffff" font-size="9.600000000000001" text-anchor="middle" dominant-baseline="middle">83</text><text x="344.5919853807687" y="154.67467178678342" fill="#ffffff" font-size="9.600000000000001" text-anchor="middle" dominant-baseline="middle">2</text><text x="382.85499086973476" y="165.3761320503088" fill="#ffffff" font-size="9.600000000000001" text-anchor="middle" dominant-baseline="middle">81</text><text x="403.4666666666666" y="132.36666666666667" fill="#ffffff" font-size="9.600000000000001" text-anchor="middle" dominant-baseline="middle">97</text><text x="402.6" y="216.9666666666666" fill="#ffffff" font-size="9.600000000000001" text-anchor="middle" dominant-baseline="middle">76</text><text x="459.8583119821912" y="200.7424927989429" fill="#ffffff" font-size="9.600000000000001" text-anchor="middle" dominant-baseline="middle">44</text><text x="399.16666666666663" y="181.06666666666663" fill="#ffffff" font-size="9.600000000000001" text-anchor="middle" dominant-baseline="middle">14</text><text x="436.8" y="333.23333333333335" fill="#ffffff" font-size="9.600000000000001" text-anchor="middle" dominant-baseline="middle">43</text><text x="408.6" y="363.1666666666667" fill="#ffffff" font-size="9.600000000000001" text-anchor="middle" dominant-baseline="middle">13</text><text x="407.66078994574497" y="397.1744582741809" fill="#ffffff" font-size="9.600000000000001" text-anchor="middle" dominant-baseline="middle">67</text><text x="411.92745661241156" y="406.574458274181" fill="#ffffff" font-size="9.600000000000001" text-anchor="middle" dominant-baseline="middle">89</text><text x="392.3" y="452.9333333333334" fill="#ffffff" font-size="9.600000000000001" text-anchor="middle" dominant-baseline="middle">29</text><text x="479.4582323053291" y="311.2691386033321" fill="#ffffff" font-size="9.600000000000001" text-anchor="middle" dominant-baseline="middle">60</text><text x="450.20000000000005" y="277.70000000000005" fill="#ffffff" font-size="9.600000000000001" text-anchor="middle" dominant-baseline="middle">48</text><text x="463.26666666666665" y="340.0666666666667" fill="#ffffff" font-size="9.600000000000001" text-anchor="middle" dominant-baseline="middle">88</text><text x="494.89999999999986" y="385.4000000000001" fill="#ffffff" font-size="9.600000000000001" text-anchor="middle" dominant-baseline="middle">27</text><text x="514.1047727591905" y="406.3566811066579" fill="#ffffff" font-size="9.600000000000001" text-anchor="middle" dominant-baseline="middle">45</text><text x="507.69999999999993" y="436.70000000000005" fill="#ffffff" font-size="9.600000000000001" text-anchor="middle" dominant-baseline="middle">63</text><text x="497.038106092524" y="408.9233477733245" fill="#ffffff" font-size="9.600000000000001" text-anchor="middle" dominant-baseline="middle">7</text><text x="502.5977518374405" y="452.5011240812797" fill="#ffffff" font-size="9.600000000000001" text-anchor="middle" dominant-baseline="middle">49</text><text x="532.5000000000001" y="246.0333333333333" fill="#ffffff" font-size="9.600000000000001" text-anchor="middle" dominant-baseline="middle">17</text><text x="482.9333333333334" y="246.0666666666667" fill="#ffffff" font-size="9.600000000000001" text-anchor="middle" dominant-baseline="middle">58</text><text x="569.3000000000001" y="245.21111111111114" fill="#ffffff" font-size="9.600000000000001" text-anchor="middle" dominant-baseline="middle">37</text><text x="477.26649218607014" y="143.63568518578833" fill="#ffffff" font-size="9.600000000000001" text-anchor="middle" dominant-baseline="middle">1</text><text x="483.76666666666665" y="117.0" fill="#ffffff" font-size="9.600000000000001" text-anchor="middle" dominant-baseline="middle">38</text><text x="477.291470834928" y="158.97817798473127" fill="#ffffff" font-size="9.600000000000001" text-anchor="middle" dominant-baseline="middle">6</text><text x="515.4333333333333" y="163.1666666666667" fill="#ffffff" font-size="9.600000000000001" text-anchor="middle" dominant-baseline="middle">16</text><text x="523.0999999999999" y="148.63333333333333" fill="#ffffff" font-size="9.600000000000001" text-anchor="middle" dominant-baseline="middle">73</text><text x="546.1666666666667" y="164.0" fill="#ffffff" font-size="9.600000000000001" text-anchor="middle" dominant-baseline="middle">65</text><text x="578.6666666666666" y="225.5666666666667" fill="#ffffff" font-size="9.600000000000001" text-anchor="middle" dominant-baseline="middle">87</text><text x="589.8000000000001" y="227.26666666666665" fill="#ffffff" font-size="9.600000000000001" text-anchor="middle" dominant-baseline="middle">35</text><text x="644.4666666666666" y="284.5333333333334" fill="#ffffff" font-size="9.600000000000001" text-anchor="middle" dominant-baseline="middle">84</text><text x="625.0655370950738" y="294.3997099748613" fill="#ffffff" font-size="9.600000000000001" text-anchor="middle" dominant-baseline="middle">41</text><text x="624.0" y="316.1333333333333" fill="#ffffff" font-size="9.600000000000001" text-anchor="middle" dominant-baseline="middle">72</text><text x="578.7510330970659" y="400.74710425215807" fill="#ffffff" font-size="9.600000000000001" text-anchor="middle" dominant-baseline="middle">61</text><text x="450.1916453155245" y="164.77582613227625" fill="#ffffff" font-size="9.600000000000001" text-anchor="middle" dominant-baseline="middle">32</text><text x="208.56666666666663" y="278.56666666666666" fill="#ffffff" font-size="9.600000000000001" text-anchor="middle" dominant-baseline="middle">93</text><text x="350.5586520474354" y="188.8746717867834" fill="#ffffff" font-size="9.600000000000001" text-anchor="middle" dominant-baseline="middle">77</text><text x="464.73333333333335" y="277.7" fill="#ffffff" font-size="9.600000000000001" text-anchor="middle" dominant-baseline="middle">71</text><text x="514.5666666666666" y="215.30000000000004" fill="#ffffff" font-size="9.600000000000001" text-anchor="middle" dominant-baseline="middle">12</text><text x="282.93057583130576" y="177.676399026764" fill="#ffffff" font-size="9.600000000000001" text-anchor="middle" dominant-baseline="middle">26</text><text x="398.30000000000007" y="328.1333333333334" fill="#ffffff" font-size="9.600000000000001" text-anchor="middle" dominant-baseline="middle">91</text><text x="406.8333333333334" y="298.2000000000001" fill="#ffffff" font-size="9.600000000000001" text-anchor="middle" dominant-baseline="middle">31</text><text x="477.0733333333333" y="286.67333333333335" fill="#ffffff" font-size="9.600000000000001" text-anchor="middle" dominant-baseline="middle">15</text><text x="504.30000000000007" y="352.0333333333333" fill="#ffffff" font-size="9.600000000000001" text-anchor="middle" dominant-baseline="middle">78</text><text x="451.30000000000007" y="240.10000000000002" fill="#ffffff" font-size="9.600000000000001" text-anchor="middle" dominant-baseline="middle">9</text><text x="391.4666666666667" y="207.56666666666663" fill="#ffffff" font-size="9.600000000000001" text-anchor="middle" dominant-baseline="middle">90</text><text x="581.1999999999999" y="162.30000000000004" fill="#ffffff" font-size="9.600000000000001" text-anchor="middle" dominant-baseline="middle">39</text><text x="310.2666666666667" y="269.1333333333334" fill="#ffffff" font-size="9.600000000000001" text-anchor="middle" dominant-baseline="middle">33</text><text x="352.99999999999994" y="308.43333333333334" fill="#ffffff" font-size="9.600000000000001" text-anchor="middle" dominant-baseline="middle">50</text><text x="594.9333333333335" y="245.20000000000002" fill="#ffffff" font-size="9.600000000000001" text-anchor="middle" dominant-baseline="middle">52</text><text x="622.2666666666667" y="234.06666666666666" fill="#ffffff" font-size="9.600000000000001" text-anchor="middle" dominant-baseline="middle">68</text><text x="593.0555025584795" y="270.29355628654974" fill="#ffffff" font-size="9.600000000000001" text-anchor="middle" dominant-baseline="middle">46</text><text x="609.7235072917397" y="382.2376605291869" fill="#ffffff" font-size="9.600000000000001" text-anchor="middle" dominant-baseline="middle">95</text><text x="229.9333333333333" y="305.0666666666667" fill="#ffffff" font-size="9.600000000000001" text-anchor="middle" dominant-baseline="middle">96</text><text x="245.33333333333331" y="317.03333333333336" fill="#ffffff" font-size="9.600000000000001" text-anchor="middle" dominant-baseline="middle">5</text><text x="300.86666666666673" y="305.03333333333325" fill="#ffffff" font-size="9.600000000000001" text-anchor="middle" dominant-baseline="middle">10</text><text x="282.06666666666666" y="296.5" fill="#ffffff" font-size="9.600000000000001" text-anchor="middle" dominant-baseline="middle">64</text><text x="324.8" y="318.7" fill="#ffffff" font-size="9.600000000000001" text-anchor="middle" dominant-baseline="middle">54</text><text x="241.23319516156397" y="202.46653091896346" fill="#ffffff" font-size="9.600000000000001" text-anchor="middle" dominant-baseline="middle">22</text><text x="287.23333333333335" y="204.2" fill="#ffffff" font-size="9.600000000000001" text-anchor="middle" dominant-baseline="middle">4</text><text x="308.59999999999997" y="201.63333333333333" fill="#ffffff" font-size="9.600000000000001" text-anchor="middle" dominant-baseline="middle">21</text><text x="336.8919853807687" y="175.20800512011675" fill="#ffffff" font-size="9.600000000000001" text-anchor="middle" dominant-baseline="middle">85</text><text x="423.96666666666675" y="234.9666666666666" fill="#ffffff" font-size="9.600000000000001" text-anchor="middle" dominant-baseline="middle">36</text><text x="413.6666666666667" y="455.5" fill="#ffffff" font-size="9.600000000000001" text-anchor="middle" dominant-baseline="middle">40</text><text x="456.1666666666667" y="249.5" fill="#ffffff" font-size="9.600000000000001" text-anchor="middle" dominant-baseline="middle">82</text><text x="497.4666666666667" y="224.70000000000005" fill="#ffffff" font-size="9.600000000000001" text-anchor="middle" dominant-baseline="middle">25</text><text x="543.6" y="150.33333333333331" fill="#ffffff" font-size="9.600000000000001" text-anchor="middle" dominant-baseline="middle">28</text><text x="622.2666666666668" y="334.1" fill="#ffffff" font-size="9.600000000000001" text-anchor="middle" dominant-baseline="middle">55</text></svg>