<svg xmlns="http://www.w3.org/2000/svg" width="2995" height="2201" viewBox="0 0 2995 2201"><polyline points="1498.0,255.2 1275.2,399.2 1243.2,399.2 1285.2,448.0 1458.0,448.0 1498.0,448.0 1538.0,448.0 1712.0,448.0 1753.2,399.2 1722.0,399.2 1498.0,255.2" fill="none" stroke="#000000" stroke-width="2" stroke-linejoin="round" stroke-linecap="round"/><text x="1498.4" y="381.0" font-family="Arial,Helvetica,sans-serif" font-size="16" font-weight="bold" fill="#ff0000" text-anchor="middle" dominant-baseline="middle">1</text><polyline points="1275.2,399.2 1243.2,399.2 1151.2,399.2 1006.0,399.2 1498.0,255.2 1275.2,399.2" fill="none" stroke="#000000" stroke-width="2" stroke-linejoin="round" stroke-linecap="round"/><text x="1259.7" y="351.2" font-family="Arial,Helvetica,sans-serif" font-size="16" font-weight="bold" fill="#ff0000" text-anchor="middle" dominant-baseline="middle">2</text><polyline points="1151.2,472.1 1151.2,487.2 1151.2,530.0 1151.2,568.0 1243.2,568.0 1285.2,527.2 1285.2,448.0 1243.2,399.2 1151.2,399.2 1151.2,472.1" fill="none" stroke="#000000" stroke-width="2" stroke-linejoin="round" stroke-linecap="round"/><text x="1213.4" y="484.0" font-family="Arial,Helvetica,sans-serif" font-size="16" font-weight="bold" fill="#ff0000" text-anchor="middle" dominant-baseline="middle">4</text><polyline points="1151.2,472.1 1151.2,399.2 1006.0,399.2 1098.0,536.0 1151.2,530.0 1151.2,487.2 1151.2,472.1" fill="none" stroke="#000000" stroke-width="2" stroke-linejoin="round" stroke-linecap="round"/><text x="1097.6" y="456.1" font-family="Arial,Helvetica,sans-serif" font-size="16" font-weight="bold" fill="#ff0000" text-anchor="middle" dominant-baseline="middle">3</text><polyline points="1285.2,448.0 1285.2,527.2 1498.0,527.2 1499.2,527.2 1712.0,527.2 1712.0,448.0 1538.0,448.0 1498.0,448.0 1458.0,448.0 1285.2,448.0" fill="none" stroke="#000000" stroke-width="2" stroke-linejoin="round" stroke-linecap="round"/><text x="1498.6" y="487.6" font-family="Arial,Helvetica,sans-serif" font-size="16" font-weight="bold" fill="#ff0000" text-anchor="middle" dominant-baseline="middle">7</text><polyline points="1753.2,399.2 1712.0,448.0 1712.0,527.2 1753.2,568.0 1846.0,568.0 1846.0,530.0 1846.0,487.2 1846.0,399.2 1753.2,399.2" fill="none" stroke="#000000" stroke-width="2" stroke-linejoin="round" stroke-linecap="round"/><text x="1783.7" y="484.0" font-family="Arial,Helvetica,sans-serif" font-size="16" font-weight="bold" fill="#ff0000" text-anchor="middle" dominant-baseline="middle">5</text><polyline points="1753.2,399.2 1722.0,399.2 1498.0,255.2 1990.0,399.2 1846.0,399.2 1753.2,399.2" fill="none" stroke="#000000" stroke-width="2" stroke-linejoin="round" stroke-linecap="round"/><text x="1736.7" y="351.2" font-family="Arial,Helvetica,sans-serif" font-size="16" font-weight="bold" fill="#ff0000" text-anchor="middle" dominant-baseline="middle">1</text><polyline points="1846.0,399.2 1846.0,487.2 1846.0,530.0 1898.0,536.0 1990.0,399.2 1846.0,399.2" fill="none" stroke="#000000" stroke-width="2" stroke-linejoin="round" stroke-linecap="round"/><text x="1899.0" y="456.0" font-family="Arial,Helvetica,sans-serif" font-size="16" font-weight="bold" fill="#ff0000" text-anchor="middle" dominant-baseline="middle">6</text><polyline points="1498.0,606.0 1435.8,648.6 1391.2,679.2 1416.0,720.0 1455.2,700.0 1499.2,693.2 1544.0,700.0 1583.2,720.0 1615.2,752.0 1635.2,791.2 1637.4,805.4 1653.2,797.2 1706.0,679.2 1641.2,606.0 1499.2,606.0 1498.0,606.0" fill="none" stroke="#000000" stroke-width="2" stroke-linejoin="round" stroke-linecap="round"/><text x="1572.3" y="676.5" font-family="Arial,Helvetica,sans-serif" font-size="16" font-weight="bold" fill="#ff0000" text-anchor="middle" dominant-baseline="middle">12</text><polyline points="1384.0,752.0 1364.0,791.2 1357.2,835.2 1364.0,880.0 1384.0,919.2 1416.0,951.2 1455.2,971.2 1499.2,978.0 1499.2,945.2 1499.2,916.0 1475.2,912.0 1452.0,901.2 1434.0,883.2 1423.2,860.0 1419.2,835.2 1423.2,811.2 1431.5,793.4 1434.0,788.0 1452.0,770.0 1475.2,759.2 1499.2,755.2 1499.2,726.0 1499.2,693.2 1455.2,700.0 1416.0,720.0 1384.0,752.0" fill="none" stroke="#000000" stroke-width="2" stroke-linejoin="round" stroke-linecap="round"/><text x="1388.3" y="835.6" font-family="Arial,Helvetica,sans-serif" font-size="16" font-weight="bold" fill="#ff0000" text-anchor="middle" dominant-baseline="middle">17</text><polyline points="1384.0,752.0 1416.0,720.0 1391.2,679.2 1289.2,679.2 1243.2,679.2 1243.2,743.2 1243.2,881.2 1344.0,932.0 1416.0,951.2 1384.0,919.2 1364.0,880.0 1357.2,835.2 1364.0,791.2 1384.0,752.0" fill="none" stroke="#000000" stroke-width="2" stroke-linejoin="round" stroke-linecap="round"/><text x="1315.8" y="792.9" font-family="Arial,Helvetica,sans-serif" font-size="16" font-weight="bold" fill="#ff0000" text-anchor="middle" dominant-baseline="middle">16</text><polyline points="1306.0,1034.0 1305.2,1034.0 1243.2,1034.0 1243.2,1088.0 1336.0,1088.0 1367.6,1061.5 1368.0,1061.2 1499.2,978.0 1455.2,971.2 1416.0,951.2 1344.0,932.0 1306.0,1034.0" fill="none" stroke="#000000" stroke-width="2" stroke-linejoin="round" stroke-linecap="round"/><text x="1358.0" y="1015.5" font-family="Arial,Helvetica,sans-serif" font-size="16" font-weight="bold" fill="#ff0000" text-anchor="middle" dominant-baseline="middle">25</text><polyline points="1655.2,939.2 1544.0,971.2 1499.2,978.0 1368.0,1061.2 1367.6,1061.5 1336.0,1088.0 1368.0,1088.0 1531.2,1088.0 1605.2,1043.2 1655.2,939.2" fill="none" stroke="#000000" stroke-width="2" stroke-linejoin="round" stroke-linecap="round"/><text x="1512.8" y="1029.1" font-family="Arial,Helvetica,sans-serif" font-size="16" font-weight="bold" fill="#ff0000" text-anchor="middle" dominant-baseline="middle">26</text><polyline points="1524.0,759.2 1547.2,770.0 1565.2,788.0 1573.0,804.7 1576.0,811.2 1580.0,835.2 1576.0,860.0 1565.2,883.2 1547.2,901.2 1524.0,912.0 1499.2,916.0 1499.2,945.2 1499.2,978.0 1544.0,971.2 1583.2,951.2 1615.2,919.2 1635.2,880.0 1642.0,835.2 1637.4,805.4 1635.2,791.2 1615.2,752.0 1583.2,720.0 1544.0,700.0 1499.2,693.2 1499.2,726.0 1499.2,755.2 1524.0,759.2" fill="none" stroke="#000000" stroke-width="2" stroke-linejoin="round" stroke-linecap="round"/><text x="1610.9" y="835.6" font-family="Arial,Helvetica,sans-serif" font-size="16" font-weight="bold" fill="#ff0000" text-anchor="middle" dominant-baseline="middle">18</text><polyline points="1753.2,738.0 1653.2,797.2 1637.4,805.4 1642.0,835.2 1635.2,880.0 1615.2,919.2 1583.2,951.2 1544.0,971.2 1655.2,939.2 1753.2,897.2 1753.2,738.0" fill="none" stroke="#000000" stroke-width="2" stroke-linejoin="round" stroke-linecap="round"/><text x="1688.6" y="855.1" font-family="Arial,Helvetica,sans-serif" font-size="16" font-weight="bold" fill="#ff0000" text-anchor="middle" dominant-baseline="middle">19</text><polyline points="1499.2,826.0 1499.2,755.2 1475.2,759.2 1452.0,770.0 1434.0,788.0 1431.5,793.4 1423.2,811.2 1419.2,835.2 1423.2,860.0 1434.0,883.2 1452.0,901.2 1475.2,912.0 1499.2,916.0 1499.2,850.5 1499.2,826.0" fill="none" stroke="#000000" stroke-width="2" stroke-linejoin="round" stroke-linecap="round"/><text x="1465.4" y="835.6" font-family="Arial,Helvetica,sans-serif" font-size="16" font-weight="bold" fill="#ff0000" text-anchor="middle" dominant-baseline="middle">20</text><polyline points="1547.2,770.0 1524.0,759.2 1499.2,755.2 1499.2,826.0 1499.2,850.5 1499.2,916.0 1524.0,912.0 1547.2,901.2 1565.2,883.2 1576.0,860.0 1580.0,835.2 1576.0,811.2 1573.0,804.7 1565.2,788.0 1547.2,770.0" fill="none" stroke="#000000" stroke-width="2" stroke-linejoin="round" stroke-linecap="round"/><text x="1533.3" y="835.6" font-family="Arial,Helvetica,sans-serif" font-size="16" font-weight="bold" fill="#ff0000" text-anchor="middle" dominant-baseline="middle">21</text><polyline points="1498.0,527.2 1285.2,527.2 1243.2,568.0 1498.0,568.0 1499.2,568.0 1753.2,568.0 1712.0,527.2 1499.2,527.2 1498.0,527.2" fill="none" stroke="#000000" stroke-width="2" stroke-linejoin="round" stroke-linecap="round"/><text x="1498.4" y="548.2" font-family="Arial,Helvetica,sans-serif" font-size="16" font-weight="bold" fill="#ff0000" text-anchor="middle" dominant-baseline="middle">8</text><polyline points="1093.2,568.0 1113.0,606.0 1151.2,606.0 1243.2,606.0 1349.2,606.0 1498.0,606.0 1499.2,606.0 1499.2,568.0 1498.0,568.0 1243.2,568.0 1151.2,568.0 1093.2,568.0" fill="none" stroke="#000000" stroke-width="2" stroke-linejoin="round" stroke-linecap="round"/><text x="1301.1" y="586.8" font-family="Arial,Helvetica,sans-serif" font-size="16" font-weight="bold" fill="#ff0000" text-anchor="middle" dominant-baseline="middle">9</text><polyline points="1349.2,606.0 1243.2,606.0 1151.2,606.0 1113.0,606.0 1151.2,679.2 1243.2,679.2 1289.2,679.2 1391.2,679.2 1435.8,648.6 1498.0,606.0 1349.2,606.0" fill="none" stroke="#000000" stroke-width="2" stroke-linejoin="round" stroke-linecap="round"/><text x="1289.7" y="639.8" font-family="Arial,Helvetica,sans-serif" font-size="16" font-weight="bold" fill="#ff0000" text-anchor="middle" dominant-baseline="middle">11</text><polyline points="2695.2,1633.2 2695.2,1616.0 2436.0,1468.0 2486.0,1556.0 2429.2,1633.2 2542.0,1633.2 2695.2,1633.2" fill="none" stroke="#000000" stroke-width="2" stroke-linejoin="round" stroke-linecap="round"/><text x="2545.8" y="1583.3" font-family="Arial,Helvetica,sans-serif" font-size="16" font-weight="bold" fill="#ff0000" text-anchor="middle" dominant-baseline="middle">55</text><polyline points="2542.0,1633.2 2542.0,1738.0 2542.0,1738.9 2664.8,1756.5 2668.4,1755.7 2695.2,1750.0 2695.2,1633.2 2542.0,1633.2" fill="none" stroke="#000000" stroke-width="2" stroke-linejoin="round" stroke-linecap="round"/><text x="2620.4" y="1691.1" font-family="Arial,Helvetica,sans-serif" font-size="16" font-weight="bold" fill="#ff0000" text-anchor="middle" dominant-baseline="middle">71</text><polyline points="2695.2,1750.0 2668.4,1755.7 2670.0,1757.2 2664.8,1756.5 2652.0,1759.2 2622.0,1772.0 2596.0,1802.0 2579.2,1843.2 2695.2,1843.2 2695.2,1750.0" fill="none" stroke="#000000" stroke-width="2" stroke-linejoin="round" stroke-linecap="round"/><text x="2647.9" y="1804.7" font-family="Arial,Helvetica,sans-serif" font-size="16" font-weight="bold" fill="#ff0000" text-anchor="middle" dominant-baseline="middle">89</text><polyline points="2579.2,2017.2 2579.2,2082.0 2695.2,2082.0 2695.2,2017.2 2695.2,1843.2 2579.2,1843.2 2579.2,2017.2" fill="none" stroke="#000000" stroke-width="2" stroke-linejoin="round" stroke-linecap="round"/><text x="2637.2" y="1962.6" font-family="Arial,Helvetica,sans-serif" font-size="16" font-weight="bold" fill="#ff0000" text-anchor="middle" dominant-baseline="middle">104</text><polyline points="2664.8,1756.5 2542.0,1738.9 2542.0,1843.2 2542.0,1992.0 2542.0,2082.0 2579.2,2082.0 2579.2,2017.2 2579.2,1843.2 2596.0,1802.0 2622.0,1772.0 2652.0,1759.2 2664.8,1756.5" fill="none" stroke="#000000" stroke-width="2" stroke-linejoin="round" stroke-linecap="round"/><text x="2567.8" y="1887.6" font-family="Arial,Helvetica,sans-serif" font-size="16" font-weight="bold" fill="#ff0000" text-anchor="middle" dominant-baseline="middle">81</text><polyline points="2542.0,1843.2 2479.2,1843.2 2479.2,2017.2 2479.2,2082.0 2542.0,2082.0 2542.0,1992.0 2542.0,1843.2" fill="none" stroke="#000000" stroke-width="2" stroke-linejoin="round" stroke-linecap="round"/><text x="2510.6" y="1962.6" font-family="Arial,Helvetica,sans-serif" font-size="16" font-weight="bold" fill="#ff0000" text-anchor="middle" dominant-baseline="middle">103</text><polyline points="2276.0,2017.2 2276.0,2082.0 2377.2,2082.0 2479.2,2082.0 2479.2,2017.2 2479.2,1843.2 2377.2,1843.2 2276.0,1843.2 2276.0,1983.2 2276.0,2017.2" fill="none" stroke="#000000" stroke-width="2" stroke-linejoin="round" stroke-linecap="round"/><text x="2377.6" y="1962.6" font-family="Arial,Helvetica,sans-serif" font-size="16" font-weight="bold" fill="#ff0000" text-anchor="middle" dominant-baseline="middle">102</text><polyline points="2217.2,1843.2 2217.2,1908.0 2217.2,2017.2 2217.2,2082.0 2276.0,2082.0 2276.0,2017.2 2276.0,1983.2 2276.0,1843.2 2246.1,1812.3 2217.2,1843.2" fill="none" stroke="#000000" stroke-width="2" stroke-linejoin="round" stroke-linecap="round"/><text x="2246.6" y="1954.7" font-family="Arial,Helvetica,sans-serif" font-size="16" font-weight="bold" fill="#ff0000" text-anchor="middle" dominant-baseline="middle">93</text><polyline points="2014.0,2082.0 2115.2,2082.0 2217.2,2082.0 2217.2,2017.2 2217.2,1908.0 2217.2,1843.2 2115.2,1843.2 2014.0,1843.2 2014.0,2017.2 2014.0,2082.0" fill="none" stroke="#000000" stroke-width="2" stroke-linejoin="round" stroke-linecap="round"/><text x="2115.6" y="1962.6" font-family="Arial,Helvetica,sans-serif" font-size="16" font-weight="bold" fill="#ff0000" text-anchor="middle" dominant-baseline="middle">101</text><polyline points="2014.0,1843.2 1957.2,1814.0 1957.2,1980.0 1957.2,2082.0 2014.0,2082.0 2014.0,2017.2 2014.0,1843.2" fill="none" stroke="#000000" stroke-width="2" stroke-linejoin="round" stroke-linecap="round"/><text x="1985.1" y="1955.2" font-family="Arial,Helvetica,sans-serif" font-size="16" font-weight="bold" fill="#ff0000" text-anchor="middle" dominant-baseline="middle">94</text><polyline points="1901.2,1906.9 1815.2,1980.0 1774.0,1980.0 1774.0,2082.0 1815.2,2082.0 1901.2,2082.0 1957.2,2082.0 1957.2,1980.0 1903.2,1905.2 1901.2,1906.9" fill="none" stroke="#000000" stroke-width="2" stroke-linejoin="round" stroke-linecap="round"/><text x="1871.4" y="2014.2" font-family="Arial,Helvetica,sans-serif" font-size="16" font-weight="bold" fill="#ff0000" text-anchor="middle" dominant-baseline="middle">106</text><polyline points="1710.0,1958.0 1667.2,1939.2 1667.2,2082.0 1710.0,2082.0 1774.0,2082.0 1774.0,1980.0 1710.0,1958.0" fill="none" stroke="#000000" stroke-width="2" stroke-linejoin="round" stroke-linecap="round"/><text x="1717.6" y="2020.9" font-family="Arial,Helvetica,sans-serif" font-size="16" font-weight="bold" fill="#ff0000" text-anchor="middle" dominant-baseline="middle">107</text><polyline points="1601.2,1914.0 1599.8,2035.7 1600.0,2036.0 1599.7,2036.1 1599.2,2082.0 1667.2,2082.0 1667.2,1939.2 1667.2,1809.2 1601.2,1914.0" fill="none" stroke="#000000" stroke-width="2" stroke-linejoin="round" stroke-linecap="round"/><text x="1636.4" y="1970.4" font-family="Arial,Helvetica,sans-serif" font-size="16" font-weight="bold" fill="#ff0000" text-anchor="middle" dominant-baseline="middle">96</text><polyline points="1444.0,1803.2 1426.0,1819.2 1413.2,1836.0 1403.2,1855.2 1396.0,1878.0 1393.2,1899.2 1393.2,2034.9 1394.0,2036.0 1393.2,2036.5 1393.2,2082.0 1495.2,2082.0 1599.2,2082.0 1599.7,2036.1 1599.8,2035.7 1601.2,1914.0 1596.0,1875.2 1585.2,1844.0 1574.0,1826.0 1560.0,1811.2 1540.0,1796.0 1520.0,1788.0 1495.2,1788.0 1492.0,1788.0 1465.2,1793.2 1444.0,1803.2" fill="none" stroke="#000000" stroke-width="2" stroke-linejoin="round" stroke-linecap="round"/><text x="1496.7" y="1946.0" font-family="Arial,Helvetica,sans-serif" font-size="16" font-weight="bold" fill="#ff0000" text-anchor="middle" dominant-baseline="middle">90</text><polyline points="1393.2,1899.2 1323.2,1938.0 1323.2,2082.0 1393.2,2082.0 1393.2,2036.5 1393.2,2034.9 1393.2,1899.2" fill="none" stroke="#000000" stroke-width="2" stroke-linejoin="round" stroke-linecap="round"/><text x="1359.6" y="1999.9" font-family="Arial,Helvetica,sans-serif" font-size="16" font-weight="bold" fill="#ff0000" text-anchor="middle" dominant-baseline="middle">105</text><polyline points="1323.2,2082.0 1323.2,1938.0 1323.2,1813.2 1323.2,1699.2 1280.0,1696.0 1280.0,1795.2 1280.0,1918.0 1222.0,1976.0 1222.0,2082.0 1280.0,2082.0 1323.2,2082.0" fill="none" stroke="#000000" stroke-width="2" stroke-linejoin="round" stroke-linecap="round"/><text x="1286.0" y="1929.4" font-family="Arial,Helvetica,sans-serif" font-size="16" font-weight="bold" fill="#ff0000" text-anchor="middle" dominant-baseline="middle">91</text><polyline points="1182.0,2082.0 1222.0,2082.0 1222.0,1976.0 1182.0,1976.0 1095.2,1976.0 1040.0,1976.0 1040.0,2082.0 1095.2,2082.0 1182.0,2082.0" fill="none" stroke="#000000" stroke-width="2" stroke-linejoin="round" stroke-linecap="round"/><text x="1131.0" y="2029.0" font-family="Arial,Helvetica,sans-serif" font-size="16" font-weight="bold" fill="#ff0000" text-anchor="middle" dominant-baseline="middle">108</text><polyline points="1040.0,1807.2 985.2,1843.2 985.2,1976.0 985.2,2017.2 985.2,2082.0 1040.0,2082.0 1040.0,1976.0 1040.0,1932.0 1039.2,1931.2 1039.4,1931.1 1040.0,1930.7 1040.0,1807.2" fill="none" stroke="#000000" stroke-width="2" stroke-linejoin="round" stroke-linecap="round"/><text x="1013.2" y="1953.4" font-family="Arial,Helvetica,sans-serif" font-size="16" font-weight="bold" fill="#ff0000" text-anchor="middle" dominant-baseline="middle">95</text><polyline points="781.2,2017.2 781.2,2082.0 883.2,2082.0 985.2,2082.0 985.2,2017.2 985.2,1976.0 985.2,1843.2 883.2,1843.2 781.2,1843.2 781.2,1899.2 781.2,2017.2" fill="none" stroke="#000000" stroke-width="2" stroke-linejoin="round" stroke-linecap="round"/><text x="883.2" y="1962.6" font-family="Arial,Helvetica,sans-serif" font-size="16" font-weight="bold" fill="#ff0000" text-anchor="middle" dominant-baseline="middle">100</text><polyline points="718.0,1843.2 718.0,1972.0 718.0,2017.2 718.0,2082.0 781.2,2082.0 781.2,2017.2 781.2,1899.2 781.2,1843.2 743.2,1792.0 718.0,1843.2" fill="none" stroke="#000000" stroke-width="2" stroke-linejoin="round" stroke-linecap="round"/><text x="749.4" y="1949.4" font-family="Arial,Helvetica,sans-serif" font-size="16" font-weight="bold" fill="#ff0000" text-anchor="middle" dominant-baseline="middle">92</text><polyline points="510.0,2082.0 617.2,2082.0 718.0,2082.0 718.0,2017.2 718.0,1972.0 718.0,1843.2 617.2,1843.2 510.0,1843.2 510.0,2017.2 510.0,2082.0" fill="none" stroke="#000000" stroke-width="2" stroke-linejoin="round" stroke-linecap="round"/><text x="614.0" y="1962.6" font-family="Arial,Helvetica,sans-serif" font-size="16" font-weight="bold" fill="#ff0000" text-anchor="middle" dominant-baseline="middle">99</text><polyline points="510.0,2082.0 449.2,2082.0 449.2,1843.2 523.2,1729.2 644.0,1698.0 743.2,1792.0 718.0,1843.2 704.0,1803.2 679.2,1772.0 650.0,1756.0 613.2,1750.0 579.2,1759.2 549.2,1772.0 524.0,1803.2 510.0,1843.2 510.0,2017.2 510.0,2082.0" fill="none" stroke="#000000" stroke-width="2" stroke-linejoin="round" stroke-linecap="round"/><text x="479.6" y="1890.0" font-family="Arial,Helvetica,sans-serif" font-size="16" font-weight="bold" fill="#ff0000" text-anchor="middle" dominant-baseline="middle">79</text><polyline points="449.2,2082.0 415.2,2082.0 415.2,2017.2 415.2,1899.2 415.2,1843.2 449.2,1843.2 449.2,2082.0" fill="none" stroke="#000000" stroke-width="2" stroke-linejoin="round" stroke-linecap="round"/><text x="432.2" y="1962.6" font-family="Arial,Helvetica,sans-serif" font-size="16" font-weight="bold" fill="#ff0000" text-anchor="middle" dominant-baseline="middle">98</text><polyline points="301.2,1843.2 301.2,2017.2 301.2,2082.0 351.2,2082.0 415.2,2082.0 415.2,2017.2 415.2,1899.2 415.2,1843.2 301.2,1843.2" fill="none" stroke="#000000" stroke-width="2" stroke-linejoin="round" stroke-linecap="round"/><text x="358.2" y="1962.6" font-family="Arial,Helvetica,sans-serif" font-size="16" font-weight="bold" fill="#ff0000" text-anchor="middle" dominant-baseline="middle">97</text><polyline points="301.2,1843.2 301.2,1757.2 327.2,1757.2 376.0,1777.2 407.2,1811.2 415.2,1843.2 301.2,1843.2" fill="none" stroke="#000000" stroke-width="2" stroke-linejoin="round" stroke-linecap="round"/><text x="348.7" y="1806.6" font-family="Arial,Helvetica,sans-serif" font-size="16" font-weight="bold" fill="#ff0000" text-anchor="middle" dominant-baseline="middle">88</text><polyline points="449.2,1633.2 301.2,1633.2 301.2,1757.2 327.2,1757.2 376.0,1777.2 407.2,1811.2 415.2,1843.2 449.2,1843.2 449.2,1739.8 449.2,1739.2 449.2,1633.2" fill="none" stroke="#000000" stroke-width="2" stroke-linejoin="round" stroke-linecap="round"/><text x="383.8" y="1716.1" font-family="Arial,Helvetica,sans-serif" font-size="16" font-weight="bold" fill="#ff0000" text-anchor="middle" dominant-baseline="middle">69</text><polyline points="449.8,1531.4 449.2,1531.8 301.2,1616.0 301.2,1633.2 449.2,1633.2 572.0,1633.2 511.2,1556.0 449.8,1531.4" fill="none" stroke="#000000" stroke-width="2" stroke-linejoin="round" stroke-linecap="round"/><text x="440.9" y="1596.3" font-family="Arial,Helvetica,sans-serif" font-size="16" font-weight="bold" fill="#ff0000" text-anchor="middle" dominant-baseline="middle">57</text><polyline points="449.8,1531.4 511.2,1556.0 650.0,1556.0 749.2,1468.0 561.2,1468.0 449.8,1531.4" fill="none" stroke="#000000" stroke-width="2" stroke-linejoin="round" stroke-linecap="round"/><text x="598.7" y="1511.4" font-family="Arial,Helvetica,sans-serif" font-size="16" font-weight="bold" fill="#ff0000" text-anchor="middle" dominant-baseline="middle">53</text><polyline points="1774.0,1747.2 1710.0,1814.0 1667.2,1809.2 1667.2,1939.2 1710.0,1958.0 1774.0,1980.0 1774.0,1917.2 1774.0,1747.2" fill="none" stroke="#000000" stroke-width="2" stroke-linejoin="round" stroke-linecap="round"/><text x="1726.3" y="1876.0" font-family="Arial,Helvetica,sans-serif" font-size="16" font-weight="bold" fill="#ff0000" text-anchor="middle" dominant-baseline="middle">83</text><polyline points="1624.0,1609.2 1495.2,1699.2 1667.2,1809.2 1710.0,1814.0 1774.0,1747.2 1710.0,1696.0 1667.2,1699.2 1651.2,1649.2 1624.0,1609.2" fill="none" stroke="#000000" stroke-width="2" stroke-linejoin="round" stroke-linecap="round"/><text x="1638.3" y="1720.9" font-family="Arial,Helvetica,sans-serif" font-size="16" font-weight="bold" fill="#ff0000" text-anchor="middle" dominant-baseline="middle">64</text><polyline points="1684.0,1537.2 1659.2,1547.2 1624.0,1609.2 1651.2,1649.2 1667.2,1699.2 1710.0,1696.0 1774.0,1747.2 1774.0,1600.0 1774.0,1433.2 1620.0,1414.0 1684.0,1537.2" fill="none" stroke="#000000" stroke-width="2" stroke-linejoin="round" stroke-linecap="round"/><text x="1712.1" y="1566.8" font-family="Arial,Helvetica,sans-serif" font-size="16" font-weight="bold" fill="#ff0000" text-anchor="middle" dominant-baseline="middle">46</text><polyline points="1684.0,1537.2 1620.0,1414.0 1571.2,1478.0 1531.2,1468.0 1495.2,1465.2 1495.2,1545.2 1465.2,1548.0 1435.2,1556.0 1495.2,1699.2 1624.0,1609.2 1659.2,1547.2 1684.0,1537.2" fill="none" stroke="#000000" stroke-width="2" stroke-linejoin="round" stroke-linecap="round"/><text x="1558.4" y="1557.5" font-family="Arial,Helvetica,sans-serif" font-size="16" font-weight="bold" fill="#ff0000" text-anchor="middle" dominant-baseline="middle">48</text><polyline points="1620.0,1277.2 1532.6,1307.2 1535.2,1307.2 1535.2,1407.2 1454.0,1407.2 1495.2,1465.2 1531.2,1468.0 1571.2,1478.0 1620.0,1414.0 1620.0,1277.2" fill="none" stroke="#000000" stroke-width="2" stroke-linejoin="round" stroke-linecap="round"/><text x="1561.6" y="1387.4" font-family="Arial,Helvetica,sans-serif" font-size="16" font-weight="bold" fill="#ff0000" text-anchor="middle" dominant-baseline="middle">39</text><polyline points="1372.0,1277.2 1372.0,1420.0 1419.2,1478.0 1458.0,1468.0 1495.2,1465.2 1454.0,1407.2 1454.0,1307.2 1372.0,1277.2" fill="none" stroke="#000000" stroke-width="2" stroke-linejoin="round" stroke-linecap="round"/><text x="1418.5" y="1382.4" font-family="Arial,Helvetica,sans-serif" font-size="16" font-weight="bold" fill="#ff0000" text-anchor="middle" dominant-baseline="middle">38</text><polyline points="1372.0,1420.0 1255.2,1428.0 1330.0,1547.2 1365.2,1609.2 1495.2,1699.2 1435.2,1556.0 1465.2,1548.0 1495.2,1545.2 1495.2,1465.2 1458.0,1468.0 1419.2,1478.0 1372.0,1420.0" fill="none" stroke="#000000" stroke-width="2" stroke-linejoin="round" stroke-linecap="round"/><text x="1392.0" y="1527.5" font-family="Arial,Helvetica,sans-serif" font-size="16" font-weight="bold" fill="#ff0000" text-anchor="middle" dominant-baseline="middle">47</text><polyline points="1291.2,1620.0 1330.0,1547.2 1255.2,1428.0 1255.1,1428.0 1222.0,1432.0 1182.0,1414.0 1182.0,1654.0 1222.0,1632.0 1251.2,1546.0 1291.2,1620.0" fill="none" stroke="#000000" stroke-width="2" stroke-linejoin="round" stroke-linecap="round"/><text x="1238.5" y="1527.1" font-family="Arial,Helvetica,sans-serif" font-size="16" font-weight="bold" fill="#ff0000" text-anchor="middle" dominant-baseline="middle">44</text><polyline points="1330.0,1547.2 1291.2,1620.0 1280.0,1696.0 1323.2,1699.2 1495.2,1699.2 1365.2,1609.2 1330.0,1547.2" fill="none" stroke="#000000" stroke-width="2" stroke-linejoin="round" stroke-linecap="round"/><text x="1358.9" y="1651.2" font-family="Arial,Helvetica,sans-serif" font-size="16" font-weight="bold" fill="#ff0000" text-anchor="middle" dominant-baseline="middle">62</text><polyline points="1280.0,1795.2 1280.0,1696.0 1291.2,1620.0 1251.2,1546.0 1222.0,1632.0 1182.0,1654.0 1182.0,1820.0 1222.0,1735.2 1280.0,1795.2" fill="none" stroke="#000000" stroke-width="2" stroke-linejoin="round" stroke-linecap="round"/><text x="1237.3" y="1684.3" font-family="Arial,Helvetica,sans-serif" font-size="16" font-weight="bold" fill="#ff0000" text-anchor="middle" dominant-baseline="middle">59</text><polyline points="1182.0,1820.0 1182.0,1976.0 1222.0,1976.0 1280.0,1918.0 1280.0,1795.2 1222.0,1735.2 1182.0,1820.0" fill="none" stroke="#000000" stroke-width="2" stroke-linejoin="round" stroke-linecap="round"/><text x="1228.8" y="1864.3" font-family="Arial,Helvetica,sans-serif" font-size="16" font-weight="bold" fill="#ff0000" text-anchor="middle" dominant-baseline="middle">82</text><polyline points="1366.0,1227.2 1222.0,1227.2 1182.0,1227.2 1182.0,1414.0 1222.0,1432.0 1255.1,1428.0 1255.2,1428.0 1372.0,1420.0 1372.0,1277.2 1366.0,1227.2" fill="none" stroke="#000000" stroke-width="2" stroke-linejoin="round" stroke-linecap="round"/><text x="1276.3" y="1326.4" font-family="Arial,Helvetica,sans-serif" font-size="16" font-weight="bold" fill="#ff0000" text-anchor="middle" dominant-baseline="middle">33</text><polyline points="511.2,1556.0 572.0,1633.2 747.2,1633.2 840.0,1556.0 650.0,1556.0 511.2,1556.0" fill="none" stroke="#000000" stroke-width="2" stroke-linejoin="round" stroke-linecap="round"/><text x="668.4" y="1590.7" font-family="Arial,Helvetica,sans-serif" font-size="16" font-weight="bold" fill="#ff0000" text-anchor="middle" dominant-baseline="middle">58</text><polyline points="840.0,1556.0 1004.0,1556.0 1040.0,1468.0 900.2,1468.0 899.6,1468.4 898.4,1469.2 899.2,1468.0 749.2,1468.0 650.0,1556.0 840.0,1556.0" fill="none" stroke="#000000" stroke-width="2" stroke-linejoin="round" stroke-linecap="round"/><text x="859.7" y="1513.4" font-family="Arial,Helvetica,sans-serif" font-size="16" font-weight="bold" fill="#ff0000" text-anchor="middle" dominant-baseline="middle">50</text><polyline points="1004.0,1556.0 840.0,1556.0 747.2,1633.2 920.0,1633.2 1040.0,1633.2 1040.0,1556.0 1040.0,1468.0 1004.0,1556.0" fill="none" stroke="#000000" stroke-width="2" stroke-linejoin="round" stroke-linecap="round"/><text x="924.0" y="1591.6" font-family="Arial,Helvetica,sans-serif" font-size="16" font-weight="bold" fill="#ff0000" text-anchor="middle" dominant-baseline="middle">56</text><polyline points="644.0,1698.0 572.0,1633.2 449.2,1633.2 449.2,1739.2 449.2,1739.8 449.2,1843.2 523.2,1729.2 644.0,1698.0" fill="none" stroke="#000000" stroke-width="2" stroke-linejoin="round" stroke-linecap="round"/><text x="515.3" y="1700.1" font-family="Arial,Helvetica,sans-serif" font-size="16" font-weight="bold" fill="#ff0000" text-anchor="middle" dominant-baseline="middle">70</text><polyline points="650.0,1756.0 613.2,1750.0 579.2,1759.2 549.2,1772.0 524.0,1803.2 510.0,1843.2 617.2,1843.2 718.0,1843.2 704.0,1803.2 679.2,1772.0 650.0,1756.0" fill="none" stroke="#000000" stroke-width="2" stroke-linejoin="round" stroke-linecap="round"/><text x="614.3" y="1804.6" font-family="Arial,Helvetica,sans-serif" font-size="16" font-weight="bold" fill="#ff0000" text-anchor="middle" dominant-baseline="middle">84</text><polyline points="920.0,1633.2 825.4,1715.8 916.0,1756.0 946.0,1772.0 970.0,1803.2 985.2,1843.2 1040.0,1807.2 1040.0,1633.2 920.0,1633.2" fill="none" stroke="#000000" stroke-width="2" stroke-linejoin="round" stroke-linecap="round"/><text x="962.9" y="1716.7" font-family="Arial,Helvetica,sans-serif" font-size="16" font-weight="bold" fill="#ff0000" text-anchor="middle" dominant-baseline="middle">67</text><polyline points="916.0,1756.0 880.0,1750.0 845.2,1759.2 816.0,1772.0 791.2,1803.2 781.2,1843.2 883.2,1843.2 985.2,1843.2 970.0,1803.2 946.0,1772.0 916.0,1756.0" fill="none" stroke="#000000" stroke-width="2" stroke-linejoin="round" stroke-linecap="round"/><text x="881.6" y="1804.4" font-family="Arial,Helvetica,sans-serif" font-size="16" font-weight="bold" fill="#ff0000" text-anchor="middle" dominant-baseline="middle">85</text><polyline points="920.0,1633.2 747.2,1633.2 644.0,1698.0 743.2,1792.0 781.2,1843.2 791.2,1803.2 816.0,1772.0 845.2,1759.2 880.0,1750.0 916.0,1756.0 825.4,1715.8 920.0,1633.2" fill="none" stroke="#000000" stroke-width="2" stroke-linejoin="round" stroke-linecap="round"/><text x="777.2" y="1709.8" font-family="Arial,Helvetica,sans-serif" font-size="16" font-weight="bold" fill="#ff0000" text-anchor="middle" dominant-baseline="middle">66</text><polyline points="2350.0,1701.2 2251.5,1633.4 2155.7,1719.3 2119.2,1752.0 2148.0,1756.0 2178.0,1772.0 2202.0,1803.2 2217.2,1843.2 2246.1,1812.3 2350.0,1701.2" fill="none" stroke="#000000" stroke-width="2" stroke-linejoin="round" stroke-linecap="round"/><text x="2239.9" y="1729.1" font-family="Arial,Helvetica,sans-serif" font-size="16" font-weight="bold" fill="#ff0000" text-anchor="middle" dominant-baseline="middle">73</text><polyline points="2148.0,1756.0 2119.2,1752.0 2077.2,1759.2 2048.0,1772.0 2023.2,1803.2 2014.0,1843.2 2115.2,1843.2 2217.2,1843.2 2202.0,1803.2 2178.0,1772.0 2148.0,1756.0" fill="none" stroke="#000000" stroke-width="2" stroke-linejoin="round" stroke-linecap="round"/><text x="2113.8" y="1804.7" font-family="Arial,Helvetica,sans-serif" font-size="16" font-weight="bold" fill="#ff0000" text-anchor="middle" dominant-baseline="middle">86</text><polyline points="1997.2,1707.3 1957.2,1634.0 1957.2,1814.0 2014.0,1843.2 2023.2,1803.2 2048.0,1772.0 2077.2,1759.2 2119.2,1752.0 2155.7,1719.3 2073.7,1634.8 1997.5,1707.7 1997.2,1708.0 1997.2,1707.3" fill="none" stroke="#000000" stroke-width="2" stroke-linejoin="round" stroke-linecap="round"/><text x="2035.8" y="1731.3" font-family="Arial,Helvetica,sans-serif" font-size="16" font-weight="bold" fill="#ff0000" text-anchor="middle" dominant-baseline="middle">72</text><polyline points="2246.1,1812.3 2276.0,1843.2 2285.2,1803.2 2310.0,1772.0 2339.2,1759.2 2374.0,1750.0 2410.0,1756.0 2440.0,1772.0 2465.2,1803.2 2479.2,1843.2 2542.0,1843.2 2542.0,1738.9 2474.0,1729.2 2350.0,1701.2 2246.1,1812.3" fill="none" stroke="#000000" stroke-width="2" stroke-linejoin="round" stroke-linecap="round"/><text x="2296.7" y="1772.2" font-family="Arial,Helvetica,sans-serif" font-size="16" font-weight="bold" fill="#ff0000" text-anchor="middle" dominant-baseline="middle">78</text><polyline points="2410.0,1756.0 2374.0,1750.0 2339.2,1759.2 2310.0,1772.0 2285.2,1803.2 2276.0,1843.2 2377.2,1843.2 2479.2,1843.2 2465.2,1803.2 2440.0,1772.0 2410.0,1756.0" fill="none" stroke="#000000" stroke-width="2" stroke-linejoin="round" stroke-linecap="round"/><text x="2376.0" y="1804.4" font-family="Arial,Helvetica,sans-serif" font-size="16" font-weight="bold" fill="#ff0000" text-anchor="middle" dominant-baseline="middle">87</text><polyline points="1151.2,1227.2 1095.2,1227.2 1040.0,1227.2 918.0,1227.2 1040.0,1339.2 1040.0,1379.2 1040.0,1468.0 1095.2,1462.0 1182.0,1414.0 1182.0,1227.2 1151.2,1227.2" fill="none" stroke="#000000" stroke-width="2" stroke-linejoin="round" stroke-linecap="round"/><text x="1088.5" y="1325.3" font-family="Arial,Helvetica,sans-serif" font-size="16" font-weight="bold" fill="#ff0000" text-anchor="middle" dominant-baseline="middle">32</text><polyline points="1040.0,1339.2 749.2,1468.0 899.2,1468.0 900.2,1468.0 1040.0,1468.0 1040.0,1379.2 1040.0,1339.2" fill="none" stroke="#000000" stroke-width="2" stroke-linejoin="round" stroke-linecap="round"/><text x="943.1" y="1425.1" font-family="Arial,Helvetica,sans-serif" font-size="16" font-weight="bold" fill="#ff0000" text-anchor="middle" dominant-baseline="middle">41</text><polyline points="2436.0,1468.0 2337.9,1555.9 2338.0,1556.0 2337.8,1556.0 2251.7,1633.2 2251.5,1633.4 2350.0,1701.2 2429.2,1633.2 2486.0,1556.0 2436.0,1468.0" fill="none" stroke="#000000" stroke-width="2" stroke-linejoin="round" stroke-linecap="round"/><text x="2379.1" y="1592.3" font-family="Arial,Helvetica,sans-serif" font-size="16" font-weight="bold" fill="#ff0000" text-anchor="middle" dominant-baseline="middle">54</text><polyline points="2436.0,1468.0 2248.0,1468.0 2156.0,1556.0 2156.0,1556.0 2251.2,1633.2 2251.7,1633.2 2337.8,1556.0 2337.9,1555.9 2436.0,1468.0" fill="none" stroke="#000000" stroke-width="2" stroke-linejoin="round" stroke-linecap="round"/><text x="2280.8" y="1532.9" font-family="Arial,Helvetica,sans-serif" font-size="16" font-weight="bold" fill="#ff0000" text-anchor="middle" dominant-baseline="middle">52</text><polyline points="2096.9,1468.0 1997.2,1468.0 1957.2,1468.0 1957.2,1556.0 1957.2,1591.2 1997.2,1556.0 2156.0,1556.0 2156.0,1556.0 2248.0,1468.0 2097.2,1468.0 2097.4,1468.3 2097.1,1468.1 2096.9,1468.0" fill="none" stroke="#000000" stroke-width="2" stroke-linejoin="round" stroke-linecap="round"/><text x="2077.6" y="1511.1" font-family="Arial,Helvetica,sans-serif" font-size="16" font-weight="bold" fill="#ff0000" text-anchor="middle" dominant-baseline="middle">51</text><polyline points="1957.2,1633.2 1957.2,1634.0 1997.2,1707.3 1997.5,1707.7 2073.7,1634.8 2155.7,1719.3 2251.5,1633.4 2251.2,1633.2 2156.0,1556.0 2156.0,1556.0 1997.2,1556.0 1957.2,1591.2 1957.2,1633.2" fill="none" stroke="#000000" stroke-width="2" stroke-linejoin="round" stroke-linecap="round"/><text x="2093.8" y="1623.0" font-family="Arial,Helvetica,sans-serif" font-size="16" font-weight="bold" fill="#ff0000" text-anchor="middle" dominant-baseline="middle">61</text><polyline points="2350.0,1701.2 2474.0,1729.2 2542.0,1738.9 2542.0,1738.0 2542.0,1633.2 2429.2,1633.2 2350.0,1701.2" fill="none" stroke="#000000" stroke-width="2" stroke-linejoin="round" stroke-linecap="round"/><text x="2467.4" y="1682.5" font-family="Arial,Helvetica,sans-serif" font-size="16" font-weight="bold" fill="#ff0000" text-anchor="middle" dominant-baseline="middle">68</text><polyline points="1413.2,1836.0 1426.0,1819.2 1444.0,1803.2 1465.2,1793.2 1492.0,1788.0 1495.2,1788.0 1495.2,1699.2 1323.2,1813.2 1323.2,1938.0 1393.2,1899.2 1396.0,1878.0 1403.2,1855.2 1413.2,1836.0" fill="none" stroke="#000000" stroke-width="2" stroke-linejoin="round" stroke-linecap="round"/><text x="1398.6" y="1816.5" font-family="Arial,Helvetica,sans-serif" font-size="16" font-weight="bold" fill="#ff0000" text-anchor="middle" dominant-baseline="middle">76</text><polyline points="1323.2,1813.2 1323.2,1699.2 1495.2,1699.2 1323.2,1813.2" fill="none" stroke="#000000" stroke-width="2" stroke-linejoin="round" stroke-linecap="round"/><text x="1380.5" y="1737.2" font-family="Arial,Helvetica,sans-serif" font-size="16" font-weight="bold" fill="#ff0000" text-anchor="middle" dominant-baseline="middle">60</text><polyline points="1366.0,1227.2 1372.0,1277.2 1454.0,1307.2 1532.6,1307.2 1620.0,1277.2 1620.0,1227.2 1528.0,1227.2 1366.0,1227.2" fill="none" stroke="#000000" stroke-width="2" stroke-linejoin="round" stroke-linecap="round"/><text x="1494.6" y="1262.6" font-family="Arial,Helvetica,sans-serif" font-size="16" font-weight="bold" fill="#ff0000" text-anchor="middle" dominant-baseline="middle">34</text><polyline points="1620.0,1277.2 1620.0,1414.0 1774.0,1433.2 1815.2,1414.0 1815.2,1227.2 1774.0,1227.2 1620.0,1227.2 1620.0,1277.2" fill="none" stroke="#000000" stroke-width="2" stroke-linejoin="round" stroke-linecap="round"/><text x="1718.5" y="1325.5" font-family="Arial,Helvetica,sans-serif" font-size="16" font-weight="bold" fill="#ff0000" text-anchor="middle" dominant-baseline="middle">35</text><polyline points="1499.2,568.0 1499.2,606.0 1641.2,606.0 1753.2,606.0 1846.0,606.0 1883.4,606.0 1903.2,568.0 1846.0,568.0 1753.2,568.0 1499.2,568.0" fill="none" stroke="#000000" stroke-width="2" stroke-linejoin="round" stroke-linecap="round"/><text x="1696.3" y="586.8" font-family="Arial,Helvetica,sans-serif" font-size="16" font-weight="bold" fill="#ff0000" text-anchor="middle" dominant-baseline="middle">10</text><polyline points="1883.4,606.0 1846.0,606.0 1753.2,606.0 1753.2,679.2 1753.2,738.0 1753.2,897.2 1846.0,813.2 1846.0,678.0 1883.4,606.0" fill="none" stroke="#000000" stroke-width="2" stroke-linejoin="round" stroke-linecap="round"/><text x="1800.4" y="726.2" font-family="Arial,Helvetica,sans-serif" font-size="16" font-weight="bold" fill="#ff0000" text-anchor="middle" dominant-baseline="middle">14</text><polyline points="1706.0,679.2 1653.2,797.2 1753.2,738.0 1753.2,679.2 1753.2,606.0 1641.2,606.0 1706.0,679.2" fill="none" stroke="#000000" stroke-width="2" stroke-linejoin="round" stroke-linecap="round"/><text x="1711.7" y="682.7" font-family="Arial,Helvetica,sans-serif" font-size="16" font-weight="bold" fill="#ff0000" text-anchor="middle" dominant-baseline="middle">13</text><polyline points="1368.0,1088.0 1336.0,1088.0 1243.2,1088.0 1151.2,1088.0 1151.2,1227.2 1182.0,1227.2 1222.0,1227.2 1366.0,1227.2 1354.0,1189.2 1354.0,1141.2 1368.0,1088.0" fill="none" stroke="#000000" stroke-width="2" stroke-linejoin="round" stroke-linecap="round"/><text x="1254.8" y="1157.4" font-family="Arial,Helvetica,sans-serif" font-size="16" font-weight="bold" fill="#ff0000" text-anchor="middle" dominant-baseline="middle">28</text><polyline points="1368.0,1088.0 1354.0,1141.2 1354.0,1189.2 1366.0,1227.2 1528.0,1227.2 1543.2,1189.2 1543.2,1141.2 1531.2,1088.0 1368.0,1088.0" fill="none" stroke="#000000" stroke-width="2" stroke-linejoin="round" stroke-linecap="round"/><text x="1448.6" y="1157.9" font-family="Arial,Helvetica,sans-serif" font-size="16" font-weight="bold" fill="#ff0000" text-anchor="middle" dominant-baseline="middle">29</text><polyline points="1753.2,1088.0 1531.2,1088.0 1543.2,1141.2 1543.2,1189.2 1528.0,1227.2 1620.0,1227.2 1774.0,1227.2 1815.2,1227.2 1846.0,1227.2 1846.0,1088.0 1753.2,1034.0 1753.2,1088.0" fill="none" stroke="#000000" stroke-width="2" stroke-linejoin="round" stroke-linecap="round"/><text x="1697.5" y="1152.7" font-family="Arial,Helvetica,sans-serif" font-size="16" font-weight="bold" fill="#ff0000" text-anchor="middle" dominant-baseline="middle">27</text><polyline points="1243.2,679.2 1151.2,679.2 1151.2,813.2 1243.2,881.2 1243.2,743.2 1243.2,679.2" fill="none" stroke="#000000" stroke-width="2" stroke-linejoin="round" stroke-linecap="round"/><text x="1200.3" y="764.3" font-family="Arial,Helvetica,sans-serif" font-size="16" font-weight="bold" fill="#ff0000" text-anchor="middle" dominant-baseline="middle">15</text><polyline points="1151.2,1017.2 1151.2,1088.0 1243.2,1088.0 1243.2,1034.0 1305.2,1034.0 1306.0,1034.0 1344.0,932.0 1243.2,881.2 1151.2,813.2 1151.2,1017.2" fill="none" stroke="#000000" stroke-width="2" stroke-linejoin="round" stroke-linecap="round"/><text x="1224.0" y="965.9" font-family="Arial,Helvetica,sans-serif" font-size="16" font-weight="bold" fill="#ff0000" text-anchor="middle" dominant-baseline="middle">22</text><polyline points="1753.2,897.2 1655.2,939.2 1605.2,1043.2 1531.2,1088.0 1753.2,1088.0 1753.2,1034.0 1753.2,897.2" fill="none" stroke="#000000" stroke-width="2" stroke-linejoin="round" stroke-linecap="round"/><text x="1682.3" y="1014.5" font-family="Arial,Helvetica,sans-serif" font-size="16" font-weight="bold" fill="#ff0000" text-anchor="middle" dominant-baseline="middle">24</text><polyline points="1846.0,813.2 1753.2,897.2 1753.2,1034.0 1846.0,1088.0 1846.0,1018.0 1846.0,813.2" fill="none" stroke="#000000" stroke-width="2" stroke-linejoin="round" stroke-linecap="round"/><text x="1804.8" y="957.3" font-family="Arial,Helvetica,sans-serif" font-size="16" font-weight="bold" fill="#ff0000" text-anchor="middle" dominant-baseline="middle">23</text><polyline points="1901.2,1748.9 1815.2,1714.5 1814.0,1714.0 1815.2,1712.1 1815.2,1600.0 1774.0,1600.0 1774.0,1747.2 1774.0,1917.2 1774.0,1980.0 1815.2,1980.0 1901.2,1906.9 1901.2,1903.4 1901.2,1749.9 1901.2,1748.9" fill="none" stroke="#000000" stroke-width="2" stroke-linejoin="round" stroke-linecap="round"/><text x="1826.8" y="1816.0" font-family="Arial,Helvetica,sans-serif" font-size="16" font-weight="bold" fill="#ff0000" text-anchor="middle" dominant-baseline="middle">80</text><polyline points="1957.2,1634.0 1957.2,1633.2 1902.0,1749.2 1901.2,1749.9 1901.2,1903.4 1903.2,1905.2 1957.2,1980.0 1957.2,1814.0 1957.2,1634.0" fill="none" stroke="#000000" stroke-width="2" stroke-linejoin="round" stroke-linecap="round"/><text x="1932.9" y="1815.3" font-family="Arial,Helvetica,sans-serif" font-size="16" font-weight="bold" fill="#ff0000" text-anchor="middle" dominant-baseline="middle">74</text><polyline points="1815.2,1600.0 1815.2,1712.1 1815.2,1714.5 1901.2,1748.9 1902.0,1749.2 1957.2,1633.2 1901.2,1574.0 1815.2,1600.0" fill="none" stroke="#000000" stroke-width="2" stroke-linejoin="round" stroke-linecap="round"/><text x="1877.9" y="1657.5" font-family="Arial,Helvetica,sans-serif" font-size="16" font-weight="bold" fill="#ff0000" text-anchor="middle" dominant-baseline="middle">63</text><polyline points="1901.2,1460.0 1815.2,1414.0 1774.0,1433.2 1774.0,1600.0 1815.2,1600.0 1901.2,1574.0 1901.2,1460.0" fill="none" stroke="#000000" stroke-width="2" stroke-linejoin="round" stroke-linecap="round"/><text x="1833.2" y="1511.6" font-family="Arial,Helvetica,sans-serif" font-size="16" font-weight="bold" fill="#ff0000" text-anchor="middle" dominant-baseline="middle">43</text><polyline points="1815.2,1227.2 1815.2,1414.0 1901.2,1460.0 1957.2,1468.0 1957.2,1379.6 1957.2,1339.2 1957.2,1227.2 1901.2,1227.2 1846.0,1227.2 1815.2,1227.2" fill="none" stroke="#000000" stroke-width="2" stroke-linejoin="round" stroke-linecap="round"/><text x="1889.2" y="1338.1" font-family="Arial,Helvetica,sans-serif" font-size="16" font-weight="bold" fill="#ff0000" text-anchor="middle" dominant-baseline="middle">36</text><polyline points="1901.2,1460.0 1901.2,1574.0 1957.2,1633.2 1957.2,1591.2 1957.2,1556.0 1957.2,1468.0 1901.2,1460.0" fill="none" stroke="#000000" stroke-width="2" stroke-linejoin="round" stroke-linecap="round"/><text x="1930.9" y="1534.8" font-family="Arial,Helvetica,sans-serif" font-size="16" font-weight="bold" fill="#ff0000" text-anchor="middle" dominant-baseline="middle">49</text><polyline points="644.0,1698.0 572.0,1633.2 747.2,1633.2 644.0,1698.0" fill="none" stroke="#000000" stroke-width="2" stroke-linejoin="round" stroke-linecap="round"/><text x="654.4" y="1654.8" font-family="Arial,Helvetica,sans-serif" font-size="16" font-weight="bold" fill="#ff0000" text-anchor="middle" dominant-baseline="middle">65</text><polyline points="1095.2,1730.0 1040.0,1807.2 1040.0,1930.7 1040.0,1931.8 1040.0,1932.0 1040.0,1976.0 1095.2,1976.0 1182.0,1976.0 1182.0,1820.0 1182.0,1654.0 1095.2,1730.0" fill="none" stroke="#000000" stroke-width="2" stroke-linejoin="round" stroke-linecap="round"/><text x="1117.9" y="1845.2" font-family="Arial,Helvetica,sans-serif" font-size="16" font-weight="bold" fill="#ff0000" text-anchor="middle" dominant-baseline="middle">75</text><polyline points="1040.0,1468.0 1040.0,1556.0 1040.0,1633.2 1040.0,1807.2 1095.2,1730.0 1182.0,1654.0 1182.0,1414.0 1095.2,1462.0 1040.0,1468.0" fill="none" stroke="#000000" stroke-width="2" stroke-linejoin="round" stroke-linecap="round"/><text x="1107.0" y="1588.0" font-family="Arial,Helvetica,sans-serif" font-size="16" font-weight="bold" fill="#ff0000" text-anchor="middle" dominant-baseline="middle">45</text><polyline points="1520.0,1788.0 1495.2,1788.0 1495.2,1699.2 1667.2,1809.2 1601.2,1914.0 1596.0,1875.2 1585.2,1844.0 1574.0,1826.0 1560.0,1811.2 1540.0,1796.0 1520.0,1788.0" fill="none" stroke="#000000" stroke-width="2" stroke-linejoin="round" stroke-linecap="round"/><text x="1577.2" y="1795.8" font-family="Arial,Helvetica,sans-serif" font-size="16" font-weight="bold" fill="#ff0000" text-anchor="middle" dominant-baseline="middle">77</text><polyline points="1532.6,1307.2 1454.0,1307.2 1454.0,1407.2 1535.2,1407.2 1535.2,1307.2 1532.6,1307.2" fill="none" stroke="#000000" stroke-width="2" stroke-linejoin="round" stroke-linecap="round"/><text x="1494.6" y="1357.2" font-family="Arial,Helvetica,sans-serif" font-size="16" font-weight="bold" fill="#ff0000" text-anchor="middle" dominant-baseline="middle">40</text><polyline points="918.0,1227.2 1040.0,1227.2 1095.2,1227.2 1151.2,1227.2 1151.2,1088.0 918.0,1227.2" fill="none" stroke="#000000" stroke-width="2" stroke-linejoin="round" stroke-linecap="round"/><text x="1073.5" y="1180.8" font-family="Arial,Helvetica,sans-serif" font-size="16" font-weight="bold" fill="#ff0000" text-anchor="middle" dominant-baseline="middle">30</text><polyline points="1846.0,1227.2 1901.2,1227.2 1957.2,1227.2 2079.2,1227.2 1846.0,1088.0 1846.0,1227.2" fill="none" stroke="#000000" stroke-width="2" stroke-linejoin="round" stroke-linecap="round"/><text x="1923.7" y="1180.8" font-family="Arial,Helvetica,sans-serif" font-size="16" font-weight="bold" fill="#ff0000" text-anchor="middle" dominant-baseline="middle">31</text><polyline points="1957.2,1227.2 2079.2,1227.2 1957.2,1339.2 1957.2,1227.2" fill="none" stroke="#000000" stroke-width="2" stroke-linejoin="round" stroke-linecap="round"/><text x="1997.9" y="1264.5" font-family="Arial,Helvetica,sans-serif" font-size="16" font-weight="bold" fill="#ff0000" text-anchor="middle" dominant-baseline="middle">37</text><polyline points="2097.2,1468.0 2248.0,1468.0 1957.2,1339.2 1957.2,1379.6 1957.2,1468.0 1997.2,1468.0 2096.9,1468.0 2097.2,1468.0" fill="none" stroke="#000000" stroke-width="2" stroke-linejoin="round" stroke-linecap="round"/><text x="2054.1" y="1425.1" font-family="Arial,Helvetica,sans-serif" font-size="16" font-weight="bold" fill="#ff0000" text-anchor="middle" dominant-baseline="middle">42</text></svg>