<svg xmlns="http://www.w3.org/2000/svg" width="2955" height="2160" viewBox="0 0 2955 2160">
<polyline points="304,50 82,194 50,194 92,242 518,242 560,194 528,194 304,50" fill="none" stroke="#000000" stroke-width="4" stroke-linejoin="round" stroke-linecap="round"/>
<polyline points="817,1680 785,1800 747,1940 736,1428 817,1680" fill="none" stroke="#000000" stroke-width="4" stroke-linejoin="round" stroke-linecap="round"/>
<polyline points="2248,426 2248,594 2340,594 2382,554 2382,474 2340,426 2248,426" fill="none" stroke="#000000" stroke-width="4" stroke-linejoin="round" stroke-linecap="round"/>
<polyline points="2586,180 2586,50 2441,50 2533,186 2586,180" fill="none" stroke="#000000" stroke-width="4" stroke-linejoin="round" stroke-linecap="round"/>
<polyline points="50,1999 50,2078 476,2078 476,1999 50,1999" fill="none" stroke="#000000" stroke-width="4" stroke-linejoin="round" stroke-linecap="round"/>
<polyline points="2037,1463 1996,1511 1996,1591 2037,1631 2130,1631 2130,1463 2037,1463" fill="none" stroke="#000000" stroke-width="4" stroke-linejoin="round" stroke-linecap="round"/>
<polyline points="859,1019 929,1277 848,1531 859,1019" fill="none" stroke="#000000" stroke-width="4" stroke-linejoin="round" stroke-linecap="round"/>
<polyline points="2617,50 2617,180 2669,186 2761,50 2617,50" fill="none" stroke="#000000" stroke-width="4" stroke-linejoin="round" stroke-linecap="round"/>
<polyline points="799,50 665,98 590,204 627,234 657,201 696,180 740,171 784,176 825,196 857,226 864,238 876,225 885,96 799,50" fill="none" stroke="#000000" stroke-width="4" stroke-linejoin="round" stroke-linecap="round"/>
<polyline points="1139,1097 1119,1137 1113,1181 1119,1225 1139,1265 1171,1297 1211,1317 1255,1323 1255,1261 1231,1257 1207,1247 1189,1229 1179,1205 1175,1181 1179,1157 1189,1133 1207,1115 1231,1105 1255,1101 1255,1039 1211,1045 1171,1065 1139,1097" fill="none" stroke="#000000" stroke-width="4" stroke-linejoin="round" stroke-linecap="round"/>
<polyline points="642,1769 674,1737 650,1697 502,1697 502,1899 602,1949 674,1969 642,1937 622,1897 616,1853 622,1809 642,1769" fill="none" stroke="#000000" stroke-width="4" stroke-linejoin="round" stroke-linecap="round"/>
<polyline points="1802,1027 1809,872 1778,904 1740,924 1683,972 1744,1062 1708,1113 1752,1144 1806,1068 1802,1027" fill="none" stroke="#000000" stroke-width="4" stroke-linejoin="round" stroke-linecap="round"/>
<polyline points="1293,490 1277,532 1283,687 1290,728 1388,559 1386,473 1321,378 1293,490" fill="none" stroke="#000000" stroke-width="4" stroke-linejoin="round" stroke-linecap="round"/>
<polyline points="1093,288 1117,298 1135,316 1145,340 1149,364 1145,388 1135,412 1117,430 1093,440 1069,444 1069,506 1113,500 1153,480 1185,448 1205,408 1211,364 1205,320 1185,280 1153,248 1113,228 1069,222 1069,284 1093,288" fill="none" stroke="#000000" stroke-width="4" stroke-linejoin="round" stroke-linecap="round"/>
<polyline points="1242,50 1243,166 1242,184 1270,194 1305,223 1329,260 1341,303 1339,347 1367,235 1379,129 1242,50" fill="none" stroke="#000000" stroke-width="4" stroke-linejoin="round" stroke-linecap="round"/>
<polyline points="2845,970 2845,810 2821,814 2797,824 2779,842 2769,866 2765,890 2769,914 2779,938 2797,956 2821,966 2845,970" fill="none" stroke="#000000" stroke-width="4" stroke-linejoin="round" stroke-linecap="round"/>
<polyline points="2702,824 2678,814 2654,810 2654,970 2678,966 2702,956 2720,938 2730,914 2734,890 2730,866 2720,842 2702,824" fill="none" stroke="#000000" stroke-width="4" stroke-linejoin="round" stroke-linecap="round"/>
<polyline points="2103,2002 1677,2002 1635,2042 2145,2042 2103,2002" fill="none" stroke="#000000" stroke-width="4" stroke-linejoin="round" stroke-linecap="round"/>
<polyline points="2452,408 2471,446 2858,446 2858,408 2452,408" fill="none" stroke="#000000" stroke-width="4" stroke-linejoin="round" stroke-linecap="round"/>
<polyline points="1660,1898 1406,1898 1276,1898 1314,1971 1554,1971 1660,1898" fill="none" stroke="#000000" stroke-width="4" stroke-linejoin="round" stroke-linecap="round"/>
<polyline points="1114,2079 1114,2062 854,1914 904,2002 848,2079 1114,2079" fill="none" stroke="#000000" stroke-width="4" stroke-linejoin="round" stroke-linecap="round"/>
<polyline points="2249,930 2249,1035 2371,1053 2402,1046 2402,930 2249,930" fill="none" stroke="#000000" stroke-width="4" stroke-linejoin="round" stroke-linecap="round"/>
<polyline points="2362,1541 2335,1546 2336,1548 2331,1547 2318,1550 2288,1563 2262,1593 2246,1634 2362,1634 2362,1541" fill="none" stroke="#000000" stroke-width="4" stroke-linejoin="round" stroke-linecap="round"/>
<polyline points="1727,1506 1727,1744 1843,1744 1843,1506 1727,1506" fill="none" stroke="#000000" stroke-width="4" stroke-linejoin="round" stroke-linecap="round"/>
<polyline points="1082,1056 960,1039 960,1382 997,1382 997,1143 1014,1102 1040,1072 1070,1059 1082,1056" fill="none" stroke="#000000" stroke-width="4" stroke-linejoin="round" stroke-linecap="round"/>
<polyline points="2523,790 2461,790 2461,1028 2523,1028 2523,790" fill="none" stroke="#000000" stroke-width="4" stroke-linejoin="round" stroke-linecap="round"/>
<polyline points="791,538 791,776 994,776 994,538 791,538" fill="none" stroke="#000000" stroke-width="4" stroke-linejoin="round" stroke-linecap="round"/>
<polyline points="2791,80 2791,319 2849,319 2849,80 2819,50 2791,80" fill="none" stroke="#000000" stroke-width="4" stroke-linejoin="round" stroke-linecap="round"/>
<polyline points="835,507 1038,507 1038,269 835,269 835,507" fill="none" stroke="#000000" stroke-width="4" stroke-linejoin="round" stroke-linecap="round"/>
<polyline points="2400,1113 2344,1084 2344,1352 2400,1352 2400,1113" fill="none" stroke="#000000" stroke-width="4" stroke-linejoin="round" stroke-linecap="round"/>
<polyline points="2041,232 1953,306 1912,306 1912,408 2095,408 2095,306 2041,232" fill="none" stroke="#000000" stroke-width="4" stroke-linejoin="round" stroke-linecap="round"/>
<polyline points="2180,68 2138,50 2138,192 2244,192 2244,90 2180,68" fill="none" stroke="#000000" stroke-width="4" stroke-linejoin="round" stroke-linecap="round"/>
<polyline points="2248,1218 2246,1386 2314,1386 2314,1114 2248,1218" fill="none" stroke="#000000" stroke-width="4" stroke-linejoin="round" stroke-linecap="round"/>
<polyline points="370,559 352,575 340,592 330,611 322,634 320,655 320,792 320,838 526,838 528,670 522,631 512,600 500,582 486,567 466,552 446,544 418,544 392,549 370,559" fill="none" stroke="#000000" stroke-width="4" stroke-linejoin="round" stroke-linecap="round"/>
<polyline points="2624,790 2554,828 2554,972 2624,972 2624,790" fill="none" stroke="#000000" stroke-width="4" stroke-linejoin="round" stroke-linecap="round"/>
<polyline points="1245,2039 1245,1656 1202,1653 1202,1875 1144,1933 1144,2039 1245,2039" fill="none" stroke="#000000" stroke-width="4" stroke-linejoin="round" stroke-linecap="round"/>
<polyline points="2249,900 2431,900 2431,794 2249,794 2249,900" fill="none" stroke="#000000" stroke-width="4" stroke-linejoin="round" stroke-linecap="round"/>
<polyline points="2485,1084 2431,1120 2431,1358 2485,1358 2485,1084" fill="none" stroke="#000000" stroke-width="4" stroke-linejoin="round" stroke-linecap="round"/>
<polyline points="502,1428 502,1666 706,1666 706,1428 502,1428" fill="none" stroke="#000000" stroke-width="4" stroke-linejoin="round" stroke-linecap="round"/>
<polyline points="2233,1727 2233,1966 2296,1966 2296,1727 2258,1676 2233,1727" fill="none" stroke="#000000" stroke-width="4" stroke-linejoin="round" stroke-linecap="round"/>
<polyline points="597,507 805,507 805,269 597,269 597,507" fill="none" stroke="#000000" stroke-width="4" stroke-linejoin="round" stroke-linecap="round"/>
<polyline points="266,653 220,692 66,509 50,374 122,273 258,281 272,336 236,315 197,307 164,313 132,332 112,361 97,390 98,430 113,470 266,653" fill="none" stroke="#000000" stroke-width="4" stroke-linejoin="round" stroke-linecap="round"/>
<polyline points="2688,1239 2654,1239 2654,1001 2688,1001 2688,1239" fill="none" stroke="#000000" stroke-width="4" stroke-linejoin="round" stroke-linecap="round"/>
<polyline points="1840,860 1840,1098 1954,1098 1954,860 1840,860" fill="none" stroke="#000000" stroke-width="4" stroke-linejoin="round" stroke-linecap="round"/>
<polyline points="2392,1627 2392,1541 2418,1541 2466,1561 2498,1595 2506,1627 2392,1627" fill="none" stroke="#000000" stroke-width="4" stroke-linejoin="round" stroke-linecap="round"/>
<polyline points="2060,439 1912,439 1912,563 1938,563 1986,583 2018,617 2026,649 2060,649 2060,439" fill="none" stroke="#000000" stroke-width="4" stroke-linejoin="round" stroke-linecap="round"/>
<polyline points="1839,1810 1691,1894 1691,1911 1961,1911 1901,1834 1839,1810" fill="none" stroke="#000000" stroke-width="4" stroke-linejoin="round" stroke-linecap="round"/>
<polyline points="1753,1408 1814,1433 1953,1433 2052,1345 1864,1345 1753,1408" fill="none" stroke="#000000" stroke-width="4" stroke-linejoin="round" stroke-linecap="round"/>
<polyline points="2090,843 2026,909 1984,905 1984,1035 2026,1053 2090,1075 2090,843" fill="none" stroke="#000000" stroke-width="4" stroke-linejoin="round" stroke-linecap="round"/>
<polyline points="1601,701 1570,731 1526,703 1479,690 1439,841 1641,815 1677,791 1683,699 1601,701" fill="none" stroke="#000000" stroke-width="4" stroke-linejoin="round" stroke-linecap="round"/>
<polyline points="462,991 437,1001 402,1063 429,1103 445,1153 488,1150 552,1201 552,887 398,868 462,991" fill="none" stroke="#000000" stroke-width="4" stroke-linejoin="round" stroke-linecap="round"/>
<polyline points="576,544 607,618 578,647 558,677 627,717 614,745 606,775 760,794 747,638 711,576 714,550 576,544" fill="none" stroke="#000000" stroke-width="4" stroke-linejoin="round" stroke-linecap="round"/>
<polyline points="1417,1669 1418,1667 1483,1744 1421,1796 1489,1814 1519,1793 1556,1775 1552,1694 1464,1590 1417,1669" fill="none" stroke="#000000" stroke-width="4" stroke-linejoin="round" stroke-linecap="round"/>
<polyline points="2414,692 2421,656 2354,680 2258,655 2208,726 2345,763 2414,732 2414,692" fill="none" stroke="#000000" stroke-width="4" stroke-linejoin="round" stroke-linecap="round"/>
<polyline points="166,723 50,731 124,850 160,912 290,1002 230,859 260,851 290,848 290,768 252,771 214,781 166,723" fill="none" stroke="#000000" stroke-width="4" stroke-linejoin="round" stroke-linecap="round"/>
<polyline points="1614,1078 1653,1005 1578,886 1545,890 1505,872 1505,1112 1545,1090 1574,1004 1614,1078" fill="none" stroke="#000000" stroke-width="4" stroke-linejoin="round" stroke-linecap="round"/>
<polyline points="1942,50 1903,122 1892,198 1935,202 2107,202 1977,112 1942,50" fill="none" stroke="#000000" stroke-width="4" stroke-linejoin="round" stroke-linecap="round"/>
<polyline points="1685,1755 1685,1656 1696,1580 1656,1506 1627,1592 1587,1614 1587,1780 1627,1695 1685,1755" fill="none" stroke="#000000" stroke-width="4" stroke-linejoin="round" stroke-linecap="round"/>
<polyline points="2121,927 2121,1083 2161,1083 2219,1025 2219,903 2161,843 2121,927" fill="none" stroke="#000000" stroke-width="4" stroke-linejoin="round" stroke-linecap="round"/>
<polyline points="1469,999 1285,999 1285,1185 1325,1203 1358,1199 1475,1191 1475,1049 1469,999" fill="none" stroke="#000000" stroke-width="4" stroke-linejoin="round" stroke-linecap="round"/>
<polyline points="1276,2002 1336,2079 1512,2079 1604,2002 1276,2002" fill="none" stroke="#000000" stroke-width="4" stroke-linejoin="round" stroke-linecap="round"/>
<polyline points="1285,1322 1639,1322 1675,1234 1535,1234 1533,1235 1534,1234 1384,1234 1285,1322" fill="none" stroke="#000000" stroke-width="4" stroke-linejoin="round" stroke-linecap="round"/>
<polyline points="701,1320 537,1320 445,1397 737,1397 737,1232 701,1320" fill="none" stroke="#000000" stroke-width="4" stroke-linejoin="round" stroke-linecap="round"/>
<polyline points="1408,823 1336,759 1214,759 1214,969 1288,855 1408,823" fill="none" stroke="#000000" stroke-width="4" stroke-linejoin="round" stroke-linecap="round"/>
<polyline points="2552,482 2515,476 2481,485 2451,498 2426,529 2412,569 2620,569 2606,529 2581,498 2552,482" fill="none" stroke="#000000" stroke-width="4" stroke-linejoin="round" stroke-linecap="round"/>
<polyline points="1071,807 979,884 960,1008 1055,980 1088,973 1126,982 1164,1003 1183,940 1071,807" fill="none" stroke="#000000" stroke-width="4" stroke-linejoin="round" stroke-linecap="round"/>
<polyline points="2784,482 2748,476 2714,485 2684,498 2660,529 2650,569 2854,569 2838,529 2814,498 2784,482" fill="none" stroke="#000000" stroke-width="4" stroke-linejoin="round" stroke-linecap="round"/>
<polyline points="284,1686 253,1713 214,1725 183,1718 149,1706 123,1681 174,1765 50,1779 191,1878 313,1884 285,1750 284,1686" fill="none" stroke="#000000" stroke-width="4" stroke-linejoin="round" stroke-linecap="round"/>
<polyline points="1978,685 1999,803 2177,812 2159,789 2149,757 2154,718 2172,679 1978,685" fill="none" stroke="#000000" stroke-width="4" stroke-linejoin="round" stroke-linecap="round"/>
<polyline points="2586,672 2557,668 2515,675 2486,688 2461,719 2452,759 2655,759 2640,719 2616,688 2586,672" fill="none" stroke="#000000" stroke-width="4" stroke-linejoin="round" stroke-linecap="round"/>
<polyline points="1060,1486 1020,1413 1020,1593 1076,1622 1086,1582 1110,1551 1140,1538 1182,1531 1218,1498 1136,1413 1060,1486" fill="none" stroke="#000000" stroke-width="4" stroke-linejoin="round" stroke-linecap="round"/>
<polyline points="916,161 945,192 955,152 979,120 1009,108 1043,98 1079,104 1109,120 1135,152 1149,192 1211,192 1211,87 1143,78 1019,50 916,161" fill="none" stroke="#000000" stroke-width="4" stroke-linejoin="round" stroke-linecap="round"/>
<polyline points="2380,1423 2344,1417 2309,1426 2280,1439 2255,1470 2246,1510 2449,1510 2435,1470 2410,1439 2380,1423" fill="none" stroke="#000000" stroke-width="4" stroke-linejoin="round" stroke-linecap="round"/>
<polyline points="567,273 303,273 425,385 425,513 480,507 567,459 567,273" fill="none" stroke="#000000" stroke-width="4" stroke-linejoin="round" stroke-linecap="round"/>
<polyline points="1709,372 1419,500 1709,500 1709,372" fill="none" stroke="#000000" stroke-width="4" stroke-linejoin="round" stroke-linecap="round"/>
<polyline points="1722,1467 1690,1352 1586,1353 1493,1375 1475,1475 1722,1467" fill="none" stroke="#000000" stroke-width="4" stroke-linejoin="round" stroke-linecap="round"/>
<polyline points="1842,324 1818,204 1571,212 1715,332 1842,324" fill="none" stroke="#000000" stroke-width="4" stroke-linejoin="round" stroke-linecap="round"/>
<polyline points="1861,50 1571,50 1571,173 1611,138 1769,138 1861,50" fill="none" stroke="#000000" stroke-width="4" stroke-linejoin="round" stroke-linecap="round"/>
<polyline points="582,902 622,976 698,903 780,988 876,902 780,825 622,825 582,860 582,902" fill="none" stroke="#000000" stroke-width="4" stroke-linejoin="round" stroke-linecap="round"/>
<polyline points="2299,340 2423,368 2491,377 2491,272 2378,272 2299,340" fill="none" stroke="#000000" stroke-width="4" stroke-linejoin="round" stroke-linecap="round"/>
<polyline points="1346,1735 1339,1715 1337,1691 1341,1668 1354,1640 1281,1590 1276,1796 1378,1867 1386,1788 1370,1773 1356,1754 1346,1735" fill="none" stroke="#000000" stroke-width="4" stroke-linejoin="round" stroke-linecap="round"/>
<polyline points="2521,331 2521,217 2693,217 2521,331" fill="none" stroke="#000000" stroke-width="4" stroke-linejoin="round" stroke-linecap="round"/>
<polyline points="507,1999 513,2049 595,2079 673,2079 761,2049 761,1999 507,1999" fill="none" stroke="#000000" stroke-width="4" stroke-linejoin="round" stroke-linecap="round"/>
<polyline points="1249,1354 1249,1540 1403,1560 1444,1540 1444,1354 1249,1354" fill="none" stroke="#000000" stroke-width="4" stroke-linejoin="round" stroke-linecap="round"/>
<polyline points="2452,600 2452,638 2836,638 2856,600 2452,600" fill="none" stroke="#000000" stroke-width="4" stroke-linejoin="round" stroke-linecap="round"/>
<polyline points="1540,50 1410,50 1410,341 1502,257 1502,122 1540,50" fill="none" stroke="#000000" stroke-width="4" stroke-linejoin="round" stroke-linecap="round"/>
<polyline points="2363,123 2311,241 2411,182 2411,50 2299,50 2363,123" fill="none" stroke="#000000" stroke-width="4" stroke-linejoin="round" stroke-linecap="round"/>
<polyline points="1921,1175 1705,1175 1705,1314 1919,1314 1907,1276 1907,1228 1921,1175" fill="none" stroke="#000000" stroke-width="4" stroke-linejoin="round" stroke-linecap="round"/>
<polyline points="1966,1129 1952,1182 1952,1230 1964,1268 2126,1268 2141,1230 2141,1182 2129,1129 1966,1129" fill="none" stroke="#000000" stroke-width="4" stroke-linejoin="round" stroke-linecap="round"/>
<polyline points="275,1087 53,1087 65,1140 65,1188 50,1226 368,1226 368,1087 275,1033 275,1087" fill="none" stroke="#000000" stroke-width="4" stroke-linejoin="round" stroke-linecap="round"/>
<polyline points="1112,1653 1020,1653 1020,1787 1112,1855 1112,1653" fill="none" stroke="#000000" stroke-width="4" stroke-linejoin="round" stroke-linecap="round"/>
<polyline points="222,1257 222,1531 314,1531 314,1477 376,1477 414,1375 314,1325 222,1257" fill="none" stroke="#000000" stroke-width="4" stroke-linejoin="round" stroke-linecap="round"/>
<polyline points="1247,538 1149,580 1099,684 1025,728 1247,728 1247,538" fill="none" stroke="#000000" stroke-width="4" stroke-linejoin="round" stroke-linecap="round"/>
<polyline points="1965,1463 1873,1547 1873,1683 1965,1737 1965,1463" fill="none" stroke="#000000" stroke-width="4" stroke-linejoin="round" stroke-linecap="round"/>
<polyline points="471,1710 384,1676 385,1674 385,1562 344,1562 344,1942 385,1942 471,1868 471,1710" fill="none" stroke="#000000" stroke-width="4" stroke-linejoin="round" stroke-linecap="round"/>
<polyline points="2216,1645 2216,1299 2160,1415 2160,1569 2216,1645" fill="none" stroke="#000000" stroke-width="4" stroke-linejoin="round" stroke-linecap="round"/>
<polyline points="2267,390 2268,261 2192,232 2126,291 2174,395 2267,390" fill="none" stroke="#000000" stroke-width="4" stroke-linejoin="round" stroke-linecap="round"/>
<polyline points="2217,485 2131,439 2090,458 2090,625 2131,625 2217,599 2217,485" fill="none" stroke="#000000" stroke-width="4" stroke-linejoin="round" stroke-linecap="round"/>
<polyline points="1740,363 1740,549 1826,595 1882,603 1882,363 1740,363" fill="none" stroke="#000000" stroke-width="4" stroke-linejoin="round" stroke-linecap="round"/>
<polyline points="2327,1665 2327,1779 2383,1838 2383,1673 2327,1665" fill="none" stroke="#000000" stroke-width="4" stroke-linejoin="round" stroke-linecap="round"/>
<polyline points="2247,2060 2175,1996 2350,1996 2247,2060" fill="none" stroke="#000000" stroke-width="4" stroke-linejoin="round" stroke-linecap="round"/>
<polyline points="903,1638 848,1715 848,1884 990,1884 990,1562 903,1638" fill="none" stroke="#000000" stroke-width="4" stroke-linejoin="round" stroke-linecap="round"/>
<polyline points="50,1311 50,1399 50,1650 105,1573 192,1497 192,1257 105,1305 50,1311" fill="none" stroke="#000000" stroke-width="4" stroke-linejoin="round" stroke-linecap="round"/>
<polyline points="2063,1835 2042,1849 1992,1776 2195,1768 2202,1891 2175,1862 2148,1843 2129,1835 2109,1831 2084,1830 2063,1835" fill="none" stroke="#000000" stroke-width="4" stroke-linejoin="round" stroke-linecap="round"/>
<polyline points="2617,1059 2536,1059 2536,1159 2617,1159 2617,1059" fill="none" stroke="#000000" stroke-width="4" stroke-linejoin="round" stroke-linecap="round"/>
<polyline points="582,1158 815,1158 815,1019 582,1158" fill="none" stroke="#000000" stroke-width="4" stroke-linejoin="round" stroke-linecap="round"/>
<polyline points="1714,829 1769,829 1947,829 1714,690 1714,829" fill="none" stroke="#000000" stroke-width="4" stroke-linejoin="round" stroke-linecap="round"/>
<polyline points="2686,668 2808,668 2686,780 2686,668" fill="none" stroke="#000000" stroke-width="4" stroke-linejoin="round" stroke-linecap="round"/>
<polyline points="1419,659 1709,659 1419,531 1419,659" fill="none" stroke="#000000" stroke-width="4" stroke-linejoin="round" stroke-linecap="round"/>
<text x="34.5" y="34.5" font-family="Arial,Helvetica,sans-serif" font-size="14" font-weight="bold" fill="#000000" text-anchor="middle" dominant-baseline="middle">0</text>
<text x="720.5" y="1412.5" font-family="Arial,Helvetica,sans-serif" font-size="14" font-weight="bold" fill="#000000" text-anchor="middle" dominant-baseline="middle">2</text>
<text x="2232.5" y="410.5" font-family="Arial,Helvetica,sans-serif" font-size="14" font-weight="bold" fill="#000000" text-anchor="middle" dominant-baseline="middle">4</text>
<text x="2425.5" y="34.5" font-family="Arial,Helvetica,sans-serif" font-size="14" font-weight="bold" fill="#000000" text-anchor="middle" dominant-baseline="middle">3</text>
<text x="34.5" y="1983.5" font-family="Arial,Helvetica,sans-serif" font-size="14" font-weight="bold" fill="#000000" text-anchor="middle" dominant-baseline="middle">7</text>
<text x="1980.5" y="1447.5" font-family="Arial,Helvetica,sans-serif" font-size="14" font-weight="bold" fill="#000000" text-anchor="middle" dominant-baseline="middle">5</text>
<text x="832.5" y="1003.5" font-family="Arial,Helvetica,sans-serif" font-size="14" font-weight="bold" fill="#000000" text-anchor="middle" dominant-baseline="middle">1</text>
<text x="2601.5" y="34.5" font-family="Arial,Helvetica,sans-serif" font-size="14" font-weight="bold" fill="#000000" text-anchor="middle" dominant-baseline="middle">6</text>
<text x="578.5" y="34.5" font-family="Arial,Helvetica,sans-serif" font-size="14" font-weight="bold" fill="#000000" text-anchor="middle" dominant-baseline="middle">12</text>
<text x="1101.5" y="1023.5" font-family="Arial,Helvetica,sans-serif" font-size="14" font-weight="bold" fill="#000000" text-anchor="middle" dominant-baseline="middle">17</text>
<text x="490.5" y="1681.5" font-family="Arial,Helvetica,sans-serif" font-size="14" font-weight="bold" fill="#000000" text-anchor="middle" dominant-baseline="middle">16</text>
<text x="1671.5" y="856.5" font-family="Arial,Helvetica,sans-serif" font-size="14" font-weight="bold" fill="#000000" text-anchor="middle" dominant-baseline="middle">25</text>
<text x="1265.5" y="362.5" font-family="Arial,Helvetica,sans-serif" font-size="14" font-weight="bold" fill="#000000" text-anchor="middle" dominant-baseline="middle">26</text>
<text x="1057.5" y="206.5" font-family="Arial,Helvetica,sans-serif" font-size="14" font-weight="bold" fill="#000000" text-anchor="middle" dominant-baseline="middle">18</text>
<text x="1230.5" y="34.5" font-family="Arial,Helvetica,sans-serif" font-size="14" font-weight="bold" fill="#000000" text-anchor="middle" dominant-baseline="middle">19</text>
<text x="2753.5" y="794.5" font-family="Arial,Helvetica,sans-serif" font-size="14" font-weight="bold" fill="#000000" text-anchor="middle" dominant-baseline="middle">20</text>
<text x="2642.5" y="794.5" font-family="Arial,Helvetica,sans-serif" font-size="14" font-weight="bold" fill="#000000" text-anchor="middle" dominant-baseline="middle">21</text>
<text x="1619.5" y="1986.5" font-family="Arial,Helvetica,sans-serif" font-size="14" font-weight="bold" fill="#000000" text-anchor="middle" dominant-baseline="middle">8</text>
<text x="2436.5" y="392.5" font-family="Arial,Helvetica,sans-serif" font-size="14" font-weight="bold" fill="#000000" text-anchor="middle" dominant-baseline="middle">9</text>
<text x="1264.5" y="1882.5" font-family="Arial,Helvetica,sans-serif" font-size="14" font-weight="bold" fill="#000000" text-anchor="middle" dominant-baseline="middle">11</text>
<text x="836.5" y="1898.5" font-family="Arial,Helvetica,sans-serif" font-size="14" font-weight="bold" fill="#000000" text-anchor="middle" dominant-baseline="middle">55</text>
<text x="2237.5" y="914.5" font-family="Arial,Helvetica,sans-serif" font-size="14" font-weight="bold" fill="#000000" text-anchor="middle" dominant-baseline="middle">71</text>
<text x="2234.5" y="1525.5" font-family="Arial,Helvetica,sans-serif" font-size="14" font-weight="bold" fill="#000000" text-anchor="middle" dominant-baseline="middle">89</text>
<text x="1719.5" y="1490.5" font-family="Arial,Helvetica,sans-serif" font-size="14" font-weight="bold" fill="#000000" text-anchor="middle" dominant-baseline="middle">104</text>
<text x="948.5" y="1023.5" font-family="Arial,Helvetica,sans-serif" font-size="14" font-weight="bold" fill="#000000" text-anchor="middle" dominant-baseline="middle">81</text>
<text x="2453.5" y="774.5" font-family="Arial,Helvetica,sans-serif" font-size="14" font-weight="bold" fill="#000000" text-anchor="middle" dominant-baseline="middle">103</text>
<text x="783.5" y="522.5" font-family="Arial,Helvetica,sans-serif" font-size="14" font-weight="bold" fill="#000000" text-anchor="middle" dominant-baseline="middle">102</text>
<text x="2779.5" y="34.5" font-family="Arial,Helvetica,sans-serif" font-size="14" font-weight="bold" fill="#000000" text-anchor="middle" dominant-baseline="middle">93</text>
<text x="827.5" y="253.5" font-family="Arial,Helvetica,sans-serif" font-size="14" font-weight="bold" fill="#000000" text-anchor="middle" dominant-baseline="middle">101</text>
<text x="2332.5" y="1068.5" font-family="Arial,Helvetica,sans-serif" font-size="14" font-weight="bold" fill="#000000" text-anchor="middle" dominant-baseline="middle">94</text>
<text x="1904.5" y="216.5" font-family="Arial,Helvetica,sans-serif" font-size="14" font-weight="bold" fill="#000000" text-anchor="middle" dominant-baseline="middle">106</text>
<text x="2130.5" y="34.5" font-family="Arial,Helvetica,sans-serif" font-size="14" font-weight="bold" fill="#000000" text-anchor="middle" dominant-baseline="middle">107</text>
<text x="2234.5" y="1098.5" font-family="Arial,Helvetica,sans-serif" font-size="14" font-weight="bold" fill="#000000" text-anchor="middle" dominant-baseline="middle">96</text>
<text x="308.5" y="528.5" font-family="Arial,Helvetica,sans-serif" font-size="14" font-weight="bold" fill="#000000" text-anchor="middle" dominant-baseline="middle">90</text>
<text x="2546.5" y="774.5" font-family="Arial,Helvetica,sans-serif" font-size="14" font-weight="bold" fill="#000000" text-anchor="middle" dominant-baseline="middle">105</text>
<text x="1132.5" y="1637.5" font-family="Arial,Helvetica,sans-serif" font-size="14" font-weight="bold" fill="#000000" text-anchor="middle" dominant-baseline="middle">91</text>
<text x="2241.5" y="778.5" font-family="Arial,Helvetica,sans-serif" font-size="14" font-weight="bold" fill="#000000" text-anchor="middle" dominant-baseline="middle">108</text>
<text x="2419.5" y="1068.5" font-family="Arial,Helvetica,sans-serif" font-size="14" font-weight="bold" fill="#000000" text-anchor="middle" dominant-baseline="middle">95</text>
<text x="494.5" y="1412.5" font-family="Arial,Helvetica,sans-serif" font-size="14" font-weight="bold" fill="#000000" text-anchor="middle" dominant-baseline="middle">100</text>
<text x="2221.5" y="1660.5" font-family="Arial,Helvetica,sans-serif" font-size="14" font-weight="bold" fill="#000000" text-anchor="middle" dominant-baseline="middle">92</text>
<text x="585.5" y="253.5" font-family="Arial,Helvetica,sans-serif" font-size="14" font-weight="bold" fill="#000000" text-anchor="middle" dominant-baseline="middle">99</text>
<text x="38.5" y="257.5" font-family="Arial,Helvetica,sans-serif" font-size="14" font-weight="bold" fill="#000000" text-anchor="middle" dominant-baseline="middle">79</text>
<text x="2642.5" y="985.5" font-family="Arial,Helvetica,sans-serif" font-size="14" font-weight="bold" fill="#000000" text-anchor="middle" dominant-baseline="middle">98</text>
<text x="1828.5" y="844.5" font-family="Arial,Helvetica,sans-serif" font-size="14" font-weight="bold" fill="#000000" text-anchor="middle" dominant-baseline="middle">97</text>
<text x="2380.5" y="1525.5" font-family="Arial,Helvetica,sans-serif" font-size="14" font-weight="bold" fill="#000000" text-anchor="middle" dominant-baseline="middle">88</text>
<text x="1900.5" y="423.5" font-family="Arial,Helvetica,sans-serif" font-size="14" font-weight="bold" fill="#000000" text-anchor="middle" dominant-baseline="middle">69</text>
<text x="1679.5" y="1794.5" font-family="Arial,Helvetica,sans-serif" font-size="14" font-weight="bold" fill="#000000" text-anchor="middle" dominant-baseline="middle">57</text>
<text x="1741.5" y="1329.5" font-family="Arial,Helvetica,sans-serif" font-size="14" font-weight="bold" fill="#000000" text-anchor="middle" dominant-baseline="middle">53</text>
<text x="1972.5" y="827.5" font-family="Arial,Helvetica,sans-serif" font-size="14" font-weight="bold" fill="#000000" text-anchor="middle" dominant-baseline="middle">83</text>
<text x="1427.5" y="674.5" font-family="Arial,Helvetica,sans-serif" font-size="14" font-weight="bold" fill="#000000" text-anchor="middle" dominant-baseline="middle">64</text>
<text x="386.5" y="852.5" font-family="Arial,Helvetica,sans-serif" font-size="14" font-weight="bold" fill="#000000" text-anchor="middle" dominant-baseline="middle">46</text>
<text x="546.5" y="528.5" font-family="Arial,Helvetica,sans-serif" font-size="14" font-weight="bold" fill="#000000" text-anchor="middle" dominant-baseline="middle">48</text>
<text x="1405.5" y="1574.5" font-family="Arial,Helvetica,sans-serif" font-size="14" font-weight="bold" fill="#000000" text-anchor="middle" dominant-baseline="middle">39</text>
<text x="2196.5" y="639.5" font-family="Arial,Helvetica,sans-serif" font-size="14" font-weight="bold" fill="#000000" text-anchor="middle" dominant-baseline="middle">38</text>
<text x="38.5" y="707.5" font-family="Arial,Helvetica,sans-serif" font-size="14" font-weight="bold" fill="#000000" text-anchor="middle" dominant-baseline="middle">47</text>
<text x="1493.5" y="856.5" font-family="Arial,Helvetica,sans-serif" font-size="14" font-weight="bold" fill="#000000" text-anchor="middle" dominant-baseline="middle">44</text>
<text x="1880.5" y="34.5" font-family="Arial,Helvetica,sans-serif" font-size="14" font-weight="bold" fill="#000000" text-anchor="middle" dominant-baseline="middle">62</text>
<text x="1575.5" y="1490.5" font-family="Arial,Helvetica,sans-serif" font-size="14" font-weight="bold" fill="#000000" text-anchor="middle" dominant-baseline="middle">59</text>
<text x="2109.5" y="827.5" font-family="Arial,Helvetica,sans-serif" font-size="14" font-weight="bold" fill="#000000" text-anchor="middle" dominant-baseline="middle">82</text>
<text x="1273.5" y="983.5" font-family="Arial,Helvetica,sans-serif" font-size="14" font-weight="bold" fill="#000000" text-anchor="middle" dominant-baseline="middle">33</text>
<text x="1264.5" y="1986.5" font-family="Arial,Helvetica,sans-serif" font-size="14" font-weight="bold" fill="#000000" text-anchor="middle" dominant-baseline="middle">58</text>
<text x="1273.5" y="1218.5" font-family="Arial,Helvetica,sans-serif" font-size="14" font-weight="bold" fill="#000000" text-anchor="middle" dominant-baseline="middle">50</text>
<text x="433.5" y="1216.5" font-family="Arial,Helvetica,sans-serif" font-size="14" font-weight="bold" fill="#000000" text-anchor="middle" dominant-baseline="middle">56</text>
<text x="1202.5" y="743.5" font-family="Arial,Helvetica,sans-serif" font-size="14" font-weight="bold" fill="#000000" text-anchor="middle" dominant-baseline="middle">70</text>
<text x="2400.5" y="460.5" font-family="Arial,Helvetica,sans-serif" font-size="14" font-weight="bold" fill="#000000" text-anchor="middle" dominant-baseline="middle">84</text>
<text x="948.5" y="791.5" font-family="Arial,Helvetica,sans-serif" font-size="14" font-weight="bold" fill="#000000" text-anchor="middle" dominant-baseline="middle">67</text>
<text x="2638.5" y="460.5" font-family="Arial,Helvetica,sans-serif" font-size="14" font-weight="bold" fill="#000000" text-anchor="middle" dominant-baseline="middle">85</text>
<text x="38.5" y="1665.5" font-family="Arial,Helvetica,sans-serif" font-size="14" font-weight="bold" fill="#000000" text-anchor="middle" dominant-baseline="middle">66</text>
<text x="1966.5" y="663.5" font-family="Arial,Helvetica,sans-serif" font-size="14" font-weight="bold" fill="#000000" text-anchor="middle" dominant-baseline="middle">73</text>
<text x="2440.5" y="652.5" font-family="Arial,Helvetica,sans-serif" font-size="14" font-weight="bold" fill="#000000" text-anchor="middle" dominant-baseline="middle">86</text>
<text x="1008.5" y="1397.5" font-family="Arial,Helvetica,sans-serif" font-size="14" font-weight="bold" fill="#000000" text-anchor="middle" dominant-baseline="middle">72</text>
<text x="904.5" y="34.5" font-family="Arial,Helvetica,sans-serif" font-size="14" font-weight="bold" fill="#000000" text-anchor="middle" dominant-baseline="middle">78</text>
<text x="2234.5" y="1401.5" font-family="Arial,Helvetica,sans-serif" font-size="14" font-weight="bold" fill="#000000" text-anchor="middle" dominant-baseline="middle">87</text>
<text x="291.5" y="257.5" font-family="Arial,Helvetica,sans-serif" font-size="14" font-weight="bold" fill="#000000" text-anchor="middle" dominant-baseline="middle">32</text>
<text x="1407.5" y="356.5" font-family="Arial,Helvetica,sans-serif" font-size="14" font-weight="bold" fill="#000000" text-anchor="middle" dominant-baseline="middle">41</text>
<text x="1463.5" y="1336.5" font-family="Arial,Helvetica,sans-serif" font-size="14" font-weight="bold" fill="#000000" text-anchor="middle" dominant-baseline="middle">54</text>
<text x="1559.5" y="188.5" font-family="Arial,Helvetica,sans-serif" font-size="14" font-weight="bold" fill="#000000" text-anchor="middle" dominant-baseline="middle">52</text>
<text x="1559.5" y="34.5" font-family="Arial,Helvetica,sans-serif" font-size="14" font-weight="bold" fill="#000000" text-anchor="middle" dominant-baseline="middle">51</text>
<text x="570.5" y="809.5" font-family="Arial,Helvetica,sans-serif" font-size="14" font-weight="bold" fill="#000000" text-anchor="middle" dominant-baseline="middle">61</text>
<text x="2287.5" y="256.5" font-family="Arial,Helvetica,sans-serif" font-size="14" font-weight="bold" fill="#000000" text-anchor="middle" dominant-baseline="middle">68</text>
<text x="1264.5" y="1574.5" font-family="Arial,Helvetica,sans-serif" font-size="14" font-weight="bold" fill="#000000" text-anchor="middle" dominant-baseline="middle">76</text>
<text x="2509.5" y="201.5" font-family="Arial,Helvetica,sans-serif" font-size="14" font-weight="bold" fill="#000000" text-anchor="middle" dominant-baseline="middle">60</text>
<text x="495.5" y="1983.5" font-family="Arial,Helvetica,sans-serif" font-size="14" font-weight="bold" fill="#000000" text-anchor="middle" dominant-baseline="middle">34</text>
<text x="1237.5" y="1338.5" font-family="Arial,Helvetica,sans-serif" font-size="14" font-weight="bold" fill="#000000" text-anchor="middle" dominant-baseline="middle">35</text>
<text x="2440.5" y="584.5" font-family="Arial,Helvetica,sans-serif" font-size="14" font-weight="bold" fill="#000000" text-anchor="middle" dominant-baseline="middle">10</text>
<text x="1398.5" y="34.5" font-family="Arial,Helvetica,sans-serif" font-size="14" font-weight="bold" fill="#000000" text-anchor="middle" dominant-baseline="middle">14</text>
<text x="2287.5" y="34.5" font-family="Arial,Helvetica,sans-serif" font-size="14" font-weight="bold" fill="#000000" text-anchor="middle" dominant-baseline="middle">13</text>
<text x="1693.5" y="1159.5" font-family="Arial,Helvetica,sans-serif" font-size="14" font-weight="bold" fill="#000000" text-anchor="middle" dominant-baseline="middle">28</text>
<text x="1940.5" y="1113.5" font-family="Arial,Helvetica,sans-serif" font-size="14" font-weight="bold" fill="#000000" text-anchor="middle" dominant-baseline="middle">29</text>
<text x="38.5" y="1017.5" font-family="Arial,Helvetica,sans-serif" font-size="14" font-weight="bold" fill="#000000" text-anchor="middle" dominant-baseline="middle">27</text>
<text x="1008.5" y="1637.5" font-family="Arial,Helvetica,sans-serif" font-size="14" font-weight="bold" fill="#000000" text-anchor="middle" dominant-baseline="middle">15</text>
<text x="210.5" y="1241.5" font-family="Arial,Helvetica,sans-serif" font-size="14" font-weight="bold" fill="#000000" text-anchor="middle" dominant-baseline="middle">22</text>
<text x="1013.5" y="522.5" font-family="Arial,Helvetica,sans-serif" font-size="14" font-weight="bold" fill="#000000" text-anchor="middle" dominant-baseline="middle">24</text>
<text x="1861.5" y="1447.5" font-family="Arial,Helvetica,sans-serif" font-size="14" font-weight="bold" fill="#000000" text-anchor="middle" dominant-baseline="middle">23</text>
<text x="332.5" y="1546.5" font-family="Arial,Helvetica,sans-serif" font-size="14" font-weight="bold" fill="#000000" text-anchor="middle" dominant-baseline="middle">80</text>
<text x="2148.5" y="1283.5" font-family="Arial,Helvetica,sans-serif" font-size="14" font-weight="bold" fill="#000000" text-anchor="middle" dominant-baseline="middle">74</text>
<text x="2114.5" y="216.5" font-family="Arial,Helvetica,sans-serif" font-size="14" font-weight="bold" fill="#000000" text-anchor="middle" dominant-baseline="middle">63</text>
<text x="2078.5" y="423.5" font-family="Arial,Helvetica,sans-serif" font-size="14" font-weight="bold" fill="#000000" text-anchor="middle" dominant-baseline="middle">43</text>
<text x="1728.5" y="347.5" font-family="Arial,Helvetica,sans-serif" font-size="14" font-weight="bold" fill="#000000" text-anchor="middle" dominant-baseline="middle">36</text>
<text x="2315.5" y="1649.5" font-family="Arial,Helvetica,sans-serif" font-size="14" font-weight="bold" fill="#000000" text-anchor="middle" dominant-baseline="middle">49</text>
<text x="2163.5" y="1980.5" font-family="Arial,Helvetica,sans-serif" font-size="14" font-weight="bold" fill="#000000" text-anchor="middle" dominant-baseline="middle">65</text>
<text x="836.5" y="1546.5" font-family="Arial,Helvetica,sans-serif" font-size="14" font-weight="bold" fill="#000000" text-anchor="middle" dominant-baseline="middle">75</text>
<text x="38.5" y="1241.5" font-family="Arial,Helvetica,sans-serif" font-size="14" font-weight="bold" fill="#000000" text-anchor="middle" dominant-baseline="middle">45</text>
<text x="1980.5" y="1752.5" font-family="Arial,Helvetica,sans-serif" font-size="14" font-weight="bold" fill="#000000" text-anchor="middle" dominant-baseline="middle">77</text>
<text x="2524.5" y="1043.5" font-family="Arial,Helvetica,sans-serif" font-size="14" font-weight="bold" fill="#000000" text-anchor="middle" dominant-baseline="middle">40</text>
<text x="570.5" y="1003.5" font-family="Arial,Helvetica,sans-serif" font-size="14" font-weight="bold" fill="#000000" text-anchor="middle" dominant-baseline="middle">30</text>
<text x="1702.5" y="674.5" font-family="Arial,Helvetica,sans-serif" font-size="14" font-weight="bold" fill="#000000" text-anchor="middle" dominant-baseline="middle">31</text>
<text x="2674.5" y="652.5" font-family="Arial,Helvetica,sans-serif" font-size="14" font-weight="bold" fill="#000000" text-anchor="middle" dominant-baseline="middle">37</text>
<text x="1407.5" y="515.5" font-family="Arial,Helvetica,sans-serif" font-size="14" font-weight="bold" fill="#000000" text-anchor="middle" dominant-baseline="middle">42</text>
</svg>