<svg xmlns="http://www.w3.org/2000/svg" width="840" height="660" viewBox="0 0 840 660"><rect width="100%" height="100%" fill="#0a1020" /><rect x="4.000" y="4.000" width="272.000" height="212.000" rx="10" fill="#0f172a" stroke="#23314f" stroke-width="1" /><text x="8.000" y="16.000" fill="#ffffff" font-size="13">Original Zone</text><path d="M 143.597 36.000 L 40.494 125.166 L 41.211 144.663 L 170.075 202.000 L 239.506 116.308 L 179.489 52.386 Z" fill="rgba(56,189,248,0.08)" stroke="#38bdf8" stroke-width="1.6" /><rect x="284.000" y="4.000" width="272.000" height="212.000" rx="10" fill="#0f172a" stroke="#23314f" stroke-width="1" /><text x="288.000" y="16.000" fill="#ffffff" font-size="13">Zone Outline</text><path d="M 319.728 125.260 L 324.920 149.389 L 344.214 157.974 L 355.726 163.096 L 423.960 193.457 L 452.323 202.000 L 458.443 194.446 L 520.272 118.136 L 459.479 52.681 L 422.939 36.000 L 347.221 101.484 Z" fill="none" stroke="#ffffff" stroke-width="1.3" /><rect x="564.000" y="4.000" width="272.000" height="212.000" rx="10" fill="#0f172a" stroke="#23314f" stroke-width="1" /><text x="568.000" y="16.000" fill="#ffffff" font-size="13">Vertex Order</text><path d="M 703.597 36.000 L 600.494 125.166 L 601.211 144.663 L 730.075 202.000 L 799.506 116.308 L 739.489 52.386 Z" fill="none" stroke="#8fa3bf" stroke-width="1.2" /><circle cx="703.597" cy="36.000" r="2.8" fill="#ffffff" /><text x="707.597" y="32.000" fill="#ffffff" font-size="10">0:v0</text><circle cx="600.494" cy="125.166" r="2.8" fill="#ffffff" /><text x="604.494" y="121.166" fill="#ffffff" font-size="10">1:v1</text><circle cx="601.211" cy="144.663" r="2.8" fill="#ffffff" /><text x="605.211" y="140.663" fill="#ffffff" font-size="10">2:v2</text><circle cx="706.162" cy="191.360" r="2.8" fill="#ffd400" /><text x="710.162" y="187.360" fill="#ffd400" font-size="10">3:p0</text><circle cx="730.075" cy="202.000" r="2.8" fill="#ffffff" /><text x="734.075" y="198.000" fill="#ffffff" font-size="10">4:v3</text><circle cx="736.191" cy="194.452" r="2.8" fill="#ffd400" /><text x="740.191" y="190.452" fill="#ffd400" font-size="10">5:p1</text><circle cx="799.048" cy="116.873" r="2.8" fill="#ffd400" /><text x="803.048" y="112.873" fill="#ffd400" font-size="10">6:p2</text><circle cx="799.506" cy="116.308" r="2.8" fill="#ffffff" /><text x="803.506" y="112.308" fill="#ffffff" font-size="10">7:v4</text><circle cx="739.489" cy="52.386" r="2.8" fill="#ffffff" /><text x="743.489" y="48.386" fill="#ffffff" font-size="10">8:v5</text><rect x="4.000" y="224.000" width="272.000" height="212.000" rx="10" fill="#0f172a" stroke="#23314f" stroke-width="1" /><text x="8.000" y="236.000" fill="#ffffff" font-size="13">Vertex Order After Merge (th=0.5)</text><path d="M 143.597 256.000 L 40.494 345.166 L 41.211 364.663 L 170.075 422.000 L 239.506 336.308 L 179.489 272.386 Z" fill="none" stroke="#8fa3bf" stroke-width="1.2" /><circle cx="143.597" cy="256.000" r="2.8" fill="#ffffff" /><text x="147.597" y="252.000" fill="#ffffff" font-size="10">0:v0</text><circle cx="40.494" cy="345.166" r="2.8" fill="#ffffff" /><text x="44.494" y="341.166" fill="#ffffff" font-size="10">1:v1</text><circle cx="41.211" cy="364.663" r="2.8" fill="#ffffff" /><text x="45.211" y="360.663" fill="#ffffff" font-size="10">2:v2</text><circle cx="146.162" cy="411.360" r="2.8" fill="#ffd400" /><text x="150.162" y="407.360" fill="#ffd400" font-size="10">3:p0</text><circle cx="170.075" cy="422.000" r="2.8" fill="#ffffff" /><text x="174.075" y="418.000" fill="#ffffff" font-size="10">4:v3</text><circle cx="176.191" cy="414.452" r="2.8" fill="#ffd400" /><text x="180.191" y="410.452" fill="#ffd400" font-size="10">5:p1</text><circle cx="239.277" cy="336.590" r="2.8" fill="#ffd400" /><text x="243.277" y="332.590" fill="#ffd400" font-size="10">6:p2+v4</text><circle cx="179.489" cy="272.386" r="2.8" fill="#ffffff" /><text x="183.489" y="268.386" fill="#ffffff" font-size="10">7:v5</text><rect x="284.000" y="224.000" width="272.000" height="212.000" rx="10" fill="#0f172a" stroke="#23314f" stroke-width="1" /><text x="288.000" y="236.000" fill="#ffffff" font-size="13">Region Vertices &lt;= Bleed</text><path d="M 319.728 345.260 L 324.920 369.389 L 344.214 377.974 L 355.726 383.096 L 423.960 413.457 L 452.323 422.000 L 458.443 414.446 L 520.272 338.136 L 459.479 272.681 L 422.939 256.000 L 347.221 321.484 Z" fill="none" stroke="#8fa3bf" stroke-width="1.2" /><circle cx="324.920" cy="369.389" r="2.8" fill="#22d3ee" /><text x="328.920" y="365.389" fill="#22d3ee" font-size="10">0:r270v0 d=0.00</text><circle cx="344.214" cy="377.974" r="2.8" fill="#22d3ee" /><text x="348.214" y="373.974" fill="#22d3ee" font-size="10">1:r270v1 d=0.00</text><circle cx="347.221" cy="321.484" r="2.8" fill="#22d3ee" /><text x="351.221" y="317.484" fill="#22d3ee" font-size="10">2:r270v2 d=0.00</text><circle cx="319.728" cy="345.260" r="2.8" fill="#22d3ee" /><text x="323.728" y="341.260" fill="#22d3ee" font-size="10">3:r270v3 d=0.00</text><circle cx="344.214" cy="377.974" r="2.8" fill="#22d3ee" /><text x="348.214" y="373.974" fill="#22d3ee" font-size="10">4:r307v0 d=0.00</text><circle cx="355.726" cy="383.096" r="2.8" fill="#22d3ee" /><text x="359.726" y="379.096" fill="#22d3ee" font-size="10">5:r307v1 d=0.00</text><circle cx="347.221" cy="321.484" r="2.8" fill="#22d3ee" /><text x="351.221" y="317.484" fill="#22d3ee" font-size="10">6:r307v3 d=0.00</text><circle cx="355.726" cy="383.096" r="2.8" fill="#22d3ee" /><text x="359.726" y="379.096" fill="#22d3ee" font-size="10">7:r310v0 d=0.00</text><circle cx="422.939" cy="256.000" r="2.8" fill="#22d3ee" /><text x="426.939" y="252.000" fill="#22d3ee" font-size="10">8:r310v2 d=0.00</text><circle cx="422.939" cy="256.000" r="2.8" fill="#22d3ee" /><text x="426.939" y="252.000" fill="#22d3ee" font-size="10">9:r348v5 d=0.00</text><circle cx="452.323" cy="422.000" r="2.8" fill="#22d3ee" /><text x="456.323" y="418.000" fill="#22d3ee" font-size="10">10:r351v1 d=0.00</text><circle cx="458.443" cy="414.446" r="2.8" fill="#22d3ee" /><text x="462.443" y="410.446" fill="#22d3ee" font-size="10">11:r351v2 d=0.00</text><circle cx="458.443" cy="414.446" r="2.8" fill="#22d3ee" /><text x="462.443" y="410.446" fill="#22d3ee" font-size="10">12:r390v0 d=0.00</text><circle cx="520.272" cy="338.136" r="2.8" fill="#22d3ee" /><text x="524.272" y="334.136" fill="#22d3ee" font-size="10">13:r390v1 d=0.00</text><circle cx="423.960" cy="413.457" r="2.8" fill="#22d3ee" /><text x="427.960" y="409.457" fill="#22d3ee" font-size="10">14:r348v1 d=0.00</text><circle cx="422.939" cy="256.000" r="2.8" fill="#22d3ee" /><text x="426.939" y="252.000" fill="#22d3ee" font-size="10">15:r307v2 d=0.00</text><circle cx="422.939" cy="256.000" r="2.8" fill="#22d3ee" /><text x="426.939" y="252.000" fill="#22d3ee" font-size="10">16:r310v3 d=0.00</text><circle cx="424.672" cy="413.671" r="2.8" fill="#22d3ee" /><text x="428.672" y="409.671" fill="#22d3ee" font-size="10">17:r348v2 d=0.00</text><circle cx="424.672" cy="413.671" r="2.8" fill="#22d3ee" /><text x="428.672" y="409.671" fill="#22d3ee" font-size="10">18:r351v0 d=0.00</text><circle cx="441.209" cy="264.341" r="2.8" fill="#22d3ee" /><text x="445.209" y="260.341" fill="#22d3ee" font-size="10">19:r348v4 d=0.00</text><circle cx="423.271" cy="413.150" r="2.8" fill="#22d3ee" /><text x="427.271" y="409.150" fill="#22d3ee" font-size="10">20:r310v1 d=0.00</text><circle cx="423.271" cy="413.150" r="2.8" fill="#22d3ee" /><text x="427.271" y="409.150" fill="#22d3ee" font-size="10">21:r348v0 d=0.00</text><circle cx="459.479" cy="272.681" r="2.8" fill="#22d3ee" /><text x="463.479" y="268.681" fill="#22d3ee" font-size="10">22:r348v3 d=0.00</text><circle cx="459.479" cy="272.681" r="2.8" fill="#22d3ee" /><text x="463.479" y="268.681" fill="#22d3ee" font-size="10">23:r351v3 d=0.00</text><circle cx="459.479" cy="272.681" r="2.8" fill="#22d3ee" /><text x="463.479" y="268.681" fill="#22d3ee" font-size="10">24:r390v2 d=0.00</text><rect x="564.000" y="224.000" width="272.000" height="212.000" rx="10" fill="#0f172a" stroke="#23314f" stroke-width="1" /><text x="568.000" y="236.000" fill="#ffffff" font-size="13">Bleed Polygons</text><path d="M 612.953 344.493 L 617.402 365.168 L 633.934 372.524 L 643.798 376.913 L 702.265 402.927 L 726.568 410.247 L 731.812 403.775 L 784.791 338.388 L 732.700 282.303 L 701.390 268.009 L 636.510 324.119 Z" fill="none" stroke="#475569" stroke-width="0.9" /><path d="M 612.953 344.493 L 617.402 365.168 L 633.934 372.524 L 643.798 376.913 L 702.265 402.927 L 726.568 410.247 L 731.812 403.775 L 784.791 338.388 L 732.700 282.303 L 717.045 275.156 L 701.390 268.009 L 636.510 324.119 Z" fill="none" stroke="#8fa3bf" stroke-width="1.0" /><path d="M 601.699 340.727 L 608.512 372.387 L 629.783 381.852 L 639.648 386.241 L 698.703 412.517 L 730.186 422.000 L 739.745 410.202 L 798.301 337.932 L 738.794 273.861 L 721.285 265.868 L 699.669 256.000 L 629.832 316.397 Z" fill="none" stroke="#ffd400" stroke-width="1.2" /><path d="M 612.953 344.493 L 603.271 341.253 L 602.972 346.640 L 607.421 367.315 L 609.476 371.604 L 617.402 365.168 Z" fill="#f5d161" fill-opacity="0.26" stroke="#f5d161" stroke-width="1.0" /><path d="M 617.402 365.168 L 609.476 371.604 L 613.251 374.496 L 629.783 381.852 L 629.783 381.852 L 633.934 372.524 Z" fill="#f5d161" fill-opacity="0.26" stroke="#f5d161" stroke-width="1.0" /><path d="M 633.934 372.524 L 629.783 381.852 L 629.783 381.852 L 639.648 386.241 L 639.648 386.241 L 643.798 376.913 Z" fill="#e85e24" fill-opacity="0.26" stroke="#e85e24" stroke-width="1.0" /><path d="M 643.798 376.913 L 639.648 386.241 L 639.648 386.241 L 698.114 412.255 L 698.710 412.498 L 702.265 402.927 Z" fill="#ed7524" fill-opacity="0.26" stroke="#ed7524" stroke-width="1.0" /><path d="M 702.265 402.927 L 698.710 412.498 L 699.320 412.703 L 723.623 420.023 L 729.572 420.005 L 726.568 410.247 Z" fill="#f7c412" fill-opacity="0.26" stroke="#f7c412" stroke-width="1.0" /><path d="M 726.568 410.247 L 729.572 420.005 L 734.501 416.675 L 739.745 410.202 L 739.745 410.202 L 731.812 403.775 Z" fill="#f7c412" fill-opacity="0.26" stroke="#f7c412" stroke-width="1.0" /><path d="M 731.812 403.775 L 739.745 410.202 L 739.745 410.202 L 792.723 344.815 L 794.994 338.043 L 784.791 338.388 Z" fill="#e86924" fill-opacity="0.26" stroke="#e86924" stroke-width="1.0" /><path d="M 784.791 338.388 L 794.994 338.043 L 792.271 331.440 L 740.181 275.355 L 738.676 274.025 L 732.700 282.303 Z" fill="#e86924" fill-opacity="0.26" stroke="#e86924" stroke-width="1.0" /><path d="M 732.700 282.303 L 738.676 274.025 L 736.940 273.015 L 721.285 265.868 L 721.285 265.868 L 717.045 275.156 Z" fill="#f0c714" fill-opacity="0.26" stroke="#f0c714" stroke-width="1.0" /><path d="M 717.045 275.156 L 721.285 265.868 L 721.285 265.868 L 705.630 258.722 L 699.941 257.903 L 701.390 268.009 Z" fill="#f0c714" fill-opacity="0.26" stroke="#f0c714" stroke-width="1.0" /><path d="M 701.390 268.009 L 699.941 257.903 L 694.712 260.287 L 629.832 316.397 L 629.832 316.397 L 636.510 324.119 Z" fill="#e85e24" fill-opacity="0.26" stroke="#e85e24" stroke-width="1.0" /><path d="M 636.510 324.119 L 629.832 316.397 L 629.832 316.397 L 606.274 336.770 L 603.271 341.253 L 612.953 344.493 Z" fill="#f5d161" fill-opacity="0.26" stroke="#f5d161" stroke-width="1.0" /><rect x="4.000" y="444.000" width="272.000" height="212.000" rx="10" fill="#0f172a" stroke="#23314f" stroke-width="1" /><text x="8.000" y="456.000" fill="#ffffff" font-size="13">Final</text><path d="M 57.402 585.168 L 73.934 592.524 L 76.510 544.119 L 52.953 564.493 Z" fill="#f5d161" fill-opacity="0.36" stroke="#f5d161" stroke-width="0.8" /><path d="M 73.934 592.524 L 83.798 596.913 L 141.390 488.009 L 76.510 544.119 Z" fill="#e85e24" fill-opacity="0.36" stroke="#e85e24" stroke-width="0.8" /><path d="M 83.798 596.913 L 141.674 622.664 L 141.390 488.009 L 141.390 488.009 Z" fill="#ed7524" fill-opacity="0.36" stroke="#ed7524" stroke-width="0.8" /><path d="M 141.674 622.664 L 142.265 622.927 L 142.875 623.111 L 172.700 502.303 L 157.045 495.156 L 141.390 488.009 Z" fill="#f0c714" fill-opacity="0.36" stroke="#f0c714" stroke-width="0.8" /><path d="M 142.875 623.111 L 166.568 630.247 L 171.812 623.775 L 172.700 502.303 Z" fill="#f7c412" fill-opacity="0.36" stroke="#f7c412" stroke-width="0.8" /><path d="M 171.812 623.775 L 224.791 558.388 L 172.700 502.303 Z" fill="#e86924" fill-opacity="0.36" stroke="#e86924" stroke-width="0.8" /><path d="M 52.953 564.493 L 57.402 585.168 L 73.934 592.524 L 83.798 596.913 L 142.265 622.927 L 166.568 630.247 L 171.812 623.775 L 224.791 558.388 L 172.700 502.303 L 141.390 488.009 L 76.510 544.119 Z" fill="none" stroke="#475569" stroke-width="0.9" /><path d="M 52.953 564.493 L 57.402 585.168 L 73.934 592.524 L 83.798 596.913 L 142.265 622.927 L 166.568 630.247 L 171.812 623.775 L 224.791 558.388 L 172.700 502.303 L 157.045 495.156 L 141.390 488.009 L 76.510 544.119 Z" fill="none" stroke="#d1d5db" stroke-width="1.0" /><path d="M 52.953 564.493 L 43.271 561.253 L 42.972 566.640 L 47.421 587.315 L 49.476 591.604 L 57.402 585.168 Z" fill="#f5d161" fill-opacity="0.46" stroke="#f5d161" stroke-width="1.0" /><path d="M 57.402 585.168 L 49.476 591.604 L 53.251 594.496 L 69.783 601.852 L 69.783 601.852 L 73.934 592.524 Z" fill="#f5d161" fill-opacity="0.46" stroke="#f5d161" stroke-width="1.0" /><path d="M 73.934 592.524 L 69.783 601.852 L 69.783 601.852 L 79.648 606.241 L 79.648 606.241 L 83.798 596.913 Z" fill="#e85e24" fill-opacity="0.46" stroke="#e85e24" stroke-width="1.0" /><path d="M 83.798 596.913 L 79.648 606.241 L 79.648 606.241 L 138.114 632.255 L 138.710 632.498 L 142.265 622.927 Z" fill="#ed7524" fill-opacity="0.46" stroke="#ed7524" stroke-width="1.0" /><path d="M 142.265 622.927 L 138.710 632.498 L 139.320 632.703 L 163.623 640.023 L 169.572 640.005 L 166.568 630.247 Z" fill="#f7c412" fill-opacity="0.46" stroke="#f7c412" stroke-width="1.0" /><path d="M 166.568 630.247 L 169.572 640.005 L 174.501 636.675 L 179.745 630.202 L 179.745 630.202 L 171.812 623.775 Z" fill="#f7c412" fill-opacity="0.46" stroke="#f7c412" stroke-width="1.0" /><path d="M 171.812 623.775 L 179.745 630.202 L 179.745 630.202 L 232.723 564.815 L 234.994 558.043 L 224.791 558.388 Z" fill="#e86924" fill-opacity="0.46" stroke="#e86924" stroke-width="1.0" /><path d="M 224.791 558.388 L 234.994 558.043 L 232.271 551.440 L 180.181 495.355 L 178.676 494.025 L 172.700 502.303 Z" fill="#e86924" fill-opacity="0.46" stroke="#e86924" stroke-width="1.0" /><path d="M 172.700 502.303 L 178.676 494.025 L 176.940 493.015 L 161.285 485.868 L 161.285 485.868 L 157.045 495.156 Z" fill="#f0c714" fill-opacity="0.46" stroke="#f0c714" stroke-width="1.0" /><path d="M 157.045 495.156 L 161.285 485.868 L 161.285 485.868 L 145.630 478.722 L 139.941 477.903 L 141.390 488.009 Z" fill="#f0c714" fill-opacity="0.46" stroke="#f0c714" stroke-width="1.0" /><path d="M 141.390 488.009 L 139.941 477.903 L 134.712 480.287 L 69.832 536.397 L 69.832 536.397 L 76.510 544.119 Z" fill="#e85e24" fill-opacity="0.46" stroke="#e85e24" stroke-width="1.0" /><path d="M 76.510 544.119 L 69.832 536.397 L 69.832 536.397 L 46.274 556.770 L 43.271 561.253 L 52.953 564.493 Z" fill="#f5d161" fill-opacity="0.46" stroke="#f5d161" stroke-width="1.0" /></svg>