<svg xmlns="http://www.w3.org/2000/svg" width="840" height="660" viewBox="0 0 840 660"><rect width="100%" height="100%" fill="#0a1020" /><rect x="4.000" y="4.000" width="272.000" height="212.000" rx="10" fill="#0f172a" stroke="#23314f" stroke-width="1" /><text x="8.000" y="16.000" fill="#ffffff" font-size="13">Original Zone</text><path d="M 63.436 192.547 L 190.309 202.000 L 198.436 194.007 L 216.564 60.974 L 69.669 36.000 Z" fill="rgba(56,189,248,0.08)" stroke="#38bdf8" stroke-width="1.6" /><rect x="284.000" y="4.000" width="272.000" height="212.000" rx="10" fill="#0f172a" stroke="#23314f" stroke-width="1" /><text x="288.000" y="16.000" fill="#ffffff" font-size="13">Zone Outline</text><path d="M 352.710 36.000 L 374.683 39.736 L 405.140 44.914 L 494.910 68.936 L 487.682 121.980 L 482.375 160.921 L 477.871 193.973 L 469.710 202.000 L 407.574 197.370 L 353.352 193.331 L 345.090 122.361 L 347.371 65.078 Z" fill="none" stroke="#ffffff" stroke-width="1.3" /><rect x="564.000" y="4.000" width="272.000" height="212.000" rx="10" fill="#0f172a" stroke="#23314f" stroke-width="1" /><text x="568.000" y="16.000" fill="#ffffff" font-size="13">Vertex Order</text><path d="M 623.436 192.547 L 750.309 202.000 L 758.436 194.007 L 776.564 60.974 L 629.669 36.000 Z" fill="none" stroke="#8fa3bf" stroke-width="1.2" /><circle cx="623.436" cy="192.547" r="2.8" fill="#ffffff" /><text x="627.436" y="188.547" fill="#ffffff" font-size="10">0:v0</text><circle cx="750.309" cy="202.000" r="2.8" fill="#ffffff" /><text x="754.309" y="198.000" fill="#ffffff" font-size="10">1:v1</text><circle cx="758.436" cy="194.007" r="2.8" fill="#ffffff" /><text x="762.436" y="190.007" fill="#ffffff" font-size="10">2:v2</text><circle cx="776.564" cy="60.974" r="2.8" fill="#ffffff" /><text x="780.564" y="56.974" fill="#ffffff" font-size="10">3:v3</text><circle cx="655.685" cy="40.423" r="2.8" fill="#ffd400" /><text x="659.685" y="36.423" fill="#ffd400" font-size="10">4:p0</text><circle cx="629.669" cy="36.000" r="2.8" fill="#ffffff" /><text x="633.669" y="32.000" fill="#ffffff" font-size="10">5:v4</text><rect x="4.000" y="224.000" width="272.000" height="212.000" rx="10" fill="#0f172a" stroke="#23314f" stroke-width="1" /><text x="8.000" y="236.000" fill="#ffffff" font-size="13">Vertex Order After Merge (th=0.5)</text><path d="M 63.436 412.547 L 190.309 422.000 L 198.436 414.007 L 216.564 280.974 L 69.669 256.000 Z" fill="none" stroke="#8fa3bf" stroke-width="1.2" /><circle cx="63.436" cy="412.547" r="2.8" fill="#ffffff" /><text x="67.436" y="408.547" fill="#ffffff" font-size="10">0:v0</text><circle cx="190.309" cy="422.000" r="2.8" fill="#ffffff" /><text x="194.309" y="418.000" fill="#ffffff" font-size="10">1:v1</text><circle cx="198.436" cy="414.007" r="2.8" fill="#ffffff" /><text x="202.436" y="410.007" fill="#ffffff" font-size="10">2:v2</text><circle cx="216.564" cy="280.974" r="2.8" fill="#ffffff" /><text x="220.564" y="276.974" fill="#ffffff" font-size="10">3:v3</text><circle cx="95.685" cy="260.423" r="2.8" fill="#ffd400" /><text x="99.685" y="256.423" fill="#ffd400" font-size="10">4:p0</text><circle cx="69.669" cy="256.000" r="2.8" fill="#ffffff" /><text x="73.669" y="252.000" fill="#ffffff" font-size="10">5:v4</text><rect x="284.000" y="224.000" width="272.000" height="212.000" rx="10" fill="#0f172a" stroke="#23314f" stroke-width="1" /><text x="288.000" y="236.000" fill="#ffffff" font-size="13">Region Vertices &lt;= Bleed</text><path d="M 352.710 256.000 L 374.683 259.736 L 405.140 264.914 L 494.910 288.936 L 487.682 341.980 L 482.375 380.921 L 477.871 413.973 L 469.710 422.000 L 407.574 417.370 L 353.352 413.331 L 345.090 342.361 L 347.371 285.078 Z" fill="none" stroke="#8fa3bf" stroke-width="1.2" /><circle cx="352.710" cy="256.000" r="2.8" fill="#22d3ee" /><text x="356.710" y="252.000" fill="#22d3ee" font-size="10">0:r50v0 d=0.00</text><circle cx="347.371" cy="285.078" r="2.8" fill="#22d3ee" /><text x="351.371" y="281.078" fill="#22d3ee" font-size="10">1:r50v1 d=0.00</text><circle cx="374.683" cy="259.736" r="2.8" fill="#22d3ee" /><text x="378.683" y="255.736" fill="#22d3ee" font-size="10">2:r50v2 d=0.00</text><circle cx="347.371" cy="285.078" r="2.8" fill="#22d3ee" /><text x="351.371" y="281.078" fill="#22d3ee" font-size="10">3:r55v0 d=0.00</text><circle cx="345.090" cy="342.361" r="2.8" fill="#22d3ee" /><text x="349.090" y="338.361" fill="#22d3ee" font-size="10">4:r55v1 d=0.00</text><circle cx="374.683" cy="259.736" r="2.8" fill="#22d3ee" /><text x="378.683" y="255.736" fill="#22d3ee" font-size="10">5:r55v3 d=0.00</text><circle cx="345.090" cy="342.361" r="2.8" fill="#22d3ee" /><text x="349.090" y="338.361" fill="#22d3ee" font-size="10">6:r58v0 d=0.00</text><circle cx="353.352" cy="413.331" r="2.8" fill="#22d3ee" /><text x="357.352" y="409.331" fill="#22d3ee" font-size="10">7:r58v1 d=0.00</text><circle cx="407.574" cy="417.370" r="2.8" fill="#22d3ee" /><text x="411.574" y="413.370" fill="#22d3ee" font-size="10">8:r58v2 d=0.00</text><circle cx="494.910" cy="288.936" r="2.8" fill="#22d3ee" /><text x="498.910" y="284.936" fill="#22d3ee" font-size="10">9:r71v0 d=0.00</text><circle cx="405.140" cy="264.914" r="2.8" fill="#22d3ee" /><text x="409.140" y="260.914" fill="#22d3ee" font-size="10">10:r71v1 d=0.00</text><circle cx="374.683" cy="259.736" r="2.8" fill="#22d3ee" /><text x="378.683" y="255.736" fill="#22d3ee" font-size="10">11:r71v2 d=0.00</text><circle cx="407.574" cy="417.370" r="2.8" fill="#22d3ee" /><text x="411.574" y="413.370" fill="#22d3ee" font-size="10">12:r89v0 d=0.00</text><circle cx="469.710" cy="422.000" r="2.8" fill="#22d3ee" /><text x="473.710" y="418.000" fill="#22d3ee" font-size="10">13:r89v1 d=0.00</text><circle cx="477.871" cy="413.973" r="2.8" fill="#22d3ee" /><text x="481.871" y="409.973" fill="#22d3ee" font-size="10">14:r89v2 d=0.00</text><circle cx="482.375" cy="380.921" r="2.8" fill="#22d3ee" /><text x="486.375" y="376.921" fill="#22d3ee" font-size="10">15:r89v3 d=0.00</text><circle cx="482.375" cy="380.921" r="2.8" fill="#22d3ee" /><text x="486.375" y="376.921" fill="#22d3ee" font-size="10">16:r103v0 d=0.00</text><circle cx="487.682" cy="341.980" r="2.8" fill="#22d3ee" /><text x="491.682" y="337.980" fill="#22d3ee" font-size="10">17:r103v1 d=0.00</text><circle cx="487.682" cy="341.980" r="2.8" fill="#22d3ee" /><text x="491.682" y="337.980" fill="#22d3ee" font-size="10">18:r104v1 d=0.00</text><circle cx="494.910" cy="288.936" r="2.8" fill="#22d3ee" /><text x="498.910" y="284.936" fill="#22d3ee" font-size="10">19:r104v2 d=0.00</text><rect x="564.000" y="224.000" width="272.000" height="212.000" rx="10" fill="#0f172a" stroke="#23314f" stroke-width="1" /><text x="568.000" y="236.000" fill="#ffffff" font-size="13">Bleed Polygons</text><path d="M 643.615 271.111 L 661.797 274.202 L 686.999 278.487 L 761.279 298.365 L 755.298 342.255 L 750.907 374.478 L 747.180 401.826 L 740.427 408.468 L 689.012 404.638 L 644.146 401.295 L 637.310 342.571 L 639.197 295.172 Z" fill="none" stroke="#475569" stroke-width="0.9" /><path d="M 643.615 271.111 L 661.797 274.202 L 686.999 278.487 L 761.279 298.365 L 755.298 342.255 L 750.907 374.478 L 747.180 401.826 L 740.427 408.468 L 689.012 404.638 L 644.146 401.295 L 637.310 342.571 L 639.197 295.172 Z" fill="none" stroke="#8fa3bf" stroke-width="1.0" /><path d="M 633.044 256.000 L 663.997 261.262 L 689.801 265.650 L 775.846 288.675 L 768.303 344.028 L 763.912 376.250 L 759.580 408.040 L 745.387 422.000 L 688.037 417.727 L 632.362 413.579 L 624.154 343.072 L 626.119 293.718 Z" fill="none" stroke="#ffd400" stroke-width="1.2" /><path d="M 643.615 271.111 L 636.091 260.356 L 645.815 258.171 L 663.997 261.262 L 663.997 261.262 L 661.797 274.202 Z" fill="#e65128" fill-opacity="0.26" stroke="#e65128" stroke-width="1.0" /><path d="M 661.797 274.202 L 663.997 261.262 L 663.997 261.262 L 689.199 265.547 L 689.798 265.663 L 686.999 278.487 Z" fill="#e54526" fill-opacity="0.26" stroke="#e54526" stroke-width="1.0" /><path d="M 686.999 278.487 L 689.798 265.663 L 690.392 265.808 L 764.672 285.685 L 772.208 291.095 L 761.279 298.365 Z" fill="#e54526" fill-opacity="0.26" stroke="#e54526" stroke-width="1.0" /><path d="M 761.279 298.365 L 772.208 291.095 L 774.284 300.137 L 768.303 344.028 L 768.303 344.028 L 755.298 342.255 Z" fill="#ed7325" fill-opacity="0.26" stroke="#ed7325" stroke-width="1.0" /><path d="M 755.298 342.255 L 768.303 344.028 L 768.303 344.028 L 763.912 376.250 L 763.912 376.250 L 750.907 374.478 Z" fill="#f39522" fill-opacity="0.26" stroke="#f39522" stroke-width="1.0" /><path d="M 750.907 374.478 L 763.912 376.250 L 763.912 376.250 L 760.186 403.598 L 758.915 407.707 L 747.180 401.826 Z" fill="#f29c1f" fill-opacity="0.26" stroke="#f29c1f" stroke-width="1.0" /><path d="M 747.180 401.826 L 758.915 407.707 L 756.384 411.184 L 749.631 417.826 L 744.944 420.792 L 740.427 408.468 Z" fill="#f29c1f" fill-opacity="0.26" stroke="#f29c1f" stroke-width="1.0" /><path d="M 740.427 408.468 L 744.944 420.792 L 739.452 421.558 L 688.037 417.727 L 688.037 417.727 L 689.012 404.638 Z" fill="#f29c1f" fill-opacity="0.26" stroke="#f29c1f" stroke-width="1.0" /><path d="M 689.012 404.638 L 688.037 417.727 L 688.037 417.727 L 643.171 414.384 L 635.060 410.767 L 644.146 401.295 Z" fill="#f2a31c" fill-opacity="0.26" stroke="#f2a31c" stroke-width="1.0" /><path d="M 644.146 401.295 L 635.060 410.767 L 631.109 402.812 L 624.272 344.089 L 624.194 343.070 L 637.310 342.571 Z" fill="#f2a31c" fill-opacity="0.26" stroke="#f2a31c" stroke-width="1.0" /><path d="M 637.310 342.571 L 624.194 343.070 L 624.195 342.049 L 626.082 294.650 L 626.152 293.722 L 639.197 295.172 Z" fill="#ed7024" fill-opacity="0.26" stroke="#ed7024" stroke-width="1.0" /><path d="M 639.197 295.172 L 626.152 293.722 L 626.287 292.802 L 630.705 268.741 L 636.091 260.356 L 643.615 271.111 Z" fill="#e65128" fill-opacity="0.26" stroke="#e65128" stroke-width="1.0" /><rect x="4.000" y="444.000" width="272.000" height="212.000" rx="10" fill="#0f172a" stroke="#23314f" stroke-width="1" /><text x="8.000" y="456.000" fill="#ffffff" font-size="13">Final</text><path d="M 83.615 491.111 L 79.197 515.172 L 101.797 494.202 Z" fill="#e65128" fill-opacity="0.36" stroke="#e65128" stroke-width="0.8" /><path d="M 79.197 515.172 L 77.310 562.571 L 158.481 562.880 L 101.797 494.202 Z" fill="#ed7024" fill-opacity="0.36" stroke="#ed7024" stroke-width="0.8" /><path d="M 77.310 562.571 L 84.146 621.295 L 129.012 624.638 L 158.481 562.880 Z" fill="#f2a31c" fill-opacity="0.36" stroke="#f2a31c" stroke-width="0.8" /><path d="M 201.279 518.365 L 126.999 498.487 L 101.797 494.202 L 158.481 562.880 Z" fill="#e54526" fill-opacity="0.36" stroke="#e54526" stroke-width="0.8" /><path d="M 129.012 624.638 L 180.427 628.468 L 187.180 621.826 L 190.907 594.478 L 158.481 562.880 Z" fill="#f29c1f" fill-opacity="0.36" stroke="#f29c1f" stroke-width="0.8" /><path d="M 190.907 594.478 L 195.298 562.255 L 158.481 562.880 Z" fill="#f39522" fill-opacity="0.36" stroke="#f39522" stroke-width="0.8" /><path d="M 158.481 562.880 L 195.298 562.255 L 201.279 518.365 Z" fill="#ed7325" fill-opacity="0.36" stroke="#ed7325" stroke-width="0.8" /><path d="M 83.615 491.111 L 101.797 494.202 L 126.999 498.487 L 201.279 518.365 L 195.298 562.255 L 190.907 594.478 L 187.180 621.826 L 180.427 628.468 L 129.012 624.638 L 84.146 621.295 L 77.310 562.571 L 79.197 515.172 Z" fill="none" stroke="#475569" stroke-width="0.9" /><path d="M 83.615 491.111 L 101.797 494.202 L 126.999 498.487 L 201.279 518.365 L 195.298 562.255 L 190.907 594.478 L 187.180 621.826 L 180.427 628.468 L 129.012 624.638 L 84.146 621.295 L 77.310 562.571 L 79.197 515.172 Z" fill="none" stroke="#d1d5db" stroke-width="1.0" /><path d="M 83.615 491.111 L 76.091 480.356 L 85.815 478.171 L 103.997 481.262 L 103.997 481.262 L 101.797 494.202 Z" fill="#e65128" fill-opacity="0.46" stroke="#e65128" stroke-width="1.0" /><path d="M 101.797 494.202 L 103.997 481.262 L 103.997 481.262 L 129.199 485.547 L 129.798 485.663 L 126.999 498.487 Z" fill="#e54526" fill-opacity="0.46" stroke="#e54526" stroke-width="1.0" /><path d="M 126.999 498.487 L 129.798 485.663 L 130.392 485.808 L 204.672 505.685 L 212.208 511.095 L 201.279 518.365 Z" fill="#e54526" fill-opacity="0.46" stroke="#e54526" stroke-width="1.0" /><path d="M 201.279 518.365 L 212.208 511.095 L 214.284 520.137 L 208.303 564.028 L 208.303 564.028 L 195.298 562.255 Z" fill="#ed7325" fill-opacity="0.46" stroke="#ed7325" stroke-width="1.0" /><path d="M 195.298 562.255 L 208.303 564.028 L 208.303 564.028 L 203.912 596.250 L 203.912 596.250 L 190.907 594.478 Z" fill="#f39522" fill-opacity="0.46" stroke="#f39522" stroke-width="1.0" /><path d="M 190.907 594.478 L 203.912 596.250 L 203.912 596.250 L 200.186 623.598 L 198.915 627.707 L 187.180 621.826 Z" fill="#f29c1f" fill-opacity="0.46" stroke="#f29c1f" stroke-width="1.0" /><path d="M 187.180 621.826 L 198.915 627.707 L 196.384 631.184 L 189.631 637.826 L 184.944 640.792 L 180.427 628.468 Z" fill="#f29c1f" fill-opacity="0.46" stroke="#f29c1f" stroke-width="1.0" /><path d="M 180.427 628.468 L 184.944 640.792 L 179.452 641.558 L 128.037 637.727 L 128.037 637.727 L 129.012 624.638 Z" fill="#f29c1f" fill-opacity="0.46" stroke="#f29c1f" stroke-width="1.0" /><path d="M 129.012 624.638 L 128.037 637.727 L 128.037 637.727 L 83.171 634.384 L 75.060 630.767 L 84.146 621.295 Z" fill="#f2a31c" fill-opacity="0.46" stroke="#f2a31c" stroke-width="1.0" /><path d="M 84.146 621.295 L 75.060 630.767 L 71.109 622.812 L 64.272 564.089 L 64.194 563.070 L 77.310 562.571 Z" fill="#f2a31c" fill-opacity="0.46" stroke="#f2a31c" stroke-width="1.0" /><path d="M 77.310 562.571 L 64.194 563.070 L 64.195 562.049 L 66.082 514.650 L 66.152 513.722 L 79.197 515.172 Z" fill="#ed7024" fill-opacity="0.46" stroke="#ed7024" stroke-width="1.0" /><path d="M 79.197 515.172 L 66.152 513.722 L 66.287 512.802 L 70.705 488.741 L 76.091 480.356 L 83.615 491.111 Z" fill="#e65128" fill-opacity="0.46" stroke="#e65128" stroke-width="1.0" /></svg>