<svg xmlns="http://www.w3.org/2000/svg" width="840" height="660" viewBox="0 0 840 660"><rect width="100%" height="100%" fill="#0a1020" /><rect x="4.000" y="4.000" width="272.000" height="212.000" rx="10" fill="#0f172a" stroke="#23314f" stroke-width="1" /><text x="8.000" y="16.000" fill="#ffffff" font-size="13">Original Zone</text><path d="M 110.437 39.528 L 91.325 59.382 L 123.301 202.000 L 134.327 202.000 L 170.575 202.000 L 188.675 75.284 L 136.455 36.000 Z" fill="rgba(56,189,248,0.08)" stroke="#38bdf8" stroke-width="1.6" /><rect x="284.000" y="4.000" width="272.000" height="212.000" rx="10" fill="#0f172a" stroke="#23314f" stroke-width="1" /><text x="288.000" y="16.000" fill="#ffffff" font-size="13">Zone Outline</text><path d="M 371.097 58.716 L 378.231 51.305 L 390.299 38.770 L 410.723 36.000 L 426.473 42.774 L 449.317 59.959 L 468.903 74.692 L 463.171 114.821 L 460.070 136.527 L 457.723 152.958 L 450.718 202.000 L 414.300 202.000 L 403.223 202.000 L 396.527 172.133 L 393.965 160.707 L 381.539 105.286 Z" fill="none" stroke="#ffffff" stroke-width="1.3" /><rect x="564.000" y="4.000" width="272.000" height="212.000" rx="10" fill="#0f172a" stroke="#23314f" stroke-width="1" /><text x="568.000" y="16.000" fill="#ffffff" font-size="13">Vertex Order</text><path d="M 670.437 39.528 L 651.325 59.382 L 683.301 202.000 L 694.327 202.000 L 730.575 202.000 L 748.675 75.284 L 696.455 36.000 Z" fill="none" stroke="#8fa3bf" stroke-width="1.2" /><circle cx="670.437" cy="39.528" r="2.8" fill="#ffffff" /><text x="674.437" y="35.528" fill="#ffffff" font-size="10">0:v0</text><circle cx="651.325" cy="59.382" r="2.8" fill="#ffffff" /><text x="655.325" y="55.382" fill="#ffffff" font-size="10">1:v1</text><circle cx="661.718" cy="105.735" r="2.8" fill="#ffd400" /><text x="665.718" y="101.735" fill="#ffd400" font-size="10">2:p0</text><circle cx="683.301" cy="202.000" r="2.8" fill="#ffffff" /><text x="687.301" y="198.000" fill="#ffffff" font-size="10">3:v2</text><circle cx="694.327" cy="202.000" r="2.8" fill="#ffffff" /><text x="698.327" y="198.000" fill="#ffffff" font-size="10">4:v3</text><circle cx="730.575" cy="202.000" r="2.8" fill="#ffffff" /><text x="734.575" y="198.000" fill="#ffffff" font-size="10">5:v4</text><circle cx="739.645" cy="138.505" r="2.8" fill="#ffd400" /><text x="743.645" y="134.505" fill="#ffd400" font-size="10">6:p1</text><circle cx="748.675" cy="75.284" r="2.8" fill="#ffffff" /><text x="752.675" y="71.284" fill="#ffffff" font-size="10">7:v5</text><circle cx="696.455" cy="36.000" r="2.8" fill="#ffffff" /><text x="700.455" y="32.000" fill="#ffffff" font-size="10">8:v6</text><rect x="4.000" y="224.000" width="272.000" height="212.000" rx="10" fill="#0f172a" stroke="#23314f" stroke-width="1" /><text x="8.000" y="236.000" fill="#ffffff" font-size="13">Vertex Order After Merge (th=0.5)</text><path d="M 110.437 259.528 L 91.325 279.382 L 123.301 422.000 L 134.327 422.000 L 170.575 422.000 L 188.675 295.284 L 136.455 256.000 Z" fill="none" stroke="#8fa3bf" stroke-width="1.2" /><circle cx="110.437" cy="259.528" r="2.8" fill="#ffffff" /><text x="114.437" y="255.528" fill="#ffffff" font-size="10">0:v0</text><circle cx="91.325" cy="279.382" r="2.8" fill="#ffffff" /><text x="95.325" y="275.382" fill="#ffffff" font-size="10">1:v1</text><circle cx="101.718" cy="325.735" r="2.8" fill="#ffd400" /><text x="105.718" y="321.735" fill="#ffd400" font-size="10">2:p0</text><circle cx="123.301" cy="422.000" r="2.8" fill="#ffffff" /><text x="127.301" y="418.000" fill="#ffffff" font-size="10">3:v2</text><circle cx="134.327" cy="422.000" r="2.8" fill="#ffffff" /><text x="138.327" y="418.000" fill="#ffffff" font-size="10">4:v3</text><circle cx="170.575" cy="422.000" r="2.8" fill="#ffffff" /><text x="174.575" y="418.000" fill="#ffffff" font-size="10">5:v4</text><circle cx="179.645" cy="358.505" r="2.8" fill="#ffd400" /><text x="183.645" y="354.505" fill="#ffd400" font-size="10">6:p1</text><circle cx="188.675" cy="295.284" r="2.8" fill="#ffffff" /><text x="192.675" y="291.284" fill="#ffffff" font-size="10">7:v5</text><circle cx="136.455" cy="256.000" r="2.8" fill="#ffffff" /><text x="140.455" y="252.000" fill="#ffffff" font-size="10">8:v6</text><rect x="284.000" y="224.000" width="272.000" height="212.000" rx="10" fill="#0f172a" stroke="#23314f" stroke-width="1" /><text x="288.000" y="236.000" fill="#ffffff" font-size="13">Region Vertices &lt;= Bleed</text><path d="M 371.097 278.716 L 378.231 271.305 L 390.299 258.770 L 410.723 256.000 L 426.473 262.774 L 449.317 279.959 L 468.903 294.692 L 463.171 334.821 L 460.070 356.527 L 457.723 372.958 L 450.718 422.000 L 414.300 422.000 L 403.223 422.000 L 396.527 392.133 L 393.965 380.707 L 381.539 325.286 Z" fill="none" stroke="#8fa3bf" stroke-width="1.2" /><circle cx="378.231" cy="271.305" r="2.8" fill="#22d3ee" /><text x="382.231" y="267.305" fill="#22d3ee" font-size="10">0:r207v0 d=0.00</text><circle cx="371.097" cy="278.716" r="2.8" fill="#22d3ee" /><text x="375.097" y="274.716" fill="#22d3ee" font-size="10">1:r207v1 d=0.00</text><circle cx="381.539" cy="325.286" r="2.8" fill="#22d3ee" /><text x="385.539" y="321.286" fill="#22d3ee" font-size="10">2:r207v2 d=0.00</text><circle cx="410.723" cy="256.000" r="2.8" fill="#22d3ee" /><text x="414.723" y="252.000" fill="#22d3ee" font-size="10">3:r208v1 d=0.00</text><circle cx="390.299" cy="258.770" r="2.8" fill="#22d3ee" /><text x="394.299" y="254.770" fill="#22d3ee" font-size="10">4:r208v2 d=0.00</text><circle cx="378.231" cy="271.305" r="2.8" fill="#22d3ee" /><text x="382.231" y="267.305" fill="#22d3ee" font-size="10">5:r208v3 d=0.00</text><circle cx="381.539" cy="325.286" r="2.8" fill="#22d3ee" /><text x="385.539" y="321.286" fill="#22d3ee" font-size="10">6:r211v1 d=0.00</text><circle cx="393.965" cy="380.707" r="2.8" fill="#22d3ee" /><text x="397.965" y="376.707" fill="#22d3ee" font-size="10">7:r211v2 d=0.00</text><circle cx="393.965" cy="380.707" r="2.8" fill="#22d3ee" /><text x="397.965" y="376.707" fill="#22d3ee" font-size="10">8:r212v0 d=0.00</text><circle cx="396.527" cy="392.133" r="2.8" fill="#22d3ee" /><text x="400.527" y="388.133" fill="#22d3ee" font-size="10">9:r212v1 d=0.00</text><circle cx="396.527" cy="392.133" r="2.8" fill="#22d3ee" /><text x="400.527" y="388.133" fill="#22d3ee" font-size="10">10:r214v0 d=0.00</text><circle cx="403.223" cy="422.000" r="2.8" fill="#22d3ee" /><text x="407.223" y="418.000" fill="#22d3ee" font-size="10">11:r214v1 d=0.00</text><circle cx="414.300" cy="422.000" r="2.8" fill="#22d3ee" /><text x="418.300" y="418.000" fill="#22d3ee" font-size="10">12:r214v2 d=0.00</text><circle cx="381.539" cy="325.286" r="2.8" fill="#22d3ee" /><text x="385.539" y="321.286" fill="#22d3ee" font-size="10">13:r228v0 d=0.00</text><circle cx="426.473" cy="262.774" r="2.8" fill="#22d3ee" /><text x="430.473" y="258.774" fill="#22d3ee" font-size="10">14:r230v1 d=0.00</text><circle cx="410.723" cy="256.000" r="2.8" fill="#22d3ee" /><text x="414.723" y="252.000" fill="#22d3ee" font-size="10">15:r230v2 d=0.00</text><circle cx="449.317" cy="279.959" r="2.8" fill="#22d3ee" /><text x="453.317" y="275.959" fill="#22d3ee" font-size="10">16:r236v2 d=0.00</text><circle cx="426.473" cy="262.774" r="2.8" fill="#22d3ee" /><text x="430.473" y="258.774" fill="#22d3ee" font-size="10">17:r236v3 d=0.00</text><circle cx="414.300" cy="422.000" r="2.8" fill="#22d3ee" /><text x="418.300" y="418.000" fill="#22d3ee" font-size="10">18:r238v0 d=0.00</text><circle cx="414.300" cy="422.000" r="2.8" fill="#22d3ee" /><text x="418.300" y="418.000" fill="#22d3ee" font-size="10">19:r239v0 d=0.00</text><circle cx="450.718" cy="422.000" r="2.8" fill="#22d3ee" /><text x="454.718" y="418.000" fill="#22d3ee" font-size="10">20:r239v1 d=0.00</text><circle cx="463.171" cy="334.821" r="2.8" fill="#22d3ee" /><text x="467.171" y="330.821" fill="#22d3ee" font-size="10">21:r280v1 d=0.00</text><circle cx="468.903" cy="294.692" r="2.8" fill="#22d3ee" /><text x="472.903" y="290.692" fill="#22d3ee" font-size="10">22:r280v2 d=0.00</text><circle cx="449.317" cy="279.959" r="2.8" fill="#22d3ee" /><text x="453.317" y="275.959" fill="#22d3ee" font-size="10">23:r280v3 d=0.00</text><circle cx="450.718" cy="422.000" r="2.8" fill="#22d3ee" /><text x="454.718" y="418.000" fill="#22d3ee" font-size="10">24:r284v0 d=0.00</text><circle cx="457.723" cy="372.958" r="2.8" fill="#22d3ee" /><text x="461.723" y="368.958" fill="#22d3ee" font-size="10">25:r284v1 d=0.00</text><circle cx="460.070" cy="356.527" r="2.8" fill="#22d3ee" /><text x="464.070" y="352.527" fill="#22d3ee" font-size="10">26:r285v1 d=0.00</text><circle cx="463.171" cy="334.821" r="2.8" fill="#22d3ee" /><text x="467.171" y="330.821" fill="#22d3ee" font-size="10">27:r285v2 d=0.00</text><circle cx="457.723" cy="372.958" r="2.8" fill="#22d3ee" /><text x="461.723" y="368.958" fill="#22d3ee" font-size="10">28:r287v1 d=0.00</text><circle cx="460.070" cy="356.527" r="2.8" fill="#22d3ee" /><text x="464.070" y="352.527" fill="#22d3ee" font-size="10">29:r287v2 d=0.00</text><rect x="564.000" y="224.000" width="272.000" height="212.000" rx="10" fill="#0f172a" stroke="#23314f" stroke-width="1" /><text x="568.000" y="236.000" fill="#ffffff" font-size="13">Bleed Polygons</text><path d="M 655.826 284.559 L 662.282 277.853 L 673.201 266.510 L 691.683 264.004 L 705.935 270.134 L 726.606 285.684 L 744.329 299.016 L 739.142 335.328 L 736.336 354.970 L 734.213 369.838 L 727.874 414.216 L 694.920 414.216 L 684.896 414.216 L 678.837 387.189 L 676.518 376.850 L 665.274 326.700 Z" fill="none" stroke="#475569" stroke-width="0.9" /><path d="M 655.826 284.559 L 662.282 277.853 L 673.201 266.510 L 691.683 264.004 L 705.935 270.134 L 726.606 285.684 L 744.329 299.016 L 739.142 335.328 L 736.336 354.970 L 734.213 369.838 L 727.874 414.216 L 694.920 414.216 L 684.896 414.216 L 678.837 387.189 L 676.518 376.850 L 665.274 326.700 Z" fill="none" stroke="#8fa3bf" stroke-width="1.0" /><path d="M 647.314 282.177 L 656.674 272.455 L 669.472 259.160 L 692.776 256.000 L 709.868 263.352 L 731.286 279.463 L 752.686 295.562 L 746.848 336.429 L 744.043 356.071 L 741.919 370.939 L 734.625 422.000 L 694.920 422.000 L 678.664 422.000 L 671.241 388.892 L 668.923 378.553 L 657.679 328.403 Z" fill="none" stroke="#ffd400" stroke-width="1.2" /><path d="M 655.826 284.559 L 648.330 282.461 L 650.218 279.160 L 656.674 272.455 L 656.674 272.455 L 662.282 277.853 Z" fill="#082133" fill-opacity="0.26" stroke="#082133" stroke-width="1.0" /><path d="M 662.282 277.853 L 656.674 272.455 L 656.674 272.455 L 667.593 261.111 L 669.679 259.569 L 673.201 266.510 Z" fill="#0a1c2b" fill-opacity="0.26" stroke="#0a1c2b" stroke-width="1.0" /><path d="M 673.201 266.510 L 669.679 259.569 L 672.155 258.796 L 690.637 256.290 L 692.736 256.291 L 691.683 264.004 Z" fill="#0a1c2b" fill-opacity="0.26" stroke="#0a1c2b" stroke-width="1.0" /><path d="M 691.683 264.004 L 692.736 256.291 L 694.758 256.853 L 709.011 262.983 L 709.840 263.400 L 705.935 270.134 Z" fill="#e45b29" fill-opacity="0.26" stroke="#e45b29" stroke-width="1.0" /><path d="M 705.935 270.134 L 709.840 263.400 L 710.615 263.913 L 731.286 279.463 L 731.286 279.463 L 726.606 285.684 Z" fill="#e34026" fill-opacity="0.26" stroke="#e34026" stroke-width="1.0" /><path d="M 726.606 285.684 L 731.286 279.463 L 731.286 279.463 L 749.009 292.795 L 751.523 296.042 L 744.329 299.016 Z" fill="#e55724" fill-opacity="0.26" stroke="#e55724" stroke-width="1.0" /><path d="M 744.329 299.016 L 751.523 296.042 L 752.035 300.117 L 746.848 336.429 L 746.848 336.429 L 739.142 335.328 Z" fill="#e55724" fill-opacity="0.26" stroke="#e55724" stroke-width="1.0" /><path d="M 739.142 335.328 L 746.848 336.429 L 746.848 336.429 L 744.043 356.071 L 744.043 356.071 L 736.336 354.970 Z" fill="#e64739" fill-opacity="0.26" stroke="#e64739" stroke-width="1.0" /><path d="M 736.336 354.970 L 744.043 356.071 L 744.043 356.071 L 741.919 370.939 L 741.919 370.939 L 734.213 369.838 Z" fill="#cf3539" fill-opacity="0.26" stroke="#cf3539" stroke-width="1.0" /><path d="M 734.213 369.838 L 741.919 370.939 L 741.919 370.939 L 735.580 415.316 L 732.974 420.096 L 727.874 414.216 Z" fill="#ce3f44" fill-opacity="0.26" stroke="#ce3f44" stroke-width="1.0" /><path d="M 727.874 414.216 L 732.974 420.096 L 727.874 422.000 L 694.920 422.000 L 694.920 422.000 L 694.920 414.216 Z" fill="#b21f24" fill-opacity="0.26" stroke="#b21f24" stroke-width="1.0" /><path d="M 694.920 414.216 L 694.920 422.000 L 694.920 422.000 L 684.896 422.000 L 680.031 420.292 L 684.896 414.216 Z" fill="#0a1c29" fill-opacity="0.26" stroke="#0a1c29" stroke-width="1.0" /><path d="M 684.896 414.216 L 680.031 420.292 L 677.300 415.919 L 671.241 388.892 L 671.241 388.892 L 678.837 387.189 Z" fill="#0a1c29" fill-opacity="0.26" stroke="#0a1c29" stroke-width="1.0" /><path d="M 678.837 387.189 L 671.241 388.892 L 671.241 388.892 L 668.923 378.553 L 668.923 378.553 L 676.518 376.850 Z" fill="#1c2c39" fill-opacity="0.26" stroke="#1c2c39" stroke-width="1.0" /><path d="M 676.518 376.850 L 668.923 378.553 L 668.923 378.553 L 657.679 328.403 L 657.679 328.403 L 665.274 326.700 Z" fill="#002b45" fill-opacity="0.26" stroke="#002b45" stroke-width="1.0" /><path d="M 665.274 326.700 L 657.679 328.403 L 657.679 328.403 L 648.230 286.262 L 648.330 282.461 L 655.826 284.559 Z" fill="#082133" fill-opacity="0.26" stroke="#082133" stroke-width="1.0" /><rect x="4.000" y="444.000" width="272.000" height="212.000" rx="10" fill="#0f172a" stroke="#23314f" stroke-width="1" /><text x="8.000" y="456.000" fill="#ffffff" font-size="13">Final</text><path d="M 102.282 497.853 L 95.826 504.559 L 105.274 546.700 L 134.920 496.691 Z" fill="#082133" fill-opacity="0.36" stroke="#082133" stroke-width="0.8" /><path d="M 134.920 496.691 L 131.683 484.004 L 113.201 486.510 L 102.282 497.853 Z" fill="#0a1c2b" fill-opacity="0.36" stroke="#0a1c2b" stroke-width="0.8" /><path d="M 134.920 596.850 L 105.274 546.700 L 116.518 596.850 Z" fill="#002b45" fill-opacity="0.36" stroke="#002b45" stroke-width="0.8" /><path d="M 116.518 596.850 L 118.837 607.189 L 134.920 596.850 Z" fill="#1c2c39" fill-opacity="0.36" stroke="#1c2c39" stroke-width="0.8" /><path d="M 118.837 607.189 L 124.896 634.216 L 134.920 634.216 L 134.920 596.850 Z" fill="#0a1c29" fill-opacity="0.36" stroke="#0a1c29" stroke-width="0.8" /><path d="M 105.274 546.700 L 134.920 596.850 L 134.920 496.691 Z" fill="#082133" fill-opacity="0.36" stroke="#082133" stroke-width="0.8" /><path d="M 134.920 496.691 L 145.935 490.134 L 131.683 484.004 Z" fill="#e45b29" fill-opacity="0.36" stroke="#e45b29" stroke-width="0.8" /><path d="M 134.920 596.850 L 167.874 575.313 L 134.920 496.691 Z" fill="#d92e26" fill-opacity="0.36" stroke="#d92e26" stroke-width="0.8" /><path d="M 134.920 496.691 L 167.874 575.313 L 166.606 505.684 L 145.935 490.134 Z" fill="#e34026" fill-opacity="0.36" stroke="#e34026" stroke-width="0.8" /><path d="M 134.920 634.216 L 167.874 575.313 L 134.920 596.850 Z" fill="#c22126" fill-opacity="0.36" stroke="#c22126" stroke-width="0.8" /><path d="M 134.920 634.216 L 167.874 634.216 L 167.874 575.313 Z" fill="#b21f24" fill-opacity="0.36" stroke="#b21f24" stroke-width="0.8" /><path d="M 167.874 575.313 L 179.142 555.328 L 184.329 519.016 L 166.606 505.684 Z" fill="#e55724" fill-opacity="0.36" stroke="#e55724" stroke-width="0.8" /><path d="M 167.874 634.216 L 174.213 589.838 L 167.874 575.313 Z" fill="#ce3f44" fill-opacity="0.36" stroke="#ce3f44" stroke-width="0.8" /><path d="M 167.874 575.313 L 176.336 574.970 L 179.142 555.328 Z" fill="#e64739" fill-opacity="0.36" stroke="#e64739" stroke-width="0.8" /><path d="M 167.874 575.313 L 174.213 589.838 L 176.336 574.970 Z" fill="#cf3539" fill-opacity="0.36" stroke="#cf3539" stroke-width="0.8" /><path d="M 95.826 504.559 L 102.282 497.853 L 113.201 486.510 L 131.683 484.004 L 145.935 490.134 L 166.606 505.684 L 184.329 519.016 L 179.142 555.328 L 176.336 574.970 L 174.213 589.838 L 167.874 634.216 L 134.920 634.216 L 124.896 634.216 L 118.837 607.189 L 116.518 596.850 L 105.274 546.700 Z" fill="none" stroke="#475569" stroke-width="0.9" /><path d="M 95.826 504.559 L 102.282 497.853 L 113.201 486.510 L 131.683 484.004 L 145.935 490.134 L 166.606 505.684 L 184.329 519.016 L 179.142 555.328 L 176.336 574.970 L 174.213 589.838 L 167.874 634.216 L 134.920 634.216 L 124.896 634.216 L 118.837 607.189 L 116.518 596.850 L 105.274 546.700 Z" fill="none" stroke="#d1d5db" stroke-width="1.0" /><path d="M 95.826 504.559 L 88.330 502.461 L 90.218 499.160 L 96.674 492.455 L 96.674 492.455 L 102.282 497.853 Z" fill="#082133" fill-opacity="0.46" stroke="#082133" stroke-width="1.0" /><path d="M 102.282 497.853 L 96.674 492.455 L 96.674 492.455 L 107.593 481.111 L 109.679 479.569 L 113.201 486.510 Z" fill="#0a1c2b" fill-opacity="0.46" stroke="#0a1c2b" stroke-width="1.0" /><path d="M 113.201 486.510 L 109.679 479.569 L 112.155 478.796 L 130.637 476.290 L 132.736 476.291 L 131.683 484.004 Z" fill="#0a1c2b" fill-opacity="0.46" stroke="#0a1c2b" stroke-width="1.0" /><path d="M 131.683 484.004 L 132.736 476.291 L 134.758 476.853 L 149.011 482.983 L 149.840 483.400 L 145.935 490.134 Z" fill="#e45b29" fill-opacity="0.46" stroke="#e45b29" stroke-width="1.0" /><path d="M 145.935 490.134 L 149.840 483.400 L 150.615 483.913 L 171.286 499.463 L 171.286 499.463 L 166.606 505.684 Z" fill="#e34026" fill-opacity="0.46" stroke="#e34026" stroke-width="1.0" /><path d="M 166.606 505.684 L 171.286 499.463 L 171.286 499.463 L 189.009 512.795 L 191.523 516.042 L 184.329 519.016 Z" fill="#e55724" fill-opacity="0.46" stroke="#e55724" stroke-width="1.0" /><path d="M 184.329 519.016 L 191.523 516.042 L 192.035 520.117 L 186.848 556.429 L 186.848 556.429 L 179.142 555.328 Z" fill="#e55724" fill-opacity="0.46" stroke="#e55724" stroke-width="1.0" /><path d="M 179.142 555.328 L 186.848 556.429 L 186.848 556.429 L 184.043 576.071 L 184.043 576.071 L 176.336 574.970 Z" fill="#e64739" fill-opacity="0.46" stroke="#e64739" stroke-width="1.0" /><path d="M 176.336 574.970 L 184.043 576.071 L 184.043 576.071 L 181.919 590.939 L 181.919 590.939 L 174.213 589.838 Z" fill="#cf3539" fill-opacity="0.46" stroke="#cf3539" stroke-width="1.0" /><path d="M 174.213 589.838 L 181.919 590.939 L 181.919 590.939 L 175.580 635.316 L 172.974 640.096 L 167.874 634.216 Z" fill="#ce3f44" fill-opacity="0.46" stroke="#ce3f44" stroke-width="1.0" /><path d="M 167.874 634.216 L 172.974 640.096 L 167.874 642.000 L 134.920 642.000 L 134.920 642.000 L 134.920 634.216 Z" fill="#b21f24" fill-opacity="0.46" stroke="#b21f24" stroke-width="1.0" /><path d="M 134.920 634.216 L 134.920 642.000 L 134.920 642.000 L 124.896 642.000 L 120.031 640.292 L 124.896 634.216 Z" fill="#0a1c29" fill-opacity="0.46" stroke="#0a1c29" stroke-width="1.0" /><path d="M 124.896 634.216 L 120.031 640.292 L 117.300 635.919 L 111.241 608.892 L 111.241 608.892 L 118.837 607.189 Z" fill="#0a1c29" fill-opacity="0.46" stroke="#0a1c29" stroke-width="1.0" /><path d="M 118.837 607.189 L 111.241 608.892 L 111.241 608.892 L 108.923 598.553 L 108.923 598.553 L 116.518 596.850 Z" fill="#1c2c39" fill-opacity="0.46" stroke="#1c2c39" stroke-width="1.0" /><path d="M 116.518 596.850 L 108.923 598.553 L 108.923 598.553 L 97.679 548.403 L 97.679 548.403 L 105.274 546.700 Z" fill="#002b45" fill-opacity="0.46" stroke="#002b45" stroke-width="1.0" /><path d="M 105.274 546.700 L 97.679 548.403 L 97.679 548.403 L 88.230 506.262 L 88.330 502.461 L 95.826 504.559 Z" fill="#082133" fill-opacity="0.46" stroke="#082133" stroke-width="1.0" /></svg>