<svg xmlns="http://www.w3.org/2000/svg" viewBox="228.484 424.115 120.000 120.000" width="120" height="120"><rect width="100%" height="100%" fill="#081226"/><text x="234.484" y="438.115" fill="#ffffff" font-size="11">zone 54</text><text x="234.484" y="452.115" fill="#7dd3fc" font-size="10">zone_poly area=-904.995</text><text x="234.484" y="464.115" fill="#ffffff" font-size="10">boundary area=904.995</text><text x="234.484" y="476.115" fill="#ffd400" font-size="10">offset area=1324.247</text><text x="234.484" y="488.115" fill="#ff4fd8" font-size="10">bevel area=1324.247</text><text x="234.484" y="500.115" fill="#7CFC00" font-size="10">green=start, orange=next</text><path d="M 278.600 448.500 L 266.300 465.100 L 253.600 487.800 L 266.300 487.800 L 278.800 487.800 L 297.800 465.100 Z" fill="rgba(125,211,252,0.10)" stroke="#7dd3fc" stroke-width="1.5" /><path d="M 253.600 487.800 L 266.300 465.100 L 278.600 448.500 L 297.800 465.100 L 278.800 487.800 L 266.300 487.800 Z" fill="none" stroke="#ffffff" stroke-width="2" /><path d="M 248.484 490.800 L 263.775 463.468 L 278.115 444.115 L 301.995 464.762 L 280.201 490.800 L 266.300 490.800 Z" fill="none" stroke="#ffd400" stroke-width="2" /><path d="M 248.484 490.800 L 263.775 463.468 L 278.115 444.115 L 301.995 464.762 L 280.201 490.800 L 266.300 490.800 Z" fill="none" stroke="#ff4fd8" stroke-width="2" /><path d="M 278.115 444.115 L 263.775 463.468 L 248.484 490.800 L 266.300 490.800 L 280.201 490.800 L 301.995 464.762 Z" fill="none" stroke="#00e5a8" stroke-width="1" /><circle cx="253.600" cy="487.800" r="3.5" fill="#00ff7f" stroke="#001b12" stroke-width="1"/><circle cx="266.300" cy="465.100" r="3.0" fill="#ff9f1c" stroke="#2b1600" stroke-width="1"/><text x="259.600" y="481.800" fill="#ffffff" font-size="9">boundary:start</text><text x="272.300" y="475.100" fill="#ffffff" font-size="9">boundary:next</text><circle cx="248.484" cy="490.800" r="3.5" fill="#00ff7f" stroke="#001b12" stroke-width="1"/><circle cx="263.775" cy="463.468" r="3.0" fill="#ff9f1c" stroke="#2b1600" stroke-width="1"/><text x="254.484" y="484.800" fill="#ffd400" font-size="9">offset:start</text><text x="269.775" y="473.468" fill="#ffd400" font-size="9">offset:next</text><circle cx="248.484" cy="490.800" r="3.5" fill="#00ff7f" stroke="#001b12" stroke-width="1"/><circle cx="263.775" cy="463.468" r="3.0" fill="#ff9f1c" stroke="#2b1600" stroke-width="1"/><text x="254.484" y="484.800" fill="#ff4fd8" font-size="9">bevel:start</text><text x="269.775" y="473.468" fill="#ff4fd8" font-size="9">bevel:next</text></svg>