<svg xmlns="http://www.w3.org/2000/svg" width="840" height="660" viewBox="0 0 840 660"><rect width="100%" height="100%" fill="#0a1020" /><rect x="4.000" y="4.000" width="272.000" height="212.000" rx="10" fill="#0f172a" stroke="#23314f" stroke-width="1" /><text x="8.000" y="16.000" fill="#ffffff" font-size="13">Original Zone</text><path d="M 262.000 114.692 L 18.000 43.191 L 31.338 155.310 L 104.375 194.809 Z" fill="rgba(56,189,248,0.08)" stroke="#38bdf8" stroke-width="1.6" /><rect x="284.000" y="4.000" width="272.000" height="212.000" rx="10" fill="#0f172a" stroke="#23314f" stroke-width="1" /><text x="288.000" y="16.000" fill="#ffffff" font-size="13">Zone Outline</text><path d="M 303.659 90.758 L 305.420 105.567 L 306.506 114.692 L 306.909 118.082 L 311.338 155.310 L 345.993 174.052 L 384.375 194.809 L 416.998 178.228 L 421.965 175.703 L 542.000 114.692 L 298.000 43.191 L 300.510 64.288 Z" fill="none" stroke="#ffffff" stroke-width="1.3" /><rect x="564.000" y="4.000" width="272.000" height="212.000" rx="10" fill="#0f172a" stroke="#23314f" stroke-width="1" /><text x="568.000" y="16.000" fill="#ffffff" font-size="13">Vertex Order</text><path d="M 822.000 114.692 L 578.000 43.191 L 591.338 155.310 L 664.375 194.809 Z" fill="none" stroke="#8fa3bf" stroke-width="1.2" /><circle cx="822.000" cy="114.692" r="2.8" fill="#ffffff" /><text x="826.000" y="110.692" fill="#ffffff" font-size="10">0:v0</text><circle cx="578.000" cy="43.191" r="2.8" fill="#ffffff" /><text x="582.000" y="39.191" fill="#ffffff" font-size="10">1:v1</text><circle cx="586.688" cy="116.221" r="2.8" fill="#ffd400" /><text x="590.688" y="112.221" fill="#ffd400" font-size="10">2:p0</text><circle cx="591.338" cy="155.310" r="2.8" fill="#ffffff" /><text x="595.338" y="151.310" fill="#ffffff" font-size="10">3:v2</text><circle cx="664.375" cy="194.809" r="2.8" fill="#ffffff" /><text x="668.375" y="190.809" fill="#ffffff" font-size="10">4:v3</text><circle cx="696.998" cy="178.228" r="2.8" fill="#ffd400" /><text x="700.998" y="174.228" fill="#ffd400" font-size="10">5:p1</text><circle cx="701.965" cy="175.703" r="2.8" fill="#ffd400" /><text x="705.965" y="171.703" fill="#ffd400" font-size="10">6:p2</text><rect x="4.000" y="224.000" width="272.000" height="212.000" rx="10" fill="#0f172a" stroke="#23314f" stroke-width="1" /><text x="8.000" y="236.000" fill="#ffffff" font-size="13">Vertex Order After Merge (th=0.5)</text><path d="M 262.000 334.692 L 18.000 263.191 L 31.338 375.310 L 104.375 414.809 Z" fill="none" stroke="#8fa3bf" stroke-width="1.2" /><circle cx="262.000" cy="334.692" r="2.8" fill="#ffffff" /><text x="266.000" y="330.692" fill="#ffffff" font-size="10">0:v0</text><circle cx="18.000" cy="263.191" r="2.8" fill="#ffffff" /><text x="22.000" y="259.191" fill="#ffffff" font-size="10">1:v1</text><circle cx="26.688" cy="336.221" r="2.8" fill="#ffd400" /><text x="30.688" y="332.221" fill="#ffd400" font-size="10">2:p0</text><circle cx="31.338" cy="375.310" r="2.8" fill="#ffffff" /><text x="35.338" y="371.310" fill="#ffffff" font-size="10">3:v2</text><circle cx="104.375" cy="414.809" r="2.8" fill="#ffffff" /><text x="108.375" y="410.809" fill="#ffffff" font-size="10">4:v3</text><circle cx="136.998" cy="398.228" r="2.8" fill="#ffd400" /><text x="140.998" y="394.228" fill="#ffd400" font-size="10">5:p1</text><circle cx="141.965" cy="395.703" r="2.8" fill="#ffd400" /><text x="145.965" y="391.703" fill="#ffd400" font-size="10">6:p2</text><rect x="284.000" y="224.000" width="272.000" height="212.000" rx="10" fill="#0f172a" stroke="#23314f" stroke-width="1" /><text x="288.000" y="236.000" fill="#ffffff" font-size="13">Region Vertices &lt;= Bleed</text><path d="M 303.659 310.758 L 305.420 325.567 L 306.506 334.692 L 306.909 338.082 L 311.338 375.310 L 345.993 394.052 L 384.375 414.809 L 416.998 398.228 L 421.965 395.703 L 542.000 334.692 L 298.000 263.191 L 300.510 284.288 Z" fill="none" stroke="#8fa3bf" stroke-width="1.2" /><circle cx="303.659" cy="310.758" r="2.8" fill="#22d3ee" /><text x="307.659" y="306.758" fill="#22d3ee" font-size="10">0:r672v0 d=0.00</text><circle cx="305.420" cy="325.567" r="2.8" fill="#22d3ee" /><text x="309.420" y="321.567" fill="#22d3ee" font-size="10">1:r672v1 d=0.00</text><circle cx="306.506" cy="334.692" r="2.8" fill="#22d3ee" /><text x="310.506" y="330.692" fill="#22d3ee" font-size="10">2:r672v2 d=0.00</text><circle cx="300.510" cy="284.288" r="2.8" fill="#22d3ee" /><text x="304.510" y="280.288" fill="#22d3ee" font-size="10">3:r675v2 d=0.00</text><circle cx="303.659" cy="310.758" r="2.8" fill="#22d3ee" /><text x="307.659" y="306.758" fill="#22d3ee" font-size="10">4:r675v3 d=0.00</text><circle cx="542.000" cy="334.692" r="2.8" fill="#22d3ee" /><text x="546.000" y="330.692" fill="#22d3ee" font-size="10">5:r678v1 d=0.00</text><circle cx="298.000" cy="263.191" r="2.8" fill="#22d3ee" /><text x="302.000" y="259.191" fill="#22d3ee" font-size="10">6:r678v2 d=0.00</text><circle cx="300.510" cy="284.288" r="2.8" fill="#22d3ee" /><text x="304.510" y="280.288" fill="#22d3ee" font-size="10">7:r678v3 d=0.00</text><circle cx="306.506" cy="334.692" r="2.8" fill="#22d3ee" /><text x="310.506" y="330.692" fill="#22d3ee" font-size="10">8:r755v1 d=0.00</text><circle cx="306.909" cy="338.082" r="2.8" fill="#22d3ee" /><text x="310.909" y="334.082" fill="#22d3ee" font-size="10">9:r755v2 d=0.00</text><circle cx="311.338" cy="375.310" r="2.8" fill="#22d3ee" /><text x="315.338" y="371.310" fill="#22d3ee" font-size="10">10:r895v1 d=0.00</text><circle cx="345.993" cy="394.052" r="2.8" fill="#22d3ee" /><text x="349.993" y="390.052" fill="#22d3ee" font-size="10">11:r895v2 d=0.00</text><circle cx="345.993" cy="394.052" r="2.8" fill="#22d3ee" /><text x="349.993" y="390.052" fill="#22d3ee" font-size="10">12:r916v0 d=0.00</text><circle cx="384.375" cy="414.809" r="2.8" fill="#22d3ee" /><text x="388.375" y="410.809" fill="#22d3ee" font-size="10">13:r916v1 d=0.00</text><circle cx="384.375" cy="414.809" r="2.8" fill="#22d3ee" /><text x="388.375" y="410.809" fill="#22d3ee" font-size="10">14:r917v0 d=0.00</text><circle cx="416.998" cy="398.228" r="2.8" fill="#22d3ee" /><text x="420.998" y="394.228" fill="#22d3ee" font-size="10">15:r917v1 d=0.00</text><circle cx="421.965" cy="395.703" r="2.8" fill="#22d3ee" /><text x="425.965" y="391.703" fill="#22d3ee" font-size="10">16:r917v2 d=0.00</text><circle cx="421.965" cy="395.703" r="2.8" fill="#22d3ee" /><text x="425.965" y="391.703" fill="#22d3ee" font-size="10">17:r918v1 d=0.00</text><circle cx="421.965" cy="395.703" r="2.8" fill="#22d3ee" /><text x="425.965" y="391.703" fill="#22d3ee" font-size="10">18:r989v0 d=0.00</text><circle cx="542.000" cy="334.692" r="2.8" fill="#22d3ee" /><text x="546.000" y="330.692" fill="#22d3ee" font-size="10">19:r989v1 d=0.00</text><circle cx="311.338" cy="375.310" r="2.8" fill="#22d3ee" /><text x="315.338" y="371.310" fill="#22d3ee" font-size="10">20:r894v1 d=0.00</text><circle cx="311.338" cy="375.310" r="2.8" fill="#22d3ee" /><text x="315.338" y="371.310" fill="#22d3ee" font-size="10">21:r895v0 d=0.00</text><circle cx="311.338" cy="375.310" r="2.8" fill="#22d3ee" /><text x="315.338" y="371.310" fill="#22d3ee" font-size="10">22:r755v3 d=0.00</text><circle cx="311.338" cy="375.310" r="2.8" fill="#22d3ee" /><text x="315.338" y="371.310" fill="#22d3ee" font-size="10">23:r894v0 d=0.00</text><rect x="564.000" y="224.000" width="272.000" height="212.000" rx="10" fill="#0f172a" stroke="#23314f" stroke-width="1" /><text x="568.000" y="236.000" fill="#ffffff" font-size="13">Bleed Polygons</text><path d="M 593.933 316.230 L 595.429 328.808 L 596.351 336.559 L 596.693 339.438 L 600.455 371.056 L 629.888 386.974 L 662.486 404.604 L 690.194 390.520 L 694.413 388.376 L 796.361 336.559 L 589.126 275.830 L 591.258 293.749 Z" fill="none" stroke="#475569" stroke-width="0.9" /><path d="M 593.933 316.230 L 595.429 328.808 L 596.351 336.559 L 600.455 371.056 L 629.888 386.974 L 662.486 404.604 L 690.194 390.520 L 694.413 388.376 L 796.361 336.559 L 589.126 275.830 L 591.258 293.749 Z" fill="none" stroke="#8fa3bf" stroke-width="1.0" /><path d="M 584.504 317.352 L 586.001 329.930 L 586.923 337.680 L 591.608 377.066 L 625.371 395.326 L 662.350 415.324 L 694.497 398.985 L 698.715 396.840 L 822.000 334.178 L 578.000 262.676 L 581.830 294.870 Z" fill="none" stroke="#ffd400" stroke-width="1.2" /><path d="M 593.933 316.230 L 584.504 317.352 L 584.504 317.352 L 586.001 329.930 L 586.001 329.930 L 595.429 328.808 Z" fill="#59a4bd" fill-opacity="0.26" stroke="#59a4bd" stroke-width="1.0" /><path d="M 595.429 328.808 L 586.001 329.930 L 586.001 329.930 L 586.923 337.680 L 586.923 337.680 L 596.351 336.559 Z" fill="#59a4bd" fill-opacity="0.26" stroke="#59a4bd" stroke-width="1.0" /><path d="M 596.351 336.559 L 586.923 337.680 L 586.923 337.680 L 591.026 372.177 L 592.601 376.391 L 600.455 371.056 Z" fill="#bd4e3f" fill-opacity="0.26" stroke="#bd4e3f" stroke-width="1.0" /><path d="M 600.455 371.056 L 592.601 376.391 L 595.938 379.407 L 625.371 395.326 L 625.371 395.326 L 629.888 386.974 Z" fill="#eb6929" fill-opacity="0.26" stroke="#eb6929" stroke-width="1.0" /><path d="M 629.888 386.974 L 625.371 395.326 L 625.371 395.326 L 657.970 412.955 L 662.365 414.098 L 662.486 404.604 Z" fill="#f58a5c" fill-opacity="0.26" stroke="#f58a5c" stroke-width="1.0" /><path d="M 662.486 404.604 L 662.365 414.098 L 666.789 413.068 L 694.497 398.985 L 694.497 398.985 L 690.194 390.520 Z" fill="#de6659" fill-opacity="0.26" stroke="#de6659" stroke-width="1.0" /><path d="M 690.194 390.520 L 694.497 398.985 L 694.497 398.985 L 698.715 396.840 L 698.715 396.840 L 694.413 388.376 Z" fill="#de6659" fill-opacity="0.26" stroke="#de6659" stroke-width="1.0" /><path d="M 694.413 388.376 L 698.715 396.840 L 698.715 396.840 L 800.663 345.023 L 805.815 335.681 L 796.361 336.559 Z" fill="#5e7a99" fill-opacity="0.26" stroke="#5e7a99" stroke-width="1.0" /><path d="M 796.361 336.559 L 805.815 335.681 L 799.031 327.447 L 591.797 266.719 L 582.995 268.581 L 589.126 275.830 Z" fill="#66a6d1" fill-opacity="0.26" stroke="#66a6d1" stroke-width="1.0" /><path d="M 589.126 275.830 L 582.995 268.581 L 579.698 276.952 L 581.830 294.870 L 581.830 294.870 L 591.258 293.749 Z" fill="#66a6d1" fill-opacity="0.26" stroke="#66a6d1" stroke-width="1.0" /><path d="M 591.258 293.749 L 581.830 294.870 L 581.830 294.870 L 584.504 317.352 L 584.504 317.352 L 593.933 316.230 Z" fill="#57a3c9" fill-opacity="0.26" stroke="#57a3c9" stroke-width="1.0" /><rect x="4.000" y="444.000" width="272.000" height="212.000" rx="10" fill="#0f172a" stroke="#23314f" stroke-width="1" /><text x="8.000" y="456.000" fill="#ffffff" font-size="13">Final</text><path d="M 33.933 536.230 L 35.429 548.808 L 36.351 556.559 L 47.417 556.559 L 69.888 556.559 Z" fill="#59a4bd" fill-opacity="0.36" stroke="#59a4bd" stroke-width="0.8" /><path d="M 69.888 556.559 L 134.135 556.559 L 31.258 513.749 L 33.933 536.230 Z" fill="#57a3c9" fill-opacity="0.36" stroke="#57a3c9" stroke-width="0.8" /><path d="M 134.135 556.559 L 236.361 556.559 L 29.126 495.830 L 31.258 513.749 Z" fill="#66a6d1" fill-opacity="0.36" stroke="#66a6d1" stroke-width="0.8" /><path d="M 47.417 556.559 L 36.351 556.559 L 36.693 559.438 L 40.455 591.056 Z" fill="#bd4e3f" fill-opacity="0.36" stroke="#bd4e3f" stroke-width="0.8" /><path d="M 40.455 591.056 L 40.455 591.056 L 69.888 556.559 L 47.417 556.559 Z" fill="#c84f32" fill-opacity="0.36" stroke="#c84f32" stroke-width="0.8" /><path d="M 40.455 591.056 L 40.455 591.056 L 69.888 606.974 L 69.888 556.559 Z" fill="#eb6929" fill-opacity="0.36" stroke="#eb6929" stroke-width="0.8" /><path d="M 69.888 606.974 L 102.486 624.604 L 69.888 556.559 Z" fill="#f58a5c" fill-opacity="0.36" stroke="#f58a5c" stroke-width="0.8" /><path d="M 102.486 624.604 L 130.194 610.520 L 134.413 608.376 L 69.888 556.559 Z" fill="#de6659" fill-opacity="0.36" stroke="#de6659" stroke-width="0.8" /><path d="M 69.888 556.559 L 134.413 608.376 L 134.135 556.559 Z" fill="#de6357" fill-opacity="0.36" stroke="#de6357" stroke-width="0.8" /><path d="M 134.413 608.376 L 236.361 556.559 L 134.135 556.559 Z" fill="#5e7a99" fill-opacity="0.36" stroke="#5e7a99" stroke-width="0.8" /><path d="M 33.933 536.230 L 35.429 548.808 L 36.351 556.559 L 36.693 559.438 L 40.455 591.056 L 69.888 606.974 L 102.486 624.604 L 130.194 610.520 L 134.413 608.376 L 236.361 556.559 L 29.126 495.830 L 31.258 513.749 Z" fill="none" stroke="#475569" stroke-width="0.9" /><path d="M 33.933 536.230 L 35.429 548.808 L 36.351 556.559 L 40.455 591.056 L 69.888 606.974 L 102.486 624.604 L 130.194 610.520 L 134.413 608.376 L 236.361 556.559 L 29.126 495.830 L 31.258 513.749 Z" fill="none" stroke="#d1d5db" stroke-width="1.0" /><path d="M 33.933 536.230 L 24.504 537.352 L 24.504 537.352 L 26.001 549.930 L 26.001 549.930 L 35.429 548.808 Z" fill="#59a4bd" fill-opacity="0.46" stroke="#59a4bd" stroke-width="1.0" /><path d="M 35.429 548.808 L 26.001 549.930 L 26.001 549.930 L 26.923 557.680 L 26.923 557.680 L 36.351 556.559 Z" fill="#59a4bd" fill-opacity="0.46" stroke="#59a4bd" stroke-width="1.0" /><path d="M 36.351 556.559 L 26.923 557.680 L 26.923 557.680 L 31.026 592.177 L 32.601 596.391 L 40.455 591.056 Z" fill="#bd4e3f" fill-opacity="0.46" stroke="#bd4e3f" stroke-width="1.0" /><path d="M 40.455 591.056 L 32.601 596.391 L 35.938 599.407 L 65.371 615.326 L 65.371 615.326 L 69.888 606.974 Z" fill="#eb6929" fill-opacity="0.46" stroke="#eb6929" stroke-width="1.0" /><path d="M 69.888 606.974 L 65.371 615.326 L 65.371 615.326 L 97.970 632.955 L 102.365 634.098 L 102.486 624.604 Z" fill="#f58a5c" fill-opacity="0.46" stroke="#f58a5c" stroke-width="1.0" /><path d="M 102.486 624.604 L 102.365 634.098 L 106.789 633.068 L 134.497 618.985 L 134.497 618.985 L 130.194 610.520 Z" fill="#de6659" fill-opacity="0.46" stroke="#de6659" stroke-width="1.0" /><path d="M 130.194 610.520 L 134.497 618.985 L 134.497 618.985 L 138.715 616.840 L 138.715 616.840 L 134.413 608.376 Z" fill="#de6659" fill-opacity="0.46" stroke="#de6659" stroke-width="1.0" /><path d="M 134.413 608.376 L 138.715 616.840 L 138.715 616.840 L 240.663 565.023 L 245.815 555.681 L 236.361 556.559 Z" fill="#5e7a99" fill-opacity="0.46" stroke="#5e7a99" stroke-width="1.0" /><path d="M 236.361 556.559 L 245.815 555.681 L 239.031 547.447 L 31.797 486.719 L 22.995 488.581 L 29.126 495.830 Z" fill="#66a6d1" fill-opacity="0.46" stroke="#66a6d1" stroke-width="1.0" /><path d="M 29.126 495.830 L 22.995 488.581 L 19.698 496.952 L 21.830 514.870 L 21.830 514.870 L 31.258 513.749 Z" fill="#66a6d1" fill-opacity="0.46" stroke="#66a6d1" stroke-width="1.0" /><path d="M 31.258 513.749 L 21.830 514.870 L 21.830 514.870 L 24.504 537.352 L 24.504 537.352 L 33.933 536.230 Z" fill="#57a3c9" fill-opacity="0.46" stroke="#57a3c9" stroke-width="1.0" /></svg>