<svg xmlns="http://www.w3.org/2000/svg" viewBox="334.109 91.000 168.832 120.000" width="169" height="120"><rect width="100%" height="100%" fill="#081226"/><text x="340.109" y="105.000" fill="#ffffff" font-size="11">zone 0</text><text x="340.109" y="119.000" fill="#7dd3fc" font-size="10">zone_poly area=-2916.620</text><text x="340.109" y="131.000" fill="#ffffff" font-size="10">boundary area=-2916.620</text><text x="340.109" y="143.000" fill="#ffd400" font-size="10">offset area=-4092.803</text><text x="340.109" y="155.000" fill="#ff4fd8" font-size="10">bevel area=-4047.419</text><text x="340.109" y="167.000" fill="#7CFC00" font-size="10">green=start, orange=next</text><path d="M 377.000 124.900 L 415.400 142.400 L 367.900 151.600 L 401.200 160.000 L 424.700 160.000 L 445.000 160.000 L 453.700 160.000 L 457.900 151.600 L 445.000 151.600 L 445.000 143.100 L 456.800 144.400 L 477.300 114.000 L 445.000 114.000 L 424.700 114.000 L 417.600 114.000 L 415.400 124.900 Z" fill="rgba(125,211,252,0.10)" stroke="#7dd3fc" stroke-width="1.5" /><path d="M 367.900 151.600 L 401.200 160.000 L 424.700 160.000 L 445.000 160.000 L 453.700 160.000 L 457.900 151.600 L 445.000 151.600 L 445.000 143.100 L 456.800 144.400 L 477.300 114.000 L 445.000 114.000 L 424.700 114.000 L 417.600 114.000 L 415.400 124.900 L 377.000 124.900 L 415.400 142.400 Z" fill="none" stroke="#ffffff" stroke-width="2" /><path d="M 354.109 151.215 L 400.827 163.000 L 424.700 163.000 L 445.000 163.000 L 455.554 163.000 L 462.754 148.600 L 448.000 148.600 L 448.000 146.449 L 458.274 147.581 L 482.941 111.000 L 445.000 111.000 L 424.700 111.000 L 415.145 111.000 L 412.945 121.900 L 363.183 121.900 L 405.618 141.239 Z" fill="none" stroke="#ffd400" stroke-width="2" /><path d="M 364.982 149.109 L 364.848 153.924 L 400.827 163.000 L 424.700 163.000 L 445.000 163.000 L 455.554 163.000 L 462.754 148.600 L 448.000 148.600 L 448.000 146.449 L 458.274 147.581 L 481.082 113.758 L 479.615 111.000 L 445.000 111.000 L 424.700 111.000 L 415.145 111.000 L 412.945 121.900 L 374.680 121.900 L 373.645 126.668 L 399.610 138.501 L 399.136 142.494 Z" fill="none" stroke="#ff4fd8" stroke-width="2" /><path d="M 374.680 121.900 L 373.645 126.668 L 399.610 138.501 L 399.136 142.494 L 364.982 149.109 L 364.848 153.924 L 400.827 163.000 L 424.700 163.000 L 445.000 163.000 L 455.554 163.000 L 462.754 148.600 L 448.000 148.600 L 448.000 146.449 L 458.274 147.581 L 481.082 113.758 L 479.615 111.000 L 445.000 111.000 L 424.700 111.000 L 415.145 111.000 L 412.945 121.900 Z" fill="none" stroke="#00e5a8" stroke-width="1" /><circle cx="367.900" cy="151.600" r="3.5" fill="#00ff7f" stroke="#001b12" stroke-width="1"/><circle cx="401.200" cy="160.000" r="3.0" fill="#ff9f1c" stroke="#2b1600" stroke-width="1"/><text x="373.900" y="145.600" fill="#ffffff" font-size="9">boundary:start</text><text x="407.200" y="170.000" fill="#ffffff" font-size="9">boundary:next</text><circle cx="354.109" cy="151.215" r="3.5" fill="#00ff7f" stroke="#001b12" stroke-width="1"/><circle cx="400.827" cy="163.000" r="3.0" fill="#ff9f1c" stroke="#2b1600" stroke-width="1"/><text x="360.109" y="145.215" fill="#ffd400" font-size="9">offset:start</text><text x="406.827" y="173.000" fill="#ffd400" font-size="9">offset:next</text><circle cx="364.982" cy="149.109" r="3.5" fill="#00ff7f" stroke="#001b12" stroke-width="1"/><circle cx="364.848" cy="153.924" r="3.0" fill="#ff9f1c" stroke="#2b1600" stroke-width="1"/><text x="370.982" y="143.109" fill="#ff4fd8" font-size="9">bevel:start</text><text x="370.848" y="163.924" fill="#ff4fd8" font-size="9">bevel:next</text></svg>