<svg xmlns="http://www.w3.org/2000/svg" viewBox="434.500 347.900 127.291 120.000" width="127" height="120"><rect width="100%" height="100%" fill="#081226"/><text x="440.500" y="361.900" fill="#ffffff" font-size="11">zone 3</text><text x="440.500" y="375.900" fill="#7dd3fc" font-size="10">zone_poly area=-2638.440</text><text x="440.500" y="387.900" fill="#ffffff" font-size="10">boundary area=-2638.440</text><text x="440.500" y="399.900" fill="#ffd400" font-size="10">offset area=-3511.701</text><text x="440.500" y="411.900" fill="#ff4fd8" font-size="10">bevel area=-3496.866</text><text x="440.500" y="423.900" fill="#7CFC00" font-size="10">green=start, orange=next</text><path d="M 469.700 388.100 L 457.500 375.600 L 457.500 409.600 L 469.700 426.700 L 485.300 425.800 L 490.600 418.900 L 497.300 415.400 L 505.300 414.100 L 513.000 416.100 L 517.500 406.300 L 534.800 388.100 L 496.300 388.100 L 514.100 370.900 L 477.700 370.900 Z" fill="rgba(125,211,252,0.10)" stroke="#7dd3fc" stroke-width="1.5" /><path d="M 457.500 375.600 L 457.500 409.600 L 469.700 426.700 L 485.300 425.800 L 490.600 418.900 L 497.300 415.400 L 505.300 414.100 L 513.000 416.100 L 517.500 406.300 L 534.800 388.100 L 496.300 388.100 L 514.100 370.900 L 477.700 370.900 L 469.700 388.100 Z" fill="none" stroke="#ffffff" stroke-width="2" /><path d="M 454.500 368.231 L 454.500 410.560 L 468.220 429.790 L 486.843 428.716 L 492.576 421.253 L 498.260 418.283 L 505.157 417.163 L 514.678 419.635 L 520.018 408.005 L 541.791 385.100 L 503.722 385.100 L 521.522 367.900 L 475.787 367.900 L 468.812 382.895 Z" fill="none" stroke="#ffd400" stroke-width="2" /><path d="M 457.802 371.615 L 454.500 372.959 L 454.500 410.560 L 468.220 429.790 L 486.843 428.716 L 492.576 421.253 L 498.260 418.283 L 505.157 417.163 L 514.678 419.635 L 520.018 408.005 L 538.757 388.292 L 537.387 385.100 L 508.496 385.100 L 507.155 381.782 L 518.089 371.218 L 516.748 367.900 L 475.787 367.900 L 468.812 382.895 Z" fill="none" stroke="#ff4fd8" stroke-width="2" /><path d="M 468.812 382.895 L 457.802 371.615 L 454.500 372.959 L 454.500 410.560 L 468.220 429.790 L 486.843 428.716 L 492.576 421.253 L 498.260 418.283 L 505.157 417.163 L 514.678 419.635 L 520.018 408.005 L 538.757 388.292 L 537.387 385.100 L 508.496 385.100 L 507.155 381.782 L 518.089 371.218 L 516.748 367.900 L 475.787 367.900 Z" fill="none" stroke="#00e5a8" stroke-width="1" /><circle cx="457.500" cy="375.600" r="3.5" fill="#00ff7f" stroke="#001b12" stroke-width="1"/><circle cx="457.500" cy="409.600" r="3.0" fill="#ff9f1c" stroke="#2b1600" stroke-width="1"/><text x="463.500" y="369.600" fill="#ffffff" font-size="9">boundary:start</text><text x="463.500" y="419.600" fill="#ffffff" font-size="9">boundary:next</text><circle cx="454.500" cy="368.231" r="3.5" fill="#00ff7f" stroke="#001b12" stroke-width="1"/><circle cx="454.500" cy="410.560" r="3.0" fill="#ff9f1c" stroke="#2b1600" stroke-width="1"/><text x="460.500" y="362.231" fill="#ffd400" font-size="9">offset:start</text><text x="460.500" y="420.560" fill="#ffd400" font-size="9">offset:next</text><circle cx="457.802" cy="371.615" r="3.5" fill="#00ff7f" stroke="#001b12" stroke-width="1"/><circle cx="454.500" cy="372.959" r="3.0" fill="#ff9f1c" stroke="#2b1600" stroke-width="1"/><text x="463.802" y="365.615" fill="#ff4fd8" font-size="9">bevel:start</text><text x="460.500" y="382.959" fill="#ff4fd8" font-size="9">bevel:next</text></svg>