<svg xmlns="http://www.w3.org/2000/svg" width="840" height="660" viewBox="0 0 840 660"><rect width="100%" height="100%" fill="#0a1020" /><rect x="4.000" y="4.000" width="272.000" height="212.000" rx="10" fill="#0f172a" stroke="#23314f" stroke-width="1" /><text x="8.000" y="16.000" fill="#ffffff" font-size="13">Original Zone</text><path d="M 149.604 202.000 L 194.767 194.135 L 210.911 66.858 L 81.151 36.000 L 74.682 42.362 L 69.089 134.206 Z" fill="rgba(56,189,248,0.08)" stroke="#38bdf8" stroke-width="1.6" /><rect x="284.000" y="4.000" width="272.000" height="212.000" rx="10" fill="#0f172a" stroke="#23314f" stroke-width="1" /><text x="288.000" y="16.000" fill="#ffffff" font-size="13">Zone Outline</text><path d="M 352.276 81.866 L 351.553 93.749 L 351.451 95.414 L 349.089 134.206 L 388.729 167.583 L 429.604 202.000 L 464.605 195.904 L 474.782 194.015 L 477.140 175.428 L 481.469 141.298 L 482.309 134.676 L 483.041 128.906 L 490.911 66.858 L 406.478 46.779 L 361.151 36.000 L 353.981 53.873 Z" fill="none" stroke="#ffffff" stroke-width="1.3" /><rect x="564.000" y="4.000" width="272.000" height="212.000" rx="10" fill="#0f172a" stroke="#23314f" stroke-width="1" /><text x="568.000" y="16.000" fill="#ffffff" font-size="13">Vertex Order</text><path d="M 709.604 202.000 L 754.767 194.135 L 770.911 66.858 L 641.151 36.000 L 634.682 42.362 L 629.089 134.206 Z" fill="none" stroke="#8fa3bf" stroke-width="1.2" /><circle cx="709.604" cy="202.000" r="2.8" fill="#ffffff" /><text x="713.604" y="198.000" fill="#ffffff" font-size="10">0:v0</text><circle cx="754.767" cy="194.135" r="2.8" fill="#ffffff" /><text x="758.767" y="190.135" fill="#ffffff" font-size="10">1:v1</text><circle cx="757.140" cy="175.428" r="2.8" fill="#ffd400" /><text x="761.140" y="171.428" fill="#ffd400" font-size="10">2:p0</text><circle cx="761.715" cy="139.354" r="2.8" fill="#ffd400" /><text x="765.715" y="135.354" fill="#ffd400" font-size="10">3:p1</text><circle cx="770.911" cy="66.858" r="2.8" fill="#ffffff" /><text x="774.911" y="62.858" fill="#ffffff" font-size="10">4:v2</text><circle cx="686.478" cy="46.779" r="2.8" fill="#ffd400" /><text x="690.478" y="42.779" fill="#ffd400" font-size="10">5:p2</text><circle cx="641.151" cy="36.000" r="2.8" fill="#ffffff" /><text x="645.151" y="32.000" fill="#ffffff" font-size="10">6:v3</text><circle cx="634.682" cy="42.362" r="2.8" fill="#ffffff" /><text x="638.682" y="38.362" fill="#ffffff" font-size="10">7:v4</text><circle cx="631.539" cy="93.964" r="2.8" fill="#ffd400" /><text x="635.539" y="89.964" fill="#ffd400" font-size="10">8:p3</text><circle cx="629.089" cy="134.206" r="2.8" fill="#ffffff" /><text x="633.089" y="130.206" fill="#ffffff" font-size="10">9:v5</text><circle cx="668.729" cy="167.583" r="2.8" fill="#ffd400" /><text x="672.729" y="163.583" fill="#ffd400" font-size="10">10:p4</text><rect x="4.000" y="224.000" width="272.000" height="212.000" rx="10" fill="#0f172a" stroke="#23314f" stroke-width="1" /><text x="8.000" y="236.000" fill="#ffffff" font-size="13">Vertex Order After Merge (th=0.5)</text><path d="M 149.604 422.000 L 194.767 414.135 L 210.911 286.858 L 81.151 256.000 L 74.682 262.362 L 69.089 354.206 Z" fill="none" stroke="#8fa3bf" stroke-width="1.2" /><circle cx="149.604" cy="422.000" r="2.8" fill="#ffffff" /><text x="153.604" y="418.000" fill="#ffffff" font-size="10">0:v0</text><circle cx="194.767" cy="414.135" r="2.8" fill="#ffffff" /><text x="198.767" y="410.135" fill="#ffffff" font-size="10">1:v1</text><circle cx="197.140" cy="395.428" r="2.8" fill="#ffd400" /><text x="201.140" y="391.428" fill="#ffd400" font-size="10">2:p0</text><circle cx="201.715" cy="359.354" r="2.8" fill="#ffd400" /><text x="205.715" y="355.354" fill="#ffd400" font-size="10">3:p1</text><circle cx="210.911" cy="286.858" r="2.8" fill="#ffffff" /><text x="214.911" y="282.858" fill="#ffffff" font-size="10">4:v2</text><circle cx="126.478" cy="266.779" r="2.8" fill="#ffd400" /><text x="130.478" y="262.779" fill="#ffd400" font-size="10">5:p2</text><circle cx="81.151" cy="256.000" r="2.8" fill="#ffffff" /><text x="85.151" y="252.000" fill="#ffffff" font-size="10">6:v3</text><circle cx="74.682" cy="262.362" r="2.8" fill="#ffffff" /><text x="78.682" y="258.362" fill="#ffffff" font-size="10">7:v4</text><circle cx="71.539" cy="313.964" r="2.8" fill="#ffd400" /><text x="75.539" y="309.964" fill="#ffd400" font-size="10">8:p3</text><circle cx="69.089" cy="354.206" r="2.8" fill="#ffffff" /><text x="73.089" y="350.206" fill="#ffffff" font-size="10">9:v5</text><circle cx="108.729" cy="387.583" r="2.8" fill="#ffd400" /><text x="112.729" y="383.583" fill="#ffd400" font-size="10">10:p4</text><rect x="284.000" y="224.000" width="272.000" height="212.000" rx="10" fill="#0f172a" stroke="#23314f" stroke-width="1" /><text x="288.000" y="236.000" fill="#ffffff" font-size="13">Region Vertices &lt;= Bleed</text><path d="M 352.276 301.866 L 351.553 313.749 L 351.451 315.414 L 349.089 354.206 L 388.729 387.583 L 429.604 422.000 L 464.605 415.904 L 474.782 414.015 L 477.140 395.428 L 481.469 361.298 L 482.309 354.676 L 483.041 348.906 L 490.911 286.858 L 406.478 266.779 L 361.151 256.000 L 353.981 273.873 Z" fill="none" stroke="#8fa3bf" stroke-width="1.2" /><circle cx="352.276" cy="301.866" r="2.8" fill="#22d3ee" /><text x="356.276" y="297.866" fill="#22d3ee" font-size="10">0:r91v0 d=0.00</text><circle cx="351.553" cy="313.749" r="2.8" fill="#22d3ee" /><text x="355.553" y="309.749" fill="#22d3ee" font-size="10">1:r91v1 d=0.00</text><circle cx="353.981" cy="273.873" r="2.8" fill="#22d3ee" /><text x="357.981" y="269.873" fill="#22d3ee" font-size="10">2:r92v2 d=0.00</text><circle cx="352.276" cy="301.866" r="2.8" fill="#22d3ee" /><text x="356.276" y="297.866" fill="#22d3ee" font-size="10">3:r92v3 d=0.00</text><circle cx="361.151" cy="256.000" r="2.8" fill="#22d3ee" /><text x="365.151" y="252.000" fill="#22d3ee" font-size="10">4:r94v1 d=0.00</text><circle cx="353.981" cy="273.873" r="2.8" fill="#22d3ee" /><text x="357.981" y="269.873" fill="#22d3ee" font-size="10">5:r94v2 d=0.00</text><circle cx="351.451" cy="315.414" r="2.8" fill="#22d3ee" /><text x="355.451" y="311.414" fill="#22d3ee" font-size="10">6:r98v1 d=0.00</text><circle cx="349.089" cy="354.206" r="2.8" fill="#22d3ee" /><text x="353.089" y="350.206" fill="#22d3ee" font-size="10">7:r98v2 d=0.00</text><circle cx="351.553" cy="313.749" r="2.8" fill="#22d3ee" /><text x="355.553" y="309.749" fill="#22d3ee" font-size="10">8:r109v2 d=0.00</text><circle cx="351.451" cy="315.414" r="2.8" fill="#22d3ee" /><text x="355.451" y="311.414" fill="#22d3ee" font-size="10">9:r109v3 d=0.00</text><circle cx="429.604" cy="422.000" r="2.8" fill="#22d3ee" /><text x="433.604" y="418.000" fill="#22d3ee" font-size="10">10:r119v0 d=0.00</text><circle cx="464.605" cy="415.904" r="2.8" fill="#22d3ee" /><text x="468.605" y="411.904" fill="#22d3ee" font-size="10">11:r119v1 d=0.00</text><circle cx="474.782" cy="414.015" r="2.8" fill="#22d3ee" /><text x="478.782" y="410.015" fill="#22d3ee" font-size="10">12:r119v2 d=0.00</text><circle cx="481.469" cy="361.298" r="2.8" fill="#22d3ee" /><text x="485.469" y="357.298" fill="#22d3ee" font-size="10">13:r125v1 d=0.00</text><circle cx="482.309" cy="354.676" r="2.8" fill="#22d3ee" /><text x="486.309" y="350.676" fill="#22d3ee" font-size="10">14:r125v2 d=0.00</text><circle cx="483.041" cy="348.906" r="2.8" fill="#22d3ee" /><text x="487.041" y="344.906" fill="#22d3ee" font-size="10">15:r125v3 d=0.00</text><circle cx="483.041" cy="348.906" r="2.8" fill="#22d3ee" /><text x="487.041" y="344.906" fill="#22d3ee" font-size="10">16:r127v0 d=0.00</text><circle cx="490.911" cy="286.858" r="2.8" fill="#22d3ee" /><text x="494.911" y="282.858" fill="#22d3ee" font-size="10">17:r127v1 d=0.00</text><circle cx="481.469" cy="361.298" r="2.8" fill="#22d3ee" /><text x="485.469" y="357.298" fill="#22d3ee" font-size="10">18:r136v1 d=0.00</text><circle cx="477.140" cy="395.428" r="2.8" fill="#22d3ee" /><text x="481.140" y="391.428" fill="#22d3ee" font-size="10">19:r118v1 d=0.00</text><circle cx="477.140" cy="395.428" r="2.8" fill="#22d3ee" /><text x="481.140" y="391.428" fill="#22d3ee" font-size="10">20:r119v3 d=0.00</text><circle cx="477.140" cy="395.428" r="2.8" fill="#22d3ee" /><text x="481.140" y="391.428" fill="#22d3ee" font-size="10">21:r136v0 d=0.00</text><circle cx="388.729" cy="387.583" r="2.8" fill="#22d3ee" /><text x="392.729" y="383.583" fill="#22d3ee" font-size="10">22:r98v0 d=0.00</text><circle cx="388.729" cy="387.583" r="2.8" fill="#22d3ee" /><text x="392.729" y="383.583" fill="#22d3ee" font-size="10">23:r109v0 d=0.00</text><circle cx="388.729" cy="387.583" r="2.8" fill="#22d3ee" /><text x="392.729" y="383.583" fill="#22d3ee" font-size="10">24:r112v0 d=0.00</text><circle cx="388.729" cy="387.583" r="2.8" fill="#22d3ee" /><text x="392.729" y="383.583" fill="#22d3ee" font-size="10">25:r113v0 d=0.00</text><circle cx="388.729" cy="387.583" r="2.8" fill="#22d3ee" /><text x="392.729" y="383.583" fill="#22d3ee" font-size="10">26:r117v0 d=0.00</text><circle cx="388.729" cy="387.583" r="2.8" fill="#22d3ee" /><text x="392.729" y="383.583" fill="#22d3ee" font-size="10">27:r118v0 d=0.00</text><circle cx="388.729" cy="387.583" r="2.8" fill="#22d3ee" /><text x="392.729" y="383.583" fill="#22d3ee" font-size="10">28:r119v4 d=0.00</text><circle cx="406.478" cy="266.779" r="2.8" fill="#22d3ee" /><text x="410.478" y="262.779" fill="#22d3ee" font-size="10">29:r92v1 d=0.00</text><circle cx="406.478" cy="266.779" r="2.8" fill="#22d3ee" /><text x="410.478" y="262.779" fill="#22d3ee" font-size="10">30:r94v0 d=0.00</text><circle cx="406.478" cy="266.779" r="2.8" fill="#22d3ee" /><text x="410.478" y="262.779" fill="#22d3ee" font-size="10">31:r123v2 d=0.00</text><circle cx="406.478" cy="266.779" r="2.8" fill="#22d3ee" /><text x="410.478" y="262.779" fill="#22d3ee" font-size="10">32:r124v2 d=0.00</text><circle cx="406.478" cy="266.779" r="2.8" fill="#22d3ee" /><text x="410.478" y="262.779" fill="#22d3ee" font-size="10">33:r125v4 d=0.00</text><circle cx="406.478" cy="266.779" r="2.8" fill="#22d3ee" /><text x="410.478" y="262.779" fill="#22d3ee" font-size="10">34:r127v2 d=0.00</text><rect x="564.000" y="224.000" width="272.000" height="212.000" rx="10" fill="#0f172a" stroke="#23314f" stroke-width="1" /><text x="568.000" y="236.000" fill="#ffffff" font-size="13">Bleed Polygons</text><path d="M 641.679 307.823 L 641.060 317.984 L 640.974 319.407 L 638.954 352.579 L 672.850 381.119 L 707.802 410.549 L 737.731 405.337 L 746.434 403.721 L 748.450 387.827 L 752.152 358.643 L 752.870 352.980 L 753.496 348.047 L 760.226 294.989 L 688.027 277.820 L 649.268 268.603 L 643.137 283.886 Z" fill="none" stroke="#475569" stroke-width="0.9" /><path d="M 641.679 307.823 L 641.060 317.984 L 638.954 352.579 L 672.850 381.119 L 707.802 410.549 L 737.731 405.337 L 746.434 403.721 L 748.450 387.827 L 752.152 358.643 L 752.870 352.980 L 753.496 348.047 L 760.226 294.989 L 688.027 277.820 L 649.268 268.603 L 643.137 283.886 Z" fill="none" stroke="#8fa3bf" stroke-width="1.0" /><path d="M 630.948 307.169 L 630.330 317.330 L 627.894 357.321 L 665.925 389.343 L 704.710 422.000 L 739.635 415.918 L 756.111 412.858 L 759.115 389.180 L 762.817 359.996 L 763.535 354.333 L 764.161 349.399 L 772.106 286.764 L 690.514 267.361 L 642.740 256.000 L 632.512 281.497 Z" fill="none" stroke="#ffd400" stroke-width="1.2" /><path d="M 641.679 307.823 L 630.948 307.169 L 630.948 307.169 L 630.330 317.330 L 630.330 317.330 L 641.060 317.984 Z" fill="#c5713f" fill-opacity="0.26" stroke="#c5713f" stroke-width="1.0" /><path d="M 641.060 317.984 L 630.330 317.330 L 630.330 317.330 L 628.223 351.925 L 629.073 356.815 L 638.954 352.579 Z" fill="#131a26" fill-opacity="0.26" stroke="#131a26" stroke-width="1.0" /><path d="M 638.954 352.579 L 629.073 356.815 L 632.029 360.802 L 665.925 389.343 L 665.925 389.343 L 672.850 381.119 Z" fill="#131a26" fill-opacity="0.26" stroke="#131a26" stroke-width="1.0" /><path d="M 672.850 381.119 L 665.925 389.343 L 665.925 389.343 L 700.877 418.773 L 704.999 420.928 L 707.802 410.549 Z" fill="#0d1c2e" fill-opacity="0.26" stroke="#0d1c2e" stroke-width="1.0" /><path d="M 707.802 410.549 L 704.999 420.928 L 709.646 421.140 L 739.576 415.928 L 739.635 415.918 L 737.731 405.337 Z" fill="#0d1c2e" fill-opacity="0.26" stroke="#0d1c2e" stroke-width="1.0" /><path d="M 737.731 405.337 L 739.635 415.918 L 739.694 415.907 L 748.396 414.291 L 754.251 411.101 L 746.434 403.721 Z" fill="#0d1c2e" fill-opacity="0.26" stroke="#0d1c2e" stroke-width="1.0" /><path d="M 746.434 403.721 L 754.251 411.101 L 757.099 405.074 L 759.115 389.180 L 759.115 389.180 L 748.450 387.827 Z" fill="#0d1c2e" fill-opacity="0.26" stroke="#0d1c2e" stroke-width="1.0" /><path d="M 748.450 387.827 L 759.115 389.180 L 759.115 389.180 L 762.817 359.996 L 762.817 359.996 L 752.152 358.643 Z" fill="#ec7e22" fill-opacity="0.26" stroke="#ec7e22" stroke-width="1.0" /><path d="M 752.152 358.643 L 762.817 359.996 L 762.817 359.996 L 763.535 354.333 L 763.535 354.333 L 752.870 352.980 Z" fill="#f09128" fill-opacity="0.26" stroke="#f09128" stroke-width="1.0" /><path d="M 752.870 352.980 L 763.535 354.333 L 763.535 354.333 L 764.161 349.399 L 764.161 349.399 L 753.496 348.047 Z" fill="#f09128" fill-opacity="0.26" stroke="#f09128" stroke-width="1.0" /><path d="M 753.496 348.047 L 764.161 349.399 L 764.161 349.399 L 770.891 296.342 L 769.065 288.869 L 760.226 294.989 Z" fill="#f07821" fill-opacity="0.26" stroke="#f07821" stroke-width="1.0" /><path d="M 760.226 294.989 L 769.065 288.869 L 762.713 284.530 L 690.514 267.361 L 690.514 267.361 L 688.027 277.820 Z" fill="#f07821" fill-opacity="0.26" stroke="#f07821" stroke-width="1.0" /><path d="M 688.027 277.820 L 690.514 267.361 L 690.514 267.361 L 651.755 258.144 L 644.323 259.057 L 649.268 268.603 Z" fill="#f29c26" fill-opacity="0.26" stroke="#f29c26" stroke-width="1.0" /><path d="M 649.268 268.603 L 644.323 259.057 L 639.290 264.600 L 633.159 279.883 L 632.648 281.527 L 643.137 283.886 Z" fill="#f29c26" fill-opacity="0.26" stroke="#f29c26" stroke-width="1.0" /><path d="M 643.137 283.886 L 632.648 281.527 L 632.406 283.232 L 630.948 307.169 L 630.948 307.169 L 641.679 307.823 Z" fill="#ed7024" fill-opacity="0.26" stroke="#ed7024" stroke-width="1.0" /><rect x="4.000" y="444.000" width="272.000" height="212.000" rx="10" fill="#0f172a" stroke="#23314f" stroke-width="1" /><text x="8.000" y="456.000" fill="#ffffff" font-size="13">Final</text><path d="M 81.679 527.823 L 81.060 537.984 L 109.481 533.495 Z" fill="#c5713f" fill-opacity="0.36" stroke="#c5713f" stroke-width="0.8" /><path d="M 109.481 533.495 L 128.027 497.820 L 83.137 503.886 L 81.679 527.823 Z" fill="#ed7024" fill-opacity="0.36" stroke="#ed7024" stroke-width="0.8" /><path d="M 128.027 497.820 L 89.268 488.603 L 83.137 503.886 Z" fill="#f29c26" fill-opacity="0.36" stroke="#f29c26" stroke-width="0.8" /><path d="M 112.850 601.119 L 80.974 539.407 L 78.954 572.579 Z" fill="#131a26" fill-opacity="0.36" stroke="#131a26" stroke-width="0.8" /><path d="M 112.850 601.119 L 109.481 533.495 L 81.060 537.984 L 80.974 539.407 Z" fill="#0d141f" fill-opacity="0.36" stroke="#0d141f" stroke-width="0.8" /><path d="M 112.850 601.119 L 137.074 540.662 L 109.481 533.495 Z" fill="#0a1726" fill-opacity="0.36" stroke="#0a1726" stroke-width="0.8" /><path d="M 112.850 601.119 L 160.009 550.696 L 137.074 540.662 Z" fill="#0a1726" fill-opacity="0.36" stroke="#0a1726" stroke-width="0.8" /><path d="M 112.850 601.119 L 180.077 575.422 L 160.009 550.696 Z" fill="#0d1a2b" fill-opacity="0.36" stroke="#0d1a2b" stroke-width="0.8" /><path d="M 112.850 601.119 L 188.450 607.827 L 180.077 575.422 Z" fill="#0a1a29" fill-opacity="0.36" stroke="#0a1a29" stroke-width="0.8" /><path d="M 147.802 630.549 L 177.731 625.337 L 186.434 623.721 L 188.450 607.827 L 112.850 601.119 Z" fill="#0d1c2e" fill-opacity="0.36" stroke="#0d1c2e" stroke-width="0.8" /><path d="M 109.481 533.495 L 137.074 540.662 L 128.027 497.820 Z" fill="#ed8221" fill-opacity="0.36" stroke="#ed8221" stroke-width="0.8" /><path d="M 137.074 540.662 L 160.009 550.696 L 128.027 497.820 Z" fill="#e4832b" fill-opacity="0.36" stroke="#e4832b" stroke-width="0.8" /><path d="M 180.077 575.422 L 192.152 578.643 L 192.870 572.980 L 193.496 568.047 L 128.027 497.820 L 160.009 550.696 Z" fill="#f09128" fill-opacity="0.36" stroke="#f09128" stroke-width="0.8" /><path d="M 193.496 568.047 L 200.226 514.989 L 128.027 497.820 Z" fill="#f07821" fill-opacity="0.36" stroke="#f07821" stroke-width="0.8" /><path d="M 188.450 607.827 L 192.152 578.643 L 180.077 575.422 Z" fill="#ec7e22" fill-opacity="0.36" stroke="#ec7e22" stroke-width="0.8" /><path d="M 81.679 527.823 L 81.060 537.984 L 80.974 539.407 L 78.954 572.579 L 112.850 601.119 L 147.802 630.549 L 177.731 625.337 L 186.434 623.721 L 188.450 607.827 L 192.152 578.643 L 192.870 572.980 L 193.496 568.047 L 200.226 514.989 L 128.027 497.820 L 89.268 488.603 L 83.137 503.886 Z" fill="none" stroke="#475569" stroke-width="0.9" /><path d="M 81.679 527.823 L 81.060 537.984 L 78.954 572.579 L 112.850 601.119 L 147.802 630.549 L 177.731 625.337 L 186.434 623.721 L 188.450 607.827 L 192.152 578.643 L 192.870 572.980 L 193.496 568.047 L 200.226 514.989 L 128.027 497.820 L 89.268 488.603 L 83.137 503.886 Z" fill="none" stroke="#d1d5db" stroke-width="1.0" /><path d="M 81.679 527.823 L 70.948 527.169 L 70.948 527.169 L 70.330 537.330 L 70.330 537.330 L 81.060 537.984 Z" fill="#c5713f" fill-opacity="0.46" stroke="#c5713f" stroke-width="1.0" /><path d="M 81.060 537.984 L 70.330 537.330 L 70.330 537.330 L 68.223 571.925 L 69.073 576.815 L 78.954 572.579 Z" fill="#131a26" fill-opacity="0.46" stroke="#131a26" stroke-width="1.0" /><path d="M 78.954 572.579 L 69.073 576.815 L 72.029 580.802 L 105.925 609.343 L 105.925 609.343 L 112.850 601.119 Z" fill="#131a26" fill-opacity="0.46" stroke="#131a26" stroke-width="1.0" /><path d="M 112.850 601.119 L 105.925 609.343 L 105.925 609.343 L 140.877 638.773 L 144.999 640.928 L 147.802 630.549 Z" fill="#0d1c2e" fill-opacity="0.46" stroke="#0d1c2e" stroke-width="1.0" /><path d="M 147.802 630.549 L 144.999 640.928 L 149.646 641.140 L 179.576 635.928 L 179.635 635.918 L 177.731 625.337 Z" fill="#0d1c2e" fill-opacity="0.46" stroke="#0d1c2e" stroke-width="1.0" /><path d="M 177.731 625.337 L 179.635 635.918 L 179.694 635.907 L 188.396 634.291 L 194.251 631.101 L 186.434 623.721 Z" fill="#0d1c2e" fill-opacity="0.46" stroke="#0d1c2e" stroke-width="1.0" /><path d="M 186.434 623.721 L 194.251 631.101 L 197.099 625.074 L 199.115 609.180 L 199.115 609.180 L 188.450 607.827 Z" fill="#0d1c2e" fill-opacity="0.46" stroke="#0d1c2e" stroke-width="1.0" /><path d="M 188.450 607.827 L 199.115 609.180 L 199.115 609.180 L 202.817 579.996 L 202.817 579.996 L 192.152 578.643 Z" fill="#ec7e22" fill-opacity="0.46" stroke="#ec7e22" stroke-width="1.0" /><path d="M 192.152 578.643 L 202.817 579.996 L 202.817 579.996 L 203.535 574.333 L 203.535 574.333 L 192.870 572.980 Z" fill="#f09128" fill-opacity="0.46" stroke="#f09128" stroke-width="1.0" /><path d="M 192.870 572.980 L 203.535 574.333 L 203.535 574.333 L 204.161 569.399 L 204.161 569.399 L 193.496 568.047 Z" fill="#f09128" fill-opacity="0.46" stroke="#f09128" stroke-width="1.0" /><path d="M 193.496 568.047 L 204.161 569.399 L 204.161 569.399 L 210.891 516.342 L 209.065 508.869 L 200.226 514.989 Z" fill="#f07821" fill-opacity="0.46" stroke="#f07821" stroke-width="1.0" /><path d="M 200.226 514.989 L 209.065 508.869 L 202.713 504.530 L 130.514 487.361 L 130.514 487.361 L 128.027 497.820 Z" fill="#f07821" fill-opacity="0.46" stroke="#f07821" stroke-width="1.0" /><path d="M 128.027 497.820 L 130.514 487.361 L 130.514 487.361 L 91.755 478.144 L 84.323 479.057 L 89.268 488.603 Z" fill="#f29c26" fill-opacity="0.46" stroke="#f29c26" stroke-width="1.0" /><path d="M 89.268 488.603 L 84.323 479.057 L 79.290 484.600 L 73.159 499.883 L 72.648 501.527 L 83.137 503.886 Z" fill="#f29c26" fill-opacity="0.46" stroke="#f29c26" stroke-width="1.0" /><path d="M 83.137 503.886 L 72.648 501.527 L 72.406 503.232 L 70.948 527.169 L 70.948 527.169 L 81.679 527.823 Z" fill="#ed7024" fill-opacity="0.46" stroke="#ed7024" stroke-width="1.0" /></svg>