<svg xmlns="http://www.w3.org/2000/svg" viewBox="227.482 356.382 120.000 120.000" width="120" height="120"><rect width="100%" height="100%" fill="#081226"/><text x="233.482" y="370.382" fill="#ffffff" font-size="11">zone 104</text><text x="233.482" y="384.382" fill="#7dd3fc" font-size="10">zone_poly area=-345.960</text><text x="233.482" y="396.382" fill="#ffffff" font-size="10">boundary area=345.960</text><text x="233.482" y="408.382" fill="#ffd400" font-size="10">offset area=691.659</text><text x="233.482" y="420.382" fill="#ff4fd8" font-size="10">bevel area=671.606</text><text x="233.482" y="432.382" fill="#7CFC00" font-size="10">green=start, orange=next</text><path d="M 257.400 404.600 L 251.300 426.000 L 266.300 428.300 L 266.300 388.200 Z" fill="rgba(125,211,252,0.10)" stroke="#7dd3fc" stroke-width="1.5" /><path d="M 251.300 426.000 L 257.400 404.600 L 266.300 388.200 L 266.300 428.300 Z" fill="none" stroke="#ffffff" stroke-width="2" /><path d="M 247.482 428.450 L 254.606 403.460 L 269.300 376.382 L 269.300 431.795 Z" fill="none" stroke="#ffd400" stroke-width="2" /><path d="M 247.482 428.450 L 254.606 403.460 L 264.926 384.442 L 269.300 385.552 L 269.300 431.795 Z" fill="none" stroke="#ff4fd8" stroke-width="2" /><path d="M 254.606 403.460 L 247.482 428.450 L 269.300 431.795 L 269.300 385.552 L 264.926 384.442 Z" fill="none" stroke="#00e5a8" stroke-width="1" /><circle cx="251.300" cy="426.000" r="3.5" fill="#00ff7f" stroke="#001b12" stroke-width="1"/><circle cx="257.400" cy="404.600" r="3.0" fill="#ff9f1c" stroke="#2b1600" stroke-width="1"/><text x="257.300" y="420.000" fill="#ffffff" font-size="9">boundary:start</text><text x="263.400" y="414.600" fill="#ffffff" font-size="9">boundary:next</text><circle cx="247.482" cy="428.450" r="3.5" fill="#00ff7f" stroke="#001b12" stroke-width="1"/><circle cx="254.606" cy="403.460" r="3.0" fill="#ff9f1c" stroke="#2b1600" stroke-width="1"/><text x="253.482" y="422.450" fill="#ffd400" font-size="9">offset:start</text><text x="260.606" y="413.460" fill="#ffd400" font-size="9">offset:next</text><circle cx="247.482" cy="428.450" r="3.5" fill="#00ff7f" stroke="#001b12" stroke-width="1"/><circle cx="254.606" cy="403.460" r="3.0" fill="#ff9f1c" stroke="#2b1600" stroke-width="1"/><text x="253.482" y="422.450" fill="#ff4fd8" font-size="9">bevel:start</text><text x="260.606" y="413.460" fill="#ff4fd8" font-size="9">bevel:next</text></svg>