<?xml version='1.0' encoding='utf-8'?>
<svg xmlns="http://www.w3.org/2000/svg" version="1.1" viewBox="357.8 421.5 12.2 3.8"><g id="voronoi-map-only"><polygon id="cell-0" points="366.33707,422.786398 369,422.5 366.142731,422.811995" stroke="#ff0000" stroke-width="2" fill="none" /><polygon id="cell-1" points="363.3,422.5 362.375192,423.398753 362.198257,423.299677" stroke="#ff0000" stroke-width="2" fill="none" /><polygon id="cell-2" points="366.389304,422.779402 366.493541,422.942316 366.308843,422.97491" stroke="#ff0000" stroke-width="2" fill="none" /><polygon id="cell-3" points="363.453117,422.63608 363.684288,422.5 363.749123,422.762369" stroke="#ff0000" stroke-width="2" fill="none" /><polygon id="cell-4" points="363.3,422.5 365.247235,422.835696 365.444118,422.921865" stroke="#ff0000" stroke-width="2" fill="none" /><polygon id="cell-5" points="366.293821,422.564966 369,422.5 366.560844,422.589851" stroke="#ff0000" stroke-width="2" fill="none" /><polygon id="cell-6" points="364.206333,423.33775 364.010052,423.254332 363.999964,423.051059 364.196249,423.078121" stroke="#ff0000" stroke-width="2" fill="none" /><polygon id="cell-7" points="363.3,422.5 363.950228,422.869628 363.999964,423.051059" stroke="#ff0000" stroke-width="2" fill="none" /><polygon id="cell-8" points="361.442178,423.729059 361.26573,423.663359 361.430079,423.506142" stroke="#ff0000" stroke-width="2" fill="none" /><polygon id="cell-9" points="364.010052,423.254332 363.688698,423.175103 363.999964,423.051059" stroke="#ff0000" stroke-width="2" fill="none" /><polygon id="cell-10" points="363.3,422.5 362.873384,422.882264 362.901898,422.659241" stroke="#ff0000" stroke-width="2" fill="none" /><polygon id="cell-11" points="363.276347,422.998561 363.077684,423.105453 363.3,422.5" stroke="#ff0000" stroke-width="2" fill="none" /><polygon id="cell-12" points="363.3736,422.953081 363.126522,422.924863 363.3,422.5" stroke="#ff0000" stroke-width="2" fill="none" /><polygon id="cell-13" points="364.767505,422.651387 364.905784,422.5 365.087325,422.741469 363.3,422.5" stroke="#ff0000" stroke-width="2" fill="none" /><polygon id="cell-14" points="366.844357,422.684713 366.615653,422.920767 366.602295,422.632291" stroke="#ff0000" stroke-width="2" fill="none" /><polygon id="cell-15" points="364.312102,422.663112 364.222726,422.899505 363.950228,422.869628 364.106636,422.692548" stroke="#ff0000" stroke-width="2" fill="none" /><polygon id="cell-16" points="360.750929,423.773446 360.651054,423.973343 360.321905,423.691238 360.746847,423.521261" stroke="#ff0000" stroke-width="2" fill="none" /><polygon id="cell-17" points="362.855488,422.92841 362.916983,423.242528 362.680124,423.098904" stroke="#ff0000" stroke-width="2" fill="none" /><polygon id="cell-18" points="363.3,422.5 364.222726,422.899505 364.358184,423.054337" stroke="#ff0000" stroke-width="2" fill="none" /><polygon id="cell-19" points="362.855488,422.92841 363.3,422.5 363.053387,423.12622" stroke="#ff0000" stroke-width="2" fill="none" /><polygon id="cell-20" points="362.171576,423.108594 361.801079,423.308414 361.827372,423.089051" stroke="#ff0000" stroke-width="2" fill="none" /><polygon id="cell-21" points="364.408805,423.099644 364.425032,423.307347 364.206333,423.33775" stroke="#ff0000" stroke-width="2" fill="none" /><polygon id="cell-22" points="366.910535,422.690513 367.075533,422.5 367.124359,422.830996" stroke="#ff0000" stroke-width="2" fill="none" /><polygon id="cell-23" points="366.109769,422.907986 365.903039,423.046523 365.8668,422.850906" stroke="#ff0000" stroke-width="2" fill="none" /><polygon id="cell-24" points="359.813947,423.894421 359.925634,424.101359 359.669285,424.146597" stroke="#ff0000" stroke-width="2" fill="none" /><polygon id="cell-25" points="360.224236,424.048664 360.321905,423.691238 360.651054,423.973343" stroke="#ff0000" stroke-width="2" fill="none" /><polygon id="cell-26" points="365.446382,422.716171 365.700002,422.5 365.635925,422.813137" stroke="#ff0000" stroke-width="2" fill="none" /><polygon id="cell-27" points="361.771627,423.30569 361.579924,423.18803 361.827372,423.089051" stroke="#ff0000" stroke-width="2" fill="none" /><polygon id="cell-28" points="362.751402,423.575372 362.417857,423.661555 362.400244,423.388571" stroke="#ff0000" stroke-width="2" fill="none" /><polygon id="cell-29" points="363.3,422.5 363.490215,422.79679 363.3736,422.953081" stroke="#ff0000" stroke-width="2" fill="none" /><polygon id="cell-30" points="362.760414,423.601103 362.926141,423.262915 363.054724,423.549166" stroke="#ff0000" stroke-width="2" fill="none" /><polygon id="cell-31" points="368.246941,422.5 367.764971,422.717946 367.779583,422.5" stroke="#ff0000" stroke-width="2" fill="none" /><polygon id="cell-32" points="364.097325,422.700014 363.769346,422.5 363.983087,422.5" stroke="#ff0000" stroke-width="2" fill="none" /><polygon id="cell-33" points="366.224116,422.641535 366.142731,422.811995 365.977016,422.588902" stroke="#ff0000" stroke-width="2" fill="none" /><polygon id="cell-34" points="367.779583,422.5 367.728511,422.72438 367.471113,422.5" stroke="#ff0000" stroke-width="2" fill="none" /><polygon id="cell-35" points="363.3,422.5 363.769346,422.5 363.749123,422.762369" stroke="#ff0000" stroke-width="2" fill="none" /><polygon id="cell-36" points="367.471113,422.5 367.728511,422.72438 367.499053,422.764873 367.2708,422.5" stroke="#ff0000" stroke-width="2" fill="none" /><polygon id="cell-37" points="364.719097,423.087005 364.425032,423.307347 364.532344,423.05257" stroke="#ff0000" stroke-width="2" fill="none" /><polygon id="cell-38" points="365.216765,423.160439 365.030851,422.91058 365.279892,422.866624" stroke="#ff0000" stroke-width="2" fill="none" /><polygon id="cell-39" points="363.3,422.5 363.645772,423.148466 363.496526,423.027189" stroke="#ff0000" stroke-width="2" fill="none" /><polygon id="cell-40" points="362.692358,423.229408 362.751402,423.575372 362.400244,423.388571" stroke="#ff0000" stroke-width="2" fill="none" /><polygon id="cell-41" points="360.982087,423.874914 360.704642,423.963887 358.8,424.3" stroke="#ff0000" stroke-width="2" fill="none" /><polygon id="cell-42" points="363.3,422.5 363.268284,423.346545 363.078227,423.545019" stroke="#ff0000" stroke-width="2" fill="none" /><polygon id="cell-43" points="361.574092,423.405875 361.801079,423.308414 361.948294,423.46791 361.692371,423.603658" stroke="#ff0000" stroke-width="2" fill="none" /><polygon id="cell-44" points="366.602295,422.632291 366.493541,422.942316 366.389304,422.779402" stroke="#ff0000" stroke-width="2" fill="none" /><polygon id="cell-45" points="361.759906,423.632602 361.508318,423.822062 361.525777,423.614477" stroke="#ff0000" stroke-width="2" fill="none" /><polygon id="cell-46" points="361.331713,423.375365 361.188474,423.553688 360.97431,423.430276" stroke="#ff0000" stroke-width="2" fill="none" /><polygon id="cell-47" points="363.3,422.5 363.496526,423.027189 363.430214,423.20463" stroke="#ff0000" stroke-width="2" fill="none" /><polygon id="cell-48" points="365.087325,422.741469 364.905784,422.5 365.222373,422.60074" stroke="#ff0000" stroke-width="2" fill="none" /><polygon id="cell-49" points="363.494525,423.026865 363.304646,423.205184 363.276347,422.998561" stroke="#ff0000" stroke-width="2" fill="none" /><polygon id="cell-50" points="364.485713,422.718 364.287839,422.5 364.767505,422.651387" stroke="#ff0000" stroke-width="2" fill="none" /><polygon id="cell-51" points="361.331713,423.375365 361.469424,423.23223 361.574092,423.405875" stroke="#ff0000" stroke-width="2" fill="none" /><polygon id="cell-52" points="365.213339,423.168234 365.444118,422.921865 365.425613,423.130774" stroke="#ff0000" stroke-width="2" fill="none" /><polygon id="cell-53" points="363.3,422.5 363.753962,422.771138 363.490215,422.79679" stroke="#ff0000" stroke-width="2" fill="none" /><polygon id="cell-54" points="365.635925,422.813137 365.700002,422.5 365.928316,422.546892 365.829635,422.880511" stroke="#ff0000" stroke-width="2" fill="none" /><polygon id="cell-55" points="361.959995,423.467362 362.110046,423.715874 361.759906,423.632602" stroke="#ff0000" stroke-width="2" fill="none" /><polygon id="cell-56" points="363.021872,423.166486 363.195805,423.411237 363.054724,423.549166" stroke="#ff0000" stroke-width="2" fill="none" /><polygon id="cell-57" points="362.186971,423.166249 362.133646,422.966541 362.416567,422.853373 362.643688,423.061174" stroke="#ff0000" stroke-width="2" fill="none" /><polygon id="cell-58" points="364.106636,422.692548 363.983087,422.5 364.287839,422.5" stroke="#ff0000" stroke-width="2" fill="none" /><polygon id="cell-59" points="362.643688,423.061174 362.416567,422.853373 362.710241,422.767386" stroke="#ff0000" stroke-width="2" fill="none" /><polygon id="cell-60" points="362.873384,422.882264 362.647722,423.06353 363.3,422.5" stroke="#ff0000" stroke-width="2" fill="none" /><polygon id="cell-61" points="366.560844,422.589851 367.062384,422.5 366.844357,422.684713" stroke="#ff0000" stroke-width="2" fill="none" /><polygon id="cell-62" points="362.692358,423.229408 362.375192,423.398753 362.186971,423.166249" stroke="#ff0000" stroke-width="2" fill="none" /><polygon id="cell-63" points="364.975131,422.948525 365.165981,423.176592 364.719097,423.087005" stroke="#ff0000" stroke-width="2" fill="none" /><polygon id="cell-64" points="364.719097,423.087005 364.532344,423.05257 364.485713,422.718 364.767505,422.651387 364.858121,422.926883" stroke="#ff0000" stroke-width="2" fill="none" /><polygon id="cell-65" points="365.205927,422.517926 365.479647,422.630161 365.272006,422.704857" stroke="#ff0000" stroke-width="2" fill="none" /><polygon id="cell-66" points="366.142731,422.811995 365.8668,422.850906 365.977016,422.588902" stroke="#ff0000" stroke-width="2" fill="none" /><polygon id="cell-67" points="361.771627,423.30569 361.574286,423.404289 363.3,422.5" stroke="#ff0000" stroke-width="2" fill="none" /><polygon id="cell-68" points="359.925634,424.101359 359.813947,423.894421 360.271622,423.711351 360.224236,424.048664" stroke="#ff0000" stroke-width="2" fill="none" /></g></svg>