<?xml version='1.0' encoding='utf-8'?>
<svg xmlns="http://www.w3.org/2000/svg" version="1.1" viewBox="357.8 421.5 12.2 3.8"><g id="voronoi-map-only"><polygon id="cell-0" points="362.774342,422.894251 362.454177,422.838329 362.786991,422.705204" stroke="#ff0000" stroke-width="2" fill="none" /><polygon id="cell-1" points="363.713456,422.510223 363.793837,422.706303 363.3,422.5" stroke="#ff0000" stroke-width="2" fill="none" /><polygon id="cell-2" points="361.971171,423.407147 361.729749,423.568034 361.722566,423.287194" stroke="#ff0000" stroke-width="2" fill="none" /><polygon id="cell-3" points="364.172912,423.351839 364.294442,423.09934 364.535696,423.287818" stroke="#ff0000" stroke-width="2" fill="none" /><polygon id="cell-4" points="364.645318,422.844461 364.757241,422.5 365.019967,422.5 365.045274,422.757046" stroke="#ff0000" stroke-width="2" fill="none" /><polygon id="cell-5" points="361.36943,423.534026 361.466118,423.829509 361.169143,423.767164" stroke="#ff0000" stroke-width="2" fill="none" /><polygon id="cell-6" points="365.296011,422.812651 365.51351,423.115263 365.275789,423.046689" stroke="#ff0000" stroke-width="2" fill="none" /><polygon id="cell-7" points="361.653308,423.235093 361.994791,423.022084 361.975625,423.347969" stroke="#ff0000" stroke-width="2" fill="none" /><polygon id="cell-8" points="363.275482,422.834882 363.481549,422.879572 363.356235,423.16408" stroke="#ff0000" stroke-width="2" fill="none" /><polygon id="cell-9" points="364.9857,423.113184 364.774245,423.074888 363.3,422.5" stroke="#ff0000" stroke-width="2" fill="none" /><polygon id="cell-10" points="365.013725,422.975315 364.774245,423.074888 364.678856,422.882615" stroke="#ff0000" stroke-width="2" fill="none" /><polygon id="cell-11" points="366.797367,422.8887 366.855789,422.592521 367.141313,422.828004" stroke="#ff0000" stroke-width="2" fill="none" /><polygon id="cell-12" points="360.857172,423.749051 360.856757,423.937043 360.571463,423.987389 360.587099,423.642637" stroke="#ff0000" stroke-width="2" fill="none" /><polygon id="cell-13" points="363.546235,423.228127 363.600795,423.452801 363.35738,423.495756" stroke="#ff0000" stroke-width="2" fill="none" /><polygon id="cell-14" points="360.35567,423.910977 360.282947,423.706821 360.480102,423.627959" stroke="#ff0000" stroke-width="2" fill="none" /><polygon id="cell-15" points="361.123095,423.763091 361.059377,423.504214 361.267915,423.530236" stroke="#ff0000" stroke-width="2" fill="none" /><polygon id="cell-16" points="365.613527,422.765406 365.707165,422.5 365.78406,422.904329" stroke="#ff0000" stroke-width="2" fill="none" /><polygon id="cell-17" points="362.76505,423.148734 362.875772,422.981277 363.3,422.5" stroke="#ff0000" stroke-width="2" fill="none" /><polygon id="cell-18" points="363.356235,423.16408 363.481549,422.879572 363.546235,423.228127" stroke="#ff0000" stroke-width="2" fill="none" /><polygon id="cell-19" points="362.774342,422.894251 362.959032,422.845173 358.8,424.3" stroke="#ff0000" stroke-width="2" fill="none" /><polygon id="cell-20" points="362.281854,423.056763 362.470593,422.864504 362.445688,423.192116 362.203299,423.261431" stroke="#ff0000" stroke-width="2" fill="none" /><polygon id="cell-21" points="359.390751,424.19575 359.510589,424.015764 359.662036,424.147876" stroke="#ff0000" stroke-width="2" fill="none" /><polygon id="cell-22" points="365.925634,422.529174 366.303335,422.5 366.047143,422.67356" stroke="#ff0000" stroke-width="2" fill="none" /><polygon id="cell-23" points="363.546235,423.228127 363.600795,423.452801 363.3,422.5" stroke="#ff0000" stroke-width="2" fill="none" /><polygon id="cell-24" points="361.123095,423.763091 360.856757,423.937043 360.857172,423.749051" stroke="#ff0000" stroke-width="2" fill="none" /><polygon id="cell-25" points="365.809111,422.832157 365.707165,422.5 365.925634,422.529174" stroke="#ff0000" stroke-width="2" fill="none" /><polygon id="cell-26" points="361.653308,423.235093 361.36943,423.534026 361.384737,423.266105" stroke="#ff0000" stroke-width="2" fill="none" /><polygon id="cell-27" points="365.901252,422.90697 365.925634,422.529174 366.073953,422.751222" stroke="#ff0000" stroke-width="2" fill="none" /><polygon id="cell-28" points="361.708913,423.628071 361.971171,423.407147 362.021129,423.687038" stroke="#ff0000" stroke-width="2" fill="none" /><polygon id="cell-29" points="360.587099,423.642637 360.834189,423.486324 360.84689,423.740991" stroke="#ff0000" stroke-width="2" fill="none" /><polygon id="cell-30" points="365.069215,422.791883 365.296011,422.812651 365.244304,423.035926" stroke="#ff0000" stroke-width="2" fill="none" /><polygon id="cell-31" points="359.510589,424.015764 359.390751,424.19575 358.8,424.3" stroke="#ff0000" stroke-width="2" fill="none" /><polygon id="cell-32" points="367.633163,422.741206 367.618761,422.5 368.084325,422.66159" stroke="#ff0000" stroke-width="2" fill="none" /><polygon id="cell-33" points="365.354054,422.772614 365.385005,422.5 365.68085,422.5 365.613527,422.765406" stroke="#ff0000" stroke-width="2" fill="none" /><polygon id="cell-34" points="364.243581,422.683063 364.22523,422.969114 364.071267,422.75706" stroke="#ff0000" stroke-width="2" fill="none" /><polygon id="cell-35" points="363.366544,423.260925 363.35738,423.495756 363.13523,423.440742" stroke="#ff0000" stroke-width="2" fill="none" /><polygon id="cell-36" points="366.266591,422.783769 366.418122,422.955626 366.112187,423.009614 366.073953,422.751222" stroke="#ff0000" stroke-width="2" fill="none" /><polygon id="cell-37" points="362.978984,423.140947 363.3,422.5 363.135608,422.951874" stroke="#ff0000" stroke-width="2" fill="none" /><polygon id="cell-38" points="363.926369,422.69723 363.3,422.5 364.15219,422.668582" stroke="#ff0000" stroke-width="2" fill="none" /><polygon id="cell-39" points="359.991341,423.823464 360.16291,424.059486 359.730449,424.135803" stroke="#ff0000" stroke-width="2" fill="none" /><polygon id="cell-40" points="365.244304,423.035926 365.000462,423.075158 365.058767,422.871735" stroke="#ff0000" stroke-width="2" fill="none" /><polygon id="cell-41" points="365.51351,423.115263 365.624841,422.802781 365.78406,422.904329" stroke="#ff0000" stroke-width="2" fill="none" /><polygon id="cell-42" points="367.600638,422.680818 363.3,422.5 367.312557,422.65004" stroke="#ff0000" stroke-width="2" fill="none" /><polygon id="cell-43" points="366.584748,422.717645 366.855789,422.592521 366.631724,422.917931" stroke="#ff0000" stroke-width="2" fill="none" /><polygon id="cell-44" points="365.340229,422.793733 363.3,422.5 365.624841,422.802781" stroke="#ff0000" stroke-width="2" fill="none" /><polygon id="cell-45" points="363.485355,422.796732 363.713456,422.510223 363.681059,422.819883" stroke="#ff0000" stroke-width="2" fill="none" /><polygon id="cell-46" points="364.551944,422.937359 364.345678,422.884808 363.3,422.5" stroke="#ff0000" stroke-width="2" fill="none" /><polygon id="cell-47" points="364.423208,422.679894 364.757241,422.5 364.645318,422.844461" stroke="#ff0000" stroke-width="2" fill="none" /><polygon id="cell-48" points="359.935091,423.845963 359.730449,424.135803 359.56139,423.995444" stroke="#ff0000" stroke-width="2" fill="none" /><polygon id="cell-49" points="365.385005,422.5 365.296011,422.812651 365.045274,422.757046 365.019967,422.5" stroke="#ff0000" stroke-width="2" fill="none" /><polygon id="cell-50" points="364.535696,423.287818 364.678856,422.882615 364.774245,423.074888" stroke="#ff0000" stroke-width="2" fill="none" /><polygon id="cell-51" points="363.375642,423.244313 363.052856,423.110193 363.213796,422.920051" stroke="#ff0000" stroke-width="2" fill="none" /><polygon id="cell-52" points="366.436907,422.504058 366.719371,422.5 366.582589,422.71365" stroke="#ff0000" stroke-width="2" fill="none" /><polygon id="cell-53" points="363.174926,422.704907 363.135608,422.951874 362.890387,422.68211" stroke="#ff0000" stroke-width="2" fill="none" /><polygon id="cell-54" points="362.951926,423.308627 363.008877,423.557257 362.723302,423.607653 362.715477,423.362483" stroke="#ff0000" stroke-width="2" fill="none" /><polygon id="cell-55" points="363.844884,422.999828 363.651062,423.170108 363.681059,422.819883" stroke="#ff0000" stroke-width="2" fill="none" /><polygon id="cell-56" points="363.926369,422.69723 363.844884,422.999828 363.681059,422.819883" stroke="#ff0000" stroke-width="2" fill="none" /><polygon id="cell-57" points="364.22523,422.969114 363.3,422.5 364.072119,422.814604" stroke="#ff0000" stroke-width="2" fill="none" /><polygon id="cell-58" points="360.587099,423.642637 360.571463,423.987389 360.35567,423.910977" stroke="#ff0000" stroke-width="2" fill="none" /><polygon id="cell-59" points="367.312557,422.65004 367.141313,422.828004 367.070091,422.5" stroke="#ff0000" stroke-width="2" fill="none" /><polygon id="cell-60" points="362.085822,423.256003 362.32485,423.375847 363.3,422.5 362.021129,423.687038 361.971171,423.407147" stroke="#ff0000" stroke-width="2" fill="none" /><polygon id="cell-61" points="364.22523,422.969114 364.551944,422.937359 364.451195,423.127687" stroke="#ff0000" stroke-width="2" fill="none" /><polygon id="cell-62" points="361.700651,423.431778 361.708913,423.628071 361.46222,423.600357" stroke="#ff0000" stroke-width="2" fill="none" /><polygon id="cell-63" points="362.085822,423.256003 361.994791,423.022084 362.281854,423.056763" stroke="#ff0000" stroke-width="2" fill="none" /><polygon id="cell-64" points="363.472315,422.673257 363.275482,422.834882 363.193835,422.599822" stroke="#ff0000" stroke-width="2" fill="none" /><polygon id="cell-65" points="364.016396,423.147813 364.08083,423.325348 363.3,422.5" stroke="#ff0000" stroke-width="2" fill="none" /><polygon id="cell-66" points="360.84689,423.740991 360.834189,423.486324 361.059377,423.504214" stroke="#ff0000" stroke-width="2" fill="none" /><polygon id="cell-67" points="366.047143,422.67356 366.436907,422.504058 366.266591,422.783769" stroke="#ff0000" stroke-width="2" fill="none" /><polygon id="cell-68" points="362.32485,423.375847 362.567027,423.635231 362.306455,423.681214" stroke="#ff0000" stroke-width="2" fill="none" /><polygon id="cell-69" points="366.592326,422.749953 366.418122,422.955626 366.266591,422.783769" stroke="#ff0000" stroke-width="2" fill="none" /><polygon id="cell-70" points="360.16291,424.059486 359.991341,423.823464 360.282947,423.706821 360.348597,424.026718" stroke="#ff0000" stroke-width="2" fill="none" /><polygon id="cell-71" points="364.016396,423.147813 363.716355,423.157096 363.844884,422.999828" stroke="#ff0000" stroke-width="2" fill="none" /></g></svg>