<?xml version="1.0" encoding="UTF-8"?><svg id="Layer_1" xmlns="http://www.w3.org/2000/svg" xmlns:xlink="http://www.w3.org/1999/xlink" viewBox="0 0 737.01 538.58"><defs><style>.cls-1{fill:#1aa8b5;}.cls-2{fill:#145463;}.cls-3{fill:#212b61;}.cls-4{fill:#8a1736;}.cls-5{fill:#fac761;}.cls-6{fill:#7a171c;}.cls-7{fill:#2e478a;}.cls-8{fill:#1f2959;}.cls-9{fill:#1c144a;}.cls-10{fill:#d15c85;}.cls-11{fill:#149e9e;}.cls-12{fill:#4ac2b0;}.cls-13{fill:#26336e;}.cls-14{fill:#385429;}.cls-15{fill:#8c1a4d;}.cls-16{fill:#bf2e78;}.cls-17{fill:#690d2b;}.cls-18{fill:#f0eb30;}.cls-19{fill:#2166ad;}.cls-20{fill:#52c4cf;}.cls-21{fill:#ba2e78;}.cls-22{font-family:ArialMT, Arial;font-size:5.67px;}.cls-23{fill:#c76ba3;}.cls-24{fill:#631a52;}.cls-25{fill:#ebad42;}.cls-26{fill:#944726;}.cls-27{fill:#b2212b;}.cls-28{fill:#e83036;}.cls-29{fill:#f5802e;}.cls-30{fill:#5e2975;}.cls-31{fill:#2194a6;}.cls-32{fill:#691a54;}.cls-33{fill:#404599;}.cls-34{fill:#611a52;}.cls-35{fill:#d42e75;}.cls-36{fill:#bf4273;}.cls-37{fill:#5c0a24;}.cls-38{fill:#f58c26;}.cls-39{fill:#ad302b;}.cls-40{fill:#fad12b;}.cls-41{fill:#e8de45;}.cls-42{fill:#a61f33;}.cls-43{fill:#9e267d;}.cls-44{fill:#421a4f;}.cls-45{fill:#de9126;}.cls-46{fill:#f7db12;}.cls-47{fill:#e31a66;}.cls-48{fill:#7d1421;}.cls-49{fill:#17174a;}.cls-50{fill:#facc54;}.cls-51{fill:#c7cc33;}.cls-52{fill:#362969;}.cls-53{fill:#1c9cc9;}.cls-54{fill:#12593b;}.cls-55{fill:#29215e;}.cls-56{fill:#14477a;}.cls-57{fill:#f7d957;}.cls-58{fill:#1f4285;}.cls-59{fill:#26265c;}.cls-60{fill:#0d85a1;}.cls-61{fill:#d67da3;}.cls-62{fill:#de1f33;}.cls-63{fill:#30368c;}.cls-64{fill:#fac214;}.cls-65{fill:#c94f8f;}.cls-66{fill:#fff;}.cls-67{fill:#f08526;}.cls-68{fill:#148257;}.cls-69{fill:#75388f;}.cls-70{fill:#cc3870;}.cls-71{fill:#ad306e;}.cls-72{fill:#123d3d;}.cls-73{fill:#ad2129;}.cls-74{fill:#942124;}.cls-75{fill:#12786e;}.cls-76{fill:#bd2970;}.cls-77{fill:#eda82e;}.cls-78{fill:#c980ad;}.cls-79{fill:#f5ed63;}.cls-80{fill:#ed529c;}.cls-81{fill:#1c3361;}.cls-82{fill:#d4ba30;}.cls-83{fill:#85368f;}.cls-84{fill:#dedede;}.cls-85{fill:#29bdbd;}.cls-86,.cls-87{fill:none;}.cls-88{fill:#a1338c;}.cls-89{fill:#f2d912;}.cls-90{fill:#a61c38;}.cls-91{fill:#de6675;}.cls-92{fill:#0f406e;}.cls-93{fill:#1fab82;}.cls-94{fill:#0a4d75;}.cls-95{fill:#1a9996;}.cls-96{fill:#544796;}.cls-97{fill:#f7db47;}.cls-98{fill:#8f1a4f;}.cls-99{fill:#821c54;}.cls-100{fill:#9e1f54;}.cls-101{fill:#17b5b0;}.cls-102{fill:#a65e9c;}.cls-103{fill:#1f3369;}.cls-104{fill:#128cb2;}.cls-105{fill:#b22b85;}.cls-106{fill:#e8592b;}.cls-107{fill:#40612e;}.cls-108{fill:#f0eb75;}.cls-109{fill:#0f6959;}.cls-110{fill:#21806b;}.cls-111{fill:#e859a1;}.cls-112{fill:#b51f54;}.cls-113{fill:#1f214f;}.cls-114{fill:#458c9c;}.cls-115{fill:#d64075;}.cls-116{fill:#173b26;}.cls-117{fill:#d95280;}.cls-118{fill:#cc1f42;}.cls-119{fill:#87bd52;}.cls-120{fill:#ab1c3d;}.cls-121{fill:#144a8a;}.cls-122{fill:#eb4029;}.cls-123{fill:#3b331a;}.cls-124{fill:#c2266e;}.cls-125{fill:#264f91;}.cls-126{fill:#ed303b;}.cls-127{fill:#c21f78;}.cls-128{fill:#42804a;}.cls-129{fill:#1f3d75;}.cls-130{fill:#db4f8f;}.cls-131{fill:#2e2661;}.cls-132{fill:#1fbac2;}.cls-133{fill:#f07336;}.cls-134{fill:#e85482;}.cls-135{fill:#eb5c38;}.cls-136{fill:#8ca1a6;}.cls-137{fill:#2bbfc7;}.cls-138{fill:#a69638;}.cls-139{fill:#d9245c;}.cls-140{fill:#63b059;}.cls-141{fill:#471221;}.cls-142{fill:#f5de38;}.cls-143{fill:#3bc2c9;}.cls-144{fill:#c9292e;}.cls-145{fill:#1a918c;}.cls-146{fill:#f0ba3d;}.cls-147{fill:#1c9e9e;}.cls-148{fill:#3d174d;}.cls-149{fill:#c9213d;}.cls-150{fill:#9ea638;}.cls-151{fill:#b0bf5c;}.cls-152{fill:#1799a8;}.cls-153{fill:#f27038;}.cls-154{fill:#f5e029;}.cls-155{fill:#e5b5d4;}.cls-156{fill:#9e297d;}.cls-157{fill:#f5a321;}.cls-158{fill:#14365e;}.cls-159{fill:#2e669e;}.cls-160{fill:#633082;}.cls-161{fill:#cc266b;}.cls-162{fill:#ed6196;}.cls-163{fill:#36bfbd;}.cls-164{fill:#752670;}.cls-165{fill:#e85229;}.cls-166{fill:#17a6b5;}.cls-167{fill:#edd11a;}.cls-168{fill:#9eba3d;}.cls-169{fill:#ba7ab2;}.cls-170{fill:#330d40;}.cls-171{fill:#b0aba8;}.cls-172{fill:#f2c22e;}.cls-173{fill:#0f614a;}.cls-174{fill:#f5ed54;}.cls-175{fill:#d12145;}.cls-176{fill:#243d82;}.cls-177{fill:#eb782e;}.cls-178{fill:#8ad1d6;}.cls-179{fill:#178c94;}.cls-180{fill:#8c172e;}.cls-181{fill:#24617a;}.cls-182{fill:#f28224;}.cls-183{fill:#1f2e61;}.cls-184{fill:#d95c57;}.cls-87{stroke:#000;stroke-miterlimit:10;stroke-width:1px;}.cls-185{fill:#3d0d40;}.cls-186{fill:#2b2e6e;}.cls-187{fill:#0d8294;}.cls-188{fill:#1ca891;}.cls-189{fill:#8f2163;}.cls-190{fill:#f2b81f;}.cls-191{fill:#6e0d29;}.cls-192{fill:#f5d154;}.cls-193{fill:#c22154;}.cls-194{fill:#0d3340;}.cls-195{fill:#661447;}.cls-196{fill:#730f2b;}.cls-197{fill:#9c63a6;}.cls-198{fill:#78174d;}.cls-199{fill:#991c57;}.cls-200{fill:#f7e512;}.cls-201{fill:#0f2e2e;}.cls-202{fill:#2e3075;}.cls-203{fill:#8fb03d;}.cls-204{fill:#f2e312;}.cls-205{fill:#630a24;}.cls-206{fill:#e03054;}.cls-207{fill:#f2cc4f;}.cls-208{fill:#1aab94;}.cls-209{fill:#4f0f21;}.cls-210{fill:#ccd670;}.cls-211{fill:#f7ab1c;}.cls-212{fill:#1c3363;}.cls-213{fill:#9e2b8a;}.cls-214{fill:#3382bf;}.cls-215{fill:#fac921;}.cls-216{fill:#fac21c;}.cls-217{fill:#7a8a42;}.cls-218{fill:#451247;}.cls-219{fill:#1c0f40;}.cls-220{fill:#5c337a;}.cls-221{fill:#911a45;}.cls-222{fill:#ad297d;}.cls-223{fill:#61c7c9;}.cls-224{fill:#7dcfd6;}.cls-225{fill:#1f94a3;}.cls-226{fill:#1fa699;}.cls-227{fill:#fab81a;}.cls-228{fill:#c9bd42;}.cls-229{fill:#701a54;}.cls-230{fill:#f5de0f;}.cls-231{fill:#b22e8c;}.cls-232{fill:#e8bd26;}.cls-233{fill:#db668f;}.cls-234{fill:#6b2b8c;}.cls-235{fill:#e8a830;}.cls-236{fill:#cfab9c;}.cls-237{fill:#f5e55e;}.cls-238{fill:#cf4f87;}.cls-239{fill:#630a29;}.cls-240{fill:#173863;}.cls-241{fill:#871721;}.cls-242{fill:#175782;}.cls-243{fill:#1ca8ba;}.cls-244{clip-path:url(#clippath);}.cls-245{fill:#f2612e;}.cls-246{fill:#941a29;}.cls-247{fill:#f04f29;}.cls-248{fill:#a31f5c;}.cls-249{fill:#b8cc33;}.cls-250{fill:#911a4a;}.cls-251{fill:#128073;}.cls-252{fill:#248fb8;}.cls-253{fill:#bf3830;}.cls-254{fill:#1a305c;}.cls-255{fill:#bf2963;}.cls-256{fill:#1ca1a3;}</style><clipPath id="clippath"><rect class="cls-86" width="737.01" height="538.58"/></clipPath></defs><g class="cls-244"><rect class="cls-66" y=".15" width="737.01" height="538.28"/><rect class="cls-66" y=".15" width="737.01" height="538.28"/><polygon class="cls-33" points="370.3 171.92 370.3 192.39 392.17 193.39 370.3 171.92"/><polygon class="cls-63" points="370.3 192.39 370.3 171.92 348.43 193.39 370.3 192.39"/><polygon class="cls-197" points="392.17 193.39 370.3 192.39 401.96 224.95 392.17 193.39"/><polygon class="cls-137" points="370.3 171.92 392.17 193.39 397.66 176.32 370.3 171.92"/><polygon class="cls-132" points="348.43 193.39 370.3 171.92 343.04 176.32 348.43 193.39"/><polygon class="cls-234" points="370.3 192.39 348.43 193.39 338.74 224.95 370.3 192.39"/><polygon class="cls-43" points="370.3 192.39 370.3 224.85 401.96 224.95 370.3 192.39"/><polygon class="cls-32" points="370.3 224.85 370.3 192.39 338.74 224.95 370.3 224.85"/><polygon class="cls-126" points="401.96 224.95 370.3 224.85 370.3 247.42 401.96 224.95"/><polygon class="cls-62" points="370.3 224.85 338.74 224.95 370.3 247.42 370.3 224.85"/><polygon class="cls-153" points="401.96 224.95 370.3 247.42 413.74 246.82 401.96 224.95"/><polygon class="cls-28" points="370.3 247.42 338.74 224.95 327.66 246.72 370.3 247.42"/><polygon class="cls-247" points="370.3 247.42 370.3 274.58 428.72 274.58 370.3 247.42"/><polygon class="cls-122" points="370.3 274.58 370.3 247.42 311.98 274.58 370.3 274.58"/><polygon class="cls-21" points="428.72 274.58 370.3 274.58 392.47 288.37 428.72 274.58"/><polygon class="cls-29" points="370.3 247.42 428.72 274.58 413.74 246.82 370.3 247.42"/><polygon class="cls-135" points="311.98 274.58 370.3 247.42 327.66 246.72 311.98 274.58"/><polygon class="cls-222" points="370.3 274.58 311.98 274.58 348.13 288.37 370.3 274.58"/><polygon class="cls-16" points="370.3 274.58 370.3 301.85 392.47 288.37 370.3 274.58"/><polygon class="cls-76" points="370.3 301.85 370.3 274.58 348.13 288.37 370.3 301.85"/><polygon class="cls-35" points="392.47 288.37 370.3 301.85 426.53 301.85 392.47 288.37"/><polygon class="cls-255" points="370.3 301.85 348.13 288.37 314.08 301.85 370.3 301.85"/><polygon class="cls-127" points="370.3 301.85 370.3 334.7 395.37 317.63 370.3 301.85"/><polygon class="cls-161" points="370.3 334.7 370.3 301.85 345.34 317.63 370.3 334.7"/><polygon class="cls-250" points="395.37 317.63 370.3 334.7 447.2 331.51 395.37 317.63"/><polygon class="cls-80" points="370.3 301.85 395.37 317.63 426.53 301.85 370.3 301.85"/><polygon class="cls-134" points="345.34 317.63 370.3 301.85 314.08 301.85 345.34 317.63"/><polygon class="cls-100" points="370.3 334.7 345.34 317.63 293.41 331.51 370.3 334.7"/><polygon class="cls-90" points="381.29 373.45 379.39 371.15 370.3 396.62 381.29 373.45"/><polygon class="cls-191" points="379.39 371.15 381.29 373.45 382.98 369.76 379.39 371.15"/><polygon class="cls-37" points="379.39 371.15 382.98 369.76 370.4 359.57 379.39 371.15"/><polygon class="cls-196" points="382.98 369.76 381.29 373.45 387.18 381.14 382.98 369.76"/><polygon class="cls-4" points="379.39 371.15 370.4 359.57 370.3 396.62 379.39 371.15"/><polygon class="cls-209" points="370.4 359.57 382.98 369.76 370.3 334.7 370.4 359.57"/><polygon class="cls-246" points="370.4 359.57 370.3 334.7 357.82 369.36 370.4 359.57"/><polygon class="cls-141" points="370.3 334.7 382.98 369.76 396.07 341.99 370.3 334.7"/><polygon class="cls-73" points="359.52 373.15 357.82 369.36 353.52 381.14 359.52 373.15"/><polygon class="cls-27" points="357.82 369.36 359.52 373.15 370.4 359.57 357.82 369.36"/><polygon class="cls-42" points="370.4 359.57 359.52 373.15 370.3 396.62 370.4 359.57"/><polygon class="cls-48" points="357.82 369.36 370.3 334.7 344.74 341.99 357.82 369.36"/><polygon class="cls-120" points="381.29 373.45 370.3 396.62 387.18 381.14 381.29 373.45"/><polygon class="cls-144" points="370.3 396.62 359.52 373.15 353.52 381.14 370.3 396.62"/><polygon class="cls-175" points="370.3 396.62 370.3 416.49 383.78 403.61 370.3 396.62"/><polygon class="cls-165" points="370.3 416.49 370.3 396.62 356.82 403.61 370.3 416.49"/><polygon class="cls-206" points="383.78 403.61 370.3 416.49 370.3 475.51 383.78 403.61"/><polygon class="cls-118" points="370.3 396.62 383.78 403.61 387.18 381.14 370.3 396.62"/><polygon class="cls-106" points="356.82 403.61 370.3 396.62 353.52 381.14 356.82 403.61"/><polygon class="cls-133" points="370.3 416.49 356.82 403.61 370.3 475.51 370.3 416.49"/><polygon class="cls-71" points="383.78 403.61 370.3 475.51 411.75 386.83 383.78 403.61"/><polygon class="cls-177" points="370.3 475.51 356.82 403.61 328.96 386.83 370.3 475.51"/><polygon class="cls-97" points="256.65 248.22 279.72 225.55 263.25 226.15 256.65 248.22"/><polygon class="cls-172" points="279.72 225.55 256.65 248.22 291.71 247.92 279.72 225.55"/><polygon class="cls-67" points="279.72 225.55 291.71 247.92 307.69 225.15 279.72 225.55"/><polygon class="cls-40" points="291.71 247.92 256.65 248.22 266.94 274.38 291.71 247.92"/><polygon class="cls-75" points="279.72 225.55 307.69 225.15 289.81 212.07 279.72 225.55"/><polygon class="cls-211" points="307.69 225.15 291.71 247.92 327.66 246.72 307.69 225.15"/><polygon class="cls-147" points="279.72 225.55 289.81 212.07 263.25 226.15 279.72 225.55"/><polygon class="cls-226" points="289.81 212.07 307.69 225.15 301.89 205.68 289.81 212.07"/><polygon class="cls-95" points="289.81 212.07 301.89 205.68 299.8 198.49 289.81 212.07"/><polygon class="cls-179" points="301.89 205.68 307.69 225.15 324.06 193.89 301.89 205.68"/><polygon class="cls-207" points="256.65 248.22 263.25 226.15 239.68 244.03 256.65 248.22"/><polygon class="cls-105" points="348.13 288.37 311.98 274.58 314.08 301.85 348.13 288.37"/><polygon class="cls-50" points="216.51 274.08 125.13 299.75 170.47 301.85 216.51 274.08"/><polygon class="cls-25" points="216.51 274.08 170.47 301.85 231.49 274.48 216.51 274.08"/><polygon class="cls-171" points="170.47 301.85 125.13 299.75 115.64 318.62 170.47 301.85"/><polygon class="cls-190" points="216.51 274.08 231.49 274.48 239.68 244.03 216.51 274.08"/><polygon class="cls-151" points="231.49 274.48 170.47 301.85 226.67 300.54 231.49 274.48"/><polygon class="cls-96" points="57.92 318.72 109.85 338 115.64 318.62 57.92 318.72"/><polygon class="cls-56" points="115.64 318.62 109.85 338 142.21 338.1 115.64 318.62"/><polygon class="cls-78" points="57.92 318.72 115.64 318.62 125.13 299.75 57.92 318.72"/><polygon class="cls-88" points="226.67 300.54 272.43 292.76 314.08 301.85 226.67 300.54"/><polygon class="cls-213" points="314.08 301.85 272.43 292.76 300.2 286.47 314.08 301.85"/><polygon class="cls-53" points="314.08 301.85 226.67 300.54 289.81 318.62 314.08 301.85"/><polygon class="cls-231" points="300.2 286.47 314.08 301.85 311.98 274.58 300.2 286.47"/><polygon class="cls-51" points="226.67 300.54 248.77 286.77 231.49 274.48 226.67 300.54"/><polygon class="cls-169" points="248.77 286.77 226.67 300.54 272.43 292.76 248.77 286.77"/><polygon class="cls-117" points="248.77 286.77 272.43 292.76 266.94 274.38 248.77 286.77"/><polygon class="cls-65" points="272.43 292.76 300.2 286.47 266.94 274.38 272.43 292.76"/><polygon class="cls-36" points="266.94 274.38 300.2 286.47 311.98 274.58 266.94 274.38"/><polygon class="cls-38" points="266.94 274.38 311.98 274.58 327.66 246.72 266.94 274.38"/><polygon class="cls-19" points="289.81 318.62 226.67 300.54 190.54 318.53 289.81 318.62"/><polygon class="cls-162" points="314.08 301.85 289.81 318.62 345.34 317.63 314.08 301.85"/><polygon class="cls-1" points="190.54 318.53 226.67 300.54 170.47 301.85 190.54 318.53"/><polygon class="cls-219" points="289.81 318.62 190.54 318.53 293.41 331.51 289.81 318.62"/><polygon class="cls-2" points="255.66 369.36 265.94 361.67 237.18 346.29 255.66 369.36"/><polygon class="cls-109" points="265.94 361.67 255.66 369.36 300.99 370.36 265.94 361.67"/><polygon class="cls-194" points="237.18 346.29 265.94 361.67 277.13 353.48 237.18 346.29"/><polygon class="cls-113" points="255.66 369.36 237.18 346.29 191.94 338.2 255.66 369.36"/><polygon class="cls-173" points="300.99 370.36 255.66 369.36 276.93 395.02 300.99 370.36"/><polygon class="cls-54" points="265.94 361.67 300.99 370.36 277.13 353.48 265.94 361.67"/><polygon class="cls-72" points="237.18 346.29 277.13 353.48 264.04 338.9 237.18 346.29"/><polygon class="cls-116" points="277.13 353.48 300.99 370.36 293.41 331.51 277.13 353.48"/><polygon class="cls-24" points="183.95 352.98 191.94 338.2 166.28 338.1 183.95 352.98"/><polygon class="cls-44" points="191.94 338.2 183.95 352.98 212.61 377.05 191.94 338.2"/><polygon class="cls-186" points="191.94 338.2 212.61 377.05 255.66 369.36 191.94 338.2"/><polygon class="cls-189" points="212.61 377.05 183.95 352.98 196.93 377.15 212.61 377.05"/><polygon class="cls-202" points="255.66 369.36 212.61 377.05 246.67 381.94 255.66 369.36"/><polygon class="cls-129" points="166.28 338.1 191.94 338.2 115.64 318.62 166.28 338.1"/><polygon class="cls-99" points="183.95 352.98 166.28 338.1 167.77 352.38 183.95 352.98"/><polygon class="cls-15" points="196.93 377.15 180.46 359.47 175.16 368.86 196.93 377.15"/><polygon class="cls-98" points="180.46 359.47 196.93 377.15 183.95 352.98 180.46 359.47"/><polygon class="cls-198" points="180.46 359.47 183.95 352.98 167.77 352.38 180.46 359.47"/><polygon class="cls-156" points="167.77 352.38 166.28 338.1 142.21 338.1 167.77 352.38"/><polygon class="cls-221" points="180.46 359.47 167.77 352.38 168.87 363.07 180.46 359.47"/><polygon class="cls-112" points="175.16 368.86 180.46 359.47 168.87 363.07 175.16 368.86"/><polygon class="cls-193" points="196.93 377.15 175.16 368.86 170.37 377.85 196.93 377.15"/><polygon class="cls-124" points="168.87 363.07 167.77 352.38 142.21 338.1 168.87 363.07"/><polygon class="cls-149" points="175.16 368.86 168.87 363.07 170.37 377.85 175.16 368.86"/><polygon class="cls-139" points="170.37 377.85 168.87 363.07 142.21 338.1 170.37 377.85"/><polygon class="cls-45" points="370.3 475.51 328.96 386.83 356.62 461.63 370.3 475.51"/><polygon class="cls-253" points="328.96 386.83 356.82 403.61 353.52 381.14 328.96 386.83"/><polygon class="cls-232" points="356.62 461.63 328.96 386.83 341.44 450.45 356.62 461.63"/><polygon class="cls-84" points="370.3 475.51 356.62 461.63 337.95 461.53 370.3 475.51"/><polygon class="cls-174" points="341.44 450.45 326.76 457.94 337.95 461.53 341.44 450.45"/><polygon class="cls-18" points="326.76 457.94 341.44 450.45 323.16 440.06 326.76 457.94"/><polygon class="cls-108" points="341.44 450.45 337.95 461.53 356.62 461.63 341.44 450.45"/><polygon class="cls-249" points="323.16 440.06 341.44 450.45 317.17 393.82 323.16 440.06"/><polygon class="cls-150" points="341.44 450.45 328.96 386.83 317.17 393.82 341.44 450.45"/><polygon class="cls-3" points="115.64 318.62 191.94 338.2 190.54 318.53 115.64 318.62"/><polygon class="cls-185" points="190.54 318.53 191.94 338.2 264.04 338.9 190.54 318.53"/><polygon class="cls-60" points="115.64 318.62 190.54 318.53 170.47 301.85 115.64 318.62"/><polygon class="cls-58" points="115.64 318.62 142.21 338.1 166.28 338.1 115.64 318.62"/><polygon class="cls-225" points="433.02 225.15 438.71 205.68 416.64 193.89 433.02 225.15"/><polygon class="cls-188" points="438.71 205.68 433.02 225.15 451.39 212.47 438.71 205.68"/><polygon class="cls-163" points="438.71 205.68 451.39 212.47 440.81 198.49 438.71 205.68"/><polygon class="cls-93" points="451.39 212.47 433.02 225.15 456.39 225.95 451.39 212.47"/><polygon class="cls-12" points="451.39 212.47 456.39 225.95 477.36 226.15 451.39 212.47"/><polygon class="cls-215" points="456.39 225.95 433.02 225.15 449 247.92 456.39 225.95"/><polygon class="cls-64" points="449 247.92 433.02 225.15 413.74 246.82 449 247.92"/><polygon class="cls-46" points="456.39 225.95 449 247.92 483.95 248.22 456.39 225.95"/><polygon class="cls-142" points="456.39 225.95 483.95 248.22 477.36 226.15 456.39 225.95"/><polygon class="cls-154" points="483.95 248.22 449 247.92 473.66 274.38 483.95 248.22"/><polygon class="cls-223" points="451.39 212.47 477.36 226.15 440.81 198.49 451.39 212.47"/><polygon class="cls-192" points="477.36 226.15 483.95 248.22 500.93 244.03 477.36 226.15"/><polygon class="cls-115" points="428.72 274.58 392.47 288.37 426.53 301.85 428.72 274.58"/><polygon class="cls-167" points="509.21 274.48 524.19 274.08 500.93 244.03 509.21 274.48"/><polygon class="cls-79" points="524.19 274.08 509.21 274.48 531.68 285.07 524.19 274.08"/><polygon class="cls-237" points="524.19 274.08 531.68 285.07 560.45 284.27 524.19 274.08"/><polygon class="cls-146" points="531.68 285.07 509.21 274.48 491.94 286.77 531.68 285.07"/><polygon class="cls-57" points="560.45 284.27 531.68 285.07 570.13 301.85 560.45 284.27"/><polygon class="cls-5" points="560.45 284.27 570.13 301.85 615.47 299.75 560.45 284.27"/><polygon class="cls-228" points="570.13 301.85 531.68 285.07 524.19 291.86 570.13 301.85"/><polygon class="cls-236" points="615.47 299.75 570.13 301.85 620.56 309.74 615.47 299.75"/><polygon class="cls-69" points="630.75 338 682.68 318.53 628.45 327.81 630.75 338"/><polygon class="cls-164" points="628.45 327.81 682.68 318.53 624.96 318.62 628.45 327.81"/><polygon class="cls-252" points="630.75 338 628.45 327.81 598.79 339.1 630.75 338"/><polygon class="cls-70" points="440.51 286.47 428.72 274.58 426.53 301.85 440.51 286.47"/><polygon class="cls-184" points="428.72 274.58 440.51 286.47 473.66 274.38 428.72 274.58"/><polygon class="cls-157" points="428.72 274.58 473.66 274.38 413.74 246.82 428.72 274.58"/><polygon class="cls-10" points="473.66 274.38 440.51 286.47 468.17 292.76 473.66 274.38"/><polygon class="cls-91" points="473.66 274.38 468.17 292.76 491.94 286.77 473.66 274.38"/><polygon class="cls-130" points="468.17 292.76 440.51 286.47 508.02 301.85 468.17 292.76"/><polygon class="cls-23" points="468.17 292.76 508.02 301.85 491.94 286.77 468.17 292.76"/><polygon class="cls-168" points="491.94 286.77 508.02 301.85 524.19 291.86 491.94 286.77"/><polygon class="cls-47" points="508.02 301.85 440.51 286.47 426.53 301.85 508.02 301.85"/><polygon class="cls-214" points="508.02 301.85 426.53 301.85 450.89 318.62 508.02 301.85"/><polygon class="cls-125" points="508.02 301.85 450.89 318.62 550.16 318.53 508.02 301.85"/><polygon class="cls-170" points="550.16 318.53 450.89 318.62 447.2 331.51 550.16 318.53"/><polygon class="cls-166" points="508.02 301.85 550.16 318.53 570.13 301.85 508.02 301.85"/><polygon class="cls-111" points="450.89 318.62 426.53 301.85 395.37 317.63 450.89 318.62"/><polygon class="cls-94" points="484.95 369.36 463.58 353.48 439.61 370.06 484.95 369.36"/><polygon class="cls-158" points="463.58 353.48 484.95 369.36 498.73 344.09 463.58 353.48"/><polygon class="cls-183" points="439.61 370.06 463.58 353.48 434.61 345.09 439.61 370.06"/><polygon class="cls-92" points="484.95 369.36 439.61 370.06 463.78 395.02 484.95 369.36"/><polygon class="cls-131" points="498.73 344.09 484.95 369.36 548.66 337.7 498.73 344.09"/><polygon class="cls-254" points="463.58 353.48 498.73 344.09 458.38 335.6 463.58 353.48"/><polygon class="cls-30" points="548.66 337.7 553.55 373.95 571.23 363.96 548.66 337.7"/><polygon class="cls-83" points="553.55 373.95 548.66 337.7 528.29 376.65 553.55 373.95"/><polygon class="cls-176" points="548.66 337.7 571.23 363.96 598.79 339.1 548.66 337.7"/><polygon class="cls-220" points="528.29 376.65 548.66 337.7 484.95 369.36 528.29 376.65"/><polygon class="cls-61" points="411.75 386.83 370.3 475.51 384.18 461.53 411.75 386.83"/><polygon class="cls-84" points="384.18 461.53 370.3 475.51 401.66 462.53 384.18 461.53"/><polygon class="cls-155" points="411.75 386.83 384.18 461.53 399.16 450.45 411.75 386.83"/><polygon class="cls-229" points="383.78 403.61 411.75 386.83 387.18 381.14 383.78 403.61"/><polygon class="cls-101" points="399.16 450.45 417.44 440.06 433.19 390.36 399.16 450.45"/><polygon class="cls-143" points="417.44 440.06 399.16 450.45 413.94 457.94 417.44 440.06"/><polygon class="cls-20" points="413.94 457.94 399.16 450.45 401.66 462.53 413.94 457.94"/><polygon class="cls-11" points="417.44 440.06 433.19 390.36 463.78 395.02 417.44 440.06"/><polygon class="cls-81" points="463.78 395.02 433.19 390.36 439.61 370.06 463.78 395.02"/><polygon class="cls-212" points="433.19 390.36 439.61 370.06 411.75 386.83 433.19 390.36"/><polygon class="cls-31" points="433.19 390.36 411.75 386.83 399.16 450.45 433.19 390.36"/><polygon class="cls-9" points="411.75 386.83 439.61 370.06 434.61 345.09 411.75 386.83"/><polygon class="cls-84" points="401.66 462.53 399.16 450.45 384.18 461.53 401.66 462.53"/><polygon class="cls-14" points="293.41 331.51 300.99 370.36 305.99 345.09 293.41 331.51"/><polygon class="cls-123" points="305.99 345.09 300.99 370.36 328.96 386.83 305.99 345.09"/><polygon class="cls-26" points="293.41 331.51 305.99 345.09 344.74 341.99 293.41 331.51"/><polygon class="cls-201" points="277.13 353.48 293.41 331.51 264.04 338.9 277.13 353.48"/><polygon class="cls-217" points="288.41 419.09 277.53 404.01 248.07 392.73 288.41 419.09"/><polygon class="cls-181" points="277.53 404.01 288.41 419.09 323.16 440.06 277.53 404.01"/><polygon class="cls-128" points="248.07 392.73 277.53 404.01 276.93 395.02 248.07 392.73"/><polygon class="cls-138" points="288.41 419.09 248.07 392.73 285.62 426.98 288.41 419.09"/><polygon class="cls-159" points="323.16 440.06 288.41 419.09 285.62 426.98 323.16 440.06"/><polygon class="cls-251" points="277.53 404.01 323.16 440.06 276.93 395.02 277.53 404.01"/><polygon class="cls-238" points="624.96 318.62 682.68 318.53 620.56 309.74 624.96 318.62"/><polygon class="cls-7" points="628.45 327.81 624.96 318.62 548.66 337.7 628.45 327.81"/><polygon class="cls-121" points="628.45 327.81 548.66 337.7 598.79 339.1 628.45 327.81"/><polygon class="cls-34" points="548.66 337.7 550.16 318.53 458.38 335.6 548.66 337.7"/><polygon class="cls-13" points="550.16 318.53 548.66 337.7 624.96 318.62 550.16 318.53"/><polygon class="cls-104" points="550.16 318.53 624.96 318.62 570.13 301.85 550.16 318.53"/><polygon class="cls-82" points="531.68 285.07 491.94 286.77 524.19 291.86 531.68 285.07"/><polygon class="cls-235" points="491.94 286.77 509.21 274.48 473.66 274.38 491.94 286.77"/><polygon class="cls-119" points="524.19 291.86 508.02 301.85 570.13 301.85 524.19 291.86"/><polygon class="cls-152" points="329.46 183.21 324.06 193.89 343.04 176.32 329.46 183.21"/><polygon class="cls-224" points="324.06 193.89 329.46 183.21 299.8 198.49 324.06 193.89"/><polygon class="cls-187" points="343.04 176.32 324.06 193.89 348.43 193.39 343.04 176.32"/><polygon class="cls-256" points="324.06 193.89 299.8 198.49 301.89 205.68 324.06 193.89"/><polygon class="cls-103" points="324.06 193.89 307.69 225.15 338.74 224.95 324.06 193.89"/><polygon class="cls-227" points="327.66 246.72 291.71 247.92 266.94 274.38 327.66 246.72"/><polygon class="cls-245" points="307.69 225.15 327.66 246.72 338.74 224.95 307.69 225.15"/><polygon class="cls-89" points="231.49 274.48 256.65 248.22 239.68 244.03 231.49 274.48"/><polygon class="cls-230" points="256.65 248.22 231.49 274.48 266.94 274.38 256.65 248.22"/><polygon class="cls-77" points="266.94 274.38 231.49 274.48 248.77 286.77 266.94 274.38"/><polygon class="cls-199" points="345.34 317.63 289.81 318.62 293.41 331.51 345.34 317.63"/><polygon class="cls-6" points="370.3 334.7 293.41 331.51 344.74 341.99 370.3 334.7"/><polygon class="cls-74" points="344.74 341.99 305.99 345.09 353.52 381.14 344.74 341.99"/><polygon class="cls-148" points="293.41 331.51 190.54 318.53 264.04 338.9 293.41 331.51"/><polygon class="cls-240" points="237.18 346.29 264.04 338.9 191.94 338.2 237.18 346.29"/><polygon class="cls-110" points="246.67 381.94 248.07 392.73 276.93 395.02 246.67 381.94"/><polygon class="cls-84" points="248.07 392.73 246.67 381.94 228.79 389.63 248.07 392.73"/><polygon class="cls-145" points="246.67 381.94 276.93 395.02 255.66 369.36 246.67 381.94"/><polygon class="cls-114" points="228.79 389.63 246.67 381.94 212.61 377.05 228.79 389.63"/><polygon class="cls-203" points="300.99 370.36 323.16 440.06 317.17 393.82 300.99 370.36"/><polygon class="cls-68" points="323.16 440.06 300.99 370.36 276.93 395.02 323.16 440.06"/><polygon class="cls-107" points="300.99 370.36 317.17 393.82 328.96 386.83 300.99 370.36"/><polygon class="cls-39" points="305.99 345.09 328.96 386.83 353.52 381.14 305.99 345.09"/><polygon class="cls-241" points="353.52 381.14 357.82 369.36 344.74 341.99 353.52 381.14"/><polygon class="cls-85" points="438.71 205.68 440.81 198.49 416.64 193.89 438.71 205.68"/><polygon class="cls-242" points="433.02 225.15 416.64 193.89 401.96 224.95 433.02 225.15"/><polygon class="cls-178" points="416.64 193.89 440.81 198.49 397.66 176.32 416.64 193.89"/><polygon class="cls-182" points="413.74 246.82 433.02 225.15 401.96 224.95 413.74 246.82"/><polygon class="cls-216" points="449 247.92 413.74 246.82 473.66 274.38 449 247.92"/><polygon class="cls-204" points="483.95 248.22 473.66 274.38 509.21 274.48 483.95 248.22"/><polygon class="cls-200" points="483.95 248.22 509.21 274.48 500.93 244.03 483.95 248.22"/><polygon class="cls-136" points="620.56 309.74 570.13 301.85 624.96 318.62 620.56 309.74"/><polygon class="cls-233" points="615.47 299.75 620.56 309.74 682.68 318.53 615.47 299.75"/><polygon class="cls-248" points="450.89 318.62 395.37 317.63 447.2 331.51 450.89 318.62"/><polygon class="cls-205" points="447.2 331.51 370.3 334.7 396.07 341.99 447.2 331.51"/><polygon class="cls-180" points="447.2 331.51 396.07 341.99 434.61 345.09 447.2 331.51"/><polygon class="cls-8" points="447.2 331.51 434.61 345.09 463.58 353.48 447.2 331.51"/><polygon class="cls-239" points="434.61 345.09 396.07 341.99 387.18 381.14 434.61 345.09"/><polygon class="cls-218" points="550.16 318.53 447.2 331.51 458.38 335.6 550.16 318.53"/><polygon class="cls-49" points="463.58 353.48 458.38 335.6 447.2 331.51 463.58 353.48"/><polygon class="cls-59" points="458.38 335.6 498.73 344.09 548.66 337.7 458.38 335.6"/><polygon class="cls-160" points="528.29 376.65 484.95 369.36 494.04 381.94 528.29 376.65"/><polygon class="cls-84" points="494.04 381.94 492.64 392.73 511.81 389.63 494.04 381.94"/><polygon class="cls-210" points="492.64 392.73 494.04 381.94 463.78 395.02 492.64 392.73"/><polygon class="cls-102" points="494.04 381.94 511.81 389.63 528.29 376.65 494.04 381.94"/><polygon class="cls-208" points="484.95 369.36 463.78 395.02 494.04 381.94 484.95 369.36"/><polygon class="cls-41" points="492.64 392.73 463.78 395.02 455.09 426.98 492.64 392.73"/><polygon class="cls-140" points="463.78 395.02 417.44 440.06 455.09 426.98 463.78 395.02"/><polygon class="cls-195" points="387.18 381.14 411.75 386.83 434.61 345.09 387.18 381.14"/><polygon class="cls-17" points="396.07 341.99 382.98 369.76 387.18 381.14 396.07 341.99"/><polygon class="cls-55" points="324.06 193.89 338.74 224.95 348.43 193.39 324.06 193.89"/><polygon class="cls-243" points="397.66 176.32 392.17 193.39 416.64 193.89 397.66 176.32"/><polygon class="cls-52" points="392.17 193.39 401.96 224.95 416.64 193.89 392.17 193.39"/><polyline class="cls-87" points="277.13 353.48 300.99 370.36 317.17 393.82 328.96 386.83 353.52 381.14 344.74 341.99 293.41 331.51 277.13 353.48"/><polyline class="cls-87" points="289.81 318.62 226.67 300.54 190.54 318.53 191.94 338.2 237.18 346.29 264.04 338.9 293.41 331.51 289.81 318.62"/><polyline class="cls-87" points="401.96 224.95 392.17 193.39 397.66 176.32 370.3 171.92 343.04 176.32 348.43 193.39 338.74 224.95 370.3 224.85 401.96 224.95"/><polyline class="cls-87" points="170.47 301.85 125.13 299.75 115.64 318.62 109.85 338 142.21 338.1 166.28 338.1 191.94 338.2 190.54 318.53 170.47 301.85"/><polyline class="cls-87" points="370.3 475.51 356.82 403.61 328.96 386.83 317.17 393.82 323.16 440.06 341.44 450.45 356.62 461.63 370.3 475.51"/><polyline class="cls-87" points="255.66 369.36 237.18 346.29 191.94 338.2 183.95 352.98 180.46 359.47 196.93 377.15 212.61 377.05 255.66 369.36"/><polyline class="cls-87" points="439.61 370.06 484.95 369.36 498.73 344.09 458.38 335.6 447.2 331.51 434.61 345.09 439.61 370.06"/><polyline class="cls-87" points="383.78 403.61 370.3 475.51 384.18 461.53 399.16 450.45 411.75 386.83 387.18 381.14 383.78 403.61"/><polyline class="cls-87" points="399.16 450.45 417.44 440.06 463.78 395.02 433.19 390.36 411.75 386.83 399.16 450.45"/><polyline class="cls-87" points="553.55 373.95 571.23 363.96 598.79 339.1 548.66 337.7 528.29 376.65 553.55 373.95"/><polyline class="cls-87" points="323.16 440.06 317.17 393.82 300.99 370.36 276.93 395.02 323.16 440.06"/><polyline class="cls-87" points="379.39 371.15 382.98 369.76 396.07 341.99 370.3 334.7 344.74 341.99 353.52 381.14 359.52 373.15 370.4 359.57 379.39 371.15"/><polyline class="cls-87" points="508.02 301.85 450.89 318.62 447.2 331.51 550.16 318.53 508.02 301.85"/><polyline class="cls-87" points="395.37 317.63 370.3 334.7 396.07 341.99 447.2 331.51 450.89 318.62 426.53 301.85 395.37 317.63"/><polyline class="cls-87" points="370.3 247.42 370.3 274.58 428.72 274.58 413.74 246.82 370.3 247.42"/><polyline class="cls-87" points="370.3 274.58 370.3 247.42 327.66 246.72 311.98 274.58 370.3 274.58"/><polyline class="cls-87" points="289.81 212.07 307.69 225.15 338.74 224.95 348.43 193.39 343.04 176.32 329.46 183.21 324.06 193.89 301.89 205.68 289.81 212.07"/><polyline class="cls-87" points="307.69 225.15 291.71 247.92 327.66 246.72 338.74 224.95 307.69 225.15"/><polyline class="cls-87" points="314.08 301.85 272.43 292.76 266.94 274.38 311.98 274.58 300.2 286.47 314.08 301.85"/><polyline class="cls-87" points="550.16 318.53 548.66 337.7 624.96 318.62 570.13 301.85 550.16 318.53"/><polyline class="cls-87" points="456.39 225.95 433.02 225.15 449 247.92 483.95 248.22 477.36 226.15 456.39 225.95"/><polyline class="cls-87" points="370.3 334.7 395.37 317.63 426.53 301.85 370.3 301.85 345.34 317.63 370.3 334.7"/><polyline class="cls-87" points="370.3 274.58 311.98 274.58 314.08 301.85 348.13 288.37 370.3 274.58"/><polyline class="cls-87" points="531.68 285.07 509.21 274.48 473.66 274.38 491.94 286.77 508.02 301.85 524.19 291.86 531.68 285.07"/><polyline class="cls-87" points="379.39 371.15 381.29 373.45 387.18 381.14 434.61 345.09 447.2 331.51 396.07 341.99 382.98 369.76 379.39 371.15"/><polyline class="cls-87" points="265.94 361.67 255.66 369.36 246.67 381.94 248.07 392.73 276.93 395.02 300.99 370.36 265.94 361.67"/><polyline class="cls-87" points="548.66 337.7 550.16 318.53 447.2 331.51 458.38 335.6 498.73 344.09 548.66 337.7"/><polyline class="cls-87" points="57.92 318.72 109.85 338 115.64 318.62 125.13 299.75 57.92 318.72"/><polyline class="cls-87" points="266.94 274.38 311.98 274.58 327.66 246.72 291.71 247.92 266.94 274.38"/><polyline class="cls-87" points="428.72 274.58 473.66 274.38 449 247.92 413.74 246.82 428.72 274.58"/><polyline class="cls-87" points="428.72 274.58 370.3 274.58 348.13 288.37 370.3 301.85 392.47 288.37 428.72 274.58"/><polyline class="cls-87" points="492.64 392.73 463.78 395.02 417.44 440.06 455.09 426.98 492.64 392.73"/><polyline class="cls-87" points="216.51 274.08 231.49 274.48 266.94 274.38 256.65 248.22 239.68 244.03 216.51 274.08"/><polyline class="cls-87" points="411.75 386.83 439.61 370.06 434.61 345.09 387.18 381.14 411.75 386.83"/><polyline class="cls-87" points="216.51 274.08 170.47 301.85 226.67 300.54 231.49 274.48 216.51 274.08"/><polyline class="cls-87" points="528.29 376.65 484.95 369.36 463.78 395.02 492.64 392.73 511.81 389.63 528.29 376.65"/><polyline class="cls-87" points="528.29 376.65 548.66 337.7 484.95 369.36 528.29 376.65"/><polyline class="cls-87" points="484.95 369.36 439.61 370.06 433.19 390.36 463.78 395.02 484.95 369.36"/><polyline class="cls-87" points="473.66 274.38 440.51 286.47 426.53 301.85 508.02 301.85 491.94 286.77 473.66 274.38"/><polyline class="cls-87" points="256.65 248.22 291.71 247.92 307.69 225.15 289.81 212.07 263.25 226.15 239.68 244.03 256.65 248.22"/><polyline class="cls-87" points="392.47 288.37 370.3 301.85 426.53 301.85 428.72 274.58 392.47 288.37"/><polyline class="cls-87" points="370.3 224.85 338.74 224.95 327.66 246.72 370.3 247.42 370.3 224.85"/><polyline class="cls-87" points="433.02 225.15 416.64 193.89 401.96 224.95 433.02 225.15"/><polyline class="cls-87" points="314.08 301.85 289.81 318.62 293.41 331.51 345.34 317.63 314.08 301.85"/><polyline class="cls-87" points="370.4 359.57 359.52 373.15 353.52 381.14 328.96 386.83 356.82 403.61 370.3 396.62 370.4 359.57"/><polyline class="cls-87" points="381.29 373.45 379.39 371.15 370.4 359.57 370.3 396.62 383.78 403.61 387.18 381.14 381.29 373.45"/><polyline class="cls-87" points="397.66 176.32 392.17 193.39 401.96 224.95 416.64 193.89 397.66 176.32"/><polyline class="cls-87" points="226.67 300.54 272.43 292.76 314.08 301.85 289.81 318.62 226.67 300.54"/><polyline class="cls-87" points="483.95 248.22 473.66 274.38 509.21 274.48 500.93 244.03 483.95 248.22"/><polyline class="cls-87" points="449 247.92 433.02 225.15 401.96 224.95 413.74 246.82 449 247.92"/><polyline class="cls-87" points="231.49 274.48 226.67 300.54 272.43 292.76 266.94 274.38 231.49 274.48"/><polyline class="cls-87" points="508.02 301.85 426.53 301.85 450.89 318.62 508.02 301.85"/><polyline class="cls-87" points="216.51 274.08 125.13 299.75 170.47 301.85 216.51 274.08"/><polyline class="cls-87" points="383.78 403.61 370.3 396.62 356.82 403.61 370.3 475.51 383.78 403.61"/><polyline class="cls-87" points="255.66 369.36 265.94 361.67 277.13 353.48 264.04 338.9 237.18 346.29 255.66 369.36"/><polyline class="cls-87" points="370.3 334.7 345.34 317.63 293.41 331.51 344.74 341.99 370.3 334.7"/><polyline class="cls-87" points="498.73 344.09 484.95 369.36 548.66 337.7 498.73 344.09"/><polyline class="cls-87" points="628.45 327.81 682.68 318.53 620.56 309.74 624.96 318.62 628.45 327.81"/><polyline class="cls-87" points="508.02 301.85 550.16 318.53 570.13 301.85 508.02 301.85"/><polyline class="cls-87" points="570.13 301.85 531.68 285.07 524.19 291.86 508.02 301.85 570.13 301.85"/><polyline class="cls-87" points="288.41 419.09 277.53 404.01 276.93 395.02 248.07 392.73 285.62 426.98 288.41 419.09"/><polyline class="cls-87" points="190.54 318.53 226.67 300.54 170.47 301.85 190.54 318.53"/><polyline class="cls-87" points="167.77 352.38 166.28 338.1 142.21 338.1 170.37 377.85 168.87 363.07 167.77 352.38"/><polyline class="cls-87" points="401.96 224.95 370.3 247.42 413.74 246.82 401.96 224.95"/><polyline class="cls-87" points="291.71 247.92 256.65 248.22 266.94 274.38 291.71 247.92"/><polyline class="cls-87" points="483.95 248.22 449 247.92 473.66 274.38 483.95 248.22"/><polyline class="cls-87" points="370.3 301.85 348.13 288.37 314.08 301.85 345.34 317.63 370.3 301.85"/><polyline class="cls-87" points="428.72 274.58 426.53 301.85 440.51 286.47 473.66 274.38 428.72 274.58"/><polyline class="cls-87" points="615.47 299.75 570.13 301.85 624.96 318.62 620.56 309.74 615.47 299.75"/><polyline class="cls-87" points="183.95 352.98 191.94 338.2 166.28 338.1 167.77 352.38 168.87 363.07 180.46 359.47 183.95 352.98"/><polyline class="cls-87" points="255.66 369.36 212.61 377.05 228.79 389.63 246.67 381.94 255.66 369.36"/><polyline class="cls-87" points="560.45 284.27 570.13 301.85 615.47 299.75 560.45 284.27"/><polyline class="cls-87" points="628.45 327.81 624.96 318.62 548.66 337.7 598.79 339.1 628.45 327.81"/><polyline class="cls-87" points="401.96 224.95 370.3 224.85 370.3 247.42 401.96 224.95"/><polyline class="cls-87" points="277.53 404.01 288.41 419.09 323.16 440.06 276.93 395.02 277.53 404.01"/><polyline class="cls-87" points="196.93 377.15 180.46 359.47 168.87 363.07 170.37 377.85 196.93 377.15"/><polyline class="cls-87" points="384.18 461.53 370.3 475.51 401.66 462.53 413.94 457.94 399.16 450.45 384.18 461.53"/><polyline class="cls-87" points="370.3 475.51 356.62 461.63 341.44 450.45 326.76 457.94 337.95 461.53 370.3 475.51"/><polyline class="cls-87" points="615.47 299.75 620.56 309.74 682.68 318.53 615.47 299.75"/><polyline class="cls-87" points="630.75 338 682.68 318.53 628.45 327.81 630.75 338"/><polyline class="cls-87" points="277.13 353.48 293.41 331.51 264.04 338.9 277.13 353.48"/><polyline class="cls-87" points="289.81 212.07 301.89 205.68 324.06 193.89 329.46 183.21 299.8 198.49 289.81 212.07"/><polyline class="cls-87" points="560.45 284.27 531.68 285.07 570.13 301.85 560.45 284.27"/><polyline class="cls-87" points="524.19 274.08 509.21 274.48 531.68 285.07 560.45 284.27 524.19 274.08"/><polyline class="cls-87" points="509.21 274.48 524.19 274.08 500.93 244.03 509.21 274.48"/><polyline class="cls-87" points="433.19 390.36 439.61 370.06 411.75 386.83 433.19 390.36"/><polyline class="cls-87" points="477.36 226.15 483.95 248.22 500.93 244.03 477.36 226.15"/><polyline class="cls-87" points="265.94 361.67 300.99 370.36 277.13 353.48 265.94 361.67"/><polyline class="cls-87" points="300.2 286.47 314.08 301.85 311.98 274.58 300.2 286.47"/><polyline class="cls-87" points="323.16 440.06 288.41 419.09 285.62 426.98 323.16 440.06"/><polyline class="cls-87" points="630.75 338 628.45 327.81 598.79 339.1 630.75 338"/><polyline class="cls-87" points="416.64 193.89 433.02 225.15 456.39 225.95 477.36 226.15 440.81 198.49 397.66 176.32 416.64 193.89"/><polyline class="cls-87" points="417.44 440.06 399.16 450.45 413.94 457.94 417.44 440.06"/><polyline class="cls-87" points="326.76 457.94 341.44 450.45 323.16 440.06 326.76 457.94"/><polyline class="cls-87" points="248.07 392.73 246.67 381.94 228.79 389.63 248.07 392.73"/><text class="cls-22" transform="translate(315.35 359.89)"><tspan x="0" y="0">30</tspan></text><text class="cls-22" transform="translate(234.61 324.84)"><tspan x="0" y="0">43</tspan></text><text class="cls-22" transform="translate(367.39 200.38)"><tspan x="0" y="0">11</tspan></text><text class="cls-22" transform="translate(148.03 321.08)"><tspan x="0" y="0">47</tspan></text><text class="cls-22" transform="translate(339.3 425.38)"><tspan x="0" y="0">18</tspan></text><text class="cls-22" transform="translate(211.42 359.12)"><tspan x="0" y="0">41</tspan></text><text class="cls-22" transform="translate(460.31 352.88)"><tspan x="0" y="0">77</tspan></text><text class="cls-22" transform="translate(388.4 422.91)"><tspan x="0" y="0">24</tspan></text><text class="cls-22" transform="translate(421.9 412.43)"><tspan x="0" y="0">95</tspan></text><text class="cls-22" transform="translate(556.76 354.75)"><tspan x="0" y="0">64</tspan></text><text class="cls-22" transform="translate(300.09 401.73)"><tspan x="0" y="0">34</tspan></text><text class="cls-22" transform="translate(365.19 352.88)"><tspan x="0" y="0">79</tspan></text><text class="cls-22" transform="translate(491.05 317.3)"><tspan x="0" y="0">87</tspan></text><text class="cls-22" transform="translate(411.87 324.39)"><tspan x="0" y="0">90</tspan></text><text class="cls-22" transform="translate(392.91 261.52)"><tspan x="0" y="0">89</tspan></text><text class="cls-22" transform="translate(341.59 261.53)"><tspan x="0" y="0">59</tspan></text><text class="cls-22" transform="translate(322 206.12)"><tspan x="0" y="0">67</tspan></text><text class="cls-22" transform="translate(313.04 236.43)"><tspan x="0" y="0">38</tspan></text><text class="cls-22" transform="translate(287.78 285.45)"><tspan x="0" y="0">9</tspan></text><text class="cls-22" transform="translate(574.78 319.39)"><tspan x="0" y="0">83</tspan></text><text class="cls-22" transform="translate(457.42 236.5)"><tspan x="0" y="0">50</tspan></text><text class="cls-22" transform="translate(376.67 314.22)"><tspan x="0" y="0">32</tspan></text><text class="cls-22" transform="translate(330.14 284.12)"><tspan x="0" y="0">82</tspan></text><text class="cls-22" transform="translate(502.43 285.02)"><tspan x="0" y="0">56</tspan></text><text class="cls-22" transform="translate(405.15 353.46)"><tspan x="0" y="0">13</tspan></text><text class="cls-22" transform="translate(269.05 378.9)"><tspan x="0" y="0">8</tspan></text><text class="cls-22" transform="translate(505.57 332.16)"><tspan x="0" y="0">27</tspan></text><text class="cls-22" transform="translate(93.84 318.83)"><tspan x="0" y="0">22</tspan></text><text class="cls-22" transform="translate(296.19 261.47)"><tspan x="0" y="0">28</tspan></text><text class="cls-22" transform="translate(438.4 261.53)"><tspan x="0" y="0">35</tspan></text><text class="cls-22" transform="translate(377.89 284.63)"><tspan x="0" y="0">72</tspan></text><text class="cls-22" transform="translate(453.64 413.54)"><tspan x="0" y="0">66</tspan></text><text class="cls-22" transform="translate(240.64 262.46)"><tspan x="0" y="0">54</tspan></text><text class="cls-22" transform="translate(415.07 369.53)"><tspan x="0" y="0">33</tspan></text><text class="cls-22" transform="translate(205.62 290.27)"><tspan x="0" y="0">71</tspan></text><text class="cls-22" transform="translate(491.71 382.6)"><tspan x="0" y="0">84</tspan></text><text class="cls-22" transform="translate(517.48 361.23)"><tspan x="0" y="0">92</tspan></text><text class="cls-22" transform="translate(453.39 380.68)"><tspan x="0" y="0">29</tspan></text><text class="cls-22" transform="translate(463.99 291.89)"><tspan x="0" y="0">10</tspan></text><text class="cls-22" transform="translate(276.1 233.56)"><tspan x="0" y="0">3</tspan></text><text class="cls-22" transform="translate(404.16 292.28)"><tspan x="0" y="0">26</tspan></text><text class="cls-22" transform="translate(348.56 236.55)"><tspan x="0" y="0">81</tspan></text><text class="cls-22" transform="translate(414.06 214.67)"><tspan x="0" y="0">37</tspan></text><text class="cls-22" transform="translate(310.21 317.07)"><tspan x="0" y="0">52</tspan></text><text class="cls-22" transform="translate(353.76 386.49)"><tspan x="0" y="0">68</tspan></text><text class="cls-22" transform="translate(374.35 384.15)"><tspan x="0" y="0">63</tspan></text><text class="cls-22" transform="translate(399.93 198.34)"><tspan x="0" y="0">23</tspan></text><text class="cls-22" transform="translate(271.79 304.15)"><tspan x="0" y="0">86</tspan></text><text class="cls-22" transform="translate(489.17 261.93)"><tspan x="0" y="0">60</tspan></text><text class="cls-22" transform="translate(421.51 236.42)"><tspan x="0" y="0">76</tspan></text><text class="cls-22" transform="translate(246.8 286.11)"><tspan x="0" y="0">6</tspan></text><text class="cls-22" transform="translate(460.24 307.44)"><tspan x="0" y="0">1</tspan></text><text class="cls-22" transform="translate(167.55 291.89)"><tspan x="0" y="0">46</tspan></text><text class="cls-22" transform="translate(367.15 425.25)"><tspan x="0" y="0">88</tspan></text><text class="cls-22" transform="translate(254.56 352.48)"><tspan x="0" y="0">75</tspan></text><text class="cls-22" transform="translate(333.13 330.73)"><tspan x="0" y="0">61</tspan></text><text class="cls-22" transform="translate(507.63 350.38)"><tspan x="0" y="0">21</tspan></text><text class="cls-22" transform="translate(640.92 318.69)"><tspan x="0" y="0">40</tspan></text><text class="cls-22" transform="translate(539.62 307.41)"><tspan x="0" y="0">73</tspan></text><text class="cls-22" transform="translate(534 296.37)"><tspan x="0" y="0">16</tspan></text><text class="cls-22" transform="translate(268.26 406.23)"><tspan x="0" y="0">62</tspan></text><text class="cls-22" transform="translate(192.74 306.97)"><tspan x="0" y="0">55</tspan></text><text class="cls-22" transform="translate(156.48 351.36)"><tspan x="0" y="0">65</tspan></text><text class="cls-22" transform="translate(392.19 239.73)"><tspan x="0" y="0">19</tspan></text><text class="cls-22" transform="translate(268.62 256.84)"><tspan x="0" y="0">85</tspan></text><text class="cls-22" transform="translate(465.72 256.84)"><tspan x="0" y="0">93</tspan></text><text class="cls-22" transform="translate(340.52 302.61)"><tspan x="0" y="0">91</tspan></text><text class="cls-22" transform="translate(438.31 282.08)"><tspan x="0" y="0">70</tspan></text><text class="cls-22" transform="translate(601.97 306.74)"><tspan x="0" y="0">7</tspan></text><text class="cls-22" transform="translate(173.7 348.18)"><tspan x="0" y="0">36</tspan></text><text class="cls-22" transform="translate(231.36 378.99)"><tspan x="0" y="0">53</tspan></text><text class="cls-22" transform="translate(578.87 295.29)"><tspan x="0" y="0">12</tspan></text><text class="cls-22" transform="translate(593.69 331.06)"><tspan x="0" y="0">17</tspan></text><text class="cls-22" transform="translate(379.28 232.41)"><tspan x="0" y="0">4</tspan></text><text class="cls-22" transform="translate(291.04 416.5)"><tspan x="0" y="0">25</tspan></text><text class="cls-22" transform="translate(178.5 370.23)"><tspan x="0" y="0">2</tspan></text><text class="cls-22" transform="translate(390.42 461.31)"><tspan x="0" y="0">14</tspan></text><text class="cls-22" transform="translate(344.05 461.17)"><tspan x="0" y="0">94</tspan></text><text class="cls-22" transform="translate(636.42 309.34)"><tspan x="0" y="0">48</tspan></text><text class="cls-22" transform="translate(644.15 328.11)"><tspan x="0" y="0">45</tspan></text><text class="cls-22" transform="translate(275.04 341.29)"><tspan x="0" y="0">80</tspan></text><text class="cls-22" transform="translate(307.38 197.14)"><tspan x="0" y="0">31</tspan></text><text class="cls-22" transform="translate(550.94 290.4)"><tspan x="0" y="0">51</tspan></text><text class="cls-22" transform="translate(529.78 280.03)"><tspan x="0" y="0">74</tspan></text><text class="cls-22" transform="translate(508.3 264.2)"><tspan x="0" y="0">44</tspan></text><text class="cls-22" transform="translate(425.03 382.41)"><tspan x="0" y="0">78</tspan></text><text class="cls-22" transform="translate(484.26 239.47)"><tspan x="0" y="0">39</tspan></text><text class="cls-22" transform="translate(279.78 361.83)"><tspan x="0" y="0">5</tspan></text><text class="cls-22" transform="translate(305.6 287.63)"><tspan x="0" y="0">49</tspan></text><text class="cls-22" transform="translate(295.92 428.71)"><tspan x="0" y="0">20</tspan></text><text class="cls-22" transform="translate(616.18 334.97)"><tspan x="0" y="0">58</tspan></text><text class="cls-22" transform="translate(436.2 209.24)"><tspan x="0" y="0">57</tspan></text><text class="cls-22" transform="translate(407.03 449.48)"><tspan x="0" y="0">42</tspan></text><text class="cls-22" transform="translate(327.31 449.48)"><tspan x="0" y="0">69</tspan></text><text class="cls-22" transform="translate(238.03 388.1)"><tspan x="0" y="0">15</tspan></text></g></svg>